<svg id="Layer_1" data-name="Layer 1" xmlns="http://www.w3.org/2000/svg" viewBox="0 0 512 512"><defs><style>.cls-1{fill:#2cc1f1;}</style></defs><title>arrived action</title><path class="cls-1" d="M428.89,110.76A190.21,190.21,0,0,0,80.94,116,188.81,188.81,0,0,0,66,190c0,14.27,2.79,30.39,8.17,47.92,4.83,15.72,11.69,32.61,21,51.64,11.78,24,27.16,50.41,45.74,78.54,14.77,22.36,31.67,46,50.26,70.27,17.32,22.59,32.61,41.21,43.1,53.63H174.05a10,10,0,1,0,0,20H338.12a10,10,0,0,0,0-20H277.89c11.52-13.66,28.9-34.83,48.14-60.24,20-26.38,37.81-51.84,53-75.68,19.21-30.05,34.55-57.95,45.59-82.93A10,10,0,0,0,419.55,260a10,10,0,0,0-13.19,5.11c-24,54.47-65.62,114.14-96.28,154.61-17.43,23-33.24,42.39-43.41,54.57-3.63,4.34-7.19,8.54-10.59,12.5-15-17.45-53.67-63.72-90.2-117.34-23.71-34.79-42.47-66.74-55.79-95C94.27,241.05,85.94,211.84,86,190A170,170,0,0,1,256.08,20h0A169.57,169.57,0,0,1,426,182.69a10,10,0,0,0,10,9.58h.43A10,10,0,0,0,446,181.85a188.44,188.44,0,0,0-17.1-71.09Z"/><path class="cls-1" d="M315.87,136.83a10,10,0,0,0-13.94,2.4l-52.84,74.82-41.63-45.78a10,10,0,0,0-14.81,13.46l50,55a10,10,0,0,0,15.58-1l60-85a10,10,0,0,0-2.41-13.94Z"/><ellipse class="cls-1" cx="430.77" cy="226.78" rx="10" ry="10"/><path class="cls-1" d="M256.08,50A140,140,0,1,0,396.14,190,140,140,0,0,0,256.08,50Zm0,260A120,120,0,1,1,376.13,190,120,120,0,0,1,256.08,310Z"/></svg>