<svg id="Capa_1" data-name="Capa 1" xmlns="http://www.w3.org/2000/svg" viewBox="0 0 447.31 512"><defs><style>.cls-1{fill:#a5c8cd;}.cls-2{fill:#fff;}.cls-3{fill:#343e6b;}.cls-4{fill:#414b82;}.cls-5{fill:#64afff;}.cls-6{fill:#ffb69e;}.cls-7{fill:#b4d7dc;}.cls-8{fill:#78beff;}</style></defs><title>arrivved 2</title><circle class="cls-1" cx="73.33" cy="73.33" r="73.33"/><path class="cls-2" d="M97.16,73.33V25.19a8.53,8.53,0,0,1,17,0V56.57l10.91-8a8.53,8.53,0,0,1,10,13.79L110.7,80.22A8.52,8.52,0,0,1,97.16,73.33Z" transform="translate(-32.35 0)"/><path class="cls-3" d="M300.71,512a24.41,24.41,0,0,0,24.41-24.4v-195a24.41,24.41,0,0,0-48.81,0V487.6A24.41,24.41,0,0,0,300.71,512Z" transform="translate(-32.35 0)"/><path class="cls-4" d="M359.62,512A24.4,24.4,0,0,0,384,487.6v-195a24.4,24.4,0,1,0-48.8,0V487.6A24.4,24.4,0,0,0,359.62,512Z" transform="translate(-32.35 0)"/><path class="cls-5" d="M384,292.55H276.31V128.89a31.63,31.63,0,0,1,31.63-31.63h44.45A31.63,31.63,0,0,1,384,128.89V292.55Z" transform="translate(-32.35 0)"/><circle class="cls-6" cx="297.82" cy="42.14" r="42.14"/><path class="cls-7" d="M443.47,170.73a11.38,11.38,0,0,1-7.7-14.12l21.6-73.42a11.37,11.37,0,0,1,21.82,6.41L457.59,163A11.38,11.38,0,0,1,443.47,170.73Z" transform="translate(-32.35 0)"/><path class="cls-6" d="M369.85,201.13l-63.19-56.95a21.87,21.87,0,1,1,29.28-32.49l52,46.86,58.22-29.77a21.87,21.87,0,1,1,19.91,38.94l-71.63,36.63A21.85,21.85,0,0,1,369.85,201.13Z" transform="translate(-32.35 0)"/><path class="cls-8" d="M378.14,149.72l-42.2-38a21.87,21.87,0,1,0-29.28,32.49L353,186Z" transform="translate(-32.35 0)"/></svg>