<svg viewBox="0 -5 512.00004 512" xmlns="http://www.w3.org/2000/svg"><path d="m498.78125 441.523438h-17.910156v-32.210938c0-7.289062-5.929688-13.21875-13.21875-13.21875h-181.4375v-23.558594h126.625c16.660156 0 30.21875-13.554687 30.21875-30.21875 0-8.734375-3.730469-16.609375-9.675782-22.128906 4.980469-4.667969 8.097657-11.296875 8.097657-18.644531v-40.667969c0-43.144531-15.140625-85.164062-42.632813-118.320312-2.644531-3.191407-7.375-3.632813-10.5625-.988282-3.1875 2.644532-3.628906 7.375-.984375 10.5625 25.265625 30.472656 39.179688 69.089844 39.179688 108.746094v40.671875c0 5.824219-4.734375 10.558594-10.558594 10.558594h-2.925781c-.054688 0-.101563-.003907-.15625-.003907-.023438 0-.050782.003907-.074219.003907h-316.6875c-5.824219 0-10.5625-4.734375-10.5625-10.558594v-40.671875c0-86.566406 64.859375-158.265625 148.535156-169.070312 7.1875-.929688 14.511719-1.410157 21.949219-1.410157 41.132812 0 80.855469 14.851563 111.847656 41.816407 3.125 2.71875 7.863282 2.390624 10.582032-.734376s2.386718-7.863281-.738282-10.582031c-26.046875-22.664062-57.765625-37.453125-91.476562-43.015625v-20.246094c10.34375-4.800781 17.539062-15.28125 17.539062-27.417968 0-16.660156-13.554687-30.214844-30.21875-30.214844h-35.074218c-16.660157 0-30.21875 13.554688-30.21875 30.214844 0 12.136718 7.195312 22.617187 17.539062 27.417968v20.234376c-87.949219 14.472656-155.261719 91.019531-155.261719 183.007812v40.667969c0 7.351562 3.121094 13.980469 8.101563 18.648437-5.972656 5.5625-9.679688 13.480469-9.679688 22.125 0 16.660156 13.554688 30.214844 30.21875 30.214844h126.621094v23.558594h-181.433594c-7.289062 0-13.21875 5.929687-13.21875 13.21875v32.214844h-17.910156c-7.289062 0-13.21875 5.929687-13.21875 13.21875v33.996093c0 7.289063 5.929688 13.21875 13.21875 13.21875h485.5625c7.289062 0 13.21875-5.933593 13.21875-13.21875v-33.996093c0-7.289063-5.929688-13.21875-13.21875-13.21875zm-260.320312-426.523438h35.078124c8.390626 0 15.214844 6.824219 15.214844 15.214844s-6.824218 15.214844-15.214844 15.214844h-35.078124c-8.390626 0-15.214844-6.824219-15.214844-15.214844s6.824218-15.214844 15.214844-15.214844zm2.324218 45.433594h30.429688v15.59375c-5.042969-.414063-10.117188-.632813-15.214844-.632813-5.125 0-10.195312.214844-15.214844.625zm-156.84375 281.882812c0-7.589844 5.660156-14.074218 13.167969-15.078125.242187-.03125.476563-.078125.710937-.132812h315.097657c8.355469.042969 15.136719 6.847656 15.136719 15.210937 0 8.390625-6.824219 15.214844-15.214844 15.214844h-313.679688c-8.390625 0-15.21875-6.824219-15.21875-15.214844zm156.84375 30.21875h30.429688v23.558594h-30.429688zm256.214844 114.417969h-482v-30.429687h332.496094c4.144531 0 7.5-3.359376 7.5-7.5 0-4.140626-3.355469-7.5-7.5-7.5h-301.367188v-30.429688h419.742188v30.429688h-90.371094c-4.144531 0-7.5 3.359374-7.5 7.5 0 4.140624 3.355469 7.5 7.5 7.5h121.5zm0 0"/><path d="m266.257812 214.910156c-2.109374 3.664063-6.039062 5.941406-10.257812 5.941406-4.222656 0-8.148438-2.277343-10.257812-5.941406-2.0625-3.59375-6.652344-4.828125-10.242188-2.765625-3.589844 2.066407-4.828125 6.648438-2.761719 10.238281 4.773438 8.308594 13.6875 13.46875 23.261719 13.46875s18.484375-5.160156 23.261719-13.464843c2.0625-3.59375.828125-8.175781-2.765625-10.242188-3.585938-2.0625-8.171875-.828125-10.238282 2.765625zm0 0"/><path d="m312.191406 187.714844v11.355468c0 4.140626 3.359375 7.5 7.5 7.5 4.144532 0 7.5-3.359374 7.5-7.5v-11.355468c0-4.140625-3.355468-7.5-7.5-7.5-4.140625 0-7.5 3.359375-7.5 7.5zm0 0"/><path d="m184.808594 187.714844v11.355468c0 4.140626 3.355468 7.5 7.5 7.5 4.140625 0 7.5-3.359374 7.5-7.5v-11.355468c0-4.140625-3.359375-7.5-7.5-7.5-4.144532 0-7.5 3.359375-7.5 7.5zm0 0"/><path d="m325.371094 228.039062h-11.355469c-4.144531 0-7.5-3.359374-7.5-7.5 0-4.144531 3.355469-7.5 7.5-7.5h11.355469c4.144531 0 7.5 3.355469 7.5 7.5 0 4.140626-3.359375 7.5-7.5 7.5zm0 0"/><path d="m197.984375 228.039062h-11.355469c-4.140625 0-7.5-3.359374-7.5-7.5 0-4.144531 3.359375-7.5 7.5-7.5h11.355469c4.144531 0 7.5 3.355469 7.5 7.5 0 4.140626-3.355469 7.5-7.5 7.5zm0 0"/></svg>