<svg id="Outline" xmlns="http://www.w3.org/2000/svg" viewBox="0 0 512 512"><defs><style>.cls-1{fill:#2cc2f0;}</style></defs><title>Bill-01</title><path class="cls-1" d="M216,96h56a8,8,0,0,0,0-16H216a8,8,0,0,0,0,16Z"/><path class="cls-1" d="M176,160h56a8,8,0,0,0,0-16H176a8,8,0,0,0,0,16Z"/><path class="cls-1" d="M176,128h96a8,8,0,0,0,0-16H176a8,8,0,0,0,0,16Z"/><path class="cls-1" d="M96,208H272a8,8,0,0,0,0-16H96a8,8,0,0,0,0,16Z"/><path class="cls-1" d="M280,232a8,8,0,0,0-8-8H96a8,8,0,0,0,0,16H272A8,8,0,0,0,280,232Z"/><path class="cls-1" d="M168,256H128a8,8,0,0,0,0,16h40a8,8,0,0,0,0-16Z"/><path class="cls-1" d="M168,288H128a8,8,0,0,0,0,16h40a8,8,0,0,0,0-16Z"/><path class="cls-1" d="M168,320H128a8,8,0,0,0,0,16h40a8,8,0,0,0,0-16Z"/><path class="cls-1" d="M272,256H248a8,8,0,0,0,0,16h24a8,8,0,0,0,0-16Z"/><path class="cls-1" d="M272,288H248a8,8,0,0,0,0,16h24a8,8,0,0,0,0-16Z"/><path class="cls-1" d="M240,416H128a8,8,0,0,0,0,16H240a8,8,0,0,0,0-16Z"/><circle class="cls-1" cx="184" cy="88" r="8"/><circle class="cls-1" cx="96" cy="264" r="8"/><circle class="cls-1" cx="96" cy="296" r="8"/><circle class="cls-1" cx="96" cy="328" r="8"/><path class="cls-1" d="M168,352H128a8,8,0,0,0,0,16h40a8,8,0,0,0,0-16Z"/><circle class="cls-1" cx="96" cy="360" r="8"/><path class="cls-1" d="M168,384H128a8,8,0,0,0,0,16h40a8,8,0,0,0,0-16Z"/><circle class="cls-1" cx="96" cy="392" r="8"/><path class="cls-1" d="M368,264a103.42,103.42,0,0,0-56,16.4V24a8,8,0,0,0-8-8H64a8,8,0,0,0-8,8V488a8,8,0,0,0,12.44,6.66L88,481.61l19.56,13.05a8,8,0,0,0,8.88,0L136,481.61l19.56,13.05a8,8,0,0,0,8.88,0L184,481.61l19.56,13.05a8,8,0,0,0,8.88,0L232,481.61l19.56,13.05a8,8,0,0,0,8.88,0L280,481.61l19.56,13.05A8,8,0,0,0,312,488V455.6A104,104,0,1,0,368,264ZM296,473.05l-11.56-7.71a8,8,0,0,0-8.88,0l-19.56,13-19.56-13a8,8,0,0,0-8.88,0l-19.56,13-19.56-13a8,8,0,0,0-8.88,0l-19.56,13-19.56-13a8,8,0,0,0-8.88,0l-19.56,13-19.56-13a8,8,0,0,0-8.88,0L72,473.05V32H296V293a104.42,104.42,0,0,0-20.63,27.72A8,8,0,0,0,272,320H248a8,8,0,0,0,0,16h21a103.16,103.16,0,0,0-3.81,16H248a8,8,0,0,0,0,16h16a104.46,104.46,0,0,0,1.23,16H248a8,8,0,0,0,0,16h21a104.14,104.14,0,0,0,27,43ZM368,456a88,88,0,1,1,88-88A88,88,0,0,1,368,456Z"/><path class="cls-1" d="M396.12,321.14a8,8,0,0,0-11,2.74h0l-48,80a8,8,0,0,0,13.72,8.24l48-80a8,8,0,0,0-2.74-11Z"/><path class="cls-1" d="M360,336a24,24,0,1,0-24,24A24,24,0,0,0,360,336Zm-24,8a8,8,0,1,1,8-8A8,8,0,0,1,336,344Z"/><path class="cls-1" d="M400,376a24,24,0,1,0,24,24A24,24,0,0,0,400,376Zm0,32a8,8,0,1,1,8-8A8,8,0,0,1,400,408Z"/><path class="cls-1" d="M139.45,85a1.42,1.42,0,0,0-1-.4h-7.56A15.24,15.24,0,0,0,128,78.19h10.3a1.36,1.36,0,0,0,1-.4,1.38,1.38,0,0,0,.4-1V72.27a1.39,1.39,0,0,0-.4-1,1.36,1.36,0,0,0-1-.4H101.57a1.36,1.36,0,0,0-1,.4,1.39,1.39,0,0,0-.4,1v5.87a1.43,1.43,0,0,0,1.42,1.42H108q9.31,0,11.84,5H101.57A1.37,1.37,0,0,0,100.15,86v4.51a1.37,1.37,0,0,0,1.42,1.41h18.87a8.65,8.65,0,0,1-4.53,5.53,20,20,0,0,1-9.39,1.9h-5a1.43,1.43,0,0,0-1.42,1.41v5.62a1.35,1.35,0,0,0,.4,1q8.49,9,22,25.24a1.33,1.33,0,0,0,1.11.53h8.62a1.29,1.29,0,0,0,1.28-.8,1.2,1.2,0,0,0-.18-1.5Q120.49,115,113.1,107.1a22.35,22.35,0,0,0,12.2-4.87A16.51,16.51,0,0,0,131,91.89h7.42a1.37,1.37,0,0,0,1.42-1.41V86A1.42,1.42,0,0,0,139.45,85Z"/></svg>