<svg id="Layer_1" data-name="Layer 1" xmlns="http://www.w3.org/2000/svg" viewBox="0 0 512 501.96"><defs><style>.cls-1{fill:#2cc1f1;}</style></defs><title>Call</title><path class="cls-1" d="M498.78,446.52H480.87V414.31a13.23,13.23,0,0,0-13.22-13.22H286.21V377.54H412.84a30.19,30.19,0,0,0,20.54-52.35,25.5,25.5,0,0,0,8.1-18.65V265.87a185.76,185.76,0,0,0-42.63-118.32,7.5,7.5,0,0,0-11.55,9.58,170.67,170.67,0,0,1,39.18,108.74v40.68a10.57,10.57,0,0,1-10.56,10.56H96.08a10.57,10.57,0,0,1-10.56-10.56V265.87c0-86.56,64.86-158.26,148.53-169.07a170.64,170.64,0,0,1,133.8,40.41,7.5,7.5,0,1,0,9.84-11.32,185.29,185.29,0,0,0-91.48-43V62.63A30.21,30.21,0,0,0,273.54,5H238.46a30.21,30.21,0,0,0-12.68,57.63V82.87c-87.95,14.47-155.26,91-155.26,183v40.67a25.5,25.5,0,0,0,8.1,18.65,30.19,30.19,0,0,0,20.54,52.34H225.78v23.56H44.35a13.23,13.23,0,0,0-13.22,13.22v32.21H13.22A13.23,13.23,0,0,0,0,459.74v34A13.23,13.23,0,0,0,13.22,507H498.78A13.24,13.24,0,0,0,512,493.74v-34A13.23,13.23,0,0,0,498.78,446.52ZM238.46,20h35.08a15.22,15.22,0,0,1,0,30.43H238.46a15.22,15.22,0,0,1,0-30.43Zm2.33,45.43h30.42V81q-7.56-.63-15.21-.64c-5.12,0-10.2.22-15.21.63ZM83.94,347.32a15.25,15.25,0,0,1,13.17-15.08c.24,0,.48-.08.71-.13h315.1a15.21,15.21,0,0,1-.08,30.42H99.16A15.23,15.23,0,0,1,83.94,347.32Zm156.85,30.22h30.42v23.55H240.79ZM497,492H15V461.52H347.5a7.5,7.5,0,0,0,0-15H46.13V416.09H465.87v30.43H375.5a7.5,7.5,0,0,0,0,15H497Z" transform="translate(0 -5)"/><path d="M266.26,219.91a11.83,11.83,0,0,1-20.52,0,7.5,7.5,0,1,0-13,7.47,26.82,26.82,0,0,0,46.52,0,7.5,7.5,0,1,0-13-7.48Z" transform="translate(0 -5)"/><path d="M312.19,192.71v11.36a7.5,7.5,0,0,0,15,0V192.71a7.5,7.5,0,1,0-15,0Z" transform="translate(0 -5)"/><path d="M184.81,192.71v11.36a7.5,7.5,0,0,0,15,0V192.71a7.5,7.5,0,1,0-15,0Z" transform="translate(0 -5)"/><path d="M325.37,233H314a7.5,7.5,0,0,1,0-15h11.35a7.5,7.5,0,0,1,0,15Z" transform="translate(0 -5)"/><path d="M198,233H186.63a7.5,7.5,0,0,1,0-15H198a7.5,7.5,0,0,1,0,15Z" transform="translate(0 -5)"/></svg>