<svg id="Capa_1" data-name="Capa 1" xmlns="http://www.w3.org/2000/svg" viewBox="0 0 512 512"><defs><style>.cls-1{fill:#2cc2f0;}.cls-2{stroke:#2cc2f0;stroke-miterlimit:10;stroke-width:3px;}</style></defs><title>Canacel</title><path class="cls-1" d="M256,0C114.51,0,0,114.5,0,256S114.5,512,256,512,512,397.5,512,256,397.5,0,256,0Zm0,472A216,216,0,1,1,472,256,215.88,215.88,0,0,1,256,472Z"/><path class="cls-2" d="M343.59,315.3,284.28,256l59.31-59.3a20,20,0,0,0-28.29-28.29L256,227.72l-59.3-59.31a20,20,0,0,0-28.29,28.29L227.72,256l-59.31,59.3a20,20,0,0,0,28.29,28.29L256,284.28l59.3,59.31a20,20,0,0,0,28.29-28.29Z"/></svg>