<svg id="Layer_1" data-name="Layer 1" xmlns="http://www.w3.org/2000/svg" viewBox="0 0 512 512"><defs><style>.cls-1{fill:#2cc2f0;}.cls-2{stroke:#2cc2f0;stroke-miterlimit:10;stroke-width:3px;}</style></defs><title>Change status</title><path d="M22.62,216.17A16,16,0,0,1,7,196.54c.18-.78.37-1.54.57-2.31a16,16,0,1,1,31,7.92c-.14.56-.27,1.11-.4,1.67A16,16,0,0,1,22.62,216.17Z"/><path class="cls-1" d="M256.05,511.84C112,511.84-2.51,393.54,0,251.64a16,16,0,0,1,32,.57,224.09,224.09,0,0,0,101.11,191c71.68,46.9,165.47,48.68,239,4,105.46-64.1,139.11-202.06,75-307.52C356-10.08,134.49-1.83,55.72,155.68a16,16,0,0,1-28.6-14.3C73.16,49.31,174-10.9,284.91,1.86A255.37,255.37,0,0,1,474.42,123.14C578.57,294.5,453.46,511.84,256.05,511.84Z"/><path class="cls-2" d="M287.81,184.07H206.5l4.68-4.69a16,16,0,1,0-22.61-22.61c-34.18,34.18-33.78,33.16-35.44,37.16a15.93,15.93,0,0,0-1,8.38c1,7.09,2,6.59,36.48,41A16,16,0,0,0,199.88,248c14.11,0,21.4-17.19,11.3-27.29L206.5,216h81.31a40,40,0,0,1,0,79.94H199.88a16,16,0,1,0,0,32h87.93a71.94,71.94,0,0,0,0-143.88Z"/></svg>