<svg id="Layer_1" data-name="Layer 1" xmlns="http://www.w3.org/2000/svg" viewBox="0 0 512 512"><defs><style>.cls-1{fill:#2cc1f1;}</style></defs><title>tick action</title><path class="cls-1" d="M400.83,389a32.66,32.66,0,0,0-20-30.07A32.58,32.58,0,0,0,352,311.23H308.6V255.86C364.55,241.36,406,190.43,406,130,406,58.32,347.68,0,276,0a129.2,129.2,0,0,0-51.61,10.66,10,10,0,1,0,8,18.35A109.9,109.9,0,1,1,175,86.33a10,10,0,0,0-18.35-8A129.21,129.21,0,0,0,146,130c0,60.43,41.45,111.36,97.4,125.86v45.19h-1.65a105.22,105.22,0,0,0-77,33.52H116a10,10,0,0,0-10,10l.07,123.9a10,10,0,0,0,10,10h48.71a105.34,105.34,0,0,0,77,33.52h102.5A32.59,32.59,0,0,0,373,464a32.57,32.57,0,0,0,13.67-48.05A32.59,32.59,0,0,0,400.83,389ZM276,260q6.38,0,12.6-.61v51.84H263.41V259.39q6.21.6,12.59.61Zm92.23,141.62h-8.58a10,10,0,0,0,0,20,12.6,12.6,0,0,1,0,25.19h-15.4a10,10,0,0,0,0,20,12.6,12.6,0,0,1,0,25.19H241.75a85.46,85.46,0,0,1-64.91-30,10,10,0,0,0-7.59-3.49H126.07L126,354.57H169.2a10,10,0,0,0,7.61-3.5,85.28,85.28,0,0,1,64.94-30h1.65v.18a10,10,0,0,0,10,10H352a12.6,12.6,0,1,1,0,25.19,10,10,0,0,0,0,20h16.28a12.6,12.6,0,0,1,0,25.2Z"/><path class="cls-1" d="M243.33,175.62a30,30,0,0,0,42.43,0l48.81-48.81a30,30,0,1,0-42.42-42.43L264.55,112l-4.69-4.69a30,30,0,0,0-42.43,42.43Zm-11.76-54.19a10,10,0,0,1,14.14,0l11.76,11.77a10,10,0,0,0,14.15,0l34.67-34.68a10,10,0,1,1,14.14,14.14l-48.82,48.81a10,10,0,0,1-14.13,0l-25.91-25.9a10,10,0,0,1,0-14.14Z"/><path class="cls-1" d="M191.15,55.14a10,10,0,1,0-7.07-17.07h0a10,10,0,0,0,7.08,17.06Z"/></svg>