<svg id="_1" data-name=" 1" xmlns="http://www.w3.org/2000/svg" viewBox="0 0 512 512"><defs><style>.cls-1{fill:#2cc2f0;}</style></defs><title>label2</title><path class="cls-1" d="M4.1,388.34a31.09,31.09,0,0,1,5.78-17.93l93.68-131.65a10.41,10.41,0,0,0,0-12L10.5,94.76A31.17,31.17,0,0,1,36.11,45.7l416.9.91a52.07,52.07,0,0,1,52,52l-.59,270a52.07,52.07,0,0,1-52.22,51.81L35.3,419.56A31.28,31.28,0,0,1,4.1,388.34Z"/><path class="cls-1" d="M126.34,232.83a31.22,31.22,0,0,1-5.75,17.95L26.92,382.41a10.39,10.39,0,0,0,8.47,16.38l416.85.91a31.21,31.21,0,0,0,31.33-31.09l.59-270A31.21,31.21,0,0,0,453,67.37l-416.89-.9a10.39,10.39,0,0,0-8.56,16.37l93.1,132A31,31,0,0,1,126.34,232.83Z"/><path d="M287.79,364.86a11.07,11.07,0,0,1-8.09-3.48l-104-110.59c-27.84-29.6-27.84-77.79,0-107.39,27.4-29.12,75.5-29.12,102.87,0l9.26,9.86,9.25-9.86a69.89,69.89,0,0,1,98.75-4.12c1.43,1.31,2.81,2.69,4.13,4.12,27.84,29.6,27.84,77.79,0,107.39L295.87,361.4A11.1,11.1,0,0,1,287.79,364.86Z"/><path d="M227.08,152a48.1,48.1,0,0,0-35.27,15.6c-20,21.2-20,55.75,0,77l96,102,96-102c20-21.21,20-55.76,0-77a47.68,47.68,0,0,0-67.35-3.2c-1.12,1-2.18,2.08-3.2,3.2l-17.34,18.44a11.45,11.45,0,0,1-16.18,0h0l-17.34-18.44A48.06,48.06,0,0,0,227.08,152Z"/></svg>