<svg id="_1" data-name="1" xmlns="http://www.w3.org/2000/svg" viewBox="0 0 512 512"><defs><style>.cls-1{fill:#2cc2f0;}</style></defs><title>Label</title><path class="cls-1" d="M416,512a32,32,0,0,1-18.43-5.87L262.14,410.54a10.71,10.71,0,0,0-12.28,0L114.45,506.11A32,32,0,0,1,64,480V53.33A53.39,53.39,0,0,1,117.33,0H394.67A53.39,53.39,0,0,1,448,53.33V480a32.06,32.06,0,0,1-32,32ZM256,387.24a32.1,32.1,0,0,1,18.45,5.85l135.41,95.57a10.67,10.67,0,0,0,16.81-8.7V53.33a32,32,0,0,0-32-32H117.33a32,32,0,0,0-32,32V480a10.69,10.69,0,0,0,16.84,8.72l135.4-95.57A31.87,31.87,0,0,1,256,387.24Z"/><path d="M256,341.33a10.67,10.67,0,0,1-7.77-3.35l-100-106.34c-26.77-28.46-26.77-74.8,0-103.26,26.35-28,72.6-28,98.92,0l8.9,9.48,8.9-9.48a67.2,67.2,0,0,1,98.92,0c26.77,28.46,26.77,74.8,0,103.26L263.77,338A10.67,10.67,0,0,1,256,341.33ZM197.63,128a46.29,46.29,0,0,0-33.92,15c-19.2,20.39-19.2,53.61,0,74L256,315.11,348.29,217c19.2-20.39,19.2-53.61,0-74a45.85,45.85,0,0,0-67.84,0l-16.68,17.73a11,11,0,0,1-15.56,0L231.53,143a46.21,46.21,0,0,0-33.9-15Z"/></svg>