<svg id="Layer_1" data-name="Layer 1" xmlns="http://www.w3.org/2000/svg" viewBox="0 0 650 650"><defs><style>.cls-1{fill:#2cc2f0;}</style></defs><title>mail</title><path d="M428.53,215.88h.14l97.13-1.46a8.73,8.73,0,0,0-.26-17.45l-97.13,1.46a8.73,8.73,0,1,0,.12,17.45Z"/><path d="M475.59,256.07h-.14l-46.18.7a8.72,8.72,0,1,0,.13,17.44h.13l46.18-.69a8.73,8.73,0,0,0-.12-17.45Z"/><path class="cls-1" d="M35.12,550.11a8.43,8.43,0,0,0,1.28,1,58.38,58.38,0,0,0,42.15,18h349a58.4,58.4,0,0,0,42.12-17.93,8.59,8.59,0,0,0,2.92-3.24,58.27,58.27,0,0,0,13.54-37.41V377.62a151.69,151.69,0,0,0,43.95-9.22l81.14,12.94a8.73,8.73,0,0,0,9.35-12.15L598,318.27a152,152,0,1,0-272.46-99.92h-247a58.64,58.64,0,0,0-58.07,51.09,8.7,8.7,0,0,0-.4,4.14c-.06,1.11-.1,2.22-.1,3.34V510.53A58.27,58.27,0,0,0,33.5,547.92,8.7,8.7,0,0,0,35.12,550.11Zm43.43,1.55a40.93,40.93,0,0,1-24.67-8.25L159.13,435.76a8.73,8.73,0,1,0-12.48-12.2L42.43,530.17a41,41,0,0,1-5-19.64V291.13l181.05,153.3a53.42,53.42,0,0,0,69.3,0l106.14-90a8.55,8.55,0,0,0,.7-.65l.18-.19a150.61,150.61,0,0,0,73.87,24.09v132.9a40.85,40.85,0,0,1-5,19.7L358.77,423.54a8.72,8.72,0,1,0-12.44,12.23L452.16,543.46a40.94,40.94,0,0,1-24.63,8.2ZM380.79,132.07A134.55,134.55,0,0,1,581.15,311.42a8.71,8.71,0,0,0-1.24,9.09l18.19,41.07L530.52,350.8a8.74,8.74,0,0,0-4.53.48,134.39,134.39,0,0,1-126.92-15.95c-.21-.17-.42-.33-.63-.47a134.76,134.76,0,0,1-17.65-202.79ZM78.55,235.79H325.66a151,151,0,0,0,45.83,99.15c2.89,2.79,5.87,5.47,8.93,8L276.49,431.1a36,36,0,0,1-46.74,0L38.21,268.94A41.22,41.22,0,0,1,78.55,235.79Z"/></svg>