<svg id="Capa_1" data-name="Capa 1" xmlns="http://www.w3.org/2000/svg" viewBox="0 0 512 512"><defs><style>.cls-1{fill:#2cc2f0;}</style></defs><title>medical record</title><path class="cls-1" d="M256,280a96.49,96.49,0,0,0-82.9,47.62A7.5,7.5,0,0,0,186,335.2a80.8,80.8,0,1,1-10.36,30.31,7.5,7.5,0,0,0-14.88-1.93A96,96,0,1,0,256,280Zm9,30H247a13.52,13.52,0,0,0-13.5,13.5v30h-30A13.52,13.52,0,0,0,190,367v18a13.52,13.52,0,0,0,13.5,13.5h30v30A13.52,13.52,0,0,0,247,442h18a13.52,13.52,0,0,0,13.5-13.5v-30h30A13.52,13.52,0,0,0,322,385V367a13.52,13.52,0,0,0-13.5-13.5h-30v-30A13.52,13.52,0,0,0,265,310Zm42,58.5v15H274A10.51,10.51,0,0,0,263.5,394v33h-15V394A10.51,10.51,0,0,0,238,383.5H205v-15h33A10.51,10.51,0,0,0,248.5,358V325h15v33A10.51,10.51,0,0,0,274,368.5Zm60-306A17.52,17.52,0,0,0,349.5,45h-187A17.52,17.52,0,0,0,145,62.5v18A17.52,17.52,0,0,0,162.5,98h187A17.52,17.52,0,0,0,367,80.5Zm-15,18a2.5,2.5,0,0,1-2.5,2.5h-187a2.5,2.5,0,0,1-2.5-2.5v-18a2.5,2.5,0,0,1,2.5-2.5h187a2.5,2.5,0,0,1,2.5,2.5ZM433.5,240H257.06a22.49,22.49,0,0,1-18.73-10L226.15,211.7A37.43,37.43,0,0,0,194.94,195H101.27V37.5A22.52,22.52,0,0,1,123.77,15H388.23a22.52,22.52,0,0,1,22.5,22.5v175a7.5,7.5,0,0,0,15,0V37.5A37.54,37.54,0,0,0,388.23,0H123.77a37.54,37.54,0,0,0-37.5,37.5V195H78.5A37.54,37.54,0,0,0,41,232.5v242A37.54,37.54,0,0,0,78.5,512h355A37.54,37.54,0,0,0,471,474.5v-197A37.54,37.54,0,0,0,433.5,240ZM456,474.5A22.52,22.52,0,0,1,433.5,497H78.5A22.52,22.52,0,0,1,56,474.5v-242A22.52,22.52,0,0,1,78.5,210H194.94a22.47,22.47,0,0,1,18.73,10l12.18,18.28A37.43,37.43,0,0,0,257.06,255H433.5A22.52,22.52,0,0,1,456,277.5ZM359.5,158h-207a7.5,7.5,0,0,0,0,15h207a7.5,7.5,0,0,0,0-15Zm0-30h-207a7.5,7.5,0,0,0,0,15h207a7.5,7.5,0,0,0,0-15Z"/></svg>