<?xml version="1.0" encoding="utf-8"?>
<!-- Generator: Adobe Illustrator 24.0.1, SVG Export Plug-In . SVG Version: 6.00 Build 0)  -->
<svg version="1.1" id="Capa_1" xmlns="http://www.w3.org/2000/svg" xmlns:xlink="http://www.w3.org/1999/xlink" x="0px" y="0px"
	 viewBox="0 0 512 512" style="enable-background:new 0 0 512 512;" xml:space="preserve">
<title>medical record</title>
<path d="M256,280c-34.1,0.1-65.6,18.2-82.9,47.6c-1.8,3.7-0.3,8.2,3.4,10.1c3.3,1.7,7.4,0.6,9.5-2.5c22.5-38.5,72-51.5,110.5-29
	c38.5,22.5,51.5,72,29,110.5s-72,51.5-110.5,29c-28.1-16.4-43.6-48-39.4-80.2c0.5-4.1-2.4-7.9-6.5-8.4s-7.9,2.4-8.4,6.5l0,0
	c-6.9,52.6,30.2,100.8,82.8,107.6c52.6,6.9,100.8-30.2,107.6-82.8c6.9-52.6-30.2-100.8-82.8-107.6C264.3,280.3,260.1,280,256,280z
	 M265,310h-18c-7.5,0-13.5,6-13.5,13.5v30h-30c-7.5,0-13.5,6-13.5,13.5v18c0,7.5,6,13.5,13.5,13.5h30v30c0,7.5,6,13.5,13.5,13.5h18
	c7.5,0,13.5-6,13.5-13.5v-30h30c7.5,0,13.5-6,13.5-13.5v-18c0-7.5-6-13.5-13.5-13.5h-30v-30C278.5,316,272.5,310,265,310z
	 M307,368.5v15h-33c-5.8,0-10.5,4.7-10.5,10.5v33h-15v-33c0-5.8-4.7-10.5-10.5-10.5h-33v-15h33c5.8,0,10.5-4.7,10.5-10.5v-33h15v33
	c0,5.8,4.7,10.5,10.5,10.5H307z M367,62.5c0-9.7-7.8-17.5-17.5-17.5h-187c-9.7,0-17.5,7.8-17.5,17.5v18c0,9.7,7.8,17.5,17.5,17.5
	h187c9.7,0,17.5-7.8,17.5-17.5V62.5z M352,80.5c0,1.4-1.1,2.5-2.5,2.5h-187c-1.4,0-2.5-1.1-2.5-2.5v-18c0-1.4,1.1-2.5,2.5-2.5h187
	c1.4,0,2.5,1.1,2.5,2.5V80.5z M433.5,240H257.1c-7.5,0-14.6-3.7-18.7-10l-12.2-18.3c-6.9-10.4-18.7-16.7-31.2-16.7h-93.7V37.5
	c0-12.4,10.1-22.5,22.5-22.5h264.5c12.4,0,22.5,10.1,22.5,22.5v175c0,4.1,3.4,7.5,7.5,7.5s7.5-3.4,7.5-7.5v-175
	c0-20.7-16.8-37.5-37.5-37.5H123.8c-20.7,0-37.5,16.8-37.5,37.5V195h-7.8C57.8,195,41,211.8,41,232.5v242
	c0,20.7,16.8,37.5,37.5,37.5h355c20.7,0,37.5-16.8,37.5-37.5v-197C471,256.8,454.2,240,433.5,240z M456,474.5
	c0,12.4-10.1,22.5-22.5,22.5h-355C66.1,497,56,486.9,56,474.5v-242c0-12.4,10.1-22.5,22.5-22.5h116.4c7.5,0,14.6,3.7,18.7,10
	l12.2,18.3c6.9,10.5,18.7,16.7,31.2,16.7h176.4c12.4,0,22.5,10.1,22.5,22.5V474.5z M359.5,158h-207c-4.1,0-7.5,3.4-7.5,7.5
	s3.4,7.5,7.5,7.5h207c4.1,0,7.5-3.4,7.5-7.5S363.6,158,359.5,158z M359.5,128h-207c-4.1,0-7.5,3.4-7.5,7.5s3.4,7.5,7.5,7.5h207
	c4.1,0,7.5-3.4,7.5-7.5S363.6,128,359.5,128z"/>
</svg>
