<svg id="Capa_1" data-name="Capa 1" xmlns="http://www.w3.org/2000/svg" viewBox="0 0 430 512"><defs><style>.cls-1{fill:#14a508;}</style></defs><title>medical record green</title><path class="cls-1" d="M256,280a96.52,96.52,0,0,0-82.9,47.6,7.63,7.63,0,0,0,3.4,10.1,7.43,7.43,0,0,0,9.5-2.5,80.63,80.63,0,1,1-10.4,30.3,7.51,7.51,0,0,0-14.9-1.9h0a96,96,0,1,0,107.6-82.8A100.29,100.29,0,0,0,256,280Zm9,30H247a13.44,13.44,0,0,0-13.5,13.5v30h-30A13.44,13.44,0,0,0,190,367v18a13.44,13.44,0,0,0,13.5,13.5h30v30A13.44,13.44,0,0,0,247,442h18a13.44,13.44,0,0,0,13.5-13.5v-30h30A13.44,13.44,0,0,0,322,385V367a13.44,13.44,0,0,0-13.5-13.5h-30v-30A13.44,13.44,0,0,0,265,310Zm42,58.5v15H274A10.5,10.5,0,0,0,263.5,394v33h-15V394A10.5,10.5,0,0,0,238,383.5H205v-15h33A10.5,10.5,0,0,0,248.5,358V325h15v33A10.5,10.5,0,0,0,274,368.5Zm60-306A17.46,17.46,0,0,0,349.5,45h-187A17.46,17.46,0,0,0,145,62.5v18A17.46,17.46,0,0,0,162.5,98h187A17.46,17.46,0,0,0,367,80.5Zm-15,18a2.48,2.48,0,0,1-2.5,2.5h-187a2.48,2.48,0,0,1-2.5-2.5v-18a2.48,2.48,0,0,1,2.5-2.5h187a2.48,2.48,0,0,1,2.5,2.5ZM433.5,240H257.1a22.28,22.28,0,0,1-18.7-10l-12.2-18.3A37.56,37.56,0,0,0,195,195H101.3V37.5A22.53,22.53,0,0,1,123.8,15H388.3a22.53,22.53,0,0,1,22.5,22.5v175a7.5,7.5,0,0,0,15,0V37.5A37.51,37.51,0,0,0,388.3,0H123.8A37.51,37.51,0,0,0,86.3,37.5V195H78.5A37.51,37.51,0,0,0,41,232.5v242A37.51,37.51,0,0,0,78.5,512h355A37.51,37.51,0,0,0,471,474.5v-197A37.51,37.51,0,0,0,433.5,240ZM456,474.5A22.53,22.53,0,0,1,433.5,497H78.5A22.53,22.53,0,0,1,56,474.5v-242A22.53,22.53,0,0,1,78.5,210H194.9a22.28,22.28,0,0,1,18.7,10l12.2,18.3A37.31,37.31,0,0,0,257,255H433.4a22.53,22.53,0,0,1,22.5,22.5v197ZM359.5,158h-207a7.5,7.5,0,0,0,0,15h207a7.5,7.5,0,0,0,0-15Zm0-30h-207a7.5,7.5,0,0,0,0,15h207a7.5,7.5,0,0,0,0-15Z" transform="translate(-41 0)"/></svg>