<svg id="Capa_1" data-name="Capa 1" xmlns="http://www.w3.org/2000/svg" viewBox="0 0 512 512"><defs><style>.cls-1{fill:#1a1b1f;}.cls-2{fill:#2cc1f1;}</style></defs><title>Message</title><path class="cls-1" d="M444.55,191.14h-238a7.5,7.5,0,0,0,0,15h238a7.5,7.5,0,1,0,0-15Z"/><path class="cls-1" d="M444.55,248.47h-238a7.5,7.5,0,1,0,0,15h238a7.5,7.5,0,0,0,0-15Z"/><path class="cls-1" d="M444.55,305.81h-238a7.5,7.5,0,0,0,0,15h238a7.5,7.5,0,0,0,0-15Z"/><path class="cls-2" d="M468.38,125.55H182.73a43.67,43.67,0,0,0-43.62,43.62V348.79a43.67,43.67,0,0,0,43.62,43.62H382.94a6.92,6.92,0,0,1,5.46,2.64l64.66,81.86a12.88,12.88,0,0,0,10.15,5,13.37,13.37,0,0,0,4.37-.74,12.91,12.91,0,0,0,8.77-12.33V391.67A43.83,43.83,0,0,0,512,348.79V169.17a43.67,43.67,0,0,0-43.62-43.62ZM497,348.79a28.73,28.73,0,0,1-28.25,28.61,7.49,7.49,0,0,0-7.4,7.5v78.3l-61.18-77.44a21.82,21.82,0,0,0-17.23-8.35H182.73a28.65,28.65,0,0,1-28.62-28.62V169.17a28.65,28.65,0,0,1,28.62-28.62H468.38A28.65,28.65,0,0,1,497,169.17Z"/><path class="cls-2" d="M110.49,249.56A20,20,0,0,0,97.56,257L46,322.22V256.85a7.5,7.5,0,0,0-7.41-7.5A24,24,0,0,1,15,225.42V69.05A24,24,0,0,1,39,45.11H287.61a24,24,0,0,1,23.94,23.94V98a7.5,7.5,0,1,0,15,0V69.05a39,39,0,0,0-38.94-38.94H39A39,39,0,0,0,0,69.05V225.42a39.13,39.13,0,0,0,31,38.12v66.37a12.17,12.17,0,0,0,8.28,11.64,12.46,12.46,0,0,0,4.13.71,12.19,12.19,0,0,0,9.6-4.71l56.28-71.26a5.08,5.08,0,0,1,3.27-1.88,7.5,7.5,0,0,0-2.11-14.85Z"/></svg>