<svg id="Layer_1" data-name="Layer 1" xmlns="http://www.w3.org/2000/svg" viewBox="0 0 512 512"><defs><style>.cls-1{fill:#2cc2f0;stroke:#000;stroke-miterlimit:10;}</style></defs><title>Notes</title><g id="outline"><path class="cls-1" d="M136,120H312a8,8,0,0,0,0-16H136a8,8,0,0,0,0,16Z"/><path class="cls-1" d="M136,168H312a8,8,0,0,0,0-16H136a8,8,0,0,0,0,16Z"/><path class="cls-1" d="M136,216H312a8,8,0,0,0,0-16H136a8,8,0,0,0,0,16Z"/><path class="cls-1" d="M136,264H312a8,8,0,0,0,0-16H136a8,8,0,0,0,0,16Z"/><path class="cls-1" d="M136,312h64a8,8,0,0,0,0-16H136a8,8,0,0,0,0,16Z"/><path class="cls-1" d="M452.13,205a24,24,0,0,0-32.84,8.58L400,246.5V48a8,8,0,0,0-8-8H331.31s-24-24.48-25-23.66A8.23,8.23,0,0,0,304,16H72a8,8,0,0,0-8,8V49a32,32,0,0,0,0,62v18a32,32,0,0,0,0,62v18a32,32,0,0,0,0,62v10a32,32,0,0,0,0,62v49a8,8,0,0,0,8,8h8v24a8,8,0,0,0,8,8H291.29l-5.48,9.35a8.08,8.08,0,0,0-1,2.72l0,.14,0,.13v0l-6.4,42.44a8,8,0,0,0,12.82,7.51l34-26.42c2.18-1.69,3.24-2.73,3.07-4.12L346.93,432H392a8,8,0,0,0,8-8V341.44l60.7-103.59A24,24,0,0,0,452.13,205ZM438,218a8,8,0,0,1,8.92,11.79l-4,6.9-13.8-8.09,4.05-6.9A7.92,7.92,0,0,1,438,218ZM317.46,450.63l-13.8-8.09L408.83,263.09l13.8,8.09ZM312,43.31,340.69,72H312Zm104.92,206,4-6.9,13.81,8.09-4,6.9ZM384,56V272a8.06,8.06,0,0,0,.15,1.55L368,301.11V80a8,8,0,0,0-2.34-5.65h0L347.31,56ZM80,32H296V80a8,8,0,0,0,8,8h48V328.41L319.42,384H80V343a32,32,0,0,0,23-23,8,8,0,1,0-15.5-4h0A16,16,0,0,1,80,325.85V271a32,32,0,0,0,23-23,8,8,0,1,0-15.5-4h0A16,16,0,0,1,80,253.85V191a32,32,0,0,0,23-23,8,8,0,1,0-15.5-4h0A16,16,0,0,1,80,173.85V111a32,32,0,0,0,23-23,8,8,0,1,0-15.5-4A16,16,0,0,1,80,93.85ZM56,80a16,16,0,0,1,8-13.84V93.83A16,16,0,0,1,56,80Zm0,80a16,16,0,0,1,8-13.84v27.67A16,16,0,0,1,56,160Zm0,80a16,16,0,0,1,8-13.84v27.67A16,16,0,0,1,56,240Zm0,72a16,16,0,0,1,8-13.84v27.68A16,16,0,0,1,56,312ZM96,416V400H310.05l-9.38,16Zm202.86,42.28,7.22,4.23-8.9,6.9ZM384,416H356.3L384,368.74Z"/></g></svg>