<?xml version="1.0" encoding="utf-8"?>
<!-- Generator: Adobe Illustrator 24.0.1, SVG Export Plug-In . SVG Version: 6.00 Build 0)  -->
<svg version="1.1" id="Capa_1" xmlns="http://www.w3.org/2000/svg" xmlns:xlink="http://www.w3.org/1999/xlink" x="0px" y="0px"
	 viewBox="0 0 512 489.6" style="enable-background:new 0 0 512 489.6;" xml:space="preserve">
<style type="text/css">
	.st0{fill:#14A508;}
</style>
<title>prescription</title>
<path class="st0" d="M345.9,0H44.1C19.8,0,0,19.8,0,44.1l0,0v68.5c0,4.1,3.4,7.5,7.5,7.5l0,0h65.8V396c0,4.1,3.4,7.5,7.5,7.5h166.8
	c4.1,0,7.5-3.4,7.5-7.5s-3.4-7.5-7.5-7.5l0,0H88.3V44.1c0-0.7,0-1.5,0-2.2c0-0.2,0-0.5,0-0.7c0-0.5-0.1-1-0.1-1.4
	c0-0.3-0.1-0.6-0.1-0.8s-0.1-0.9-0.2-1.3l-0.2-0.9c-0.1-0.4-0.1-0.8-0.2-1.2s-0.1-0.6-0.2-0.9s-0.2-0.8-0.3-1.2s-0.2-0.6-0.2-0.9
	l-0.3-1.1l-0.3-0.9c-0.1-0.4-0.3-0.8-0.4-1.1l-0.3-0.8L85,27.5l-0.3-0.7c-0.2-0.4-0.3-0.8-0.5-1.2l-0.3-0.7
	c-0.2-0.4-0.4-0.8-0.6-1.2L83,23.1c-0.7-1.2-1.4-2.4-2.1-3.5l-0.4-0.5L79.7,18l-0.5-0.6c-0.3-0.3-0.5-0.7-0.8-1l-0.5-0.6
	c-0.2-0.2-0.3-0.4-0.5-0.6H346c16.1,0,29.1,13,29.1,29.1v85c0,4.1,3.4,7.5,7.5,7.5s7.5-3.4,7.5-7.5v-85C390,19.8,370.2,0,345.9,0z
	 M73.3,105.2H15v-61C15,28.1,28,15,44.1,15s29.1,13,29.1,29.1l0,0v61.1H73.3z"/>
<path class="st0" d="M382.5,371.2c-4.1,0-7.5,3.4-7.5,7.5l0,0v9.9h-2.7c-4.1,0-7.5,3.4-7.5,7.5s3.4,7.5,7.5,7.5h10.2
	c4.1,0,7.5-3.4,7.5-7.5v-17.4C390,374.6,386.7,371.2,382.5,371.2L382.5,371.2z"/>
<path class="st0" d="M273.6,199.5L261,183.1l-13.7-17.8l26.3-34.2c2.5-3.3,1.9-8-1.4-10.5s-8-1.9-10.5,1.4l-24,31l-23.2-30.2
	c21.5-3.2,36.2-23.2,33-44.6c-2.9-19.2-19.4-33.5-38.9-33.5h-32.4c-4.1,0-7.5,3.4-7.5,7.5l0,0v127.2c0,4.1,3.4,7.5,7.5,7.5
	s7.5-3.4,7.5-7.5v-56.2h12.1l32.4,42.1l-26.3,34.2c-2.5,3.3-1.9,8,1.4,10.5c3.3,2.5,8,1.9,10.5-1.4l23.9-31.1l14.6,19l9.3,12
	c0.4,0.5,0.8,0.9,1.2,1.3c3.2,2.6,7.9,2.1,10.5-1.1C275.6,206,275.7,202.2,273.6,199.5L273.6,199.5z M199.9,108.2h-16V59.6h24.9
	c13.4-0.3,24.5,10.4,24.8,23.8s-10.4,24.5-23.8,24.8c-0.3,0-0.7,0-1,0H199.9z"/>
<path class="st0" d="M309,250.8H130c-4.1,0-7.5,3.4-7.5,7.5c0,4.1,3.4,7.5,7.5,7.5h179c4.1,0,7.5-3.4,7.5-7.5
	C316.5,254.2,313.1,250.8,309,250.8z"/>
<path class="st0" d="M284,301.9H129.9c-4.1,0-7.5,3.4-7.5,7.5s3.4,7.5,7.5,7.5H284c4.1,0,7.5-3.4,7.5-7.5S288.1,301.9,284,301.9z"/>
<path class="st0" d="M508.3,189.8l-17.5-10.1c9.8-25.1-2.5-53.4-27.6-63.2c-22.5-8.8-48.1,0.2-60.2,21.2l-97.5,168.9
	c-2.1,3.6-0.8,8.2,2.8,10.2l2.9,1.7l-51.4,100.4c-0.1,0.3-0.2,0.5-0.3,0.8c0,0.1-0.1,0.2-0.1,0.2c-0.1,0.2-0.1,0.4-0.2,0.6l-0.1,0.2
	c-0.1,0.3-0.1,0.6-0.1,0.8l-5.9,59.6c0,0.4,0,0.7,0,1.1c0.1,2.2,1.1,4.2,2.8,5.5c0.3,0.2,0.6,0.4,0.9,0.6c2.6,1.5,5.7,1.3,8.1-0.4
	l48.7-35c0.3-0.2,0.7-0.5,0.9-0.8l0.2-0.2c0.3-0.3,0.5-0.6,0.8-1l0,0l61.3-94.7l2.9,1.7c3.6,2.1,8.2,0.8,10.2-2.7L483.8,193
	l10.5,6.1l-42,72.7c-2.1,3.6-0.8,8.2,2.8,10.3s8.2,0.8,10.3-2.8l45.7-79.2C513.1,196.5,511.9,191.9,508.3,189.8
	C508.3,189.9,508.3,189.9,508.3,189.8z M269.6,466.3l3.1-31.5l22.6,13L269.6,466.3z M306.8,437.1l-30.4-17.5l47.8-93.4l39.6,22.9
	L306.8,437.1z M474.5,179l-93.8,162.4l-2.6-1.5H378l-53.3-30.8h-0.1l-2.5-1.5L416,145.3c9.1-16.3,29.7-22.1,46-13s22.1,29.7,13,46
	C474.8,178.5,474.7,178.8,474.5,179L474.5,179z"/>
</svg>
