<svg id="Capa_1" data-name="Capa 1" xmlns="http://www.w3.org/2000/svg" viewBox="0 0 512 489.61"><defs><style>.cls-1{fill:#2ec0f1;}</style></defs><title>prescription</title><path class="cls-1" d="M345.88,11.2H44.13A44.13,44.13,0,0,0,0,55.34v68.54a7.5,7.5,0,0,0,7.5,7.5H73.27V407.27a7.5,7.5,0,0,0,7.5,7.5H247.55a7.5,7.5,0,0,0,0-15H88.27V55.34c0-.73,0-1.46,0-2.18,0-.24,0-.47,0-.71,0-.48-.06-1-.11-1.44,0-.28-.07-.56-.1-.84s-.1-.86-.16-1.29L87.65,48c-.07-.41-.14-.82-.22-1.22s-.12-.59-.18-.89-.18-.78-.28-1.17-.15-.59-.22-.88l-.33-1.15-.27-.86c-.12-.39-.25-.76-.38-1.14l-.3-.83L85,38.73,84.7,38c-.17-.39-.35-.78-.53-1.16l-.33-.72c-.21-.42-.42-.83-.64-1.24l-.3-.59c-.66-1.2-1.37-2.37-2.13-3.5l-.37-.53-.81-1.13-.49-.63c-.25-.33-.5-.66-.77-1l-.54-.65c-.18-.21-.35-.42-.53-.62H345.88A29.17,29.17,0,0,1,375,55.34v85a7.5,7.5,0,0,0,15,0v-85A44.19,44.19,0,0,0,345.88,11.2ZM73.28,116.38H15v-61a29.14,29.14,0,1,1,58.28,0Z" transform="translate(0 -11.2)"/><path class="cls-1" d="M382.52,382.39a7.5,7.5,0,0,0-7.5,7.5v9.88H372.3a7.5,7.5,0,1,0,0,15h10.22a7.5,7.5,0,0,0,7.5-7.5V389.89A7.49,7.49,0,0,0,382.52,382.39Z" transform="translate(0 -11.2)"/><path class="cls-1" d="M273.56,210.71l-12.62-16.4-13.72-17.84,26.34-34.23a7.5,7.5,0,0,0-11.89-9.15l-23.92,31.08L214.5,134a39.27,39.27,0,0,0-5.81-78.11H176.33a7.5,7.5,0,0,0-7.5,7.5V190.6a7.5,7.5,0,0,0,15,0V134.4h12.08l32.37,42.08-26.34,34.23a7.5,7.5,0,0,0,11.89,9.15l23.92-31.09,14.65,19,9.27,12a7.06,7.06,0,0,0,1.23,1.27,7.5,7.5,0,0,0,10.66-10.41ZM199.85,119.4h-16V70.85h24.86a24.28,24.28,0,1,1,0,48.55Z" transform="translate(0 -11.2)"/><path class="cls-1" d="M309,262h-179a7.5,7.5,0,1,0,0,15H309a7.5,7.5,0,1,0,0-15Z" transform="translate(0 -11.2)"/><path class="cls-1" d="M284,313.12H129.92a7.5,7.5,0,1,0,0,15H284a7.5,7.5,0,0,0,0-15Z" transform="translate(0 -11.2)"/><path class="cls-1" d="M508.25,201.05,490.77,191A48.78,48.78,0,0,0,403,149L305.51,317.88a7.51,7.51,0,0,0,2.75,10.24l2.94,1.7L259.8,430.26a7.43,7.43,0,0,0-.33.77,1.55,1.55,0,0,0-.08.23,5.26,5.26,0,0,0-.18.6l-.06.24a8.17,8.17,0,0,0-.14.84l-5.92,59.62a6.65,6.65,0,0,0,0,1.09,7.48,7.48,0,0,0,2.84,5.53,7.17,7.17,0,0,0,.9.62,7.53,7.53,0,0,0,8.12-.4l48.68-34.95a6.66,6.66,0,0,0,.94-.82l.21-.22a8.85,8.85,0,0,0,.77-1h0l61.28-94.72,2.94,1.7A7.5,7.5,0,0,0,390,366.65l93.77-162.42,10.49,6.06-42,72.7a7.5,7.5,0,1,0,13,7.5L511,211.29A7.48,7.48,0,0,0,508.25,201.05ZM269.65,477.53,272.79,446,295.41,459ZM306.8,448.3l-30.4-17.55,47.81-93.42,39.59,22.86ZM474.52,190.24,380.75,352.66l-2.56-1.48-.06,0-53.26-30.75-.07,0-2.55-1.47L416,156.46a33.78,33.78,0,1,1,58.5,33.78Z" transform="translate(0 -11.2)"/></svg>