<svg id="Capa_1" data-name="Capa 1" xmlns="http://www.w3.org/2000/svg" viewBox="0 0 480 480"><defs><style>.cls-1{fill:#2cc2f0;}</style></defs><title>printer</title><path class="cls-1" d="M472,160H432V104a8,8,0,0,0-8-8H400V8a8,8,0,0,0-8-8H88a8,8,0,0,0-8,8V96H56a8,8,0,0,0-8,8v56H8a8,8,0,0,0-8,8V392a8,8,0,0,0,8,8H80v72a8,8,0,0,0,8,8H392a8,8,0,0,0,8-8V400h72a8,8,0,0,0,8-8V168A8,8,0,0,0,472,160Zm-72-48h16v48H400ZM96,16H384V160H96ZM64,112H80v48H64ZM80,352H72V328h8ZM384,464H96V328H384Zm80-80H400V368h16a8,8,0,0,0,8-8V320a8,8,0,0,0-8-8H64a8,8,0,0,0-8,8v40a8,8,0,0,0,8,8H80v16H16V176H464Zm-64-32V328h8v24Z"/><rect x="176" y="352" width="176" height="16"/><rect x="128" y="384" width="224" height="16"/><rect x="128" y="416" width="176" height="16"/><rect x="128" y="352" width="32" height="16"/><path d="M104,192H40a8,8,0,0,0-8,8v32a8,8,0,0,0,8,8h64a8,8,0,0,0,8-8V200A8,8,0,0,0,104,192Zm-8,32H48V208H96Z"/><rect x="128" y="224" width="80" height="16"/><rect x="224" y="224" width="16" height="16"/></svg>