<svg id="Layer_1" data-name="Layer 1" xmlns="http://www.w3.org/2000/svg" viewBox="0 0 512 512"><defs><style>.cls-1{fill:#2cc1f1;}</style></defs><title>start action</title><path class="cls-1" d="M275.82,275.63a39.95,39.95,0,1,1-59.92-34.58V130.82h39.95V241.05A40,40,0,0,1,275.82,275.63Zm236,110.84L306.78,512V261ZM346.73,440.7l88.57-54.23-88.57-54.23ZM40.14,275.63C40.14,167.7,128,79.89,235.88,79.89S431.61,167.7,431.61,275.63c0,4.9-.19,9.76-.54,14.58l37.51,23a238.45,238.45,0,0,0,3-37.54,234.17,234.17,0,0,0-69-166.66c-1.67-1.67-3.38-3.3-5.09-4.92L414,84.21l27.11,22.61,25.59-30.68L381.77,5.33,356.19,36l27.12,22.61L366.18,79.16A233.39,233.39,0,0,0,255.85,40.79V0H215.9V40.79A235.68,235.68,0,0,0,69.23,442.28a234.12,234.12,0,0,0,166.65,69,238.82,238.82,0,0,0,30.95-2V468.9a196.15,196.15,0,0,1-30.95,2.46C128,471.36,40.14,383.55,40.14,275.63Z"/></svg>