<svg id="Layer_1" enable-background="new 0 0 512.696 512.696" height="512" viewBox="0 0 512.696 512.696" width="512" xmlns="http://www.w3.org/2000/svg"><path d="m276.197 276c0 22.056-17.944 40-40 40s-40-17.944-40-40c0-14.773 8.056-27.692 20-34.619v-110.381h40v110.381c11.943 6.927 20 19.846 20 34.619zm236.302 111-205.302 125.696v-251.392zm-165.302 54.304 88.697-54.304-88.697-54.304zm-307-165.304c0-108.075 87.925-196 196-196s196 87.925 196 196c0 4.911-.187 9.779-.543 14.601l37.566 22.999c1.961-12.321 2.978-24.882 2.978-37.6 0-63.038-24.548-122.303-69.123-166.877-1.675-1.675-3.378-3.313-5.094-4.931l16.569-19.869 27.153 22.643 25.618-30.72-85.028-70.905-25.618 30.72 27.153 22.643-17.15 20.565c-32.882-21.907-70.668-35.103-110.482-38.423v-40.846h-40v40.847c-55.494 4.627-107.051 28.449-146.877 68.275-44.574 44.575-69.122 103.84-69.122 166.878s24.548 122.303 69.123 166.877c44.574 44.575 103.838 69.123 166.877 69.123 10.455 0 20.802-.69 31-2.02v-40.44c-10.101 1.612-20.453 2.46-31 2.46-108.075 0-196-87.925-196-196z"/></svg>