<svg id="Capa_1" data-name="Capa 1" xmlns="http://www.w3.org/2000/svg" viewBox="0 0 512 512"><defs><style>.cls-1,.cls-2{fill:#2cc2f0;}.cls-2{stroke:#000;stroke-miterlimit:10;}</style></defs><title>view details</title><path class="cls-1" d="M387.74,52.64h-.06a10,10,0,1,0,.06,0Z"/><path class="cls-1" d="M441.71,52.64h-.06a10,10,0,1,0,.06,0Z"/><path class="cls-1" d="M333.77,52.64h-.06a10,10,0,1,0,.06,0Z"/><path class="cls-1" d="M220.52,52.64H70.26a10,10,0,0,0,0,20H220.52a10,10,0,0,0,0-20Z"/><path class="cls-2" d="M479.92,0H32.08A32.12,32.12,0,0,0,0,32.08V402.36a32.12,32.12,0,0,0,32.08,32.09H85.63v40.28A37.31,37.31,0,0,0,122.9,512H389.1a37.31,37.31,0,0,0,37.27-37.27V434.45h53.55A32.12,32.12,0,0,0,512,402.36V32.08A32.12,32.12,0,0,0,479.92,0ZM492,402.36a12.1,12.1,0,0,1-12.08,12.09H426.37V208.54a37.31,37.31,0,0,0-37.27-37.27H300.86a10,10,0,0,0,0,20H389.1a17.29,17.29,0,0,1,17.27,17.27V474.73A17.29,17.29,0,0,1,389.1,492H122.9a17.29,17.29,0,0,1-17.27-17.27V208.53a17.28,17.28,0,0,1,17.27-17.26H211a10,10,0,0,0,0-20H122.9a37.3,37.3,0,0,0-37.27,37.26V414.45H32.08A12.1,12.1,0,0,1,20,402.36V125.3H492Zm0-297H20V32.08A12.09,12.09,0,0,1,32.08,20H479.92A12.09,12.09,0,0,1,492,32.08Z"/><path class="cls-1" d="M139,279.17a10,10,0,0,0,10-10V234.66h34.5a10,10,0,0,0,0-20H139a10,10,0,0,0-10,10v44.51A10,10,0,0,0,139,279.17Z"/><path class="cls-1" d="M328.44,234.66H363v34.51a10,10,0,1,0,20,0V224.66a10,10,0,0,0-10-10H328.44a10,10,0,0,0,0,20Z"/><path class="cls-1" d="M183.53,448.6H149V414.07a10,10,0,0,0-20,0V458.6a10,10,0,0,0,10,10h44.5a10,10,0,0,0,0-20Z"/><path class="cls-1" d="M373,404.07a10,10,0,0,0-10,10V448.6H328.44a10,10,0,1,0,0,20H373a10,10,0,0,0,10-10V414.07A10,10,0,0,0,373,404.07Z"/><path class="cls-1" d="M220.42,341.62A35.58,35.58,0,1,0,256,306.05a35.62,35.62,0,0,0-35.57,35.57Zm51.16,0A15.58,15.58,0,1,1,256,326.05a15.61,15.61,0,0,1,15.59,15.57Z"/><path class="cls-1" d="M167.6,293.84C149.81,306.12,129,326,129,341.62s20.78,35.51,38.58,47.78c15.64,10.79,47.92,28.89,88.38,28.89s72.74-18.1,88.39-28.88c17.8-12.28,38.59-32.16,38.59-47.79s-20.79-35.5-38.59-47.78C328.73,283.05,296.44,265,256,265s-72.74,18.1-88.38,28.9ZM149,341.62c.49-3.09,7.74-15.17,26.48-28.87a85.47,85.47,0,0,0,0,57.75c-18.76-13.7-26-25.79-26.49-28.88Zm187.41-28.88c18.76,13.7,26,25.79,26.51,28.88-.49,3.09-7.74,15.19-26.52,28.9a85.56,85.56,0,0,0,0-57.78Zm-15,28.88A65.57,65.57,0,0,1,300,390.09a122.3,122.3,0,0,1-88,0,65.41,65.41,0,0,1,0-97,122.29,122.29,0,0,1,88,0,65.43,65.43,0,0,1,21.49,48.48Z"/><path class="cls-1" d="M256,191.27h0a10,10,0,1,0-10-10,10,10,0,0,0,10,10Z"/></svg>