<svg width="119" height="119" viewBox="0 0 119 119" fill="none" xmlns="http://www.w3.org/2000/svg">
<path d="M44.7111 59.0373C33.8426 59.0373 25.032 50.2266 25.032 39.3582C25.032 28.4897 33.8426 19.6791 44.7111 19.6791C55.5795 19.6791 64.3901 28.4897 64.3901 39.3582C64.3901 50.2266 55.5795 59.0373 44.7111 59.0373Z" fill="#FFC737"/>
<path d="M44.7114 98.3954C44.7114 98.3954 5.35322 98.3954 5.35322 88.5559C5.35322 76.7484 24.5403 63.957 44.7114 63.957C64.8824 63.957 84.0695 76.7484 84.0695 88.5559C84.0695 98.3954 44.7114 98.3954 44.7114 98.3954ZM88.9893 49.1977V34.4384H98.8288V49.1977H113.588V59.0372H98.8288V73.7966H88.9893V59.0372H74.23V49.1977H88.9893Z" fill="#FFC737"/>
</svg>
