<?xml version="1.0" encoding="utf-8"?>
<!-- Generator: Adobe Illustrator 24.0.1, SVG Export Plug-In . SVG Version: 6.00 Build 0)  -->
<svg version="1.1" id="Capa_1" xmlns="http://www.w3.org/2000/svg" xmlns:xlink="http://www.w3.org/1999/xlink" x="0px" y="0px"
	 viewBox="0 0 512 512" style="enable-background:new 0 0 512 512;" xml:space="preserve">
<style type="text/css">
	.st0{fill:#2CC2F0;}
</style>
<g>
	<g>
		<g>
			<g>
				<g>
					<g>
						<path class="st0" d="M101.6,222.7c-5.5,0-10-4.5-10-10v-15.8c0-5.5,4.5-10,10-10s10,4.5,10,10v15.8
							C111.6,218.2,107.1,222.7,101.6,222.7z"/>
					</g>
				</g>
				<g>
					<g>
						<path class="st0" d="M193.6,222.7c-5.5,0-10-4.5-10-10v-15.8c0-5.5,4.5-10,10-10s10,4.5,10,10v15.8
							C203.6,218.2,199.2,222.7,193.6,222.7z"/>
					</g>
				</g>
			</g>
			<g>
				<path class="st0" d="M147.6,275.5c-9.1,0-17.5-4.9-22-12.7c-2.8-4.8-1.1-10.9,3.6-13.7c4.8-2.8,10.9-1.1,13.7,3.6
					c1,1.7,2.8,2.7,4.7,2.7s3.7-1,4.7-2.7c2.8-4.8,8.9-6.4,13.7-3.6c4.8,2.8,6.4,8.9,3.6,13.7C165.1,270.7,156.7,275.5,147.6,275.5
					L147.6,275.5z"/>
			</g>
		</g>
	</g>
</g>
<g>
	<path class="st0" d="M506,329.6c-1.7-5.2-7.4-8.1-12.6-6.3c-5.2,1.7-8.1,7.4-6.3,12.6c3.3,10,5,20.4,5,31
		c0,54.2-44.1,98.2-98.2,98.2c-54.2,0-98.2-44.1-98.2-98.2s44.1-98.2,98.2-98.2c9.1,0,18.2,1.3,26.9,3.7c4.9,1.4,9.7,3.2,14.4,5.3
		c5,2.3,11,0.1,13.3-4.9c2.3-5,0.1-11-4.9-13.3c-5.6-2.6-11.4-4.7-17.3-6.4c-10.5-3-21.4-4.5-32.4-4.5
		c-56.8,0-104.3,40.2-115.7,93.7c-7.3-5.6-16.5-8.9-26.4-8.9h-32.5c-0.1-1-0.4-2-0.8-2.9c-1.1-2.5-3.1-4.4-5.6-5.4l-30.1-11.7
		c-0.9-0.3-1.8-0.5-2.7-0.6c8.7-3.3,20.3-9,31.7-17.3c24-17.6,37-40.1,37.7-65.3c6.3-0.9,12-3.9,16.5-8.5c5.5-5.7,8.4-13.2,8.1-21.2
		c-0.4-11-6.9-20.4-16.3-25c6-13.5,13.8-37.7,13.8-71.4c0-16-4.2-33.2-12.4-51c-3.2-6.9-6.3-12.4-8.4-15.9c-4.6-7.5-5.4-8.1-7.1-9.1
		c-3.6-2.1-8.1-1.8-11.3,0.8l-3.2,2.6c-19,15.2-24.2,19.4-70.8,6.7c-31.1-12.5-51.6-0.9-68.1,8.6C80.1,52.7,71.3,57.7,61,57.3
		c-9-0.3-16.6,3.2-22,10c-9.7,12.4-11.9,35.6-6.7,71.2c2.1,14.3,5,27.5,7.1,36.2c-10.4,4.2-17.9,14-18.3,25.8
		c-0.3,7.9,2.6,15.5,8.1,21.2c4.3,4.5,9.9,7.4,15.9,8.4c1.2,48.1,46.5,73.6,69.7,82.7c-0.8,0.1-1.6,0.3-2.3,0.6l-30.1,11.7
		c-2.5,1-4.5,2.9-5.6,5.4c-0.4,0.9-0.7,1.9-0.8,2.9H43.5c-24,0-43.5,19.5-43.5,43.5v98.2c0,5.5,4.5,10,10,10h275.2
		c5.5,0,10-4.5,10-10v-43c21.2,31.9,57.5,53,98.5,53c65.2,0,118.2-53,118.2-118.2C512,354.1,510,341.6,506,329.6L506,329.6z
		 M196.2,340.1l-13.4,33.1L162,347.8l18.7-13.8L196.2,340.1z M54.8,79.7c1.2-1.5,2.6-2.5,5.6-2.4c16,0.6,28.6-6.7,39.8-13.1
		c15.4-8.8,28.7-16.4,51.1-7.2c0.4,0.2,0.8,0.3,1.2,0.4c47.4,13,61.4,10.8,83.5-5.8c6.2,11.1,15.6,31.3,15.6,52.5
		c0,26.5-5.4,46.3-10.1,58.5l-32.6-48.2c-1.9-2.8-5-4.4-8.3-4.4c-1,0-2,0.1-2.9,0.4c-4.2,1.3-7.1,5.1-7.1,9.5
		c0,10-22.4,11.9-26.9,12.1c-10.6,0.7-67.4-1.2-88.4-2c-0.1,0-0.2,0-0.4,0c-7.5,0-13.7,5.7-20.5,19.1C49,120.5,46.9,89.7,54.8,79.7
		L54.8,79.7z M65.1,228.2c0-0.7-0.1-1.4-0.2-2.1l-1.7-7.6c-1-4.6-5.1-7.9-9.8-7.9h-3.4c-2.5,0-4.8-1-6.5-2.7
		c-1.7-1.8-2.6-4.1-2.5-6.6c0.2-4.8,4.4-8.7,9.4-8.7c0.2,0,0.4,0,0.6,0c0.1,0,0.2,0,0.3,0c0.1,0,0.1,0,0.2,0c4.3,0,8.2-2.8,9.5-6.9
		c4.9-15.3,11.9-30.9,15.8-35.4c13.5,0.5,75.3,2.6,87.9,1.9c16.7-1,29.2-5.3,36.9-12.3l32.7,48.4c1.9,2.7,5,4.4,8.3,4.4h0
		c0.3,0,0.6,0,0.9,0c0.3,0,0.6,0,0.9,0c5,0,9.3,3.9,9.4,8.7c0.1,2.5-0.8,4.8-2.5,6.6c-1.7,1.8-4,2.7-6.5,2.7h-4
		c-4.7,0-8.8,3.3-9.8,7.9l-1.7,7.6c-0.2,0.7-0.2,1.4-0.2,2.1c0,19.5-9.8,36.7-29.2,51c-16.7,12.3-33.6,17.3-35.5,17.7
		c-2.8,0.4-5.3,2-6.9,4.4c-1.6,2.4-2.1,5.3-1.4,8.1l3.9,15l-12.8,9.4l-13.3-9.8l3.8-14.6c0.7-2.8,0.2-5.7-1.3-8.1
		c-1.6-2.4-4.1-4-6.9-4.4c-2-0.3-18.8-5.4-35.6-17.8C74.9,264.7,65.1,247.6,65.1,228.2L65.1,228.2z M114.6,334.1l18.7,13.8
		l-20.8,25.3L99,340.1L114.6,334.1z M275.2,465.1H20v-88.2c0-13,10.6-23.5,23.5-23.5h39.3l17.4,42.9c1.3,3.3,4.3,5.6,7.8,6.1
		c0.5,0.1,1,0.1,1.5,0.1c3,0,5.8-1.3,7.7-3.7l30.3-37l30.3,37c1.9,2.3,4.8,3.7,7.7,3.7c0.5,0,1,0,1.5-0.1c3.5-0.5,6.4-2.9,7.8-6.1
		l17.4-42.9h39.3c13,0,23.5,10.6,23.5,23.5L275.2,465.1L275.2,465.1z"/>
	<g>
		<path class="st0" d="M473.4,303.7c-4.2,0-8-2.7-9.4-6.6c-1.4-3.9-0.2-8.4,3-11.1c3.1-2.6,7.6-3,11.1-1.1c3.7,2,5.8,6.1,5.2,10.3
			C482.6,300,478.3,303.7,473.4,303.7L473.4,303.7z"/>
	</g>
	<g>
		<path d="M408.6,422.1h-29.8c-5.5,0-10-4.5-10-10v-20.3h-20.3c-5.5,0-10-4.5-10-10V352c0-5.5,4.5-10,10-10h20.3v-20.3
			c0-5.5,4.5-10,10-10h29.8c5.5,0,10,4.5,10,10V342h20.3c5.5,0,10,4.5,10,10v29.8c0,5.5-4.5,10-10,10h-20.3v20.3
			C418.6,417.7,414.1,422.1,408.6,422.1z M388.8,402.1h9.8v-20.3c0-5.5,4.5-10,10-10h20.3V362h-20.3c-5.5,0-10-4.5-10-10v-20.3h-9.8
			V352c0,5.5-4.5,10-10,10h-20.3v9.8h20.3c5.5,0,10,4.5,10,10V402.1z"/>
	</g>
</g>
</svg>
