<svg id="Capa_1" data-name="Capa 1" xmlns="http://www.w3.org/2000/svg" viewBox="0 0 512 458.24"><defs><style>.cls-1{fill:#020202;}</style></defs><title>add patient  black</title><path class="cls-1" d="M101.58,222.67a10,10,0,0,1-10-10V196.92a10,10,0,0,1,20,0v15.75A10,10,0,0,1,101.58,222.67Z" transform="translate(0 -26.88)"/><path class="cls-1" d="M193.65,222.67a10,10,0,0,1-10-10V196.92a10,10,0,0,1,20,0v15.75A10,10,0,0,1,193.65,222.67Z" transform="translate(0 -26.88)"/><path class="cls-1" d="M147.64,275.55a25.5,25.5,0,0,1-22-12.72,10,10,0,0,1,17.31-10,5.44,5.44,0,0,0,9.43,0,10,10,0,0,1,17.32,10,25.52,25.52,0,0,1-22,12.72Z" transform="translate(0 -26.88)"/><path class="cls-1" d="M506,329.6a10,10,0,1,0-19,6.31,98.09,98.09,0,1,1-66.36-63.54A99.43,99.43,0,0,1,435,277.7a10,10,0,1,0,8.41-18.14,116.73,116.73,0,0,0-17.3-6.42,118.34,118.34,0,0,0-148,89.2,43.32,43.32,0,0,0-26.41-8.95H219.22a10.25,10.25,0,0,0-.76-2.91,10,10,0,0,0-5.57-5.36l-30.14-11.67a9.75,9.75,0,0,0-2.69-.63,140.8,140.8,0,0,0,31.67-17.26c24-17.57,37-40.1,37.72-65.28a28.93,28.93,0,0,0,8.31-54.68c6-13.53,13.76-37.69,13.76-71.43,0-16-4.15-33.16-12.35-50.95a164.73,164.73,0,0,0-8.42-15.9c-4.56-7.55-5.42-8-7.12-9a10,10,0,0,0-11.33.8l-3.22,2.59C210,46.9,204.85,51,158.32,38.33c-31.11-12.55-51.59-.86-68.07,8.55C80.09,52.68,71.32,57.67,61,57.33a25.82,25.82,0,0,0-22,10C29.3,79.73,27.11,103,32.34,138.53c2.1,14.32,5,27.51,7.06,36.21a29,29,0,0,0,5.73,55.44c1.22,48.06,46.51,73.65,69.69,82.67a10.06,10.06,0,0,0-2.34.6L82.34,325.12A10,10,0,0,0,76,333.39H43.53A43.58,43.58,0,0,0,0,376.93v98.19a10,10,0,0,0,10,10H285.23a10,10,0,0,0,10-10v-43A118.24,118.24,0,0,0,506,329.6ZM196.19,340.09l-13.44,33.07L162,347.83l18.65-13.75ZM54.75,79.73c1.2-1.52,2.61-2.51,5.58-2.41,16,.55,28.65-6.69,39.84-13.07,15.41-8.81,28.73-16.41,51.13-7.19a10.55,10.55,0,0,0,1.16.4c47.42,13,61.36,10.83,83.49-5.81,6.22,11.1,15.58,31.34,15.58,52.52,0,26.51-5.39,46.27-10.1,58.48l-32.56-48.17a10,10,0,0,0-8.29-4.4,10.17,10.17,0,0,0-2.92.43,10,10,0,0,0-7.08,9.54c0,10-22.42,11.86-26.91,12.14-10.64.66-67.43-1.21-88.42-2h-.37c-7.51,0-13.71,5.65-20.53,19.13-5.33-28.84-7.48-59.58.4-69.6ZM65.1,228.19a10.07,10.07,0,0,0-.23-2.13l-1.65-7.6a10,10,0,0,0-9.77-7.87H50.09a9,9,0,0,1-9-9.32,9.31,9.31,0,0,1,9.44-8.66c.21,0,.42,0,.64,0l.34,0h.2a10,10,0,0,0,9.51-6.94c4.92-15.26,11.93-30.86,15.79-35.39,13.53.48,75.34,2.64,87.88,1.86,16.66-1,29.24-5.35,36.94-12.34l32.72,48.41a10,10,0,0,0,8.28,4.39h0a8.7,8.7,0,0,0,.89,0c.31,0,.62,0,.93,0a9.31,9.31,0,0,1,9.44,8.66,9,9,0,0,1-9,9.32h-4a10,10,0,0,0-9.77,7.88l-1.65,7.59a10.14,10.14,0,0,0-.23,2.13c0,19.52-9.82,36.67-29.19,50.95-16.74,12.35-33.61,17.35-35.54,17.67a10,10,0,0,0-8.26,12.42l3.88,14.95-12.76,9.41-13.3-9.81,3.78-14.55a10,10,0,0,0-8.22-12.41c-2-.33-18.81-5.37-35.59-17.78C74.92,264.72,65.1,247.61,65.1,228.19Zm49.48,105.89,18.65,13.75-20.75,25.33L99,340.1Zm160.65,131H20V376.93a23.56,23.56,0,0,1,23.53-23.54H82.86l17.42,42.89a10,10,0,0,0,7.77,6.12,10.78,10.78,0,0,0,1.49.11,10,10,0,0,0,7.74-3.66l30.34-37,30.33,37a10,10,0,0,0,7.73,3.66,10.81,10.81,0,0,0,1.5-.11,10,10,0,0,0,7.77-6.12l17.42-42.89h39.32a23.57,23.57,0,0,1,23.54,23.54v88.19Z" transform="translate(0 -26.88)"/><path class="cls-1" d="M473.38,303.7a10,10,0,1,1,9.89-8.53,10.06,10.06,0,0,1-9.89,8.53Z" transform="translate(0 -26.88)"/><path class="cls-1" d="M408.59,422.13H378.77a10,10,0,0,1-10-10V391.79H348.43a10,10,0,0,1-10-10V352a10,10,0,0,1,10-10h20.34V321.63a10,10,0,0,1,10-10h29.82a10,10,0,0,1,10,10V342h20.34a10,10,0,0,1,10,10v29.81a10,10,0,0,1-10,10H418.59v20.34A10,10,0,0,1,408.59,422.13Zm-19.82-20h9.82V381.79a10,10,0,0,1,10-10h20.34V362H408.59a10,10,0,0,1-10-10V331.63h-9.82V352a10,10,0,0,1-10,10H358.43v9.81h20.34a10,10,0,0,1,10,10Z" transform="translate(0 -26.88)"/></svg>