<?xml version="1.0" encoding="utf-8"?>
<!-- Generator: Adobe Illustrator 22.0.1, SVG Export Plug-In . SVG Version: 6.00 Build 0)  -->
<svg version="1.1" id="Layer_1" xmlns="http://www.w3.org/2000/svg" xmlns:xlink="http://www.w3.org/1999/xlink" x="0px" y="0px"
	 viewBox="0 0 14 14" style="enable-background:new 0 0 14 14;" xml:space="preserve">
<path d="M12,8.3L8,3.5C7.7,3.2,7.4,3,7,3C6.6,3,6.3,3.2,6,3.5L2,8.3C1.8,8.5,1.7,8.9,1.7,9.2c0,0.3,0.2,0.7,0.5,0.9
	c0.2,0.2,0.5,0.3,0.8,0.3c0.4,0,0.7-0.2,1-0.5l3-3.6l3,3.6c0.2,0.3,0.6,0.5,1,0.5c0.3,0,0.6-0.1,0.8-0.3C12.4,9.6,12.5,8.8,12,8.3z"
	/>
</svg>
