<svg width="977" height="977" viewBox="0 0 977 977" fill="none" xmlns="http://www.w3.org/2000/svg">
<path d="M488.37 569.568H81.6505C60.0768 569.568 39.3867 560.998 24.1317 545.743C8.87678 530.488 0.306641 509.798 0.306641 488.224V81.505C0.306641 59.9313 8.87678 39.2412 24.1317 23.9862C39.3867 8.73128 60.0768 0.161133 81.6505 0.161133H488.37C509.944 0.161133 530.634 8.73128 545.889 23.9862C561.144 39.2412 569.714 59.9313 569.714 81.505V488.224C569.714 509.798 561.144 530.488 545.889 545.743C530.634 560.998 509.944 569.568 488.37 569.568ZM81.6505 81.505V488.224H488.37V81.505H81.6505Z" fill="#FFD399"/>
<path d="M895.092 325.539V488.227H732.404V325.539H895.092ZM895.092 244.195H732.404C710.831 244.195 690.141 252.765 674.886 268.02C659.631 283.275 651.061 303.965 651.061 325.539V488.227C651.061 509.801 659.631 530.491 674.886 545.746C690.141 561.001 710.831 569.571 732.404 569.571H895.092C916.666 569.571 937.356 561.001 952.611 545.746C967.866 530.491 976.436 509.801 976.436 488.227V325.539C976.436 303.965 967.866 283.275 952.611 268.02C937.356 252.765 916.666 244.195 895.092 244.195Z" fill="#FFD399"/>
<path d="M895.092 732.257V894.945H732.404V732.257H895.092ZM895.092 650.913H732.404C710.831 650.913 690.141 659.483 674.886 674.738C659.631 689.993 651.061 710.683 651.061 732.257V894.945C651.061 916.518 659.631 937.209 674.886 952.464C690.141 967.719 710.831 976.289 732.404 976.289H895.092C916.666 976.289 937.356 967.719 952.611 952.464C967.866 937.209 976.436 916.518 976.436 894.945V732.257C976.436 710.683 967.866 689.993 952.611 674.738C937.356 659.483 916.666 650.913 895.092 650.913Z" fill="#FFD399"/>
<path d="M488.372 732.257V894.945H325.684V732.257H488.372ZM488.372 650.913H325.684C304.11 650.913 283.42 659.483 268.165 674.738C252.91 689.993 244.34 710.683 244.34 732.257V894.945C244.34 916.518 252.91 937.209 268.165 952.464C283.42 967.719 304.11 976.289 325.684 976.289H488.372C509.945 976.289 530.635 967.719 545.89 952.464C561.145 937.209 569.715 916.518 569.715 894.945V732.257C569.715 710.683 561.145 689.993 545.89 674.738C530.635 659.483 509.945 650.913 488.372 650.913Z" fill="#FFD399"/>
</svg>
