<svg width="977" height="977" viewBox="0 0 977 977" fill="none" xmlns="http://www.w3.org/2000/svg">
<path d="M488.37 569.407H81.6505C60.0768 569.407 39.3867 560.837 24.1317 545.582C8.87678 530.327 0.306641 509.637 0.306641 488.063V81.3439C0.306641 59.7701 8.87678 39.08 24.1317 23.8251C39.3867 8.57014 60.0768 0 81.6505 0H488.37C509.944 0 530.634 8.57014 545.889 23.8251C561.144 39.08 569.714 59.7701 569.714 81.3439V488.063C569.714 509.637 561.144 530.327 545.889 545.582C530.634 560.837 509.944 569.407 488.37 569.407ZM81.6505 81.3439V488.063H488.37V81.3439H81.6505Z" fill="#FFE877"/>
<path d="M895.092 325.377V488.065H732.404V325.377H895.092ZM895.092 244.033H732.404C710.831 244.033 690.141 252.603 674.886 267.858C659.631 283.113 651.061 303.803 651.061 325.377V488.065C651.061 509.639 659.631 530.329 674.886 545.584C690.141 560.839 710.831 569.409 732.404 569.409H895.092C916.666 569.409 937.356 560.839 952.611 545.584C967.866 530.329 976.436 509.639 976.436 488.065V325.377C976.436 303.803 967.866 283.113 952.611 267.858C937.356 252.603 916.666 244.033 895.092 244.033Z" fill="#FFE877"/>
<path d="M895.092 732.096V894.784H732.404V732.096H895.092ZM895.092 650.752H732.404C710.831 650.752 690.141 659.322 674.886 674.577C659.631 689.832 651.061 710.522 651.061 732.096V894.784C651.061 916.357 659.631 937.047 674.886 952.302C690.141 967.557 710.831 976.128 732.404 976.128H895.092C916.666 976.128 937.356 967.557 952.611 952.302C967.866 937.047 976.436 916.357 976.436 894.784V732.096C976.436 710.522 967.866 689.832 952.611 674.577C937.356 659.322 916.666 650.752 895.092 650.752Z" fill="#FFE877"/>
<path d="M488.372 732.096V894.784H325.684V732.096H488.372ZM488.372 650.752H325.684C304.11 650.752 283.42 659.322 268.165 674.577C252.91 689.832 244.34 710.522 244.34 732.096V894.784C244.34 916.357 252.91 937.047 268.165 952.302C283.42 967.557 304.11 976.128 325.684 976.128H488.372C509.945 976.128 530.635 967.557 545.89 952.302C561.145 937.047 569.715 916.357 569.715 894.784V732.096C569.715 710.522 561.145 689.832 545.89 674.577C530.635 659.322 509.945 650.752 488.372 650.752Z" fill="#FFE877"/>
</svg>
