<svg id="blue.svg" xmlns="http://www.w3.org/2000/svg" width="273.972" height="143.375" viewBox="0 0 273.972 143.375">
  <defs>
    <style>
      .cls-1, .cls-2 {
        fill: #28ecfa;
        fill-rule: evenodd;
      }

      .cls-2 {
        mix-blend-mode: multiply;
      }
    </style>
  </defs>
  <path class="cls-1" d="M936,768s-67.5-8-113,11c-22.57,9.425-30,23-34,65s14.315,51.239,35,55c33,6,29-3,89-9,21.48-2.148,59.84,9.022,109,2,28-4,43.51-45.338,30-67C1029.28,788.561,1014,780,936,768Z" transform="translate(-788.438 -757.625)"/>
  <path id="Shape_760_copy" data-name="Shape 760 copy" class="cls-2" d="M936.128,757.768s-67.9-3.09-111.906,19.156c-21.829,11.035-28.255,25.113-29.2,67.292s17.989,50.067,38.892,52.32c33.348,3.594,28.707-5.092,88.115-15.423,21.267-3.7,60.336,4.665,108.854-5.9,27.64-6.017,40.11-48.369,25.07-69C1030.65,771.518,1014.79,764.086,936.128,757.768Z" transform="translate(-788.438 -757.625)"/>
</svg>
