<svg id="Capa_1" data-name="Capa 1" xmlns="http://www.w3.org/2000/svg" xmlns:xlink="http://www.w3.org/1999/xlink" viewBox="0 0 974 622.91"><defs><style>.cls-1{fill:#1a1b1f;}.cls-2{fill:#f5c85c;}.cls-3{isolation:isolate;}</style></defs><title>chat</title><path class="cls-1" d="M444.6,191.1h-238a7.5,7.5,0,0,0,0,15h238a7.5,7.5,0,0,0,0-15Z" transform="translate(0 141.11)"/><path class="cls-1" d="M444.6,248.5h-238a7.5,7.5,0,0,0,0,15h238a7.5,7.5,0,0,0,0-15Z" transform="translate(0 141.11)"/><path class="cls-1" d="M444.6,305.8h-238a7.5,7.5,0,1,0,0,15h238a7.5,7.5,0,0,0,0-15Z" transform="translate(0 141.11)"/><path class="cls-2" d="M468.4,125.5H182.7a43.64,43.64,0,0,0-43.6,43.6V348.7a43.64,43.64,0,0,0,43.6,43.6H382.9a7.39,7.39,0,0,1,5.5,2.6l64.7,81.9a13,13,0,0,0,10.2,5,13.92,13.92,0,0,0,4.4-.7,13,13,0,0,0,8.8-12.3V391.6a44,44,0,0,0,35.7-42.9V169.2a44,44,0,0,0-43.8-43.7ZM497,348.8a28.73,28.73,0,0,1-28.3,28.6,7.53,7.53,0,0,0-7.4,7.5v78.3l-61.2-77.4a21.85,21.85,0,0,0-17.2-8.3H182.7a28.59,28.59,0,0,1-28.6-28.6V169.2a28.59,28.59,0,0,1,28.6-28.6H468.3a28.59,28.59,0,0,1,28.6,28.6V348.8Z" transform="translate(0 141.11)"/><path class="cls-2" d="M110.5,249.6A20.07,20.07,0,0,0,97.6,257L46,322.2V256.8a7.53,7.53,0,0,0-7.4-7.5A24,24,0,0,1,15,225.4V69.1A23.9,23.9,0,0,1,38.9,45.2H287.6a23.9,23.9,0,0,1,23.9,23.9V98a7.5,7.5,0,0,0,15,0V69.1a38.94,38.94,0,0,0-38.9-38.9H38.9A38.88,38.88,0,0,0,0,69.1V225.5a39.12,39.12,0,0,0,31,38.1V330a12.32,12.32,0,0,0,22,7.6l56.3-71.3a5.3,5.3,0,0,1,3.3-1.9,7.47,7.47,0,1,0-2.1-14.8Z" transform="translate(0 141.11)"/><image class="cls-3" width="368" height="330" transform="translate(606)" xlink:href="../../../../Downloads/WhatsApp%20Image%202020-09-23%20at%209.32.09%20PM.jpeg"/></svg>