<?xml version="1.0" encoding="utf-8"?>
<!-- Generator: Adobe Illustrator 22.1.0, SVG Export Plug-In . SVG Version: 6.00 Build 0)  -->
<svg version="1.1" id="Layer_1" xmlns="http://www.w3.org/2000/svg" xmlns:xlink="http://www.w3.org/1999/xlink" x="0px" y="0px"
	 viewBox="0 0 1388 177" style="enable-background:new 0 0 1388 177;" xml:space="preserve">
<style type="text/css">
	.st0{opacity:0.3;fill:#FFFFFF;enable-background:new    ;}
	.st1{fill:#FFFFFF;}
</style>
<g id="Layer_1_1_">
</g>
<path class="st0" d="M1388.1-2H-17v85.7c4.1,0.1,8.2,0.1,12.4,0.1c1.7,0,3.4,0.1,5.1,0.1c20.2,0,39-5.9,54.5-16
	c7.8-5.1,17.7-5.9,26.3-2.3c33.6,14,55.4,34.3,102.7,34.3c69,0,83.3-14.2,109.7-21.7c9.8-2.8,20.3-9.6,27.3-2.2
	c64,68,182.2,49.9,185,49.9c6.7-0.1,22-5,39.5,3.9C632.6,174,636,175,714,175c44.9,0,105-14.3,137-46.7c9.1-9.2,27.1-15.6,40-14.3
	c6.8,0.7,13.8,1,20.9,1c32.1,0,44-3.6,66-15c9-4.7,22.4-7.4,31-2c42.7,26.8,118.1,43,185.5,43c44.3,0,97.3,5.2,192.6-29.2L1388.1-2
	L1388.1-2z"/>
<path class="st1" d="M1388.1,0l-0.1,85.1c-42.7,33.4-111.6,57.6-188,57.6c-75.2,0-141.1-23.6-183.9-56l-10.8-8.9l14,7.2
	c-28,19-62.6,29-100.8,29c-13.4,0-37.1-3-49.2-5.3l23.2-12.9l-15.9,14c-37,32-102,53.2-176.1,53.2c-61,0-125.1-18.1-163.2-41
	l36.9-1.3l-31,3c-6.2,0.2-12.4,0.3-18.7,0.3c-84.9,0-170.8-22.4-216.8-52.7l50-23.2l-25.2,14.2c-13.6,8.1-28.2,14.2-43.6,17.9
	c-23.6,5.6-49.8,8.7-77.4,8.7c-51.9,0-109.1-16-143.2-33.9c5.1-12.3,15.6-9.8,17.3-13c-1.3,2.3-4.4,6.3-7,9.6
	c-4,5-8.6,9.5-13.9,13.2C48.6,76.3,28.7,83,7,83c-2.4,0-4.7-0.1-7-0.3V0H1388.1z"/>
</svg>
