<svg width="53" height="53" viewBox="0 0 53 53" fill="none" xmlns="http://www.w3.org/2000/svg">
<path fill-rule="evenodd" clip-rule="evenodd" d="M24.9253 40.0614C29.421 40.0614 33.9883 37.2259 36.6539 33.4728C49.4425 33.4728 49.8291 52.8841 49.8291 52.8841L0.0246868 52.8841C0.0246868 52.8841 -0.979194 33.3867 13.4025 33.3867C16.065 37.1862 20.4297 40.0614 24.9253 40.0614V40.0614Z" fill="#FF5940"/>
<path fill-rule="evenodd" clip-rule="evenodd" d="M14.2135 16.791C14.2135 22.3759 19.0115 33.0554 24.935 33.0554C30.8492 33.0554 35.6504 22.3726 35.6504 16.791C35.6504 11.2095 30.8523 6.67798 24.935 6.67798C19.0115 6.68129 14.2135 11.2128 14.2135 16.791V16.791Z" fill="#FF5940"/>
<path fill-rule="evenodd" clip-rule="evenodd" d="M9.43032 11.9714C9.43032 10.9246 10.8021 10.0799 12.5043 10.0733L12.5043 7.91688C12.5043 7.59556 12.389 0.072876 24.897 0.072876C37.3987 0.072876 37.2834 7.59556 37.2834 7.91688V10.1495C37.3146 10.1495 37.3395 10.1396 37.3676 10.1396C39.0604 10.1396 40.4229 10.971 40.4229 12.0012L40.4229 21.1238C40.4229 22.1474 39.0573 22.9821 37.3676 22.9821C35.6778 22.9821 34.306 22.1474 34.306 21.1238L34.306 12.0012C34.306 11.8588 34.3902 11.7296 34.4401 11.5971L34.4401 9.10938C34.4401 8.88081 35.338 3.20319 24.897 3.20319C14.4529 3.20319 15.5378 8.88081 15.5378 9.10938L15.5378 11.7296C15.5565 11.8124 15.6157 11.8853 15.6157 11.9714L15.6157 21.3027C15.6157 22.3528 14.2346 23.2041 12.523 23.2041C12.4856 23.2041 12.4576 23.1908 12.4201 23.1908L12.4201 26.5994H15.4879L15.4879 29.8125H9.39914L9.43032 11.9714Z" fill="#FF5940"/>
</svg>
