<svg id="Capa_1" data-name="Capa 1" xmlns="http://www.w3.org/2000/svg" viewBox="0 0 512 512"><defs><style>.cls-1{fill:#616161;}.cls-2{fill:#424242;}.cls-3{fill:#f4511e;}.cls-4{fill:#b0bec5;}.cls-5{fill:#d8d7da;}.cls-6{fill:#fdd844;}.cls-7{fill:#d84315;}.cls-8{fill:#fdd8a8;}.cls-9{fill:#ffc477;}.cls-10{fill:#90a4ae;}.cls-11{fill:#fff;}</style></defs><title>Delivery</title><path class="cls-1" d="M343.84,278.59a43.13,43.13,0,0,1-43.17,43.16H236.42v91.36H204.3L202.65,393l-6.72-81.87a30.12,30.12,0,0,1,30-32.57Z" transform="translate(0 0)"/><path class="cls-2" d="M343.84,278.59a42.91,42.91,0,0,1-4.94,20.07H271.56a20.07,20.07,0,0,1-20.08-20.07h92.36Z" transform="translate(0 0)"/><path class="cls-3" d="M343.84,168.16V278.59H271.56V118h22.09a50.18,50.18,0,0,1,50.19,50.2Z" transform="translate(0 0)"/><path class="cls-4" d="M7.53,443.23a69.27,69.27,0,0,1,138.54,0Z" transform="translate(0 0)"/><path class="cls-1" d="M27.84,443.23a50.2,50.2,0,1,0,97.92,0Z" transform="translate(0 0)"/><path class="cls-5" d="M60.05,443.23a20.08,20.08,0,1,0,33.5,0Z" transform="translate(0 0)"/><path class="cls-1" d="M330,443.23a50.2,50.2,0,1,0,97.92,0Z" transform="translate(0 0)"/><path class="cls-5" d="M362.23,443.23a20.08,20.08,0,1,0,33.5,0Z" transform="translate(0 0)"/><path class="cls-3" d="M183.07,195.13,130.54,371.9l-6.22,20.94a69,69,0,0,0-42.58-18.69l5.91-19.61L130.6,212a30.12,30.12,0,0,1,37-21.14Z" transform="translate(0 0)"/><path class="cls-6" d="M88.85,202.29a32.13,32.13,0,0,1,0,64.25Z" transform="translate(0 0)"/><polygon class="cls-2" points="236.42 393.03 236.42 413.11 204.3 413.11 202.65 393.03 236.42 393.03"/><path class="cls-4" d="M294.65,413.11v30.12H181.21l-41.39-32.07L137,409a69.33,69.33,0,0,0-12.69-16.15l7.83-26.32,17.12,12.85,45,33.74Z" transform="translate(0 0)"/><path class="cls-3" d="M458.29,382v61.24H294.65V321.76h103.4A60.18,60.18,0,0,1,458.29,382Z" transform="translate(0 0)"/><path class="cls-7" d="M440.48,343c-.71,22.24-18,39-40.12,39H334.81a60,60,0,0,1-40.16-15.39V321.75h103.4a60,60,0,0,1,42.38,17.43C440.51,340.43,440.52,341.69,440.48,343Z" transform="translate(0 0)"/><path class="cls-4" d="M400.36,361.91H334.81a40.16,40.16,0,0,1-40.16-40.16h103.4c1.32,0,2.62.05,3.91.13C427.59,323.52,426.05,361.91,400.36,361.91Z" transform="translate(0 0)"/><rect class="cls-3" x="373.96" y="231.4" width="130.51" height="90.35"/><path class="cls-7" d="M299.15,132.77a60.74,60.74,0,0,0,15.65-10.14A49.83,49.83,0,0,0,293.65,118H271.56V269.54a50.28,50.28,0,0,0,40.16-49.18V160.12A36,36,0,0,0,299.15,132.77Z" transform="translate(0 0)"/><path class="cls-8" d="M303.36,105.78a40,40,0,0,1-23,11.77,40.65,40.65,0,0,1-5.78.41,40.16,40.16,0,0,1-39.84-35.14,39.92,39.92,0,0,1,2.62-20.08h41.24V76.15A30.12,30.12,0,0,0,303.36,105.78Z" transform="translate(0 0)"/><path class="cls-9" d="M303.36,105.78a40,40,0,0,1-23,11.77A50.27,50.27,0,0,1,259,82.82H234.73a39.92,39.92,0,0,1,2.62-20.08h41.24v13.4A30.12,30.12,0,0,0,303.36,105.78Z" transform="translate(0 0)"/><path class="cls-3" d="M338.82,106.26A70.26,70.26,0,0,0,278.06,7.61C243,5.91,220.49,30.12,213.33,62.74h65.26v13.4a30.11,30.11,0,0,0,30.12,30.12Z" transform="translate(0 0)"/><path class="cls-3" d="M204.3,250.48h57.22a30.12,30.12,0,0,0,30.12-30.12V160.12a16.06,16.06,0,0,0-16.06-16.06h0a16.07,16.07,0,0,0-16.07,16.06v58.23H204.3v32.13Z" transform="translate(0 0)"/><path class="cls-8" d="M204.3,218.35H174.18a16.06,16.06,0,0,0-16.06,16.06h0a16.06,16.06,0,0,0,16.06,16.07H204.3V218.35Z" transform="translate(0 0)"/><rect class="cls-7" x="373.96" y="231.4" width="130.51" height="20.08"/><path class="cls-3" d="M504.47,206.3a15.05,15.05,0,0,0-15.06-15.05H389A15.05,15.05,0,0,0,374,206.3v25.1H504.47Z" transform="translate(0 0)"/><path class="cls-7" d="M130.54,371.9l-6.22,20.94a69,69,0,0,0-42.58-18.69l5.91-19.61A88.77,88.77,0,0,1,130.54,371.9Z" transform="translate(0 0)"/><path class="cls-10" d="M149.26,379.37l-9.44,31.79L137,409a69.33,69.33,0,0,0-12.69-16.15l7.83-26.32Z" transform="translate(0 0)"/><path d="M489.41,183.72H389a22.61,22.61,0,0,0-22.59,22.58V314.23H336.69a50.64,50.64,0,0,0,14.12-28.11h.56v-118A57.82,57.82,0,0,0,313,113.79h30.67l2-4.47a77.09,77.09,0,0,0,6.61-34.76C350.68,34.74,318.22,2,278.42.09c-36-1.74-63.8,21.64-72.44,61l-2,9.14h23.52a47.21,47.21,0,0,0-.6,7.53A47.75,47.75,0,0,0,264,124.3v15.26a23.62,23.62,0,0,0-12,20.56v50.7H186.26l6.22-20.93-22.93-6.25A37.65,37.65,0,0,0,123.36,210l-1,3.3a39.66,39.66,0,0,0-33.52-18.5H81.32v79.31h7.53a39.37,39.37,0,0,0,16.24-3.5L76.2,366.44A76.89,76.89,0,0,0,0,443.23v7.53H19.19c-.07,1.17-.12,2.34-.12,3.51a57.73,57.73,0,1,0,115.45,0c0-1.17,0-2.34-.11-3.51H153.6v-7.53a77,77,0,0,0-1.07-12.69l26.1,20.22H321.37c-.07,1.17-.11,2.34-.11,3.51a57.73,57.73,0,1,0,115.45,0c0-1.17,0-2.34-.12-3.51h29.23V382a67.53,67.53,0,0,0-25.21-52.71H512v-123A22.61,22.61,0,0,0,489.41,183.72ZM96.38,211a24.6,24.6,0,0,1,0,46.83ZM389,198.77H489.41a7.54,7.54,0,0,1,7.53,7.53v17.57H466.82V211.32H451.76v12.55H431.69V211.32H416.63v12.55H381.49V206.3A7.54,7.54,0,0,1,389,198.77Zm12,130.61.65,0c8.52.66,11.36,7.21,11.19,12.67-.18,5.67-3.57,12.29-12.53,12.29H334.81a32.68,32.68,0,0,1-31.75-25.09h0l97,0A4.7,4.7,0,0,1,401.05,329.38Zm-113.93,76.2H244v-76.3h43.17Zm13.55-91.35H228.89v91.35H211.24l-7.81-95A22.58,22.58,0,0,1,226,286.12H335.51A35.71,35.71,0,0,1,300.67,314.23ZM174.18,258h87.34c.84,0,1.68,0,2.51-.1v13.15H226a37.66,37.66,0,0,0-37.53,40.72l7.66,93.29-55.23-41.43,31.42-105.72C172.9,258,173.54,258,174.18,258Zm162.13-89.85v102.9H279.09V253.64a37.67,37.67,0,0,0,20.08-33.28V160.13a23.62,23.62,0,0,0-20.08-23.33V125.49h14.56A42.71,42.71,0,0,1,336.31,168.16Zm-58.62-153a63.12,63.12,0,0,1,59.57,60.05,62,62,0,0,1-3.53,23.55h-25a22.56,22.56,0,0,1-3.42-.26l-.59-.1c-.66-.12-1.31-.27-1.95-.44l-.1,0a18.24,18.24,0,0,1-1.77-.57l-.28-.11c-.43-.16-.85-.34-1.27-.53l-.77-.37-.83-.44c-.53-.3-1.05-.61-1.55-.95l-.1-.06A23.43,23.43,0,0,1,292,91.33h0c-.47-.53-.93-1.08-1.35-1.65l0,0A25.23,25.23,0,0,1,288.92,87c-.13-.25-.27-.5-.39-.75s-.31-.64-.46-1-.28-.65-.41-1l-.24-.64c-.15-.43-.29-.88-.42-1.32,0-.15-.09-.3-.13-.45-.14-.52-.25-1-.35-1.58,0-.12,0-.25-.07-.38-.1-.56-.18-1.12-.23-1.69,0-.1,0-.19,0-.28-.05-.61-.08-1.23-.08-1.85V55.22H223.2C232,28.7,251.89,13.89,277.69,15.13ZM242,77.8a32.77,32.77,0,0,1,.87-7.53h28.24v5.87c0,.75,0,1.48.07,2.21,0,.24,0,.48.05.71,0,.5.09,1,.14,1.48,0,.27.07.55.11.82q.09.67.21,1.35l.15.83c.1.49.21,1,.33,1.45s.26,1,.4,1.52l.27.93c.14.43.28.84.43,1.26.07.2.14.4.22.6.17.47.35.93.54,1.39a2,2,0,0,1,.11.26A37.65,37.65,0,0,0,288,107.57,32.65,32.65,0,0,1,242,77.8ZM267,225.88V160.12a8.54,8.54,0,0,1,17.07,0v60.24A22.62,22.62,0,0,1,261.52,243H174.18a8.54,8.54,0,0,1,0-17.07ZM137.81,214.21l.05-.19a22.58,22.58,0,0,1,27.73-15.85l8.07,2.2-3.19,10.75a23.58,23.58,0,0,0-12.12,40.77L128,354h0l-1.29,4.34L120.29,380l-.34-.21c-.71-.49-1.43-.95-2.15-1.4l-.91-.59a76.52,76.52,0,0,0-25.39-9.89ZM119.47,454.27a42.67,42.67,0,1,1-85.34,0q0-1.75.15-3.51H49.43a27.35,27.35,0,0,0-.24,3.51,27.61,27.61,0,0,0,55.22,0,27.35,27.35,0,0,0-.24-3.51h15.15Q119.47,452.52,119.47,454.27Zm-30.12,0a12.55,12.55,0,0,1-25.1,0,12.17,12.17,0,0,1,.51-3.51H88.84A12.17,12.17,0,0,1,89.35,454.27Zm48.73-18.57H15.52A61.82,61.82,0,0,1,76.8,381.49c1,0,1.92,0,2.87.07l1.54.1a61.74,61.74,0,0,1,27.31,8.63l.12.07c.55.33,1.09.68,1.63,1,.26.16.52.32.77.49s.74.51,1.11.77.82.57,1.22.87l.73.55c.51.38,1,.77,1.51,1.18.16.12.31.25.46.38.57.46,1.12.94,1.67,1.42l.33.3c.6.54,1.19,1.09,1.78,1.66l0,0c.64.63,1.28,1.27,1.89,1.93h0a61.47,61.47,0,0,1,6.67,8.48l.24.36c.39.61.77,1.22,1.14,1.84l.3.5a61.29,61.29,0,0,1,7.94,23.54Zm149,0H183.78l-41-31.77-.26-.39c-.17-.29-.36-.57-.53-.85a77.14,77.14,0,0,0-5.91-8.23l-.05-.06c-.67-.82-1.38-1.62-2.09-2.42l-.44-.49c-.23-.26-.46-.53-.7-.78L136.27,379l55.48,41.61h95.37V435.7Zm134.53,18.57a42.67,42.67,0,1,1-85.34,0q0-1.75.15-3.51h15.15a27.35,27.35,0,0,0-.24,3.51,27.61,27.61,0,1,0,55.22,0,27.35,27.35,0,0,0-.24-3.51H421.5Q421.65,452.52,421.65,454.27Zm-30.12,0a12.55,12.55,0,1,1-25.1,0,12.17,12.17,0,0,1,.51-3.51H391A12.17,12.17,0,0,1,391.53,454.27Zm59.23-18.57H302.18V356.49a47.52,47.52,0,0,0,32.63,12.95h65.55c17.54,0,27.15-13.52,27.58-26.87a29.32,29.32,0,0,0-.17-4.08,52.53,52.53,0,0,1,23,43.5V435.7M381.49,314.23h0v-75.3h35.14v12.55h15.06V238.93h20.07v12.55h15.06V238.93h30.12v75.3Z" transform="translate(0 0)"/><rect x="482.38" y="360.41" width="29.11" height="15.06"/><rect x="482.38" y="398.05" width="29.11" height="15.06"/><rect x="482.38" y="435.7" width="29.11" height="15.06"/><path class="cls-11" d="M56.62,418.9,47,407.32a46.68,46.68,0,0,1,29.8-10.77v15.06A31.66,31.66,0,0,0,56.62,418.9Z" transform="translate(0 0)"/><path class="cls-11" d="M383,420.64H367.94V405.58H383Zm-30.12,0H317.24V383H332.3v22.59h20.58v15.06Z" transform="translate(0 0)"/><rect class="cls-11" x="420.64" y="381.99" width="15.06" height="23.09"/><rect class="cls-11" x="310.21" y="229.39" width="15.06" height="29.11"/><polygon class="cls-11" points="481.88 299.17 449.25 299.17 449.25 284.11 466.82 284.11 466.82 266.54 481.88 266.54 481.88 299.17"/><path class="cls-11" d="M307.18,76.57v-.16a32.18,32.18,0,0,0-4.86-15.68l12.79-8a47.3,47.3,0,0,1,7.11,22.94v.18l-7.7.26Z" transform="translate(0 0)"/><rect class="cls-11" x="254.49" y="30.11" width="34.13" height="15.06"/></svg>