<svg viewBox="0 -31 512 511" xmlns="http://www.w3.org/2000/svg"><path d="m478.625 107.316406c16.570312-10.136718 27.648438-28.390625 27.648438-49.179687 0-31.78125-25.882813-57.636719-57.695313-57.636719s-57.699219 25.855469-57.699219 57.636719c0 24.453125 15.335938 45.382812 36.894532 53.742187v40.761719c0 20.910156-17.03125 37.925781-37.96875 37.925781h-10.785157c9.386719-25.703125 3.789063-55.683594-16.820312-76.269531-13.71875-13.707031-31.960938-21.253906-51.363281-21.253906-19.40625 0-37.648438 7.546875-51.367188 21.253906l-3.46875 3.460937-3.46875-3.460937c-13.71875-13.707031-31.960938-21.257813-51.363281-21.257813-19.402344 0-37.648438 7.550782-51.367188 21.257813-13.71875 13.703125-21.277343 31.925781-21.277343 51.308594 0 8.652343 1.515624 17.070312 4.40625 24.960937h-10.734376c-20.933593 0-37.96875-17.015625-37.96875-37.925781v-40.761719c21.5625-8.359375 36.894532-29.289062 36.894532-53.742187 0-31.78125-25.882813-57.636719-57.695313-57.636719-31.816406 0-57.703125 25.855469-57.703125 57.636719 0 20.789062 11.082032 39.042969 27.652344 49.179687l-33.375 36.960938v160.265625h27.578125v145.640625h30.035156v-145.640625h26.703125v-95.519531c10.832032 7.285156 23.867188 11.542968 37.878906 11.542968h31.261719l102.542969 102.433594 102.542969-102.433594h31.261719c14.011718 0 27.046874-4.257812 37.878906-11.542968v95.519531h26.703125v145.640625h30.035156v-145.640625h27.578125v-160.265625zm-424.34375 167.226563h-24.25v-118.734375l24.164062-26.757813v23.589844c0 1.171875.03125 2.335937.089844 3.492187v118.410157zm9.140625-188.773438c-15.253906 0-27.664063-12.394531-27.664063-27.632812 0-15.242188 12.410157-27.636719 27.664063-27.636719s27.664063 12.394531 27.664063 27.636719c0 15.238281-12.410157 27.632812-27.664063 27.632812zm277.542969 109.933594-84.964844 84.871094-84.964844-84.871094c-8.046875-8.039063-12.476562-18.730469-12.476562-30.097656 0-11.371094 4.429687-22.058594 12.476562-30.097657 8.050782-8.039062 18.75-12.46875 30.128906-12.46875 11.382813 0 22.082032 4.429688 30.132813 12.46875l24.703125 24.675782 24.703125-24.675782c8.050781-8.039062 18.75-12.46875 30.128906-12.46875 11.382813 0 22.082031 4.429688 30.132813 12.46875 16.609375 16.597657 16.609375 43.597657 0 60.195313zm107.613281-109.933594c-15.253906 0-27.664063-12.394531-27.664063-27.632812 0-15.242188 12.410157-27.636719 27.664063-27.636719s27.664063 12.394531 27.664063 27.636719c0 15.238281-12.410157 27.632812-27.664063 27.632812zm33.390625 188.773438h-24.25v-118.410157c.058594-1.15625.085938-2.320312.085938-3.492187v-23.585937l24.164062 26.753906zm0 0"/><path d="m246.988281 189.617188-12.695312 20.097656c-4.128907 6.53125-4.683594 10.265625-4.683594 13.054687 0 9.574219 7.796875 17.363281 17.378906 17.363281 9.585938 0 17.382813-7.789062 17.382813-17.363281 0-2.789062-.554688-6.523437-4.683594-13.054687zm0 0"/><path d="m279.839844 167.1875-12.695313 20.09375c-2.304687 3.648438-3.378906 6.914062-3.378906 10.269531 0 8.855469 7.214844 16.0625 16.078125 16.0625 8.867188 0 16.078125-7.207031 16.078125-16.0625 0-3.359375-1.074219-6.625-3.382813-10.273437zm0 0"/></svg>