<svg id="Layer_1" data-name="Layer 1" xmlns="http://www.w3.org/2000/svg" viewBox="0 0 512 512"><defs><style>.cls-1{fill:#2cc2f0;}</style></defs><title>lists</title><path class="cls-1" d="M493.88,100.44a62,62,0,0,0-87.67,0L369,137.64V15.76A13.67,13.67,0,0,0,355.3,2H124a13.76,13.76,0,0,0-9.73,4L4.09,116.17A13.82,13.82,0,0,0,0,125.9V496.24A13.86,13.86,0,0,0,13.88,510H355.3A13.67,13.67,0,0,0,369,496.24V312.87L493.83,188.05a61.95,61.95,0,0,0,.05-87.61ZM110.14,49v63.13h-63ZM341.42,482.47H27.53V139.67H124a13.68,13.68,0,0,0,13.66-13.77V29.53H341.42V165.17L187.18,319.47c-.07.07-.1.15-.16.21a13.68,13.68,0,0,0-3.7,6.35L159,418.51a13.77,13.77,0,0,0,13.32,17.27,14,14,0,0,0,3.5-.45L268.29,411a13.7,13.7,0,0,0,6.35-3.71c.07-.07.09-.12.16-.19l66.63-66.69V482.47ZM203.86,356.22l34.25,34.24L191.63,402.7Zm61.25,21.66-48.67-48.67L391.67,154l48.67,48.68Zm209.3-209.3-14.6,14.61-48.67-48.68,14.6-14.6a34.41,34.41,0,1,1,48.67,48.67Z"/><path d="M117.13,408.13H77.21a13.77,13.77,0,1,0,0,27.53h39.92a13.77,13.77,0,1,0,0-27.53Z"/><path d="M124,353.06H77.21a13.77,13.77,0,1,0,0,27.53H124a13.77,13.77,0,1,0,0-27.53Z"/><path d="M137.78,298H77.21a13.77,13.77,0,1,0,0,27.53h60.57a13.77,13.77,0,1,0,0-27.53Z"/><path d="M177.71,242.92H77.21a13.77,13.77,0,1,0,0,27.54h100.5a13.77,13.77,0,0,0,0-27.54Z"/><path d="M234.15,187.85H77.21a13.77,13.77,0,1,0,0,27.54H234.15a13.77,13.77,0,0,0,0-27.54Z"/><path d="M297.48,132.78H179.08a13.77,13.77,0,0,0,0,27.54h118.4a13.77,13.77,0,0,0,0-27.54Z"/><path d="M297.48,77.71H179.08a13.77,13.77,0,0,0,0,27.54h118.4a13.77,13.77,0,0,0,0-27.54Z"/></svg>