<svg id="OBJECTS" xmlns="http://www.w3.org/2000/svg" viewBox="0 0 500 500"><defs><style>.cls-1{fill:#baf4ee;}.cls-2{fill:#7fd6cb;opacity:0.73;}.cls-3{fill:#ffb031;}.cls-4{fill:#ff9433;}.cls-5{fill:#f73;}.cls-6{fill:#00c8b7;}.cls-7{fill:#7a4c08;}.cls-8{fill:#fff;}.cls-9{fill:#e6e8e8;}.cls-10{fill:#82ebe3;}.cls-11{fill:#d9dbdb;}.cls-12{fill:#08b29d;}</style></defs><title>eMAIL</title><circle class="cls-1" cx="235.84" cy="247.8" r="154.54" transform="translate(-106.14 239.34) rotate(-45)"/><path class="cls-2" d="M362.06,285V336.9a155.28,155.28,0,0,1-19.18,22.31V285h0v-.18c-.09-.38-9.41-8.11-16.58-14v-3.24l8.67-2.24a16.51,16.51,0,0,1,10.66.82c1.5.65,3.06,1.27,4.63,1.77v6.79c7.17,5.87,11.71,9.71,11.8,10.09V285Z"/><polygon class="cls-3" points="15.89 49.52 61.24 155.93 94.39 133.25 113.59 161.16 117.06 114.08 157.18 89.63 15.89 49.52"/><polygon class="cls-4" points="101.73 128.22 61.24 155.93 94.39 133.25 113.59 161.16 117.06 114.08 53.14 76.01 101.73 128.22"/><polygon class="cls-5" points="116.21 125.62 53.14 76.01 117.06 114.08 116.21 125.62"/><path class="cls-6" d="M114.41,174.43c-.36-2.07-.81-4.14-1.35-6.14l3.11-.84c.56,2.1,1,4.27,1.41,6.44Z"/><path class="cls-6" d="M76.86,246.71a26.55,26.55,0,0,1-12.93-4.31l1.78-2.69a23.4,23.4,0,0,0,11.36,3.79Zm13.37-2.63-1.42-2.88a32.37,32.37,0,0,0,9.63-7.59l2.39,2.15A35.32,35.32,0,0,1,90.23,244.08ZM55,232.12a26.57,26.57,0,0,1-2.78-11.7c0-.33,0-.65,0-1l0-.7,3.21.24,0,.59c0,.29,0,.57,0,.85a23.34,23.34,0,0,0,2.44,10.27Zm124.55-.74,0-3.22c4.2,0,8.51-.19,12.83-.51l.23,3.21C188.18,231.19,183.79,231.36,179.52,231.38ZM166.46,231l-2.05-.16c-4-.33-7.55-.78-11-1.37l.54-3.17c3.33.58,6.82,1,10.68,1.33l2,.16Zm39.07-1.47-.43-3.19c4.14-.56,8.41-1.26,12.68-2.09l.61,3.16C214.06,228.21,209.73,228.92,205.53,229.49Zm-64.88-3.25a62.83,62.83,0,0,1-10.54-4.67l-1.51-.88,1.67-2.76c.47.29.94.56,1.42.83a58.75,58.75,0,0,0,10,4.43ZM108.53,225l-2.8-1.61A71.13,71.13,0,0,0,111,211.88l3,1.09A75.42,75.42,0,0,1,108.53,225Zm122.59-.36-.76-3.13c4-1,8.22-2.08,12.45-3.29l.89,3.09C239.42,222.49,235.19,223.61,231.12,224.6Zm25-7.13-1-3.06q6.14-2,12.21-4.15l1.08,3Q262.31,215.47,256.13,217.47Zm-138.27-4.24a90.85,90.85,0,0,0-9.59-6.31l-1.08-.57,1.48-2.86,1.15.61a93.86,93.86,0,0,1,9.93,6.53ZM60,208.39l-2.25-2.3c2.84-2.78,6.71-4.86,11.85-6.36l1.08,3C65.92,204.15,62.39,206,60,208.39Zm35.47-6.29a51.78,51.78,0,0,0-11.16-1.23l-1.31,0-.07-3.22A54.64,54.64,0,0,1,96.14,199Zm22-1.89-3.17-.57a75.22,75.22,0,0,0,1.15-12.6h3.22A78.64,78.64,0,0,1,117.47,200.21Z"/><path class="cls-6" d="M280.75,208.75l-1.14-3c2-.76,4-1.54,6-2.32l1.17,3C284.78,207.21,282.77,208,280.75,208.75Z"/><path class="cls-6" d="M382.1,287.21a3.22,3.22,0,0,1-.31-6.42,76.48,76.48,0,0,0,50.4-26.15,3.21,3.21,0,1,1,4.85,4.22,82.83,82.83,0,0,1-54.63,28.33A1.62,1.62,0,0,1,382.1,287.21Z"/><path class="cls-7" d="M342.86,285,230.71,351.09,118.56,285a.52.52,0,0,1,0-.18c.09-.42,6.28-5.59,15.72-13.26.09-.07.16-.15.26-.22,31-25.14,96.15-76.64,96.15-76.64s65.19,51.5,96.16,76.64c9.59,7.78,15.88,13,16,13.48A1,1,0,0,1,342.86,285Z"/><path class="cls-8" d="M276.84,139.88h-121A18.79,18.79,0,0,0,137,158.67v183a18.8,18.8,0,0,0,18.79,18.8H307.45a18.8,18.8,0,0,0,18.8-18.8V189.29Z"/><path class="cls-9" d="M276.84,170.5a18.79,18.79,0,0,0,18.79,18.79h30.62l-49.41-49.41Z"/><rect class="cls-10" x="165.66" y="170.81" width="55.14" height="55.14" rx="2.7"/><path class="cls-11" d="M271.29,241.27H171.12a5.39,5.39,0,0,0-5.39,5.39h0a5.39,5.39,0,0,0,5.39,5.39H271.29a5.39,5.39,0,0,0,5.39-5.39h0A5.39,5.39,0,0,0,271.29,241.27Z"/><path class="cls-11" d="M271.29,268.14H171.12a5.39,5.39,0,0,0-5.39,5.39h0a5.39,5.39,0,0,0,5.39,5.39H271.29a5.39,5.39,0,0,0,5.39-5.39h0A5.39,5.39,0,0,0,271.29,268.14Z"/><path class="cls-11" d="M225.8,294.2H171.12a5.39,5.39,0,0,0-5.39,5.39h0a5.39,5.39,0,0,0,5.39,5.4H225.8a5.39,5.39,0,0,0,5.39-5.4h0A5.39,5.39,0,0,0,225.8,294.2Z"/><path class="cls-3" d="M342.88,284.94v107.6a13.71,13.71,0,0,1-13.67,13.67h-197a13.67,13.67,0,0,1-13.63-13.67V284.94l112.15,66.13Z"/><path class="cls-4" d="M339.09,401.92,266.9,329.74l-36.18,21.33-36.19-21.34-72.19,72.19a13.55,13.55,0,0,0,9.86,4.29h197A13.61,13.61,0,0,0,339.09,401.92Z"/><path class="cls-6" d="M365.53,137.24c-32.29,3.17-58.08,29.78-60.39,62.14A66.89,66.89,0,0,0,317,242.54a16.33,16.33,0,0,1,1.56,15.58l-5.33,12.82L335,265.29a16.45,16.45,0,0,1,10.65.83,67.38,67.38,0,1,0,19.92-128.88Z"/><path class="cls-8" d="M374,238.33l3.7-3.7s-2.94-6.93,9.39-18.62c7.34-7,9-13.7,8.39-19.2a19.25,19.25,0,0,0-16.88-16.88c-5.51-.6-12.25,1-19.2,8.38-11.69,12.34-18.62,9.39-18.62,9.39l-3.71,3.71Z"/><path class="cls-8" d="M345.44,215.71A10.21,10.21,0,0,0,359.7,230Z"/><path class="cls-8" d="M398.07,184.42l-2.3,2.31a22.43,22.43,0,0,0-7.11-7.07l2.32-2.32a5,5,0,1,1,7.09,7.08Z"/><path class="cls-12" d="M370.53,137A58.2,58.2,0,1,1,311,232.09,67.45,67.45,0,0,0,317,242.54a16.33,16.33,0,0,1,1.56,15.58l-5.33,12.82L335,265.29a16.45,16.45,0,0,1,10.65.83A67.37,67.37,0,1,0,370.53,137Z"/><path class="cls-3" d="M19.73,81.07l14.71,33.76a3.38,3.38,0,0,1-1.76,4.46l-.53.23a3.39,3.39,0,0,1-4.47-1.8l-14.18-34a3.39,3.39,0,0,1,1.95-4.5h0A3.38,3.38,0,0,1,19.73,81.07Z"/><path class="cls-1" d="M77.36,318.63a10.82,10.82,0,1,0,10.82,10.81A10.81,10.81,0,0,0,77.36,318.63Zm0,15.19a4.38,4.38,0,1,1,4.38-4.38A4.38,4.38,0,0,1,77.36,333.82Z"/><path class="cls-1" d="M367.17,362.39A10.82,10.82,0,1,0,378,373.2,10.81,10.81,0,0,0,367.17,362.39Zm0,15.19a4.38,4.38,0,1,1,4.38-4.38A4.38,4.38,0,0,1,367.17,377.58Z"/><path class="cls-1" d="M455.65,194.42a8.28,8.28,0,1,0,8.28,8.28A8.27,8.27,0,0,0,455.65,194.42Zm0,11.63A3.36,3.36,0,1,1,459,202.7,3.35,3.35,0,0,1,455.65,206.05Z"/><path class="cls-1" d="M309.84,62a8.76,8.76,0,1,0,8.76,8.76A8.75,8.75,0,0,0,309.84,62Zm0,12.3a3.55,3.55,0,1,1,3.54-3.54A3.54,3.54,0,0,1,309.84,74.25Z"/><path class="cls-1" d="M29.79,266a9.21,9.21,0,1,0,9.2,9.2A9.2,9.2,0,0,0,29.79,266Z"/><path class="cls-1" d="M399.1,296.42a6.7,6.7,0,1,0,6.69,6.69A6.7,6.7,0,0,0,399.1,296.42Z"/><path class="cls-1" d="M177.38,64.7a9.79,9.79,0,1,0,9.79,9.79A9.78,9.78,0,0,0,177.38,64.7Z"/><path class="cls-1" d="M229.77,419.15a7.14,7.14,0,1,0,7.13,7.14A7.14,7.14,0,0,0,229.77,419.15Z"/><path class="cls-1" d="M367.79,102.45a8.37,8.37,0,1,0,8.37,8.37A8.37,8.37,0,0,0,367.79,102.45Z"/><circle class="cls-1" cx="71.35" cy="172.28" r="4.76"/><path class="cls-1" d="M458.54,152.68a8.13,8.13,0,1,0,8.13,8.13A8.13,8.13,0,0,0,458.54,152.68Z"/><circle class="cls-1" cx="25.22" cy="200.87" r="5.19"/><path class="cls-1" d="M243.22,47.32l3.26-3.26A2.91,2.91,0,1,0,242.37,40l-3.26,3.26L235.86,40a2.91,2.91,0,0,0-4.11,4.11L235,47.32l-3.26,3.25a2.91,2.91,0,0,0,4.11,4.11l3.25-3.26,3.26,3.26a2.91,2.91,0,1,0,4.11-4.11Z"/><path class="cls-1" d="M21.51,145.74l3.26-3.26a2.9,2.9,0,0,0-4.11-4.1l-3.25,3.26-3.26-3.26a2.9,2.9,0,0,0-4.1,4.1l3.25,3.26L10.05,149a2.9,2.9,0,1,0,4.1,4.1l3.26-3.25,3.25,3.25a2.9,2.9,0,1,0,4.11-4.1Z"/><path class="cls-1" d="M405.65,344.62l2.76-2.76a2.46,2.46,0,0,0-3.48-3.47l-2.76,2.75-2.75-2.75a2.46,2.46,0,1,0-3.48,3.47l2.76,2.76-2.76,2.76a2.46,2.46,0,0,0,3.48,3.48l2.75-2.76,2.76,2.76a2.46,2.46,0,0,0,3.48-3.48Z"/></svg>