<svg id="Capa_1" data-name="Capa 1" xmlns="http://www.w3.org/2000/svg" viewBox="0 0 515 515"><defs><style>.cls-1{stroke:#2cc2f0;}.cls-1,.cls-2{stroke-miterlimit:10;stroke-width:3px;}.cls-2{fill:#f5c85c;stroke:#000;}</style></defs><title>error</title><path class="cls-1" d="M256,0C114.5,0,0,114.5,0,256S114.5,512,256,512,512,397.5,512,256,397.5,0,256,0Zm0,472A216,216,0,1,1,472,256,215.86,215.86,0,0,1,256,472Z" transform="translate(1.5 1.5)"/><path class="cls-2" d="M343.6,315.3,284.3,256l59.3-59.3a20,20,0,1,0-28.3-28.3L256,227.7l-59.3-59.3a20,20,0,0,0-28.3,28.3L227.7,256l-59.3,59.3a20,20,0,1,0,28.3,28.3L256,284.3l59.3,59.3a20,20,0,1,0,28.3-28.3Z" transform="translate(1.5 1.5)"/></svg>