<svg id="Capa_1" data-name="Capa 1" xmlns="http://www.w3.org/2000/svg" viewBox="0 0 512 512"><defs><style>.cls-1{stroke:#fff;stroke-miterlimit:10;stroke-width:3px;}</style></defs><title>figure</title><path class="cls-1" d="M455.41,60.66l-195-60a15.06,15.06,0,0,0-8.82,0l-195,60A15,15,0,0,0,46,75V227c0,50.33,10.82,96.66,32.16,137.7C95.24,397.55,119,427,148.81,452.2c50.51,42.74,100.67,58.49,102.78,59.14a15.06,15.06,0,0,0,8.82,0c2.11-.65,52.27-16.4,102.78-59.14,29.8-25.22,53.57-54.65,70.65-87.5C455.18,323.66,466,277.33,466,227V75a15,15,0,0,0-10.59-14.34ZM436,227c0,82.07-30.73,149.89-91.34,201.58C307,460.7,268.72,476.45,256,481.13c-12.61-4.61-50.2-20-87.79-51.83C107,377.54,76,309.47,76,227V86.08L256,30.69,436,86.08Z"/><path class="cls-1" d="M106,242c0,82.28,66.88,150,150,150s150-67.83,150-150c0-82.71-67.29-150-150-150S106,159.29,106,242Zm75,93.6V324.24c0-5.62,9.77-11.76,25.49-16C223.36,303.63,243.7,302,256,302s32.64,1.63,49.51,6.21c15.72,4.27,25.49,10.41,25.49,16V335.6a119.73,119.73,0,0,1-150,0ZM376,242a119.26,119.26,0,0,1-19.28,65.16c-5.7-10.53-18.14-21.06-43.35-27.91C288,272.35,261.12,272,256,272s-31.95.35-57.37,7.25c-25.21,6.85-37.65,17.38-43.35,27.91A120,120,0,1,1,376,242Z"/><path class="cls-1" d="M316,212a60,60,0,1,0-60,60A60.07,60.07,0,0,0,316,212Zm-60,30a30,30,0,1,1,30-30A30,30,0,0,1,256,242Z"/></svg>