<?xml version="1.0" encoding="utf-8"?>
<!-- Generator: Adobe Illustrator 24.0.1, SVG Export Plug-In . SVG Version: 6.00 Build 0)  -->
<svg version="1.1" id="Capa_1" xmlns="http://www.w3.org/2000/svg" xmlns:xlink="http://www.w3.org/1999/xlink" x="0px" y="0px"
	 viewBox="0 0 512 512" style="enable-background:new 0 0 512 512;" xml:space="preserve">
<style type="text/css">
	.st0{fill:#010002;stroke:#FFFFFF;stroke-width:4;stroke-miterlimit:10;}
</style>
<g>
	<path class="st0" d="M79.3,498.2H432c13,0,23.6-10.6,23.6-23.6V36.7c0-13-10.6-23.6-23.6-23.6H79.3c-13,0-23.6,10.6-23.6,23.6
		v437.8C55.7,487.6,66.3,498.2,79.3,498.2z M84.1,41.4h343.2v428.4H84.1V41.4z"/>
	<path class="st0" d="M367.7,103.8h-50.9c0.1-0.4,0.2-0.8,0.2-1.2V90.8c0-5.2-4.2-9.4-9.4-9.4h-28.9v-5.9c0-5.2-4.2-9.4-9.4-9.4
		h-27.2c-5.2,0-9.4,4.2-9.4,9.4v5.9h-28.9c-5.2,0-9.4,4.2-9.4,9.4v11.8c0,0.4,0.2,0.8,0.2,1.2h-50.9c-7.4,0-13.4,6-13.4,13.4v304.2
		c0,7.4,6,13.4,13.4,13.4h149.9c5.3,0,12.1-2.6,16.2-6.1l64.1-56.2c4.3-3.7,7.3-10.5,7.3-16.2V117.2
		C381.1,109.9,375.1,103.8,367.7,103.8z M306.8,404.5v-34.6h39.4L306.8,404.5z M361,349.8h-60.9c-7.4,0-13.4,6-13.4,13.4v51.5H150.3
		h0l0-290.7H361V349.8z"/>
	<path class="st0" d="M202,316.4c0.4,0,0.7,0,1.1,0c9.4,0,18-4,25.5-12c17.3-18.4,60.2-22.9,84.2-14.3c4.8,1.7,12.9,5.5,13.3,11.6
		c0.2,2.6,2.4,4.5,5,4.4c2.6-0.2,4.6-2.4,4.4-5c-0.6-8.5-7.5-15.5-19.5-19.9c-27.1-9.7-74.2-4.5-94.3,16.7c-5.9,6.3-12.3,9.2-19.4,9
		c-16.8-0.5-32.1-18.7-32.2-18.8c-1.7-2-4.6-2.3-6.6-0.6c-2,1.7-2.3,4.6-0.6,6.6C163.6,295,180.9,315.7,202,316.4z"/>
	<path class="st0" d="M202,267.3c0.4,0,0.7,0,1.1,0c9.4,0,18-4,25.5-12c17.3-18.4,60.2-22.9,84.2-14.3c4.8,1.7,12.9,5.5,13.3,11.6
		c0.2,2.6,2.4,4.6,5,4.4c2.6-0.2,4.6-2.4,4.4-5c-0.6-8.5-7.5-15.6-19.5-19.9c-27.2-9.7-74.2-4.5-94.3,16.7c-5.9,6.3-12.3,9.2-19.4,9
		c-16.8-0.5-32.1-18.7-32.2-18.8c-1.7-2-4.6-2.3-6.6-0.6c-2,1.7-2.3,4.6-0.6,6.6C163.6,246,180.9,266.6,202,267.3z"/>
	<path class="st0" d="M202,218.3c0.4,0,0.7,0,1.1,0c9.4,0,18-4,25.5-12c17.3-18.4,60.2-22.9,84.2-14.3c4.8,1.7,12.9,5.5,13.3,11.6
		c0.2,2.6,2.4,4.5,5,4.4c2.6-0.2,4.6-2.4,4.4-5c-0.6-8.5-7.5-15.6-19.5-19.9c-27.2-9.7-74.2-4.5-94.3,16.7c-5.9,6.3-12.3,9.1-19.4,9
		c-16.8-0.5-32.1-18.7-32.2-18.8c-1.7-2-4.6-2.3-6.6-0.6c-2,1.7-2.3,4.6-0.6,6.6C163.6,197,180.9,217.7,202,218.3z"/>
</g>
</svg>
