<svg xmlns="http://www.w3.org/2000/svg" width="414.969" height="183.031" viewBox="0 0 414.969 183.031">
  <defs>
    <style>
      .cls-1 {
        fill: #c6c6c6;
        fill-rule: evenodd;
        opacity: 0.5;
      }
    </style>
  </defs>
  <path id="gray.svg" class="cls-1" d="M1342.58,969.063c-8.79,5.521-16.22,6.653-24.84,6.4-1.22,9.146-6.69,15.533-13.16,19.6-18.39,11.547-30.81,3.91-60.61,4.546-26.87.571-29.27,15.671-55.99,19.031-22.85,2.87-41.16-12.44-55.02-22.732-22.27,2.218-26.02,15.592-50.98,18.732-24.88,3.13-44.38-15.312-58.61-25.345-0.78.124-1.57,0.239-2.39,0.342-26.721,3.36-47.239-18.157-61.686-27.42-16.586-10.635-25.822-32.839-10.379-50.038,18.735-20.863,28.852-23.33,28.852-23.33A123.4,123.4,0,0,1,995,882.564a30.379,30.379,0,0,1,6.921-12.385c18.73-20.863,28.85-23.33,28.85-23.33,50.03-22.549,90.81-2.834,117.02-3.741a79.241,79.241,0,0,1,9.86.237c40.06-9.585,72.86,4.534,95.14,3.763,33.25-1.151,39.83,15.216,50.67,36.979q1.02,2.05,1.83,4c28.51,0.789,34.96,16.5,45.17,37C1361.95,948.165,1353.73,962.058,1342.58,969.063Z" transform="translate(-941.031 -835.969)"/>
</svg>
