<svg id="green.svg" xmlns="http://www.w3.org/2000/svg" width="334.251" height="184.029" viewBox="0 0 334.251 184.029">
  <defs>
    <style>
      .cls-1, .cls-2 {
        fill: #80f3d7;
        fill-rule: evenodd;
      }

      .cls-2 {
        mix-blend-mode: multiply;
      }
    </style>
  </defs>
  <path class="cls-1" d="M1061,986s-16,3-47,34c-25.554,25.55-13,61,12,79,21.78,15.68,52,51,94,48s47.01-26.37,89-25c46.58,1.51,65.33,14.48,95-2,18-10,32-31,16-68-15.09-34.89-24-61-76-62C1203.01,989.211,1141,955,1061,986Z" transform="translate(-999.969 -973.031)"/>
  <path id="Shape_762_copy" data-name="Shape 762 copy" class="cls-2" d="M1063.41,999.043s-15.81,3.857-45.1,36.447c-24.141,26.87-9.7,61.56,16.23,78.17,22.58,14.47,54.65,48.09,96.43,42.84s45.52-28.83,87.52-29.73c46.59-.99,66.01,10.94,94.74-7.1,17.44-10.95,30.29-32.65,12.33-68.7-16.94-34-27.24-59.57-79.21-57.772C1205.37,994.615,1141.62,963.816,1063.41,999.043Z" transform="translate(-999.969 -973.031)"/>
</svg>
