<svg xmlns="http://www.w3.org/2000/svg" width="414.969" height="183" viewBox="0 0 414.969 183">
  <defs>
    <style>
      .cls-1 {
        fill: #c6c6c6;
        fill-rule: evenodd;
        opacity: 0.5;
      }
    </style>
  </defs>
  <path id="grey.svg" class="cls-1" d="M1093.77,871.85s-10.12,2.466-28.85,23.33c-15.45,17.2-6.21,39.4,10.37,50.037,14.45,9.263,34.97,30.78,61.69,27.42s29.12-18.455,55.99-19.028c29.8-.636,42.22,7,60.61-4.546,11.15-7,19.37-20.9,7.88-43.976-10.84-21.763-17.42-38.13-50.67-36.979C1184.58,869.015,1143.8,849.3,1093.77,871.85Zm42-21s-10.12,2.467-28.85,23.33c-15.45,17.2-6.21,39.4,10.37,50.038,14.45,9.264,34.97,30.78,61.69,27.42s29.12-18.455,55.99-19.028c29.8-.636,42.22,7,60.61-4.545,11.15-7.006,19.37-20.9,7.88-43.977-10.84-21.763-17.42-38.13-50.67-36.979C1226.58,848.015,1185.8,828.3,1135.77,850.849Zm47,41s-10.12,2.467-28.85,23.33c-15.45,17.2-6.21,39.4,10.37,50.038,14.45,9.264,34.97,30.781,61.69,27.419s29.12-18.454,55.99-19.027c29.8-.636,42.22,7,60.61-4.546,11.15-7,19.37-20.9,7.88-43.976-10.84-21.763-17.42-38.13-50.67-36.979C1273.58,889.015,1232.8,869.3,1182.77,891.849Zm-205-3s-10.117,2.467-28.852,23.33c-15.443,17.2-6.207,39.4,10.379,50.038,14.447,9.263,34.965,30.78,61.686,27.42s29.12-18.455,55.99-19.028c29.8-.636,42.22,7,60.61-4.545,11.15-7.006,19.37-20.9,7.88-43.977-10.84-21.762-17.42-38.13-50.67-36.979C1068.58,886.015,1027.8,866.3,977.767,888.849Zm53-42s-10.12,2.467-28.85,23.33c-15.448,17.2-6.212,39.4,10.37,50.038,14.45,9.263,34.97,30.78,61.69,27.419s29.12-18.454,55.99-19.027c29.8-.636,42.22,7,60.61-4.545,11.15-7.006,19.37-20.9,7.88-43.977-10.84-21.762-17.42-38.13-50.67-36.979C1121.58,844.015,1080.8,824.3,1030.77,846.849Zm8,67s-10.12,2.466-28.85,23.33c-15.448,17.2-6.21,39.4,10.37,50.037,14.45,9.263,34.97,30.783,61.69,27.423s29.12-18.458,55.99-19.031c29.8-.636,42.22,7,60.61-4.546,11.15-7,19.37-20.9,7.88-43.976-10.84-21.763-17.42-38.13-50.67-36.979C1129.58,911.015,1088.8,891.3,1038.77,913.85Zm106,4s-10.12,2.467-28.85,23.331c-15.45,17.2-6.21,39.4,10.37,50.037,14.45,9.263,34.97,30.783,61.69,27.423s29.12-18.46,55.99-19.031c29.8-.636,42.22,7,60.61-4.546,11.15-7,19.37-20.9,7.88-43.976-10.84-21.763-17.42-38.13-50.67-36.979C1235.58,915.015,1194.8,895.3,1144.77,917.849Z" transform="translate(-941.031 -836)"/>
</svg>
