<svg width="623" height="401" viewBox="0 0 623 401" fill="none" xmlns="http://www.w3.org/2000/svg">
<rect x="3.4569" y="3.4569" width="615.328" height="394.086" fill="#1E4079"/>
<path d="M273.539 252.415C273.539 249.662 274.633 247.021 276.58 245.073C278.528 243.126 281.169 242.032 283.922 242.032H346.221C348.974 242.032 351.615 243.126 353.562 245.073C355.51 247.021 356.604 249.662 356.604 252.415C356.604 255.169 355.51 257.81 353.562 259.757C351.615 261.704 348.974 262.798 346.221 262.798H283.922C281.169 262.798 278.528 261.704 276.58 259.757C274.633 257.81 273.539 255.169 273.539 252.415ZM232.007 190.117C232.007 187.363 233.101 184.722 235.048 182.775C236.995 180.828 239.636 179.734 242.39 179.734H387.753C390.506 179.734 393.147 180.828 395.095 182.775C397.042 184.722 398.136 187.363 398.136 190.117C398.136 192.871 397.042 195.512 395.095 197.459C393.147 199.406 390.506 200.5 387.753 200.5H242.39C239.636 200.5 236.995 199.406 235.048 197.459C233.101 195.512 232.007 192.871 232.007 190.117ZM190.475 127.819C190.475 125.065 191.569 122.424 193.516 120.477C195.463 118.53 198.104 117.436 200.858 117.436H429.285C432.039 117.436 434.68 118.53 436.627 120.477C438.574 122.424 439.668 125.065 439.668 127.819C439.668 130.573 438.574 133.214 436.627 135.161C434.68 137.108 432.039 138.202 429.285 138.202H200.858C198.104 138.202 195.463 137.108 193.516 135.161C191.569 133.214 190.475 130.573 190.475 127.819Z" fill="white"/>
<rect x="3.4569" y="3.4569" width="615.328" height="394.086" stroke="#E6E6E6" stroke-width="6.91379"/>
</svg>
