<?xml version="1.0" encoding="utf-8"?>
<!-- Generator: Adobe Illustrator 22.0.1, SVG Export Plug-In . SVG Version: 6.00 Build 0)  -->
<svg version="1.1" id="Layer_2" xmlns="http://www.w3.org/2000/svg" xmlns:xlink="http://www.w3.org/1999/xlink" x="0px" y="0px"
	 viewBox="0 0 64 64" style="enable-background:new 0 0 64 64;" xml:space="preserve">
<style type="text/css">
	.st0{fill:#F4E9FF;}
	.st1{fill:#9E5DE2;}
	.st2{opacity:0.8;fill:#FFFFFF;}
	.st3{fill:none;stroke:#370072;stroke-linecap:round;stroke-linejoin:round;stroke-miterlimit:10;}
	.st4{fill:none;stroke:#370072;stroke-linecap:square;stroke-linejoin:round;stroke-miterlimit:10;}
</style>
<circle class="st0" cx="32" cy="32" r="22"/>
<g>
	<path class="st1" d="M36,8.6L15.4,7.5c-4.3,2.9-4.5,10.3-0.6,13.6L12,32.5l7,4l2.9-15.4L36,20.3V8.6z"/>
	<path class="st2" d="M14.6,33.4L17.4,22c-3.9-3.3-2.3-9.6,2-12.5L36,10.4V8.6L15.4,7.5c-4.3,2.9-4.5,10.3-0.6,13.6L12,32.5l7,4
		l0-0.3L14.6,33.4z"/>
	<path class="st3" d="M36,8.6L15.4,7.5c-4.3,2.9-4.5,10.3-0.6,13.6L12,32.5l7,4l2.9-15.4L36,20.3V8.6z"/>
	<rect x="36" y="10.5" class="st1" width="4.9" height="8"/>
	<rect x="36" y="15" class="st2" width="4.9" height="3.4"/>
	<circle class="st3" cx="18.5" cy="14" r="2.5"/>
	<g>
		<path class="st3" d="M45,9.5c1.8,0,1.8,2,3.7,2c1.8,0,1.8-2,3.7-2s1.8,2,3.7,2"/>
	</g>
	<rect x="36" y="10.5" class="st3" width="4.9" height="8"/>
	<g>
		<path class="st3" d="M45,13.5c1.8,0,1.8,2,3.7,2c1.8,0,1.8-2,3.7-2s1.8,2,3.7,2"/>
	</g>
	<g>
		<path class="st3" d="M45,17.5c1.8,0,1.8,2,3.7,2c1.8,0,1.8-2,3.7-2s1.8,2,3.7,2"/>
	</g>
	<line class="st3" x1="21.3" y1="25.5" x2="23.5" y2="25.9"/>
</g>
<g>
	<path class="st1" d="M35.2,52.7c0.8-1.2,17.3-18.5,17.3-18.5s2.6-1.9,4.9,0.2l-21.6,23C35.8,57.4,33.7,55.3,35.2,52.7z"/>
	<path class="st2" d="M44.4,42.8c-4.3,4.5-8.7,9.3-9.1,9.9c-1.6,2.6,0.6,4.7,0.6,4.7l11.3-12L44.4,42.8z"/>
	<path class="st3" d="M38.5,59.9l-2.8-2.6c-1.4-1.3-1.5-3.5-0.1-4.9l17.1-18.1c1.3-1.4,3.5-1.5,4.9-0.1l2.8,2.6"/>
	<g>
		<line class="st3" x1="37.5" y1="56.1" x2="40.1" y2="58.5"/>
		<line class="st3" x1="38.9" y1="54.6" x2="41.5" y2="57"/>
		<line class="st3" x1="40.4" y1="53" x2="43" y2="55.5"/>
		<line class="st3" x1="41.8" y1="51.5" x2="44.4" y2="54"/>
		<line class="st3" x1="43.2" y1="50" x2="45.8" y2="52.4"/>
		<line class="st3" x1="44.7" y1="48.5" x2="47.3" y2="50.9"/>
		<line class="st3" x1="46.1" y1="46.9" x2="48.7" y2="49.4"/>
		<line class="st3" x1="47.5" y1="45.4" x2="50.1" y2="47.9"/>
		<line class="st3" x1="49" y1="43.9" x2="51.6" y2="46.3"/>
		<line class="st3" x1="50.4" y1="42.4" x2="53" y2="44.8"/>
		<line class="st3" x1="51.8" y1="40.8" x2="54.4" y2="43.3"/>
		<line class="st3" x1="53.3" y1="39.3" x2="55.9" y2="41.8"/>
		<line class="st3" x1="54.7" y1="37.8" x2="57.3" y2="40.3"/>
		<line class="st3" x1="56.1" y1="36.3" x2="58.7" y2="38.7"/>
	</g>
	<line class="st3" x1="57.9" y1="34.4" x2="36.1" y2="57.6"/>
</g>
<g>
	<circle class="st3" cx="39.1" cy="34.2" r="3"/>
	<polygon class="st1" points="36.8,36.3 31.3,37.5 30.2,32 28,38.5 17,52.8 26.3,45.3 23.6,57.1 31.8,40.8 	"/>
	<circle class="st3" cx="30.9" cy="28.9" r="3"/>
	<polygon class="st4" points="39.1,37.2 31.3,37.5 28.6,30.8 28,38.5 17,52.8 27,44.1 23.6,57.1 31.8,40.8 	"/>
	<line class="st3" x1="42.1" y1="32.7" x2="45" y2="33.8"/>
	<circle class="st2" cx="30" cy="39.6" r="1.3"/>
</g>
</svg>
