<?xml version="1.0" encoding="utf-8"?>
<!-- Generator: Adobe Illustrator 22.0.1, SVG Export Plug-In . SVG Version: 6.00 Build 0)  -->
<svg version="1.1" id="Layer_4" xmlns="http://www.w3.org/2000/svg" xmlns:xlink="http://www.w3.org/1999/xlink" x="0px" y="0px"
	 viewBox="0 0 64 64" style="enable-background:new 0 0 64 64;" xml:space="preserve">
<style type="text/css">
	.st0{fill:#E9FFFB;}
	.st1{fill:#40E2C7;}
	.st2{opacity:0.8;fill:#FFFFFF;}
	.st3{fill:none;stroke:#006B5B;stroke-miterlimit:10;}
	.st4{fill:none;stroke:#006B5B;stroke-linecap:round;stroke-miterlimit:10;}
</style>
<g>
	<circle class="st0" cx="32" cy="34.3" r="22"/>
	<path class="st1" d="M23.9,42.6c0,0,0.3-6.8,0.6-8.6c0.2-1.8,1.1-2.2,2.2-2.2c1.5,0.1,1.6,2.2,1.6,2.2s0.7,9.4-0.9,13.5
		s-4.5,4.5-4.5,4.5l-11.8-2c0,0,7.7-4,8.7-6.9s2.9-23.6,5-24.3c0.7-0.2,2.4-0.5,2.7,2.2c0.4,3.6-0.7,10.8-0.7,10.8"/>
	<path class="st2" d="M13.6,50.1c0,0,7.7-4,8.7-6.9c1-2.9,2.9-23.2,4.9-24.2c-0.6-0.3-1.2-0.2-1.6,0c-2.1,0.7-4,21.3-5,24.3
		c-1,3-8.7,6.9-8.7,6.9l11.8,2c0,0,0.2,0,0.6-0.2L13.6,50.1z"/>
	<path class="st3" d="M23.9,42.6c0,0,0.3-6.8,0.6-8.6c0.2-1.8,1.1-2.2,2.2-2.2c1.5,0.1,1.6,2.2,1.6,2.2s0.7,9.4-0.9,13.5
		s-4.5,4.5-4.5,4.5l-11.8-2c0,0,7.7-4,8.7-6.9s2.9-23.6,5-24.3c0.7-0.2,2.4-0.5,2.7,2.2c0.4,3.6-0.7,10.8-0.7,10.8"/>
	<path class="st1" d="M38.9,42.6c0,0-0.3-6.8-0.6-8.6c-0.2-1.8-1.1-2.2-2.2-2.2C34.7,32,34.5,34,34.5,34s-0.7,9.4,0.9,13.5
		c1.6,4.1,4.5,4.5,4.5,4.5l11.8-2c0,0-7.7-4-8.7-6.9s-2.9-23.6-5-24.3c-0.7-0.2-2.4-0.5-2.7,2.2c-0.4,3.6,0.7,10.8,0.7,10.8"/>
	<path class="st2" d="M37.5,47.5C35.9,43.4,36.5,34,36.5,34s0.1-2,1.5-2.1l0,0c0,0-1.1-7.2-0.7-10.8c0.1-1.1,0.5-1.7,0.9-2
		c-0.1-0.1-0.1-0.1-0.2-0.1c-0.7-0.2-2.4-0.5-2.7,2.2c-0.4,3.6,0.7,10.8,0.7,10.8l0,0c-1.4,0.2-1.5,2.1-1.5,2.1s-0.7,9.4,0.9,13.5
		c1.6,4.1,4.5,4.5,4.5,4.5l1.3-0.2C40.3,51.4,38.6,50.4,37.5,47.5z"/>
	<path class="st3" d="M38.9,42.6c0,0-0.3-6.8-0.6-8.6c-0.2-1.8-1.1-2.2-2.2-2.2C34.7,32,34.5,34,34.5,34s-0.7,9.4,0.9,13.5
		c1.6,4.1,4.5,4.5,4.5,4.5l11.8-2c0,0-7.7-4-8.7-6.9s-2.9-23.6-5-24.3c-0.7-0.2-2.4-0.5-2.7,2.2c-0.4,3.6,0.7,10.8,0.7,10.8"/>
	<line class="st4" x1="11.6" y1="38.2" x2="5.7" y2="38.8"/>
	<line class="st4" x1="11.6" y1="31" x2="5.8" y2="29.5"/>
	<line class="st4" x1="13.9" y1="24.2" x2="9" y2="20.8"/>
	<line class="st4" x1="18.5" y1="18.6" x2="15" y2="13.8"/>
	<line class="st4" x1="24.7" y1="15" x2="23.1" y2="9.2"/>
	<line class="st4" x1="31.7" y1="13.6" x2="32.2" y2="7.7"/>
	<line class="st4" x1="38.8" y1="14.8" x2="41.3" y2="9.3"/>
	<line class="st4" x1="45.1" y1="18.3" x2="49.3" y2="14"/>
	<line class="st4" x1="49.8" y1="23.8" x2="55.2" y2="21.2"/>
	<line class="st4" x1="52.4" y1="30.5" x2="58.3" y2="29.9"/>
	<line class="st4" x1="52.4" y1="37.7" x2="58.2" y2="39.1"/>
</g>
</svg>
