<?xml version="1.0" encoding="utf-8"?>
<!-- Generator: Adobe Illustrator 22.0.1, SVG Export Plug-In . SVG Version: 6.00 Build 0)  -->
<svg version="1.1" id="Layer_5" xmlns="http://www.w3.org/2000/svg" xmlns:xlink="http://www.w3.org/1999/xlink" x="0px" y="0px"
	 viewBox="0 0 64 64" style="enable-background:new 0 0 64 64;" xml:space="preserve">
<style type="text/css">
	.st0{fill:#FFECEB;}
	.st1{fill:#E04C41;}
	.st2{opacity:0.8;}
	.st3{fill:#FFFFFF;}
	.st4{fill:none;stroke:#680700;stroke-linejoin:round;stroke-miterlimit:10;}
	.st5{fill:#E04C41;stroke:#680700;stroke-miterlimit:10;}
	.st6{opacity:0.8;fill:#FFFFFF;}
</style>
<circle class="st0" cx="32.1" cy="30.9" r="22"/>
<g>
	<path class="st1" d="M27,22.4v-4.6h-3.1c-0.2-0.9-0.5-1.7-1-2.4l2.2-2.2l-3.3-3.3L19.7,12c-0.8-0.5-1.6-0.8-2.5-1.1V8h-4.6v3
		c-0.9,0.2-1.7,0.6-2.5,1.1l-1.9-1.9L5,13.4l1.9,1.9c-0.4,0.8-0.8,1.6-1,2.4H3.3v4.6h2.8c0.2,0.8,0.6,1.6,1,2.3l-2,2L8.3,30l2.1-2.1
		c0.7,0.4,1.5,0.7,2.2,0.9v3h4.6v-3c0.8-0.2,1.5-0.5,2.2-0.9l2.4,2.4l3.3-3.3l-2.3-2.3c0.4-0.7,0.8-1.5,1-2.3H27z M15.1,25.1
		c-2.9,0-5.3-2.4-5.3-5.3c0-2.9,2.4-5.3,5.3-5.3s5.3,2.4,5.3,5.3C20.4,22.8,18,25.1,15.1,25.1z"/>
	<g class="st2">
		<path class="st3" d="M12.2,12c0.8-0.5,1.6-0.8,2.5-1.1V8h-2v3c-0.4,0.1-0.8,0.2-1.1,0.4L12.2,12z"/>
		<path class="st3" d="M6,17.8h2c0.2-0.9,0.5-1.7,1-2.4L7,13.4l2.3-2.3l-1-1L5,13.4l1.9,1.9C6.5,16.1,6.2,16.9,6,17.8z"/>
		<path class="st3" d="M22.4,19.9c0-2.9-2.4-5.3-5.3-5.3c-0.3,0-0.7,0-1,0.1c2.4,0.5,4.3,2.6,4.3,5.2c0,2.6-1.8,4.7-4.3,5.2
			c0.3,0.1,0.7,0.1,1,0.1C20,25.1,22.4,22.8,22.4,19.9z"/>
		<path class="st3" d="M21.7,12l1.1-1.1l-1-1l-1.5,1.5C20.8,11.6,21.3,11.8,21.7,12z"/>
		<path class="st3" d="M21.5,27.9c-0.4,0.2-0.9,0.4-1.4,0.6l1.7,1.7l1-1L21.5,27.9z"/>
		<rect x="3.3" y="17.8" class="st3" width="2" height="4.6"/>
		<path class="st3" d="M12.4,27.9l-0.6,0.6c0.3,0.1,0.6,0.2,0.9,0.3v3h2v-3C13.8,28.6,13.1,28.3,12.4,27.9z"/>
		<path class="st3" d="M7,26.7l2-2c-0.4-0.7-0.8-1.5-1-2.3h-2c0.2,0.8,0.6,1.6,1,2.3l-2,2L8.3,30l1-1L7,26.7z"/>
	</g>
	<g>
		<path class="st4" d="M27,22.4v-4.6h-3.1c-0.2-0.9-0.5-1.7-1-2.4l2.2-2.2l-3.3-3.3L19.7,12c-0.8-0.5-1.6-0.8-2.5-1.1V8h-4.6v3
			c-0.9,0.2-1.7,0.6-2.5,1.1l-1.9-1.9L5,13.4l1.9,1.9c-0.4,0.8-0.8,1.6-1,2.4H3.3v4.6h2.8c0.2,0.8,0.6,1.6,1,2.3l-2,2L8.3,30
			l2.1-2.1c0.7,0.4,1.5,0.7,2.2,0.9v3h4.6v-3c0.8-0.2,1.5-0.5,2.2-0.9l2.4,2.4l3.3-3.3l-2.3-2.3c0.4-0.7,0.8-1.5,1-2.3H27z"/>
		<circle class="st4" cx="14.9" cy="19.9" r="5.4"/>
	</g>
</g>
<g>
	<path class="st5" d="M43.2,27.3H32.4c-1.9,0-3.5-1.6-3.5-3.5v-1.3c0-1.9,1.6-3.5,3.5-3.5h10.7c1.9,0,3.5,1.6,3.5,3.5v1.3
		C46.7,25.7,45.1,27.3,43.2,27.3z"/>
	<path class="st1" d="M56,49.5H19.6c-1.3,0-2.4-1.1-2.4-2.4V24.8c0-1.3,1.1-2.4,2.4-2.4H56c1.3,0,2.4,1.1,2.4,2.4v22.3
		C58.5,48.4,57.4,49.5,56,49.5z"/>
	<path class="st6" d="M20,22.3h18v27.2H20c-1.3,0-2.4-1.1-2.4-2.4V24.8C17.5,23.4,18.6,22.3,20,22.3z"/>
	<g>
		<path class="st4" d="M56,49.5H19.6c-1.3,0-2.4-1.1-2.4-2.4V24.8c0-1.3,1.1-2.4,2.4-2.4H56c1.3,0,2.4,1.1,2.4,2.4v22.3
			C58.5,48.4,57.4,49.5,56,49.5z"/>
		<line class="st4" x1="41.9" y1="34.1" x2="58.5" y2="34.1"/>
		<line class="st4" x1="17.1" y1="34.1" x2="33.7" y2="34.1"/>
	</g>
	<rect x="33.7" y="30.6" class="st4" width="8.3" height="7.1"/>
</g>
</svg>
