<?xml version="1.0" encoding="utf-8"?>
<!-- Generator: Adobe Illustrator 22.0.1, SVG Export Plug-In . SVG Version: 6.00 Build 0)  -->
<svg version="1.1" id="astrology" xmlns="http://www.w3.org/2000/svg" xmlns:xlink="http://www.w3.org/1999/xlink" x="0px" y="0px"
	 viewBox="0 0 64 64" style="enable-background:new 0 0 64 64;" xml:space="preserve">
<style type="text/css">
	.st0{fill:#EFE9FF;}
	.st1{fill:#6D45DB;}
	.st2{opacity:0.8;fill:#FFFFFF;}
	.st3{fill:none;stroke:#1B0066;stroke-miterlimit:10;}
	.st4{fill:#6D45DB;stroke:#1B0066;stroke-linejoin:round;stroke-miterlimit:10;}
</style>
<circle class="st0" cx="28" cy="30" r="22"/>
<ellipse class="st1" cx="32" cy="32" rx="22" ry="22.6"/>
<path class="st2" d="M35,10.7c2.4,0,4.7,0.4,6.8,1.1c-3-1.5-6.3-2.4-9.8-2.4C19.8,9.4,10,19.5,10,32c0,4.7,1.4,9.1,3.8,12.7
	c1.9,2.8,4.5,5.2,7.4,6.9c-5.4-4.2-8.9-10.7-8.9-18.1C12.4,20.9,22.5,10.7,35,10.7z"/>
<ellipse class="st3" cx="32" cy="32" rx="26.3" ry="27"/>
<circle class="st1" cx="40.3" cy="5.9" r="3.4"/>
<path class="st2" d="M38.9,7.9c0-1.9,1.5-3.4,3.4-3.4c0.4,0,0.8,0.1,1.2,0.2c-0.5-1.3-1.7-2.2-3.2-2.2c-1.9,0-3.4,1.5-3.4,3.4
	c0,1.5,0.9,2.7,2.2,3.2C39,8.8,38.9,8.4,38.9,7.9z"/>
<circle class="st3" cx="40.3" cy="5.9" r="3.4"/>
<circle class="st1" cx="57.3" cy="34.9" r="3.4"/>
<path class="st2" d="M55.9,36.9c0-1.9,1.5-3.4,3.4-3.4c0.4,0,0.8,0.1,1.2,0.2c-0.5-1.3-1.7-2.2-3.2-2.2c-1.9,0-3.4,1.5-3.4,3.4
	c0,1.5,0.9,2.7,2.2,3.2C56,37.8,55.9,37.4,55.9,36.9z"/>
<circle class="st3" cx="57.3" cy="34.9" r="3.4"/>
<circle class="st1" cx="32.3" cy="58.9" r="2.7"/>
<path class="st2" d="M31.2,60.5c0-1.5,1.2-2.7,2.7-2.7c0.3,0,0.7,0.1,0.9,0.2c-0.4-1-1.4-1.7-2.5-1.7c-1.5,0-2.7,1.2-2.7,2.7
	c0,1.2,0.7,2.1,1.7,2.5C31.3,61.2,31.2,60.8,31.2,60.5z"/>
<circle class="st3" cx="32.3" cy="58.9" r="2.7"/>
<circle class="st3" cx="32" cy="32" r="8"/>
<circle class="st1" cx="32" cy="32" r="8"/>
<path class="st2" d="M26,36c0-4.4,3.6-8,8-8c2.3,0,4.4,1,5.9,2.6C39.2,26.8,35.9,24,32,24c-4.4,0-8,3.6-8,8c0,2.1,0.8,4,2.1,5.4
	C26.1,37,26,36.5,26,36z"/>
<polygon class="st4" points="32,18.9 33.6,21.6 35.1,24.3 32,24.3 28.9,24.3 30.4,21.6 "/>
<polygon class="st4" points="25.4,20.6 28.2,22.2 30.9,23.8 28.2,25.3 25.4,26.9 25.4,23.8 "/>
<polygon class="st4" points="20.6,25.4 23.8,25.4 26.9,25.4 25.3,28.2 23.8,30.9 22.2,28.2 "/>
<polygon class="st4" points="18.9,32 21.6,30.4 24.3,28.9 24.3,32 24.3,35.1 21.6,33.6 "/>
<polygon class="st4" points="20.6,38.6 22.2,35.8 23.8,33.1 25.3,35.8 26.9,38.6 23.8,38.6 "/>
<polygon class="st4" points="25.4,43.4 25.4,40.2 25.4,37.1 28.2,38.7 30.9,40.2 28.2,41.8 "/>
<polygon class="st4" points="32,45.1 30.4,42.4 28.9,39.7 32,39.7 35.1,39.7 33.6,42.4 "/>
<polygon class="st4" points="38.6,43.4 35.8,41.8 33.1,40.2 35.8,38.7 38.6,37.1 38.6,40.2 "/>
<polygon class="st4" points="43.4,38.6 40.2,38.6 37.1,38.6 38.7,35.8 40.2,33.1 41.8,35.8 "/>
<polygon class="st4" points="45.1,32 42.4,33.6 39.7,35.1 39.7,32 39.7,28.9 42.4,30.4 "/>
<polygon class="st4" points="43.4,25.4 41.8,28.2 40.2,30.9 38.7,28.2 37.1,25.4 40.2,25.4 "/>
<polygon class="st4" points="38.6,20.6 38.6,23.8 38.6,26.9 35.8,25.3 33.1,23.8 35.8,22.2 "/>
<circle class="st1" cx="13.3" cy="11.9" r="2.7"/>
<path class="st2" d="M12.2,13.5c0-1.5,1.2-2.7,2.7-2.7c0.3,0,0.7,0.1,0.9,0.2c-0.4-1-1.4-1.7-2.5-1.7c-1.5,0-2.7,1.2-2.7,2.7
	c0,1.2,0.7,2.1,1.7,2.5C12.3,14.1,12.2,13.8,12.2,13.5z"/>
<circle class="st3" cx="13.3" cy="11.9" r="2.7"/>
<circle class="st1" cx="5.3" cy="35.9" r="2.7"/>
<path class="st2" d="M4.2,37.5c0-1.5,1.2-2.7,2.7-2.7c0.3,0,0.7,0.1,0.9,0.2c-0.4-1-1.4-1.7-2.5-1.7c-1.5,0-2.7,1.2-2.7,2.7
	c0,1.2,0.7,2.1,1.7,2.5C4.2,38.2,4.2,37.8,4.2,37.5z"/>
<circle class="st3" cx="5.3" cy="35.9" r="2.7"/>
</svg>
