<?xml version="1.0" encoding="utf-8"?>
<!-- Generator: Adobe Illustrator 22.0.1, SVG Export Plug-In . SVG Version: 6.00 Build 0)  -->
<svg version="1.1" id="healthcare" xmlns="http://www.w3.org/2000/svg" xmlns:xlink="http://www.w3.org/1999/xlink" x="0px" y="0px"
	 viewBox="0 0 64 64" style="enable-background:new 0 0 64 64;" xml:space="preserve">
<style type="text/css">
	.st0{fill:#E6F9FF;}
	.st1{fill:#5CABE5;}
	.st2{fill:#FFFFFF;}
	.st3{opacity:0.8;fill:#FFFFFF;}
	.st4{fill:none;stroke:#003D73;stroke-linecap:round;stroke-linejoin:round;stroke-miterlimit:10;}
	.st5{fill:#55ABDE;}
	.st6{fill:none;stroke:#142A33;stroke-linecap:round;stroke-linejoin:round;stroke-miterlimit:10;}
	.st7{fill:none;stroke:#003D73;stroke-miterlimit:10;}
	.st8{fill:#FFFFFF;stroke:#003D73;stroke-miterlimit:10;}
</style>
<g>
	<circle class="st0" cx="30.4" cy="33.6" r="22"/>
	<g>
		<path class="st1" d="M12.4,12c-1.2,1.4-2,3.2-2,5.2c0,4.4,3.6,8,8,8c2.3,0,4.5-1,5.9-2.6L12.4,12z"/>
		<path class="st2" d="M12.7,11.5c1.3-1.3,3-2.3,5-2.4c4.4-0.4,8.3,2.8,8.7,7.2c0.2,2.3-0.6,4.5-2.1,6.1L12.7,11.5z"/>
		<path class="st3" d="M14.4,17.3c0-1,0.2-2,0.6-2.9L12.4,12c-1.2,1.4-2,3.2-2,5.2c0,4.4,3.6,8,8,8c0.7,0,1.4-0.1,2-0.3
			C16.9,24.1,14.4,21,14.4,17.3z"/>
		<line class="st4" x1="12.8" y1="12.5" x2="24" y2="22.1"/>
		<circle class="st4" cx="18.4" cy="17.3" r="8"/>
	</g>
	<g>
		<g>
			<path class="st1" d="M6.4,45.5l1.3,7.6c0.6,3.5,4,5.9,7.5,5.3c3.5-0.6,5.9-4,5.3-7.5l-1.3-7.7L6.4,45.5z"/>
			<path class="st3" d="M11.4,51.5l-1.1-6.7l-3.8,0.7l1.3,7.6c0.6,3.5,4,5.9,7.5,5.3c1.2-0.2,2.3-0.8,3.2-1.5
				C15.1,57.2,12,54.8,11.4,51.5z"/>
			<path class="st2" d="M18,36.1c-0.6-3.5-4-5.9-7.5-5.3l0,0c-3.5,0.6-5.9,4-5.3,7.5l1.2,7.2l12.8-2.3L18,36.1z"/>
		</g>
		<path class="st4" d="M15.2,58.4L15.2,58.4c-3.5,0.6-6.9-1.8-7.5-5.3L5.2,38.3c-0.6-3.5,1.8-6.9,5.3-7.5l0,0
			c3.5-0.6,6.9,1.8,7.5,5.3l2.5,14.8C21.1,54.4,18.8,57.8,15.2,58.4z"/>
		<line class="st4" x1="19.3" y1="43.5" x2="6.5" y2="45.7"/>
	</g>
	<g>
		
			<rect x="37" y="8.6" transform="matrix(-0.7505 -0.6609 0.6609 -0.7505 58.7543 59.1716)" class="st2" width="7.2" height="19.8"/>
		
			<rect x="34.3" y="15.7" transform="matrix(-0.7505 -0.6609 0.6609 -0.7505 52.0579 62.7248)" class="st5" width="7.2" height="11.7"/>
		
			<rect x="31.9" y="22" transform="matrix(-0.7505 -0.6609 0.6609 -0.7505 46.1047 65.8835)" class="st3" width="7.2" height="4.5"/>
		<rect x="37.1" y="8.4" transform="matrix(-0.7505 -0.6609 0.6609 -0.7505 58.8582 58.9212)" class="st6" width="7" height="20"/>
		<rect x="37.1" y="8.4" transform="matrix(-0.7505 -0.6609 0.6609 -0.7505 58.8582 58.9212)" class="st4" width="7" height="20"/>
		<line class="st4" x1="29.3" y1="31.1" x2="33.9" y2="25.9"/>
		<line class="st4" x1="47.2" y1="10.8" x2="49.8" y2="7.8"/>
		<line class="st4" x1="52.4" y1="10.2" x2="47.2" y2="5.5"/>
		<line class="st4" x1="40.8" y1="22.6" x2="38.6" y2="20.6"/>
		<line class="st4" x1="43" y1="20.1" x2="40.8" y2="18.1"/>
		<line class="st4" x1="45.2" y1="17.6" x2="43" y2="15.6"/>
		<line class="st4" x1="47.4" y1="15.1" x2="45.2" y2="13.1"/>
	</g>
	<g>
		<path class="st7" d="M56.9,41c-1.6,4.7-6.9,7.2-11.9,5.5s-7.7-6.9-6.1-11.6"/>
		<g>
			<circle class="st8" cx="38.9" cy="34.9" r="2"/>
			<circle class="st1" cx="30.6" cy="40.5" r="3.5"/>
			<circle class="st8" cx="56.9" cy="41" r="2"/>
			<path class="st3" d="M32,42.6c-1.8-0.6-2.8-2.6-2.2-4.4c0.1-0.4,0.4-0.8,0.6-1.1c-1.4,0.1-2.7,1-3.2,2.4
				c-0.6,1.8,0.4,3.8,2.2,4.4c1.4,0.5,2.9,0,3.8-1.1C32.9,42.8,32.5,42.7,32,42.6z"/>
			<path class="st7" d="M45,46.4l-1.3,3.8c-1.3,3.9-5.6,6-9.5,4.7l0,0c-3.9-1.3-6-5.6-4.7-9.5L30,44"/>
			<circle class="st7" cx="30.6" cy="40.5" r="3.5"/>
		</g>
	</g>
</g>
</svg>
