<?xml version="1.0" encoding="utf-8"?>
<!-- Generator: Adobe Illustrator 22.0.1, SVG Export Plug-In . SVG Version: 6.00 Build 0)  -->
<svg version="1.1" id="Layer_3" xmlns="http://www.w3.org/2000/svg" xmlns:xlink="http://www.w3.org/1999/xlink" x="0px" y="0px"
	 viewBox="0 0 64 64" style="enable-background:new 0 0 64 64;" xml:space="preserve">
<style type="text/css">
	.st0{fill:#FFF2E6;}
	.st1{fill:#E5913E;}
	.st2{opacity:0.8;fill:#FFFFFF;}
	.st3{fill:none;stroke:#703800;stroke-linejoin:round;stroke-miterlimit:10;}
	.st4{fill:#FFFFFF;}
	.st5{fill:none;stroke:#703800;stroke-linecap:round;stroke-linejoin:round;stroke-miterlimit:10;}
	.st6{fill:#703800;}
	.st7{fill:none;stroke:#703800;stroke-miterlimit:10;}
	.st8{fill:#E09F5F;stroke:#703800;stroke-linecap:round;stroke-miterlimit:10;}
</style>
<circle class="st0" cx="32" cy="32" r="22"/>
<rect x="19.4" y="12.5" class="st1" width="17" height="5"/>
<rect x="19.4" y="12.5" class="st2" width="17" height="2.5"/>
<polygon class="st1" points="32.1,41.5 23.6,41.5 21.6,17.5 34.1,17.5 "/>
<rect x="19.4" y="12.5" class="st3" width="17" height="5"/>
<polygon class="st2" points="21.6,17.5 23.1,41.5 26,41.5 24.5,17.5 "/>
<polygon class="st3" points="32.1,41.5 23.6,41.5 21.6,17.5 34.1,17.5 "/>
<polyline class="st3" points="32,13 34,8 40,6 "/>
<g>
	<path class="st1" d="M11.5,30c0.7,1,1.9,1.4,3.1,1c2.5-0.7,6.3-0.4,8.6,0.4c3.7,1.3,8.9,5.7,7.5,9.7c-1.2,3.7-7.3,4.3-11.4,3
		c-2.5-0.9-6.5-3.1-8-5.4c-0.4-0.7-1.3-1-2.1-0.7l-3.9,1.3L9.9,35c0.3-0.3,0.4-0.7,0.4-1.1l-0.7-6.7L11.5,30z"/>
	<path class="st4" d="M8.9,38c0.3-0.3,0.4-0.7,0.4-1.1l-0.1-1.2l-3.7,3.7l3.1-1L8.9,38z"/>
	<path class="st4" d="M8.9,38c0.3-0.3,0.4-0.7,0.4-1.1l-0.1-1.2l-3.7,3.7l3.1-1L8.9,38z"/>
	<path class="st2" d="M30,39.4c-1.7-2.8-5-5-7.4-5.9c-1.7-0.6-3.7-0.9-5.5-0.9c-1.2,0-2.4,0.1-3.3,0.4c-0.2,0.1-0.4,0.1-0.7,0.1
		c-0.7,0-1.4-0.3-1.7-0.7l-0.3-0.4L11,30.9c0.7,0.8,1.7,1.2,2.8,1.2c0.4,0,0.8-0.1,1.1-0.2c0.8-0.2,1.8-0.4,3-0.4
		c1.7,0,3.7,0.3,5.1,0.8c1.8,0.6,3.9,2,5.3,3.5C28.9,36.7,29.8,38,30,39.4z"/>
	<path class="st3" d="M11.5,30c0.7,1,1.9,1.4,3.1,1c2.5-0.7,6.3-0.4,8.6,0.4c3.7,1.3,8.9,5.7,7.5,9.7c-1.2,3.7-7.3,4.3-11.4,3
		c-2.5-0.9-6.5-3.1-8-5.4c-0.4-0.7-1.3-1-2.1-0.7l-3.9,1.3L9.9,35c0.3-0.3,0.4-0.7,0.4-1.1l-0.7-6.7L11.5,30z"/>
	<polyline class="st5" points="17.2,33.9 18.2,36.7 15.4,38.2 	"/>
	<polyline class="st5" points="20,34.9 21,37.7 18.2,39.1 	"/>
	<line class="st5" x1="30.2" y1="41.8" x2="28" y2="41"/>
	<circle class="st6" cx="26.3" cy="37.7" r="1"/>
</g>
<g>
	<path class="st1" d="M58.6,11.5c0-1.6-1.3-2.9-2.9-2.9c-0.5,0-0.9,0.1-1.3,0.3c-0.5-0.7-1.4-1.2-2.3-1.2c-1.6,0-2.9,1.3-2.9,2.9
		c0,0.9,0.4,1.7,1.1,2.2L47,25.3c-0.9-0.2-1.8-0.3-2.8-0.3c-7.1,0-12.8,5.7-12.8,12.8c0,7.1,4.9,8,13.6,7.1c1-0.1,8.3-0.3,8.3-0.3
		l3.3-30.4C57.8,13.8,58.6,12.7,58.6,11.5z"/>
	<path class="st2" d="M34.4,40.8C33,31,40,27,47.3,28c0,0,2.7,1,3.5-2.6l2.2-9.6c1-4,1.2-5,1.8-7.3c-0.5-0.7-1.6-1.8-2.6-1.8
		c-1.6,0-2.9,1.3-2.9,2.9c0,0.9,0.4,1.7,1.1,2.2L47,24.3c-0.9-0.2-1.8-0.3-2.8-0.3c-7.1,0-12.8,5.7-12.8,12.8c0,3.4,1.1,5.3,3.2,6.4
		C34.5,42.5,34.5,41.7,34.4,40.8z"/>
	<path class="st3" d="M58.6,11.5c0-1.6-1.3-2.9-2.9-2.9c-0.5,0-0.9,0.1-1.3,0.3c-0.5-0.7-1.4-1.2-2.3-1.2c-1.6,0-2.9,1.3-2.9,2.9
		c0,0.9,0.4,1.7,1.1,2.2L47,25.3c-0.9-0.2-1.8-0.3-2.8-0.3c-7.1,0-12.8,5.7-12.8,12.8c0,7.1,4.9,8,13.6,7.1c1-0.1,8.3-0.3,8.3-0.3
		l3.3-30.4C57.8,13.8,58.6,12.7,58.6,11.5z"/>
	<line class="st5" x1="37.1" y1="39.4" x2="48.6" y2="41.1"/>
	<line class="st5" x1="37" y1="35.1" x2="45.5" y2="36.3"/>
	<line class="st5" x1="40.4" y1="31.2" x2="45" y2="31.9"/>
	<line class="st7" x1="49.2" y1="16.9" x2="56.6" y2="18.8"/>
</g>
<line class="st8" x1="9.3" y1="44.6" x2="57.2" y2="44.6"/>
<polygon class="st1" points="45.2,50.5 19.4,50.5 16.7,44.6 47.9,44.6 "/>
<polygon class="st2" points="45.8,47.1 18.8,47.1 15.9,44.6 48.7,44.6 "/>
<polygon class="st5" points="45.2,50.5 19.4,50.5 16.7,44.6 47.9,44.6 "/>
</svg>
