<?xml version="1.0" encoding="utf-8"?>
<!-- Generator: Adobe Illustrator 22.1.0, SVG Export Plug-In . SVG Version: 6.00 Build 0)  -->
<svg version="1.1" id="Layer_3" xmlns="http://www.w3.org/2000/svg" xmlns:xlink="http://www.w3.org/1999/xlink" x="0px" y="0px"
	 viewBox="0 0 64 64" style="enable-background:new 0 0 64 64;" xml:space="preserve">
<style type="text/css">
	.st0{fill:#FFF2E6;}
	.st1{fill:none;stroke:#703800;stroke-linecap:round;stroke-linejoin:round;stroke-miterlimit:10;}
	.st2{fill:#E5913E;}
	.st3{opacity:0.8;fill:#FFFFFF;}
	.st4{fill:none;stroke:#703800;stroke-linejoin:round;stroke-miterlimit:10;}
</style>
<g>
	<circle class="st0" cx="31.5" cy="32" r="19.3"/>
	<g>
		<circle class="st1" cx="32" cy="32" r="25.2"/>
		<path class="st2" d="M41.5,20v10.8c0,1.9,0.5,3.7,2.2,4.3l-0.8,13.2h3V35.1v-6.2V15.7C43.4,15.7,41.5,17.6,41.5,20z"/>
		<path class="st3" d="M43.1,30.8V20c0-1.8,1.1-3.4,2.7-4v-0.3c-2.4,0-4.3,1.9-4.3,4.3v10.8c0,1.9,0.5,3.7,2.2,4.3l-0.8,13.2h2.5
			l0-14.1C43.7,33.6,43.1,32.6,43.1,30.8z"/>
		<g>
			<path class="st2" d="M29.8,25.4h5.9v0c0,1.5-1.2,2.6-2.8,2.6h-0.4C31,28,29.8,26.8,29.8,25.4L29.8,25.4z"/>
			<path class="st1" d="M35.3,15.5l0.4,9.4c0.1,1.7-1.2,3.2-3,3.2h0c-1.7,0-3.1-1.5-3-3.2l0.4-9.4"/>
			<line class="st1" x1="30.6" y1="25" x2="35" y2="25"/>
			<polygon class="st2" points="34.3,48.5 31,48.5 31.6,28 33.7,28 			"/>
			<line class="st1" x1="32.8" y1="15.5" x2="32.8" y2="24.4"/>
			<polygon class="st1" points="34.3,48.5 31,48.5 31.6,28.1 33.7,28.1 			"/>
		</g>
		<g>
			<path class="st2" d="M21.7,15.5c-2.2,0.1-4,2-4,4.2l0,4.1c0,1.7,1,3.1,2.4,3.7c0,0,0,0,0,0l-0.8,21c0,0,0,0,0,0h4.8c0,0,0,0,0,0
				l-0.8-20.9c0,0,0,0,0,0c1.5-0.6,2.5-2.1,2.5-3.8v-4.3C25.9,17.3,24,15.4,21.7,15.5z"/>
			<path class="st3" d="M22.1,27.5C22.1,27.5,22.1,27.5,22.1,27.5c-1.4-0.6-2.5-2.1-2.5-3.7v-4.1c0-1.9,1.3-3.7,3.1-4.1
				c-0.3-0.1-0.7-0.1-1-0.1c-2.2,0.1-4,2-4,4.2v4.1c0,1.7,1,3.1,2.4,3.7c0,0,0,0,0,0l-0.8,21c0,0,0,0,0,0h1.9c0,0,0,0,0,0L22.1,27.5
				z"/>
			<path class="st1" d="M21.7,15.5c-2.2,0.1-4,2-4,4.2l0,4.1c0,1.7,1,3.1,2.4,3.7c0,0,0,0,0,0l-0.8,21c0,0,0,0,0,0h4.8c0,0,0,0,0,0
				l-0.8-20.9c0,0,0,0,0,0c1.5-0.6,2.5-2.1,2.5-3.8v-4.3C25.9,17.3,24,15.4,21.7,15.5z"/>
		</g>
		<path class="st1" d="M41.5,20v10.8c0,1.9,0.5,3.7,2.2,4.3l-0.8,13.2h3V35.1v-6.2V15.7C43.4,15.7,41.5,17.6,41.5,20z"/>
		<circle class="st4" cx="32" cy="32" r="25.2"/>
	</g>
</g>
</svg>
