<?xml version="1.0" encoding="utf-8"?>
<!-- Generator: Adobe Illustrator 22.0.1, SVG Export Plug-In . SVG Version: 6.00 Build 0)  -->
<svg version="1.1" id="bulb" xmlns="http://www.w3.org/2000/svg" xmlns:xlink="http://www.w3.org/1999/xlink" x="0px" y="0px"
	 viewBox="0 0 16 16" style="enable-background:new 0 0 16 16;" xml:space="preserve">
<style type="text/css">
	.st0{fill:#CCCCCC;}
	.st1{fill:#FFF317;}
	.st2{fill:none;stroke:#666666;stroke-linecap:round;stroke-linejoin:round;stroke-miterlimit:10;}
</style>
<polygon class="st0" points="9.1,14.2 7.5,14.8 6.8,13.9 6.3,12.1 9.5,12.3 "/>
<path class="st1" d="M5.6,10.7l4.9-5.8c0,0-0.2-0.6-1.4-1.1C7.8,3.4,6.7,3.8,6,4.2C5,4.7,3.8,6.5,4.3,7.9C4.9,9.5,5.6,10.7,5.6,10.7
	z"/>
<path class="st2" d="M11.8,7.5c0,1.1-1.3,3-2.1,4.6c-0.7,1.4,0,2.5-1.7,2.5s-1-1.1-1.7-2.5c-0.8-1.6-2.1-3.5-2.1-4.6
	c0-2.1,1.7-3.8,3.8-3.8S11.8,5.4,11.8,7.5z"/>
<path class="st2" d="M9.5,12.3h-3H9.5z"/>
<line class="st2" x1="8" y1="1.2" x2="8" y2="2.2"/>
<line class="st2" x1="12.6" y1="3" x2="11.9" y2="3.8"/>
<line class="st2" x1="14.5" y1="7.6" x2="13.5" y2="7.6"/>
<line class="st2" x1="1.5" y1="7.7" x2="2.5" y2="7.7"/>
<line class="st2" x1="3.4" y1="3.1" x2="4.1" y2="3.8"/>
</svg>
