<?xml version="1.0" encoding="utf-8"?>
<!-- Generator: Adobe Illustrator 22.0.1, SVG Export Plug-In . SVG Version: 6.00 Build 0)  -->
<svg version="1.1" id="automobile" xmlns="http://www.w3.org/2000/svg" xmlns:xlink="http://www.w3.org/1999/xlink" x="0px" y="0px"
	 viewBox="0 0 64 64" style="enable-background:new 0 0 64 64;" xml:space="preserve">
<style type="text/css">
	.st0{fill:#F8FFE6;}
	.st1{fill:#B0DD43;}
	.st2{opacity:0.8;fill:#FFFFFF;}
	.st3{fill:none;stroke:#486600;stroke-linejoin:round;stroke-miterlimit:10;}
	.st4{fill:none;stroke:#486600;stroke-miterlimit:10;}
	.st5{fill:#B0DD43;stroke:#486600;stroke-miterlimit:10;}
	.st6{fill:none;stroke:#486600;stroke-linecap:round;stroke-linejoin:round;stroke-miterlimit:10;}
</style>
<circle class="st0" cx="24.1" cy="28.9" r="22"/>
<path class="st1" d="M55.6,48.1H8c-0.8,0-1.4-0.6-1.4-1.4v-5.8c0-4.9,4-8.9,8.9-8.9h37.2c2.5,0,4.5,2,4.5,4.5v10.2
	C57.1,47.5,56.4,48.1,55.6,48.1z"/>
<path class="st1" d="M46,32H16.3l4-9.1c0.8-1.7,2.7-2.9,4.8-2.9h12.2L46,32z"/>
<path class="st2" d="M22.2,24.9c0.8-1.7,2.7-2.9,4.8-2.9h11.7l-1.5-2H25.1c-2.1,0-4.1,1.1-4.8,2.9l-4,9.1h2.9L22.2,24.9z"/>
<path class="st3" d="M46,32H16.3l4-9.1c0.8-1.7,2.7-2.9,4.8-2.9h12.2L46,32z"/>
<path class="st2" d="M10.5,44.9c0-4.9,4-8.9,8.9-8.9h37.2c0.2,0,0.3,0,0.4,0c-0.2-2.3-2.1-4-4.4-4H15.4c-4.9,0-8.9,4-8.9,8.9v5.8
	c0,0.8,0.6,1.4,1.4,1.4h2.6V44.9z"/>
<path class="st4" d="M55.6,48.1H8c-0.8,0-1.4-0.6-1.4-1.4v-5.8c0-4.9,4-8.9,8.9-8.9h37.2c2.5,0,4.5,2,4.5,4.5v10.2
	C57.1,47.5,56.4,48.1,55.6,48.1z"/>
<circle class="st1" cx="17.4" cy="48.1" r="4.9"/>
<path class="st2" d="M17.4,45.2c2.4,0,4.3,1.7,4.8,3.9c0.1-0.3,0.1-0.7,0.1-1c0-2.7-2.2-4.9-4.9-4.9c-2.7,0-4.9,2.2-4.9,4.9
	c0,0.3,0,0.7,0.1,1C13.1,46.9,15,45.2,17.4,45.2z"/>
<circle class="st4" cx="17.4" cy="48.1" r="4.9"/>
<circle class="st5" cx="17.4" cy="48.1" r="1.6"/>
<circle class="st1" cx="45.4" cy="48.1" r="4.9"/>
<path class="st2" d="M45.4,45.2c2.4,0,4.3,1.7,4.8,3.9c0.1-0.3,0.1-0.7,0.1-1c0-2.7-2.2-4.9-4.9-4.9c-2.7,0-4.9,2.2-4.9,4.9
	c0,0.3,0,0.7,0.1,1C41.1,46.9,43,45.2,45.4,45.2z"/>
<circle class="st4" cx="45.4" cy="48.1" r="4.9"/>
<circle class="st5" cx="45.4" cy="48.1" r="1.6"/>
<line class="st6" x1="5" y1="45" x2="6" y2="45"/>
<line class="st6" x1="57.1" y1="45" x2="59" y2="45"/>
<line class="st6" x1="53.8" y1="38" x2="56.8" y2="38"/>
<line class="st6" x1="23" y1="36" x2="24" y2="36"/>
<line class="st6" x1="55" y1="45" x2="57.1" y2="45"/>
<line class="st3" x1="23" y1="20" x2="23" y2="32"/>
<line class="st3" x1="40" y1="24" x2="40" y2="32"/>
</svg>
