<?xml version="1.0" encoding="utf-8"?>
<!-- Generator: Adobe Illustrator 22.0.1, SVG Export Plug-In . SVG Version: 6.00 Build 0)  -->
<svg version="1.1" id="Layer_1" xmlns="http://www.w3.org/2000/svg" xmlns:xlink="http://www.w3.org/1999/xlink" x="0px" y="0px"
	 viewBox="0 0 294.8 307" style="enable-background:new 0 0 294.8 307;" xml:space="preserve">
<style type="text/css">
	.st0{fill:#C67626;}
	.st1{fill:none;stroke:#000000;stroke-width:3;stroke-miterlimit:10;}
	.st2{fill:none;stroke:#000000;stroke-width:3;stroke-miterlimit:10;stroke-dasharray:16.3214,16.3214;}
	.st3{fill:#FF9A2C;}
	.st4{fill:#602E00;}
	.st5{fill:none;stroke:#000000;stroke-width:2;stroke-miterlimit:10;}
</style>
<polygon class="st0" points="88.8,269 19.8,291 83.8,285 "/>
<g>
	<g>
		<path class="st1" d="M3,3.3c2.8-0.4,5.3,0,7.8,1"/>
		<path class="st2" d="M23.5,14.4c6.4,6.7,14.1,16.3,25.3,28.6c34,37.3,130.7,5.3,181.3,26.3c33.1,13.7,45.3,21.3,59.7,60
			c17.8,48-52,76.3-71.9,99c-33,37.5-64.4,45.3-87,47.9"/>
		<path class="st1" d="M122.8,277c-2.9,0.2-5.5,0.4-8,0.7"/>
	</g>
</g>
<polygon class="st3" points="27.8,291.6 97.8,295 82.3,285 "/>
<polygon class="st4" points="35.6,292 68.8,306 84.8,295 "/>
<polygon class="st5" points="97.8,295 83.8,285 88.8,269 19.8,291 84.9,294.3 "/>
<polygon class="st5" points="68.8,306 84.8,295 31.9,291.6 "/>
<line class="st5" x1="84.8" y1="285" x2="25.3" y2="291.3"/>
</svg>
