<?xml version="1.0" encoding="utf-8"?>
<!-- Generator: Adobe Illustrator 22.0.1, SVG Export Plug-In . SVG Version: 6.00 Build 0)  -->
<svg version="1.1" id="Layer_1" xmlns="http://www.w3.org/2000/svg" xmlns:xlink="http://www.w3.org/1999/xlink" x="0px" y="0px"
	 viewBox="0 0 215 200" style="enable-background:new 0 0 215 200;" xml:space="preserve">
<style type="text/css">
	.st0{fill:#CCCCCC;}
</style>
<path class="st0" d="M56.6,60.3L56.6,60.3c-0.1,34.9,0,71.1,0,102h102v-102H56.6z M86.3,71.7c5.4,0,9.8,4.4,9.8,9.8
	c0,5.4-4.4,9.8-9.8,9.8c-5.4,0-9.8-4.4-9.8-9.8C76.4,76.1,80.8,71.7,86.3,71.7z M152.4,156.2H62.8v-16L90.6,104l30,37.1
	c3.1,3.3,6.9-1.3,4.8-3.9l-20.6-25.5l16.8-20.4l30.9,33.7V156.2z"/>
</svg>
