<?xml version="1.0" encoding="utf-8"?>
<!-- Generator: Adobe Illustrator 23.0.1, SVG Export Plug-In . SVG Version: 6.00 Build 0)  -->
<svg version="1.1" id="Layer_1" xmlns="http://www.w3.org/2000/svg" xmlns:xlink="http://www.w3.org/1999/xlink" x="0px" y="0px"
	 viewBox="0 0 215 200" style="enable-background:new 0 0 215 200;" xml:space="preserve">
<style type="text/css">
	.st0{fill:#CCCCCC;}
</style>
<g id="Group_799" transform="translate(21.8 22.2)">
	<g id="Group_798">
		<g id="Group_797">
			<g id="Group_796">
				<path id="Path_448" class="st0" d="M85.9,68.6c-0.2,0.2-0.6,0.3-0.9,0.3c-0.3,0-0.6-0.3-0.9-0.6L68.5,51.4l-0.3-0.3
					c-0.3-0.4-0.7-0.6-1.2-0.6c-0.6,0-0.9,0-1.2,0.3l0,0l-10.3,9.4l-0.3,0.3c-0.4,0.3-0.6,0.7-0.6,1.2c0,0.6,0,0.9,0.3,1.2l0,0
					l25.7,28.3c0,0.3,0.3,0.3,0.6,0.6c0.4,0.5,1.1,0.8,1.8,0.9c0.8,0,1.5-0.3,2.1-0.9l0,0l60.5-54.3l0,0c-3.3-4.8-7-9.3-11.2-13.3
					l0,0L85.9,68.6z"/>
				<path id="Path_449" class="st0" d="M147.9,40.2L134.6,52l0,0c3.7,7,5.9,14.6,6.5,22.4h-3.2c-2.2-0.1-4,1.6-4.1,3.8c0,0,0,0,0,0
					c-0.1,2.1,1.5,3.8,3.6,3.8c0.1,0,0.2,0,0.2,0h3.5c-1.8,28.1-24.1,50.6-52.2,52.5l0,0v-3.2c0.1-2.2-1.6-4-3.8-4.1c0,0,0,0,0,0
					c-2.1-0.1-3.8,1.5-3.8,3.6c0,0.1,0,0.2,0,0.2v3.5l0,0c-28.2-1.8-50.7-24.3-52.5-52.5h3.2c2.2,0.1,4-1.6,4.1-3.8c0,0,0,0,0,0
					c0.2-2-1.3-3.7-3.3-3.8c-0.2,0-0.4,0-0.6,0h-3.5c1.8-28.2,24.3-50.7,52.5-52.5l0,0v3.2c-0.1,2.2,1.6,4,3.8,4.1c0,0,0,0,0,0
					c2,0.2,3.7-1.3,3.8-3.3c0-0.2,0-0.4,0-0.6v-3.5l0,0c11.3,1,22.1,5.3,31,12.4l0,0l13-11.5l0,0c-12.7-10.6-29.5-18-47.2-18
					C44.9,4.2,11.5,37.3,11.2,77.7c-0.3,40.7,32.4,73.9,73.1,74.2s73.9-32.4,74.2-73.1C158.5,65.3,154.8,51.9,147.9,40.2L147.9,40.2
					z"/>
			</g>
		</g>
		<path id="Path_450" class="st0" d="M148.8,35.5l9.4-8.6c0.9-0.9,1.2-2.1,0.3-3c-2.6-3.5-5.5-6.9-8.6-10c-0.7-0.8-2-0.9-2.8-0.2
			c-0.1,0.1-0.1,0.1-0.2,0.2l-9.4,8.6l0,0C141.7,26.4,145.5,30.8,148.8,35.5z"/>
	</g>
</g>
</svg>
