<svg id="img-mobile.svg" xmlns="http://www.w3.org/2000/svg" width="180" height="383" viewBox="0 0 180 383">
  <defs>
    <style>
      .cls-1, .cls-2 {
        fill: #f2edb6;
        stroke: #000;
        stroke-width: 4px;
      }

      .cls-2, .cls-3 {
        fill-rule: evenodd;
      }

      .cls-3 {
        fill: #222223;
      }
    </style>
  </defs>
  <rect id="Rounded_Rectangle_751" data-name="Rounded Rectangle 751" class="cls-1" x="2" y="2" width="176" height="379" rx="30" ry="30"/>
  <rect class="cls-1" x="11" y="55" width="159" height="277"/>
  <circle class="cls-1" cx="90" cy="353" r="15"/>
  <rect id="Rounded_Rectangle_752" data-name="Rounded Rectangle 752" class="cls-1" x="70" y="35" width="40" height="6" rx="2.5" ry="2.5"/>
  <path id="Ellipse_747_copy" data-name="Ellipse 747 copy" class="cls-2" d="M809,1526.99a3.542,3.542,0,1,1-3,3.5A3.281,3.281,0,0,1,809,1526.99Z" transform="translate(-719 -1507)"/>
  <path id="YNW_Skip_the_Queue" data-name="YNW Skip the Queue" class="cls-3" d="M793.64,1664.23h-4.56l-4.036,7.5-4.136-7.5h-4.56l6.428,12.01v5.46h4.56v-5.58Zm2.318,0v17.47h4.261v-10.47l7.924,10.47h3.986v-17.47h-4.236v10.51l-7.923-10.51h-4.012Zm18.59,0,5.73,17.47h4.685l3.239-11.79,3.14,11.79h4.709l5.756-17.47h-4.685l-3.289,12.63-3.314-12.63h-4.46l-3.289,12.63-3.314-12.63h-4.908Zm-49.716,33.46,0.611-1.3a5.653,5.653,0,0,0-3.054-.9c-1.895,0-3.178.94-3.178,2.43,0,3.11,4.711,2.02,4.711,3.97,0,0.67-.611,1.06-1.633,1.06a4.576,4.576,0,0,1-2.954-1.28l-0.636,1.28a5.379,5.379,0,0,0,3.565,1.38c1.92,0,3.291-.96,3.291-2.52,0.012-3.14-4.7-2.12-4.7-4.02,0-.59.561-0.91,1.421-0.91A5.146,5.146,0,0,1,764.832,1697.69Zm7.288,6.59h1.7l-2.642-4.06,2.455-2.57h-1.645l-2.929,2.96v-5.58h-1.433v9.25h1.433v-1.86l1.122-1.18Zm3.936-9.39a0.855,0.855,0,1,0,.835.86A0.825,0.825,0,0,0,776.056,1694.89Zm-0.711,2.76v6.63h1.421v-6.63h-1.421Zm7.726-.05a2.592,2.592,0,0,0-2.318,1.19v-1.14H779.32v9.05h1.433v-3.57a2.593,2.593,0,0,0,2.343,1.2,3.072,3.072,0,0,0,3.141-3.34A3.118,3.118,0,0,0,783.071,1697.6Zm-0.3,5.51a2.165,2.165,0,1,1,2.019-2.17A2.009,2.009,0,0,1,782.772,1703.11Zm12.833-.35a2.281,2.281,0,0,1-1,.29c-0.449,0-.711-0.22-0.711-0.9v-3.18h1.957v-1.07H793.9v-1.82h-1.42v1.82h-0.935v1.07h0.935v3.44a1.745,1.745,0,0,0,1.857,1.93,3.193,3.193,0,0,0,1.633-.48Zm6.006-5.16a2.513,2.513,0,0,0-2.456,1.34v-3.91h-1.433v9.25h1.433v-3.27a1.9,1.9,0,0,1,1.895-2.07,1.482,1.482,0,0,1,1.6,1.61v3.73h1.434v-4.13A2.314,2.314,0,0,0,801.611,1697.6Zm7.487,0a3.365,3.365,0,1,0,.037,6.73,3.612,3.612,0,0,0,2.743-1.12l-0.761-.81a2.568,2.568,0,0,1-1.869.77,2.023,2.023,0,0,1-2.057-1.66H812.2C812.376,1699.12,811.429,1697.6,809.1,1697.6Zm-1.932,2.87a1.887,1.887,0,0,1,1.945-1.73,1.706,1.706,0,0,1,1.844,1.73h-3.789Zm19.552,3.73a2.89,2.89,0,0,1-1.608.73,2.093,2.093,0,0,1-1.459-.81,4.368,4.368,0,0,0,3.141-4.2,4.629,4.629,0,1,0-4.636,4.42,3.331,3.331,0,0,0,2.779,1.86,3.7,3.7,0,0,0,2.369-.96Zm-7.678-4.28a3.122,3.122,0,1,1,3.141,3.1A3.1,3.1,0,0,1,819.04,1699.92Zm14.292-2.27v3.26a1.871,1.871,0,0,1-1.82,2.07,1.458,1.458,0,0,1-1.545-1.61v-3.72h-1.434v4.12a2.3,2.3,0,0,0,2.431,2.56,2.431,2.431,0,0,0,2.368-1.35v1.3h1.433v-6.63h-1.433Zm6.652-.05a3.365,3.365,0,1,0,.038,6.73,3.608,3.608,0,0,0,2.742-1.12l-0.76-.81a2.57,2.57,0,0,1-1.87.77,2.023,2.023,0,0,1-2.057-1.66h5.011C843.263,1699.12,842.315,1697.6,839.984,1697.6Zm-1.932,2.87a1.887,1.887,0,0,1,1.945-1.73,1.707,1.707,0,0,1,1.845,1.73h-3.79Zm11.489-2.82v3.26a1.871,1.871,0,0,1-1.819,2.07,1.458,1.458,0,0,1-1.546-1.61v-3.72h-1.433v4.12a2.3,2.3,0,0,0,2.43,2.56,2.429,2.429,0,0,0,2.368-1.35v1.3h1.434v-6.63h-1.434Zm6.653-.05a3.365,3.365,0,1,0,.037,6.73,3.612,3.612,0,0,0,2.743-1.12l-0.761-.81a2.57,2.57,0,0,1-1.869.77,2.023,2.023,0,0,1-2.057-1.66H859.3C859.472,1699.12,858.525,1697.6,856.194,1697.6Zm-1.932,2.87a1.886,1.886,0,0,1,1.944-1.73,1.706,1.706,0,0,1,1.845,1.73h-3.789Z" transform="translate(-719 -1507)"/>
</svg>
