<?xml version="1.0" encoding="utf-8"?>
<!-- Generator: Adobe Illustrator 24.0.1, SVG Export Plug-In . SVG Version: 6.00 Build 0)  -->
<svg version="1.1" id="Layer_1" xmlns="http://www.w3.org/2000/svg" xmlns:xlink="http://www.w3.org/1999/xlink" x="0px" y="0px"
	 viewBox="0 0 1000 1000" style="enable-background:new 0 0 1000 1000;" xml:space="preserve">
<style type="text/css">
	.st0{fill:#FFFFFF;}
	.st1{fill:#1E4079;}
	.st2{fill:#EFB41A;}
	.st3{fill:none;}
	.st4{fill:#14612C;}
	.st5{font-family:'Montserrat-Bold';}
	.st6{font-size:29.13px;}
</style>
<title>jaldee bussinesslogo-01</title>
<path class="st0" d="M495.2,490.6c0,10.7-2.3,19.8-7,27.5c-4.5,7.6-11.1,13.7-19,17.6c-8.2,4.1-17.3,6.1-26.5,6
	c-4.9,0-9.8-0.5-14.6-1.6c-4.4-0.9-8.6-2.6-12.5-4.9c-4.1-2.4-7.8-5.4-11.1-8.8l15.9-15.7c2.9,2.8,6.2,5.3,9.7,7.2
	c3.1,1.5,7.3,2.3,12.6,2.3c5.3,0.1,10.6-1.1,15.3-3.6c4.3-2.4,7.8-6.2,9.8-10.7c2.3-4.7,3.4-10.4,3.4-17.1v-97h23.9v98.8
	L495.2,490.6z"/>
<path class="st0" d="M595.6,541.7h-22.1v-11.5c-3.7,3.8-8,6.8-12.9,8.8c-4.5,1.8-10.1,2.6-17,2.6c-6,0.1-11.9-0.7-17.6-2.5
	c-4.7-1.5-9-4.1-12.5-7.6c-5.9-6.1-8.9-14.2-8.9-24.1c-0.1-5.9,1.4-11.8,4.4-16.9c3.1-5,7.7-8.9,13.1-11.3
	c5.8-2.7,12.8-4.1,21.1-4.1h29.6v-8c0-7.2-1.9-12.4-5.8-15.8s-10.1-5.1-18.7-5.1c-6.3,0-11.1,0.8-14.6,2.4s-6.8,4.4-10,8.4
	l-14.8-13.9c5.1-6.1,10.7-10.3,16.9-12.7s13.9-3.6,23.4-3.6c30.8,0,46.2,12.9,46.2,38.6L595.6,541.7L595.6,541.7z M573.1,499.9v-9.1
	h-26.4c-6.6,0-11.5,1.4-15,4.2s-5.1,6.8-5.1,12c0,10.6,6.8,15.9,20.5,15.9c4.1,0.1,8.1-0.3,12.1-1.2c3.4-0.9,6.5-2.7,9-5.1
	C571.3,513.3,573.1,507.7,573.1,499.9L573.1,499.9z"/>
<path class="st0" d="M645.2,541.7h-6.9c-10.2,0-17.8-2.9-23-8.8s-7.7-13.3-7.7-22.2V391.8h22.6v117.6c0,4.5,0.9,7.8,2.7,9.9
	c1.8,2.1,4.9,3.2,9.4,3.2h2.9V541.7z"/>
<path class="st0" d="M745.6,541.7h-22.1v-13.3c-2.4,3.1-5.3,5.8-8.6,8c-2.9,1.9-6.1,3.2-9.5,4.1c-3.8,0.8-7.7,1.3-11.6,1.2
	c-5.3,0-10.5-0.9-15.5-2.7c-9.5-3.1-16.9-10.6-19.9-20.1c-1.8-5.1-3-10.4-3.6-15.8c-0.6-6.2-0.9-12.5-0.9-18.8
	c0-6.2,0.3-12.5,0.9-18.7c0.6-5.4,1.8-10.6,3.6-15.7c1.7-4.8,4.4-9.2,8-12.9c3.4-3.3,7.4-5.8,11.9-7.4c4.9-1.8,10.1-2.7,15.3-2.6
	c5.6-0.1,11.2,0.8,16.5,2.8c5.1,2.2,9.6,5.6,13,9.9V392h22.6L745.6,541.7L745.6,541.7z M722.9,484.3c0.1-6.5-0.5-13.1-1.7-19.5
	c-1.2-5.4-3.4-9.6-6.9-12.8s-8.3-4.8-14.6-4.8s-11.3,1.6-14.8,4.9c-3.6,3.4-6,7.9-6.9,12.8c-1.3,6.4-1.8,12.9-1.7,19.4
	c-0.1,6.5,0.5,13.1,1.7,19.5c0.9,4.9,3.3,9.4,6.9,12.9c3.5,3.3,8.4,4.9,14.8,4.9c9.2,0,15.4-3.3,18.5-9.9S722.9,496,722.9,484.3
	L722.9,484.3z"/>
<path class="st0" d="M851.4,490.8h-72.8c0,6.6,1.1,12.2,3.3,16.8c2.1,4.5,5.5,8.2,9.7,10.8c4.2,2.6,9.4,3.8,15.6,3.8
	s11.2-0.9,15-2.6c4.6-2.2,8.7-5.3,12.2-8.9l14.4,13.4c-6.1,6.1-12.3,10.6-18.6,13.3s-14.1,4.2-23.5,4.2c-6.8,0.1-13.6-1-20.1-3.1
	c-6.1-2-11.6-5.4-16.1-9.9c-4.8-5.1-8.5-11.1-10.6-17.8c-2.5-7.3-3.8-16.2-3.8-26.6c0-12,2-22.3,5.9-30.9c3.5-8,9.3-14.9,16.6-19.7
	c7.1-4.5,15.5-6.8,25.1-6.8c9.8,0,18.3,2.3,25.5,6.8c7.3,4.6,13,11.2,16.4,19.1c3.9,8.9,5.8,18.4,5.6,28.1v10H851.4z M829.1,475.1
	c-0.1-5.2-1.1-10.4-3-15.2c-1.7-4.2-4.7-7.9-8.5-10.4c-4.1-2.7-8.8-4-13.7-3.9c-4.9-0.1-9.6,1.3-13.7,3.9c-3.9,2.5-6.9,6.1-8.7,10.4
	c-0.9,1.9-1.6,4-2,6.1c-0.3,1.8-0.6,4.8-0.9,9.1H829.1z"/>
<path class="st0" d="M957.3,490.8h-72.8c0,6.6,1.1,12.2,3.3,16.8c2.1,4.5,5.5,8.2,9.7,10.8c4.2,2.6,9.4,3.8,15.6,3.8
	s11.2-0.9,15-2.6c4.6-2.2,8.7-5.3,12.2-8.9l14.4,13.4c-6.1,6.1-12.3,10.6-18.6,13.3s-14.1,4.2-23.5,4.2c-6.8,0.1-13.6-1-20.1-3.1
	c-6.1-2-11.6-5.4-16.1-9.9c-4.8-5.1-8.5-11.1-10.6-17.8c-2.5-7.3-3.8-16.2-3.8-26.6c0-12,2-22.3,5.9-30.9c3.5-8,9.3-14.9,16.6-19.7
	c7.1-4.5,15.5-6.8,25.1-6.8c9.8,0,18.3,2.3,25.5,6.8c7.3,4.6,13,11.2,16.4,19.1c3.9,8.9,5.8,18.4,5.6,28.1v10H957.3z M935.1,475.1
	c-0.1-5.2-1.1-10.4-3-15.2c-1.7-4.2-4.7-7.9-8.5-10.4c-4.1-2.7-8.8-4-13.7-3.9c-4.9-0.1-9.6,1.3-13.7,3.9c-3.9,2.5-6.9,6.1-8.7,10.4
	c-0.9,1.9-1.6,4-2,6.1c-0.3,1.8-0.6,4.8-0.9,9.1H935.1z"/>
<path class="st0" d="M427.3,596.7H413l-3.4,9.8h-5.3l13.7-38.1h4.4l13.4,38.1h-5.3L427.3,596.7z M414.4,592.4h11.4l-5.5-16.3h-0.2
	L414.4,592.4z"/>
<path class="st0" d="M447.8,598.1l0.4,2h0.2l0.5-2l6.5-20h5.3l-10.4,28.3h-3.9l-10.6-28.2h5.3L447.8,598.1z"/>
<path class="st0" d="M462.7,592.1c-0.2-3.7,1-7.4,3.4-10.3c2.3-2.7,5.7-4.2,9.2-4.1c3.6-0.1,7,1.4,9.3,4.1c2.4,2.9,3.6,6.6,3.4,10.4
	v0.6c0.2,3.8-1,7.5-3.4,10.4c-4.9,5.1-13,5.4-18.1,0.5c0,0,0,0,0,0l-0.5-0.5c-2.4-2.9-3.6-6.6-3.4-10.3L462.7,592.1L462.7,592.1z
	 M467.8,592.6c-0.1,2.6,0.5,5.2,1.9,7.4c1.2,1.9,3.3,3,5.6,2.9c2.2,0.1,4.4-1,5.6-2.9c1.4-2.2,2-4.8,1.9-7.4V592
	c0.1-2.6-0.5-5.2-1.9-7.4c-1.2-1.9-3.3-3.1-5.6-3c-2.3-0.1-4.4,1.1-5.6,3c-1.4,2.2-2,4.8-1.9,7.4V592.6z"/>
<path class="st0" d="M498.8,570.9h-5.2v-5.3h5.2V570.9z M498.8,606.5h-5.2v-28.3h5.2V606.5z"/>
<path class="st0" d="M504.5,592.9c0-4.5,1-8.2,2.9-11c1.8-2.7,4.9-4.3,8.2-4.2c1.5,0,3,0.3,4.4,0.9c1.3,0.6,2.4,1.5,3.3,2.7v-15.6
	h5.2v40.8h-3.9l-0.8-3.6c-0.9,1.3-2,2.4-3.4,3.1c-1.5,0.7-3.1,1-4.7,1c-3.2,0.1-6.2-1.3-8.1-3.8c-2-2.9-3.1-6.4-2.9-9.9v-0.4
	L504.5,592.9z M509.6,593.4c-0.1,2.4,0.5,4.8,1.8,6.9c1.2,1.7,3.3,2.7,5.4,2.6c1.4,0,2.7-0.3,3.9-1c1.1-0.7,2-1.7,2.6-2.9v-13.2
	c-0.6-1.1-1.5-2.1-2.6-2.8c-1.1-0.7-2.5-1-3.8-1c-2.3-0.1-4.4,1.1-5.5,3.1c-1.3,2.4-1.9,5.2-1.8,7.9L509.6,593.4L509.6,593.4z"/>
<path class="st0" d="M555.6,593.3l0.7,5h0.2l0.9-5l6.7-24.9h5l6.8,24.9l0.9,5.1h0.2l0.7-5.1l5.4-24.9h5.6l-9.2,38.1h-4.6l-7.6-26.4
	l-0.6-3.4h-0.2l-0.5,3.4l-7.7,26.4h-4.6l-9.2-38.1h5.6L555.6,593.3z"/>
<path class="st0" d="M608.8,606.5c-0.2-0.9-0.3-1.6-0.4-2.3c-0.1-0.7-0.2-1.3-0.2-2c-1,1.4-2.3,2.6-3.8,3.4c-1.5,0.9-3.2,1.4-5,1.4
	c-2.9,0-5.2-0.8-6.7-2.3c-1.6-1.7-2.4-3.9-2.3-6.2c-0.1-2.5,1.2-4.9,3.3-6.3c2.7-1.6,5.8-2.4,8.9-2.3h5.6v-2.8
	c0.1-1.5-0.5-2.9-1.5-3.9c-1.2-1.1-2.7-1.6-4.3-1.5c-1.5-0.1-2.9,0.4-4.1,1.3c-1,0.7-1.5,1.8-1.5,3l-4.9,0.1l-0.1-0.2
	c-0.1-2.1,0.8-3.9,2.9-5.6c2.2-1.8,5-2.7,7.9-2.6c2.8-0.1,5.5,0.7,7.7,2.4c2,1.6,2.9,4,2.9,7v13.6c0,1,0.1,1.9,0.2,2.9
	c0.1,1,0.3,1.9,0.6,2.8L608.8,606.5L608.8,606.5z M600.3,602.7c1.8,0,3.5-0.5,5-1.4c1.3-0.8,2.3-1.9,2.9-3.3v-4.6h-5.8
	c-1.8-0.1-3.6,0.5-5,1.6c-1.2,0.9-1.9,2.2-1.9,3.7c0,1.1,0.4,2.2,1.2,3C597.8,602.4,599,602.7,600.3,602.7z"/>
<path class="st0" d="M625.4,570.9h-5.2v-5.3h5.2V570.9z M625.4,606.5h-5.2v-28.3h5.2V606.5z"/>
<path class="st0" d="M639.4,571.4v6.8h5.4v3.8h-5.4v17.2c-0.1,1,0.2,2,0.8,2.8c0.6,0.5,1.4,0.8,2.2,0.8c0.3,0,0.7,0,1-0.1
	c0.3-0.1,0.6-0.2,0.9-0.2l0.7,3.5c-0.5,0.4-1.1,0.6-1.7,0.8c-0.7,0.2-1.5,0.3-2.2,0.3c-1.9,0.1-3.7-0.6-5-1.9
	c-1.4-1.6-2.1-3.8-1.9-5.9V582h-4.5v-3.8h4.5v-6.8H639.4z"/>
<path class="st0" d="M654.8,570.9h-5.2v-5.3h5.2V570.9z M654.8,606.5h-5.2v-28.3h5.2V606.5z"/>
<path class="st0" d="M666.2,578.2l0.4,4.2c0.8-1.4,2.1-2.7,3.5-3.5c1.5-0.8,3.2-1.2,4.9-1.2c2.6-0.2,5.2,0.8,7.1,2.7
	c1.7,1.8,2.5,4.5,2.5,8.3v17.9h-5.2v-17.8c0-2.5-0.5-4.3-1.5-5.3c-1.2-1.1-2.8-1.7-4.5-1.6c-1.4-0.1-2.8,0.3-4,1
	c-1.1,0.6-2,1.6-2.6,2.7v21h-5.2v-28.3L666.2,578.2L666.2,578.2z"/>
<path class="st0" d="M690.1,592.9c0-4.5,1-8.2,2.9-11c1.8-2.7,4.9-4.3,8.1-4.2c1.6,0,3.2,0.3,4.7,1.1c1.4,0.7,2.5,1.8,3.4,3.1
	l0.6-3.7h4.1v28.5c0.2,3.1-1,6.2-3.2,8.4c-2.1,1.9-5.2,2.9-9.1,2.9c-1.5,0-3-0.2-4.4-0.6c-1.4-0.3-2.9-0.9-4.2-1.5l0.8-4
	c1.2,0.5,2.4,1,3.6,1.3c1.3,0.4,2.7,0.5,4.1,0.5c2,0.1,3.9-0.5,5.5-1.7c1.2-1.4,1.8-3.3,1.7-5.2v-3.2c-0.9,1.2-2,2.1-3.3,2.7
	c-1.4,0.6-3,0.9-4.5,0.9c-3.2,0.1-6.2-1.3-8.1-3.8c-2-2.9-3.1-6.4-2.9-9.9v-0.6H690.1z M695.2,593.4c-0.1,2.4,0.5,4.8,1.8,6.9
	c1.2,1.8,3.3,2.8,5.4,2.6c1.4,0,2.7-0.3,3.9-1.1c1.1-0.8,2-1.8,2.6-3v-13c-0.6-1.2-1.5-2.2-2.6-2.9c-1.1-0.7-2.5-1.1-3.8-1.1
	c-2.3-0.1-4.4,1.1-5.5,3.1c-1.3,2.4-1.9,5.2-1.8,7.9L695.2,593.4L695.2,593.4z"/>
<path class="st0" d="M738.1,570.9h-5.2v-5.3h5.2V570.9z M738.1,606.5h-5.2v-28.3h5.2V606.5z"/>
<path class="st0" d="M749.6,578.2l0.4,4.2c0.8-1.4,2.1-2.7,3.5-3.5c1.5-0.8,3.2-1.2,4.9-1.2c2.6-0.2,5.2,0.8,7.1,2.7
	c1.7,1.8,2.5,4.5,2.5,8.3v17.9h-5.2v-17.8c0-2.5-0.5-4.3-1.5-5.3c-1.2-1.1-2.8-1.7-4.5-1.6c-1.4-0.1-2.8,0.3-4,1
	c-1.1,0.6-2,1.6-2.6,2.7v21H745v-28.3L749.6,578.2L749.6,578.2z"/>
<path class="st0" d="M816.4,590.8c0,1.9-0.3,3.9-0.9,5.7c-0.5,1.7-1.4,3.4-2.5,4.8l5.7,5.5l-3.5,3.4l-5.8-5.6
	c-1.2,0.8-2.6,1.4-4,1.8c-1.5,0.4-3,0.6-4.5,0.6c-4.1,0.2-8.1-1.5-10.8-4.6c-2.8-3.2-4.3-7.3-4.2-11.6V584
	c-0.1-4.3,1.4-8.4,4.2-11.6c2.7-3.1,6.7-4.7,10.8-4.6c4.2-0.2,8.3,1.5,11.2,4.6c2.9,3.1,4.5,7.3,4.3,11.6V590.8z M811.2,584
	c0.1-3.1-0.9-6.2-2.8-8.6c-1.9-2.2-4.7-3.5-7.6-3.3c-2.8-0.1-5.5,1.1-7.2,3.3c-1.9,2.5-2.8,5.5-2.7,8.6v6.8
	c-0.1,3.1,0.8,6.1,2.7,8.6c1.7,2.2,4.4,3.4,7.2,3.3c2.9,0.1,5.7-1.1,7.6-3.3c2-2.4,3-5.5,2.8-8.6V584z"/>
<path class="st0" d="M840.8,602.3c-2.8,4.6-8.8,6.1-13.4,3.3c-0.7-0.4-1.4-1-2-1.6c-1.7-2-2.6-5-2.6-9.2v-16.7h5.2v16.7
	c0,3,0.4,5.1,1.3,6.2c1.1,1.2,2.6,1.8,4.2,1.7c1.6,0,3.1-0.3,4.5-1.1c1.2-0.7,2.2-1.9,2.7-3.2V578h5.2v28.3h-4.6L840.8,602.3z"/>
<path class="st0" d="M863.9,607c-4.1,0-7.2-1.3-9.5-3.9s-3.4-6-3.4-10.3v-1.2c-0.1-3.7,1.1-7.3,3.5-10.1c2.1-2.6,5.3-4.1,8.6-4
	c3.8,0,6.6,1.2,8.5,3.5s2.8,5.5,2.8,9.4v2.7h-18.1l-0.1,0.1c-0.1,2.4,0.5,4.9,1.9,6.9c1.3,1.8,3.5,2.8,5.8,2.7
	c1.6,0,3.1-0.2,4.6-0.7c1.3-0.5,2.4-1.2,3.4-2.1l2,3.3c-1.2,1.1-2.5,1.9-4,2.5C868,606.6,866,607,863.9,607z M863.1,581.7
	c-1.7,0-3.4,0.7-4.5,2.1c-1.2,1.5-2,3.4-2.2,5.3l0.1,0.1h12.8v-0.4c0.1-1.8-0.4-3.6-1.5-5.1C866.6,582.3,864.9,581.6,863.1,581.7
	L863.1,581.7z"/>
<path class="st0" d="M897.1,602.3c-2.8,4.6-8.8,6.1-13.4,3.3c-0.7-0.4-1.4-1-2-1.6c-1.7-2-2.6-5-2.6-9.2v-16.7h5.2v16.7
	c0,3,0.4,5.1,1.3,6.2c1.1,1.2,2.6,1.8,4.2,1.7c1.6,0,3.1-0.3,4.5-1.1c1.2-0.7,2.2-1.9,2.7-3.2V578h5.2v28.3h-4.6L897.1,602.3z"/>
<path class="st0" d="M920.3,607c-4.1,0-7.2-1.3-9.5-3.9s-3.4-6-3.4-10.3v-1.2c-0.1-3.7,1.1-7.3,3.5-10.1c2.1-2.6,5.3-4.1,8.6-4
	c3.8,0,6.6,1.2,8.5,3.5s2.8,5.5,2.8,9.4v2.7h-18.1l-0.1,0.1c-0.1,2.4,0.5,4.9,1.9,6.9c1.3,1.8,3.5,2.8,5.8,2.7
	c1.6,0,3.1-0.2,4.6-0.7c1.3-0.5,2.4-1.2,3.4-2.1l2,3.3c-1.2,1.1-2.5,1.9-4,2.5C924.4,606.6,922.4,607,920.3,607z M919.6,581.7
	c-1.7,0-3.4,0.7-4.5,2.1c-1.2,1.5-2,3.4-2.2,5.3l0.1,0.1h12.8v-0.4c0.1-1.8-0.4-3.6-1.5-5.1C923.1,582.3,921.4,581.6,919.6,581.7z"
	/>
<path class="st0" d="M952.1,598.9c0-1.1-0.4-2.1-1.3-2.8c-1.5-0.9-3.2-1.6-4.9-1.9c-2.7-0.5-5.4-1.5-7.7-3c-1.7-1.2-2.8-3.1-2.7-5.2
	c0-2.3,1.1-4.5,2.9-5.9c4.6-3.4,10.9-3.3,15.4,0.1c1.9,1.5,2.9,3.7,2.8,6.1l-0.1,0.2h-4.9c0-1.3-0.6-2.5-1.6-3.3
	c-1.1-1-2.6-1.6-4.1-1.5c-1.5-0.1-2.9,0.3-4.1,1.2c-0.8,0.7-1.3,1.8-1.3,2.9c0,1,0.4,2,1.2,2.6c1.5,0.9,3.1,1.5,4.8,1.7
	c2.8,0.5,5.5,1.5,7.9,3.1c1.7,1.2,2.8,3.2,2.7,5.3c0.1,2.4-1.1,4.7-3,6.1c-2.3,1.7-5.1,2.5-8,2.4c-3.6,0-6.5-0.9-8.5-2.7
	c-2-1.5-3.1-3.9-3-6.4l0.1-0.2h4.9c0,1.6,0.7,3.1,2,4c1.3,0.9,2.9,1.3,4.5,1.3c1.5,0.1,3-0.3,4.3-1.2
	C951.4,601.2,952.1,600.1,952.1,598.9z"/>
<path class="st1" d="M211.6,469.1c-1,1-2.6,0.9-3.6-0.1c-0.1-0.1-0.1-0.1-0.2-0.2l-36.7-40.5l-0.5-0.5c-0.7-0.6-1.5-0.9-2.3-1
	c-1-0.1-2,0.3-2.7,1l-0.1,0.1l-24.1,21.9l-0.3,0.3c-0.7,0.6-1.1,1.5-1.1,2.5c-0.1,1,0.3,2,1,2.7l0.1,0.1l60.8,67
	c0.3,0.4,0.6,0.8,1,1.1c1.1,1.1,2.6,1.8,4.2,1.8c1.8,0.1,3.6-0.5,5.1-1.6l0.3-0.3L354,396l0,0c-7.5-11.4-16.3-21.8-26.2-31.1l0,0
	L211.6,469.1z"/>
<path class="st1" d="M357.5,402.3L326.7,430l0,0c8.5,16.4,13.6,34.3,14.9,52.7h-7.5c-4.9,0-9.2,3.7-9.3,8.6c-0.2,4.9,3.6,9,8.5,9.2
	c0,0,0,0,0,0h8.3c-4.5,66.2-57.2,119-123.4,123.4l0,0v-7.5c0-4.9-3.7-9.2-8.6-9.3c-4.9-0.2-9,3.6-9.2,8.5c0,0,0,0,0,0
	c0,0.1,0,0.3,0,0.4v7.9l0,0C134.2,619.4,81.5,566.7,77,500.5h7.5c4.9,0,9.2-3.7,9.3-8.6c0.2-4.9-3.6-9-8.5-9.2c0,0,0,0,0,0H77
	c4.5-66.2,57.2-119,123.4-123.4l0,0v7.5c0,4.9,3.7,9.2,8.6,9.3c4.9,0.2,9-3.6,9.2-8.5c0,0,0,0,0,0c0-0.1,0-0.3,0-0.4v-7.9l0,0
	c27.1,1.9,52.6,13.3,72.7,28.8l0,0l30.5-27.2l0,0c-29.9-25.2-69.2-42-111.2-42.3c-95.4-0.6-173.3,76.5-173.9,172
	s76.4,173.6,172,174.2s173.5-76.5,174-172.1C382.7,460.1,373.2,428.5,357.5,402.3z"/>
<path class="st2" d="M359.2,391.1l22.3-20c1.9-1.8,2.2-4.7,0.7-6.8c-6.1-8.2-12.7-16-19.9-23.3c-1.9-1.9-5-2.1-7-0.3l-22.3,20l0,0
	C342.7,370,351.5,380.1,359.2,391.1z"/>
<rect x="296.5" y="314" class="st3" width="286.6" height="63.6"/>
<g>
	<text transform="matrix(1 0 0 1 296.51 335.61)" class="st4 st5 st6">Busi</text>
	<text transform="matrix(1 0 0 1 363.05 335.61)" class="st4 st5 st6">n</text>
	<text transform="matrix(1 0 0 1 383.36 335.61)" class="st4 st5 st6">ess</text>
</g>
</svg>
