<svg id="Layer_1" data-name="Layer 1" xmlns="http://www.w3.org/2000/svg" viewBox="0 0 1000 1000"><defs><style>.cls-1{fill:#fff;}.cls-2{fill:#1e4079;}.cls-3{fill:#efb41a;}.cls-4{fill:none;}.cls-5,.cls-6,.cls-7{isolation:isolate;}.cls-6,.cls-7{font-size:29.13px;fill:#14612c;font-family:Montserrat-Bold, Montserrat;font-weight:700;}.cls-7{letter-spacing:0.01em;}</style></defs><title>jaldee bussinesslogo-01</title><path class="cls-1" d="M495.2,490.6c0,10.7-2.3,19.8-7,27.5a46.07,46.07,0,0,1-19,17.6,58.37,58.37,0,0,1-26.5,6,61.88,61.88,0,0,1-14.6-1.6,41.81,41.81,0,0,1-12.5-4.9,54.85,54.85,0,0,1-11.1-8.8l15.9-15.7a44.11,44.11,0,0,0,9.7,7.2c3.1,1.5,7.3,2.3,12.6,2.3a30.88,30.88,0,0,0,15.3-3.6,23.22,23.22,0,0,0,9.8-10.7c2.3-4.7,3.4-10.4,3.4-17.1v-97h23.9v98.8Z"/><path class="cls-1" d="M595.6,541.7H573.5V530.2a38.46,38.46,0,0,1-12.9,8.8c-4.5,1.8-10.1,2.6-17,2.6a54.69,54.69,0,0,1-17.6-2.5,31.73,31.73,0,0,1-12.5-7.6c-5.9-6.1-8.9-14.2-8.9-24.1a32.54,32.54,0,0,1,4.4-16.9,29.2,29.2,0,0,1,13.1-11.3c5.8-2.7,12.8-4.1,21.1-4.1h29.6v-8c0-7.2-1.9-12.4-5.8-15.8s-10.1-5.1-18.7-5.1c-6.3,0-11.1.8-14.6,2.4s-6.8,4.4-10,8.4l-14.8-13.9c5.1-6.1,10.7-10.3,16.9-12.7s13.9-3.6,23.4-3.6q46.2,0,46.2,38.6l.2,76.3Zm-22.5-41.8v-9.1H546.7c-6.6,0-11.5,1.4-15,4.2s-5.1,6.8-5.1,12c0,10.6,6.8,15.9,20.5,15.9a51.24,51.24,0,0,0,12.1-1.2,20.5,20.5,0,0,0,9-5.1c3.1-3.3,4.9-8.9,4.9-16.7Z"/><path class="cls-1" d="M645.2,541.7h-6.9c-10.2,0-17.8-2.9-23-8.8s-7.7-13.3-7.7-22.2V391.8h22.6V509.4q0,6.75,2.7,9.9c1.8,2.1,4.9,3.2,9.4,3.2h2.9Z"/><path class="cls-1" d="M745.6,541.7H723.5V528.4a37,37,0,0,1-8.6,8,33.27,33.27,0,0,1-9.5,4.1,50.29,50.29,0,0,1-11.6,1.2,43.81,43.81,0,0,1-15.5-2.7,31.14,31.14,0,0,1-19.9-20.1,70.71,70.71,0,0,1-3.6-15.8,173.61,173.61,0,0,1-.9-18.8,171.65,171.65,0,0,1,.9-18.7,68.67,68.67,0,0,1,3.6-15.7,35.58,35.58,0,0,1,8-12.9,32.48,32.48,0,0,1,11.9-7.4,43.34,43.34,0,0,1,15.3-2.6,44,44,0,0,1,16.5,2.8,33.25,33.25,0,0,1,13,9.9V392h22.6l-.1,149.7Zm-22.7-57.4a98.89,98.89,0,0,0-1.7-19.5c-1.2-5.4-3.4-9.6-6.9-12.8s-8.3-4.8-14.6-4.8-11.3,1.6-14.8,4.9a23.22,23.22,0,0,0-6.9,12.8,89.6,89.6,0,0,0-1.7,19.4,98.89,98.89,0,0,0,1.7,19.5,24.5,24.5,0,0,0,6.9,12.9c3.5,3.3,8.4,4.9,14.8,4.9,9.2,0,15.4-3.3,18.5-9.9s4.7-15.7,4.7-27.4Z"/><path class="cls-1" d="M851.4,490.8H778.6q0,9.9,3.3,16.8a25.33,25.33,0,0,0,9.7,10.8c4.2,2.6,9.4,3.8,15.6,3.8s11.2-.9,15-2.6a43.86,43.86,0,0,0,12.2-8.9l14.4,13.4c-6.1,6.1-12.3,10.6-18.6,13.3s-14.1,4.2-23.5,4.2a62.08,62.08,0,0,1-20.1-3.1,41.91,41.91,0,0,1-16.1-9.9,46,46,0,0,1-10.6-17.8c-2.5-7.3-3.8-16.2-3.8-26.6,0-12,2-22.3,5.9-30.9a44.91,44.91,0,0,1,16.6-19.7c7.1-4.5,15.5-6.8,25.1-6.8,9.8,0,18.3,2.3,25.5,6.8a42.67,42.67,0,0,1,16.4,19.1,67.69,67.69,0,0,1,5.6,28.1v10Zm-22.3-15.7a43.21,43.21,0,0,0-3-15.2,22.71,22.71,0,0,0-8.5-10.4,23.94,23.94,0,0,0-13.7-3.9,24.46,24.46,0,0,0-13.7,3.9,23.28,23.28,0,0,0-8.7,10.4,26.75,26.75,0,0,0-2,6.1c-.3,1.8-.6,4.8-.9,9.1Z"/><path class="cls-1" d="M957.3,490.8H884.5q0,9.9,3.3,16.8a25.33,25.33,0,0,0,9.7,10.8c4.2,2.6,9.4,3.8,15.6,3.8s11.2-.9,15-2.6a43.86,43.86,0,0,0,12.2-8.9l14.4,13.4c-6.1,6.1-12.3,10.6-18.6,13.3s-14.1,4.2-23.5,4.2a62.08,62.08,0,0,1-20.1-3.1,41.91,41.91,0,0,1-16.1-9.9,46,46,0,0,1-10.6-17.8c-2.5-7.3-3.8-16.2-3.8-26.6,0-12,2-22.3,5.9-30.9a44.91,44.91,0,0,1,16.6-19.7c7.1-4.5,15.5-6.8,25.1-6.8,9.8,0,18.3,2.3,25.5,6.8a42.67,42.67,0,0,1,16.4,19.1,67.69,67.69,0,0,1,5.6,28.1v10Zm-22.2-15.7a43.21,43.21,0,0,0-3-15.2,22.78,22.78,0,0,0-8.5-10.4,23.94,23.94,0,0,0-13.7-3.9,24.46,24.46,0,0,0-13.7,3.9,23.28,23.28,0,0,0-8.7,10.4,26.75,26.75,0,0,0-2,6.1c-.3,1.8-.6,4.8-.9,9.1Z"/><path class="cls-1" d="M427.3,596.7H413l-3.4,9.8h-5.3L418,568.4h4.4l13.4,38.1h-5.3Zm-12.9-4.3h11.4l-5.5-16.3h-.2Z"/><path class="cls-1" d="M447.8,598.1l.4,2h.2l.5-2,6.5-20h5.3l-10.4,28.3h-3.9l-10.6-28.2h5.3Z"/><path class="cls-1" d="M462.7,592.1a15.23,15.23,0,0,1,3.4-10.3,11.42,11.42,0,0,1,9.2-4.1,11.65,11.65,0,0,1,9.3,4.1,15.5,15.5,0,0,1,3.4,10.4v.6a15.5,15.5,0,0,1-3.4,10.4,12.8,12.8,0,0,1-18.11.49l-.49-.49a15.23,15.23,0,0,1-3.4-10.3l.1-.8Zm5.1.5a12.94,12.94,0,0,0,1.9,7.4,6.13,6.13,0,0,0,5.6,2.9,6.34,6.34,0,0,0,5.6-2.9,12.94,12.94,0,0,0,1.9-7.4V592a13.18,13.18,0,0,0-1.9-7.4,6.32,6.32,0,0,0-5.6-3,6.22,6.22,0,0,0-5.6,3,13.18,13.18,0,0,0-1.9,7.4Z"/><path class="cls-1" d="M498.8,570.9h-5.2v-5.3h5.2Zm0,35.6h-5.2V578.2h5.2Z"/><path class="cls-1" d="M504.5,592.9c0-4.5,1-8.2,2.9-11a9.38,9.38,0,0,1,8.2-4.2,10.24,10.24,0,0,1,4.4.9,8.66,8.66,0,0,1,3.3,2.7V565.7h5.2v40.8h-3.9l-.8-3.6a9.13,9.13,0,0,1-3.4,3.1,10.18,10.18,0,0,1-4.7,1,9.63,9.63,0,0,1-8.1-3.8,16,16,0,0,1-2.9-9.9v-.4Zm5.1.5a12,12,0,0,0,1.8,6.9,6.19,6.19,0,0,0,5.4,2.6,7.13,7.13,0,0,0,3.9-1,8.14,8.14,0,0,0,2.6-2.9V585.8a7.76,7.76,0,0,0-2.6-2.8,6.78,6.78,0,0,0-3.8-1,5.85,5.85,0,0,0-5.5,3.1,15.41,15.41,0,0,0-1.8,7.9v.4Z"/><path class="cls-1" d="M555.6,593.3l.7,5h.2l.9-5,6.7-24.9h5l6.8,24.9.9,5.1h.2l.7-5.1,5.4-24.9h5.6l-9.2,38.1h-4.6l-7.6-26.4-.6-3.4h-.2l-.5,3.4-7.7,26.4h-4.6l-9.2-38.1h5.6Z"/><path class="cls-1" d="M608.8,606.5c-.2-.9-.3-1.6-.4-2.3a13.42,13.42,0,0,1-.2-2,11.27,11.27,0,0,1-3.8,3.4,9.7,9.7,0,0,1-5,1.4c-2.9,0-5.2-.8-6.7-2.3a8.44,8.44,0,0,1-2.3-6.2,7.2,7.2,0,0,1,3.3-6.3,15.67,15.67,0,0,1,8.9-2.3h5.6v-2.8a5,5,0,0,0-1.5-3.9,5.77,5.77,0,0,0-4.3-1.5,6.07,6.07,0,0,0-4.1,1.3,3.7,3.7,0,0,0-1.5,3l-4.9.1-.1-.2c-.1-2.1.8-3.9,2.9-5.6a11.91,11.91,0,0,1,7.9-2.6,11.67,11.67,0,0,1,7.7,2.4c2,1.6,2.9,4,2.9,7v13.6a25.53,25.53,0,0,0,.2,2.9,13.44,13.44,0,0,0,.6,2.8l-5.2.1Zm-8.5-3.8a9.37,9.37,0,0,0,5-1.4,6.86,6.86,0,0,0,2.9-3.3v-4.6h-5.8a7.35,7.35,0,0,0-5,1.6,4.81,4.81,0,0,0-1.9,3.7,3.92,3.92,0,0,0,1.2,3A6.14,6.14,0,0,0,600.3,602.7Z"/><path class="cls-1" d="M625.4,570.9h-5.2v-5.3h5.2Zm0,35.6h-5.2V578.2h5.2Z"/><path class="cls-1" d="M639.4,571.4v6.8h5.4V582h-5.4v17.2a4.07,4.07,0,0,0,.8,2.8,3.12,3.12,0,0,0,2.2.8,3.74,3.74,0,0,0,1-.1,5.34,5.34,0,0,1,.9-.2l.7,3.5a5.64,5.64,0,0,1-1.7.8,8.22,8.22,0,0,1-2.2.3,6.49,6.49,0,0,1-5-1.9,8.32,8.32,0,0,1-1.9-5.9V582h-4.5v-3.8h4.5v-6.8Z"/><path class="cls-1" d="M654.8,570.9h-5.2v-5.3h5.2Zm0,35.6h-5.2V578.2h5.2Z"/><path class="cls-1" d="M666.2,578.2l.4,4.2a9.78,9.78,0,0,1,3.5-3.5,9.65,9.65,0,0,1,4.9-1.2,9.22,9.22,0,0,1,7.1,2.7c1.7,1.8,2.5,4.5,2.5,8.3v17.9h-5.2V588.8c0-2.5-.5-4.3-1.5-5.3a6.12,6.12,0,0,0-4.5-1.6,7.21,7.21,0,0,0-4,1,6.17,6.17,0,0,0-2.6,2.7v21h-5.2V578.3h4.6Z"/><path class="cls-1" d="M690.1,592.9c0-4.5,1-8.2,2.9-11a9.32,9.32,0,0,1,8.1-4.2,9.85,9.85,0,0,1,4.7,1.1,9.21,9.21,0,0,1,3.4,3.1l.6-3.7h4.1v28.5a11,11,0,0,1-3.2,8.4c-2.1,1.9-5.2,2.9-9.1,2.9a18.15,18.15,0,0,1-4.4-.6,20.81,20.81,0,0,1-4.2-1.5l.8-4a20.9,20.9,0,0,0,3.6,1.3,14.58,14.58,0,0,0,4.1.5A7.87,7.87,0,0,0,707,612a7.19,7.19,0,0,0,1.7-5.2v-3.2a8.66,8.66,0,0,1-3.3,2.7,10.71,10.71,0,0,1-4.5.9,9.72,9.72,0,0,1-8.1-3.8,16,16,0,0,1-2.9-9.9v-.6Zm5.1.5a12.23,12.23,0,0,0,1.8,6.9,6,6,0,0,0,5.4,2.6,6.66,6.66,0,0,0,3.9-1.1,8.54,8.54,0,0,0,2.6-3v-13a8.14,8.14,0,0,0-2.6-2.9,6.74,6.74,0,0,0-3.8-1.1,5.85,5.85,0,0,0-5.5,3.1,15.41,15.41,0,0,0-1.8,7.9v.6Z"/><path class="cls-1" d="M738.1,570.9h-5.2v-5.3h5.2Zm0,35.6h-5.2V578.2h5.2Z"/><path class="cls-1" d="M749.6,578.2l.4,4.2a9.78,9.78,0,0,1,3.5-3.5,9.65,9.65,0,0,1,4.9-1.2,9.22,9.22,0,0,1,7.1,2.7c1.7,1.8,2.5,4.5,2.5,8.3v17.9h-5.2V588.8c0-2.5-.5-4.3-1.5-5.3a6.12,6.12,0,0,0-4.5-1.6,7.21,7.21,0,0,0-4,1,6.17,6.17,0,0,0-2.6,2.7v21H745V578.3h4.6Z"/><path class="cls-1" d="M816.4,590.8a17.79,17.79,0,0,1-.9,5.7,15.6,15.6,0,0,1-2.5,4.8l5.7,5.5-3.5,3.4-5.8-5.6a13.12,13.12,0,0,1-4,1.8,16.27,16.27,0,0,1-4.5.6,13.74,13.74,0,0,1-10.8-4.6,16.55,16.55,0,0,1-4.2-11.6V584a16.71,16.71,0,0,1,4.2-11.6,13.86,13.86,0,0,1,10.8-4.6,14.54,14.54,0,0,1,11.2,4.6,16.19,16.19,0,0,1,4.3,11.6Zm-5.2-6.8a12.87,12.87,0,0,0-2.8-8.6,9.21,9.21,0,0,0-7.6-3.3,8.8,8.8,0,0,0-7.2,3.3,13.2,13.2,0,0,0-2.7,8.6v6.8a13.2,13.2,0,0,0,2.7,8.6,8.83,8.83,0,0,0,7.2,3.3,9.47,9.47,0,0,0,7.6-3.3,12.72,12.72,0,0,0,2.8-8.6Z"/><path class="cls-1" d="M840.8,602.3a9.77,9.77,0,0,1-15.4,1.7c-1.7-2-2.6-5-2.6-9.2V578.1H828v16.7c0,3,.4,5.1,1.3,6.2a5.14,5.14,0,0,0,4.2,1.7,8.83,8.83,0,0,0,4.5-1.1,6.61,6.61,0,0,0,2.7-3.2V578h5.2v28.3h-4.6Z"/><path class="cls-1" d="M863.9,607c-4.1,0-7.2-1.3-9.5-3.9s-3.4-6-3.4-10.3v-1.2a15,15,0,0,1,3.5-10.1,10.84,10.84,0,0,1,8.6-4c3.8,0,6.6,1.2,8.5,3.5s2.8,5.5,2.8,9.4v2.7H856.3l-.1.1a11.49,11.49,0,0,0,1.9,6.9,6.66,6.66,0,0,0,5.8,2.7,13.09,13.09,0,0,0,4.6-.7,10.69,10.69,0,0,0,3.4-2.1l2,3.3a11.9,11.9,0,0,1-4,2.5A15.27,15.27,0,0,1,863.9,607Zm-.8-25.3a5.69,5.69,0,0,0-4.5,2.1,10.16,10.16,0,0,0-2.2,5.3l.1.1h12.8v-.4a8.14,8.14,0,0,0-1.5-5.1,5.64,5.64,0,0,0-4.7-2Z"/><path class="cls-1" d="M897.1,602.3a9.77,9.77,0,0,1-15.4,1.7c-1.7-2-2.6-5-2.6-9.2V578.1h5.2v16.7c0,3,.4,5.1,1.3,6.2a5.14,5.14,0,0,0,4.2,1.7,8.85,8.85,0,0,0,4.5-1.1,6.61,6.61,0,0,0,2.7-3.2V578h5.2v28.3h-4.6Z"/><path class="cls-1" d="M920.3,607c-4.1,0-7.2-1.3-9.5-3.9s-3.4-6-3.4-10.3v-1.2a15,15,0,0,1,3.5-10.1,10.84,10.84,0,0,1,8.6-4c3.8,0,6.6,1.2,8.5,3.5s2.8,5.5,2.8,9.4v2.7H912.7l-.1.1a11.49,11.49,0,0,0,1.9,6.9,6.66,6.66,0,0,0,5.8,2.7,13.09,13.09,0,0,0,4.6-.7,10.69,10.69,0,0,0,3.4-2.1l2,3.3a11.9,11.9,0,0,1-4,2.5A15.63,15.63,0,0,1,920.3,607Zm-.7-25.3a5.69,5.69,0,0,0-4.5,2.1,10.16,10.16,0,0,0-2.2,5.3l.1.1h12.8v-.4a8.14,8.14,0,0,0-1.5-5.1A5.78,5.78,0,0,0,919.6,581.7Z"/><path class="cls-2" d="M952.1,598.9a3.38,3.38,0,0,0-1.3-2.8,14,14,0,0,0-4.9-1.9,20.64,20.64,0,0,1-7.7-3,6.07,6.07,0,0,1-2.7-5.2,7.52,7.52,0,0,1,2.9-5.9,12.9,12.9,0,0,1,15.4.1,7.35,7.35,0,0,1,2.8,6.1l-.1.2h-4.9a4.36,4.36,0,0,0-1.6-3.3,5.75,5.75,0,0,0-4.1-1.5,6.09,6.09,0,0,0-4.1,1.2,3.76,3.76,0,0,0-1.3,2.9,3.1,3.1,0,0,0,1.2,2.6,13.2,13.2,0,0,0,4.8,1.7,20.24,20.24,0,0,1,7.9,3.1,6.25,6.25,0,0,1,2.7,5.3,7.33,7.33,0,0,1-3,6.1,12.53,12.53,0,0,1-8,2.4c-3.6,0-6.5-.9-8.5-2.7a7.81,7.81,0,0,1-3-6.4l.1-.2h4.9a4.91,4.91,0,0,0,2,4,8.25,8.25,0,0,0,4.5,1.3,6.85,6.85,0,0,0,4.3-1.2A3.58,3.58,0,0,0,952.1,598.9Z"/><path class="cls-2" d="M211.6,469.1A2.57,2.57,0,0,1,208,469c-.06-.07-.12-.13-.17-.2l-36.7-40.5-.5-.5a4.35,4.35,0,0,0-2.3-1,3.48,3.48,0,0,0-2.7,1l-.1.1-24.1,21.9-.3.3a3.39,3.39,0,0,0-1.1,2.5,3.48,3.48,0,0,0,1,2.7l.1.1,60.8,67a5,5,0,0,0,1,1.1,6,6,0,0,0,4.2,1.8,7.62,7.62,0,0,0,5.1-1.6l.3-.3L354,396h0a173.22,173.22,0,0,0-26.2-31.1h0Z"/><path class="cls-2" d="M357.5,402.3,326.7,430h0a135.56,135.56,0,0,1,14.9,52.7h-7.5c-4.9,0-9.2,3.7-9.3,8.6a8.85,8.85,0,0,0,8.51,9.19h8.29A132.61,132.61,0,0,1,218.2,623.9h0v-7.5c0-4.9-3.7-9.2-8.6-9.3a8.85,8.85,0,0,0-9.19,8.51c0,.13,0,.26,0,.39v7.9h0A132.78,132.78,0,0,1,77,500.5h7.5c4.9,0,9.2-3.7,9.3-8.6a8.85,8.85,0,0,0-8.51-9.19H77A132.61,132.61,0,0,1,200.4,359.3h0v7.5c0,4.9,3.7,9.2,8.6,9.3a8.85,8.85,0,0,0,9.19-8.51c0-.13,0-.26,0-.39v-7.9h0c27.1,1.9,52.6,13.3,72.7,28.8h0l30.5-27.2h0c-29.9-25.2-69.2-42-111.2-42.3-95.4-.6-173.3,76.5-173.9,172s76.4,173.6,172,174.2,173.5-76.5,174-172.1C382.7,460.1,373.2,428.5,357.5,402.3Z"/><path class="cls-3" d="M359.2,391.1l22.3-20a5.1,5.1,0,0,0,.7-6.8A210.43,210.43,0,0,0,362.3,341a5.12,5.12,0,0,0-7-.3l-22.3,20h0A206.81,206.81,0,0,1,359.2,391.1Z"/><rect class="cls-4" x="296.5" y="314" width="286.6" height="63.6"/><g class="cls-5"><text class="cls-6" transform="translate(296.51 335.61)">Busi</text><text class="cls-7" transform="translate(363.05 335.61)">n</text><text class="cls-6" transform="translate(383.36 335.61)">ess</text></g></svg>