<?xml version="1.0" encoding="utf-8"?>
<!-- Generator: Adobe Illustrator 22.1.0, SVG Export Plug-In . SVG Version: 6.00 Build 0)  -->
<svg version="1.1" id="Layer_1" xmlns="http://www.w3.org/2000/svg" xmlns:xlink="http://www.w3.org/1999/xlink" x="0px" y="0px"
	 viewBox="0 0 32 32" style="enable-background:new 0 0 32 32;" xml:space="preserve">
<style type="text/css">
	.st0{fill:#4AC3FF;}
	.st1{fill:#FFAE00;}
	.st2{fill:#FFFF00;}
	.st3{opacity:5.000000e-02;}
	.st4{opacity:0.1;}
	.st5{fill:#FFFFFF;}
	.st6{fill:none;stroke:#4AC3FF;stroke-width:0.5;stroke-linecap:round;stroke-miterlimit:10;}
</style>
<circle class="st0" cx="16" cy="16" r="14"/>
<path class="st1" d="M14.6,12.3L13.8,8c0-0.1,0-0.1,0-0.2c0,0,0,0,0,0c-0.1,0.1-0.2,0.2-0.2,0.3c0,0.1,0,0.2,0,0.2l0.9,4.3
	c0,0.2,0,0.4-0.1,0.5C14.6,12.9,14.7,12.6,14.6,12.3z"/>
<path class="st2" d="M27,20.7c-0.2,0.2-0.5,0.3-0.8,0.3c-0.1,0-0.1,0-0.2,0L18.8,19c-0.2-0.1-0.4-0.2-0.5-0.4
	c-0.9-1.6-2.6-2.6-4.6-2.6c-0.9,0-1.8,0.2-2.5,0.6c-0.2,0.1-0.4,0.1-0.6,0.1l-3-0.8c-0.1,0-0.1,0-0.2-0.1c0,0,0,0-0.1,0
	c-1.2-0.7-1.8-2.1-1.6-3.4l0.9-4C6.7,8.2,6.9,8.1,7,8c0.2,0,0.3,0,0.5,0.1l0.7,0.6C8.5,9,8.8,9.5,8.9,10l0.3,1.9
	c0,0.2,0.1,0.3,0.3,0.4l3.9,1.2c0.6,0.2,1.1-0.3,1-0.9l-0.9-4.3c0-0.1,0-0.1,0-0.2c0-0.1,0.1-0.2,0.2-0.3c0.2-0.1,0.4-0.1,0.6,0
	L15.9,9c1,0.9,1.7,2,2.1,3.2l1,2.7c0.1,0.2,0.3,0.4,0.5,0.5l4.8,1.5c1.3,0.5,2.4,1.5,2.8,2.8C27.3,20.1,27.2,20.5,27,20.7z"/>
<path class="st3" d="M26.2,20.9c0,0-0.1,0-0.1,0l-7.5-2.1c-0.1-0.3-0.3-0.5-0.5-0.8l8.9,2.5c0,0-0.1,0.1-0.1,0.1
	C26.7,20.8,26.5,20.9,26.2,20.9C26.2,20.9,26.2,20.9,26.2,20.9z M7.7,15.7L7.7,15.7l-0.2-0.1c-1-0.7-1.6-1.9-1.4-3.2l0.9-3.9
	c0-0.1,0.1-0.2,0.2-0.2c0,0,0,0,0,0c0.1,0,0.2,0,0.2,0.1L8,8.9l-0.6,2.9c-0.2,1.5,0.4,2.9,1.7,3.6l0.1,0c0.1,0.1,0.2,0.1,0.2,0.1
	l2.4,0.7c-0.3,0.1-0.6,0.2-0.8,0.4L7.7,15.7z"/>
<path class="st4" d="M27.4,19.5c-0.4-1.3-1.5-2.4-2.8-2.8l-4.8-1.5c-0.2-0.1-0.4-0.3-0.5-0.5l-1-2.7c-0.4-1.2-1.1-2.3-2.1-3.2
	l-1.6-1.2c-0.2-0.1-0.4-0.1-0.6,0c-0.1,0.1-0.2,0.1-0.2,0.2c0.2-0.1,0.4-0.1,0.5,0L15.9,9c1,0.9,1.7,2,2.1,3.2l1,2.7
	c0.1,0.2,0.3,0.4,0.5,0.5l4.8,1.5c1.3,0.5,2.4,1.5,2.8,2.8c0.1,0.3,0.1,0.6-0.1,0.8c0,0,0.1,0,0.1-0.1
	C27.5,20.2,27.5,19.8,27.4,19.5z M13.6,13.2L9.7,12c-0.2-0.1-0.3-0.2-0.3-0.4L9.1,9.7C9,9.2,8.7,8.8,8.3,8.4L7.7,7.9
	C7.6,7.8,7.4,7.7,7.2,7.8C7.1,7.8,7,7.9,6.9,8.1C7,8.1,7,8,7,8c0.2,0,0.3,0,0.5,0.1l0.7,0.6C8.5,9,8.8,9.5,8.9,10l0.3,1.9
	c0,0.2,0.1,0.3,0.3,0.4l3.9,1.2c0.4,0.1,0.8-0.1,0.9-0.4C14.2,13.2,13.9,13.3,13.6,13.2z"/>
<path class="st4" d="M18.7,14.9c-0.4-0.1-0.6-0.4-0.8-0.7c-0.3-0.8-0.9-2.3-1.2-3.3c-0.4-1.1-1.9-2.3-2.9-2.9c0,0,0,0,0.1-0.1
	c0,0,0.1,0,0.2,0c0.1,0,0.1,0,0.2,0.1l1.6,1.2c1,0.8,1.7,1.9,2.1,3.1l1,2.7L18.7,14.9z"/>
<path class="st5" d="M18.5,21.3c0,2.7-2.2,4.8-4.8,4.8c-2.7,0-4.8-2.2-4.8-4.8c0-2.7,2.2-4.8,4.8-4.8C16.4,16.5,18.5,18.6,18.5,21.3
	z"/>
<path class="st0" d="M17.1,19.9l-3.9,3.9c-0.1,0.1-0.2,0.1-0.3,0l-2.3-2.3c-0.1-0.1-0.1-0.2,0-0.3l0.8-0.8c0.1-0.1,0.2-0.1,0.3,0
	l1.2,1.2c0.1,0.1,0.2,0.1,0.3,0l3.1-2.4L17.1,19.9z"/>
<polygon class="st4" points="17.4,19.9 13.3,23.9 13.2,23.8 17.1,19.9 16.5,19.3 16.6,19.2 "/>
<path class="st6" d="M25.9,18.7c0,0,0.1,0.1,0.1,0.1"/>
<path class="st6" d="M22.9,17.2c0,0,1.7,0.5,2.3,0.9"/>
</svg>
