<?xml version="1.0" encoding="utf-8"?>
<!-- Generator: Adobe Illustrator 22.1.0, SVG Export Plug-In . SVG Version: 6.00 Build 0)  -->
<svg version="1.1" id="Layer_1" xmlns="http://www.w3.org/2000/svg" xmlns:xlink="http://www.w3.org/1999/xlink" x="0px" y="0px"
	 viewBox="0 0 32 32" style="enable-background:new 0 0 32 32;" xml:space="preserve">
<style type="text/css">
	.st0{fill:#3BCCA5;}
	.st1{fill:#FFFFFF;}
	.st2{fill:#FFFF00;}
	.st3{fill:none;stroke:#3BCCA5;stroke-width:0.5;stroke-linecap:round;stroke-linejoin:round;stroke-miterlimit:10;}
	.st4{opacity:5.000000e-02;enable-background:new    ;}
</style>
<circle class="st0" cx="16" cy="16" r="14"/>
<path class="st1" d="M24.4,12.1l-9.8,9.8c-0.3,0.3-0.8,0.3-1.2,0l-5.8-5.8c-0.3-0.3-0.3-0.8,0-1.2l1.8-1.8c0.3-0.3,0.8-0.3,1.2,0
	l2.9,2.9c0.3,0.3,0.8,0.3,1.1,0.1l7.9-6.1c0.3-0.3,0.8-0.2,1.1,0.1l0.9,0.9C24.7,11.2,24.7,11.8,24.4,12.1z"/>
<path class="st2" d="M24.4,12.1l-9.8,9.8c-0.3,0.3-0.8,0.3-1.2,0l-5.8-5.8c-0.3-0.3-0.3-0.8,0-1.2l1.8-1.8c0.3-0.3,0.8-0.3,1.2,0
	l2.9,2.9c0.3,0.3,0.8,0.3,1.1,0.1l7.9-6.1c0.3-0.3,0.8-0.2,1.1,0.1l0.9,0.9C24.7,11.2,24.7,11.8,24.4,12.1z"/>
<line class="st3" x1="12.1" y1="16.4" x2="12.5" y2="16.9"/>
<line class="st3" x1="9.7" y1="14" x2="11.4" y2="15.8"/>
<path class="st4" d="M14,22c-0.1,0-0.3-0.1-0.4-0.1l-3.3-3.3c-0.2-0.2-0.2-0.5-0.1-0.5c0.1-0.2,0.3-0.3,0.5-0.3c0.1,0,0.2,0,0.2,0.1
	l1.8,0.9c0.3,0.2,0.7,0.3,1.1,0.3l0,0c0.5,0,0.9-0.1,1.3-0.4l7.8-6.5c0.1-0.1,0.2-0.1,0.3-0.1c0.2,0,0.4,0.1,0.5,0.3
	c0,0.1,0.1,0.3-0.1,0.5L14.5,22C14.3,22,14.1,22,14,22z"/>
</svg>
