<?xml version="1.0" encoding="utf-8"?>
<!-- Generator: Adobe Illustrator 22.1.0, SVG Export Plug-In . SVG Version: 6.00 Build 0)  -->
<svg version="1.1" id="Layer_1" xmlns="http://www.w3.org/2000/svg" xmlns:xlink="http://www.w3.org/1999/xlink" x="0px" y="0px"
	 viewBox="0 0 32 32" style="enable-background:new 0 0 32 32;" xml:space="preserve">
<style type="text/css">
	.st0{opacity:0.1;}
	.st1{fill:#FFAF49;}
	.st2{fill:#FFFFFF;}
</style>
<g>
	<path class="st0" d="M9,14.8C8.7,14.9,8.4,15,8,15c-0.2,0-0.4,0-0.5-0.1l0.8-0.8C8.4,14.4,8.7,14.6,9,14.8z"/>
	<path class="st0" d="M8,15.5c0,0.6-0.4,1-1,1.3C7.3,16.9,7.6,17,8,17s0.7-0.1,1-0.2C8.4,16.5,8,16.1,8,15.5z"/>
	<path class="st0" d="M7,16.8c-0.1,0-0.1,0.1-0.2,0.1c0-0.1-0.1-0.2-0.1-0.3C6.8,16.7,6.9,16.7,7,16.8z"/>
	<g>
		<g>
			<circle class="st1" cx="16" cy="16" r="14"/>
		</g>
		<path class="st0" d="M25.2,15.6l-7.5-8.2c-0.4-0.5-1.2-0.5-1.7,0l-8.2,8.2c-0.6,0.7-0.1,1.8,0.8,1.8h1.1v6.2
			c0,0.8,0.6,1.4,1.4,1.4h2.4c0.6,0,1-0.4,1-1v-2.2c0-0.9,0.7-1.6,1.6-1.6h0.6c0.9,0,1.6,0.7,1.6,1.6V25h3.3c0.8,0,1.4-0.6,1.4-1.4
			v-6.2h1.1C25.2,17.3,25.7,16.3,25.2,15.6z M15,13.5c0-0.4,0.2-0.8,0.5-1.1c0.5-0.5,1.4-0.5,1.9,0c0.3,0.3,0.5,0.7,0.5,1.1v1.9H15
			V13.5z"/>
		<path class="st2" d="M22.2,16.9v6.7c0,0.8-0.6,1.4-1.4,1.4h-2.2c-0.6,0-1.2-0.5-1.2-1.2v-2c0-0.9-0.7-1.6-1.6-1.6h-0.6
			c-0.9,0-1.6,0.7-1.6,1.6v2c0,0.6-0.5,1.2-1.2,1.2h-2.2c-0.8,0-1.4-0.6-1.4-1.4v-6.7c0-0.8,0.6-1.4,1.4-1.4h10.5
			C21.6,15.4,22.2,16.1,22.2,16.9z"/>
		<polygon class="st0" points="22.2,16.4 22.2,17.3 8.8,18.9 8.8,16.4 		"/>
		<path class="st2" d="M24.2,15.5L23.7,15l-0.3-0.4L21.9,13l-0.4-0.5L20,11l-0.5-0.5L18.2,9l-0.6-0.6l-0.9-1c-0.4-0.5-1.2-0.5-1.7,0
			l-0.8,0.8l-0.8,0.8l-2,2c0,0,0,0,0,0l-4,4c0,0,0,0,0,0l-0.6,0.6c-0.3,0.3-0.3,0.7-0.2,1.1c0,0.1,0.1,0.2,0.1,0.3
			c0.2,0.3,0.5,0.5,0.9,0.5h15.7c0.3,0,0.6-0.1,0.8-0.3c0.1-0.2,0.3-0.3,0.3-0.6C24.5,16.1,24.4,15.8,24.2,15.5z M17,15.4h-2.9v-1.9
			c0-0.2,0-0.4,0.1-0.5c0.1-0.2,0.2-0.3,0.3-0.5c0,0,0,0,0,0c0.3-0.3,0.6-0.4,1-0.4c0.1,0,0.2,0,0.3,0c0.2,0,0.4,0.2,0.6,0.3
			l0.1,0.1c0.1,0.1,0.2,0.2,0.3,0.4c0.1,0.2,0.2,0.4,0.2,0.6V15.4z"/>
		<path class="st0" d="M17,14.8C17,14.8,17,14.8,17,14.8L17,14.8C17,14.8,17,14.8,17,14.8z"/>
		<path class="st2" d="M15.5,25L15.5,25c-0.6,0-1-0.4-1-1v-2.1c0-0.5,0.4-0.9,0.9-0.9h0.2c0.5,0,0.9,0.4,0.9,0.9V24
			C16.5,24.6,16.1,25,15.5,25z"/>
	</g>
</g>
</svg>
