<?xml version="1.0" encoding="utf-8"?>
<!-- Generator: Adobe Illustrator 22.1.0, SVG Export Plug-In . SVG Version: 6.00 Build 0)  -->
<svg version="1.1" id="Layer_1" xmlns="http://www.w3.org/2000/svg" xmlns:xlink="http://www.w3.org/1999/xlink" x="0px" y="0px"
	 viewBox="0 0 32 32" style="enable-background:new 0 0 32 32;" xml:space="preserve">
<style type="text/css">
	.st0{fill:none;stroke:#3BCCA5;stroke-width:0.75;stroke-linecap:round;stroke-linejoin:round;stroke-miterlimit:10;}
	.st1{opacity:0.1;}
	.st2{fill:#FF4C4C;}
	.st3{opacity:0.1;fill:#FFFFFF;}
	.st4{opacity:0.3;fill:#FFFFFF;}
	.st5{fill:none;stroke:#FFFFFF;stroke-width:2;stroke-linecap:round;stroke-miterlimit:10;}
	.st6{fill:none;stroke:#FFFFFF;stroke-width:2;stroke-miterlimit:10;}
	.st7{opacity:5.000000e-02;}
	.st8{fill:none;stroke:#F24949;stroke-width:0.5;stroke-linecap:round;stroke-linejoin:round;stroke-miterlimit:10;}
</style>
<g>
	<path class="st0" d="M13.4,9.2"/>
	<polygon class="st1" points="19.2,21.6 18,23.9 16.6,20.8 18.4,20 	"/>
	<circle class="st2" cx="16" cy="16" r="14"/>
	<path class="st3" d="M21,15.1c0,2.3-1.4,4.3-3.3,5.3c-0.4,0.2-0.9,0.4-1.4,0.5C16,20.9,15.7,21,15.4,21c-0.2,0-0.3,0-0.5,0
		c-2.2,0-4.2-1.3-5.2-3.2c-0.2-0.4-0.4-0.8-0.5-1.2C9.1,16.1,9,15.5,9,14.9c0-1.5,0.6-2.9,1.6-3.9c0.3-0.4,0.7-0.7,1.1-1
		c0.3-0.2,0.7-0.4,1.1-0.6C13.5,9.1,14.3,9,15.1,9C18.4,9.1,21.1,11.8,21,15.1z"/>
	<path class="st4" d="M15.4,21c-0.2,0-0.3,0-0.5,0c-2.2,0-4.2-1.3-5.2-3.2l-0.5-1.2C9.1,16.1,9,15.5,9,14.9c0-1.5,0.6-2.9,1.6-3.9
		L15.4,21z"/>
	<path class="st4" d="M17.9,20.2c-0.4,0.2-0.9,0.4-1.4,0.6l-5.1-10.6c0.3-0.2,0.7-0.5,1-0.6L17.9,20.2z"/>
	<line class="st5" x1="17.5" y1="20.4" x2="19.6" y2="25.1"/>
	<g class="st1">
		<polygon points="19.2,21.6 18,24 16.6,20.8 18.4,20 		"/>
	</g>
	<g class="st1">
		<path d="M15.7,8c-0.1,0-0.2,0-0.3,0C19,8.2,22,11.3,22,15s-3,6.8-6.7,7c0.1,0,0.2,0,0.3,0c3.9,0,7-3.1,7-7S19.5,8,15.7,8z"/>
	</g>
	<circle class="st6" cx="15" cy="15" r="6"/>
	<path class="st7" d="M15,21.8c-0.7,0-1.5-0.1-2.2-0.4c-0.2-0.1-0.4-0.2-0.5-0.4c-0.1-0.2-0.1-0.5,0-0.7c0.1-0.3,0.4-0.4,0.7-0.4
		c0.1,0,0.2,0,0.3,0c0.5,0.2,1.1,0.3,1.6,0.3c1.9,0,3.7-1.1,4.6-2.8c1.2-2.2,0.6-5-1.4-6.6c-0.3-0.2-0.4-0.7-0.2-1
		c0.1-0.3,0.4-0.4,0.7-0.4c0.2,0,0.3,0.1,0.5,0.2c2.7,2,3.4,5.6,1.9,8.6C19.8,20.4,17.5,21.8,15,21.8z"/>
	<path class="st8" d="M11.4,10.2c0.3-0.2,0.5-0.4,0.8-0.5"/>
	<path class="st8" d="M9,15.6c-0.2-1.7,0.4-3.3,1.4-4.5"/>
</g>
</svg>
