<?xml version="1.0" encoding="utf-8"?>
<!-- Generator: Adobe Illustrator 22.1.0, SVG Export Plug-In . SVG Version: 6.00 Build 0)  -->
<svg version="1.1" id="Layer_1" xmlns="http://www.w3.org/2000/svg" xmlns:xlink="http://www.w3.org/1999/xlink" x="0px" y="0px"
	 viewBox="0 0 32 32" style="enable-background:new 0 0 32 32;" xml:space="preserve">
<style type="text/css">
	.st0{fill:#FFA44A;}
	.st1{fill:#FFF255;}
	.st2{opacity:0.1;}
	.st3{fill:#FFFF00;}
	.st4{fill:none;stroke:#FFA44A;stroke-width:0.5;stroke-linecap:round;stroke-miterlimit:10;}
	.st5{opacity:5.000000e-02;}
</style>
<g>
	<circle class="st0" cx="16" cy="16" r="14"/>
	<path class="st1" d="M20.7,22.7c0,0.1-0.1,0.1-0.2,0.2c0,0,0,0,0,0c-0.2,0.1-0.3,0.1-0.5,0L16.6,21l0.3-0.1c0.2-0.1,0.3-0.1,0.5,0
		l3,1.6L20.7,22.7z"/>
	<g class="st2">
		<path d="M20.7,17.7c-0.1,0.1-0.2,0.3-0.1,0.5l0.7,4.1c0.1,0.4-0.4,0.8-0.8,0.6c0,0,0,0,0,0l-0.3-0.2c0-0.1,0.1-0.1,0.1-0.2
			l0.4,0.2c0.1-0.1,0.1-0.3,0.1-0.4l-0.7-4.1c0-0.2,0-0.4,0.1-0.5l3-2.9c0.3-0.3,0.1-0.8-0.3-0.9l-4.1-0.6c-0.2,0-0.3-0.1-0.4-0.3
			l-1.9-3.7c0-0.1-0.1-0.2-0.2-0.2C16.6,8.9,16.9,9,17,9.3l1.9,3.7c0.1,0.2,0.2,0.3,0.4,0.3l4.1,0.6c0.4,0.1,0.6,0.6,0.3,0.9
			L20.7,17.7z"/>
		<path d="M20.7,22.7c0,0.1-0.1,0.1-0.2,0.2c0,0,0,0,0,0c-0.2,0.1-0.3,0.1-0.5,0L16.6,21l0.3-0.1c0.2-0.1,0.3-0.1,0.5,0l3,1.6
			L20.7,22.7z"/>
		<path d="M16.6,21l-3.4,1.8c-0.3,0.1-0.5,0-0.7-0.2l3.4-1.8c0.2-0.1,0.3-0.1,0.5,0L16.6,21z"/>
	</g>
	<path class="st3" d="M20.2,17.7c-0.1,0.1-0.2,0.3-0.1,0.5l0.7,4.1c0.1,0.4-0.4,0.8-0.8,0.6l-3.7-2c-0.2-0.1-0.3-0.1-0.5,0l-3.7,2
		c-0.4,0.2-0.8-0.1-0.8-0.6l0.7-4.1c0-0.2,0-0.4-0.2-0.5l-3-2.9c-0.3-0.3-0.1-0.8,0.3-0.9l3.6-0.5c0.5-0.1,1-0.4,1.2-0.9l1.6-3.2
		c0.2-0.4,0.8-0.4,1,0l1.9,3.7c0.1,0.2,0.2,0.3,0.4,0.3l4.1,0.6c0.4,0.1,0.6,0.6,0.3,0.9L20.2,17.7z"/>
	<line class="st4" x1="12.7" y1="19.9" x2="12.7" y2="19.7"/>
	<line class="st4" x1="12.2" y1="22" x2="12.5" y2="20.8"/>
	<path class="st5" d="M20.3,22.7c-0.1,0-0.1,0-0.2,0l-3.7-1.9c-0.1-0.1-0.2-0.1-0.3-0.1c-0.1,0-0.2,0-0.3,0.1l-3.7,2
		c0,0-0.1,0-0.2,0c-0.1,0-0.2,0-0.3-0.1c-0.1-0.1-0.1-0.2-0.1-0.3l0.7-4.1c0-0.2,0-0.5-0.2-0.7l-3-2.9c-0.1-0.1-0.1-0.2-0.1-0.3
		c0-0.1,0.1-0.2,0.3-0.2l1.8-0.3l9,5.2l0.6,3.3c0,0.1,0,0.2-0.1,0.3C20.5,22.7,20.4,22.7,20.3,22.7z"/>
	<g>
		<circle class="st0" cx="14.1" cy="14.9" r="0.4"/>
		<circle class="st0" cx="18" cy="14.9" r="0.4"/>
		<path class="st4" d="M17.5,16.9c0,0.8-0.7,1.5-1.5,1.5c-0.8,0-1.5-0.7-1.5-1.5"/>
	</g>
</g>
</svg>
