<svg id="Capa_1" data-name="Capa 1" xmlns="http://www.w3.org/2000/svg" viewBox="0 0 511.52 512"><defs><style>.cls-1{fill:#2cc2f0;}</style></defs><title>last visits</title><path d="M125.61,201.84A60.18,60.18,0,1,0,185.79,262,60.24,60.24,0,0,0,125.61,201.84Zm0,90.26A30.09,30.09,0,1,1,155.71,262,30.12,30.12,0,0,1,125.61,292.1Z" transform="translate(-0.24 0)"/><rect x="266.81" y="217.2" width="60.17" height="30.09"/><rect x="357.07" y="217.2" width="60.17" height="30.09"/><rect x="266.81" y="277.38" width="60.17" height="30.09"/><rect x="357.07" y="277.38" width="60.17" height="30.09"/><rect x="266.81" y="98.23" width="60.17" height="30.09"/><rect x="357.07" y="98.23" width="60.17" height="30.09"/><rect x="266.81" y="158.4" width="60.17" height="30.09"/><rect x="357.07" y="158.4" width="60.17" height="30.09"/><path class="cls-1" d="M451.59,30.14V0H230.93V30.29H169.75V144.67A125.36,125.36,0,0,0,.24,262c0,28.32,18.69,74.75,57.15,141.94,27.55,48.14,55.5,89.34,55.78,89.75L125.61,512l12.44-18.3c.23-.33,18.39-27.11,39.84-62.65H511.76V30.34h0ZM125.61,458c-34.84-53.69-95.29-155.3-95.29-196a95.29,95.29,0,0,1,190.58,0C220.9,302.71,160.46,404.32,125.61,458ZM481.67,401H357.31V338.78H327.23V401H195.54C232.84,335.39,251,289.91,251,262a125.26,125.26,0,0,0-51.15-101V60.38H261V30.09H421.5v30l60.17.21Z" transform="translate(-0.24 0)"/></svg>