<?xml version="1.0" encoding="utf-8"?>
<!-- Generator: Adobe Illustrator 24.0.1, SVG Export Plug-In . SVG Version: 6.00 Build 0)  -->
<svg version="1.1" id="Слой_1" xmlns="http://www.w3.org/2000/svg" xmlns:xlink="http://www.w3.org/1999/xlink" x="0px" y="0px"
	 viewBox="0 0 3310 2000" style="enable-background:new 0 0 3310 2000;" xml:space="preserve">
<style type="text/css">
	.st0{opacity:7.000000e-02;fill:#2E3192;}
	.st1{fill:#1E4079;}
	.st2{fill:#EFB41A;}
	.st3{fill:none;}
	.st4{fill:#14612C;}
	.st5{font-family:'Montserrat-Bold';}
	.st6{font-size:33.3545px;}
</style>
<rect x="0" class="st0" width="3310" height="2000"/>
<g>
	<path class="st1" d="M533.3,248.7c0,12.3-2.6,22.7-8,31.5c-5.2,8.7-12.7,15.7-21.8,20.2c-9.4,4.6-19.8,7-30.3,6.9
		c-5.6,0.1-11.2-0.6-16.7-1.8c-5-1.1-9.9-3-14.3-5.6c-4.7-2.8-8.9-6.2-12.7-10.1l18.2-18c3.3,3.2,7,6,11.1,8.2
		c3.5,1.7,8.4,2.6,14.4,2.6c6.1,0.2,12.1-1.3,17.5-4.1c5-2.8,8.9-7.1,11.2-12.3c2.6-5.4,3.9-11.9,3.9-19.6V135.5h27.4v113.1
		L533.3,248.7z"/>
	<path class="st1" d="M648.3,307.2H623V294c-4.2,4.3-9.2,7.8-14.8,10.1c-5.2,2.1-11.6,3-19.5,3c-6.8,0.2-13.6-0.8-20.2-2.9
		c-5.4-1.7-10.3-4.7-14.3-8.7c-6.8-7-10.2-16.3-10.2-27.6c-0.1-6.8,1.6-13.5,5-19.4c3.6-5.7,8.8-10.2,15-12.9
		c6.6-3.1,14.7-4.7,24.2-4.7h33.9v-9.2c0-8.2-2.2-14.2-6.6-18.1c-4.5-3.9-11.6-5.8-21.4-5.8c-7.2,0-12.7,0.9-16.7,2.7
		s-7.8,5-11.5,9.6L549,194.3c5.8-7,12.3-11.8,19.4-14.5c7.1-2.7,15.9-4.1,26.8-4.1c35.3,0,52.9,14.7,52.9,44.2L648.3,307.2
		L648.3,307.2z M622.5,259.3v-10.4h-30.2c-7.6,0-13.2,1.6-17.2,4.8s-5.8,7.8-5.8,13.7c0,12.1,7.8,18.2,23.5,18.2
		c4.7,0.1,9.3-0.4,13.9-1.4c3.9-1,7.4-3,10.3-5.8C620.5,274.7,622.5,268.2,622.5,259.3L622.5,259.3z"/>
	<path class="st1" d="M705.1,307.2h-7.9c-11.7,0-20.4-3.3-26.3-10.1c-6-6.8-8.8-15.2-8.8-25.4V135.5h25.9v134.7
		c0,5.2,1,8.9,3.1,11.3c2.1,2.4,5.6,3.7,10.8,3.7h3.3V307.2z"/>
	<path class="st1" d="M820,307.2h-25.3v-15.2c-2.8,3.6-6.1,6.7-9.8,9.2c-3.4,2.1-7,3.7-10.9,4.7c-4.4,1-8.8,1.4-13.3,1.4
		c-6.1,0-12.1-1-17.7-3.1c-10.8-3.6-19.3-12.1-22.8-23c-2.1-5.9-3.4-11.9-4.1-18.1c-0.7-7.2-1.1-14.3-1-21.5c0-7.2,0.3-14.3,1-21.4
		c0.7-6.1,2-12.2,4.1-18c2-5.5,5.1-10.6,9.2-14.8c3.9-3.8,8.5-6.7,13.6-8.5c5.6-2,11.5-3,17.5-3c6.4-0.1,12.9,0.9,18.9,3.2
		c5.8,2.5,10.9,6.4,14.9,11.3v-54.6h25.9L820,307.2L820,307.2z M794,241.5c0.1-7.5-0.6-15-1.9-22.3c-1.4-6.2-3.9-11-7.9-14.7
		c-4-3.7-9.5-5.5-16.7-5.5c-7.2,0-12.9,1.8-16.9,5.6c-4.1,3.9-6.9,9.1-7.9,14.7c-1.5,7.3-2.1,14.8-1.9,22.2
		c-0.1,7.5,0.6,15,1.9,22.3c1.1,5.6,3.8,10.8,7.9,14.8c4,3.8,9.6,5.6,16.9,5.6c10.5,0,17.6-3.8,21.2-11.3S794,254.8,794,241.5
		L794,241.5z"/>
	<path class="st1" d="M941.2,248.9h-83.4c0,7.6,1.3,14,3.8,19.2c2.4,5.1,6.3,9.4,11.1,12.4c4.8,3,10.8,4.4,17.9,4.4
		c7.1,0,12.8-1,17.2-3c5.2-2.6,9.9-6,14-10.2l16.5,15.3c-7,7-14.1,12.1-21.3,15.2c-7.2,3.1-16.1,4.8-26.9,4.8
		c-7.8,0.1-15.6-1.1-23-3.5c-6.9-2.3-13.2-6.2-18.4-11.3c-5.5-5.8-9.7-12.8-12.1-20.4c-2.9-8.4-4.4-18.5-4.4-30.5
		c0-13.7,2.3-25.5,6.8-35.4c4-9.2,10.6-17.1,19-22.6c8.1-5.2,17.7-7.8,28.7-7.8c11.2,0,21,2.6,29.2,7.8c8.3,5.2,14.9,12.9,18.8,21.9
		c4.4,10.1,6.6,21.1,6.4,32.2v11.5H941.2z M915.6,230.9c-0.1-6-1.3-11.9-3.4-17.4c-2-4.9-5.4-9-9.7-11.9c-4.7-3-10.1-4.6-15.7-4.5
		c-5.6-0.1-11,1.5-15.7,4.5c-4.4,2.9-7.9,7-10,11.9c-1,2.2-1.8,4.6-2.3,7c-0.3,2.1-0.7,5.5-1,10.4H915.6z"/>
	<path class="st1" d="M1062.4,248.9h-83.4c0,7.6,1.3,14,3.8,19.2c2.4,5.1,6.3,9.4,11.1,12.4c4.8,3,10.8,4.4,17.9,4.4
		c7.1,0,12.8-1,17.2-3c5.2-2.6,9.9-6,14-10.2l16.5,15.3c-7,7-14.1,12.1-21.3,15.2c-7.2,3.1-16.1,4.8-26.9,4.8
		c-7.8,0.1-15.6-1.1-23-3.5c-6.9-2.3-13.2-6.2-18.4-11.3c-5.5-5.8-9.7-12.8-12.1-20.4c-2.9-8.4-4.4-18.5-4.4-30.5
		c0-13.7,2.3-25.5,6.8-35.4c4-9.2,10.6-17.1,19-22.6c8.1-5.2,17.7-7.8,28.7-7.8c11.2,0,21,2.6,29.2,7.8c8.3,5.2,14.9,12.9,18.8,21.9
		c4.4,10.1,6.6,21.1,6.4,32.2v11.5H1062.4z M1037,230.9c-0.1-6-1.3-11.9-3.4-17.4c-2-4.9-5.4-9-9.7-11.9c-4.7-3-10.1-4.6-15.7-4.5
		c-5.6-0.1-11,1.5-15.7,4.5c-4.4,2.9-7.9,7-10,11.9c-1,2.2-1.8,4.6-2.3,7c-0.3,2.1-0.7,5.5-1,10.4H1037z"/>
	<path class="st1" d="M455.6,370.2h-16.4l-3.9,11.2h-6.1l15.7-43.6h5l15.3,43.6h-6.1L455.6,370.2z M440.8,365.2h13.1l-6.3-18.7h-0.2
		L440.8,365.2z"/>
	<path class="st1" d="M479.1,371.8l0.5,2.3h0.2l0.6-2.3l7.4-22.9h6.1l-11.9,32.4h-4.5L465.3,349h6.1L479.1,371.8z"/>
	<path class="st1" d="M496.1,364.9c-0.2-4.3,1.2-8.5,3.9-11.8c2.6-3.1,6.5-4.8,10.5-4.7c4.1-0.1,8,1.6,10.6,4.7
		c2.7,3.4,4.1,7.6,3.9,11.9v0.7c0.2,4.3-1.2,8.5-3.9,11.9c-5.6,5.9-14.8,6.1-20.7,0.6c0,0,0,0,0,0l-0.6-0.6
		c-2.7-3.3-4.1-7.5-3.9-11.8L496.1,364.9L496.1,364.9z M502,365.5c-0.1,3,0.6,5.9,2.2,8.5c1.4,2.2,3.8,3.5,6.4,3.3
		c2.6,0.1,5-1.2,6.4-3.3c1.6-2.5,2.3-5.5,2.2-8.5v-0.7c0.1-3-0.6-5.9-2.2-8.5c-1.4-2.2-3.8-3.5-6.4-3.4c-2.6-0.1-5.1,1.2-6.4,3.4
		c-1.5,2.5-2.3,5.5-2.2,8.5V365.5z"/>
	<path class="st1" d="M537.4,340.6h-6v-6.1h6V340.6z M537.4,381.4h-6V349h6V381.4z"/>
	<path class="st1" d="M544,365.8c0-5.2,1.1-9.4,3.3-12.6c2.1-3.1,5.6-5,9.4-4.8c1.7,0,3.5,0.3,5,1c1.5,0.7,2.8,1.8,3.8,3.1v-17.9h6
		v46.7H567l-0.9-4.1c-1,1.5-2.3,2.7-3.9,3.5c-1.7,0.8-3.5,1.2-5.4,1.1c-3.6,0.2-7.1-1.5-9.3-4.4c-2.3-3.3-3.5-7.3-3.3-11.3v-0.5
		L544,365.8z M549.8,366.4c-0.1,2.8,0.6,5.5,2.1,7.9c1.4,2,3.7,3.1,6.2,3c1.6,0.1,3.1-0.3,4.5-1.1c1.2-0.8,2.3-2,3-3.3v-15.1
		c-0.7-1.3-1.7-2.4-3-3.2c-1.3-0.8-2.8-1.2-4.4-1.1c-2.6-0.1-5.1,1.2-6.3,3.5c-1.5,2.8-2.2,5.9-2.1,9V366.4L549.8,366.4z"/>
	<path class="st1" d="M602.5,366.3l0.8,5.7h0.2l1-5.7l7.7-28.5h5.7l7.8,28.5l1,5.8h0.2l0.8-5.8l6.2-28.5h6.4l-10.5,43.6h-5.3
		l-8.7-30.2l-0.7-3.9H615l-0.6,3.9l-8.8,30.2h-5.3l-10.5-43.6h6.4L602.5,366.3z"/>
	<path class="st1" d="M663.4,381.4c-0.2-1-0.3-1.8-0.5-2.6c-0.1-0.8-0.2-1.5-0.2-2.3c-1.1,1.6-2.6,2.9-4.4,3.9
		c-1.7,1-3.7,1.6-5.7,1.6c-3.3,0-6-0.9-7.7-2.6c-1.8-1.9-2.8-4.5-2.6-7.1c-0.1-2.9,1.3-5.6,3.8-7.2c3.1-1.9,6.6-2.8,10.2-2.6h6.4
		v-3.2c0.1-1.7-0.5-3.3-1.7-4.5c-1.3-1.2-3.1-1.8-4.9-1.7c-1.7-0.1-3.4,0.4-4.7,1.5c-1.1,0.8-1.7,2.1-1.7,3.4L644,358l-0.1-0.2
		c-0.1-2.4,0.9-4.5,3.3-6.4c2.6-2,5.8-3.1,9-3c3.2-0.2,6.3,0.8,8.8,2.7c2.3,1.8,3.3,4.6,3.3,8v15.6c0,1.1,0.1,2.2,0.2,3.3
		c0.1,1.1,0.3,2.2,0.7,3.2L663.4,381.4L663.4,381.4z M653.7,377c2,0,4-0.5,5.7-1.6c1.5-0.9,2.7-2.2,3.3-3.8v-5.3h-6.6
		c-2.1-0.1-4.1,0.5-5.7,1.8c-1.3,1-2.1,2.6-2.2,4.2c-0.1,1.3,0.4,2.5,1.4,3.4C650.8,376.7,652.2,377.1,653.7,377z"/>
	<path class="st1" d="M682.4,340.6h-6v-6.1h6V340.6z M682.4,381.4h-6V349h6V381.4z"/>
	<path class="st1" d="M698.4,341.2v7.8h6.2v4.4h-6.2V373c-0.1,1.1,0.2,2.3,0.9,3.2c0.7,0.6,1.6,0.9,2.5,0.9c0.4,0,0.8,0,1.1-0.1
		c0.3-0.1,0.7-0.2,1-0.2l0.8,4c-0.6,0.4-1.3,0.7-1.9,0.9c-0.8,0.2-1.7,0.3-2.5,0.3c-2.1,0.1-4.2-0.7-5.7-2.2
		c-1.6-1.9-2.3-4.3-2.2-6.8v-19.8h-5.2V349h5.2v-7.8H698.4z"/>
	<path class="st1" d="M716.1,340.6h-6v-6.1h6V340.6z M716.1,381.4h-6V349h6V381.4z"/>
	<path class="st1" d="M729.1,349l0.5,4.8c1-1.7,2.4-3,4-4c1.7-0.9,3.7-1.4,5.6-1.4c3-0.2,6,0.9,8.1,3.1c1.9,2.1,2.9,5.2,2.9,9.5
		v20.5h-6v-20.4c0-2.9-0.6-4.9-1.7-6.1c-1.4-1.3-3.3-1.9-5.2-1.8c-1.6-0.1-3.2,0.3-4.6,1.1c-1.3,0.7-2.3,1.8-3,3.1v24h-6v-32.4h5.3
		V349z"/>
	<path class="st1" d="M756.5,365.8c0-5.2,1.1-9.4,3.3-12.6c2-3.1,5.6-4.9,9.3-4.8c1.9,0,3.7,0.4,5.4,1.3c1.6,0.8,2.9,2.1,3.9,3.5
		l0.7-4.2h4.7v32.6c0.2,3.6-1.1,7.1-3.7,9.6c-2.4,2.2-6,3.3-10.4,3.3c-1.7,0-3.4-0.3-5-0.7c-1.7-0.4-3.3-1-4.8-1.7l0.9-4.6
		c1.3,0.6,2.7,1.1,4.1,1.5c1.5,0.4,3.1,0.6,4.7,0.6c2.3,0.2,4.5-0.5,6.3-1.9c1.4-1.7,2.1-3.8,1.9-6v-3.7c-1,1.3-2.3,2.4-3.8,3.1
		c-1.6,0.7-3.4,1.1-5.2,1c-3.6,0.1-7.1-1.5-9.3-4.4c-2.3-3.3-3.5-7.3-3.3-11.3v-0.7H756.5z M762.3,366.4c-0.1,2.8,0.6,5.5,2.1,7.9
		c1.4,2,3.7,3.2,6.2,3c1.6,0.1,3.1-0.4,4.5-1.3c1.2-0.9,2.3-2.1,3-3.4v-14.9c-0.7-1.3-1.7-2.5-3-3.3c-1.3-0.8-2.8-1.3-4.4-1.3
		c-2.6-0.1-5.1,1.2-6.3,3.5c-1.5,2.8-2.2,5.9-2.1,9L762.3,366.4L762.3,366.4z"/>
	<path class="st1" d="M811.5,340.6h-6v-6.1h6V340.6z M811.5,381.4h-6V349h6V381.4z"/>
	<path class="st1" d="M824.6,349l0.5,4.8c1-1.7,2.4-3,4-4c1.7-0.9,3.7-1.4,5.6-1.4c3-0.2,6,0.9,8.1,3.1c1.9,2.1,2.9,5.2,2.9,9.5
		v20.5h-6v-20.4c0-2.9-0.6-4.9-1.7-6.1c-1.4-1.3-3.3-1.9-5.2-1.8c-1.6-0.1-3.2,0.3-4.6,1.1c-1.3,0.7-2.3,1.8-3,3.1v24h-6v-32.4h5.3
		V349z"/>
	<path class="st1" d="M901.1,363.4c0,2.2-0.3,4.4-1,6.5c-0.6,2-1.6,3.8-2.9,5.5l6.5,6.3l-4,3.9l-6.6-6.4c-1.4,0.9-2.9,1.6-4.6,2.1
		c-1.7,0.5-3.4,0.7-5.2,0.7c-4.7,0.2-9.2-1.8-12.4-5.3c-3.3-3.6-5-8.4-4.8-13.3v-7.8c-0.1-4.9,1.6-9.6,4.8-13.3
		c3.1-3.5,7.7-5.4,12.4-5.3c4.8-0.2,9.5,1.7,12.8,5.3c3.3,3.6,5.1,8.4,4.9,13.3V363.4z M895.2,355.6c0.2-3.6-1-7.1-3.2-9.8
		c-2.1-2.6-5.4-4-8.7-3.8c-3.2-0.1-6.3,1.3-8.2,3.8c-2.2,2.8-3.2,6.3-3.1,9.8v7.8c-0.2,3.5,0.9,7,3.1,9.8c2,2.5,5.1,3.9,8.2,3.8
		c3.3,0.1,6.5-1.2,8.7-3.8c2.2-2.8,3.4-6.3,3.2-9.8V355.6z"/>
	<path class="st1" d="M929,376.6c-3.2,5.3-10.1,7-15.4,3.8c-0.8-0.5-1.6-1.1-2.3-1.8c-1.9-2.3-3-5.7-3-10.5v-19.1h6V368
		c0,3.4,0.5,5.8,1.5,7.1c1.2,1.4,3,2.1,4.8,1.9c1.8,0,3.6-0.4,5.2-1.3c1.4-0.9,2.5-2.1,3.1-3.7v-23.4h6v32.4h-5.3L929,376.6z"/>
	<path class="st1" d="M955.5,381.9c-4.7,0-8.2-1.5-10.9-4.5c-2.6-3-3.9-6.9-3.9-11.8v-1.4c-0.1-4.2,1.3-8.3,4-11.6
		c2.4-3,6-4.6,9.8-4.6c4.4,0,7.6,1.4,9.7,4c2.2,2.6,3.2,6.3,3.2,10.8v3.1h-20.7l-0.1,0.1c-0.1,2.8,0.6,5.6,2.2,7.9
		c1.5,2.1,4,3.3,6.6,3.1c1.8,0,3.6-0.2,5.3-0.8c1.4-0.5,2.8-1.4,3.9-2.4l2.3,3.8c-1.3,1.3-2.9,2.2-4.6,2.9
		C960.2,381.5,957.9,382,955.5,381.9z M954.6,353c-2,0-3.9,0.9-5.2,2.4c-1.4,1.7-2.3,3.8-2.5,6.1l0.1,0.1h14.7v-0.5
		c0.1-2.1-0.5-4.1-1.7-5.8C958.6,353.7,956.6,352.8,954.6,353L954.6,353z"/>
	<path class="st1" d="M993.5,376.6c-3.2,5.3-10.1,7-15.4,3.8c-0.8-0.5-1.6-1.1-2.3-1.8c-1.9-2.3-3-5.7-3-10.5v-19.1h6V368
		c0,3.4,0.5,5.8,1.5,7.1c1.2,1.4,3,2.1,4.8,1.9c1.8,0,3.6-0.4,5.2-1.3c1.4-0.9,2.5-2.1,3.1-3.7v-23.4h6v32.4h-5.3L993.5,376.6z"/>
	<path class="st1" d="M1020.1,381.9c-4.7,0-8.2-1.5-10.9-4.5c-2.6-3-3.9-6.9-3.9-11.8v-1.4c-0.1-4.2,1.3-8.3,4-11.6
		c2.4-3,6-4.6,9.8-4.6c4.4,0,7.6,1.4,9.7,4s3.2,6.3,3.2,10.8v3.1h-20.7l-0.1,0.1c-0.1,2.8,0.6,5.6,2.2,7.9c1.5,2.1,4,3.3,6.6,3.1
		c1.8,0,3.6-0.2,5.3-0.8c1.4-0.5,2.8-1.4,3.9-2.4l2.3,3.8c-1.3,1.3-2.9,2.2-4.6,2.9C1024.8,381.5,1022.4,381.9,1020.1,381.9z
		 M1019.3,353c-2,0-3.9,0.9-5.2,2.4c-1.4,1.7-2.3,3.8-2.5,6.1l0.1,0.1h14.7v-0.5c0.1-2.1-0.5-4.1-1.7-5.8
		C1023.3,353.7,1021.3,352.9,1019.3,353z"/>
	<path class="st1" d="M1056.5,372.7c0-1.2-0.5-2.4-1.5-3.2c-1.7-1.1-3.6-1.8-5.6-2.2c-3.1-0.5-6.1-1.7-8.8-3.4c-2-1.3-3.2-3.6-3.1-6
		c0-2.6,1.2-5.1,3.3-6.8c5.3-3.9,12.4-3.8,17.6,0.1c2.1,1.7,3.3,4.3,3.2,7l-0.1,0.2h-5.6c0-1.5-0.7-2.8-1.8-3.8
		c-1.3-1.2-3-1.8-4.7-1.7c-1.7-0.1-3.3,0.4-4.7,1.4c-1,0.8-1.5,2-1.5,3.3c-0.1,1.2,0.5,2.3,1.4,3c1.7,1,3.6,1.7,5.5,1.9
		c3.2,0.5,6.3,1.7,9,3.5c2,1.4,3.2,3.7,3.1,6.1c0.1,2.8-1.2,5.4-3.4,7c-2.6,1.9-5.9,2.9-9.2,2.7c-4.1,0-7.4-1-9.7-3.1
		c-2.2-1.8-3.5-4.5-3.4-7.3l0.1-0.2h5.6c0,1.8,0.8,3.5,2.3,4.6c1.5,1,3.3,1.5,5.2,1.5c1.7,0.1,3.5-0.4,4.9-1.4
		C1055.7,375.3,1056.4,374,1056.5,372.7z"/>
	<path class="st1" d="M208.6,224c-1.2,1.1-3,1-4.1-0.1c-0.1-0.1-0.1-0.1-0.2-0.2l-42-46.4l-0.6-0.6c-0.7-0.6-1.7-1-2.6-1.1
		c-1.1-0.1-2.3,0.3-3.1,1.1l-0.1,0.1l-27.6,25.1l-0.3,0.3c-0.8,0.7-1.3,1.8-1.3,2.9c-0.1,1.1,0.3,2.3,1.1,3.1l0.1,0.1l69.6,76.7
		c0.3,0.5,0.7,0.9,1.1,1.3c1.3,1.3,3,2,4.8,2.1c2.1,0.1,4.2-0.5,5.8-1.8l0.3-0.3l162-145.9l0,0c-8.6-13-18.6-25-30-35.6l0,0
		L208.6,224z"/>
	<path class="st1" d="M375.7,147.6l-35.3,31.7l0,0c9.7,18.7,15.5,39.3,17.1,60.3h-8.6c-5.6,0-10.5,4.2-10.6,9.8
		c-0.2,5.6,4.1,10.3,9.7,10.5c0,0,0,0,0,0h9.5c-5.1,75.8-65.5,136.2-141.3,141.3l0,0v-8.6c0-5.6-4.2-10.5-9.8-10.6
		c-5.6-0.2-10.3,4.1-10.5,9.7c0,0,0,0,0,0c0,0.1,0,0.3,0,0.4v9l0,0C120,396.1,59.7,335.8,54.5,260h8.6c5.6,0,10.5-4.2,10.6-9.8
		c0.2-5.6-4.1-10.3-9.7-10.5c0,0,0,0,0,0h-9.5c5.1-75.8,65.5-136.2,141.3-141.3l0,0v8.6c0,5.6,4.2,10.5,9.8,10.6
		c5.6,0.2,10.3-4.1,10.5-9.7c0,0,0,0,0,0c0-0.1,0-0.3,0-0.4v-9l0,0c31,2.2,60.2,15.2,83.2,33l0,0l34.9-31.1l0,0
		C300.1,71.3,255.1,52.1,207,51.7C97.7,51,8.5,139.3,7.9,248.7s87.5,198.8,196.9,199.5c109.5,0.7,198.7-87.6,199.2-197.1
		C404.5,213.7,393.6,177.6,375.7,147.6z"/>
	<path class="st2" d="M377.6,134.7l25.5-22.9c2.2-2,2.6-5.4,0.8-7.8c-6.9-9.4-14.6-18.4-22.8-26.7c-2.2-2.2-5.7-2.4-8-0.3
		l-25.5,22.9l0,0C358.7,110.5,368.8,122.2,377.6,134.7z"/>
	<rect x="305.8" y="46.5" class="st3" width="328.2" height="72.8"/>
	<g>
		<text transform="matrix(1 0 0 1 305.8212 71.1969)" class="st4 st5 st6">Busi</text>
		<text transform="matrix(1 0 0 1 382.0106 71.1969)" class="st4 st5 st6">n</text>
		<text transform="matrix(1 0 0 1 405.2665 71.1969)" class="st4 st5 st6">ess</text>
	</g>
</g>
<image style="overflow:visible;" width="3500" height="1700" xlink:href="5482-01.png"  transform="matrix(0.9457 0 0 0.9558 0 489.8453)">
</image>
</svg>
