<svg id="Layer_1" data-name="Layer 1" xmlns="http://www.w3.org/2000/svg" viewBox="0 0 1000 1000"><defs><style>.cls-1,.cls-5{fill:#f1b51c;}.cls-2{fill:#1e4079;}.cls-3{font-size:12px;font-family:MyriadPro-Regular, Myriad Pro;}.cls-4{letter-spacing:0em;}.cls-5{font-size:40px;font-family:MontserratAlternates-BoldItalic, Montserrat Alternates;font-weight:700;font-style:italic;}.cls-6{letter-spacing:-0.02em;}.cls-7{letter-spacing:-0.05em;}.cls-8{letter-spacing:0em;}.cls-9{letter-spacing:0em;}</style></defs><title>ss</title><path class="cls-1" d="M254.5,483.6a1.55,1.55,0,0,1-1.4.5,1.75,1.75,0,0,1-1.4-.7l-26.8-29.6-.4-.4a2.84,2.84,0,0,0-1.7-.7,2.72,2.72,0,0,0-2,.7l-.1.1-17.6,16-.2.2a2.5,2.5,0,0,0-.8,1.8,2.72,2.72,0,0,0,.7,2l.1.1,44.4,48.9a5,5,0,0,0,.7.8,4.39,4.39,0,0,0,3.1,1.3,5.33,5.33,0,0,0,3.7-1.2l.2-.2,103.5-93h0a129.86,129.86,0,0,0-19.1-22.7h0Z"/><path class="cls-1" d="M361.1,434.8,338.6,455h0a99.64,99.64,0,0,1,10.9,38.5H344a6.65,6.65,0,0,0-6.8,6.3,6.47,6.47,0,0,0,6.5,6.7h5.8a96.81,96.81,0,0,1-90.1,90.1h0v-5.5a6.65,6.65,0,0,0-6.3-6.8,6.47,6.47,0,0,0-6.7,6.5v5.8h0a96.89,96.89,0,0,1-90.1-90.1h5.5a6.65,6.65,0,0,0,6.8-6.3,6.47,6.47,0,0,0-6.5-6.7h-5.8a96.81,96.81,0,0,1,90.1-90.1h0v5.5a6.65,6.65,0,0,0,6.3,6.8,6.47,6.47,0,0,0,6.7-6.5v-5.8h0c19.8,1.4,38.4,9.7,53.1,21h0l22.3-19.9h0c-21.8-18.4-50.5-30.7-81.2-30.9a126.38,126.38,0,1,0,107.5,61.2Z"/><path class="cls-2" d="M362.3,426.6,378.6,412a3.72,3.72,0,0,0,.5-5,156.76,156.76,0,0,0-14.5-17,3.72,3.72,0,0,0-5.1-.2l-16.3,14.6h0a150.93,150.93,0,0,1,19.1,22.2Z"/><path class="cls-2" d="M457.85,510.1c0,9-2,16.7-5.9,23.2a38.69,38.69,0,0,1-16,14.8,48.76,48.76,0,0,1-22.3,5.1,53.36,53.36,0,0,1-12.3-1.3,36.7,36.7,0,0,1-10.6-4.2,47.92,47.92,0,0,1-9.3-7.4l13.4-13.2a36.82,36.82,0,0,0,8.2,6.1c2.6,1.3,6.2,2,10.7,2a25.15,25.15,0,0,0,12.9-3.1,19.66,19.66,0,0,0,8.3-9,33.3,33.3,0,0,0,2.9-14.4V426.9H458v83.2Z"/><path class="cls-2" d="M542.55,553.2h-18.7v-9.7a32.64,32.64,0,0,1-10.8,7.4c-3.8,1.5-8.5,2.2-14.3,2.2a47.41,47.41,0,0,1-14.9-2.1,27.66,27.66,0,0,1-10.6-6.4c-5-5.2-7.5-11.9-7.5-20.3a27,27,0,0,1,3.7-14.3,25,25,0,0,1,11.1-9.6c4.9-2.3,10.8-3.4,17.8-3.4h25.1v-6.7c0-6.1-1.6-10.5-4.9-13.3s-8.5-4.3-15.8-4.3c-5.3,0-9.4.7-12.4,2a22.64,22.64,0,0,0-8.4,7.1l-12.5-11.7a36.1,36.1,0,0,1,14.2-10.7q7.8-3,19.8-3,39,0,39,32.5v64.3Zm-19.1-35.3v-7.7h-22.2q-8.25,0-12.6,3.6c-2.9,2.4-4.3,5.7-4.3,10.1,0,8.9,5.8,13.4,17.3,13.4a41.78,41.78,0,0,0,10.2-1,17.18,17.18,0,0,0,7.6-4.3C522.05,529.2,523.45,524.5,523.45,517.9Z"/><path class="cls-2" d="M584.35,553.2h-5.8c-8.6,0-15-2.5-19.4-7.4s-6.5-11.2-6.5-18.7V426.7h19v99.2c0,3.8.8,6.5,2.3,8.3s4.2,2.7,7.9,2.7h2.4v16.3Z"/><path class="cls-2" d="M669.05,553.2h-18.7V542a29.86,29.86,0,0,1-7.3,6.7,26.81,26.81,0,0,1-8,3.4,41.62,41.62,0,0,1-9.8,1,37.58,37.58,0,0,1-13.1-2.3,30.61,30.61,0,0,1-10.1-6.1,29.67,29.67,0,0,1-6.8-10.9,59.43,59.43,0,0,1-3.1-13.4,150,150,0,0,1-.7-15.9,148,148,0,0,1,.7-15.8,54.77,54.77,0,0,1,3.1-13.3,27.31,27.31,0,0,1,6.8-10.8,26.1,26.1,0,0,1,10-6.2,36.42,36.42,0,0,1,12.9-2.2,37.12,37.12,0,0,1,13.9,2.4,29.15,29.15,0,0,1,11,8.3V426.6h19V553.2ZM650,504.7a77,77,0,0,0-1.5-16.4,20.28,20.28,0,0,0-5.8-10.8c-2.9-2.7-7-4.1-12.3-4.1s-9.6,1.4-12.5,4.1a19.63,19.63,0,0,0-5.8,10.8,90.4,90.4,0,0,0,0,32.8,20.58,20.58,0,0,0,5.8,10.9c2.9,2.8,7.1,4.1,12.5,4.1,7.8,0,13-2.8,15.6-8.3S650,514.6,650,504.7Z"/><path class="cls-2" d="M758.35,510.2H697a32.41,32.41,0,0,0,2.8,14.2,20.73,20.73,0,0,0,8.2,9.1c3.6,2.2,7.9,3.2,13.2,3.2s9.4-.7,12.7-2.2a37,37,0,0,0,10.3-7.5l12.1,11.3a53.75,53.75,0,0,1-15.7,11.3c-5.3,2.3-11.9,3.5-19.8,3.5a53.93,53.93,0,0,1-16.9-2.6,35,35,0,0,1-13.5-8.4,38.15,38.15,0,0,1-8.9-15,70.26,70.26,0,0,1-3.2-22.4c0-10.1,1.7-18.8,5-26.1a37.7,37.7,0,0,1,14-16.6c6-3.8,13.1-5.7,21.2-5.7,8.3,0,15.4,1.9,21.5,5.7a36.51,36.51,0,0,1,13.9,16.1c3.2,6.9,4.7,14.8,4.7,23.7v8.4ZM739.55,497a36.07,36.07,0,0,0-2.6-12.9,18.58,18.58,0,0,0-7.2-8.7,21.69,21.69,0,0,0-23,0,19.29,19.29,0,0,0-7.3,8.7,23.31,23.31,0,0,0-1.7,5.1c-.3,1.5-.5,4.1-.8,7.7h42.6Z"/><path class="cls-2" d="M847.75,510.2h-61.4a32.41,32.41,0,0,0,2.8,14.2,20.73,20.73,0,0,0,8.2,9.1c3.6,2.2,7.9,3.2,13.2,3.2s9.4-.7,12.7-2.2a37,37,0,0,0,10.3-7.5l12.1,11.3A53.75,53.75,0,0,1,830,549.6c-5.3,2.3-11.9,3.5-19.8,3.5a53.93,53.93,0,0,1-16.9-2.6,35,35,0,0,1-13.5-8.4,38.15,38.15,0,0,1-8.9-15,70.26,70.26,0,0,1-3.2-22.4c0-10.1,1.7-18.8,5-26.1a37.7,37.7,0,0,1,14-16.6c6-3.8,13.1-5.7,21.2-5.7,8.3,0,15.4,1.9,21.5,5.7a36.51,36.51,0,0,1,13.9,16.1c3.2,6.9,4.7,14.8,4.7,23.7v8.4ZM828.85,497a36.07,36.07,0,0,0-2.6-12.9,18.58,18.58,0,0,0-7.2-8.7,21.69,21.69,0,0,0-23,0,19.29,19.29,0,0,0-7.3,8.7,23.31,23.31,0,0,0-1.7,5.1c-.3,1.5-.5,4.1-.8,7.7h42.6Z"/><text class="cls-3" transform="translate(-358 198.52)"><tspan class="cls-4">B</tspan><tspan x="6.55" y="0">eta</tspan></text><text class="cls-3" transform="translate(901 134.52)"> </text><text class="cls-5" transform="translate(379.21 604.18)">Be<tspan class="cls-6" x="55.52" y="0">t</tspan><tspan x="71.32" y="0">a </tspan><tspan class="cls-7" x="112.32" y="0">V</tspan><tspan class="cls-8" x="139.96" y="0">e</tspan><tspan class="cls-9" x="164.88" y="0">r</tspan><tspan x="182.04" y="0">sion</tspan></text></svg>