<svg width="1194" height="1054" viewBox="0 0 1194 1054" fill="none" xmlns="http://www.w3.org/2000/svg">
<path d="M1085.47 441.777V934.54L819.383 668.455L768.408 719.43L1029.79 981.177H133.202L386.272 719.43L334.212 669.178L73.1885 939.24V313.072L522.568 760.283C536.116 773.75 554.442 781.309 573.544 781.309C592.646 781.309 610.972 773.75 624.519 760.283L943.749 442.861C918.273 436.212 893.911 425.858 871.443 412.131L572.821 708.946L120.549 258.12H753.223C746.233 234.636 742.463 210.312 742.016 185.814H73.1885C54.0118 185.814 35.6206 193.432 22.0607 206.992C8.50071 220.552 0.882813 238.943 0.882812 258.12V981.177C0.882813 1000.35 8.50071 1018.74 22.0607 1032.3C35.6206 1045.86 54.0118 1053.48 73.1885 1053.48H1085.47C1104.64 1053.48 1123.04 1045.86 1136.6 1032.3C1150.16 1018.74 1157.77 1000.35 1157.77 981.177V409.962C1135.37 424.063 1111 434.783 1085.47 441.777Z" fill="#FFE877"/>
<path d="M1193.93 180.764C1193.93 216.516 1183.33 251.465 1163.46 281.191C1143.6 310.918 1115.37 334.087 1082.34 347.769C1049.31 361.45 1012.96 365.03 977.899 358.055C942.834 351.08 910.625 333.864 885.345 308.584C860.065 283.303 842.849 251.094 835.874 216.03C828.899 180.965 832.479 144.619 846.16 111.589C859.842 78.5584 883.011 50.3269 912.737 30.4643C942.464 10.6016 977.413 0 1013.16 0C1061.11 0 1107.08 19.0447 1140.98 52.9446C1174.88 86.8445 1193.93 132.823 1193.93 180.764V180.764Z" fill="#FFE877"/>
</svg>
