<svg width="1194" height="1054" viewBox="0 0 1194 1054" fill="none" xmlns="http://www.w3.org/2000/svg">
<path d="M1085.47 441.938V934.701L819.383 668.616L768.408 719.591L1029.79 981.338H133.202L386.272 719.591L334.212 669.339L73.1885 939.401V313.234L522.568 760.444C536.116 773.911 554.442 781.47 573.544 781.47C592.646 781.47 610.972 773.911 624.519 760.444L943.749 443.022C918.273 436.373 893.911 426.019 871.443 412.292L572.821 709.107L120.549 258.281H753.223C746.233 234.797 742.463 210.474 742.016 185.976H73.1885C54.0118 185.976 35.6206 193.593 22.0607 207.153C8.50071 220.713 0.882813 239.105 0.882812 258.281V981.338C0.882813 1000.51 8.50071 1018.91 22.0607 1032.47C35.6206 1046.03 54.0118 1053.64 73.1885 1053.64H1085.47C1104.64 1053.64 1123.04 1046.03 1136.6 1032.47C1150.16 1018.91 1157.77 1000.51 1157.77 981.338V410.123C1135.37 424.224 1111 434.944 1085.47 441.938Z" fill="#FFD399"/>
<path d="M1193.93 180.925C1193.93 216.677 1183.33 251.626 1163.46 281.352C1143.6 311.079 1115.37 334.248 1082.34 347.93C1049.31 361.611 1012.96 365.191 977.899 358.216C942.834 351.241 910.625 334.025 885.345 308.745C860.065 283.465 842.849 251.255 835.874 216.191C828.899 181.126 832.479 144.78 846.16 111.75C859.842 78.7195 883.011 50.488 912.737 30.6254C942.464 10.7628 977.413 0.161133 1013.16 0.161133C1061.11 0.161133 1107.08 19.2059 1140.98 53.1057C1174.88 87.0056 1193.93 132.984 1193.93 180.925V180.925Z" fill="#FFD399"/>
</svg>
