<svg id="Layer_1" data-name="Layer 1" xmlns="http://www.w3.org/2000/svg" viewBox="0 0 480 480"><defs><style>.cls-1{fill:#2cc2f0;}</style></defs><title>medical lists</title><g id="doctor-report-writing-pen-check"><path class="cls-1" d="M368,256a32,32,0,0,1-32-32H320a48,48,0,0,0,96,0H400A32,32,0,0,1,368,256Z" transform="translate(-16 -16)"/><path class="cls-1" d="M424,288h-.8A103.9,103.9,0,0,0,472,200V160h8a8,8,0,0,0,8-8V136A119.84,119.84,0,0,0,272.24,64H24a8,8,0,0,0-8,8V488a8,8,0,0,0,8,8H488a8,8,0,0,0,8-8V360A72.11,72.11,0,0,0,424,288Zm0,72v16H408V360ZM264,136a104,104,0,0,1,208,0v8h-4.72l-31.6-31.68a39.85,39.85,0,0,0-41-9.68L270.72,144H264ZM240.48,352a66.84,66.84,0,0,0-.48,8v24H160v16h80v32H160v16h80v32H32V80H261.92A119,119,0,0,0,248,136v16a8,8,0,0,0,8,8h8v40a103.9,103.9,0,0,0,48.8,88H312a71.93,71.93,0,0,0-67.76,48H160v16ZM360,480H256V360a56,56,0,0,1,48-55.36V376H288a8,8,0,0,0-8,8v48h16V392h32v40h16V384a8,8,0,0,0-8-8H320V304h40ZM280,200V157.76l119.76-39.92a23.88,23.88,0,0,1,24.56,5.84L456,155.28V200a88,88,0,0,1-176,0ZM480,480H376V304h32v40h-8a8,8,0,0,0-8,8v32a8,8,0,0,0,8,8h32a8,8,0,0,0,8-8V352a8,8,0,0,0-8-8h-8V304a56.07,56.07,0,0,1,56,56Z" transform="translate(-16 -16)"/><path class="cls-1" d="M320,160h16v32H320Z" transform="translate(-16 -16)"/><path class="cls-1" d="M400,160h16v32H400Z" transform="translate(-16 -16)"/><path class="cls-1" d="M224,144H200V120a8,8,0,0,0-8-8H160a8,8,0,0,0-8,8v24H128a8,8,0,0,0-8,8v32a8,8,0,0,0,8,8h24v24a8,8,0,0,0,8,8h32a8,8,0,0,0,8-8V192h24a8,8,0,0,0,8-8V152A8,8,0,0,0,224,144Zm-8,32H192a8,8,0,0,0-8,8v24H168V184a8,8,0,0,0-8-8H136V160h24a8,8,0,0,0,8-8V128h16v24a8,8,0,0,0,8,8h24Z" transform="translate(-16 -16)"/><path class="cls-1" d="M72,144a24.07,24.07,0,0,0-24,24V416a9.63,9.63,0,0,0,.4,2.56l16,48a8,8,0,0,0,15.2,0l16-48A9.63,9.63,0,0,0,96,416V168A24.07,24.07,0,0,0,72,144Zm0,294.72L67.12,424h9.76ZM80,408H64V168a8,8,0,0,1,16,0Z" transform="translate(-16 -16)"/><path class="cls-1" d="M112,240h32v16H112Z" transform="translate(-16 -16)"/><path class="cls-1" d="M160,240h88v16H160Z" transform="translate(-16 -16)"/><path class="cls-1" d="M112,288h32v16H112Z" transform="translate(-16 -16)"/><path class="cls-1" d="M160,288h88v16H160Z" transform="translate(-16 -16)"/><path class="cls-1" d="M112,336h32v16H112Z" transform="translate(-16 -16)"/><path class="cls-1" d="M112,384h32v16H112Z" transform="translate(-16 -16)"/><path class="cls-1" d="M112,432h32v16H112Z" transform="translate(-16 -16)"/></g></svg>