<?xml version="1.0" encoding="utf-8"?>
<!-- Generator: Adobe Illustrator 24.0.1, SVG Export Plug-In . SVG Version: 6.00 Build 0)  -->
<svg version="1.1" id="Layer_1" xmlns="http://www.w3.org/2000/svg" xmlns:xlink="http://www.w3.org/1999/xlink" x="0px" y="0px"
	 viewBox="0 0 512 512" style="enable-background:new 0 0 512 512;" xml:space="preserve">
<style type="text/css">
	.st0{fill:#506D90;}
	.st1{fill:#455F7E;}
	.st2{fill:#ECF5FF;}
	.st3{fill:#DBEAFD;}
	.st4{fill:#405972;}
	.st5{fill:#FFFFFF;}
	.st6{fill:#EFEAF4;}
	.st7{fill:#DD8793;}
	.st8{fill:#D5707E;}
	.st9{fill:#F2CCBC;}
	.st10{fill:#ECAD9A;}
	.st11{fill:#CF9772;}
	.st12{fill:#C88556;}
	.st13{fill:#F7E07F;}
	.st14{fill:#F0D16F;}
</style>
<g>
	<g>
		<g>
			<g>
				<path class="st0" d="M474.5,393h-437c-16.6,0-30-13.4-30-30V80.5c0-16.6,13.4-30,30-30h437c16.6,0,30,13.4,30,30V363
					C504.5,379.5,491.1,393,474.5,393z"/>
				<path class="st1" d="M474.5,50.5h-30c16.6,0,30,13.4,30,30V363c0,16.6-13.4,30-30,30h30c16.6,0,30-13.4,30-30V80.5
					C504.5,64,491.1,50.5,474.5,50.5L474.5,50.5z"/>
				<path class="st2" d="M37.5,344V84.5c0-2.2,1.8-4,4-4h429c2.2,0,4,1.8,4,4V344c0,2.2-1.8,4-4,4h-429
					C39.3,348,37.5,346.2,37.5,344z"/>
				<path class="st3" d="M470.5,80.5h-30c2.2,0,4,1.8,4,4V344c0,2.2-1.8,4-4,4h30c2.2,0,4-1.8,4-4V84.5
					C474.5,82.3,472.7,80.5,470.5,80.5L470.5,80.5z"/>
				<path class="st1" d="M305.5,504.5h-99.1l15-111.5h69.1L305.5,504.5z"/>
				<path class="st4" d="M290.5,393h-30l15,111.5h30L290.5,393z"/>
				<path class="st0" d="M320.9,456.3l10.6,38.1c1.4,5.1-2.4,10.1-7.7,10.1H188.3c-5.3,0-9.1-5-7.7-10.1l10.6-38.1
					c1-3.5,4.1-5.9,7.7-5.9h114.4C316.8,450.4,319.9,452.8,320.9,456.3z"/>
				<path class="st1" d="M331.5,494.4l-10.6-38.1c-1-3.5-4.1-5.9-7.7-5.9h-30c3.6,0,6.7,2.4,7.7,5.9l10.6,38.1
					c1.4,5.1-2.4,10.1-7.7,10.1h30C329,504.5,332.9,499.5,331.5,494.4z"/>
			</g>
			<path class="st5" d="M97,67.5h318V348H97L97,67.5z"/>
			<path class="st6" d="M403,7.5h-30c6.6,0,12,5.4,12,12V348h30V19.5C415,12.9,409.6,7.5,403,7.5z"/>
			<path class="st1" d="M403,7.5H109c-6.6,0-12,5.4-12,12v48h318v-48C415,12.9,409.6,7.5,403,7.5z"/>
			<path class="st4" d="M403,7.5h-30c6.6,0,12,5.4,12,12v48h30v-48C415,12.9,409.6,7.5,403,7.5z"/>
			<g>
				<path class="st7" d="M341.1,348v-51.9c0-17.1-10.5-32.4-26.4-38.7l-20.3-8c-8-3.2-13.3-10.9-13.3-19.5v-16.6h-50.4v16.6
					c0,8.6-5.3,16.3-13.3,19.5l-20.3,8c-15.9,6.3-26.4,21.6-26.4,38.7V348"/>
				<g>
					<path class="st8" d="M314.7,257.4l-20.3-8c-8-3.2-13.3-10.9-13.3-19.5v-16.6h-30v31.6c0,8.6,5.3,16.3,13.3,19.5l20.3,8
						c15.9,6.3,26.4,21.6,26.4,38.7V348h30v-51.9C341.1,279,330.6,263.7,314.7,257.4z"/>
				</g>
				<path class="st9" d="M256,265c14.4,0,27.2-6.6,35.7-16.9c-6.4-3.7-25.5-10.6-25.5-18.1v-16.6h-35.4v16.6
					c0,7.6-4.1,14.4-10.5,18.1C228.8,258.4,241.6,265,256,265z"/>
				<path class="st10" d="M264.1,264.3c11.1-1.9,20.8-7.8,27.6-16.2c-5.9-3.5-10.5-10.1-10.5-18.1v-16.6h-30v31.6
					C251.2,253.4,256.3,261,264.1,264.3z"/>
				<path class="st9" d="M257.1,220c-1.6,0-4.3,5.1-5.8,4.9c-23.2-2.4-41.2-21.9-41.2-45.7v-19.9l15-36.1c0-13.3,10.8-9,24-9h28.8
					c13.3,0,9-4.2,9,9l15,36.1v19.9c0,16.1-8.2,30.2-20.7,38.4C274,222.4,257.1,220,257.1,220L257.1,220z"/>
				<g>
					<path class="st10" d="M286.9,123.3c0-13.3,4.2-9-9-9l-6,30.1v34.9c0.2,2.4,1.1,15.8-8.7,26.9c-12.5,14.1-31,11.7-32.4,11.5
						c3.6,2.3,9.8,5.7,18.1,7c0,0,3.6,0.5,7.1,0.5c25.4,0,45.9-20.6,45.9-45.9v-19.9L286.9,123.3z"/>
				</g>
				<path class="st11" d="M301.9,123.3c0-13.3-10.8-24-24-24h-43.8c-13.3,0-24,10.8-24,24v36.1c8.5,1.3,23.9,2.4,41.3-3.8
					c7.8-2.8,14.1-6.4,18.9-9.7c0.9-0.6,2.2-0.4,2.8,0.5c1.8,2.8,5.5,7.4,11.8,10.4c7.6,3.6,14.5,3,17,2.6V123.3z"/>
				<g>
					<path class="st12" d="M277.9,99.3h-30c13.3,0,24,10.8,24,24v22.3c0.5,0.1,0.9,0.4,1.2,0.8c1.8,2.8,5.5,7.4,11.8,10.4
						c7.6,3.6,14.5,3,17,2.6v-36.1C301.9,110,291.2,99.3,277.9,99.3L277.9,99.3z"/>
				</g>
			</g>
		</g>
		<path class="st13" d="M358.1,37.5h123.1c12.9,0,23.3,10.4,23.3,23.3v53.1c0,12.9-10.4,23.3-23.3,23.3h-69.1
			c-1.4,0-2.8,0.6-3.8,1.6l-22.5,22.5c-2,2-5.3,0.6-5.3-2.2v-16.5c0-3-2.4-5.4-5.4-5.4h-16.9c-12.9,0-23.3-10.4-23.3-23.3V60.8
			C334.7,47.9,345.2,37.5,358.1,37.5L358.1,37.5z"/>
		<g>
			<path class="st14" d="M481.2,37.5h-30c12.9,0,23.3,10.4,23.3,23.3v53.1c0,12.9-10.4,23.3-23.3,23.3h30
				c12.9,0,23.3-10.4,23.3-23.3V60.8C504.5,47.9,494.1,37.5,481.2,37.5L481.2,37.5z"/>
		</g>
	</g>
	<path d="M157,30c-4.1,0-7.5,3.4-7.5,7.5s3.4,7.5,7.5,7.5s7.5-3.4,7.5-7.5S161.2,30,157,30z M187,30c-4.1,0-7.5,3.4-7.5,7.5
		s3.4,7.5,7.5,7.5s7.5-3.4,7.5-7.5S191.2,30,187,30z M127,30c-4.1,0-7.5,3.4-7.5,7.5s3.4,7.5,7.5,7.5s7.5-3.4,7.5-7.5
		S131.2,30,127,30z M481.2,30h-58.7V19.5C422.5,8.7,413.7,0,403,0H109C98.3,0,89.5,8.7,89.5,19.5V43h-52C16.8,43,0,59.9,0,80.5V363
		c0,20.7,16.8,37.5,37.5,37.5h175.4l-5.7,42.5h-8.4c-6.9,0-13.1,4.7-14.9,11.4l-10.6,38.1c-1.3,4.7-0.4,9.6,2.6,13.5
		s7.5,6.1,12.3,6.1h135.5c4.9,0,9.4-2.2,12.3-6.1s3.9-8.8,2.6-13.5l-10.6-38.1c-1.9-6.7-8-11.4-14.9-11.4h-8.4l-5.7-42.5h175.4
		c20.7,0,37.5-16.8,37.5-37.5V60.8C512,43.8,498.2,30,481.2,30L481.2,30z M104.5,75H226c4.1,0,7.5-3.4,7.5-7.5S230.1,60,226,60
		H104.5V19.5c0-2.5,2-4.5,4.5-4.5h294c2.5,0,4.5,2,4.5,4.5V30h-49.4c-16.7,0-30.4,13.4-30.8,30H261c-4.1,0-7.5,3.4-7.5,7.5
		s3.4,7.5,7.5,7.5h66.2v38.9c0,17,13.8,30.8,30.8,30.8h14.9v14.4c0,4.3,2.6,8.2,6.5,9.8c3.9,1.6,8.5,0.8,11.6-2.3l16.5-16.5v117.1
		c0,4.1,3.4,7.5,7.5,7.5s7.5-3.4,7.5-7.5V144.7H467v195.7h-44.5v-38.2c0-4.1-3.4-7.5-7.5-7.5s-7.5,3.4-7.5,7.5v38.2h-58.9v-44.4
		c0-20.3-12.2-38.2-31.1-45.7l-20.3-8c-5.2-2-8.5-6.9-8.5-12.5v-8.5c12.6-9.8,20.7-25.1,20.7-42.2v-56c0-17.4-14.1-31.5-31.5-31.5
		h-43.8c-17.4,0-31.5,14.1-31.5,31.5v56c0,17.1,8.1,32.4,20.7,42.2v8.5c0,5.6-3.3,10.5-8.5,12.5l-20.3,8
		c-18.9,7.4-31.1,25.4-31.1,45.7v44.4h-58.9L104.5,75z M296.1,312.2c-4.1,0-7.5,3.4-7.5,7.5v20.7h-65.2v-20.7c0-4.1-3.4-7.5-7.5-7.5
		s-7.5,3.4-7.5,7.5v20.7h-30v-44.4c0-14.1,8.5-26.6,21.6-31.7l18.4-7.3c10,9.8,23.4,15.3,37.5,15.3c14.2,0,27.6-5.5,37.5-15.3
		l18.5,7.3c13.1,5.2,21.6,17.6,21.6,31.7v44.4h-30v-20.7C303.6,315.6,300.2,312.2,296.1,312.2L296.1,312.2z M223.2,167.9
		c10.5,0,21-1.8,30.7-5.3c5.6-2,11.1-4.6,16.3-7.7c2.7,3,6.4,6.3,11.5,8.7c4.6,2.2,9,3.2,12.8,3.5v12.3c0,21.2-17.2,38.4-38.4,38.4
		s-38.4-17.2-38.4-38.4v-11.6C219.5,167.8,221.3,167.9,223.2,167.9L223.2,167.9z M217.6,152.6v-29.4c0-9.1,7.4-16.5,16.5-16.5h43.8
		c9.1,0,16.5,7.4,16.5,16.5v28.7c-1.9-0.3-4.1-0.8-6.2-1.9c-4.5-2.2-7.2-5.4-8.8-7.7c-1.4-2.1-3.6-3.6-6.1-4.1
		c-2.5-0.5-5.1,0-7.2,1.5c-5.4,3.7-11.2,6.6-17.2,8.8C239,152,228.3,153.4,217.6,152.6z M280.6,248.6c-6.9,5.7-15.5,8.9-24.6,8.9
		s-17.8-3.2-24.6-8.9c4.4-5,6.9-11.6,6.9-18.6v-0.3c5.5,2,11.5,3,17.7,3s12.2-1.1,17.7-3v0.3C273.7,237,276.3,243.5,280.6,248.6
		L280.6,248.6z M313.2,457.9c0.2,0,0.4,0.1,0.5,0.4v0l10.6,38.1c0.1,0.2-0.2,0.7-0.5,0.6H188.3c-0.3,0-0.6-0.4-0.5-0.6l10.6-38.1
		c0.1-0.2,0.3-0.4,0.5-0.4L313.2,457.9L313.2,457.9z M222.3,442.9l5.7-42.5h56l5.7,42.5H222.3z M497,363c0,12.4-10.1,22.5-22.5,22.5
		h-437C25.1,385.5,15,375.4,15,363V80.5C15,68.1,25.1,58,37.5,58h52v15h-48C35.2,73,30,78.2,30,84.5V344c0,6.3,5.2,11.5,11.5,11.5
		h429c6.3,0,11.5-5.2,11.5-11.5V144.7c5.5-0.1,10.6-1.7,15-4.4V363z M89.5,88v252.4H45V88L89.5,88z M497,113.9
		c0,8.7-7.1,15.8-15.8,15.8c-8.4,0-60.7,0-69.1,0c-3.5,0-6.7,1.3-9.1,3.8l-15,15v-5.8c0-7.1-5.8-12.9-12.9-12.9h-16.9
		c-8.7,0-15.8-7.1-15.8-15.8V60.8c0-8.7,7.1-15.8,15.8-15.8h123.1c8.7,0,15.8,7.1,15.8,15.8L497,113.9z M470.6,94.9H368.7
		c-4.1,0-7.5,3.4-7.5,7.5s3.4,7.5,7.5,7.5h101.9c4.1,0,7.5-3.4,7.5-7.5S474.7,94.9,470.6,94.9z M470.6,64.9H368.7
		c-4.1,0-7.5,3.4-7.5,7.5s3.4,7.5,7.5,7.5h101.9c4.1,0,7.5-3.4,7.5-7.5S474.7,64.9,470.6,64.9z"/>
</g>
</svg>
