<svg id="Capa_1" data-name="Capa 1" xmlns="http://www.w3.org/2000/svg" viewBox="0 0 392.72 513"><defs><style>.cls-1{fill:#2cc2f0;stroke:#2cc2f0;stroke-miterlimit:10;}</style></defs><title>patient details-01</title><path class="cls-1" d="M407.11,27.86H159.26a7.5,7.5,0,0,0,0,15H407.11a7.5,7.5,0,0,0,0-15Z" transform="translate(-59.64 0.5)"/><path class="cls-1" d="M211.38,281.53a17.77,17.77,0,0,0-17.75-17.75H119.42a17.76,17.76,0,0,0-17.74,17.75v58a17.76,17.76,0,0,0,17.74,17.75h74.21a17.77,17.77,0,0,0,17.75-17.75Zm-15,58a2.75,2.75,0,0,1-2.75,2.75H119.42a2.75,2.75,0,0,1-2.74-2.75v-58a2.75,2.75,0,0,1,2.74-2.75h74.21a2.75,2.75,0,0,1,2.75,2.75Z" transform="translate(-59.64 0.5)"/><path class="cls-1" d="M193.63,376H119.42a17.76,17.76,0,0,0-17.74,17.75v58a17.76,17.76,0,0,0,17.74,17.75h74.21a17.77,17.77,0,0,0,17.75-17.75v-58A17.77,17.77,0,0,0,193.63,376Zm2.75,75.78a2.75,2.75,0,0,1-2.75,2.75H119.42a2.75,2.75,0,0,1-2.74-2.75v-58a2.75,2.75,0,0,1,2.74-2.75h74.21a2.75,2.75,0,0,1,2.75,2.75Z" transform="translate(-59.64 0.5)"/><path class="cls-1" d="M395.71,273.45H239.14a7.5,7.5,0,1,0,0,15H395.71a7.5,7.5,0,0,0,0-15Z" transform="translate(-59.64 0.5)"/><path class="cls-1" d="M395.71,303.05H239.14a7.5,7.5,0,0,0,0,15H395.71a7.5,7.5,0,0,0,0-15Z" transform="translate(-59.64 0.5)"/><path class="cls-1" d="M395.71,332.65H239.14a7.5,7.5,0,0,0,0,15H395.71a7.5,7.5,0,0,0,0-15Z" transform="translate(-59.64 0.5)"/><path class="cls-1" d="M395.71,385.71H239.14a7.5,7.5,0,1,0,0,15H395.71a7.5,7.5,0,0,0,0-15Z" transform="translate(-59.64 0.5)"/><path class="cls-1" d="M395.71,415.31H239.14a7.5,7.5,0,0,0,0,15H395.71a7.5,7.5,0,0,0,0-15Z" transform="translate(-59.64 0.5)"/><path class="cls-1" d="M395.71,444.91H239.14a7.5,7.5,0,1,0,0,15H395.71a7.5,7.5,0,0,0,0-15Z" transform="translate(-59.64 0.5)"/><path class="cls-1" d="M166.33,296.17,153.49,309l-6.76-6.76a7.5,7.5,0,0,0-10.61,10.61l12.06,12.06a7.5,7.5,0,0,0,10.61,0l18.14-18.14a7.5,7.5,0,0,0-10.6-10.61Z" transform="translate(-59.64 0.5)"/><path class="cls-1" d="M166.33,408.43l-12.84,12.84-6.77-6.76a7.5,7.5,0,0,0-10.6,10.6l12.06,12.07a7.5,7.5,0,0,0,10.61,0L176.93,419a7.5,7.5,0,0,0-10.6-10.61Z" transform="translate(-59.64 0.5)"/><path class="cls-1" d="M256,241.07A77.35,77.35,0,0,0,275.38,88.85a7.5,7.5,0,1,0-3.75,14.53,62.3,62.3,0,0,1,36.52,94.44v-.17a29.9,29.9,0,0,0-24.78-29.41,33,33,0,1,0-54.74,0,29.9,29.9,0,0,0-24.78,29.41v.17a62.28,62.28,0,0,1,36.52-94.44,7.5,7.5,0,0,0-3.75-14.53A77.34,77.34,0,0,0,256,241.07Zm0-109.33a18,18,0,1,1-18,18A18.05,18.05,0,0,1,256,131.74Zm-37.15,65.91A14.86,14.86,0,0,1,233.7,182.8h44.61a14.86,14.86,0,0,1,14.84,14.85v16.11a62.21,62.21,0,0,1-74.3,0V197.65Z" transform="translate(-59.64 0.5)"/><path class="cls-1" d="M60.14,26.73V485.28A26.76,26.76,0,0,0,86.87,512H425.14a26.75,26.75,0,0,0,26.72-26.72V273.5a7.5,7.5,0,0,0-15,0V485.28A11.74,11.74,0,0,1,425.14,497H86.86a11.74,11.74,0,0,1-11.72-11.72V70.73H436.86V238.5a7.5,7.5,0,0,0,15,0V26.73A26.76,26.76,0,0,0,425.14,0H86.86A26.76,26.76,0,0,0,60.14,26.73Zm70-11.73h295a11.74,11.74,0,0,1,11.72,11.73v29H130.17Zm-15,40.73h-40v-29A11.74,11.74,0,0,1,86.86,15h28.31Z" transform="translate(-59.64 0.5)"/></svg>