<svg id="Capa_1" data-name="Capa 1" xmlns="http://www.w3.org/2000/svg" viewBox="0 0 511.99 512"><defs><style>.cls-1{fill:#2cc2f0;}</style></defs><title>patient note</title><path class="cls-1" d="M414,148.75a10,10,0,0,0,10-10V30A30,30,0,0,0,394,0H30A30,30,0,0,0,0,30V482a30,30,0,0,0,30,30H394a30,30,0,0,0,30-30V408.33a10,10,0,1,0-20,0V482a10,10,0,0,1-10,10H30a10,10,0,0,1-10-10V30A10,10,0,0,1,30,20H394a10,10,0,0,1,10,10V138.75A10,10,0,0,0,414,148.75Z" transform="translate(-0.01 0)"/><path d="M212,54a92,92,0,0,0-63.12,158.87,11.3,11.3,0,0,0,1.07,1,91.83,91.83,0,0,0,124.09,0,10.2,10.2,0,0,0,1.07-1A92,92,0,0,0,212,54Zm0,164a71.58,71.58,0,0,1-43.49-14.67,50,50,0,0,1,87,0A71.6,71.6,0,0,1,212,218Zm-16-76v-6.5a16,16,0,0,1,32,0V142a16,16,0,0,1-32,0ZM270,188.68A69.36,69.36,0,0,0,240.48,164,35.84,35.84,0,0,0,248,142v-6.5a36,36,0,0,0-72,0V142a35.84,35.84,0,0,0,7.52,22,69.28,69.28,0,0,0-29.46,24.69,72,72,0,1,1,115.88,0Z" transform="translate(-0.01 0)"/><path d="M266,438H212a10,10,0,0,0,0,20h54a10,10,0,0,0,0-20Z" transform="translate(-0.01 0)"/><path d="M266,382H124a10,10,0,1,0,0,20H266a10,10,0,0,0,0-20Z" transform="translate(-0.01 0)"/><path d="M266,326H124a10,10,0,1,0,0,20H266a10,10,0,0,0,0-20Z" transform="translate(-0.01 0)"/><path d="M88.37,272.93A10,10,0,1,0,91.3,280,10.08,10.08,0,0,0,88.37,272.93Z" transform="translate(-0.01 0)"/><path d="M88.37,328.93A10,10,0,1,0,91.3,336,10.1,10.1,0,0,0,88.37,328.93Z" transform="translate(-0.01 0)"/><path d="M88.37,384.93A10,10,0,1,0,91.3,392,10.1,10.1,0,0,0,88.37,384.93Z" transform="translate(-0.01 0)"/><path d="M266,270H124a10,10,0,1,0,0,20H266a10,10,0,0,0,0-20Z" transform="translate(-0.01 0)"/><path class="cls-1" d="M491,130.32a42,42,0,0,0-57.37,15.37l-125.84,218a9.93,9.93,0,0,0-1.28,3.89l-8.86,79.34a10,10,0,0,0,15.87,9.16l64.28-47.34a10.08,10.08,0,0,0,2.73-3l125.84-218A42,42,0,0,0,491,130.32ZM320.06,426.39,324.69,385l28.94,16.71ZM368.21,387l-38.1-22,101-174.91,38.11,22ZM489.05,177.69l-9.85,17.08-38.11-22L451,155.69a22,22,0,1,1,38.1,22Z" transform="translate(-0.01 0)"/></svg>