<?xml version="1.0" encoding="utf-8"?>
<!-- Generator: Adobe Illustrator 24.0.1, SVG Export Plug-In . SVG Version: 6.00 Build 0)  -->
<svg version="1.1" id="Capa_1" xmlns="http://www.w3.org/2000/svg" xmlns:xlink="http://www.w3.org/1999/xlink" x="0px" y="0px"
	 viewBox="0 0 512 512" style="enable-background:new 0 0 512 512;" xml:space="preserve">
<style type="text/css">
	.st0{fill:#B3E59F;}
	.st1{fill:#95D6A4;}
	.st2{fill:#DD636E;}
	.st3{fill:#DA4A54;}
	.st4{fill:#FFFFFF;}
</style>
<g>
	<g>
		<path class="st0" d="M30.3,204.4l32.6-32.6c9.4-9.4,24.6-9.4,33.9,0l41.7,41.7c9.4,9.4,9.4,24.6,0,33.9l-28.9,28.9
			c-2.3,2.3-3.3,5.6-2.8,8.8c2.8,15.8,11.5,49.5,40.9,79c8.4,8.4,35.5,33.4,79,40.9c3.2,0.5,6.4-0.5,8.7-2.8l28.9-28.9
			c9.4-9.4,24.6-9.4,33.9,0l41.7,41.7c9.4,9.4,9.4,24.6,0,33.9l-32.6,32.6c-21.1,21.1-52.4,28.4-80.6,18.5
			c-37.5-13.2-86.8-37.5-132.2-82.9S25,322.5,11.8,285C1.9,256.8,9.2,225.5,30.3,204.4L30.3,204.4z"/>
		<g>
			<path class="st1" d="M226.8,405.1c-43.6-7.5-70.6-32.5-79-40.9c-29.4-29.4-38.1-63.1-40.9-79c-0.6-3.2,0.5-6.5,2.8-8.8l28.9-28.9
				c9.4-9.4,9.4-24.6,0-33.9l-41.7-41.7c-8.7-8.7-22.4-9.3-31.9-1.8c2.4,2.4,41.2,41.2,43.6,43.6c9.4,9.4,9.4,24.6,0,33.9
				l-28.9,28.9c-2.3,2.3-3.3,5.6-2.8,8.8c2.8,15.8,11.5,49.5,40.9,79c10.6,10.6,37.6,35.8,79,40.9
				C209.2,406.6,219.6,406,226.8,405.1z"/>
			<path class="st1" d="M340.1,415.1l-41.7-41.7c-8.7-8.7-22.5-9.3-32-1.8c0.7,0.5,1.3,1.1,2,1.8l41.7,41.7c9.4,9.4,9.4,24.6,0,33.9
				l-32.6,32.6c-11.1,11.1-25.1,18.4-40,21.4c25.2,5,51.5-2.9,70-21.4l32.6-32.6C349.5,439.7,349.5,424.5,340.1,415.1z"/>
		</g>
		<path class="st2" d="M467.7,221.6c49.5-49.5,49-129.9-1.4-178.8C417.7-4.4,339.5-4.1,291.1,43.4c-40.8,40.1-48.3,101.1-22.6,148.9
			c0.8,1.5,1,3.2,0.4,4.8l-19.3,57.7c-1.6,4.7,2.9,9.2,7.6,7.6l57.7-19.3c1.6-0.5,3.3-0.4,4.8,0.4
			C367.2,269,427.7,261.7,467.7,221.6L467.7,221.6z"/>
		<g>
			<path class="st3" d="M466.4,42.8C438.3,15.6,400.4,4.1,364,8.5c26.4,3.1,51.9,14.6,72.3,34.3c50.4,48.9,50.9,129.4,1.4,178.8
				c-20.7,20.7-46.8,32.6-73.7,35.8c36.9,4.4,75.4-7.5,103.7-35.8C517.2,172.2,516.7,91.7,466.4,42.8L466.4,42.8z"/>
		</g>
		<path class="st4" d="M438.3,116h-38.9c-1.9,0-3.4-1.5-3.4-3.4V73.6c0-3.7-3-6.8-6.8-6.8h-20.3c-3.7,0-6.8,3-6.8,6.8v38.9
			c0,1.9-1.5,3.4-3.4,3.4h-38.9c-3.7,0-6.8,3-6.8,6.8v20.3c0,3.7,3,6.8,6.8,6.8h38.9c1.9,0,3.4,1.5,3.4,3.4v38.9
			c0,3.7,3,6.8,6.8,6.8h20.3c3.7,0,6.8-3,6.8-6.8v-38.9c0-1.9,1.5-3.4,3.4-3.4h38.9c3.7,0,6.8-3,6.8-6.8v-20.3
			C445.1,119,442.1,116,438.3,116z"/>
	</g>
	<path d="M303.7,368.1c-12.3-12.3-32.3-12.3-44.6,0L230.2,397c-0.6,0.6-1.4,0.8-2.1,0.7c-38-6.5-63.3-27.1-75-38.8
		c-27.1-27.1-36-58.6-38.8-74.9c-0.1-0.8,0.1-1.6,0.7-2.2l28.9-28.9c12.2-12.1,12.1-32.6,0-44.6l-41.7-41.7
		c-12.3-12.3-32.3-12.3-44.6,0L25,199.1C1.9,222.2-6,256.9,4.7,287.5c18.1,51.5,46.6,96.9,84.7,135c22.5,22.5,47.9,41.8,75.6,57.6
		c3.6,2.1,8.2,0.8,10.2-2.8c2-3.6,0.8-8.2-2.8-10.2c-26.5-15.1-50.9-33.7-72.4-55.2c-36.5-36.5-63.8-80.1-81.1-129.4
		c-8.8-25.2-2.3-53.8,16.7-72.8l32.6-32.6c6.3-6.4,17-6.4,23.3,0l41.7,41.7c6.4,6.4,6.4,16.9,0,23.3l-28.9,28.9
		c-4,4-5.8,9.8-4.9,15.4c3.2,18.1,13,52.9,43,83c13,13,41,35.8,83.1,43c5.6,1,11.3-0.9,15.3-4.9l28.9-28.9c6.4-6.4,16.9-6.4,23.3,0
		l41.7,41.7c6.3,6.3,6.4,17,0,23.3l-32.6,32.6c-19,19-47.6,25.6-72.8,16.7c-8.9-3.1-17.9-6.7-26.5-10.5c-3.8-1.7-8.2,0-9.9,3.8
		c-1.7,3.8,0,8.2,3.8,9.9c9,4,18.3,7.7,27.7,11c30.5,10.7,65.2,2.9,88.3-20.3l32.6-32.6c12.2-12.1,12.1-32.6,0-44.6L303.7,368.1z
		 M471.6,37.4C437.9,4.8,388.8-7.7,343.3,4.9c-4,1.1-6.3,5.2-5.2,9.2c1.1,4,5.2,6.3,9.2,5.2c40.4-11.2,84-0.1,113.8,28.8
		c22.9,22.2,35.6,52,35.9,83.8c0.2,31.9-12,61.8-34.5,84.3c-18.3,18.3-41.5,29.8-67,33.4c-24.7,3.5-50.4-1.1-72.2-12.9
		c-3.3-1.8-7.2-2.1-10.7-0.9l-54.8,18.3l18.3-54.8c1.2-3.5,0.8-7.4-0.9-10.7c-11.8-22-16.4-47.8-12.8-72.7
		c3.7-25.7,15.5-49,34.1-67.3c6.4-6.2,13.4-11.8,21-16.4c3.5-2.2,4.6-6.8,2.5-10.3c-2.2-3.5-6.8-4.6-10.3-2.5
		C301,24.8,293,31,285.8,38c-21,20.6-34.2,46.8-38.4,75.8c-4,27.8,1,56.7,14.2,81.4l-19.1,57c-1.6,4.9-0.4,10.2,3.3,13.8
		c3.7,3.7,9,4.9,13.8,3.3l57-19.1c24.5,13,53.2,18.1,80.9,14.2c28.8-4,54.9-17,75.5-37.7c25.4-25.4,39.2-59.1,38.9-95
		C511.7,96,497.4,62.4,471.6,37.4L471.6,37.4z M389.2,59.4h-20.3c-7.9,0-14.3,6.4-14.3,14.3v34.8h-34.8c-7.9,0-14.3,6.4-14.3,14.3
		v20.3c0,7.9,6.4,14.3,14.3,14.3h34.8v34.8c0,7.9,6.4,14.3,14.3,14.3h20.3c7.9,0,14.3-6.4,14.3-14.3v-34.8h34.8
		c7.9,0,14.3-6.4,14.3-14.3v-20.3c0-7.9-6.4-14.3-14.3-14.3h-34.8V73.6C403.5,65.8,397.1,59.4,389.2,59.4z M437.6,123.5v18.9h-38.2
		c-6,0-10.9,4.9-10.9,10.9v38.2h-18.9v-38.2c0-6-4.9-10.9-10.9-10.9h-38.2v-18.9h38.2c6,0,10.9-4.9,10.9-10.9V74.4h18.9v38.2
		c0,6,4.9,10.9,10.9,10.9H437.6z"/>
</g>
</svg>
