<svg width="1302" height="1116" viewBox="0 0 1302 1116" fill="none" xmlns="http://www.w3.org/2000/svg">
<path d="M464.817 465.053C464.807 489.705 455.013 513.345 437.585 530.78C420.156 548.215 396.52 558.019 371.868 558.038C347.21 558.028 323.564 548.228 306.128 530.792C288.692 513.356 278.893 489.711 278.883 465.053C278.883 452.843 281.288 440.754 285.962 429.474C290.635 418.195 297.485 407.947 306.12 399.315C314.755 390.683 325.006 383.838 336.287 379.169C347.568 374.5 359.659 372.099 371.868 372.104C396.52 372.104 420.162 381.896 437.593 399.328C455.024 416.759 464.817 440.401 464.817 465.053V465.053ZM743.7 465.053C743.708 483.44 738.262 501.416 728.051 516.707C717.84 531.998 703.324 543.918 686.338 550.957C669.352 557.997 650.66 559.841 632.626 556.255C614.592 552.67 598.027 543.816 585.025 530.815C567.591 513.377 557.797 489.729 557.797 465.071C557.797 440.413 567.591 416.764 585.025 399.327C598.024 386.327 614.587 377.474 632.617 373.888C650.648 370.301 669.337 372.142 686.321 379.177C703.306 386.212 717.823 398.126 728.036 413.412C738.249 428.698 743.7 446.669 743.7 465.053V465.053ZM1022.58 465.053C1022.61 480.353 1018.85 495.422 1011.65 508.923C1004.46 522.424 994.037 533.94 981.32 542.448C968.604 550.956 953.984 556.193 938.758 557.695C923.531 559.197 908.17 556.916 894.036 551.057C879.903 545.197 867.434 535.939 857.737 524.104C848.04 512.269 841.415 498.224 838.449 483.214C835.483 468.204 836.268 452.694 840.734 438.06C845.201 423.427 853.21 410.122 864.053 399.327C877.057 386.332 893.621 377.484 911.652 373.901C929.683 370.317 948.371 372.158 965.356 379.192C982.341 386.226 996.859 398.136 1007.08 413.419C1017.3 428.701 1022.75 446.669 1022.76 465.053H1022.58ZM650.751 93.1845C556.032 92.4852 462.031 109.657 373.676 143.798C295.534 172.164 225.312 218.809 168.87 279.842C121.175 329.836 94.0676 395.966 92.949 465.053C93.4835 520.918 111.653 575.187 144.864 620.112C183.623 672.914 233.62 716.453 291.247 747.587L354.442 783.74L334.848 853.479C323.403 897.192 306.316 939.23 284.017 978.531C356.982 948.417 424.472 906.458 483.761 854.346L514.997 826.762L556.392 831.136C587.707 834.888 619.212 836.831 650.751 836.957C745.47 837.655 839.471 820.484 927.826 786.343C1005.98 757.936 1076.21 711.24 1132.63 650.155C1180.36 600.169 1207.48 534.014 1208.55 464.908C1207.43 395.821 1180.33 329.692 1132.63 279.697C1076.2 218.617 1005.98 171.922 927.826 143.509C839.457 109.45 745.453 92.3766 650.751 93.1845V93.1845ZM1301.5 465.053C1300.99 550.75 1270.1 633.489 1214.34 698.564C1150.83 773.936 1069.42 832.162 977.573 867.904C873.824 910.047 762.726 931.124 650.751 929.906C615.568 929.835 580.414 927.892 545.438 924.085C449.829 1008.69 335.226 1068.98 211.35 1099.86C184.204 1107.3 156.525 1112.65 128.559 1115.84H124.944C117.687 1115.85 110.693 1113.12 105.349 1108.21C99.4488 1102.97 95.3819 1095.98 93.7443 1088.26V1087.53C92.999 1086.21 92.5776 1084.73 92.5148 1083.22C92.4519 1081.7 92.7494 1080.2 93.3828 1078.82C94.3189 1076.52 94.8097 1074.07 94.8289 1071.59C94.5879 1070.62 95.6725 1068.32 98.0827 1064.68L102.457 1058.14L107.555 1051.96L113.375 1045.41C116.774 1041.53 124.281 1033.18 135.899 1020.36L160.952 992.776C166.038 987.208 173.546 977.64 183.476 964.07C192.253 952.321 200.144 939.934 207.083 927.014C212.892 915.879 219.424 901.598 226.678 884.172C234.125 866.186 240.428 847.748 245.55 828.967C174.233 790.056 112.751 735.363 65.7982 669.063C23.2401 609.528 0.246051 538.234 0 465.053C0.224962 401.293 18.0663 338.836 51.5539 284.578C87.031 226.016 134.265 175.447 190.272 136.062C253.633 91.8845 323.808 58.3965 398.007 36.9307C479.975 12.2589 565.151 -0.107633 650.751 0.235547C736.354 -0.155369 821.538 12.2122 903.496 36.9307C977.678 58.4374 1047.85 91.9223 1111.23 136.062C1167.26 175.425 1214.49 225.999 1249.95 284.578C1283.42 338.841 1301.26 401.295 1301.5 465.053Z" fill="#FFE877"/>
</svg>
