<svg width="1302" height="1116" viewBox="0 0 1302 1116" fill="none" xmlns="http://www.w3.org/2000/svg">
<path d="M464.817 465.213C464.807 489.865 455.013 513.505 437.585 530.94C420.156 548.375 396.52 558.179 371.868 558.198C347.21 558.188 323.564 548.389 306.128 530.953C288.692 513.517 278.893 489.871 278.883 465.213C278.883 453.004 281.288 440.914 285.962 429.634C290.635 418.355 297.485 408.107 306.12 399.475C314.755 390.844 325.006 383.998 336.287 379.329C347.568 374.66 359.659 372.259 371.868 372.264C396.52 372.264 420.162 382.057 437.593 399.488C455.024 416.919 464.817 440.561 464.817 465.213V465.213ZM743.7 465.213C743.708 483.6 738.262 501.576 728.051 516.867C717.84 532.158 703.324 544.078 686.338 551.118C669.352 558.157 650.66 560.001 632.626 556.416C614.592 552.83 598.027 543.977 585.025 530.975C567.591 513.537 557.797 489.889 557.797 465.231C557.797 440.573 567.591 416.924 585.025 399.487C598.024 386.487 614.587 377.634 632.617 374.048C650.648 370.461 669.337 372.302 686.321 379.337C703.306 386.372 717.823 398.286 728.036 413.572C738.249 428.858 743.7 446.829 743.7 465.213V465.213ZM1022.58 465.213C1022.61 480.513 1018.85 495.582 1011.65 509.083C1004.46 522.585 994.037 534.1 981.32 542.608C968.604 551.116 953.984 556.353 938.758 557.855C923.531 559.357 908.17 557.077 894.036 551.217C879.903 545.357 867.434 536.099 857.737 524.264C848.04 512.43 841.415 498.384 838.449 483.374C835.483 468.364 836.268 452.854 840.734 438.221C845.201 423.587 853.21 410.282 864.053 399.487C877.057 386.493 893.621 377.645 911.652 374.061C929.683 370.477 948.371 372.318 965.356 379.352C982.341 386.386 996.859 398.296 1007.08 413.579C1017.3 428.861 1022.75 446.829 1022.76 465.213H1022.58ZM650.751 93.3447C556.032 92.6454 462.031 109.817 373.676 143.959C295.534 172.324 225.312 218.969 168.87 280.002C121.175 329.996 94.0676 396.126 92.949 465.213C93.4835 521.078 111.653 575.347 144.864 620.272C183.623 673.074 233.62 716.613 291.247 747.747L354.442 783.9L334.848 853.639C323.403 897.352 306.316 939.39 284.017 978.692C356.982 948.578 424.472 906.618 483.761 854.507L514.997 826.922L556.392 831.296C587.707 835.048 619.212 836.992 650.751 837.117C745.47 837.815 839.471 820.644 927.826 786.503C1005.98 758.096 1076.21 711.4 1132.63 650.315C1180.36 600.329 1207.48 534.174 1208.55 465.068C1207.43 395.981 1180.33 329.852 1132.63 279.857C1076.2 218.778 1005.98 172.082 927.826 143.669C839.457 109.61 745.453 92.5367 650.751 93.3447V93.3447ZM1301.5 465.213C1300.99 550.91 1270.1 633.649 1214.34 698.724C1150.83 774.096 1069.42 832.322 977.573 868.064C873.824 910.207 762.726 931.284 650.751 930.066C615.568 929.995 580.414 928.052 545.438 924.245C449.829 1008.85 335.226 1069.14 211.35 1100.02C184.204 1107.46 156.525 1112.81 128.559 1116H124.944C117.687 1116.01 110.693 1113.28 105.349 1108.37C99.4488 1103.13 95.3819 1096.14 93.7443 1088.42V1087.69C92.999 1086.37 92.5776 1084.89 92.5148 1083.38C92.4519 1081.86 92.7494 1080.36 93.3828 1078.98C94.3189 1076.68 94.8097 1074.23 94.8289 1071.75C94.5879 1070.78 95.6725 1068.48 98.0827 1064.84L102.457 1058.3L107.555 1052.12L113.375 1045.57C116.774 1041.69 124.281 1033.34 135.899 1020.52L160.952 992.936C166.038 987.368 173.546 977.8 183.476 964.23C192.253 952.481 200.144 940.094 207.083 927.174C212.892 916.039 219.424 901.758 226.678 884.333C234.125 866.347 240.428 847.908 245.55 829.127C174.233 790.216 112.751 735.523 65.7982 669.223C23.2401 609.688 0.246051 538.394 0 465.213C0.224962 401.453 18.0663 338.996 51.5539 284.738C87.031 226.176 134.265 175.607 190.272 136.222C253.633 92.0447 323.808 58.5567 398.007 37.0908C479.975 12.419 565.151 0.052523 650.751 0.395703C736.354 0.00478757 821.538 12.3723 903.496 37.0908C977.678 58.5975 1047.85 92.0825 1111.23 136.222C1167.26 175.585 1214.49 226.159 1249.95 284.738C1283.42 339.001 1301.26 401.455 1301.5 465.213Z" fill="#FFD399"/>
</svg>
