<svg xmlns="http://www.w3.org/2000/svg" xmlns:xlink="http://www.w3.org/1999/xlink" viewBox="0 0 500 500" preserveAspectRatio="none"><defs><style>.cls-1{fill:url(#New_Gradient_Swatch_3);}.cls-2{fill:url(#New_Gradient_Swatch_3-2);}.cls-3{fill:url(#New_Gradient_Swatch_3-3);}.cls-4{fill:url(#New_Gradient_Swatch_3-4);}.cls-5{fill:url(#New_Gradient_Swatch_3-5);}.cls-6{fill:url(#New_Gradient_Swatch_3-6);}.cls-7{fill:url(#New_Gradient_Swatch_3-7);}.cls-8{fill:url(#New_Gradient_Swatch_3-8);}.cls-9{fill:url(#New_Gradient_Swatch_3-9);}.cls-10{fill:url(#New_Gradient_Swatch_3-10);}.cls-11{fill:url(#New_Gradient_Swatch_3-11);}.cls-12{fill:url(#New_Gradient_Swatch_3-12);}.cls-13{fill:url(#New_Gradient_Swatch_3-13);}.cls-14{fill:url(#New_Gradient_Swatch_3-14);}.cls-15{fill:url(#New_Gradient_Swatch_3-15);}.cls-16{fill:url(#New_Gradient_Swatch_3-16);}.cls-17{fill:url(#New_Gradient_Swatch_3-17);}.cls-18{fill:url(#New_Gradient_Swatch_3-18);}.cls-19{fill:url(#New_Gradient_Swatch_3-19);}.cls-20{fill:url(#New_Gradient_Swatch_3-20);}.cls-21{fill:url(#New_Gradient_Swatch_3-21);}.cls-22{fill:url(#New_Gradient_Swatch_3-22);}.cls-23{fill:url(#New_Gradient_Swatch_3-23);}.cls-24{fill:url(#New_Gradient_Swatch_3-24);}.cls-25{fill:url(#New_Gradient_Swatch_3-25);}.cls-26{fill:url(#New_Gradient_Swatch_3-26);}.cls-27{fill:url(#radial-gradient);}.cls-28{fill:url(#New_Gradient_Swatch_3-27);}.cls-29{fill:#1a2233;}.cls-30{font-size:57px;font-family:Lobster1.3, "Lobster 1.3";}.cls-30,.cls-34,.cls-40{fill:#2e292c;}.cls-31{letter-spacing:-0.02em;}.cls-32{letter-spacing:0em;}.cls-33{letter-spacing:-0.01em;}.cls-34{font-size:26px;font-family:Montserrat-Regular, Montserrat;}.cls-35{font-size:36px;fill:#020202;font-family:Montserrat-Bold, Montserrat;font-weight:700;}.cls-36{letter-spacing:-0.01em;}.cls-37{letter-spacing:-0.01em;}.cls-38{letter-spacing:-0.04em;}.cls-39{letter-spacing:-0.02em;}.cls-40{font-size:26.31px;font-family:Montserrat-SemiBold, Montserrat;font-weight:600;}</style><linearGradient id="New_Gradient_Swatch_3" x1="98.2" y1="233.34" x2="400.94" y2="233.34" gradientUnits="userSpaceOnUse"><stop offset="0" stop-color="#a0a0a0"/><stop offset="0.01" stop-color="#9c9c9c"/><stop offset="0.05" stop-color="#838383"/><stop offset="0.09" stop-color="#737373"/><stop offset="0.13" stop-color="#6e6e6e"/><stop offset="0.17" stop-color="#747474"/><stop offset="0.23" stop-color="#848484"/><stop offset="0.29" stop-color="#9f9f9f"/><stop offset="0.36" stop-color="#c5c5c5"/><stop offset="0.39" stop-color="#ddd"/><stop offset="0.56" stop-color="#fff"/><stop offset="0.7" stop-color="#aaa"/><stop offset="0.71" stop-color="#a2a2a2"/><stop offset="0.77" stop-color="#7d7d7d"/><stop offset="0.83" stop-color="#5f5f5f"/><stop offset="0.89" stop-color="#4a4a4a"/><stop offset="0.95" stop-color="#3d3d3d"/><stop offset="1" stop-color="#393939"/></linearGradient><linearGradient id="New_Gradient_Swatch_3-2" x1="346.4" y1="236.27" x2="367.99" y2="236.87" xlink:href="#New_Gradient_Swatch_3"/><linearGradient id="New_Gradient_Swatch_3-3" x1="348.08" y1="236.37" x2="369.67" y2="236.97" xlink:href="#New_Gradient_Swatch_3"/><linearGradient id="New_Gradient_Swatch_3-4" x1="349.76" y1="236.48" x2="371.35" y2="237.08" xlink:href="#New_Gradient_Swatch_3"/><linearGradient id="New_Gradient_Swatch_3-5" x1="351.44" y1="236.59" x2="373.04" y2="237.18" xlink:href="#New_Gradient_Swatch_3"/><linearGradient id="New_Gradient_Swatch_3-6" x1="353.12" y1="236.69" x2="374.72" y2="237.29" xlink:href="#New_Gradient_Swatch_3"/><linearGradient id="New_Gradient_Swatch_3-7" x1="354.8" y1="236.8" x2="376.4" y2="237.4" xlink:href="#New_Gradient_Swatch_3"/><linearGradient id="New_Gradient_Swatch_3-8" x1="356.48" y1="236.91" x2="378.08" y2="237.5" xlink:href="#New_Gradient_Swatch_3"/><linearGradient id="New_Gradient_Swatch_3-9" x1="358.16" y1="237.01" x2="379.76" y2="237.61" xlink:href="#New_Gradient_Swatch_3"/><linearGradient id="New_Gradient_Swatch_3-10" x1="359.85" y1="237.12" x2="381.45" y2="237.72" xlink:href="#New_Gradient_Swatch_3"/><linearGradient id="New_Gradient_Swatch_3-11" x1="361.53" y1="237.23" x2="383.13" y2="237.82" xlink:href="#New_Gradient_Swatch_3"/><linearGradient id="New_Gradient_Swatch_3-12" x1="363.21" y1="237.33" x2="384.81" y2="237.93" xlink:href="#New_Gradient_Swatch_3"/><linearGradient id="New_Gradient_Swatch_3-13" x1="364.89" y1="237.44" x2="386.49" y2="238.04" xlink:href="#New_Gradient_Swatch_3"/><linearGradient id="New_Gradient_Swatch_3-14" x1="238.54" y1="116.22" x2="259.84" y2="116.22" gradientTransform="translate(-3.98 4.34) rotate(-0.97)" xlink:href="#New_Gradient_Swatch_3"/><linearGradient id="New_Gradient_Swatch_3-15" x1="157.24" y1="244.73" x2="135.97" y2="248.44" xlink:href="#New_Gradient_Swatch_3"/><linearGradient id="New_Gradient_Swatch_3-16" x1="155.59" y1="245.08" x2="134.32" y2="248.8" xlink:href="#New_Gradient_Swatch_3"/><linearGradient id="New_Gradient_Swatch_3-17" x1="153.94" y1="245.43" x2="132.67" y2="249.15" xlink:href="#New_Gradient_Swatch_3"/><linearGradient id="New_Gradient_Swatch_3-18" x1="152.3" y1="245.79" x2="131.03" y2="249.5" xlink:href="#New_Gradient_Swatch_3"/><linearGradient id="New_Gradient_Swatch_3-19" x1="150.65" y1="246.14" x2="129.38" y2="249.86" xlink:href="#New_Gradient_Swatch_3"/><linearGradient id="New_Gradient_Swatch_3-20" x1="149.01" y1="246.5" x2="127.73" y2="250.21" xlink:href="#New_Gradient_Swatch_3"/><linearGradient id="New_Gradient_Swatch_3-21" x1="147.36" y1="246.85" x2="126.09" y2="250.56" xlink:href="#New_Gradient_Swatch_3"/><linearGradient id="New_Gradient_Swatch_3-22" x1="145.71" y1="247.2" x2="124.44" y2="250.92" xlink:href="#New_Gradient_Swatch_3"/><linearGradient id="New_Gradient_Swatch_3-23" x1="144.07" y1="247.56" x2="122.79" y2="251.27" xlink:href="#New_Gradient_Swatch_3"/><linearGradient id="New_Gradient_Swatch_3-24" x1="142.42" y1="247.91" x2="121.15" y2="251.63" xlink:href="#New_Gradient_Swatch_3"/><linearGradient id="New_Gradient_Swatch_3-25" x1="140.78" y1="248.26" x2="119.5" y2="251.98" xlink:href="#New_Gradient_Swatch_3"/><linearGradient id="New_Gradient_Swatch_3-26" x1="139.13" y1="248.62" x2="117.85" y2="252.33" xlink:href="#New_Gradient_Swatch_3"/><radialGradient id="radial-gradient" cx="257.87" cy="354.05" r="131.66" gradientTransform="matrix(0.84, -0.21, -0.13, 1.23, 85.42, -29.56)" gradientUnits="userSpaceOnUse"><stop offset="0.06" stop-color="#1a2233"/><stop offset="0.06" stop-color="#343e4f"/><stop offset="1" stop-color="#11152c"/></radialGradient><linearGradient id="New_Gradient_Swatch_3-27" x1="78.41" y1="358.56" x2="430.03" y2="358.56" gradientTransform="matrix(0.84, -0.21, -0.13, 1.23, 85.42, -29.56)" xlink:href="#New_Gradient_Swatch_3"/></defs><title>SPECIAL OFFER-01</title><g id="OBJECTS"><path class="cls-1" d="M249.57,96.26A137.08,137.08,0,1,1,112.49,233.34,137.07,137.07,0,0,1,249.57,96.26m0-14.29a151.37,151.37,0,1,0,107,44.33A150.39,150.39,0,0,0,249.57,82Z"/><path class="cls-2" d="M348.25,176a111.23,111.23,0,0,1,8.27,13.74,107.77,107.77,0,0,1,6.13,14.84,105.17,105.17,0,0,1-5.12,78.26,109.59,109.59,0,0,1-8,13.9,111.51,111.51,0,0,0,7.81-14,108.58,108.58,0,0,0,5.72-14.95,107.19,107.19,0,0,0-.7-63.11,108.91,108.91,0,0,0-6-14.83A111.35,111.35,0,0,0,348.25,176Z"/><path class="cls-3" d="M350,175.5a113.21,113.21,0,0,1,8.28,13.9,110.87,110.87,0,0,1,6.12,15,107.1,107.1,0,0,1-5.14,78.95,112.68,112.68,0,0,1-8,14.05A112.06,112.06,0,0,0,359,283.24a108.28,108.28,0,0,0,5.73-15.1,107.12,107.12,0,0,0,4.41-31.88,108.25,108.25,0,0,0-5.09-31.78,110.81,110.81,0,0,0-6-15A113.15,113.15,0,0,0,350,175.5Z"/><path class="cls-4" d="M351.65,175a115.22,115.22,0,0,1,8.29,14.06,112.07,112.07,0,0,1,6.11,15.13,109,109,0,0,1-5.16,79.65,112.14,112.14,0,0,1-8,14.2,114,114,0,0,0,7.83-14.3,110.53,110.53,0,0,0,5.73-15.24,111.1,111.1,0,0,0-.66-64.21,111.36,111.36,0,0,0-6-15.13A115.91,115.91,0,0,0,351.65,175Z"/><path class="cls-5" d="M353.35,174.57a116.39,116.39,0,0,1,8.29,14.2A112,112,0,0,1,373,236.48a111.37,111.37,0,0,1-10.41,47.92,113.94,113.94,0,0,1-8,14.35,114.56,114.56,0,0,0,7.83-14.45,112.3,112.3,0,0,0-.92-95.43A115.59,115.59,0,0,0,353.35,174.57Z"/><path class="cls-6" d="M355,174.1a117.74,117.74,0,0,1,8.31,14.36,115.08,115.08,0,0,1,6.1,15.43,113,113,0,0,1-5.21,81,116.54,116.54,0,0,1-8.05,14.5,117.78,117.78,0,0,0,7.84-14.6,114.24,114.24,0,0,0,5.73-15.53,115.24,115.24,0,0,0-.61-65.32,115,115,0,0,0-6-15.42A116.39,116.39,0,0,0,355,174.1Z"/><path class="cls-7" d="M356.74,173.63a117.74,117.74,0,0,1,8.31,14.51,114.94,114.94,0,0,1,.87,97.32,118.53,118.53,0,0,1-8.07,14.65,118.45,118.45,0,0,0,7.86-14.75,116.56,116.56,0,0,0,5.73-15.67,117.43,117.43,0,0,0-.59-65.88,117.5,117.5,0,0,0-6-15.57A119,119,0,0,0,356.74,173.63Z"/><path class="cls-8" d="M358.44,173.17a120.22,120.22,0,0,1,8.32,14.66,116.82,116.82,0,0,1,.83,98.16,120.4,120.4,0,0,1-8.07,14.8,119.57,119.57,0,0,0,7.86-14.89,118.18,118.18,0,0,0-.83-98A118.85,118.85,0,0,0,358.44,173.17Z"/><path class="cls-9" d="M360.14,172.7a121.51,121.51,0,0,1,8.32,14.81,118.69,118.69,0,0,1,6.09,15.88,118,118,0,0,1-13.37,98.07,123.21,123.21,0,0,0,13.62-31,120.12,120.12,0,0,0-6.55-82.85A120.71,120.71,0,0,0,360.14,172.7Z"/><path class="cls-10" d="M361.83,172.23a120.31,120.31,0,0,1,14.95,98.71,118.77,118.77,0,0,1-13.93,31.2,122.91,122.91,0,0,0-1-129.91Z"/><path class="cls-11" d="M363.53,171.77a119,119,0,0,1,14.41,31.28,122.19,122.19,0,0,1,.51,68.27,119.8,119.8,0,0,1-13.93,31.5,125.24,125.24,0,0,0,13.12-99.68,126.43,126.43,0,0,0-14.11-31.37Z"/><path class="cls-12" d="M365.23,171.3a121.13,121.13,0,0,1,14.41,31.59A123.66,123.66,0,0,1,366.18,303.5a126.36,126.36,0,0,0,7.18-116.84A123.19,123.19,0,0,0,365.23,171.3Z"/><path class="cls-13" d="M366.93,170.83A126.27,126.27,0,0,1,381.81,272.1a123.53,123.53,0,0,1-14,32.08,128.78,128.78,0,0,0-.92-133.35Z"/><polygon class="cls-14" points="246.97 106.21 250.37 112.82 257.75 113.77 252.51 119.05 253.89 126.35 247.25 123 240.73 126.58 241.86 119.22 236.45 114.13 243.79 112.93 246.97 106.21"/><path class="cls-15" d="M145.76,180.15a125.42,125.42,0,0,0,18,130,122.62,122.62,0,0,1-27.75-96.91,119.8,119.8,0,0,1,9.71-33.1Z"/><path class="cls-16" d="M144,179.89a127.91,127.91,0,0,0,.13,101.6,127.6,127.6,0,0,0,8.06,15.42,125.06,125.06,0,0,0,10.07,14.22,124.94,124.94,0,0,1-27.92-97.82A124.14,124.14,0,0,1,138,196.25,126.19,126.19,0,0,1,144,179.89Z"/><path class="cls-17" d="M142.25,179.63a129.28,129.28,0,0,0,8.37,118.09,126.81,126.81,0,0,0,10.1,14.38,126.38,126.38,0,0,1-18.47-132.47Z"/><path class="cls-18" d="M140.5,179.37a125.51,125.51,0,0,0-5.78,16.75,128.12,128.12,0,0,0-3.49,17.35,133.52,133.52,0,0,0,9.71,69.33,133.78,133.78,0,0,0,18.24,30.27,125.83,125.83,0,0,1-18.53-30.15,129.77,129.77,0,0,1-9.73-69.49,124.86,124.86,0,0,1,9.58-34.06Z"/><path class="cls-19" d="M138.74,179.11a133.59,133.59,0,0,0-9.21,34.42,136,136,0,0,0,9.81,69.92,131.41,131.41,0,0,0,8.14,15.89A129.69,129.69,0,0,0,157.64,314a127.87,127.87,0,0,1-18.59-30.45,132,132,0,0,1-9.83-70.09A130.83,130.83,0,0,1,132.76,196,128.74,128.74,0,0,1,138.74,179.11Z"/><path class="cls-20" d="M137,178.85a130.15,130.15,0,0,0-5.74,17.07,133.15,133.15,0,0,0-3.43,17.67,138.36,138.36,0,0,0,9.93,70.52A137.74,137.74,0,0,0,156.1,315a129.58,129.58,0,0,1-18.64-30.77,134.22,134.22,0,0,1-10-70.68A133.36,133.36,0,0,1,131,195.86,130.87,130.87,0,0,1,137,178.85Z"/><path class="cls-21" d="M135.24,178.59a131.3,131.3,0,0,0-5.73,17.23,135.08,135.08,0,0,0-3.4,17.83,141.07,141.07,0,0,0,10,71.11A139.08,139.08,0,0,0,154.56,316a131.1,131.1,0,0,1-18.7-31.08,136.89,136.89,0,0,1-10.06-71.28,133.56,133.56,0,0,1,3.49-17.84A131.62,131.62,0,0,1,135.24,178.59Z"/><path class="cls-22" d="M133.48,178.33a133,133,0,0,0-5.7,17.4,135.56,135.56,0,0,0-3.37,18,143.43,143.43,0,0,0,10.14,71.71,138.76,138.76,0,0,0,8.21,16.35A136.33,136.33,0,0,0,153,316.94a136,136,0,0,1-10.46-15.05,137.83,137.83,0,0,1-8.3-16.35,139.25,139.25,0,0,1-10.17-71.87,135.8,135.8,0,0,1,3.46-18A133.73,133.73,0,0,1,133.48,178.33Z"/><path class="cls-23" d="M131.73,178.07A135.18,135.18,0,0,0,126,195.63a139.79,139.79,0,0,0-3.34,18.14A145.8,145.8,0,0,0,133,286.07a143.47,143.47,0,0,0,18.52,31.84,135.25,135.25,0,0,1-18.81-31.71,141.69,141.69,0,0,1-10.28-72.46,138.2,138.2,0,0,1,3.43-18.17A134.85,134.85,0,0,1,131.73,178.07Z"/><path class="cls-24" d="M130,177.81a136.23,136.23,0,0,0-5.66,17.72,140.43,140.43,0,0,0-3.32,18.3,148.67,148.67,0,0,0,10.37,72.9,141,141,0,0,0,8.26,16.66,139.29,139.29,0,0,0,10.32,15.48,139,139,0,0,1-10.52-15.36,141.6,141.6,0,0,1-8.35-16.66,144.1,144.1,0,0,1-10.39-73.05,140.79,140.79,0,0,1,3.4-18.33A138.53,138.53,0,0,1,130,177.81Z"/><path class="cls-25" d="M128.22,177.55a138.42,138.42,0,0,0-5.65,17.88,143,143,0,0,0-3.28,18.46,151.1,151.1,0,0,0,10.47,73.5,146.42,146.42,0,0,0,8.29,16.81,142.48,142.48,0,0,0,10.35,15.64,142.17,142.17,0,0,1-10.55-15.52,144.64,144.64,0,0,1-8.38-16.81A146.45,146.45,0,0,1,119,213.86a141,141,0,0,1,3.37-18.48A137.73,137.73,0,0,1,128.22,177.55Z"/><path class="cls-26" d="M126.47,177.29a138.69,138.69,0,0,0-5.63,18.05A144.6,144.6,0,0,0,117.58,214,153.81,153.81,0,0,0,128.17,288a146.37,146.37,0,0,0,8.31,17,143.81,143.81,0,0,0,10.38,15.8,144.45,144.45,0,0,1-10.58-15.68,147.06,147.06,0,0,1-8.41-17,149.2,149.2,0,0,1-10.6-74.24,145.26,145.26,0,0,1,3.34-18.64A139.92,139.92,0,0,1,126.47,177.29Z"/><path class="cls-27" d="M387.91,374.09,111.76,404.81c-5.06.56-8.34-4.16-7.32-10.56l8.5-53.27c1-6.4,6-12,11-12.6l276.15-30.72c5.06-.57,8.34,4.16,7.32,10.56l-8.5,53.27C397.91,367.88,393,373.52,387.91,374.09Z"/><path class="cls-28" d="M381,379.8l-269.27,30c-5,.55-8.14-4.06-7.15-10.3l8.29-51.94c1-6.24,5.81-11.74,10.75-12.29l269.27-30c4.94-.55,8.14,4.06,7.15,10.3l-8.29,51.94C390.74,373.75,385.93,379.25,381,379.8Z"/><polygon class="cls-29" points="372.38 331.65 375.67 338.32 383.03 339.39 377.71 344.58 378.96 351.91 372.38 348.45 365.8 351.91 367.06 344.58 361.73 339.39 369.09 338.32 372.38 331.65"/><polygon class="cls-29" points="128.27 358.24 131.56 364.9 138.93 365.98 133.6 371.17 134.86 378.5 128.27 375.04 121.69 378.5 122.95 371.17 117.62 365.98 124.98 364.9 128.27 358.24"/><text class="cls-30" transform="translate(147.39 250)">P<tspan class="cls-31" x="32.66" y="0">l</tspan><tspan class="cls-32" x="47.54" y="0">a</tspan><tspan x="76.27" y="0">t</tspan><tspan class="cls-33" x="92.91" y="0">i</tspan><tspan x="107.79" y="0">num</tspan></text><text class="cls-34" transform="translate(149.45 191.02)">SPECIAL OFFER</text><text class="cls-35" transform="translate(141.64 377.86) rotate(-6.41) scale(0.87 1)"><tspan class="cls-36">F</tspan><tspan x="22.75" y="0">OR 60 </tspan><tspan class="cls-37" x="147.35" y="0">D</tspan><tspan class="cls-38" x="176.72" y="0">A</tspan><tspan class="cls-39" x="202.75" y="0">Y</tspan><tspan x="226.55" y="0">S </tspan></text><text class="cls-40" transform="translate(169.33 321.22) rotate(-5.63)">FREE TRIAL </text></g></svg>