<svg id="Layer_1" data-name="Layer 1" xmlns="http://www.w3.org/2000/svg" viewBox="0 0 480 480"><defs><style>.cls-1{fill:#00ddc2;}.cls-2{fill:#ff7956;}.cls-3{fill:#ff5023;}.cls-4{fill:#00ccb3;}.cls-5{fill:#ebbf00;}.cls-6{fill:#ffde55;}.cls-7{fill:#c6c5ca;}.cls-8{fill:#57a4ff;}.cls-9{fill:#2488ff;}.cls-10{fill:#898890;}.cls-11{font-size:65px;font-family:Poppins-Bold, Poppins;font-weight:700;}</style></defs><title>shop (1)</title><g id="shop"><rect class="cls-1" x="40" y="184" width="400" height="288" rx="16"/><path class="cls-2" d="M64,24H448a40,40,0,0,1,40,40h0a40,40,0,0,1-40,40H64A40,40,0,0,1,24,64h0A40,40,0,0,1,64,24Z" transform="translate(-16 -16)"/><path class="cls-3" d="M488,64a40,40,0,0,1-40,40H416a40,40,0,0,0,0-80h32A40,40,0,0,1,488,64Z" transform="translate(-16 -16)"/><path class="cls-4" d="M456,216V472a16,16,0,0,1-16,16H408a16,16,0,0,0,16-16V216a16,16,0,0,0-16-16h32A16,16,0,0,1,456,216Z" transform="translate(-16 -16)"/><path class="cls-5" d="M488,200H416l-24-64h64Z" transform="translate(-16 -16)"/><path class="cls-6" d="M480,200v48a32,32,0,0,1-24.24,31,31.24,31.24,0,0,1-7.76,1,32,32,0,0,1-32-31.92V200Z" transform="translate(-16 -16)"/><path class="cls-7" d="M360,104h32v32H360Z" transform="translate(-16 -16)"/><path class="cls-8" d="M88,328H280V440H88Z" transform="translate(-16 -16)"/><path class="cls-2" d="M416,200v48a32,32,0,0,1-64,0V200Z" transform="translate(-16 -16)"/><path class="cls-3" d="M392,136l24,64H352l-24-64Z" transform="translate(-16 -16)"/><path class="cls-6" d="M352,200v48a32,32,0,0,1-64,0V200Z" transform="translate(-16 -16)"/><path class="cls-5" d="M328,136l24,64H288l-16-64Z" transform="translate(-16 -16)"/><path class="cls-2" d="M288,200v48a32,32,0,0,1-64,0V200Z" transform="translate(-16 -16)"/><path class="cls-3" d="M272,136l16,64H224l16-64Z" transform="translate(-16 -16)"/><path class="cls-6" d="M424,488H312V384a56,56,0,0,1,112,0Z" transform="translate(-16 -16)"/><path class="cls-5" d="M424,384V488H400V384a56,56,0,0,0-44-54.72A58.38,58.38,0,0,1,368,328,56,56,0,0,1,424,384Z" transform="translate(-16 -16)"/><path class="cls-9" d="M88,328H280v24H88Z" transform="translate(-16 -16)"/><path class="cls-5" d="M240,136l-16,64H160l24-64Z" transform="translate(-16 -16)"/><path class="cls-6" d="M224,200v48a32,32,0,0,1-64,0V200Z" transform="translate(-16 -16)"/><path class="cls-3" d="M184,136l-24,64H96l24-64Z" transform="translate(-16 -16)"/><path class="cls-2" d="M160,200v48a32,32,0,0,1-64,0V200Z" transform="translate(-16 -16)"/><path class="cls-5" d="M120,136,96,200H24l32-64Z" transform="translate(-16 -16)"/><path class="cls-7" d="M120,104h32v32H120Z" transform="translate(-16 -16)"/><path class="cls-10" d="M120,104h32v16H120Z" transform="translate(-16 -16)"/><path class="cls-10" d="M360,104h32v16H360Z" transform="translate(-16 -16)"/><path class="cls-6" d="M96,200v48a32,32,0,0,1-32,32,31.24,31.24,0,0,1-7.76-1,32.76,32.76,0,0,1-14.88-8.4A32.22,32.22,0,0,1,32,248V200Z" transform="translate(-16 -16)"/><path class="cls-5" d="M416,200h64v32H416Z" transform="translate(-16 -16)"/><path class="cls-3" d="M352,200h64v32H352Z" transform="translate(-16 -16)"/><path class="cls-5" d="M288,200h64v32H288Z" transform="translate(-16 -16)"/><path class="cls-3" d="M224,200h64v32H224Z" transform="translate(-16 -16)"/><path class="cls-5" d="M160,200h64v32H160Z" transform="translate(-16 -16)"/><path class="cls-3" d="M96,200h64v32H96Z" transform="translate(-16 -16)"/><path class="cls-5" d="M32,200H96v32H32Z" transform="translate(-16 -16)"/><path class="cls-4" d="M456,279v32c-.08,0-.16.08-.24.08a31.24,31.24,0,0,1-7.76,1,32.22,32.22,0,0,1-22.64-9.36,13.07,13.07,0,0,1-1.36-1.52A32,32,0,0,1,416,280V248a32,32,0,0,0,8,21.12,13.07,13.07,0,0,0,1.36,1.52A32.22,32.22,0,0,0,448,280a31.24,31.24,0,0,0,7.76-1C455.84,279,455.92,279,456,279Z" transform="translate(-16 -16)"/><path class="cls-4" d="M416,248v32a32,32,0,0,1-64,0V248a32,32,0,0,0,64,0Z" transform="translate(-16 -16)"/><path class="cls-4" d="M352,248v32a32,32,0,0,1-64,0V248a32,32,0,0,0,64,0Z" transform="translate(-16 -16)"/><path class="cls-4" d="M288,248v32a32,32,0,0,1-64,0V248a32,32,0,0,0,64,0Z" transform="translate(-16 -16)"/><path class="cls-4" d="M224,248v32a32,32,0,0,1-64,0V248a32,32,0,0,0,64,0Z" transform="translate(-16 -16)"/><path class="cls-4" d="M160,248v32a32,32,0,0,1-64,0V248a32,32,0,0,0,64,0Z" transform="translate(-16 -16)"/><path class="cls-4" d="M96,248v32a32,32,0,0,1-32,32,31.24,31.24,0,0,1-7.76-1c-.08,0-.16-.08-.24-.08V279c.08,0,.16.08.24.08A31.24,31.24,0,0,0,64,280,32,32,0,0,0,96,248Z" transform="translate(-16 -16)"/><path d="M463.12,132.4A7.83,7.83,0,0,0,456,128H400V112h48a48,48,0,0,0,0-96H64a48,48,0,0,0,0,96h48v16H56a7.83,7.83,0,0,0-7.12,4.4l-32,64A8,8,0,0,0,24,208v40a40.11,40.11,0,0,0,24,36.64V488a8,8,0,0,0,8,8H456a8,8,0,0,0,8-8V284.64A40.11,40.11,0,0,0,488,248V208a8,8,0,0,0,7.12-11.6ZM357.52,192l-18-48h47l18,48ZM408,208v40a24,24,0,0,1-48,0V208Zm-128,0v40a24,24,0,0,1-48,0V208Zm-45.76-16,12-48h19.52l12,48ZM160,128V112H352v16Zm11.52,64,18-48h40.24l-12,48ZM216,208v40a24,24,0,0,1-48,0V208Zm106.48-64,18,48H294.24l-12-48ZM296,208h48v40a24,24,0,0,1-48,0Zm72-80V112h16v16ZM64,96a32,32,0,0,1,0-64H448a32,32,0,0,1,0,64Zm80,16v16H128V112Zm-18.48,32h47l-18,48h-47ZM152,208v40a24,24,0,0,1-48,0V208ZM61,144h47.52l-18,48H37ZM40,248V208H88v40a24,24,0,0,1-48,0ZM416,480H320V384a48,48,0,0,1,96,0Zm32,0H432V384a64,64,0,0,0-128,0v96H64V288a40,40,0,0,0,32-16.24,39.65,39.65,0,0,0,64,0,39.65,39.65,0,0,0,64,0,39.65,39.65,0,0,0,64,0,39.65,39.65,0,0,0,64,0,39.65,39.65,0,0,0,64,0A40,40,0,0,0,448,288Zm24-232a24,24,0,0,1-48,0V208h48Zm-50.48-56-18-48H451l24,48Z" transform="translate(-16 -16)"/><path d="M280,320H88a8,8,0,0,0-8,8V440a8,8,0,0,0,8,8H280a8,8,0,0,0,8-8V328A8,8,0,0,0,280,320Zm-8,112H96V336H272Z" transform="translate(-16 -16)"/></g><text class="cls-11" transform="translate(140.5 71.6)">STORE</text></svg>