<svg width="55" height="55" viewBox="0 0 55 55" fill="none" xmlns="http://www.w3.org/2000/svg">
<path d="M36.6172 16.6055V14.0508C36.6172 13.8166 36.4256 13.625 36.1914 13.625L15.7539 13.625C15.5197 13.625 15.3281 13.8166 15.3281 14.0508V16.6055C15.3281 16.8396 15.5197 17.0312 15.7539 17.0312L36.1914 17.0312C36.4256 17.0312 36.6172 16.8396 36.6172 16.6055ZM15.7539 21.2891C15.5197 21.2891 15.3281 21.4807 15.3281 21.7148V24.2695C15.3281 24.5037 15.5197 24.6953 15.7539 24.6953L25.5469 24.6953C25.7811 24.6953 25.9727 24.5037 25.9727 24.2695V21.7148C25.9727 21.4807 25.7811 21.2891 25.5469 21.2891L15.7539 21.2891ZM35.7656 27.4629C29.4162 27.4629 24.2695 32.6095 24.2695 38.959C24.2695 45.3084 29.4162 50.4551 35.7656 50.4551C42.1151 50.4551 47.2617 45.3084 47.2617 38.959C47.2617 32.6095 42.1151 27.4629 35.7656 27.4629ZM41.4871 44.6804C39.9596 46.2079 37.9265 47.0488 35.7656 47.0488C33.6048 47.0488 31.5717 46.2079 30.0442 44.6804C28.5167 43.1529 27.6758 41.1198 27.6758 38.959C27.6758 36.7981 28.5167 34.765 30.0442 33.2375C31.5717 31.7101 33.6048 30.8691 35.7656 30.8691C37.9265 30.8691 39.9596 31.7101 41.4871 33.2375C43.0146 34.765 43.8555 36.7981 43.8555 38.959C43.8555 41.1198 43.0146 43.1529 41.4871 44.6804ZM40.5024 34.9141H38.1447C38.0063 34.9141 37.8786 34.9779 37.7987 35.0897L34.4191 39.7626L33.1896 38.0648C33.1503 38.01 33.0983 37.9654 33.0381 37.9349C32.9779 37.9043 32.9112 37.8886 32.8437 37.8892H30.4966C30.1506 37.8892 29.9484 38.2831 30.1506 38.5651L34.0785 43.9992C34.2488 44.2334 34.5947 44.2334 34.765 43.9992L40.8431 35.59C41.0506 35.3079 40.8484 34.9141 40.5024 34.9141ZM23.418 45.3457H11.0703L11.0703 7.87695L40.875 7.87695V26.1855C40.875 26.4197 41.0666 26.6113 41.3008 26.6113H44.2812C44.5154 26.6113 44.707 26.4197 44.707 26.1855V5.74805C44.707 4.80601 43.9459 4.04492 43.0039 4.04492L8.94141 4.04492C7.99937 4.04492 7.23828 4.80601 7.23828 5.74805L7.23828 47.4746C7.23828 48.4167 7.99937 49.1777 8.94141 49.1777H23.418C23.6521 49.1777 23.8438 48.9861 23.8438 48.752L23.8438 45.7715C23.8438 45.5373 23.6521 45.3457 23.418 45.3457Z" fill="#FF5940"/>
</svg>
