<svg width="119" height="119" viewBox="0 0 119 119" fill="none" xmlns="http://www.w3.org/2000/svg">
<path d="M89.2494 99.2039C80.663 105.629 70.2238 109.096 59.4994 109.083C41.1461 109.083 25.1233 99.1122 16.5503 84.2917H37.1869" stroke="#FFC737" stroke-width="10.5778" stroke-linecap="round" stroke-linejoin="round"/>
<path d="M79.3328 14.042C96.8456 21.6927 109.083 39.1709 109.083 59.5C109.083 68.5316 106.668 76.998 102.449 84.2917L92.4277 66.9375" stroke="#FFC737" stroke-width="10.5778" stroke-linecap="round" stroke-linejoin="round"/>
<path d="M10.1617 64.4584C9.99812 62.8107 9.91621 61.1559 9.91626 59.5001C9.91626 32.1152 32.1147 9.91672 59.4996 9.91672L49.4788 27.2709" stroke="#FFC737" stroke-width="10.5778" stroke-linecap="round" stroke-linejoin="round"/>
<path d="M59.4998 74.3751C63.4449 74.3751 67.2284 72.8079 70.018 70.0183C72.8076 67.2287 74.3748 63.4452 74.3748 59.5001C74.3748 55.555 72.8076 51.7714 70.018 48.9818C67.2284 46.1922 63.4449 44.6251 59.4998 44.6251C55.5547 44.6251 51.7711 46.1922 48.9815 48.9818C46.1919 51.7714 44.6248 55.555 44.6248 59.5001C44.6248 63.4452 46.1919 67.2287 48.9815 70.0183C51.7711 72.8079 55.5547 74.3751 59.4998 74.3751V74.3751Z" stroke="#FFC737" stroke-width="10.5778" stroke-linecap="round" stroke-linejoin="round"/>
</svg>
