<?xml version="1.0" encoding="utf-8"?>
<!-- Generator: Adobe Illustrator 24.0.1, SVG Export Plug-In . SVG Version: 6.00 Build 0)  -->
<svg version="1.1" id="Layer_1" xmlns="http://www.w3.org/2000/svg" xmlns:xlink="http://www.w3.org/1999/xlink" x="0px" y="0px"
	 viewBox="0 0 512 512" style="enable-background:new 0 0 512 512;" xml:space="preserve">
<style type="text/css">
	.st0{fill:#2CC2F0;}
</style>
<g>
	<g>
		<path class="st0" d="M409.6,204.8h-256V128c0-56.6,45.8-102.4,102.4-102.4S358.4,71.4,358.4,128H384C384,57.4,326.6,0,256,0
			S128,57.4,128,128v76.8h-25.6c-14.1,0-25.6,11.5-25.6,25.6v256c0,14.1,11.5,25.6,25.6,25.6h307.2c14.1,0,25.6-11.5,25.6-25.6v-256
			C435.2,216.3,423.7,204.8,409.6,204.8z M409.6,486.4H102.4v-256h307.2V486.4z"/>
	</g>
</g>
<g>
	<g>
		<path d="M256,307.2c-21.2,0-38.4,17.2-38.4,38.4c0,16.7,10.7,30.7,25.6,36v40.8h25.6v-40.8c14.9-5.3,25.6-19.4,25.6-36
			C294.4,324.4,277.2,307.2,256,307.2z M256,358.4c-7.1,0-12.8-5.7-12.8-12.8c0-7.1,5.7-12.8,12.8-12.8s12.8,5.7,12.8,12.8
			S263.1,358.4,256,358.4z"/>
	</g>
</g>
</svg>
