<?xml version="1.0" encoding="utf-8"?>
<!-- Generator: Adobe Illustrator 24.0.1, SVG Export Plug-In . SVG Version: 6.00 Build 0)  -->
<svg version="1.1" id="filled_outline" xmlns="http://www.w3.org/2000/svg" xmlns:xlink="http://www.w3.org/1999/xlink" x="0px"
	 y="0px" viewBox="0 0 512 512" style="enable-background:new 0 0 512 512;" xml:space="preserve">
<style type="text/css">
	.st0{fill:#FFA100;}
	.st1{fill:#E67A00;}
	.st2{fill:#B1712C;}
	.st3{fill:#91591C;}
	.st4{fill:#6173E8;}
	.st5{fill:#FFCEB6;}
	.st6{fill:#556C80;}
	.st7{fill:#FFC431;}
	.st8{fill:#62798C;}
</style>
<path class="st0" d="M472,216.4c-0.1,13.1-10.9,23.7-24,23.6H296v-24l32-10.7l16-5.3l5.2-26.1c1.8-8.8,7.2-16.5,14.9-21.2l11.9-7.1
	l23.3-14L424,144l22.5,11.2c6.2,3.1,11.2,8.1,14.3,14.3l0.5,1C468.4,184.8,472.1,200.5,472,216.4z"/>
<path class="st1" d="M424,144v62l-40,10v24h-8v-94.4l23.3-14L424,144z"/>
<path class="st2" d="M363.4,136c-10.7,0-19.4-8.7-19.4-19.4c0,0,0,0,0,0c0-3,0.7-6,2-8.7l6-11.9l0-9.4c0-25.7,20.8-46.6,46.5-46.6
	c0,0,0,0,0,0h1.2c26.5-0.1,48.1,21.3,48.2,47.9c0,0,0,0.1,0,0.1c0,4.8,0,8,0,8l5.9,11.9c1.3,2.7,2.1,5.7,2.1,8.7
	c0,10.7-8.7,19.4-19.4,19.4c0,0,0,0,0,0L363.4,136z"/>
<path class="st3" d="M232,488h256V280H224L232,488z"/>
<path class="st2" d="M224,240h264v40H224V240z"/>
<path class="st4" d="M144,248h88V141.3c0-8.5-3.4-16.6-9.4-22.6L200,96h-32l-26.7,26.7c-3.5,3.5-6.2,7.8-7.7,12.5L112,200L144,248z"
	/>
<path class="st5" d="M208,56v24c0,13.3-10.7,24-24,24s-24-10.7-24-24V56H208z"/>
<path class="st2" d="M160,56h48V42.4c0-10.2-8.2-18.4-18.4-18.4c0,0,0,0,0,0c-3.6,0-7.2,1.1-10.2,3.1L160,40V56z"/>
<path class="st5" d="M168,192l-8,16v80h-24l-24-88l8-24L168,192z"/>
<path class="st5" d="M232,192l48,48l-16,16l-32-16V192z"/>
<path class="st6" d="M201.8,381.4L160,488h-24l16-104v-96h48L201.8,381.4z"/>
<path class="st7" d="M24,344h104v128H24V344z"/>
<path class="st5" d="M376,88l16-16l16,16h16v24c0,13.3-10.7,24-24,24s-24-10.7-24-24V88z"/>
<path class="st5" d="M328,205.3V240h-32v-24L328,205.3z"/>
<path class="st8" d="M232,248l16,240h-24l-64-200v-40H232z"/>
<path class="st5" d="M416,208v32h-32v-24L416,208z"/>
<path d="M488,232h-12.3c2.8-4.9,4.3-10.4,4.3-16c0-17-4-33.8-11.6-49l-5.3-10.5c-0.8-1.5-2-2.8-3.6-3.6l-18.5-9.2
	c14.9-2.5,25-16.6,22.5-31.6c-0.5-2.7-1.3-5.3-2.5-7.7L456,94.1l0-6.1c0-31-25.1-56-56.1-56c0,0-0.1,0-0.1,0h-1.2
	C368.4,32,344,56.4,344,86.6c0,0,0,0,0,0l0,7.5l-5.1,10.2c-6.8,13.5-1.3,30,12.3,36.8c3.7,1.9,7.8,2.9,12,2.9l-15.2,9.1
	c-1.9,1.2-3.3,3.1-3.7,5.3l-7.1,35.4l-43.6,14.5c-3.3,1.1-5.5,4.1-5.5,7.6v16h-4.7L240,188.7v-47.4c0-10.6-4.2-20.8-11.7-28.3
	l-16.7-16.7c2.9-4.9,4.4-10.5,4.4-16.2V42.4c0-14.6-11.8-26.4-26.4-26.4c-5.2,0-10.3,1.5-14.7,4.4l-19.4,12.9
	c-2.2,1.5-3.6,4-3.6,6.7v40c0,5.7,1.5,11.3,4.4,16.2L135.7,117c-4.4,4.4-7.7,9.7-9.7,15.6l-21.6,64.8c-0.5,1.5-0.5,3.1-0.1,4.6
	l24,88c0.9,3.5,4.1,5.9,7.7,5.9h10.3l-2.3,87.3l-8,52.1V344c0-4.4-3.6-8-8-8c0,0,0,0,0,0h-24v-40c0-4.4-3.6-8-8-8c0,0,0,0,0,0H56
	c-4.4,0-8,3.6-8,8c0,0,0,0,0,0v40H24c-4.4,0-8,3.6-8,8c0,0,0,0,0,0v128c0,4.4,3.6,8,8,8c0,0,0,0,0,0h16v8c0,4.4,3.6,8,8,8s8-3.6,8-8
	v-8h40v8c0,4.4,3.6,8,8,8s8-3.6,8-8v-8h16c0.4,0,0.8,0,1.2-0.1l-1.1,6.9c-0.7,4.4,2.3,8.5,6.7,9.1c0.4,0.1,0.8,0.1,1.2,0.1h24
	c3.3,0,6.2-2,7.4-5.1l27-68.9l21.9,68.5c1.1,3.3,4.1,5.6,7.6,5.6h264c4.4,0,8-3.6,8-8c0,0,0,0,0,0V240C496,235.6,492.4,232,488,232
	C488,232,488,232,488,232z M64,304h24v32H64V304z M120,464H32V352h16v16h16v-16h24v16h16v-16h16V464z M454.1,174.1
	c6.5,13,9.9,27.3,9.9,41.9c0,8.8-7.2,16-16,16h-24v-17.8l25.9-6.5l-3.9-15.5l-14.1,3.5v-38.8l18,9L454.1,174.1z M416,112
	c0,8.8-7.2,16-16,16s-16-7.2-16-16V91.3l8-8l10.3,10.3c1.5,1.5,3.5,2.3,5.7,2.3h8V112z M394.2,144h11.9l9.9,4.9v50.8l-32,8v-57.6
	L394.2,144z M392,222.2l16-4V232h-16V222.2z M352,116.6c0-1.8,0.4-3.5,1.2-5.1l6-11.9c0.6-1.1,0.8-2.3,0.8-3.6l0-9.4
	c0-21.3,17.2-38.6,38.5-38.6c0,0,0,0,0,0h1.2c10.7,0,20.9,4.2,28.5,11.7C435.8,67.2,440,77.4,440,88l0,8c0,1.2,0.3,2.5,0.8,3.6
	l5.9,11.9c2.8,5.6,0.5,12.5-5.1,15.3c-1.6,0.8-3.3,1.2-5.1,1.2h-8.9c2.8-4.9,4.3-10.4,4.3-16V88c0-4.4-3.6-8-8-8c0,0,0,0,0,0h-12.7
	l-13.7-13.7c-3.1-3.1-8.2-3.1-11.3,0l-16,16c-1.5,1.5-2.3,3.5-2.3,5.7v24c0,5.6,1.5,11.1,4.3,16h-8.9C357.1,128,352,122.9,352,116.6
	L352,116.6z M346.5,207.6c2.7-0.9,4.8-3.2,5.3-6l7.3-36.5l8.8-5.3V232h-32v-20.9L346.5,207.6z M304,221.8l16-5.3V232h-16V221.8z
	 M283.3,248H480v24H241.6l-1.3-18.9l20.1,10c3.1,1.5,6.8,0.9,9.2-1.5L283.3,248z M268.7,240l-6.3,6.3L240,235.1v-23.7L268.7,240z
	 M168,80V64h32v16c0,8.8-7.2,16-16,16S168,88.8,168,80z M168,44.3l15.8-10.5c4.8-3.2,11.3-1.9,14.5,2.9c1.1,1.7,1.8,3.7,1.8,5.8V48
	h-32V44.3z M141.2,137.7c1.2-3.5,3.2-6.7,5.8-9.4l20.8-20.8c10,5.9,22.5,5.9,32.5,0l16.7,16.7c4.5,4.5,7,10.6,7,17V240h-56v-30.1
	l23.2-46.3l-14.3-7.2l-12.9,25.8l-33.8-11.3L141.2,137.7z M120.4,200.2l4.7-14.1l31.7,10.6l-3.9,7.7c-0.6,1.1-0.8,2.3-0.8,3.6v72
	h-9.9L120.4,200.2z M154.5,480h-9.2l14.6-94.8c0.1-0.3,0.1-0.7,0.1-1l1.7-64.7l25.1,78.3L154.5,480z M232,480h-2.2L168,286.8V256
	h56.5l14.9,224H232z M255.5,480l-12.8-192H480v192H255.5z"/>
<path d="M360,440h16v16h-16V440z"/>
<path d="M392,440h64v16h-64V440z"/>
<path d="M408,408h48v16h-48V408z"/>
</svg>
