<svg width="1517" height="884" viewBox="0 0 1517 884" fill="none" xmlns="http://www.w3.org/2000/svg">
<path d="M1428.09 5.80884H13.9824V791.426H1428.09V5.80884Z" fill="white"/>
<path d="M1122.15 195.379C1122.15 195.379 903.682 149.469 859.356 380.602C832.319 521.573 956.312 607.744 1033.5 613.319C1318.46 633.899 1310.84 325.466 1310.84 325.466" stroke="#CDD0C4" stroke-width="1.57123" stroke-miterlimit="10" stroke-dasharray="6.28 6.28"/>
<path d="M808.503 798.705C807.538 798.282 806.583 797.85 805.635 797.409" stroke="#CDD0C4" stroke-width="1.57123" stroke-miterlimit="10"/>
<path d="M800.087 794.656C719.462 752.244 704.028 636.496 704.028 636.496L702.395 608.075" stroke="#CDD0C4" stroke-width="1.57123" stroke-miterlimit="10" stroke-dasharray="6.19 6.19"/>
<path d="M702.218 604.983L702.037 601.847" stroke="#CDD0C4" stroke-width="1.57123" stroke-miterlimit="10"/>
<path d="M747.528 605.53H625.812C621.748 605.53 618.453 602.235 618.453 598.17V522.525C618.453 518.46 621.748 515.165 625.812 515.165H747.528C751.593 515.165 754.888 518.46 754.888 522.525V598.17C754.888 602.235 751.593 605.53 747.528 605.53Z" stroke="#F6A915" stroke-width="2.05219" stroke-miterlimit="10"/>
<path d="M741.823 573.534H707.155C704.717 573.534 702.74 571.557 702.74 569.118V542.846C702.74 540.407 704.717 538.431 707.155 538.431H741.823C744.261 538.431 746.238 540.407 746.238 542.846V569.118C746.238 571.557 744.261 573.534 741.823 573.534Z" fill="#CDD0C4"/>
<path d="M754.459 522.27C754.459 518.206 751.164 514.911 747.099 514.911H625.383C621.319 514.911 618.024 518.206 618.024 522.27V523.508L754.473 524.231L754.459 522.27Z" fill="#F6A915"/>
<path d="M744.844 593.68L741.683 615.176L749.563 608.019L760.651 608.853L744.844 593.68Z" fill="#4B53E4"/>
<path d="M675.751 542.442C681.572 542.442 687.394 542.442 693.215 542.442" stroke="#CDD0C4" stroke-width="1.12815" stroke-miterlimit="10"/>
<path d="M628.573 542.442C643.135 542.442 657.698 542.442 672.261 542.442" stroke="#CDD0C4" stroke-width="1.12815" stroke-miterlimit="10"/>
<path d="M658.296 549.734C669.935 549.734 681.575 549.734 693.215 549.734" stroke="#CDD0C4" stroke-width="1.12815" stroke-miterlimit="10"/>
<path d="M628.573 549.734C637.23 549.734 645.887 549.734 654.545 549.734" stroke="#CDD0C4" stroke-width="1.12815" stroke-miterlimit="10"/>
<path d="M685.56 557.026C688.111 557.026 690.663 557.026 693.215 557.026" stroke="#CDD0C4" stroke-width="1.12815" stroke-miterlimit="10"/>
<path d="M628.573 557.026C646.016 557.031 665.022 557.031 682.12 557.026" stroke="#CDD0C4" stroke-width="1.12815" stroke-miterlimit="10"/>
<path d="M658.767 563.944C670.25 563.944 681.732 563.944 693.215 563.944" stroke="#CDD0C4" stroke-width="1.12815" stroke-miterlimit="10"/>
<path d="M628.573 563.944C637.541 563.944 646.508 563.944 655.477 563.944" stroke="#CDD0C4" stroke-width="1.12815" stroke-miterlimit="10"/>
<path d="M670.461 571.61C678.045 571.61 685.629 571.61 693.214 571.61" stroke="#CDD0C4" stroke-width="1.12815" stroke-miterlimit="10"/>
<path d="M628.573 571.61C641.307 571.61 654.042 571.61 666.775 571.61" stroke="#CDD0C4" stroke-width="1.12815" stroke-miterlimit="10"/>
<path d="M667.758 590.064H633.226C630.643 590.064 628.55 587.971 628.55 585.388C628.55 582.805 630.643 580.712 633.226 580.712H667.758C670.341 580.712 672.434 582.805 672.434 585.388C672.434 587.97 670.341 590.064 667.758 590.064Z" fill="#4B53E4"/>
<path d="M1445.5 174.039H1363.17C1360.42 174.039 1358.2 171.811 1358.2 169.062V117.896C1358.2 115.146 1360.42 112.918 1363.17 112.918H1445.5C1448.25 112.918 1450.48 115.146 1450.48 117.896V169.062C1450.48 171.81 1448.25 174.039 1445.5 174.039Z" stroke="#F6A915" stroke-width="1.38803" stroke-miterlimit="10"/>
<path d="M1441.64 152.397H1418.19C1416.55 152.397 1415.21 151.06 1415.21 149.412V131.641C1415.21 129.991 1416.55 128.656 1418.19 128.656H1441.64C1443.29 128.656 1444.63 129.993 1444.63 131.641V149.412C1444.63 151.06 1443.29 152.397 1441.64 152.397Z" fill="#CDD0C4"/>
<path d="M1450.19 117.723C1450.19 114.974 1447.96 112.746 1445.21 112.746H1362.89C1360.14 112.746 1357.91 114.974 1357.91 117.723V118.561L1450.2 119.049L1450.19 117.723Z" fill="#F6A915"/>
<path d="M1443.69 166.023L1441.55 180.563L1446.88 175.722L1454.38 176.286L1443.69 166.023Z" fill="#4B53E4"/>
<path d="M1396.95 131.366C1400.89 131.366 1404.83 131.366 1408.77 131.366" stroke="#CDD0C4" stroke-width="0.762991" stroke-miterlimit="10"/>
<path d="M1365.04 131.366C1374.89 131.366 1384.74 131.366 1394.59 131.366" stroke="#CDD0C4" stroke-width="0.762991" stroke-miterlimit="10"/>
<path d="M1385.14 136.298C1393.02 136.298 1400.89 136.298 1408.76 136.298" stroke="#CDD0C4" stroke-width="0.762991" stroke-miterlimit="10"/>
<path d="M1365.04 136.298C1370.9 136.298 1376.75 136.298 1382.61 136.298" stroke="#CDD0C4" stroke-width="0.762991" stroke-miterlimit="10"/>
<path d="M1403.59 141.23C1405.31 141.23 1407.04 141.23 1408.76 141.23" stroke="#CDD0C4" stroke-width="0.762991" stroke-miterlimit="10"/>
<path d="M1365.04 141.23C1376.84 141.234 1389.7 141.234 1401.26 141.23" stroke="#CDD0C4" stroke-width="0.762991" stroke-miterlimit="10"/>
<path d="M1385.47 145.91C1393.23 145.91 1401 145.91 1408.77 145.91" stroke="#CDD0C4" stroke-width="0.762991" stroke-miterlimit="10"/>
<path d="M1365.04 145.91C1371.11 145.91 1377.17 145.91 1383.24 145.91" stroke="#CDD0C4" stroke-width="0.762991" stroke-miterlimit="10"/>
<path d="M1393.37 151.096C1398.5 151.096 1403.63 151.096 1408.76 151.096" stroke="#CDD0C4" stroke-width="0.762991" stroke-miterlimit="10"/>
<path d="M1365.04 151.096C1373.66 151.096 1382.27 151.096 1390.88 151.096" stroke="#CDD0C4" stroke-width="0.762991" stroke-miterlimit="10"/>
<path d="M1391.55 163.578H1368.19C1366.44 163.578 1365.03 162.163 1365.03 160.415C1365.03 158.668 1366.44 157.252 1368.19 157.252H1391.55C1393.29 157.252 1394.71 158.668 1394.71 160.415C1394.71 162.161 1393.29 163.578 1391.55 163.578Z" fill="#4B53E4"/>
<path d="M917.403 357.861C923.006 352.258 934.242 332.041 921.916 329.8C909.59 327.56 875.972 385.831 864.206 377.426C852.441 369.022 914.072 272.652 887.738 259.764C871.709 251.921 854.89 264.046 838.952 274.942C821.062 287.173 804.944 298.099 805.33 282.252C805.521 274.451 855.783 224.067 812.64 193.812C788.721 177.037 744.92 202.276 703.004 226.702C669.318 246.333 633.78 271.357 599.199 249.965C547.978 218.281 544.053 49.2568 395.137 43.2688L8.49048 5.21826V678.404C8.49048 678.404 39.0321 801.843 210.828 784.027C382.623 766.21 520.202 574.91 542.202 559.265C575.093 535.876 604.252 545.913 588.981 579C573.71 612.087 597.441 640.336 643.8 609.698C727.855 554.149 793.012 318.915 857.291 302.998C872.114 299.328 815.165 405.088 853.608 403.257C870.804 402.439 910.168 345.58 914.204 342.661C929.045 331.926 915.355 357.039 915.355 357.039L917.403 357.861Z" fill="#162182"/>
<path d="M546.443 831.42C546.8 831.665 546.911 831.993 546.891 832.406C546.853 833.164 548.032 833.162 548.069 832.406C548.11 831.558 547.727 830.876 547.039 830.402C546.413 829.971 545.823 830.992 546.443 831.42Z" fill="black"/>
<path d="M1354.54 77.107H1193.48C1187.99 77.107 1183.53 72.651 1183.53 67.1532C1183.53 61.6555 1187.99 57.1995 1193.48 57.1995H1354.54C1360.04 57.1995 1364.49 61.6555 1364.49 67.1532C1364.49 72.651 1360.04 77.107 1354.54 77.107Z" fill="#EEEEED"/>
<path d="M1291.47 338.65C1317.66 338.65 1338.89 317.42 1338.89 291.232C1338.89 265.043 1317.66 243.813 1291.47 243.813C1265.29 243.813 1244.06 265.043 1244.06 291.232C1244.06 317.42 1265.29 338.65 1291.47 338.65Z" fill="#30B47A"/>
<path d="M1295.45 333.345C1321.64 333.345 1342.87 312.115 1342.87 285.927C1342.87 259.739 1321.64 238.509 1295.45 238.509C1269.27 238.509 1248.04 259.739 1248.04 285.927C1248.04 312.115 1269.27 333.345 1295.45 333.345Z" stroke="#0C8563" stroke-width="3.14247" stroke-miterlimit="10"/>
<path d="M1270.67 295.269L1282.26 306.862L1316.52 272.609" stroke="white" stroke-width="7.33185" stroke-miterlimit="10"/>
<path d="M917.934 608.419C940.971 608.419 959.646 589.744 959.646 566.708C959.646 543.671 940.971 524.996 917.934 524.996C894.898 524.996 876.223 543.671 876.223 566.708C876.223 589.744 894.898 608.419 917.934 608.419Z" fill="#FF5940"/>
<path d="M921.435 603.751C944.472 603.751 963.147 585.076 963.147 562.04C963.147 539.003 944.472 520.328 921.435 520.328C898.399 520.328 879.724 539.003 879.724 562.04C879.724 585.076 898.399 603.751 921.435 603.751Z" stroke="#D15036" stroke-width="2.76427" stroke-miterlimit="10"/>
<path d="M917.003 571.118C925.505 571.118 932.398 564.225 932.398 555.723C932.398 547.221 925.505 540.328 917.003 540.328C908.501 540.328 901.608 547.221 901.608 555.723C901.608 564.225 908.501 571.118 917.003 571.118Z" stroke="white" stroke-width="5.52854" stroke-miterlimit="10"/>
<path d="M927.731 568.533L940.499 581.301L927.731 568.533Z" stroke="white" stroke-width="5.52854" stroke-miterlimit="10"/>
<path d="M1079.89 318.481C1081.03 315.494 1081.63 312.415 1081.76 309.224C1081.82 307.707 1079.46 307.709 1079.4 309.224C1079.28 312.209 1078.68 315.064 1077.62 317.854C1077.08 319.273 1079.36 319.887 1079.89 318.481Z" fill="#221660"/>
<path d="M1240.98 504.118L1309.14 610.412C1309.14 610.412 1350.55 533.016 1356.68 525.037C1362.82 517.06 1422.67 550.271 1422.67 550.271C1422.67 550.271 1388.5 619.407 1371.35 659.137C1357.96 690.128 1280.92 684.667 1280.92 684.667L1222.62 599.366L1240.98 504.118Z" fill="#151F77"/>
<path d="M1422.67 550.271C1422.67 550.271 1362.82 517.06 1356.68 525.037C1356.68 525.037 1367.11 502.388 1371.26 500.414C1382.7 494.965 1469.04 541.995 1466.5 543.9C1461.28 547.821 1425.8 540.98 1425.8 540.98L1422.67 550.271Z" fill="#221660"/>
<path d="M1120.19 586.087C1131.18 607.957 1206.05 734.374 1237.34 753.399C1268.64 772.423 1351.48 735.606 1403.03 717.194L1378.49 648.459L1281.53 673.619L1233.05 604.274C1233.05 604.274 1263.04 532.832 1240.98 504.118L1120.19 586.087Z" fill="#151F77"/>
<path d="M1134.88 618.607L1254.27 553.498L1258.29 529.479L1134.88 618.607Z" fill="#221660"/>
<path d="M1143.67 367.981C1151.65 364.122 1227.02 378.739 1227.02 378.739L1218.79 436.753L1179.51 428.53L1143.67 367.981Z" fill="#F6A915"/>
<path d="M1218.8 436.751L1186 429.625L1159.29 385.493C1159.29 385.493 1170.06 388.643 1180.08 396.454C1180.62 396.87 1200.16 409.097 1200.68 409.54C1209.27 416.741 1222.02 412.312 1222.02 412.312L1218.8 436.751Z" fill="#F68E15"/>
<path d="M894.179 406.672C884.434 399.433 877.195 385.234 877.473 376.601C877.752 367.971 882.764 358.504 887.774 356.834C892.787 355.163 893.065 361.288 891.673 365.742C890.281 370.197 890.281 379.942 890.281 379.942L894.179 406.672Z" fill="#FE9DA7"/>
<path d="M891.673 365.742C890.281 370.197 890.281 379.941 890.281 379.941L894.179 406.67C894.179 406.67 886.305 394.948 883.675 381.8C881.045 368.652 891.673 365.742 891.673 365.742Z" fill="#FF6688"/>
<path d="M1023.84 319.565C1015.92 334.349 1029.46 377.3 1030.55 379.964C1032.98 385.925 1037.26 402.494 1068.9 389.551L1076.04 403.334C1076.04 403.334 1113.94 387.168 1116.82 381.416C1116.82 381.416 1109.63 368.985 1101.52 351.149C1093.95 334.497 1085.92 312.492 1072.73 309.019C1045.41 301.829 1031.03 306.144 1023.84 319.565Z" fill="#FE9DA7"/>
<path d="M1009.93 336.822C1009.93 336.822 1017.12 353.6 1046.84 338.739C1046.84 338.739 1051.16 346.888 1059.79 347.367L1061.22 357.434L1068.41 354.558C1068.41 354.558 1071.29 382.841 1076.56 385.237C1081.84 387.633 1107.72 376.128 1111.08 370.857C1112.33 368.88 1108.49 348.251 1107.72 338.26C1106.45 321.61 1106.73 305.299 1090.23 313.544C1090.23 313.544 1084.53 300.866 1078.78 297.51C1073.03 294.154 1066.97 300.39 1066.97 300.39C1066.97 300.39 1061.7 285.529 1046.36 287.448C1031.02 289.365 1027.67 298.952 1027.67 298.952C1027.67 298.952 1004.66 281.216 987.401 304.225C974.272 321.732 992.195 340.656 1001.78 338.739L1009.93 336.822Z" fill="#221660"/>
<path d="M916.453 388.852C910.048 389.966 903.924 383.562 902.253 380.778C900.583 377.993 902.894 374.775 911.162 364.628C917.287 357.112 910.884 353.491 903.924 356.832C903.924 356.832 889.167 363.792 886.104 374.373C882.019 388.488 896.127 410.568 896.127 410.568C896.127 410.568 908.656 450.939 936.777 485.186C959.046 512.305 978.818 508.016 990.235 507.738C1001.65 507.46 1036.78 492.134 1036.78 492.134L1002.48 443.393L978.54 453.167C958.494 435.906 936.498 395.813 936.498 395.813L916.453 388.852Z" fill="#FE9DA7"/>
<path d="M911.162 364.628C902.894 374.775 900.581 377.993 902.253 380.778C903.923 383.562 910.05 389.966 916.452 388.852L905.93 392.403L902.924 398.96C902.924 398.96 896.094 387.212 897.733 379.561C899.373 371.911 911.162 364.628 911.162 364.628Z" fill="#FF6688"/>
<path d="M1002.48 443.393L1036.78 492.134C1036.78 492.134 1024.01 497.705 1011.36 502.191C1008.61 503.167 1018.2 498.491 1016.89 489.91C1014.22 472.503 1002.48 443.393 1002.48 443.393Z" fill="#FF6688"/>
<path d="M1226.92 379.597C1226.38 379.795 1255.06 387.13 1262.69 383.464C1273.37 378.339 1288.67 341.762 1288.67 341.762C1288.67 341.762 1282.73 321.663 1286.84 319.835C1290.95 318.008 1294.6 328.515 1294.6 328.515C1294.6 328.515 1301 295.169 1305.11 295.626C1309.22 296.083 1310.75 302.85 1310.84 312.503C1310.84 312.503 1312.02 315.895 1312.93 312.24C1313.85 308.585 1315.9 296.316 1320.01 294.946C1324.12 293.575 1326.75 307.035 1324.46 316.17C1324.46 316.17 1332.4 300.516 1334.68 300.971C1336.97 301.428 1339.83 311.154 1334.8 322.117C1334.8 322.117 1341.47 313.516 1343.76 314.886C1346.04 316.256 1344.5 330.096 1332.53 347.983C1332.53 347.983 1327.71 407.578 1285.69 431.787C1271.06 440.214 1252.89 441.364 1236.77 438.746C1226.25 437.038 1218.8 434.92 1218.8 434.92L1226.92 379.597Z" fill="#FE9DA7"/>
<path d="M1066 359.465C1069.51 348.938 1072.4 347.386 1077.41 353.4C1082.42 359.415 1076.53 371.495 1069.51 370.993C1062.49 370.492 1066 359.465 1066 359.465Z" fill="#FE9DA7"/>
<path d="M1378.49 648.459C1378.49 648.459 1402.22 639.278 1407.38 641.574C1412.55 643.87 1453.13 739.339 1450.83 752.542C1448.54 765.744 1412.24 713.554 1412.24 713.554L1403.03 717.194L1378.49 648.459Z" fill="#221660"/>
<path d="M1000.45 437.714C1001.41 446.342 1032.47 493.572 1036.78 492.134C1039.66 491.176 1060.27 480.629 1060.27 480.629C1059.93 480.744 1097.45 566.248 1131.16 620.515C1131.16 620.515 1234.85 554.968 1271.28 519.495C1271.28 519.495 1156.14 374.692 1143.67 367.981L1045.89 416.396L1000.45 437.714Z" fill="#F6A915"/>
<path d="M1244.32 572.664C1241.68 583.625 1237.81 593.994 1232.54 603.973C1232.34 604.353 1232.28 604.873 1232.54 605.248C1248.51 628.251 1264.47 651.256 1280.44 674.259C1280.76 674.727 1281.29 674.992 1281.86 674.84C1312.48 666.712 1343.1 658.586 1373.72 650.458C1375.29 650.041 1374.63 647.601 1373.05 648.019C1346.05 655.185 1319.05 662.353 1292.04 669.52C1288.98 670.334 1284.54 672.48 1281.32 672.365C1283.29 672.436 1282.3 673.127 1281.31 671.094C1280.29 669.004 1278.5 667.048 1277.18 665.138C1267.56 651.289 1257.95 637.44 1248.34 623.591C1244.42 617.939 1239.35 612.226 1236.2 606.097C1234.42 602.618 1235.77 603.486 1237.9 598.945C1241.77 590.727 1244.63 582.158 1246.75 573.334C1247.13 571.756 1244.7 571.08 1244.32 572.664Z" fill="#221660"/>
<path d="M1259.53 641.923L1233.64 604.611C1236.6 599.144 1239.15 593.452 1241.26 587.602C1242.98 582.827 1259.53 641.923 1259.53 641.923Z" fill="#221660"/>
<path d="M1236.77 438.75C1226.25 437.042 1218.8 434.924 1218.8 434.924L1226.92 379.598C1226.92 379.598 1227.9 417.292 1231.81 425.885C1234.63 432.096 1236.77 438.75 1236.77 438.75Z" fill="#FF6688"/>
<path d="M901.388 403.039L902.984 397.165L904.694 390.365L911.164 364.63C911.164 364.63 912.533 360.139 917.554 356.12C918.272 355.547 919.064 354.981 919.936 354.44C919.936 354.44 920.596 355.385 921.336 357.046C922.359 359.341 923.536 363.005 923.343 367.444C923.156 371.749 920.969 383.738 919.089 393.404C918.587 395.99 918.107 398.41 917.693 400.471C916.904 404.401 916.356 407.031 916.356 407.031C916.356 407.031 911.698 409.36 907.706 408.695C903.717 408.027 901.388 403.039 901.388 403.039Z" fill="#F6A915"/>
<path d="M923.344 367.442C923.537 363.004 922.36 359.34 921.337 357.044C920.597 355.382 919.937 354.439 919.937 354.439C919.064 354.979 918.272 355.544 917.555 356.119C912.533 360.138 911.165 364.628 911.165 364.628L914.876 362.141L916.086 364.232L918.947 362.471L920.819 366.322L922.47 364.451L923.344 367.442Z" fill="#FCDE98"/>
<path d="M921.336 357.044C920.596 355.382 919.936 354.439 919.936 354.439C919.062 354.979 918.27 355.544 917.554 356.119L921.336 357.044Z" fill="black"/>
<path d="M917.693 400.47C918.107 398.408 918.588 395.989 919.09 393.402C918.119 392.496 916.138 390.893 913.164 390.073C909.229 388.989 905.949 389.93 904.692 390.364C904.121 392.631 903.552 394.897 902.982 397.164L917.693 400.47Z" fill="#3A4B73"/>
<path d="M917.694 400.47C916.905 404.399 916.357 407.03 916.357 407.03C916.357 407.03 911.7 409.358 907.707 408.694C903.715 408.029 901.386 403.039 901.386 403.039L902.982 397.166C902.982 397.166 905.528 394.62 910.799 395.711C916.328 396.854 917.694 400.47 917.694 400.47Z" fill="#F65015"/>
<path d="M936.5 395.813C939.562 385.79 933.159 378.551 928.147 370.476C923.135 362.402 920.073 363.238 917.846 364.908C915.928 366.347 921.03 382.237 918.395 387.334C916.985 390.062 915.882 392.936 915.764 396.004C915.533 401.942 916.163 409.602 920.755 410.799C922.299 411.201 922.199 395.41 923.822 395.608C930.237 396.389 936.5 395.813 936.5 395.813Z" fill="#FE9DA7"/>
<path d="M650.983 813.128H633.164C615.775 813.128 601.68 799.032 601.68 781.644C601.68 764.255 615.775 750.159 633.164 750.159H636.635C654.024 750.159 668.119 764.255 668.119 781.644V811.268C668.119 812.034 667.618 812.66 666.983 812.679C663.171 812.787 651.067 813.128 650.983 813.128Z" stroke="#F6A915" stroke-width="1.29862" stroke-miterlimit="10"/>
<path d="M844.226 747.224L842.505 758.925L852.83 755.484L844.226 747.224Z" fill="#FF6688"/>
<path d="M1165.04 287.147L1162.78 302.476L1176.31 297.969L1165.04 287.147Z" fill="#FF6688"/>
<path d="M677.975 476.345L675.721 491.674L689.247 487.166L677.975 476.345Z" fill="#FF6688"/>
<path d="M620.7 233.883C623.367 233.883 625.529 231.721 625.529 229.054C625.529 226.388 623.367 224.226 620.7 224.226C618.033 224.226 615.872 226.388 615.872 229.054C615.872 231.721 618.033 233.883 620.7 233.883Z" fill="#F6A915"/>
<path opacity="0.5" d="M523.379 189.801C525.04 189.801 526.387 188.453 526.387 186.792C526.387 185.13 525.04 183.783 523.379 183.783C521.717 183.783 520.37 185.13 520.37 186.792C520.37 188.453 521.717 189.801 523.379 189.801Z" fill="white"/>
<path d="M823.552 616.65C826.055 616.65 828.084 614.621 828.084 612.118C828.084 609.616 826.055 607.587 823.552 607.587C821.049 607.587 819.021 609.616 819.021 612.118C819.021 614.621 821.049 616.65 823.552 616.65Z" fill="#F6A915"/>
<path d="M243.552 720.689C246.055 720.689 248.084 718.66 248.084 716.157C248.084 713.655 246.055 711.626 243.552 711.626C241.05 711.626 239.021 713.655 239.021 716.157C239.021 718.66 241.05 720.689 243.552 720.689Z" fill="#F6A915"/>
<path d="M1383.42 1.16284L1396.87 3.17402L1393.8 13.0461L1405.62 15.0903L1403.88 25.9161L1415.35 27.3144L1412.93 36.8456" stroke="#FF6688" stroke-width="1.57123" stroke-miterlimit="10"/>
<path d="M814.154 457.293L801.446 464.63L808.783 477.337L821.491 470L814.154 457.293Z" fill="#4B53E4"/>
<path d="M765.448 231.297L757.917 235.645L762.265 243.175L769.795 238.827L765.448 231.297Z" fill="white"/>
<path d="M746.977 335.823L753.103 339.018L749.993 343.252L755.328 346.192L752.699 351.103L757.977 353.677L755.235 357.855" stroke="white" stroke-width="1.26154" stroke-miterlimit="10"/>
<path d="M1106.04 782.144L1197.59 734.382C1197.59 734.382 1212.9 738.934 1220.15 751.148C1227.4 763.363 1226.59 783.236 1232.2 788.036C1243.42 797.633 1267.55 795.709 1272.49 830.134L1186.56 883.556C1186.56 883.556 1179.52 871.175 1174.05 868.465C1165.27 864.109 1149.76 861.32 1140.19 849.629C1132.51 840.244 1134.12 818.185 1127.55 803.789C1120.85 789.087 1106.04 782.144 1106.04 782.144Z" fill="#FFF9E1"/>
<path d="M1137.62 791.149C1159.35 781.532 1177.78 765.428 1199.23 755.262C1201.4 754.235 1199.51 751.017 1197.34 752.04C1175.89 762.205 1157.47 778.311 1135.74 787.927C1133.55 788.898 1135.44 792.112 1137.62 791.149Z" fill="#D9C693"/>
<path d="M1143.8 805.045C1165.53 795.428 1183.95 779.324 1205.41 769.158C1207.57 768.131 1205.68 764.913 1203.52 765.936C1182.07 776.101 1163.64 792.205 1141.92 801.822C1139.72 802.794 1141.62 806.01 1143.8 805.045Z" fill="#D9C693"/>
<path d="M1149.98 822.03C1171.7 812.412 1190.13 796.309 1211.58 786.143C1213.75 785.115 1211.86 781.898 1209.7 782.92C1188.24 793.086 1169.82 809.19 1148.09 818.807C1145.9 819.778 1147.8 822.995 1149.98 822.03Z" fill="#D9C693"/>
<path d="M1156.9 840.194C1178.62 830.576 1197.05 814.472 1218.5 804.307C1220.67 803.279 1218.78 800.061 1216.62 801.084C1195.16 811.25 1176.74 827.355 1155.01 836.971C1152.82 837.942 1154.72 841.158 1156.9 840.194Z" fill="#D9C693"/>
<path d="M1174.2 847.979C1195.92 838.361 1214.35 822.258 1235.8 812.092C1237.97 811.064 1236.08 807.846 1233.92 808.869C1212.46 819.035 1194.04 835.139 1172.31 844.756C1170.12 845.726 1172.02 848.942 1174.2 847.979Z" fill="#D9C693"/>
<path d="M1191.5 858.357C1213.22 848.739 1231.65 832.636 1253.1 822.47C1255.27 821.442 1253.38 818.224 1251.22 819.247C1229.76 829.413 1211.34 845.518 1189.61 855.134C1187.42 856.105 1189.32 859.321 1191.5 858.357Z" fill="#D9C693"/>
<path d="M984.227 739.031C980.451 737.656 978 734.448 979.043 730.567L980.184 726.325L989.713 691.421C989.976 690.446 990.533 689.577 991.31 688.931L997.239 683.997L998.756 682.736C999.493 682.123 1000.62 682.418 1000.95 683.315L1001.66 685.179L1004.07 691.58C1004.42 692.518 1004.48 693.544 1004.23 694.515L995.077 729.538L993.857 734.319C993.494 735.738 992.826 737.085 991.798 738.126C990.246 739.699 988.274 740.211 984.912 739.251C984.674 739.185 984.445 739.111 984.227 739.031Z" stroke="#CDD0C4" stroke-width="1.57123" stroke-miterlimit="10"/>
<path d="M1001.66 685.18L1000.95 683.317C1000.62 682.419 999.493 682.122 998.755 682.737L997.239 683.998C997.239 683.998 997.448 684.957 998.807 685.229C1000.17 685.501 1001.66 685.18 1001.66 685.18Z" fill="#CDD0C4"/>
<path d="M995.078 729.541L993.799 734.547C993.428 735.999 992.674 737.331 991.572 738.348C990.055 739.748 988.112 740.169 984.912 739.254C984.675 739.187 984.445 739.111 984.225 739.033C980.45 737.658 977.998 734.45 979.042 730.569L980.182 726.326C980.182 726.326 983.909 724.576 986.761 724.992C993.302 725.944 995.078 729.541 995.078 729.541Z" stroke="#CDD0C4" stroke-width="1.57123" stroke-miterlimit="10"/>
<path d="M980.954 732.803C982.42 731.631 988.869 730.897 991.508 735.881" stroke="#CDD0C4" stroke-width="1.57123" stroke-miterlimit="10"/>
<path d="M991.329 692.026L993.777 693.387L997.177 692.707L1000.03 694.474L1002.62 693.522" stroke="#CDD0C4" stroke-width="1.57123" stroke-miterlimit="10"/>
<path d="M983.228 719.96C983.228 719.96 990.844 716.559 996.146 723.767" stroke="#CDD0C4" stroke-width="1.57123" stroke-miterlimit="10"/>
<path d="M994.105 717.783L1000.03 694.474" stroke="#CDD0C4" stroke-width="1.57123" stroke-miterlimit="10"/>
<path d="M987.171 719.415L993.096 696.107" stroke="#CDD0C4" stroke-width="1.57123" stroke-miterlimit="10"/>
<path d="M1465.46 716.264C1468.72 720.499 1469.19 725.853 1465.26 729.475L1460.95 733.435L1414.36 777.093C1413.37 778.003 1412.13 778.584 1410.8 778.758L1400.61 780.085L1398.01 780.424C1396.74 780.589 1395.69 779.456 1395.95 778.205L1396.49 775.61L1398.33 766.691C1398.6 765.384 1399.27 764.19 1400.24 763.274L1446.49 719.21L1451.27 714.702C1452.69 713.365 1454.4 712.325 1456.3 711.885C1459.16 711.221 1461.75 712.05 1464.84 715.524C1465.06 715.771 1465.27 716.018 1465.46 716.264Z" stroke="#FF6688" stroke-width="1.57123" stroke-miterlimit="10"/>
<path d="M1396.49 775.61L1395.95 778.206C1395.69 779.456 1396.74 780.589 1398.01 780.424L1400.61 780.085C1400.61 780.085 1401.06 778.859 1399.72 777.585C1398.39 776.309 1396.49 775.61 1396.49 775.61Z" fill="#FF6688"/>
<path d="M1446.49 719.21L1451.5 714.49C1452.95 713.122 1454.74 712.16 1456.71 711.802C1459.41 711.309 1461.89 712.218 1464.84 715.527C1465.06 715.772 1465.27 716.019 1465.46 716.266C1468.72 720.5 1469.19 725.855 1465.26 729.477L1460.95 733.436C1460.95 733.436 1455.52 732.751 1452.6 730.253C1445.93 724.519 1446.49 719.21 1446.49 719.21Z" stroke="#FF6688" stroke-width="1.57123" stroke-miterlimit="10"/>
<path d="M1464.7 725.599C1462.22 725.874 1454.44 722.104 1455.02 714.619" stroke="#FF6688" stroke-width="1.57123" stroke-miterlimit="10"/>
<path d="M1412.98 775.263L1411.19 771.99L1406.89 770.334L1404.93 766.311L1401.35 765.542" stroke="#FF6688" stroke-width="1.57123" stroke-miterlimit="10"/>
<path d="M1453 738.427C1453 738.427 1442.01 736.827 1441.18 724.944" stroke="#FF6688" stroke-width="1.57123" stroke-miterlimit="10"/>
<path d="M1439.21 733.127L1404.93 766.311" stroke="#FF6688" stroke-width="1.57123" stroke-miterlimit="10"/>
<path d="M1448.18 736.23L1413.9 769.414" stroke="#FF6688" stroke-width="1.57123" stroke-miterlimit="10"/>
<path d="M1508.71 357.996H1419.24L1405.64 366.714L1404.74 357.996C1401.27 357.996 1398.46 355.182 1398.46 351.71V328.404C1398.46 324.931 1401.27 322.117 1404.74 322.117H1508.71C1512.19 322.117 1515 324.931 1515 328.404V351.71C1515 355.182 1512.19 357.996 1508.71 357.996Z" stroke="#CDD0C4" stroke-width="2.85823" stroke-miterlimit="10"/>
<path d="M1413.94 335.674H1501.15" stroke="#CDD0C4" stroke-width="2.85823" stroke-miterlimit="10"/>
<path d="M1413.94 345.266H1501.15" stroke="#CDD0C4" stroke-width="2.85823" stroke-miterlimit="10"/>
<path d="M844.746 176.669H867.092L874.615 181.492L875.112 176.669C877.032 176.669 878.589 175.112 878.589 173.192V160.3C878.589 158.38 877.032 156.823 875.112 156.823H844.746C842.826 156.823 841.269 158.38 841.269 160.3V173.192C841.269 175.114 842.824 176.669 844.746 176.669Z" stroke="#CDD0C4" stroke-width="2.14175" stroke-miterlimit="10"/>
<path d="M870.024 164.323H848.927" stroke="#CDD0C4" stroke-width="2.14175" stroke-miterlimit="10"/>
<path d="M870.024 169.629H848.927" stroke="#CDD0C4" stroke-width="2.14175" stroke-miterlimit="10"/>
<path d="M487.837 808.714H430.379C426.204 808.714 422.819 805.329 422.819 801.155V768.728C422.819 764.553 426.204 761.168 430.379 761.168H487.837C492.012 761.168 495.396 764.553 495.396 768.728V801.155C495.396 805.329 492.012 808.714 487.837 808.714Z" stroke="#CDD0C4" stroke-width="2.29274" stroke-miterlimit="10"/>
<path d="M432.277 800.03C432.277 800.03 446.94 777.523 448.985 777.523C451.031 777.523 468.764 800.371 468.764 800.371L432.277 800.03Z" fill="#30B47A"/>
<path d="M460.086 785.011L471.492 799.348H485.216V791.163C485.216 791.163 472.354 779.046 468.896 776.829C467.824 777.967 460.086 785.658 460.086 785.011Z" fill="#30B47A"/>
<path d="M439.822 776.733C441.939 776.733 443.656 775.017 443.656 772.899C443.656 770.782 441.939 769.065 439.822 769.065C437.704 769.065 435.988 770.782 435.988 772.899C435.988 775.017 437.704 776.733 439.822 776.733Z" fill="#F6A915"/>
<g opacity="0.15">
<path opacity="0.15" d="M104.332 761.572H40.7286C36.1076 761.572 32.3618 757.827 32.3618 753.206V717.311C32.3618 712.69 36.1076 708.942 40.7286 708.942H104.332C108.953 708.942 112.699 712.688 112.699 717.311V753.204C112.701 757.827 108.953 761.572 104.332 761.572Z" stroke="white" stroke-width="3.47855" stroke-miterlimit="10"/>
<path opacity="0.15" d="M44.5137 751.977C43.7862 751.971 43.3494 751.166 43.7516 750.558C47.2193 745.298 59.3885 727.049 61.3259 727.049C63.59 727.049 83.2194 752.34 83.2194 752.34L44.5137 751.977Z" stroke="white" stroke-width="3.47855" stroke-miterlimit="10"/>
<path opacity="0.15" d="M70.8977 736.44L83.5226 752.311L100.426 751.98C100.922 751.971 101.321 751.568 101.326 751.072L101.425 742.592C101.428 742.311 101.31 742.05 101.092 741.872C98.9316 740.131 87.017 730.555 82.2043 727.11C81.5004 726.606 80.5498 726.691 79.9449 727.31C77.2769 730.031 70.8977 736.44 70.8977 736.44Z" stroke="white" stroke-width="3.47855" stroke-miterlimit="10"/>
<path opacity="0.15" d="M51.1821 726.172C53.526 726.172 55.426 724.272 55.426 721.929C55.426 719.585 53.526 717.685 51.1821 717.685C48.8383 717.685 46.9382 719.585 46.9382 721.929C46.9382 724.272 48.8383 726.172 51.1821 726.172Z" stroke="white" stroke-width="3.47855" stroke-miterlimit="10"/>
</g>
<path d="M1322.02 526.011C1323.82 526.011 1325.28 524.551 1325.28 522.749C1325.28 520.948 1323.82 519.487 1322.02 519.487C1320.22 519.487 1318.76 520.948 1318.76 522.749C1318.76 524.551 1320.22 526.011 1322.02 526.011Z" stroke="#221660" stroke-width="1.57123" stroke-miterlimit="10"/>
<path d="M1047.6 532.973C1049.4 532.973 1050.86 531.513 1050.86 529.712C1050.86 527.91 1049.4 526.45 1047.6 526.45C1045.8 526.45 1044.34 527.91 1044.34 529.712C1044.34 531.513 1045.8 532.973 1047.6 532.973Z" stroke="#221660" stroke-width="1.57123" stroke-miterlimit="10"/>
<path d="M1031.37 792.7C1033.17 792.7 1034.63 791.24 1034.63 789.438C1034.63 787.637 1033.17 786.176 1031.37 786.176C1029.57 786.176 1028.11 787.637 1028.11 789.438C1028.11 791.24 1029.57 792.7 1031.37 792.7Z" stroke="#221660" stroke-width="1.57123" stroke-miterlimit="10"/>
<path d="M852.478 206.992C854.28 206.992 855.74 205.531 855.74 203.73C855.74 201.928 854.28 200.468 852.478 200.468C850.677 200.468 849.216 201.928 849.216 203.73C849.216 205.531 850.677 206.992 852.478 206.992Z" stroke="#221660" stroke-width="1.57123" stroke-miterlimit="10"/>
<path d="M37.8091 655.088L43.1953 670.477" stroke="white" stroke-width="1.57123" stroke-miterlimit="10"/>
<path d="M33.6035 666.086L47.6142 660.227" stroke="white" stroke-width="1.57123" stroke-miterlimit="10"/>
<path d="M516.583 83.7642L521.97 99.1528" stroke="white" stroke-width="1.57123" stroke-miterlimit="10"/>
<path d="M512.377 94.7595L526.388 88.9004" stroke="white" stroke-width="1.57123" stroke-miterlimit="10"/>
<path d="M628.367 574.756L633.753 590.145" stroke="white" stroke-width="1.57123" stroke-miterlimit="10"/>
<path d="M624.161 585.753L638.172 579.894" stroke="white" stroke-width="1.57123" stroke-miterlimit="10"/>
<path d="M1217.84 188.774L1223.22 204.162" stroke="#F6A915" stroke-width="1.57123" stroke-miterlimit="10"/>
<path d="M1213.63 199.77L1227.64 193.911" stroke="#F6A915" stroke-width="1.57123" stroke-miterlimit="10"/>
<path d="M1121.68 696.988L1127.07 712.377" stroke="#F6A915" stroke-width="1.57123" stroke-miterlimit="10"/>
<path d="M1117.48 707.985L1131.49 702.126" stroke="#F6A915" stroke-width="1.57123" stroke-miterlimit="10"/>
<path d="M1398.48 437.491L1403.87 452.88" stroke="#F6A915" stroke-width="1.57123" stroke-miterlimit="10"/>
<path d="M1394.28 448.487L1408.29 442.627" stroke="#F6A915" stroke-width="1.57123" stroke-miterlimit="10"/>
<path d="M533.132 699.435L538.518 714.823" stroke="#4B53E4" stroke-width="1.57123" stroke-miterlimit="10"/>
<path d="M528.926 710.431L542.936 704.572" stroke="#4B53E4" stroke-width="1.57123" stroke-miterlimit="10"/>
<path d="M1009.27 240.97C1029.39 240.97 1045.7 224.656 1045.7 204.531C1045.7 184.407 1029.39 168.093 1009.27 168.093C989.142 168.093 972.828 184.407 972.828 204.531C972.828 224.656 989.142 240.97 1009.27 240.97Z" fill="#F6A915"/>
<path d="M1011.91 236.256C1032.04 236.256 1048.35 219.942 1048.35 199.817C1048.35 179.693 1032.04 163.379 1011.91 163.379C991.79 163.379 975.476 179.693 975.476 199.817C975.476 219.942 991.79 236.256 1011.91 236.256Z" stroke="#F67215" stroke-width="2.19643" stroke-miterlimit="10"/>
<path d="M1027.79 198.57C1027.79 205.215 1024.85 210.774 1019.38 213.72C1016.92 215.046 1014.67 225.172 1014.67 225.172L1004.01 224.959C1004.01 224.959 1002.25 214.196 1000.38 212.895C995.859 209.743 992.897 204.503 992.897 198.57C992.897 188.935 1000.71 181.126 1010.34 181.126C1019.98 181.126 1027.79 188.937 1027.79 198.57Z" stroke="white" stroke-width="2.92139" stroke-miterlimit="10"/>
<path d="M1005.5 212.804L1002.73 197.021L1009.55 200.859L1016.17 197.021L1013.61 212.804" stroke="white" stroke-width="2.92139" stroke-miterlimit="10"/>
<path d="M1000.39 212.896H1019.38" stroke="white" stroke-width="2.92139" stroke-miterlimit="10"/>
<path d="M1003.58 218.774H1016.17" stroke="white" stroke-width="2.92139" stroke-miterlimit="10"/>
<path d="M1010.93 256.832C1011.68 256.832 1011.68 255.654 1010.93 255.654C1010.17 255.654 1010.16 256.832 1010.93 256.832Z" fill="#221660"/>
<path d="M646.647 780.8C646.873 785.755 644.868 790.002 640.891 792.386C639.102 793.459 637.769 801.09 637.769 801.09L629.808 801.295C629.808 801.295 628.133 793.325 626.695 792.419C623.212 790.222 620.825 786.414 620.622 781.987C620.294 774.801 625.855 768.709 633.041 768.381C640.227 768.052 646.32 773.613 646.647 780.8Z" stroke="#EFDDC9" stroke-width="1.42778" stroke-miterlimit="10"/>
<path d="M629.363 792.136L628.183 780.216L633.404 782.848L638.206 779.759L638.253 792.262" stroke="#EFDDC9" stroke-width="1.42778" stroke-miterlimit="10"/>
<path d="M627.456 792.917L640.353 792.667" stroke="#EFDDC9" stroke-width="1.42778" stroke-miterlimit="10"/>
<path d="M629.279 796.696L638.664 796.267" stroke="#EFDDC9" stroke-width="1.42778" stroke-miterlimit="10"/>
<g opacity="0.14">
<path opacity="0.14" d="M452.253 636.469C460.758 636.469 467.653 629.575 467.653 621.07C467.653 612.565 460.758 605.67 452.253 605.67C443.748 605.67 436.854 612.565 436.854 621.07C436.854 629.575 443.748 636.469 452.253 636.469Z" stroke="white" stroke-width="5.5298" stroke-miterlimit="10"/>
<path opacity="0.14" d="M462.985 633.881L475.756 646.652L462.985 633.881Z" stroke="white" stroke-width="5.5298" stroke-miterlimit="10"/>
</g>
<path opacity="0.14" d="M3 190.248L14.5941 201.842L48.847 167.589" stroke="white" stroke-width="7.33185" stroke-miterlimit="10"/>
<path d="M1127.99 202.224C1130.83 202.224 1133.14 199.915 1133.14 197.067C1133.14 194.219 1130.83 191.911 1127.99 191.911C1125.14 191.911 1122.83 194.219 1122.83 197.067C1122.83 199.915 1125.14 202.224 1127.99 202.224Z" fill="#CDD0C4"/>
<path d="M869.829 260.571C778.943 254.338 718.07 154.687 718.07 154.687L705.097 129.348" stroke="#CDD0C4" stroke-width="1.57123" stroke-miterlimit="10" stroke-dasharray="6.19 6.19"/>
<path d="M703.686 126.591L702.254 123.795" stroke="#CDD0C4" stroke-width="1.57123" stroke-miterlimit="10"/>
<path d="M745.356 108.789L634.012 157.953C630.293 159.595 625.948 157.912 624.306 154.193L593.752 84.9933C592.11 81.2749 593.793 76.9299 597.511 75.288L708.856 26.1243C712.574 24.4824 716.919 26.1657 718.561 29.8841L749.116 99.0841C750.758 102.803 749.075 107.148 745.356 108.789Z" stroke="#F6A915" stroke-width="2.05219" stroke-miterlimit="10"/>
<path d="M727.214 81.8235L695.5 95.8266C693.269 96.8116 690.663 95.8018 689.678 93.571L679.066 69.537C678.081 67.3062 679.09 64.6996 681.321 63.7147L713.035 49.7116C715.266 48.7266 717.872 49.7364 718.857 51.9672L729.469 76.0012C730.454 78.2319 729.445 80.8385 727.214 81.8235Z" fill="#CDD0C4"/>
<path d="M718.066 29.8246C716.425 26.1061 712.08 24.4229 708.361 26.0647L597.017 75.2284C593.298 76.8703 591.615 81.2153 593.257 84.9337L593.757 86.0663L718.871 31.6127L718.066 29.8246Z" fill="#F6A915"/>
<path d="M738.115 99.0326L743.906 119.974L748.224 110.244L758.704 106.529L738.115 99.0326Z" fill="#4B53E4"/>
<path d="M654.213 80.0693C659.539 77.7179 664.864 75.3665 670.189 73.0151" stroke="#CDD0C4" stroke-width="1.12815" stroke-miterlimit="10"/>
<path d="M611.054 99.1255C624.376 93.2435 637.699 87.3609 651.02 81.4789" stroke="#CDD0C4" stroke-width="1.12815" stroke-miterlimit="10"/>
<path d="M641.191 93.7905C651.838 89.089 662.486 84.3875 673.134 79.6859" stroke="#CDD0C4" stroke-width="1.12815" stroke-miterlimit="10"/>
<path d="M614 105.796C621.92 102.299 629.84 98.8025 637.76 95.3055" stroke="#CDD0C4" stroke-width="1.12815" stroke-miterlimit="10"/>
<path d="M669.077 89.4487C671.411 88.418 673.745 87.3874 676.08 86.3567" stroke="#CDD0C4" stroke-width="1.12815" stroke-miterlimit="10"/>
<path d="M616.945 112.467C632.905 105.426 650.291 97.7488 665.93 90.8382" stroke="#CDD0C4" stroke-width="1.12815" stroke-miterlimit="10"/>
<path d="M647.362 106.599C657.866 101.961 668.37 97.323 678.874 92.6849" stroke="#CDD0C4" stroke-width="1.12815" stroke-miterlimit="10"/>
<path d="M619.74 118.796C627.944 115.173 636.147 111.551 644.352 107.929" stroke="#CDD0C4" stroke-width="1.12815" stroke-miterlimit="10"/>
<path d="M661.155 108.889C668.093 105.826 675.031 102.762 681.969 99.6987" stroke="#CDD0C4" stroke-width="1.12815" stroke-miterlimit="10"/>
<path d="M622.836 125.809C634.486 120.665 646.136 115.521 657.784 110.378" stroke="#CDD0C4" stroke-width="1.12815" stroke-miterlimit="10"/>
<path d="M666.137 126.862L634.547 140.811C632.184 141.854 629.424 140.785 628.381 138.422C627.337 136.059 628.407 133.299 630.77 132.256L662.36 118.307C664.723 117.264 667.483 118.333 668.526 120.696C669.569 123.058 668.5 125.819 666.137 126.862Z" fill="#4B53E4"/>
<path d="M740.891 337.694L724.59 344.892C708.683 351.916 690.095 344.715 683.071 328.808C676.048 312.9 683.248 294.312 699.156 287.289L702.331 285.887C718.238 278.863 736.826 286.064 743.85 301.971L755.816 329.071C756.125 329.772 755.919 330.547 755.346 330.821C751.903 332.459 740.967 337.661 740.891 337.694Z" stroke="#F6A915" stroke-width="1.29862" stroke-miterlimit="10"/>
<path d="M629.55 18.7052L633.679 33.6388L644.232 24.0512L629.55 18.7052Z" fill="#FF6688"/>
<path d="M330.838 417.703C333.128 416.692 334.164 414.017 333.153 411.727C332.142 409.438 329.467 408.401 327.178 409.412C324.888 410.423 323.852 413.099 324.863 415.388C325.873 417.677 328.549 418.714 330.838 417.703Z" fill="#F6A915"/>
<g opacity="0.15">
<path opacity="0.15" d="M216.248 486L158.064 511.691C153.837 513.558 148.897 511.644 147.031 507.417L132.532 474.581C130.666 470.353 132.579 465.412 136.806 463.546L194.99 437.855C199.217 435.988 204.157 437.902 206.024 442.131L220.522 474.966C222.391 479.194 220.476 484.134 216.248 486Z" stroke="white" stroke-width="3.47855" stroke-miterlimit="10"/>
<path opacity="0.15" d="M157.651 501.385C156.982 501.673 156.258 501.113 156.38 500.394C157.428 494.181 161.189 472.573 162.961 471.79C165.033 470.876 193.205 486.082 193.205 486.082L157.651 501.385Z" stroke="white" stroke-width="3.47855" stroke-miterlimit="10"/>
<path opacity="0.15" d="M175.511 476.515L193.471 485.934L208.8 478.803C209.251 478.594 209.453 478.065 209.257 477.609L205.922 469.811C205.812 469.553 205.598 469.362 205.327 469.288C202.647 468.568 187.88 464.62 182.086 463.413C181.238 463.236 180.403 463.698 180.1 464.508C178.758 468.075 175.511 476.515 175.511 476.515Z" stroke="white" stroke-width="3.47855" stroke-miterlimit="10"/>
<path opacity="0.15" d="M153.328 475.086C155.472 474.139 156.443 471.633 155.496 469.489C154.549 467.345 152.044 466.374 149.9 467.321C147.755 468.268 146.785 470.773 147.732 472.917C148.678 475.062 151.184 476.032 153.328 475.086Z" stroke="white" stroke-width="3.47855" stroke-miterlimit="10"/>
</g>
<path d="M623.918 128.769L635.062 140.671" stroke="white" stroke-width="1.57123" stroke-miterlimit="10"/>
<path d="M624.513 140.528L634.963 129.509" stroke="white" stroke-width="1.57123" stroke-miterlimit="10"/>
<path d="M587.158 281.292L598.301 293.194" stroke="#4B53E4" stroke-width="1.57123" stroke-miterlimit="10"/>
<path d="M587.752 293.051L598.202 282.032" stroke="#4B53E4" stroke-width="1.57123" stroke-miterlimit="10"/>
<path d="M723.866 309.873C726.075 314.315 725.956 319.01 723.281 322.796C722.078 324.501 723.941 332.02 723.941 332.02L716.741 335.423C716.741 335.423 711.989 328.809 710.308 328.561C706.234 327.958 702.513 325.438 700.539 321.471C697.336 315.029 699.962 307.211 706.404 304.007C712.844 300.805 720.664 303.43 723.866 309.873Z" stroke="#EFDDC9" stroke-width="1.42778" stroke-miterlimit="10"/>
<path d="M712.634 327.225L706.74 316.798L712.579 317.096L715.724 312.331L720.817 323.749" stroke="#EFDDC9" stroke-width="1.42778" stroke-miterlimit="10"/>
<g opacity="0.14">
<path opacity="0.14" d="M487.657 271.042C495.438 267.607 498.96 258.515 495.525 250.734C492.089 242.954 482.997 239.432 475.217 242.867C467.437 246.302 463.914 255.395 467.35 263.175C470.785 270.955 479.877 274.477 487.657 271.042Z" stroke="white" stroke-width="5.5298" stroke-miterlimit="10"/>
<path opacity="0.14" d="M496.51 249.658L513.351 256.183L496.51 249.658Z" stroke="white" stroke-width="5.5298" stroke-miterlimit="10"/>
</g>
<path d="M1037.59 74.8323L985.027 98.041C981.208 99.7273 976.745 97.9983 975.059 94.1793L961.961 64.5152C960.275 60.6961 962.004 56.233 965.823 54.5468L1018.39 31.338C1022.2 29.6517 1026.67 31.3807 1028.35 35.1997L1041.45 64.8638C1043.14 68.6829 1041.41 73.146 1037.59 74.8323Z" stroke="#CDD0C4" stroke-width="2.29274" stroke-miterlimit="10"/>
<path d="M983.256 89.3304C983.256 89.3304 987.579 62.8191 989.45 61.9928C991.322 61.1664 1016.77 74.9042 1016.77 74.9042L983.256 89.3304Z" fill="#30B47A"/>
<path d="M1002.63 64.3573L1018.85 72.8662L1031.41 67.3225L1028.1 59.8353C1028.1 59.8353 1011.44 53.9458 1007.38 53.3145C1006.86 54.788 1002.89 64.9495 1002.63 64.3573Z" fill="#30B47A"/>
<path d="M980.748 64.9708C982.685 64.1156 983.562 61.8521 982.707 59.9151C981.851 57.9782 979.588 57.1013 977.651 57.9566C975.714 58.8118 974.837 61.0753 975.692 63.0123C976.548 64.9492 978.811 65.8261 980.748 64.9708Z" fill="#F6A915"/>
</svg>
