<svg id="yellow.svg" xmlns="http://www.w3.org/2000/svg" width="292.97" height="168.657" viewBox="0 0 292.97 168.657">
  <defs>
    <style>
      .cls-1, .cls-2 {
        fill: #fae828;
        fill-rule: evenodd;
      }

      .cls-2 {
        mix-blend-mode: multiply;
      }
    </style>
  </defs>
  <path class="cls-1" d="M1298,782s-31,13-47,42c-23.79,43.127,23,60,45,64s33,7,54,21c15.98,10.655,72.1,17.895,110-2,40-21,28.18-17.7,54-30,21-10,30-62,9-73s-42.5-25.138-62-33C1399,746,1367,763,1298,782Z" transform="translate(-1242 -750.906)"/>
  <path id="Shape_761_copy" data-name="Shape 761 copy" class="cls-2" d="M1300.16,765.761s-31.89,10.794-49.93,38.647c-26.84,41.418,18.71,61.605,40.41,67.164s32.47,9.338,52.45,24.822c15.21,11.784,70.76,23,110.03,5.8,41.45-18.153,29.41-15.7,56.08-26.155,21.69-8.506,24.25-50.83,14.17-72.329-8.2-17.485-40.45-25.473-59.37-34.715C1403.84,739.612,1370.44,751.665,1300.16,765.761Z" transform="translate(-1242 -750.906)"/>
</svg>
