<?xml version="1.0" encoding="utf-8"?>
<!-- Generator: Adobe Illustrator 22.1.0, SVG Export Plug-In . SVG Version: 6.00 Build 0)  -->
<svg version="1.1" id="verified" xmlns="http://www.w3.org/2000/svg" xmlns:xlink="http://www.w3.org/1999/xlink" x="0px" y="0px"
	 viewBox="0 0 54.6 16" style="enable-background:new 0 0 54.6 16;" xml:space="preserve">
<style type="text/css">
	.st0{fill:url(#SVGID_1_);}
	.st1{display:none;}
	.st2{display:inline;fill:#FFFFFF;}
</style>
<g>
	<linearGradient id="SVGID_1_" gradientUnits="userSpaceOnUse" x1="6.127904e-02" y1="8" x2="54.5729" y2="8">
		<stop  offset="0" style="stop-color:#02E175"/>
		<stop  offset="2.147645e-02" style="stop-color:#02E075"/>
		<stop  offset="1" style="stop-color:#15B37F"/>
	</linearGradient>
	<path class="st0" d="M15.6,7.3c0.2-0.3,0.3-0.6,0.3-0.9c0-0.5-0.3-1.1-0.9-1.3c-0.4-0.2-0.7-0.6-0.7-1c0-0.1,0-0.2,0-0.3
		C14.6,3,14,2.2,13.1,2.2c0,0-0.1,0-0.2,0c0,0-0.1,0-0.1,0c-0.5,0-0.9-0.3-1-0.8c-0.2-0.6-0.7-1-1.3-1c-0.3,0-0.5,0.1-0.8,0.2
		C9.5,0.8,9.3,0.8,9.1,0.8c-0.3,0-0.6-0.1-0.8-0.4C8,0.2,7.6,0,7.3,0c-0.5,0-1,0.3-1.2,0.7c-0.2,0.4-0.6,0.6-1,0.6
		c-0.1,0-0.3,0-0.4-0.1C4.6,1.2,4.4,1.2,4.3,1.2c-0.7,0-1.3,0.6-1.3,1.4c0,0.5-0.4,1-0.9,1.1C1.3,3.6,0.8,4.3,0.8,4.9
		c0,0.2,0.1,0.4,0.2,0.6C1.1,5.7,1.1,5.9,1.1,6c0,0.3-0.2,0.7-0.5,0.9C0.3,7.2,0.1,7.6,0.1,8c0,0.4,0.2,0.8,0.6,1.1
		C1,9.3,1.1,9.7,1.1,10c0,0.2,0,0.3-0.1,0.5c-0.1,0.2-0.2,0.4-0.2,0.6c0,0.7,0.5,1.3,1.2,1.3C2.6,12.5,3,13,3,13.5
		c0,0.8,0.6,1.3,1.3,1.3c0.2,0,0.3,0,0.5-0.1c0.1-0.1,0.3-0.1,0.4-0.1c0.4,0,0.8,0.2,0.9,0.6C6.4,15.7,6.8,16,7.3,16
		c0.4,0,0.7-0.2,1-0.5c0.2-0.2,0.5-0.4,0.8-0.4c0.2,0,0.4,0.1,0.6,0.2c0.2,0.2,0.5,0.2,0.8,0.2c0.6,0,1.1-0.4,1.3-1
		c0.1-0.5,0.5-0.8,1-0.8c0,0,0.1,0,0.1,0c0.8,0.1,1.5-0.6,1.5-1.3c0-0.1,0-0.2,0-0.3c0-0.1,0-0.2,0-0.3c0-0.4,0.3-0.8,0.7-1
		c0.6-0.2,0.9-0.7,0.9-1.3c0-0.3-0.1-0.6-0.3-0.9C15.2,8.3,15.2,7.7,15.6,7.3z M11.5,6.8l-4.1,3.6c-0.1,0.1-0.3,0.2-0.5,0.2
		c-0.2,0-0.4-0.1-0.6-0.2L4.8,8.5c-0.3-0.3-0.3-0.8,0-1.1c0.3-0.3,0.8-0.3,1.1,0L7,8.7l3.5-3.1c0.3-0.3,0.8-0.2,1.1,0.1
		C11.8,6,11.8,6.5,11.5,6.8z M36.8,8.1c-0.3,0-0.5,0.2-0.6,0.6h1.2C37.4,8.4,37.2,8.1,36.8,8.1z M36.8,8.1c-0.3,0-0.5,0.2-0.6,0.6
		h1.2C37.4,8.4,37.2,8.1,36.8,8.1z M36.8,8.1c-0.3,0-0.5,0.2-0.6,0.6h1.2C37.4,8.4,37.2,8.1,36.8,8.1z M36.8,8.1
		c-0.3,0-0.5,0.2-0.6,0.6h1.2C37.4,8.4,37.2,8.1,36.8,8.1z M36.8,8.1c-0.3,0-0.5,0.2-0.6,0.6h1.2C37.4,8.4,37.2,8.1,36.8,8.1z
		 M36.8,8.1c-0.3,0-0.5,0.2-0.6,0.6h1.2C37.4,8.4,37.2,8.1,36.8,8.1z M36.8,8.1c-0.3,0-0.5,0.2-0.6,0.6h1.2
		C37.4,8.4,37.2,8.1,36.8,8.1z M46.4,8.1c-0.3,0-0.5,0.2-0.6,0.6H47C47,8.4,46.8,8.1,46.4,8.1z M46.4,8.1c-0.3,0-0.5,0.2-0.6,0.6H47
		C47,8.4,46.8,8.1,46.4,8.1z M36.8,8.1c-0.3,0-0.5,0.2-0.6,0.6h1.2C37.4,8.4,37.2,8.1,36.8,8.1z M54.6,3.5H14.9c0,0.2,0,0.4-0.1,0.5
		c-0.1,0.3,0.1,0.6,0.4,0.7c0.6,0.2,1,0.7,1.1,1.3c0.1,0.6,0,1.2-0.4,1.7c-0.2,0.2-0.2,0.5,0,0.8c0.4,0.5,0.6,1.1,0.4,1.7
		c-0.1,0.6-0.6,1.1-1.1,1.3c-0.3,0.1-0.4,0.4-0.3,0.7c0.1,0.5,0,0.9-0.2,1.3h39.9V8.4L54.6,3.5z M44.2,6.5c0.2,0,0.4,0.2,0.4,0.4
		c0,0.2-0.2,0.4-0.4,0.4c-0.2,0-0.4-0.2-0.4-0.4C43.8,6.7,44,6.5,44.2,6.5z M41,6.5c0.2,0,0.4,0.2,0.4,0.4c0,0.2-0.2,0.4-0.4,0.4
		c-0.2,0-0.4-0.2-0.4-0.4C40.6,6.7,40.7,6.5,41,6.5z M20.6,9.1v1.1h-0.8V9.2l-1.2-2.3h0.8l0.9,1.5L21,6.8h0.8L20.6,9.1z M25.2,10.2
		h-0.7l-1.6-2.2v2.2h-0.7V6.8h0.7L24.5,9V6.8h0.7V10.2z M29.7,10.2h-0.8l-0.7-2.4l-0.7,2.4h-0.8l-1.1-3.4h0.8l0.7,2.5l0.7-2.5h0.8
		l0.7,2.5L30,6.8h0.8L29.7,10.2z M33.5,10.2l-1.3-3.4H33l0.9,2.5l0.9-2.5h0.8l-1.3,3.4H33.5z M36.9,9.7c0.3,0,0.5-0.1,0.7-0.3
		l0.4,0.4c-0.3,0.3-0.6,0.5-1.1,0.5c-0.8,0-1.3-0.5-1.3-1.3c0-0.8,0.5-1.3,1.3-1.3c0.9,0,1.3,0.6,1.3,1.5h-1.9
		C36.3,9.5,36.6,9.7,36.9,9.7z M40.2,8.3c-0.5,0-0.9,0.2-0.9,0.7v1.3h-0.7V7.6h0.7v0.5c0.2-0.3,0.5-0.5,0.9-0.5V8.3z M41.3,10.2
		h-0.7V7.6h0.7V10.2z M43.6,7.3c-0.1-0.1-0.3-0.1-0.4-0.1c-0.2,0-0.3,0.1-0.3,0.3v0.2h0.6v0.5h-0.6v2h-0.7v-2h-0.4V7.8h0.4V7.5
		c0-0.6,0.4-0.9,0.9-0.9c0.2,0,0.4,0,0.5,0.1L43.6,7.3z M44.6,10.2h-0.7V7.6h0.7V10.2z M46.5,9.7c0.3,0,0.5-0.1,0.7-0.3l0.4,0.4
		c-0.3,0.3-0.6,0.5-1.1,0.5c-0.8,0-1.4-0.5-1.4-1.3c0-0.8,0.5-1.3,1.3-1.3c0.9,0,1.3,0.6,1.3,1.5h-1.9C45.9,9.5,46.2,9.7,46.5,9.7z
		 M50.7,10.2H50V9.8c-0.2,0.3-0.5,0.4-0.8,0.4c-0.7,0-1.2-0.5-1.2-1.3c0-0.8,0.5-1.3,1.2-1.3c0.4,0,0.7,0.2,0.8,0.4V6.6h0.7V10.2z
		 M49.3,8.2c-0.4,0-0.7,0.3-0.7,0.7c0,0.4,0.3,0.7,0.7,0.7c0.4,0,0.7-0.3,0.7-0.7C50,8.5,49.7,8.2,49.3,8.2z M46.4,8.1
		c-0.3,0-0.5,0.2-0.6,0.6H47C47,8.4,46.8,8.1,46.4,8.1z M36.8,8.1c-0.3,0-0.5,0.2-0.6,0.6h1.2C37.4,8.4,37.2,8.1,36.8,8.1z
		 M36.8,8.1c-0.3,0-0.5,0.2-0.6,0.6h1.2C37.4,8.4,37.2,8.1,36.8,8.1z M36.8,8.1c-0.3,0-0.5,0.2-0.6,0.6h1.2
		C37.4,8.4,37.2,8.1,36.8,8.1z M36.8,8.1c-0.3,0-0.5,0.2-0.6,0.6h1.2C37.4,8.4,37.2,8.1,36.8,8.1z M36.8,8.1c-0.3,0-0.5,0.2-0.6,0.6
		h1.2C37.4,8.4,37.2,8.1,36.8,8.1z M36.8,8.1c-0.3,0-0.5,0.2-0.6,0.6h1.2C37.4,8.4,37.2,8.1,36.8,8.1z M36.8,8.1
		c-0.3,0-0.5,0.2-0.6,0.6h1.2C37.4,8.4,37.2,8.1,36.8,8.1z M36.8,8.1c-0.3,0-0.5,0.2-0.6,0.6h1.2C37.4,8.4,37.2,8.1,36.8,8.1z
		 M36.8,8.1c-0.3,0-0.5,0.2-0.6,0.6h1.2C37.4,8.4,37.2,8.1,36.8,8.1z"/>
</g>
<g class="st1">
	<path class="st2" d="M4.8,8.4v0.7H4V8.5L3.2,6.8h0.8l0.5,0.9l0.5-0.9h0.8L4.8,8.4z"/>
	<path class="st2" d="M6.7,6.8L7.7,8V6.8h0.7v2.3H7.7L6.8,8v1.2H6.1V6.8H6.7z"/>
	<path class="st2" d="M9.7,6.8L10,8.4l0.3-1.5h0.8l0.4,1.5l0.3-1.5h0.8l-0.8,2.3h-0.8l-0.3-1.4l-0.3,1.4H9.6L8.9,6.8H9.7z"/>
</g>
</svg>
