<?xml version="1.0" encoding="utf-8"?>
<!-- Generator: Adobe Illustrator 23.0.1, SVG Export Plug-In . SVG Version: 6.00 Build 0)  -->
<svg version="1.1" id="verified" xmlns="http://www.w3.org/2000/svg" xmlns:xlink="http://www.w3.org/1999/xlink" x="0px" y="0px"
	 viewBox="0 0 54.6 16" style="enable-background:new 0 0 54.6 16;" xml:space="preserve">
<style type="text/css">
	.st0{fill:url(#SVGID_1_);}
	.st1{fill:url(#SVGID_2_);}
	.st2{display:none;}
	.st3{display:inline;fill:#FFFFFF;}
</style>
<g>
	
		<linearGradient id="SVGID_1_" gradientUnits="userSpaceOnUse" x1="9.997559e-02" y1="10" x2="16" y2="10" gradientTransform="matrix(1 0 0 -1 0 18)">
		<stop  offset="0" style="stop-color:#02E175"/>
		<stop  offset="2.147645e-02" style="stop-color:#02E075"/>
		<stop  offset="1" style="stop-color:#15B37F"/>
	</linearGradient>
	<path class="st0" d="M15.7,8.6c-0.5-0.3-0.5-0.9-0.1-1.3c0.2-0.3,0.3-0.6,0.3-0.9c0-0.5-0.3-1.1-0.9-1.3c-0.4-0.2-0.7-0.6-0.7-1
		V3.8C14.6,3,14,2.2,13.1,2.2c0,0-0.1,0-0.2,0h-0.1c-0.5,0-0.9-0.3-1-0.8c-0.2-0.6-0.7-1-1.3-1c-0.3,0-0.5,0.1-0.8,0.2
		C9.5,0.8,9.3,0.8,9.1,0.8c-0.3,0-0.6-0.1-0.8-0.4C8,0.2,7.6,0,7.3,0c-0.5,0-1,0.3-1.2,0.7c-0.2,0.4-0.6,0.6-1,0.6
		c-0.1,0-0.3,0-0.4-0.1H4.3C3.6,1.2,3,1.8,3,2.6c0,0.5-0.4,1-0.9,1.1C1.3,3.6,0.8,4.3,0.8,4.9c0,0.2,0.1,0.4,0.2,0.6S1.1,5.9,1.1,6
		c0,0.3-0.2,0.7-0.5,0.9C0.3,7.2,0.1,7.6,0.1,8s0.2,0.8,0.6,1.1C1,9.3,1.1,9.7,1.1,10c0,0.2,0,0.3-0.1,0.5s-0.2,0.4-0.2,0.6
		c0,0.7,0.5,1.3,1.2,1.3c0.6,0.1,1,0.6,1,1.1c0,0.8,0.6,1.3,1.3,1.3c0.2,0,0.3,0,0.5-0.1c0.1-0.1,0.3-0.1,0.4-0.1
		c0.4,0,0.8,0.2,0.9,0.6C6.4,15.7,6.8,16,7.3,16c0.4,0,0.7-0.2,1-0.5c0.2-0.2,0.5-0.4,0.8-0.4c0.2,0,0.4,0.1,0.6,0.2
		c0.2,0.2,0.5,0.2,0.8,0.2c0.6,0,1.1-0.4,1.3-1c0.1-0.5,0.5-0.8,1-0.8h0.1c0.8,0.1,1.5-0.6,1.5-1.3v-0.6c0-0.4,0.3-0.8,0.7-1
		c0.6-0.2,0.9-0.7,0.9-1.3C16,9.2,15.9,8.9,15.7,8.6z M11.5,6.8l-4.1,3.6c-0.1,0.1-0.3,0.2-0.5,0.2c-0.2,0-0.4-0.1-0.6-0.2L4.8,8.5
		c-0.3-0.3-0.3-0.8,0-1.1c0.3-0.3,0.8-0.3,1.1,0L7,8.7l3.5-3.1c0.3-0.3,0.8-0.2,1.1,0.1C11.8,6,11.8,6.5,11.5,6.8z"/>
	<linearGradient id="SVGID_2_" gradientUnits="userSpaceOnUse" x1="14.7" y1="8.5" x2="54.6" y2="8.5">
		<stop  offset="0" style="stop-color:#02E175"/>
		<stop  offset="2.147645e-02" style="stop-color:#02E075"/>
		<stop  offset="1" style="stop-color:#15B37F"/>
	</linearGradient>
	<path class="st1" d="M22.3,8.8c-0.3,0-0.5,0.1-0.5,0.3c0,0.2,0.2,0.3,0.5,0.3c0.4,0,0.6-0.2,0.7-0.4V8.8H22.3z M22.3,8.8
		c-0.3,0-0.5,0.1-0.5,0.3c0,0.2,0.2,0.3,0.5,0.3c0.4,0,0.6-0.2,0.7-0.4V8.8H22.3z M22.3,8.8c-0.3,0-0.5,0.1-0.5,0.3
		c0,0.2,0.2,0.3,0.5,0.3c0.4,0,0.6-0.2,0.7-0.4V8.8H22.3z M26.5,7.9c-0.4,0-0.7,0.3-0.7,0.8s0.3,0.8,0.7,0.8c0.4,0,0.7-0.3,0.7-0.8
		S26.9,7.9,26.5,7.9z M29.4,7.9c-0.4,0-0.6,0.2-0.7,0.6h1.3C30.1,8.1,29.8,7.9,29.4,7.9z M29.4,7.9c-0.4,0-0.6,0.2-0.7,0.6h1.3
		C30.1,8.1,29.8,7.9,29.4,7.9z M26.5,7.9c-0.4,0-0.7,0.3-0.7,0.8s0.3,0.8,0.7,0.8c0.4,0,0.7-0.3,0.7-0.8S26.9,7.9,26.5,7.9z
		 M22.3,8.8c-0.3,0-0.5,0.1-0.5,0.3c0,0.2,0.2,0.3,0.5,0.3c0.4,0,0.6-0.2,0.7-0.4V8.8H22.3z M22.3,8.8c-0.3,0-0.5,0.1-0.5,0.3
		c0,0.2,0.2,0.3,0.5,0.3c0.4,0,0.6-0.2,0.7-0.4V8.8H22.3z M26.5,7.9c-0.4,0-0.7,0.3-0.7,0.8s0.3,0.8,0.7,0.8c0.4,0,0.7-0.3,0.7-0.8
		S26.9,7.9,26.5,7.9z M29.4,7.9c-0.4,0-0.6,0.2-0.7,0.6h1.3C30.1,8.1,29.8,7.9,29.4,7.9z M32,7.9c-0.4,0-0.6,0.2-0.7,0.6h1.3
		C32.7,8.1,32.4,7.9,32,7.9z M32,7.9c-0.4,0-0.6,0.2-0.7,0.6h1.3C32.7,8.1,32.4,7.9,32,7.9z M29.4,7.9c-0.4,0-0.6,0.2-0.7,0.6h1.3
		C30.1,8.1,29.8,7.9,29.4,7.9z M26.5,7.9c-0.4,0-0.7,0.3-0.7,0.8s0.3,0.8,0.7,0.8c0.4,0,0.7-0.3,0.7-0.8S26.9,7.9,26.5,7.9z
		 M22.3,8.8c-0.3,0-0.5,0.1-0.5,0.3c0,0.2,0.2,0.3,0.5,0.3c0.4,0,0.6-0.2,0.7-0.4V8.8H22.3z M22.3,8.8c-0.3,0-0.5,0.1-0.5,0.3
		c0,0.2,0.2,0.3,0.5,0.3c0.4,0,0.6-0.2,0.7-0.4V8.8H22.3z M26.5,7.9c-0.4,0-0.7,0.3-0.7,0.8s0.3,0.8,0.7,0.8c0.4,0,0.7-0.3,0.7-0.8
		S26.9,7.9,26.5,7.9z M29.4,7.9c-0.4,0-0.6,0.2-0.7,0.6h1.3C30.1,8.1,29.8,7.9,29.4,7.9z M32,7.9c-0.4,0-0.6,0.2-0.7,0.6h1.3
		C32.7,8.1,32.4,7.9,32,7.9z M38.8,7.9c-0.4,0-0.6,0.2-0.7,0.6h1.3C39.4,8.1,39.1,7.9,38.8,7.9z M38.8,7.9c-0.4,0-0.6,0.2-0.7,0.6
		h1.3C39.4,8.1,39.1,7.9,38.8,7.9z M32,7.9c-0.4,0-0.6,0.2-0.7,0.6h1.3C32.7,8.1,32.4,7.9,32,7.9z M29.4,7.9c-0.4,0-0.6,0.2-0.7,0.6
		h1.3C30.1,8.1,29.8,7.9,29.4,7.9z M26.5,7.9c-0.4,0-0.7,0.3-0.7,0.8s0.3,0.8,0.7,0.8c0.4,0,0.7-0.3,0.7-0.8S26.9,7.9,26.5,7.9z
		 M22.3,8.8c-0.3,0-0.5,0.1-0.5,0.3c0,0.2,0.2,0.3,0.5,0.3c0.4,0,0.6-0.2,0.7-0.4V8.8H22.3z M22.3,8.8c-0.3,0-0.5,0.1-0.5,0.3
		c0,0.2,0.2,0.3,0.5,0.3c0.4,0,0.6-0.2,0.7-0.4V8.8H22.3z M26.5,7.9c-0.4,0-0.7,0.3-0.7,0.8s0.3,0.8,0.7,0.8c0.4,0,0.7-0.3,0.7-0.8
		S26.9,7.9,26.5,7.9z M29.4,7.9c-0.4,0-0.6,0.2-0.7,0.6h1.3C30.1,8.1,29.8,7.9,29.4,7.9z M32,7.9c-0.4,0-0.6,0.2-0.7,0.6h1.3
		C32.7,8.1,32.4,7.9,32,7.9z M38.8,7.9c-0.4,0-0.6,0.2-0.7,0.6h1.3C39.4,8.1,39.1,7.9,38.8,7.9z M38.8,7.9c-0.4,0-0.6,0.2-0.7,0.6
		h1.3C39.4,8.1,39.1,7.9,38.8,7.9z M32,7.9c-0.4,0-0.6,0.2-0.7,0.6h1.3C32.7,8.1,32.4,7.9,32,7.9z M29.4,7.9c-0.4,0-0.6,0.2-0.7,0.6
		h1.3C30.1,8.1,29.8,7.9,29.4,7.9z M26.5,7.9c-0.4,0-0.7,0.3-0.7,0.8s0.3,0.8,0.7,0.8c0.4,0,0.7-0.3,0.7-0.8S26.9,7.9,26.5,7.9z
		 M22.3,8.8c-0.3,0-0.5,0.1-0.5,0.3c0,0.2,0.2,0.3,0.5,0.3c0.4,0,0.6-0.2,0.7-0.4V8.8H22.3z M22.3,8.8c-0.3,0-0.5,0.1-0.5,0.3
		c0,0.2,0.2,0.3,0.5,0.3c0.4,0,0.6-0.2,0.7-0.4V8.8H22.3z M26.5,7.9c-0.4,0-0.7,0.3-0.7,0.8s0.3,0.8,0.7,0.8c0.4,0,0.7-0.3,0.7-0.8
		S26.9,7.9,26.5,7.9z M29.4,7.9c-0.4,0-0.6,0.2-0.7,0.6h1.3C30.1,8.1,29.8,7.9,29.4,7.9z M32,7.9c-0.4,0-0.6,0.2-0.7,0.6h1.3
		C32.7,8.1,32.4,7.9,32,7.9z M38.8,7.9c-0.4,0-0.6,0.2-0.7,0.6h1.3C39.4,8.1,39.1,7.9,38.8,7.9z M38.8,7.9c-0.4,0-0.6,0.2-0.7,0.6
		h1.3C39.4,8.1,39.1,7.9,38.8,7.9z M32,7.9c-0.4,0-0.6,0.2-0.7,0.6h1.3C32.7,8.1,32.4,7.9,32,7.9z M29.4,7.9c-0.4,0-0.6,0.2-0.7,0.6
		h1.3C30.1,8.1,29.8,7.9,29.4,7.9z M26.5,7.9c-0.4,0-0.7,0.3-0.7,0.8s0.3,0.8,0.7,0.8c0.4,0,0.7-0.3,0.7-0.8S26.9,7.9,26.5,7.9z
		 M22.3,8.8c-0.3,0-0.5,0.1-0.5,0.3c0,0.2,0.2,0.3,0.5,0.3c0.4,0,0.6-0.2,0.7-0.4V8.8H22.3z M22.3,8.8c-0.3,0-0.5,0.1-0.5,0.3
		c0,0.2,0.2,0.3,0.5,0.3c0.4,0,0.6-0.2,0.7-0.4V8.8H22.3z M26.5,7.9c-0.4,0-0.7,0.3-0.7,0.8s0.3,0.8,0.7,0.8c0.4,0,0.7-0.3,0.7-0.8
		S26.9,7.9,26.5,7.9z M29.4,7.9c-0.4,0-0.6,0.2-0.7,0.6h1.3C30.1,8.1,29.8,7.9,29.4,7.9z M32,7.9c-0.4,0-0.6,0.2-0.7,0.6h1.3
		C32.7,8.1,32.4,7.9,32,7.9z M38.8,7.9c-0.4,0-0.6,0.2-0.7,0.6h1.3C39.4,8.1,39.1,7.9,38.8,7.9z M47.1,7.9c-0.4,0-0.6,0.2-0.7,0.6
		h1.3C47.8,8.1,47.5,7.9,47.1,7.9z M47.1,7.9c-0.4,0-0.6,0.2-0.7,0.6h1.3C47.8,8.1,47.5,7.9,47.1,7.9z M38.8,7.9
		c-0.4,0-0.6,0.2-0.7,0.6h1.3C39.4,8.1,39.1,7.9,38.8,7.9z M32,7.9c-0.4,0-0.6,0.2-0.7,0.6h1.3C32.7,8.1,32.4,7.9,32,7.9z M29.4,7.9
		c-0.4,0-0.6,0.2-0.7,0.6h1.3C30.1,8.1,29.8,7.9,29.4,7.9z M26.5,7.9c-0.4,0-0.7,0.3-0.7,0.8s0.3,0.8,0.7,0.8c0.4,0,0.7-0.3,0.7-0.8
		S26.9,7.9,26.5,7.9z M22.3,8.8c-0.3,0-0.5,0.1-0.5,0.3c0,0.2,0.2,0.3,0.5,0.3c0.4,0,0.6-0.2,0.7-0.4V8.8H22.3z M14.9,3.5
		c0,0.2,0,0.4-0.1,0.5c-0.1,0.3,0.1,0.6,0.4,0.7c0.6,0.2,1,0.7,1.1,1.3c0.1,0.6,0,1.2-0.4,1.7c-0.2,0.2-0.2,0.5,0,0.8
		c0.4,0.5,0.6,1.1,0.4,1.7c-0.1,0.6-0.6,1.1-1.1,1.3c-0.3,0.1-0.4,0.4-0.3,0.7c0.1,0.5,0,0.9-0.2,1.3h39.9v-10H14.9z M20.8,8.9
		c0,0.6-0.4,1-1,1c-0.4,0-0.7-0.2-0.9-0.5L19.2,9c0.2,0.2,0.5,0.3,0.7,0.3c0.3,0,0.4-0.2,0.4-0.5V7.2h-1.1V6.8h1.6V8.9z M23,9.9V9.6
		c-0.2,0.2-0.4,0.3-0.8,0.3c-0.5,0-0.8-0.3-0.8-0.7c0-0.4,0.3-0.7,0.9-0.7H23V8.4c0-0.3-0.2-0.5-0.6-0.5c-0.2,0-0.5,0.1-0.7,0.2
		l-0.2-0.4c0.3-0.2,0.6-0.3,1-0.3c0.6,0,1,0.3,1,0.8l0,1.5H23z M24.7,9.9h-0.5V6.6h0.5V9.9z M27.7,9.9h-0.5V9.5
		c-0.2,0.3-0.5,0.4-0.8,0.4c-0.7,0-1.1-0.5-1.1-1.2s0.5-1.2,1.1-1.2c0.4,0,0.7,0.2,0.8,0.4V6.6h0.5V9.9z M29.5,9.5
		c0.3,0,0.5-0.1,0.7-0.3l0.3,0.3c-0.2,0.3-0.6,0.4-1,0.4c-0.7,0-1.2-0.5-1.2-1.2c0-0.7,0.5-1.2,1.2-1.2c0.8,0,1.2,0.5,1.1,1.4h-1.8
		C28.8,9.2,29.1,9.5,29.5,9.5z M32.1,9.5c0.3,0,0.5-0.1,0.7-0.3L33,9.5c-0.2,0.3-0.6,0.4-1,0.4c-0.7,0-1.2-0.5-1.2-1.2
		c0-0.7,0.5-1.2,1.2-1.2c0.8,0,1.2,0.5,1.1,1.4h-1.8C31.4,9.2,31.7,9.5,32.1,9.5z M35.8,9.9l-1.2-3.1h0.5l1,2.5l1-2.5h0.5l-1.3,3.1
		H35.8z M38.8,9.5c0.3,0,0.5-0.1,0.7-0.3l0.3,0.3c-0.2,0.3-0.6,0.4-1,0.4c-0.7,0-1.2-0.5-1.2-1.2c0-0.7,0.5-1.2,1.2-1.2
		c0.8,0,1.2,0.5,1.1,1.4h-1.8C38.2,9.2,38.4,9.5,38.8,9.5z M41.7,8c-0.5,0-0.8,0.3-0.8,0.7v1.2h-0.5V7.5h0.5V8
		c0.1-0.3,0.4-0.5,0.8-0.5V8z M42.6,9.9h-0.5V7.5h0.5V9.9z M42.4,7.1c-0.2,0-0.3-0.1-0.3-0.3c0-0.2,0.1-0.3,0.3-0.3s0.3,0.1,0.3,0.3
		C42.7,7,42.5,7.1,42.4,7.1z M44.7,7.1C44.6,7,44.4,7,44.3,7C44.1,7,44,7.1,44,7.3v0.3h0.6V8H44v1.9h-0.5V8h-0.3V7.6h0.3V7.4
		c0-0.6,0.4-0.8,0.8-0.8c0.1,0,0.3,0,0.4,0.1L44.7,7.1z M45.4,9.9h-0.5V7.5h0.5V9.9z M45.1,7.1c-0.2,0-0.3-0.1-0.3-0.3
		c0-0.2,0.1-0.3,0.3-0.3c0.2,0,0.3,0.1,0.3,0.3C45.4,7,45.3,7.1,45.1,7.1z M47.2,9.5c0.3,0,0.5-0.1,0.7-0.3l0.3,0.3
		c-0.2,0.3-0.6,0.4-1,0.4c-0.7,0-1.2-0.5-1.2-1.2c0-0.7,0.5-1.2,1.2-1.2c0.8,0,1.2,0.5,1.1,1.4h-1.8C46.5,9.2,46.8,9.5,47.2,9.5z
		 M51,9.9h-0.5V9.5c-0.2,0.3-0.5,0.4-0.8,0.4c-0.7,0-1.1-0.5-1.1-1.2s0.5-1.2,1.1-1.2c0.4,0,0.7,0.2,0.8,0.4V6.6H51V9.9z M49.7,7.9
		c-0.4,0-0.7,0.3-0.7,0.8c0,0.5,0.3,0.8,0.7,0.8c0.4,0,0.7-0.3,0.7-0.8S50.2,7.9,49.7,7.9z M47.1,7.9c-0.4,0-0.6,0.2-0.7,0.6h1.3
		C47.8,8.1,47.5,7.9,47.1,7.9z M38.8,7.9c-0.4,0-0.6,0.2-0.7,0.6h1.3C39.4,8.1,39.1,7.9,38.8,7.9z M32,7.9c-0.4,0-0.6,0.2-0.7,0.6
		h1.3C32.7,8.1,32.4,7.9,32,7.9z M29.4,7.9c-0.4,0-0.6,0.2-0.7,0.6h1.3C30.1,8.1,29.8,7.9,29.4,7.9z M26.5,7.9
		c-0.4,0-0.7,0.3-0.7,0.8s0.3,0.8,0.7,0.8c0.4,0,0.7-0.3,0.7-0.8S26.9,7.9,26.5,7.9z M21.8,9.1c0,0.2,0.2,0.3,0.5,0.3
		c0.4,0,0.6-0.2,0.7-0.4V8.8h-0.6C22,8.8,21.8,8.9,21.8,9.1z M22.3,8.8c-0.3,0-0.5,0.1-0.5,0.3c0,0.2,0.2,0.3,0.5,0.3
		c0.4,0,0.6-0.2,0.7-0.4V8.8H22.3z M26.5,7.9c-0.4,0-0.7,0.3-0.7,0.8s0.3,0.8,0.7,0.8c0.4,0,0.7-0.3,0.7-0.8S26.9,7.9,26.5,7.9z
		 M29.4,7.9c-0.4,0-0.6,0.2-0.7,0.6h1.3C30.1,8.1,29.8,7.9,29.4,7.9z M32,7.9c-0.4,0-0.6,0.2-0.7,0.6h1.3C32.7,8.1,32.4,7.9,32,7.9z
		 M38.8,7.9c-0.4,0-0.6,0.2-0.7,0.6h1.3C39.4,8.1,39.1,7.9,38.8,7.9z M38.8,7.9c-0.4,0-0.6,0.2-0.7,0.6h1.3
		C39.4,8.1,39.1,7.9,38.8,7.9z M32,7.9c-0.4,0-0.6,0.2-0.7,0.6h1.3C32.7,8.1,32.4,7.9,32,7.9z M29.4,7.9c-0.4,0-0.6,0.2-0.7,0.6h1.3
		C30.1,8.1,29.8,7.9,29.4,7.9z M26.5,7.9c-0.4,0-0.7,0.3-0.7,0.8s0.3,0.8,0.7,0.8c0.4,0,0.7-0.3,0.7-0.8S26.9,7.9,26.5,7.9z
		 M22.3,8.8c-0.3,0-0.5,0.1-0.5,0.3c0,0.2,0.2,0.3,0.5,0.3c0.4,0,0.6-0.2,0.7-0.4V8.8H22.3z M22.3,8.8c-0.3,0-0.5,0.1-0.5,0.3
		c0,0.2,0.2,0.3,0.5,0.3c0.4,0,0.6-0.2,0.7-0.4V8.8H22.3z M26.5,7.9c-0.4,0-0.7,0.3-0.7,0.8s0.3,0.8,0.7,0.8c0.4,0,0.7-0.3,0.7-0.8
		S26.9,7.9,26.5,7.9z M29.4,7.9c-0.4,0-0.6,0.2-0.7,0.6h1.3C30.1,8.1,29.8,7.9,29.4,7.9z M32,7.9c-0.4,0-0.6,0.2-0.7,0.6h1.3
		C32.7,8.1,32.4,7.9,32,7.9z M38.8,7.9c-0.4,0-0.6,0.2-0.7,0.6h1.3C39.4,8.1,39.1,7.9,38.8,7.9z M38.8,7.9c-0.4,0-0.6,0.2-0.7,0.6
		h1.3C39.4,8.1,39.1,7.9,38.8,7.9z M32,7.9c-0.4,0-0.6,0.2-0.7,0.6h1.3C32.7,8.1,32.4,7.9,32,7.9z M29.4,7.9c-0.4,0-0.6,0.2-0.7,0.6
		h1.3C30.1,8.1,29.8,7.9,29.4,7.9z M26.5,7.9c-0.4,0-0.7,0.3-0.7,0.8s0.3,0.8,0.7,0.8c0.4,0,0.7-0.3,0.7-0.8S26.9,7.9,26.5,7.9z
		 M22.3,8.8c-0.3,0-0.5,0.1-0.5,0.3c0,0.2,0.2,0.3,0.5,0.3c0.4,0,0.6-0.2,0.7-0.4V8.8H22.3z M22.3,8.8c-0.3,0-0.5,0.1-0.5,0.3
		c0,0.2,0.2,0.3,0.5,0.3c0.4,0,0.6-0.2,0.7-0.4V8.8H22.3z M26.5,7.9c-0.4,0-0.7,0.3-0.7,0.8s0.3,0.8,0.7,0.8c0.4,0,0.7-0.3,0.7-0.8
		S26.9,7.9,26.5,7.9z M29.4,7.9c-0.4,0-0.6,0.2-0.7,0.6h1.3C30.1,8.1,29.8,7.9,29.4,7.9z M32,7.9c-0.4,0-0.6,0.2-0.7,0.6h1.3
		C32.7,8.1,32.4,7.9,32,7.9z M38.8,7.9c-0.4,0-0.6,0.2-0.7,0.6h1.3C39.4,8.1,39.1,7.9,38.8,7.9z M38.8,7.9c-0.4,0-0.6,0.2-0.7,0.6
		h1.3C39.4,8.1,39.1,7.9,38.8,7.9z M32,7.9c-0.4,0-0.6,0.2-0.7,0.6h1.3C32.7,8.1,32.4,7.9,32,7.9z M29.4,7.9c-0.4,0-0.6,0.2-0.7,0.6
		h1.3C30.1,8.1,29.8,7.9,29.4,7.9z M26.5,7.9c-0.4,0-0.7,0.3-0.7,0.8s0.3,0.8,0.7,0.8c0.4,0,0.7-0.3,0.7-0.8S26.9,7.9,26.5,7.9z
		 M22.3,8.8c-0.3,0-0.5,0.1-0.5,0.3c0,0.2,0.2,0.3,0.5,0.3c0.4,0,0.6-0.2,0.7-0.4V8.8H22.3z M22.3,8.8c-0.3,0-0.5,0.1-0.5,0.3
		c0,0.2,0.2,0.3,0.5,0.3c0.4,0,0.6-0.2,0.7-0.4V8.8H22.3z M26.5,7.9c-0.4,0-0.7,0.3-0.7,0.8s0.3,0.8,0.7,0.8c0.4,0,0.7-0.3,0.7-0.8
		S26.9,7.9,26.5,7.9z M29.4,7.9c-0.4,0-0.6,0.2-0.7,0.6h1.3C30.1,8.1,29.8,7.9,29.4,7.9z M32,7.9c-0.4,0-0.6,0.2-0.7,0.6h1.3
		C32.7,8.1,32.4,7.9,32,7.9z M38.8,7.9c-0.4,0-0.6,0.2-0.7,0.6h1.3C39.4,8.1,39.1,7.9,38.8,7.9z M38.8,7.9c-0.4,0-0.6,0.2-0.7,0.6
		h1.3C39.4,8.1,39.1,7.9,38.8,7.9z M32,7.9c-0.4,0-0.6,0.2-0.7,0.6h1.3C32.7,8.1,32.4,7.9,32,7.9z M29.4,7.9c-0.4,0-0.6,0.2-0.7,0.6
		h1.3C30.1,8.1,29.8,7.9,29.4,7.9z M26.5,7.9c-0.4,0-0.7,0.3-0.7,0.8s0.3,0.8,0.7,0.8c0.4,0,0.7-0.3,0.7-0.8S26.9,7.9,26.5,7.9z
		 M22.3,8.8c-0.3,0-0.5,0.1-0.5,0.3c0,0.2,0.2,0.3,0.5,0.3c0.4,0,0.6-0.2,0.7-0.4V8.8H22.3z M22.3,8.8c-0.3,0-0.5,0.1-0.5,0.3
		c0,0.2,0.2,0.3,0.5,0.3c0.4,0,0.6-0.2,0.7-0.4V8.8H22.3z M26.5,7.9c-0.4,0-0.7,0.3-0.7,0.8s0.3,0.8,0.7,0.8c0.4,0,0.7-0.3,0.7-0.8
		S26.9,7.9,26.5,7.9z M29.4,7.9c-0.4,0-0.6,0.2-0.7,0.6h1.3C30.1,8.1,29.8,7.9,29.4,7.9z M32,7.9c-0.4,0-0.6,0.2-0.7,0.6h1.3
		C32.7,8.1,32.4,7.9,32,7.9z M32,7.9c-0.4,0-0.6,0.2-0.7,0.6h1.3C32.7,8.1,32.4,7.9,32,7.9z M29.4,7.9c-0.4,0-0.6,0.2-0.7,0.6h1.3
		C30.1,8.1,29.8,7.9,29.4,7.9z M26.5,7.9c-0.4,0-0.7,0.3-0.7,0.8s0.3,0.8,0.7,0.8c0.4,0,0.7-0.3,0.7-0.8S26.9,7.9,26.5,7.9z
		 M22.3,8.8c-0.3,0-0.5,0.1-0.5,0.3c0,0.2,0.2,0.3,0.5,0.3c0.4,0,0.6-0.2,0.7-0.4V8.8H22.3z M22.3,8.8c-0.3,0-0.5,0.1-0.5,0.3
		c0,0.2,0.2,0.3,0.5,0.3c0.4,0,0.6-0.2,0.7-0.4V8.8H22.3z M26.5,7.9c-0.4,0-0.7,0.3-0.7,0.8s0.3,0.8,0.7,0.8c0.4,0,0.7-0.3,0.7-0.8
		S26.9,7.9,26.5,7.9z M26.5,7.9c-0.4,0-0.7,0.3-0.7,0.8s0.3,0.8,0.7,0.8c0.4,0,0.7-0.3,0.7-0.8S26.9,7.9,26.5,7.9z M22.3,8.8
		c-0.3,0-0.5,0.1-0.5,0.3c0,0.2,0.2,0.3,0.5,0.3c0.4,0,0.6-0.2,0.7-0.4V8.8H22.3z M22.3,8.8c-0.3,0-0.5,0.1-0.5,0.3
		c0,0.2,0.2,0.3,0.5,0.3c0.4,0,0.6-0.2,0.7-0.4V8.8H22.3z M22.3,8.8c-0.3,0-0.5,0.1-0.5,0.3c0,0.2,0.2,0.3,0.5,0.3
		c0.4,0,0.6-0.2,0.7-0.4V8.8H22.3z"/>
</g>
<g class="st2">
	<path class="st3" d="M4.8,8.4v0.7H4V8.5L3.2,6.8H4l0.5,0.9L5,6.8h0.8L4.8,8.4z"/>
	<path class="st3" d="M6.7,6.8l1,1.2V6.8h0.7v2.3H7.7L6.8,8v1.2H6.1V6.8H6.7z"/>
	<path class="st3" d="M9.7,6.8L10,8.4l0.3-1.5h0.8l0.4,1.5l0.3-1.5h0.8l-0.8,2.3H11l-0.3-1.4l-0.3,1.4H9.6L8.9,6.8H9.7z"/>
</g>
</svg>
