<svg id="Capa_1" data-name="Capa 1" xmlns="http://www.w3.org/2000/svg" viewBox="0 0 974 622.91"><defs><style>.cls-1{fill:#1a1b1f;}.cls-2{fill:#f5c85c;}</style></defs><title>chat</title><path class="cls-1" d="M721.43,228.68H401.57a10.08,10.08,0,0,0,0,20.16H721.43a10.08,10.08,0,1,0,0-20.16Z"/><path class="cls-1" d="M721.43,305.82H401.57a10.08,10.08,0,0,0,0,20.16H721.43a10.08,10.08,0,1,0,0-20.16Z"/><path class="cls-1" d="M721.43,382.83H401.57a10.08,10.08,0,0,0,0,20.16H721.43a10.08,10.08,0,1,0,0-20.16Z"/><path class="cls-2" d="M753.42,140.51h-384a58.65,58.65,0,0,0-58.59,58.6V440.48a58.65,58.65,0,0,0,58.59,58.6H638.51a9.92,9.92,0,0,1,7.39,3.49l87,110.07a17.47,17.47,0,0,0,13.7,6.72,18.61,18.61,0,0,0,5.92-.94,17.47,17.47,0,0,0,11.82-16.53V498.14a59.14,59.14,0,0,0,48-57.66V199.24a59.13,59.13,0,0,0-58.86-58.73Zm38.44,300.11a38.62,38.62,0,0,1-38,38.43,10.13,10.13,0,0,0-9.94,10.08V594.36l-82.25-104a29.35,29.35,0,0,0-23.12-11.15H369.45A38.42,38.42,0,0,1,331,440.78V199.24a38.41,38.41,0,0,1,38.41-38.43H753.28a38.43,38.43,0,0,1,38.44,38.41v241.4Z"/><path class="cls-2" d="M272.42,307.3a26.94,26.94,0,0,0-17.33,9.94l-69.35,87.63V317a10.13,10.13,0,0,0-10-10.08,32.24,32.24,0,0,1-31.71-32.12v-210A32.13,32.13,0,0,1,176.2,32.59H510.43a32.13,32.13,0,0,1,32.12,32.13v38.84a10.08,10.08,0,0,0,20.16,0V64.72a52.33,52.33,0,0,0-52.28-52.28H176.2a52.24,52.24,0,0,0-52.28,52.22V274.91a52.56,52.56,0,0,0,41.66,51.2v89.24a16.56,16.56,0,0,0,29.57,10.21l75.66-95.82a7.11,7.11,0,0,1,4.43-2.55,10,10,0,1,0-2.82-19.89Z"/></svg>