<svg id="Layer_1" data-name="Layer 1" xmlns="http://www.w3.org/2000/svg" viewBox="0 0 511 512"><defs><style>.cls-1{fill:#fff;}</style></defs><title>payments</title><path class="cls-1" d="M235.79,347.27a10,10,0,1,0-14.14,0A10,10,0,0,0,235.79,347.27Z"/><path class="cls-1" d="M188.45,110a110,110,0,1,0,110-110A110.09,110.09,0,0,0,188.45,110Zm199.94,0a90,90,0,1,1-90-90A90.08,90.08,0,0,1,388.39,110Z"/><path class="cls-1" d="M115.65,509a10,10,0,0,0,14.11.08l48.47-47.75a30.21,30.21,0,0,0,7.12-31l10.42-10.05a29.8,29.8,0,0,1,20.82-8.41h132.9a89.51,89.51,0,0,0,62.76-25.5c.7-.68-5.28,6.36,90.67-108.31a40,40,0,0,0-60.85-51.9l-59,60.63A40.14,40.14,0,0,0,352,271.93H240.51a128.89,128.89,0,0,0-50.06-10c-48.14,0-90.18,22.23-112.74,63.92A29.86,29.86,0,0,0,51,334.14L3.42,381.84a10,10,0,0,0,0,14.1Zm74.8-227.12a109.12,109.12,0,0,1,44,9.16,9.87,9.87,0,0,0,4,.84H352a20,20,0,1,1,0,40H270.43a10,10,0,1,0,0,20H352a40,40,0,0,0,40-40,39.46,39.46,0,0,0-.35-5.22c57.07-58.66,65.11-66.9,65.46-67.32a20,20,0,1,1,30.53,25.84L398,372.41a69.61,69.61,0,0,1-48.46,19.48H216.59a49.68,49.68,0,0,0-34.7,14l-8.5,8.2L95.07,335.79C113.38,301.45,147.72,281.92,190.45,281.92ZM65.13,348.27a10,10,0,0,1,12.37-1.41c1.73,1.05-3.23-3.47,86.59,86.23a10,10,0,0,1,.06,14.09l-41.32,40.71-98.23-99Z"/><path class="cls-1" d="M328,82h-7.55a33.77,33.77,0,0,0-6.33-13.7H328a6.86,6.86,0,0,0,0-13.71H259.46a6.86,6.86,0,0,0,0,13.71h27.4A20.51,20.51,0,0,1,306.15,82H259.46a6.85,6.85,0,1,0,0,13.7h46.69a20.51,20.51,0,0,1-19.29,13.7h-27.4a7,7,0,0,0-2.62.52,6.9,6.9,0,0,0-3.71,3.72,6.78,6.78,0,0,0,0,5.23,6.52,6.52,0,0,0,1.49,2.23l54.8,54.8a6.85,6.85,0,1,0,9.7-9.68L276,123.11h10.86a34.29,34.29,0,0,0,33.56-27.4H328A6.85,6.85,0,0,0,328,82Z"/></svg>