<svg width="45" height="45" viewBox="0 0 45 45" fill="none" xmlns="http://www.w3.org/2000/svg">
<path d="M41.8451 33.4769H36.2656V27.8975H33.4759V33.4769H27.8965V36.2666H33.4759V41.8461H36.2656V36.2666H41.8451V33.4769Z" fill="#5CEB18"/>
<path d="M22.3177 39.0559H11.1589V5.57926H22.3177V13.9484C22.3199 14.6876 22.6146 15.3959 23.1373 15.9186C23.66 16.4413 24.3683 16.7359 25.1075 16.7381H33.4766V22.3176H36.2663V13.9484C36.2713 13.7651 36.2364 13.5829 36.1642 13.4143C36.0919 13.2458 35.984 13.0949 35.8479 12.972L26.0839 3.20799C25.9611 3.07178 25.8102 2.96383 25.6416 2.89158C25.473 2.81934 25.2908 2.78452 25.1075 2.78954H11.1589C10.4197 2.79174 9.71137 3.08637 9.18867 3.60907C8.66597 4.13176 8.37135 4.84006 8.36914 5.57926V39.0559C8.37135 39.7951 8.66597 40.5034 9.18867 41.0261C9.71137 41.5488 10.4197 41.8434 11.1589 41.8456H22.3177V39.0559ZM25.1075 6.1372L32.9187 13.9484H25.1075V6.1372Z" fill="#5CEB18"/>
</svg>
