<svg id="Layer_1" enable-background="new 0 0 512 512" height="512" viewBox="0 0 512 512" width="512" xmlns="http://www.w3.org/2000/svg"><g id="XMLID_79_"><path id="XMLID_1201_" d="m10 50.298h492v411.404h-492z" fill="#c68a65"/><path id="XMLID_1200_" d="m54 94.298h404v323.404h-404z" fill="#fff"/><g id="XMLID_1167_"><path id="XMLID_1170_" d="m94 138.298h78v95.404h-78z" fill="#99ebfa"/><path id="XMLID_1169_" d="m217 138.298h78v95.404h-78z" fill="#ffcd69"/><path id="XMLID_1168_" d="m340 138.298h78v95.404h-78z" fill="#99ebfa"/></g><g id="XMLID_1163_"><path id="XMLID_1166_" d="m94 277.702h78v95.404h-78z" fill="#ffcd69"/><path id="XMLID_1165_" d="m217 277.702h78v95.404h-78z" fill="#99ebfa"/><path id="XMLID_1164_" d="m340 277.702h78v95.404h-78z" fill="#ffcd69"/></g><g id="XMLID_1277_"><path id="XMLID_346_" d="m502 471.702h-492c-5.523 0-10-4.477-10-10v-411.404c0-5.523 4.477-10 10-10h492c5.522 0 10 4.477 10 10v411.403c0 5.524-4.478 10.001-10 10.001zm-482-20h472v-391.404h-472z"/></g><g id="XMLID_1259_"><path id="XMLID_345_" d="m458 427.702h-404c-5.523 0-10-4.477-10-10v-323.404c0-5.523 4.477-10 10-10h157.063c5.523 0 10 4.477 10 10s-4.477 10-10 10h-147.063v303.403h384v-303.403h-146.937c-5.522 0-10-4.477-10-10s4.478-10 10-10h156.937c5.522 0 10 4.477 10 10v323.403c0 5.524-4.478 10.001-10 10.001z"/></g><g id="XMLID_85_"><g id="XMLID_80_"><path id="XMLID_342_" d="m172 243.702h-78c-5.523 0-10-4.477-10-10v-95.403c0-5.523 4.477-10 10-10h78c5.523 0 10 4.477 10 10v95.403c0 5.523-4.477 10-10 10zm-68-20h58v-75.403h-58z"/></g><g id="XMLID_83_"><path id="XMLID_339_" d="m295 243.702h-78c-5.523 0-10-4.477-10-10v-95.403c0-5.523 4.477-10 10-10h78c5.522 0 10 4.477 10 10v95.403c0 5.523-4.478 10-10 10zm-68-20h58v-75.403h-58z"/></g><g id="XMLID_84_"><path id="XMLID_336_" d="m418 243.702h-78c-5.522 0-10-4.477-10-10v-95.403c0-5.523 4.478-10 10-10h78c5.522 0 10 4.477 10 10v95.403c0 5.523-4.478 10-10 10zm-68-20h58v-75.403h-58z"/></g></g><g id="XMLID_86_"><g id="XMLID_229_"><path id="XMLID_333_" d="m172 383.105h-78c-5.523 0-10-4.477-10-10v-95.403c0-5.523 4.477-10 10-10h78c5.523 0 10 4.477 10 10v95.403c0 5.523-4.477 10-10 10zm-68-20h58v-75.403h-58z"/></g><g id="XMLID_90_"><path id="XMLID_330_" d="m295 383.105h-78c-5.523 0-10-4.477-10-10v-95.403c0-5.523 4.477-10 10-10h78c5.522 0 10 4.477 10 10v95.403c0 5.523-4.478 10-10 10zm-68-20h58v-75.403h-58z"/></g><g id="XMLID_87_"><path id="XMLID_314_" d="m418 383.105h-78c-5.522 0-10-4.477-10-10v-95.403c0-5.523 4.478-10 10-10h78c5.522 0 10 4.477 10 10v95.403c0 5.523-4.478 10-10 10zm-68-20h58v-75.403h-58z"/></g></g><g id="XMLID_1258_"><path id="XMLID_313_" d="m256.06 104.361c-2.63 0-5.21-1.07-7.07-2.93s-2.93-4.44-2.93-7.07 1.07-5.21 2.93-7.07 4.44-2.93 7.07-2.93c2.64 0 5.209 1.07 7.07 2.93 1.87 1.86 2.93 4.44 2.93 7.07s-1.06 5.21-2.93 7.07c-1.86 1.861-4.441 2.93-7.07 2.93z"/></g></g></svg>