<?xml version="1.0" encoding="utf-8"?>
<!-- Generator: Adobe Illustrator 24.0.1, SVG Export Plug-In . SVG Version: 6.00 Build 0)  -->
<svg version="1.1" id="_x33_0" xmlns="http://www.w3.org/2000/svg" xmlns:xlink="http://www.w3.org/1999/xlink" x="0px" y="0px"
	 viewBox="0 0 512 512" style="enable-background:new 0 0 512 512;" xml:space="preserve">
<g>
	<path d="M248,176h16v32h-16V176z"/>
	<path d="M316.4,185.3l-14-9.3l14-9.3l-8.9-13.3l-34,22.7l34,22.7L316.4,185.3z"/>
	<path d="M204.4,198.7l34-22.7l-34-22.7l-8.9,13.3l14,9.3l-14,9.3L204.4,198.7z"/>
	<path d="M432,248h-7c-21.6,0-40.3,14.2-46.7,34.2c-0.1,0-0.2,0-0.2-0.1l-51.9-9.2c-1-2.7-2.2-5.3-3.5-7.9
		c12.7-14.2,21.5-30.9,25.9-49.1h3.4c17.6,0,32-14.4,32-32c0-0.2-0.1-0.4-0.1-0.6c27.1-3.9,48.1-27.4,48.1-55.8c0-1.5,0.6-2.9,1.7-4
		c9.2-9.2,14.3-21.5,14.3-34.6c0-27-22-49-49-49h-7c-12.3,0-24.2,3.3-34.8,9.2C336.1,24,304.5,8,269.2,8h-26.3
		c-28.5,0-54.6,10.5-74.7,27.8C158.3,18.8,140.2,8,120,8C89.1,8,64,33.3,64,64.4c0,1.5-0.6,2.9-1.7,4C53.1,77.6,48,89.9,48,103
		c0,27,22,49,49,49h7c9.2,0,18.2-1.8,26.7-5.2c0.3,1.3,0.4,2.6,0.7,3.9l3.4,13.7c-4.2,5.4-6.9,12.2-6.9,19.6c0,17.6,14.4,32,32,32
		h3.4c4.4,18.2,13.2,34.9,25.9,49.1c-1.3,2.5-2.5,5.2-3.5,7.9l-50.2,8.9c-3.1-28-26.8-49.8-55.6-49.8c-30.9,0-56,25.3-56,56.4
		c0,1.5-0.6,2.9-1.7,4C13.1,301.6,8,313.9,8,327c0,24.1,17.5,44.1,40.4,48.2c-0.3,3.1-0.4,6.2-0.4,9.3v60.5
		c0,32.5,26.4,58.9,58.9,58.9H464V389.6c23.5-7,40-28.5,40-53.6v-16C504,280.3,471.7,248,432,248L432,248z M274.7,360.6l5.2,46.5
		l-0.2,0.6c-3.2,9.7-12.3,16.3-22.6,16.3c-8,0-15.4-4-19.8-10.6c-2-3-4.7-5.6-7.6-7.7L274.7,360.6z M293.6,386.2l-4.5-40.1l4.2-4.2
		c6.8-6.8,10.6-16,10.6-25.6c0-20-16.3-36.3-36.3-36.3c-9.7,0-18.8,3.8-25.7,10.6l-5.4,5.4h-1.4c-9.4,0-18.3,3.7-25,10.3
		c-6.7,6.7-10.3,15.5-10.3,25v1.4l-11.7,11.7l9.9-55.9c5-28.1,29.3-48.5,57.9-48.5s52.9,20.4,57.8,48.5l14,79.6
		c0.1,0.4,0.1,0.8,0.1,1.2c0,3.7-3,6.7-6.7,6.7C310.9,376,301.2,379.8,293.6,386.2z M352,200h-0.5c0.4-3.7,0.5-7.5,0.5-11.2V168
		c8.8,0,16,7.2,16,16S360.8,200,352,200z M379.5,91.5c3.7-2.3,8-3.5,12.5-3.5h7c0.5,0,1,0.4,0.7,1.7c-10.1,10.1-15.7,23.6-15.7,37.9
		c0,0.7-0.3,1.3-0.4,1.9c0.1-2.2,0.4-4.4,0.4-6.6C384,112,382.4,101.5,379.5,91.5z M392,56h7c18.2,0,33,14.8,33,33
		c0,8.8-3.4,17.1-9.7,23.3c-4.1,4.1-6.3,9.5-6.3,15.3c0,21.1-16.2,38.3-36.6,40.1c-0.7-1.1-1.4-2.2-2.2-3.2l3.2-12.9
		c11.2-2.1,19.6-12,19.6-23.9c0-10.1,3.9-19.5,11-26.6c3.2-3.2,5-7.5,5-12c0-9.4-7.6-17-17-17h-7c-6.3,0-12.4,1.6-17.9,4.4
		c-2.2-4.9-4.8-9.7-7.6-14.2C374.4,58.2,383,56,392,56z M104,136h-7c-18.2,0-33-14.8-33-33c0-8.8,3.4-17.1,9.7-23.3
		c4.1-4.1,6.3-9.5,6.3-15.3C80,42.1,97.9,24,120,24c15.9,0,29.9,9.3,36.3,23.5c-4.6,5.3-8.7,11-12.3,17.1V64c0-13.2-10.8-24-24-24
		S96,50.9,96,64.4c0,10.1-3.9,19.5-11,26.6c-3.2,3.2-5,7.5-5,12c0,9.4,7.6,17,17,17h7c9.3,0,17.8-3.3,24.6-8.7
		c-0.4,3.8-0.6,7.6-0.6,11.5c0,2.5,0.3,4.9,0.5,7.4C120.9,134,112.5,136,104,136z M128,64v16c0,13.2-10.8,24-24,24h-7
		c-0.5,0-1-0.4-0.7-1.7C106.4,92.2,112,78.7,112,64.4c0-4.7,3.5-8.4,8-8.4C124.4,56,128,59.6,128,64z M160,200c-8.8,0-16-7.2-16-16
		s7.2-16,16-16v20.8c0,3.8,0.2,7.5,0.5,11.2H160z M161.3,152H160c-4,0-7.7,0.8-11.2,2.1l-1.8-7.3c-2-7.8-3-15.9-3-24
		c0-54.5,44.3-98.8,98.8-98.8h26.3c54.5,0,98.8,44.3,98.8,98.8c0,8.1-1,16.1-3,24l-1.8,7.3c-3.5-1.3-7.3-2.1-11.2-2.1h-2.2
		c-3.3-10.9-10.2-20.5-20-27c-4.3-2.9-9-5-13.9-6.4L278,107.7c1.2-3.7,2-7.6,2-11.7V56h-16v40c0,13.2-10.8,24-24,24h-37.6
		c-8.4,0-16.5,2.5-23.5,7.1C170,133,163.8,141.9,161.3,152L161.3,152z M176,188.8v-26.4c0-8.9,4.4-17.1,11.8-22
		c4.4-2.9,9.4-4.4,14.7-4.4H240c12.1,0,22.8-5.5,30.1-13.9l41.4,11.8c3.4,1,6.5,2.4,9.4,4.4c9.4,6.3,15,16.8,15,28.1v22.4
		c0,23-7.9,44.9-22.3,62.5C299.9,234.5,279,224,256,224s-43.9,10.5-57.7,27.2C183.9,233.7,176,211.8,176,188.8L176,188.8z
		 M181.6,290l-13.1,74.2L128,404.7V376h-16v32H64v-23.5c0-42.8,30.6-79.2,72.7-86.7L181.6,290z M64,328h-7c-0.5,0-1-0.4-0.7-1.7
		C66.4,316.2,72,302.7,72,288.4c0-4.7,3.5-8.4,8-8.4c4.4,0,8,3.6,8,8v14.6c-9.1,7.1-16.9,15.6-23.2,25.3C64.5,327.9,64.3,328,64,328
		L64,328z M24,327c0-8.8,3.4-17.1,9.7-23.3c4.1-4.1,6.3-9.5,6.3-15.3c0-22.3,17.9-40.4,40-40.4c21.3,0,38.6,16.8,39.8,37.8
		c-5.5,1.8-10.8,4-15.8,6.6V288c0-13.2-10.8-24-24-24s-24,10.9-24,24.4c0,10.1-3.9,19.5-11,26.6c-3.2,3.2-5,7.5-5,12
		c0,9.1,7.3,16.6,16.3,16.9c-2.1,5-3.9,10.1-5.2,15.5C35.7,356.6,24,343.2,24,327L24,327z M64,445.1V424h44.7l-18.3,18.3l11.3,11.3
		L216,339.3v-8c0-5.1,2.1-10.1,5.7-13.7s8.6-5.7,13.7-5.7h8l10.1-10.1c3.8-3.8,8.9-5.9,14.3-5.9c11.2,0,20.3,9.1,20.3,20.3
		c0,5.4-2.1,10.5-5.9,14.3L137.3,475.4c-8.1,8.1-18.9,12.6-30.3,12.6C83.2,488,64,468.8,64,445.1z M148.6,486.7l69.4-69.4
		c2.4,1.1,4.4,2.7,5.9,4.9c7.4,11.1,19.8,17.7,33.2,17.7c17.2,0,32.4-11,37.8-27.2l0.8-2.2c3.7-11.1,14-18.5,25.7-18.5
		c12.5,0,22.7-10.2,22.7-22.7c0-1.3-0.1-2.6-0.3-4l-13.3-75.4l44.9,7.9c42.1,7.4,72.7,43.9,72.7,86.7V408h-48v-32h-16v112H147.2
		C147.6,487.6,148.1,487.2,148.6,486.7L148.6,486.7z M456,336c0,1.8-0.7,3.4-1.7,4.7c-5-10.8-11.8-20.6-20.1-29
		c-2.6-5.2-5.9-10-10.3-14.8c0-0.5,0.4-1,1-1h7c13.2,0,24,10.8,24,24V336z M400,488v-64h48v64H400z M488,336
		c0,16.5-10,30.8-24.7,36.9c-0.6-5.6-1.6-11-3.1-16.3c7.1-4.2,11.8-11.9,11.8-20.6v-16c0-22.1-17.9-40-40-40h-7
		c-7.9,0-14.4,5.4-16.4,12.7c-4.7-2.5-9.6-4.6-14.8-6.4c4.5-13,16.9-22.3,31.1-22.3h7c30.9,0,56,25.1,56,56L488,336z"/>
	<path d="M456,184c0-8.8,7.2-16,16-16s16,7.2,16,16s-7.2,16-16,16v16c17.6,0,32-14.4,32-32s-14.4-32-32-32s-32,14.4-32,32H456z"/>
	<path d="M32,200c13.2,0,24-10.8,24-24s-10.8-24-24-24S8,162.8,8,176S18.8,200,32,200z M32,168c4.4,0,8,3.6,8,8s-3.6,8-8,8
		s-8-3.6-8-8S27.6,168,32,168z"/>
</g>
</svg>
