<?xml version="1.0" encoding="utf-8"?>
<!-- Generator: Adobe Illustrator 24.0.1, SVG Export Plug-In . SVG Version: 6.00 Build 0)  -->
<svg version="1.1" id="Layer_1" xmlns="http://www.w3.org/2000/svg" xmlns:xlink="http://www.w3.org/1999/xlink" x="0px" y="0px"
	 viewBox="0 0 512 512" style="enable-background:new 0 0 512 512;" xml:space="preserve">
<g>
	<path d="M394,66.1h-60.1V7c0-3.9-3.1-7-7-7H185.1c-3.9,0-7,3.1-7,7c0,0,0,0,0,0v59.1H118c-21.5,0-39,17.5-39,39V473
		c0,21.5,17.5,39,39,39h276c21.5,0,39-17.5,39-39V105.1C433,83.5,415.5,66.1,394,66.1z M185.1,120.1H379V458H133V120.1H185.1z
		 M192.1,14h127.8v92.1H192.1V14z M419,473c0,13.8-11.2,25-25,25H118c-13.8,0-25-11.2-25-25V105.1c0-13.8,11.2-25,25-25h60.1v26H126
		c-3.9,0-7,3.1-7,7c0,0,0,0,0,0V465c0,3.9,3.1,7,7,7c0,0,0,0,0,0h260c3.9,0,7-3.1,7-7c0,0,0,0,0,0V113.1c0-3.9-3.1-7-7-7
		c0,0,0,0,0,0h-52.1v-26H394c13.8,0,25,11.2,25,25V473z"/>
	<path d="M233.9,67H249v15.1c0,3.9,3.1,7,7,7s7-3.1,7-7V67h15.1c3.9,0,7-3.1,7-7s-3.1-7-7-7H263V37.9c0-3.9-3.1-7-7-7s-7,3.1-7,7V53
		h-15.1c-3.9,0-7,3.1-7,7S230,67,233.9,67z"/>
	<path d="M181,236.9c2.9,2.5,7.3,2.1,9.8-0.8l39-45.4c2.7-2.8,2.6-7.2-0.2-9.9c-2.8-2.7-7.2-2.6-9.9,0.2c-0.2,0.2-0.3,0.4-0.5,0.6
		l-34.5,40.2l-14.2-12c-3-2.5-7.4-2.1-9.9,0.8c-2.5,3-2.1,7.4,0.8,9.9L181,236.9z"/>
	<path d="M256,200.1h90c3.9,0,7-3.1,7-7s-3.1-7-7-7h-90c-3.9,0-7,3.1-7,7S252.1,200.1,256,200.1z"/>
	<path d="M256,231.5h61c3.9,0,7-3.1,7-7s-3.1-7-7-7h-61c-3.9,0-7,3.1-7,7S252.1,231.5,256,231.5z"/>
	<path d="M181,317.1c2.9,2.5,7.3,2.1,9.8-0.8l39-45.4c2.5-2.9,2.2-7.4-0.8-9.9c-2.9-2.5-7.4-2.2-9.9,0.8l-34.5,40.2l-14.2-12
		c-3-2.5-7.4-2.1-9.9,0.8c-2.5,3-2.1,7.4,0.8,9.9L181,317.1z"/>
	<path d="M256,280.3h90c3.9,0,7-3.1,7-7s-3.1-7-7-7h-90c-3.9,0-7,3.1-7,7S252.1,280.3,256,280.3z"/>
	<path d="M256,311.7h61c3.9,0,7-3.1,7-7s-3.1-7-7-7h-61c-3.9,0-7,3.1-7,7S252.1,311.7,256,311.7z"/>
	<path d="M181,397.3c2.9,2.5,7.3,2.1,9.8-0.8l39-45.4c2.5-2.9,2.2-7.4-0.8-9.9c-2.9-2.5-7.4-2.2-9.9,0.8l-34.5,40.2l-14.2-12
		c-2.9-2.6-7.3-2.3-9.9,0.6c-2.6,2.9-2.3,7.3,0.6,9.9c0.1,0.1,0.1,0.1,0.2,0.2L181,397.3z"/>
	<path d="M256,360.5h90c3.9,0,7-3.1,7-7s-3.1-7-7-7h-90c-3.9,0-7,3.1-7,7S252.1,360.5,256,360.5z"/>
	<path d="M256,392h61c3.9,0,7-3.1,7-7s-3.1-7-7-7h-61c-3.9,0-7,3.1-7,7S252.1,392,256,392z"/>
</g>
</svg>
