<?xml version="1.0" encoding="utf-8"?>
<!-- Generator: Adobe Illustrator 24.0.1, SVG Export Plug-In . SVG Version: 6.00 Build 0)  -->
<svg version="1.1" id="Capa_1" xmlns="http://www.w3.org/2000/svg" xmlns:xlink="http://www.w3.org/1999/xlink" x="0px" y="0px"
	 viewBox="0 0 480 480" style="enable-background:new 0 0 480 480;" xml:space="preserve">
<g>
	<g>
		<path d="M448,0H80C62.3,0,48,14.3,48,32v392H8c-4.4,0-8,3.6-8,8v16c0,17.7,14.3,32,32,32h368c17.7,0,32-14.3,32-32V136h40
			c4.4,0,8-3.6,8-8V32C480,14.3,465.7,0,448,0z M32,464c-8.8,0-16-7.2-16-16v-8h352v8c0,5.6,1.5,11.1,4.3,16H32z M416,32v416
			c0,8.8-7.2,16-16,16s-16-7.2-16-16v-16c0-4.4-3.6-8-8-8H64V32c0-8.8,7.2-16,16-16h340.4C417.6,20.8,416,26.4,416,32z M464,120h-32
			V32c0-8.8,7.2-16,16-16s16,7.2,16,16V120z"/>
	</g>
</g>
<g>
	<g>
		<path d="M249.9,80L224,67.1V48h-16v19.1l-24,12l-24-12V48h-16v19.1l-27.6,13.8c-2.7,1.4-4.4,4.1-4.4,7.2v32H96v16h22.1l25.9,12.9
			V168h16v-19.1l24-12l24,12V168h16v-19.1l27.6-13.7c2.7-1.4,4.4-4.2,4.4-7.2V96h16V80H249.9z M176,123.1l-24,12l-24-12V92.9l24-12
			l24,12V123.1z M240,123.1l-24,12l-24-12V92.9l24-12l24,12V123.1z"/>
	</g>
</g>
<g>
	<g>
		<rect x="88" y="232" width="136" height="16"/>
	</g>
</g>
<g>
	<g>
		<rect x="88" y="264" width="104" height="16"/>
	</g>
</g>
<g>
	<g>
		<rect x="136" y="200" width="88" height="16"/>
	</g>
</g>
<g>
	<g>
		<rect x="256" y="40" width="16" height="16"/>
	</g>
</g>
<g>
	<g>
		<rect x="104" y="200" width="16" height="16"/>
	</g>
</g>
<g>
	<g>
		<rect x="264" y="384" width="128" height="16"/>
	</g>
</g>
<g>
	<g>
		<rect x="312" y="352" width="80" height="16"/>
	</g>
</g>
<g>
	<g>
		<rect x="280" y="352" width="16" height="16"/>
	</g>
</g>
<g>
	<g>
		<rect x="304" y="112" width="88" height="16"/>
	</g>
</g>
<g>
	<g>
		<rect x="336" y="80" width="56" height="16"/>
	</g>
</g>
<g>
	<g>
		<rect x="304" y="80" width="16" height="16"/>
	</g>
</g>
<g>
	<g>
		<rect x="288" y="40" width="16" height="16"/>
	</g>
</g>
<g>
	<g>
		<rect x="88" y="360" width="16" height="40"/>
	</g>
</g>
<g>
	<g>
		<rect x="120" y="336" width="16" height="64"/>
	</g>
</g>
<g>
	<g>
		<rect x="152" y="360" width="16" height="40"/>
	</g>
</g>
<g>
	<g>
		<rect x="184" y="328" width="16" height="72"/>
	</g>
</g>
<g>
	<g>
		<rect x="216" y="376" width="16" height="24"/>
	</g>
</g>
<g>
	<g>
		<path d="M373.4,250.8c-10.6-4.7-22.9-3.4-32.3,3.5l-29.4-11.8c0.1-0.8,0.2-1.6,0.2-2.5c0-3.6-0.7-7.2-1.9-10.6l28.8-21.6
			c5.8,5.2,13.3,8.1,21.1,8.2c17.7,0,32-14.3,32-32s-14.3-32-32-32s-32,14.3-32,32c0,3.6,0.7,7.2,1.9,10.6l-28.8,21.6
			c-13.2-11.7-33.4-10.4-45.1,2.8c-11.7,13.2-10.4,33.4,2.8,45.1c13.2,11.7,33.4,10.4,45.1-2.8c1-1.1,1.9-2.3,2.7-3.5l24,9.6
			c-7.3,16.4,0.1,35.5,16.5,42.8c16.4,7.3,35.5-0.1,42.8-16.5S389.8,258,373.4,250.8z M360,168c8.8,0,16,7.2,16,16s-7.2,16-16,16
			s-16-7.2-16-16S351.2,168,360,168z M280,256c-8.8,0-16-7.2-16-16s7.2-16,16-16s16,7.2,16,16S288.8,256,280,256z M360,296
			c-8.8,0-16-7.2-16-16s7.2-16,16-16s16,7.2,16,16S368.8,296,360,296z"/>
	</g>
</g>
</svg>
