<?xml version="1.0" encoding="utf-8"?>
<!-- Generator: Adobe Illustrator 24.0.1, SVG Export Plug-In . SVG Version: 6.00 Build 0)  -->
<svg version="1.1" id="Layer_1" xmlns="http://www.w3.org/2000/svg" xmlns:xlink="http://www.w3.org/1999/xlink" x="0px" y="0px"
	 viewBox="0 0 512 512" style="enable-background:new 0 0 512 512;" xml:space="preserve">
<g id="Corona_Virus_Symptoms_Cough">
	<g id="Outline">
		<path d="M328,222.6c-10.6,0-10.6,16,0,16c26.4,0,40-21,40-48c0-50.7-56-50.6-56-8c0,10.6,16,10.6,16,0c0-21.9,24-20.7,24,8
			C352,200.2,349.6,222.6,328,222.6z"/>
		<path d="M344,384c-30.9,0-56,25.1-56,56v64c0,10.6,16,10.6,16,0v-64c0-22.1,17.9-40,40-40s40,17.9,40,40v64c0,10.6,16,10.6,16,0
			v-64C400,409.1,374.9,384,344,384z"/>
		<path d="M136,272h16c10.6,0,10.6-16,0-16h-16c-4.4,0-8,3.6-8,8S131.6,272,136,272z"/>
		<path d="M176,320v16c0,10.6,16,10.6,16,0v-16C192,309.4,176,309.4,176,320z"/>
		<path d="M138.3,306.3c-3.1,3.1-3.1,8.2,0,11.3c1.5,1.5,3.5,2.3,5.6,2.3c5.7,0,7-4.6,21.7-18.3c7.5-7.5-3.8-18.8-11.3-11.3
			L138.3,306.3z"/>
		<path d="M144,344c-13.2,0-24,10.8-24,24v18.1c0,6.7-9.5,8.2-11.6,1.9l-12.1-36.3l9.6-38.5c3.6-14.3-5.1-28.8-19.4-32.4
			c-2.1-0.5-4.3-0.8-6.5-0.8c-9.9,0-7.1,9.2-31.5,69.2c-1.6,4.3-0.7,0.9,23.5,107.7V504c0,4.4,3.6,8,8,8s8-3.6,8-8v-48
			c0-1.7,1.2,4.6-23.7-103.4l20.7-55.3c4.3,2.3,6.5,7.3,5.3,12.1c-10.1,42.1-11.3,41.3-10,45.2L93.2,393
			c7.8,23.5,42.8,17.9,42.8-6.9V368c0-10.6,16-10.6,16,0c-1,7.7,5.8,45.7-22.4,83.2c-3.2,4.2-1,4.4,2.1,53.4
			c0.8,10.6,16.8,9.3,16-1.2l-3.5-45.1c29.7-41.6,22.9-82.6,23.8-90.3C168,354.8,157.2,344,144,344L144,344z"/>
		<path d="M457.9,165.5c9.4-39.8,8-75.8-4-101.5c-9.1-19.7-23.9-31.6-41.9-34c-17.6-33.2-57-33.3-93.9-26.5
			c-10.4,1.9-7.5,17.6,2.9,15.7c81.8-15,71.3,25.8,85.5,26.3c17.8,0.6,27.7,14.1,32.9,25.2c10.3,22.1,11.3,55.3,2.9,91.1
			c-9.6,40.8-30.6,83.2-61,123c-13.8-6.1-24.6-14.5-32.8-25.6c-6.3-8.5-19.2,1-12.8,9.5c10,13.5,23.6,24,40.3,31.2v31.2
			c-14.3,7.4-63.6,31.2-111.6,36c23.6-33.8,12.8-4.2,15.6-63.1c0-2.5-1.1-4.8-3.1-6.3c-5.3-4.2-8.5-0.1-42.7,7.5
			c-9.2,2.3-18.9-1.4-24.1-9.3c9.4-6.1,25.1-8.1,21.4-18.6c-5.8-16.2-11.5-27.6-35.9-26.2c-4-11.6-3.3-15.3-7.5-17.9l-18.4-11.3
			c20-26.6,22.2-26.5,22.2-31.3v-43.9c25,9.5,46.6,3.3,104,5.4c10.6,0,10.6-16,0-16h-74.1c-1.5-1.1-63.9,6.6-69.5-87.5
			c24.4,12.7,65-1.2,107.9-13.7c10.2-3,5.6-18.3-4.5-15.4c-46.8,14.7-92.7,28-104.4,7.5c-3.4-7.2-14.5-5.4-15.1,3
			c-2.6,36.4,8.1,85.7,39.8,108.1v49.7l-24.3,31.3c-2.7,3.5-2.1,8.5,1.4,11.2c0.2,0.2,0.5,0.3,0.7,0.5l23.4,14.4
			c3.9,9,3.2,24,13.9,22.5c17.6-2.5,20.2,1.8,22.9,8.4c-10.5,6.7-25.1,8.2-22,18.4c5.9,19.7,26.2,31.3,46.1,26.2l25.9-6.5v26.8
			c-34.9,41.9-64,104.3-64,162.9c0,10.6,16,10.6,16,0c0-48,20.1-91.5,37.4-120.1c53.5-1.7,109.7-28.1,128.2-37.6
			C457.6,451.1,416.5,512,440,512c4.4,0,8-3.6,8-8c0-58.6-9.4-107.7-56-170.7v-36C424.8,254.9,447.6,209.4,457.9,165.5z"/>
		<path d="M296,16c0-10.6-16-10.6-16,0S296,26.6,296,16z"/>
	</g>
</g>
</svg>
