<svg id="Capa_1" enable-background="new 0 0 512 512" height="512" viewBox="0 0 512 512" width="512" xmlns="http://www.w3.org/2000/svg"><path d="m490.787 113.137 21.213-21.213-91.924-91.924-21.213 21.213 12.374 12.374-47.73 47.73-34.472-34.472-67.175 67.175 18.739 18.739-183.869 183.87 15.733 15.733-27.761 27.761v45.962l-84.702 84.702 21.213 21.213 84.702-84.702h45.962l27.761-27.761 15.733 15.733 183.87-183.87 18.739 18.739 67.175-67.175-34.472-34.472 47.73-47.73zm-351.336 284.161h-24.749v-24.749l18.974-18.974 24.749 24.749zm-.295-80.669 116.694-116.694 56.215 56.215-24.749 24.749-28.107-28.107-21.213 21.213 28.107 28.107-24.77 24.771-28.107-28.107-21.213 21.213 28.107 28.107-24.749 24.749zm194.122-81.693-56.215-56.215 24.749-24.749 56.215 56.215zm64.701-27.223-93.692-93.692 24.749-24.749 93.692 93.692zm11.491-80.434-24.749-24.749 47.73-47.73 24.749 24.749z"/></svg>