<svg id="Capa_1" data-name="Capa 1" xmlns="http://www.w3.org/2000/svg" viewBox="0 0 491 490.84"><defs><style>.cls-1{fill:#fff;stroke:#fff;stroke-miterlimit:10;stroke-width:5px;}</style></defs><title>history white</title><path class="cls-1" d="M317.15,70.25H130.41a7.12,7.12,0,1,0,0,14.23H317.15a7.12,7.12,0,1,0,0-14.23Z" transform="translate(-10.5 -10.58)"/><path class="cls-1" d="M317.15,141.24H130.41a7.12,7.12,0,1,0,0,14.23H317.15a7.12,7.12,0,1,0,0-14.23Z" transform="translate(-10.5 -10.58)"/><path class="cls-1" d="M317.15,212.23H130.41a7.12,7.12,0,1,0,0,14.24H317.15a7.12,7.12,0,0,0,0-14.24Z" transform="translate(-10.5 -10.58)"/><path class="cls-1" d="M365.57,264.15A101.34,101.34,0,1,0,466.9,365.49,101.45,101.45,0,0,0,365.57,264.15Zm0,188.43a87.1,87.1,0,1,1,87.1-87.09A87.2,87.2,0,0,1,365.57,452.58Z" transform="translate(-10.5 -10.58)"/><path class="cls-1" d="M365.57,307.39a7.12,7.12,0,0,0,7.12-7.12V297a7.12,7.12,0,0,0-14.24,0v3.26A7.12,7.12,0,0,0,365.57,307.39Z" transform="translate(-10.5 -10.58)"/><path class="cls-1" d="M409,312l-2.31,2.31a7.12,7.12,0,0,0,10.07,10.07L419,322.1A7.12,7.12,0,1,0,409,312Z" transform="translate(-10.5 -10.58)"/><path class="cls-1" d="M423.67,365.49a7.12,7.12,0,0,0,7.12,7.12h3.26a7.12,7.12,0,0,0,0-14.24h-3.26A7.12,7.12,0,0,0,423.67,365.49Z" transform="translate(-10.5 -10.58)"/><path class="cls-1" d="M300.35,358.37h-3.26a7.12,7.12,0,1,0,0,14.24h3.26a7.12,7.12,0,0,0,0-14.24Z" transform="translate(-10.5 -10.58)"/><path class="cls-1" d="M416.72,406.57a7.12,7.12,0,0,0-10.07,10.07L409,419A7.12,7.12,0,0,0,419,408.88Z" transform="translate(-10.5 -10.58)"/><path class="cls-1" d="M365.57,423.59a7.12,7.12,0,0,0-7.12,7.12V434a7.12,7.12,0,1,0,14.24,0v-3.26A7.12,7.12,0,0,0,365.57,423.59Z" transform="translate(-10.5 -10.58)"/><path class="cls-1" d="M314.42,406.57l-2.31,2.31a7.12,7.12,0,0,0,10.07,10.06l2.31-2.3a7.12,7.12,0,0,0-10.07-10.07Z" transform="translate(-10.5 -10.58)"/><path class="cls-1" d="M322.18,312a7.12,7.12,0,1,0-10.07,10.07l2.31,2.3a7.12,7.12,0,1,0,10.07-10.06Z" transform="translate(-10.5 -10.58)"/><path class="cls-1" d="M385,358.37H372.69V327.91a7.12,7.12,0,0,0-14.24,0v37.58a7.12,7.12,0,0,0,7.12,7.12H385a7.12,7.12,0,0,0,0-14.24Z" transform="translate(-10.5 -10.58)"/><path class="cls-1" d="M473.87,287.54a7.12,7.12,0,0,0-11.55,8.33A119.23,119.23,0,1,1,444.24,276a7.12,7.12,0,0,0,9.4-10.7,133.37,133.37,0,0,0-84.33-33.14V120.85h60.8a13.77,13.77,0,0,0,13.75-13.75V57.47c0-25-20.72-44.39-43.66-44.39H232.88a7.12,7.12,0,0,0,0,14.24H366.93a44.2,44.2,0,0,0-11.85,30.15v175a133.34,133.34,0,0,0-94.49,50.75H130.41a7.12,7.12,0,0,0,0,14.24H250.83a132.29,132.29,0,0,0-16.66,44.77H86.83V49.84a22.55,22.55,0,0,1,22.52-22.52h95.07a7.12,7.12,0,0,0,0-14.24H109.35A36.79,36.79,0,0,0,72.6,49.84V342.23H20.12A7.12,7.12,0,0,0,13,349.35v13.8A59.89,59.89,0,0,0,72.82,423H95.74a7.12,7.12,0,1,0,0-14.24H72.82a45.63,45.63,0,0,1-45.58-45.58v-6.68H232.45c-.2,3-.31,6-.31,9a132.91,132.91,0,0,0,7.19,43.24H124.21a7.12,7.12,0,1,0,0,14.24h121a133.59,133.59,0,0,0,120.4,75.95c73.57,0,133.43-59.86,133.43-133.43a132.48,132.48,0,0,0-25.13-77.95ZM429.62,57.47v49.14H369.31V57.47a30.16,30.16,0,0,1,60.31,0Z" transform="translate(-10.5 -10.58)"/></svg>