<svg id="Capa_1" data-name="Capa 1" xmlns="http://www.w3.org/2000/svg" viewBox="0 0 487.04 486.85"><defs><style>.cls-1{fill:#fff;stroke:#fff;stroke-miterlimit:10;}</style></defs><title>history white</title><path class="cls-1" d="M306.65,59.67H119.91a7.12,7.12,0,0,0-.53,14.23H306.65a7.12,7.12,0,1,0,.53-14.23A4.68,4.68,0,0,0,306.65,59.67Z" transform="translate(-2 -2)"/><path class="cls-1" d="M306.65,130.66H119.91a7.12,7.12,0,0,0-.53,14.23,4.68,4.68,0,0,0,.53,0H306.65a7.12,7.12,0,1,0,.53-14.23Z" transform="translate(-2 -2)"/><path class="cls-1" d="M306.65,201.65H119.91a7.12,7.12,0,1,0,0,14.24H306.65a7.12,7.12,0,1,0,0-14.24Z" transform="translate(-2 -2)"/><path class="cls-1" d="M355.07,253.57A101.34,101.34,0,1,0,456.4,354.92h0A101.45,101.45,0,0,0,355.07,253.57Zm0,188.43a87.1,87.1,0,1,1,87.1-87.1h0A87.2,87.2,0,0,1,355.07,442Z" transform="translate(-2 -2)"/><path class="cls-1" d="M355.07,296.81a7.12,7.12,0,0,0,7.12-7.12v-3.27a7.12,7.12,0,0,0-14.24,0v3.26a7.12,7.12,0,0,0,7.11,7.13Z" transform="translate(-2 -2)"/><path class="cls-1" d="M398.5,301.42l-2.31,2.31a7.12,7.12,0,0,0,10.07,10.07l2.24-2.28a7.12,7.12,0,0,0-9.38-10.72A7.25,7.25,0,0,0,398.5,301.42Z" transform="translate(-2 -2)"/><path class="cls-1" d="M413.17,354.91a7.12,7.12,0,0,0,7.12,7.12h3.26a7.12,7.12,0,0,0,0-14.24h-3.26A7.12,7.12,0,0,0,413.17,354.91Z" transform="translate(-2 -2)"/><path class="cls-1" d="M289.85,347.79h-3.26a7.12,7.12,0,1,0,0,14.24h3.28a7.12,7.12,0,0,0,0-14.24Z" transform="translate(-2 -2)"/><path class="cls-1" d="M406.22,396a7.12,7.12,0,1,0-10.07,10.07l2.35,2.36a7.12,7.12,0,0,0,10-10.12Z" transform="translate(-2 -2)"/><path class="cls-1" d="M355.07,413a7.12,7.12,0,0,0-7.12,7.12v3.29a7.12,7.12,0,1,0,14.24,0v-3.28A7.12,7.12,0,0,0,355.1,413Z" transform="translate(-2 -2)"/><path class="cls-1" d="M303.92,396l-2.31,2.31a7.12,7.12,0,0,0,10.07,10.06l2.31-2.3A7.12,7.12,0,1,0,303.92,396Z" transform="translate(-2 -2)"/><path class="cls-1" d="M311.68,301.42a7.12,7.12,0,0,0-10.07,10.07l2.31,2.3A7.12,7.12,0,1,0,314.28,304l-.29-.29Z" transform="translate(-2 -2)"/><path class="cls-1" d="M374.5,347.79H362.19V317.33a7.12,7.12,0,0,0-14.24,0v37.58a7.12,7.12,0,0,0,7.12,7.12H374.5a7.12,7.12,0,0,0,0-14.24Z" transform="translate(-2 -2)"/><path class="cls-1" d="M463.37,277a7.12,7.12,0,1,0-11.55,8.33,119.23,119.23,0,1,1-18.08-19.87,7.12,7.12,0,0,0,9.4-10.7,133.37,133.37,0,0,0-84.33-33.14V110.27h60.8a13.77,13.77,0,0,0,13.75-13.75V46.89c0-25-20.72-44.39-43.66-44.39H222.38a7.12,7.12,0,0,0,0,14.24H356.43a44.2,44.2,0,0,0-11.85,30.15v175a133.31,133.31,0,0,0-94.49,50.75H119.91a7.12,7.12,0,0,0,0,14.24H240.33a132.38,132.38,0,0,0-16.66,44.77H76.33V39.26A22.56,22.56,0,0,1,98.85,16.74h95.07a7.12,7.12,0,1,0,0-14.24H98.85A36.79,36.79,0,0,0,62.1,39.26V331.65H9.62a7.12,7.12,0,0,0-7.12,7.12v13.8a59.89,59.89,0,0,0,59.82,59.85H85.24a7.12,7.12,0,1,0,0-14.24H62.32A45.64,45.64,0,0,1,16.74,352.6v-6.68H222c-.2,3-.31,6-.31,9a133.1,133.1,0,0,0,7.19,43.24H113.71a7.12,7.12,0,0,0,0,14.24h121a133.59,133.59,0,0,0,120.4,76c73.57,0,133.43-59.86,133.43-133.43A132.45,132.45,0,0,0,463.41,277ZM419.12,46.89V96H358.81V46.89a30.16,30.16,0,0,1,60.31,0Z" transform="translate(-2 -2)"/></svg>