<svg id="Capa_1" data-name="Capa 1" xmlns="http://www.w3.org/2000/svg" viewBox="0 0 498.84 512"><defs><style>.cls-1{fill:#fff;}</style></defs><title>problem-solving white</title><path class="cls-1" d="M388.5,353.46l-73.62,37.82a35.09,35.09,0,0,0-24.95-10.41H239.19a18.13,18.13,0,0,1-3.33-.19c-.46-.32-1.61-1.4-2.54-2.27l-.48-.46c-41.3-38.89-76.19-36.42-115.88-20.76-6.21,2.45-6.33,2.46-12.48,2.74H93.3a25.45,25.45,0,0,0-24-17H32A25.46,25.46,0,0,0,6.58,368.39V466.3A25.45,25.45,0,0,0,32,491.71H69.33a25.45,25.45,0,0,0,24-17h20.53a29.27,29.27,0,0,1,6.8,1.41L217.16,502c4.23,1.14,8.11,2.27,11.86,3.36C241.49,509,252,512,262.89,512c12.35,0,25.26-3.89,42.25-15.22l.25-.17,119-84.76c15.64-11.16,20.2-31.31,10.6-46.87-9.49-15.35-29.49-20.29-46.52-11.52ZM74.75,466.3a5.49,5.49,0,0,1-5.42,5.42H32a5.49,5.49,0,0,1-5.42-5.42V368.39A5.5,5.5,0,0,1,32,363H69.33a5.5,5.5,0,0,1,5.42,5.44Zm338.06-70.73L293.92,480.23c-24.2,16.1-34.5,13.11-59.32,5.9-3.84-1.12-7.81-2.27-12.24-3.47L125.8,456.84a47.49,47.49,0,0,0-12-2.1H94.75V380l10.64,0c7.61-.35,10-.58,18.91-4.11,34.4-13.58,60.94-15.2,94.84,16.72l.48.45c5.83,5.49,9.45,7.9,19.57,7.9h50.74a15.16,15.16,0,1,1,0,30.31H207.67a10,10,0,0,0,0,20h82.26a35.12,35.12,0,0,0,34.43-42.29l73.29-37.65c6.68-3.44,15.82-3.09,20.35,4.25C422,382,419.76,390.6,412.81,395.57Z" transform="translate(-6.58 0)"/><path class="cls-1" d="M236.75,236.52a32.45,32.45,0,0,0,3.47,59.84v14.89a33.1,33.1,0,0,0,33,33.08h44.3a33.11,33.11,0,0,0,33.07-33.08V296.36a32.45,32.45,0,0,0,3.47-59.84c4.38-16.27,13.25-28.38,22.59-41.09,14.36-19.54,30.64-41.7,30.6-80.72,0-3.48-.14-7.06-.43-10.63a10,10,0,1,0-19.93,1.59c.24,3,.36,6.08.36,9,0,32.46-13,50.15-26.72,68.87-10.44,14.21-21.18,28.85-26.3,49.66H256.58c-5.12-20.81-15.87-35.45-26.31-49.66-13.76-18.72-26.76-36.4-26.71-68.87,0-34.61,14.87-56.47,27.3-68.72a90.64,90.64,0,0,1,64.42-26,1.41,1.41,0,0,0,.29,0,90.6,90.6,0,0,1,54.82,17.8,10,10,0,1,0,11.89-16.08,113.44,113.44,0,0,0-145.45,10c-21.72,21.39-33.23,50.07-33.27,82.94-.05,39,16.23,61.19,30.6,80.74,9.34,12.7,18.21,24.81,22.59,41.08Zm93.88,74.73a13.09,13.09,0,0,1-13.07,13.08h-44.3a13.08,13.08,0,0,1-13-13.08V298.18h70.41Zm-79.7-58h89a12.47,12.47,0,1,1,0,24.93h-89a12.47,12.47,0,1,1,0-24.93Z" transform="translate(-6.58 0)"/><path class="cls-1" d="M305.43,73.05a10,10,0,0,0-20,0v62a10,10,0,0,0,20,0Z" transform="translate(-6.58 0)"/><path class="cls-1" d="M295.43,170.3a10,10,0,0,0-10,10v.06a10,10,0,1,0,10-10.06Z" transform="translate(-6.58 0)"/><path class="cls-1" d="M495.42,114.63H454.8a10,10,0,0,0,0,20h40.62a10,10,0,0,0,0-20Z" transform="translate(-6.58 0)"/><path class="cls-1" d="M438,50.22a10,10,0,0,0,5.57-1.69l33.7-22.62A10,10,0,0,0,466.12,9.3l-33.7,22.62A10,10,0,0,0,438,50.22Z" transform="translate(-6.58 0)"/><path class="cls-1" d="M477.27,223.36l-33.7-22.62a10,10,0,0,0-11.15,16.61L466.12,240a10,10,0,1,0,11.15-16.61Z" transform="translate(-6.58 0)"/><path class="cls-1" d="M95.43,134.63H136a10,10,0,0,0,0-20H95.43a10,10,0,0,0,0,20Z" transform="translate(-6.58 0)"/><path class="cls-1" d="M113.58,25.91l33.7,22.62a10,10,0,0,0,11.15-16.61L124.73,9.3a10,10,0,1,0-11.15,16.61Z" transform="translate(-6.58 0)"/><path class="cls-1" d="M147.29,200.74l-33.7,22.62A10,10,0,0,0,124.73,240l33.7-22.62a10,10,0,0,0-11.14-16.61Z" transform="translate(-6.58 0)"/><path class="cls-1" d="M377.44,69.23a10,10,0,1,0,0-14.17,9.94,9.94,0,0,0,0,14.17Z" transform="translate(-6.58 0)"/></svg>