<svg id="Capa_1" data-name="Capa 1" xmlns="http://www.w3.org/2000/svg" viewBox="0 0 481.16 481.17"><defs><style>.cls-1{fill:#3672ba;}</style></defs><title>audio</title><path class="cls-1" d="M410.64,70.5c-94-94-246.3-94-340.2,0-90.4,90.4-93.8,235-10.1,329.5l2.5,2c-9.1,19.6-24.7,43.8-49.5,56-8.2,4-6.3,16.2,2.7,17.6,27.1,4.2,66-.5,102.3-27.9l.5.4c92.2,54.2,212.8,41.8,292-37.4C504.64,316.8,504.64,164.4,410.64,70.5Zm-90.8,273c-5.3,5.4-10.9,10.4-15.9,16-7.3,8.2-16.5,10.8-26.9,10.2-15.2-.8-29.3-5.9-42.8-12.5a232.65,232.65,0,0,1-77.3-60.5c-15.9-18.9-29-39.5-37.7-62.8-4.2-11.3-7.2-22.8-6.3-35a28.8,28.8,0,0,1,8.9-19.2c6-5.7,11.6-11.6,17.5-17.4,7.7-7.6,17.3-7.5,25,0,4.8,4.7,9.4,9.4,14.1,14.1s9.2,9.1,13.7,13.7c8,8.1,8,17.5,0,25.6-5.7,5.8-11.4,11.6-17.3,17.2a3.58,3.58,0,0,0-.9,4.6c3.8,9.2,9.4,17.4,15.6,25,12.5,15.4,26.7,29.1,43.7,39.7,3.6,2.3,7.6,3.9,11.4,6,1.9,1.1,3.3.7,4.8-.9,5.7-5.9,11.6-11.7,17.4-17.5,7.7-7.6,17.3-7.6,24.9,0,9.4,9.3,18.7,18.6,28,28C327.74,326,327.74,335.6,319.84,343.5Zm-88.7-155.4,3-21.4A95.67,95.67,0,0,1,315,245.1l-21.3,3.7a74.16,74.16,0,0,0-62.6-60.7Zm118.7,57a136.93,136.93,0,0,0-115.9-112.4l3-21.4a158.74,158.74,0,0,1,134.2,130.1Z" transform="translate(0)"/></svg>