<svg id="OBJECTS" xmlns="http://www.w3.org/2000/svg" xmlns:xlink="http://www.w3.org/1999/xlink" viewBox="0 0 344.52 344.52"><defs><style>.cls-1{fill:url(#linear-gradient);}.cls-2,.cls-3{fill:#fff;}.cls-2{fill-rule:evenodd;}</style><linearGradient id="linear-gradient" x1="172.26" y1="344.52" x2="172.26" gradientUnits="userSpaceOnUse"><stop offset="0" stop-color="#20b038"/><stop offset="1" stop-color="#60d66a"/></linearGradient></defs><title>whtsapp icon</title><rect class="cls-1" width="344.52" height="344.52" rx="26.6"/><path class="cls-2" d="M354.33,239.6C354.33,302.79,302.7,354,239,354a115.49,115.49,0,0,1-55.75-14.24l-63.85,20.29,20.81-61.39a113.26,113.26,0,0,1-16.54-59.09c0-63.2,51.63-114.43,115.33-114.43S354.33,176.4,354.33,239.6ZM239,143.39c-53.48,0-97,43.15-97,96.21A95.17,95.17,0,0,0,160.52,296l-12.11,35.72,37.25-11.83A97,97,0,0,0,239,335.8c53.45,0,96.95-43.15,96.95-96.2s-43.5-96.21-96.95-96.21ZM297.24,266" transform="translate(-64.61 -70.36)"/><path class="cls-3" d="M305,209.62,273.3,227.93v-15A12.93,12.93,0,0,0,260.37,200H188.78a12.92,12.92,0,0,0-12.92,12.93v57.66a12.92,12.92,0,0,0,12.92,12.93h71.59a12.93,12.93,0,0,0,12.93-12.93v-15L305,273.88Z" transform="translate(-64.61 -70.36)"/></svg>