<svg id="WhatsApp_Logo" data-name="WhatsApp Logo" xmlns="http://www.w3.org/2000/svg" xmlns:xlink="http://www.w3.org/1999/xlink" viewBox="0 0 1280.24 1066.86"><defs><style>.cls-1{fill:none;}.cls-2{clip-path:url(#clip-path);}.cls-3{fill:#e5e5e4;}.cls-4{clip-path:url(#clip-path-2);}.cls-5{fill:#fff;}.cls-6{clip-path:url(#clip-path-3);}.cls-7{fill:#4a8cff;}.cls-8{clip-path:url(#clip-path-4);}</style><clipPath id="clip-path"><circle class="cls-1" cx="642.5" cy="551.48" r="442.88"/></clipPath><clipPath id="clip-path-2"><circle class="cls-1" cx="642.5" cy="551.48" r="434.25"/></clipPath><clipPath id="clip-path-3"><circle class="cls-1" cx="642.5" cy="551.48" r="399.42"/></clipPath><clipPath id="clip-path-4"><path class="cls-1" d="M764.09,499.57l113-82.52c9.8-8.12,17.41-6.09,17.41,8.62V677.29c0,16.74-9.3,14.72-17.41,8.63l-113-82.35ZM381.91,426.35v187.7A76.83,76.83,0,0,0,459,690.48h273.6a14,14,0,0,0,14-13.86V488.91a76.83,76.83,0,0,0-77.11-76.43H396A14,14,0,0,0,381.91,426.35Z"/></clipPath></defs><title>Zoom</title><g class="cls-2"><path class="cls-3" d="M177.81,86.79H1107V1016H177.81Z"/></g><g class="cls-4"><path class="cls-5" d="M186.6,95.58h912v912h-912Z"/></g><g class="cls-6"><path class="cls-7" d="M221.27,130.25h842.46V972.72H221.27Z"/></g><g class="cls-8"><path class="cls-5" d="M360.27,390.83H916.11v321.3H360.27Z"/></g></svg>