<svg id="Capa_1" data-name="Capa 1" xmlns="http://www.w3.org/2000/svg" viewBox="0 0 512 512"><defs><style>.cls-1{fill:#183e7a;}</style></defs><title>Appoinment</title><circle class="cls-1" cx="386" cy="210" r="20"/><path class="cls-1" d="M432,40H406V20a20,20,0,0,0-40,0V40H275V20a20,20,0,0,0-40,0V40H145V20a20,20,0,0,0-40,0V40H80A80.11,80.11,0,0,0,0,120V432a80.11,80.11,0,0,0,80,80H233a20,20,0,0,0,0-40H80a40,40,0,0,1-40-40V120A40,40,0,0,1,80,80h25v20a20,20,0,0,0,40,0V80h90v20a20,20,0,0,0,40,0V80h91v20a20,20,0,0,0,40,0V80h26a40,40,0,0,1,40,40V234a20,20,0,0,0,40,0V120A80.11,80.11,0,0,0,432,40Z"/><path class="cls-1" d="M391,270A121,121,0,1,0,512,391,121.16,121.16,0,0,0,391,270Zm0,202a81,81,0,1,1,81-81A81,81,0,0,1,391,472Z"/><circle class="cls-1" cx="299" cy="210" r="20"/><circle class="cls-1" cx="212" cy="297" r="20"/><circle class="cls-1" cx="125" cy="210" r="20"/><circle class="cls-1" cx="125" cy="297" r="20"/><circle class="cls-1" cx="125" cy="384" r="20"/><circle class="cls-1" cx="212" cy="384" r="20"/><circle class="cls-1" cx="212" cy="210" r="20"/><path class="cls-1" d="M378.75,405.7l-2.33,15.62H341.89l22.61-94h49.2l23.3,94H400.68l-2.74-15.62Zm14.4-25.77c-1-7.26-3.16-21.24-4.66-32.07h-.83c-1.37,10.42-2.87,22.07-4.52,32.07Z"/></svg>