<svg id="Layer_1" data-name="Layer 1" xmlns="http://www.w3.org/2000/svg" viewBox="0 0 512 512"><defs><style>.cls-1{fill:#183e7a;}</style></defs><title>Checkin</title><path class="cls-1" d="M511,279.65a201.84,201.84,0,0,0-156.95-177V77.26a34,34,0,0,0-8.21-67h-72a34,34,0,0,0-8.2,67v25.48a202.11,202.11,0,0,0-115.46,73.43c-.25,0-.5,0-.76,0H78.17a10,10,0,0,0,0,20h58.41a200.38,200.38,0,0,0-17.74,38.43H10a10,10,0,0,0,0,20H113.19a203.06,203.06,0,0,0-5,38.44H64a10,10,0,0,0,0,20h44.54a203.43,203.43,0,0,0,6.25,38.44H50a10,10,0,0,0,0,20h71.17A202,202,0,0,0,290,500.76q9.9,1,19.82,1A202.48,202.48,0,0,0,420.1,469.16a10,10,0,0,0-10.92-16.76c-71.56,46.6-167.39,36.52-227.87-24-71-71-71-186.43,0-257.39s186.43-71,257.39,0c60.4,60.4,70.53,156.15,24.09,227.68a10,10,0,0,0,16.77,10.89A202.63,202.63,0,0,0,511,279.65ZM259.85,44.26a14,14,0,0,1,14-14h72a14,14,0,0,1,0,28h-72A14,14,0,0,1,259.85,44.26Zm25.8,55v-21h48.41v21A203.62,203.62,0,0,0,285.65,99.3Z"/><path class="cls-1" d="M445.78,425.51a10,10,0,1,0,7.07,2.93A10.06,10.06,0,0,0,445.78,425.51Z"/><path class="cls-1" d="M310,144.61c-85.54,0-155.14,69.59-155.14,155.13S224.47,454.87,310,454.87s155.13-69.59,155.13-155.13S395.55,144.61,310,144.61Zm0,290.26c-74.52,0-135.14-60.62-135.14-135.13S235.49,164.61,310,164.61s135.13,60.62,135.13,135.13S384.52,434.87,310,434.87Z"/><path class="cls-1" d="M416.93,289.86h-9.27a10,10,0,1,0,0,20h9.27a10,10,0,0,0,0-20Z"/><path class="cls-1" d="M212.35,289.62h-9.26a10,10,0,0,0,0,20h9.26a10,10,0,1,0,0-20Z"/><path class="cls-1" d="M310.13,212.09a10,10,0,0,0,10-10v-9.27a10,10,0,0,0-20,0v9.27A10,10,0,0,0,310.13,212.09Z"/><path class="cls-1" d="M309.88,387.4a10,10,0,0,0-10,10v9.26a10,10,0,0,0,20,0V397.4A10,10,0,0,0,309.88,387.4Z"/><path class="cls-1" d="M10,351.45a10,10,0,1,0,7.07,17.07A10,10,0,0,0,10,351.45Z"/><path class="cls-1" d="M356.72,305.91c-3.07,25.81-18.59,40.1-49.78,40.1-39,0-50.7-25.81-50.7-55.16,0-30.11,14.29-55.77,51.93-55.77,36.87,0,47.32,22.59,48.25,39.18h-39c-.61-8.3-2.92-12.91-9.06-12.91-7.69,0-10.76,8-10.76,29.5,0,19.67,2.92,28.58,10.29,28.58s9.07-5.84,9.84-13.52Z"/></svg>