<svg id="Layer_1" data-name="Layer 1" xmlns="http://www.w3.org/2000/svg" viewBox="0 0 512 512"><defs><style>.cls-1{fill:#183e7a;}</style></defs><title>token</title><path class="cls-1" d="M256,0C114.62,0,0,114.62,0,256S114.62,512,256,512,512,397.38,512,256C511.84,114.68,397.32.16,256,0ZM431.87,422l-32.51-32.51A195.24,195.24,0,0,0,451.82,263h46A241,241,0,0,1,431.87,422ZM60.16,249.44a7,7,0,0,0-2.4-.45H16.25a7,7,0,0,0-2.08.35A241,241,0,0,1,80.13,90l32.51,32.51A195.23,195.23,0,0,0,60.16,249.44Zm329.3-136.8A195.23,195.23,0,0,0,263,60.17v-46a241.08,241.08,0,0,1,159,66ZM249,60.17a195.19,195.19,0,0,0-126.46,52.46L90,80.12a241.08,241.08,0,0,1,159-66ZM256,74A182,182,0,1,1,74,256,182,182,0,0,1,256,74ZM121.57,400.32a7.53,7.53,0,0,0,.87-1.07A195.21,195.21,0,0,0,249,451.81v46a241,241,0,0,1-159-66,7.93,7.93,0,0,0,.65-.53ZM263,451.81a195.19,195.19,0,0,0,126.46-52.46L422,431.86a241,241,0,0,1-159,65.95ZM497.82,249h-46a195.22,195.22,0,0,0-52.46-126.46L431.87,90A241,241,0,0,1,497.82,249ZM14.17,262.64a7,7,0,0,0,2.08.35h41.5a6.82,6.82,0,0,0,2.4-.46,195.17,195.17,0,0,0,52.59,127,6.46,6.46,0,0,0-1.07.87L80.72,421.37a7.93,7.93,0,0,0-.53.65A241,241,0,0,1,14.17,262.64Z"/><path class="cls-1" d="M217.93,204.82H173V157.75h157.9v47.07H286.8V342.28H217.93Z"/></svg>