<svg id="Capa_1" enable-background="new 0 0 512 512" height="512" viewBox="0 0 512 512" width="512" xmlns="http://www.w3.org/2000/svg"><g><g><path d="m363.328 426.128h-258.446c-8.283 0-14.997-6.714-14.997-14.997v-388.634c0-8.283 6.714-14.997 14.997-14.997h258.446c8.283 0 14.997 6.714 14.997 14.997v388.634c0 8.282-6.714 14.997-14.997 14.997z" fill="#8ac9fe"/><path d="m363.328 7.5h-39.685c8.283 0 14.997 6.714 14.997 14.997v388.634c0 8.283-6.714 14.997-14.997 14.997h39.685c8.283 0 14.997-6.714 14.997-14.997v-388.634c0-8.283-6.714-14.997-14.997-14.997z" fill="#60b7ff"/><path d="m145.363 86.251c1.066-.24 2.17-.378 3.309-.378h229.653v-63.376c0-3.677-1.328-7.04-3.524-9.648z" fill="#fd4755"/><path d="m407.118 504.5h-258.446c-8.283 0-14.997-6.714-14.997-14.997v-388.634c0-8.283 6.714-14.997 14.997-14.997h258.446c8.283 0 14.997 6.714 14.997 14.997v388.634c0 8.283-6.715 14.997-14.997 14.997z" fill="#0593fc"/><path d="m169.675 201.333v-72.461c0-3.866 3.134-7 7-7h78.169c3.866 0 7 3.134 7 7v72.461c0 3.866-3.134 7-7 7h-78.169c-3.866 0-7-3.134-7-7z" fill="#ffc4c8"/><path d="m169.675 461.5v-72.461c0-3.866 3.134-7 7-7h78.169c3.866 0 7 3.134 7 7v72.461c0 3.866-3.134 7-7 7h-78.169c-3.866 0-7-3.134-7-7z" fill="#ffc4c8"/><path d="m169.675 335.461v-72.461c0-3.866 3.134-7 7-7h78.169c3.866 0 7 3.134 7 7v72.461c0 3.866-3.134 7-7 7h-78.169c-3.866 0-7-3.134-7-7z" fill="#fff3be"/><path d="m407.118 85.872h-39.685c8.283 0 14.997 6.714 14.997 14.997v388.634c0 8.282-6.714 14.997-14.997 14.997h39.685c8.283 0 14.997-6.714 14.997-14.997v-388.634c0-8.282-6.715-14.997-14.997-14.997z" fill="#0182fc"/><g><path d="m374.801 12.848-30.492 9.755v63.269h34.016v-63.375c0-3.677-1.328-7.04-3.524-9.649z" fill="#fb2b3a"/></g></g><g><path d="m363.328 0h-180.036c-4.142 0-7.5 3.358-7.5 7.5s3.358 7.5 7.5 7.5h160.17l-200.045 63.999c-10.162 2.441-17.242 11.468-17.242 21.87v317.758h-21.292c-4.134 0-7.497-3.363-7.497-7.497v-388.633c0-4.134 3.363-7.497 7.497-7.497h43.41c4.142 0 7.5-3.358 7.5-7.5s-3.358-7.5-7.5-7.5h-43.41c-12.405 0-22.498 10.092-22.498 22.497v388.634c0 12.405 10.092 22.497 22.497 22.497h21.292v55.875c0 12.405 10.092 22.497 22.497 22.497h258.446c12.405 0 22.497-10.092 22.497-22.497v-26.859c0-4.142-3.358-7.5-7.5-7.5s-7.5 3.358-7.5 7.5v26.859c0 4.134-3.363 7.497-7.497 7.497h-258.445c-4.134 0-7.497-3.363-7.497-7.497v-63.375c0-10.845 0-311.552 0-325.258 0-4.101 3.385-7.497 7.497-7.497h258.446c4.134 0 7.497 3.363 7.497 7.497v326.775c0 4.142 3.358 7.5 7.5 7.5s7.5-3.358 7.5-7.5v-326.776c0-12.405-10.092-22.497-22.497-22.497h-21.292v-55.875c-.001-12.327-9.998-22.497-22.498-22.497zm-168.726 78.373 176.208-56.373c.01.162.016.327.016.497v55.875h-176.224z"/><path d="m269.344 128.873c0-7.995-6.505-14.5-14.5-14.5h-78.169c-7.995 0-14.5 6.505-14.5 14.5v72.461c0 7.995 6.505 14.5 14.5 14.5h78.169c7.995 0 14.5-6.505 14.5-14.5zm-15 71.96h-77.169v-71.461h77.169z"/><path d="m254.844 374.539h-78.169c-7.995 0-14.5 6.505-14.5 14.5v72.461c0 7.995 6.505 14.5 14.5 14.5h78.169c7.995 0 14.5-6.505 14.5-14.5v-72.461c0-7.995-6.505-14.5-14.5-14.5zm-.5 86.461h-77.169v-71.461h77.169z"/><path d="m269.344 263c0-7.995-6.505-14.5-14.5-14.5h-78.169c-7.995 0-14.5 6.505-14.5 14.5v72.461c0 7.995 6.505 14.5 14.5 14.5h78.169c7.995 0 14.5-6.505 14.5-14.5zm-15 71.961h-77.169v-71.461h77.169z"/><path d="m386.115 143.43h-92.681c-4.142 0-7.5 3.358-7.5 7.5s3.358 7.5 7.5 7.5h92.681c4.142 0 7.5-3.358 7.5-7.5s-3.358-7.5-7.5-7.5z"/><path d="m293.434 186.776h34.667c4.142 0 7.5-3.358 7.5-7.5s-3.358-7.5-7.5-7.5h-34.667c-4.142 0-7.5 3.358-7.5 7.5s3.358 7.5 7.5 7.5z"/><path d="m386.115 277.557h-92.681c-4.142 0-7.5 3.358-7.5 7.5s3.358 7.5 7.5 7.5h92.681c4.142 0 7.5-3.358 7.5-7.5s-3.358-7.5-7.5-7.5z"/><path d="m293.434 320.904h34.667c4.142 0 7.5-3.358 7.5-7.5s-3.358-7.5-7.5-7.5h-34.667c-4.142 0-7.5 3.358-7.5 7.5s3.358 7.5 7.5 7.5z"/><path d="m393.615 411.096c0-4.142-3.358-7.5-7.5-7.5h-92.681c-4.142 0-7.5 3.358-7.5 7.5s3.358 7.5 7.5 7.5h92.681c4.142 0 7.5-3.358 7.5-7.5z"/><path d="m293.434 431.943c-4.142 0-7.5 3.358-7.5 7.5s3.358 7.5 7.5 7.5h34.667c4.142 0 7.5-3.358 7.5-7.5s-3.358-7.5-7.5-7.5z"/></g></g></svg>