<svg id="Capa_1" enable-background="new 0 0 512.006 512.006" height="512" viewBox="0 0 512.006 512.006" width="512" xmlns="http://www.w3.org/2000/svg"><g><path d="m464.517 47.662-42.43-42.43c-5.857-5.858-15.355-5.858-21.213 0l-107.48 107.48c-5.858 5.858-5.858 15.355 0 21.213l42.43 42.43c5.854 5.854 15.355 5.857 21.213 0l107.48-107.48c5.854-5.855 5.857-15.356 0-21.213z" fill="#ff6378"/><path d="m506.94 111.298-107.48 107.48c-5.823 5.824-15.337 5.883-21.22 0l-42.42-42.42 128.7-128.7 42.42 42.42c5.85 5.86 5.85 15.36 0 21.22z" fill="#ea1c81"/><path d="m392 168.168c0 8.28-6.72 15-15 15h-176c-8.28 0-15-6.72-15-15 0-56.46 45.67-102.45 102-102.99 53.83-1.632 104 43.679 104 102.99z" fill="#cde840"/><path d="m392 168.168c0 8.28-6.72 15-15 15h-89v-117.99c53.83-1.632 104 43.679 104 102.99z" fill="#00da80"/><path d="m511.55 171.808-48 192c-1.67 6.68-7.67 11.36-14.55 11.36h-328.16c-7.09 0-13.22-4.97-14.68-11.91l-40.42-192c-1.966-9.346 5.186-18.09 14.68-18.09h416.58c9.723 0 16.922 9.15 14.55 18.64z" fill="#f1f1fa"/><path d="m511.55 171.808-48 192c-1.67 6.68-7.67 11.36-14.55 11.36h-161v-222h209c9.723 0 16.922 9.15 14.55 18.64z" fill="#d6d6fa"/><path d="m497 153.168h-412.58c-9.514 0-16.642 8.763-14.68 18.09 3.928 18.663 36.491 173.336 40.42 192 1.46 6.94 7.59 11.91 14.68 11.91h324.16c6.88 0 12.88-4.68 14.55-11.36l48-192c2.377-9.511-4.846-18.64-14.55-18.64zm-390.93 64-7.16-34h49.02l5.7 34zm13.47 64-7.16-34h46.28l5.7 34zm13.47 64-7.16-34h43.54l5.7 34zm45.34-162h48.28l2.83 34h-45.41zm10.73 64h42.88l2.84 34h-40.02zm16.43 98-5.7-34h37.49l2.83 34zm99.93 0h-35.21l-2.83-34h40.87zm5.33-64h-45.87l-2.84-34h51.55zm5.34-64h-56.55l-2.83-34h62.21zm54.05 128h-34.61l2.83-34h37.48zm10.73-64h-40.01l2.84-34h42.88zm10.74-64h-45.41l2.83-34h48.28zm44.66 128h-35.71l5.7-34h38.51zm16-64h-40.98l5.7-34h43.78zm16-64h-46.25l5.7-34h49.05z" fill="#d6d6fa"/><path d="m497 153.168h-209v30h30.94l-2.83 34h-28.11v30h25.61l-2.84 34h-22.77v30h20.27l-2.83 34h-17.44v30h161c6.88 0 12.88-4.68 14.55-11.36l48-192c2.377-9.511-4.846-18.64-14.55-18.64zm-126.84 192h-34.61l2.83-34h37.48zm10.73-64h-40.01l2.84-34h42.88zm10.74-64h-45.41l2.83-34h48.28zm44.66 128h-35.71l5.7-34h38.51zm16-64h-40.98l5.7-34h43.78zm16-64h-46.25l5.7-34h49.05z" fill="#a1a1cd"/><path d="m439 432.168c0 8.28-6.72 15-15 15h-288c-7.09 0-13.22-4.97-14.68-11.91l-61.49-292.09h-44.83c-8.28 0-15-6.72-15-15s6.72-15 15-15h57c7.09 0 13.22 4.97 14.68 11.91l61.49 292.09h275.83c8.28 0 15 6.72 15 15z" fill="#c8c8ea"/><path d="m439 432.168c0 8.28-6.72 15-15 15h-136v-30h136c8.28 0 15 6.72 15 15z" fill="#a1a1cd"/><circle cx="136" cy="464.168" fill="#a1a1cd" r="47"/><circle cx="425" cy="464.168" fill="#9797c2" r="47"/></g></svg>