<svg id="Flat" height="512" viewBox="0 0 512 512" width="512" xmlns="http://www.w3.org/2000/svg"><path d="m56 192v16l35.008 182.043a32 32 0 0 0 31.424 25.957h267.136a32 32 0 0 0 31.424-25.957l35.008-182.043v-16z" fill="#eb423f"/><path d="m472 208h-432a16 16 0 0 1 -16-16 16 16 0 0 1 16-16h432a16 16 0 0 1 16 16 16 16 0 0 1 -16 16z" fill="#c7312e"/><rect fill="#4f5659" height="33.941" rx="16" transform="matrix(.707 -.707 .707 .707 -142.558 151.833)" width="192.333" x="15.833" y="231.029"/><rect fill="#4f5659" height="192.333" rx="16" transform="matrix(.707 -.707 .707 .707 -58.205 355.48)" width="33.941" x="383.029" y="151.833"/><g fill="#e9eef2"><circle cx="168" cy="184" r="24"/><circle cx="344" cy="184" r="24"/><path d="m160 368a16 16 0 0 1 -16-16v-80a16 16 0 0 1 16-16 16 16 0 0 1 16 16v80a16 16 0 0 1 -16 16z"/><path d="m224 368a16 16 0 0 1 -16-16v-80a16 16 0 0 1 16-16 16 16 0 0 1 16 16v80a16 16 0 0 1 -16 16z"/><path d="m288 368a16 16 0 0 1 -16-16v-80a16 16 0 0 1 16-16 16 16 0 0 1 16 16v80a16 16 0 0 1 -16 16z"/><path d="m352 368a16 16 0 0 1 -16-16v-80a16 16 0 0 1 16-16 16 16 0 0 1 16 16v80a16 16 0 0 1 -16 16z"/></g><circle cx="392" cy="192" fill="#b1bd70" r="96"/><path d="m376 240q-.481 0-.966-.029a16 16 0 0 1 -12.348-7.1l-16-24a16 16 0 0 1 26.625-17.75l4.284 6.426 34.255-39.964a16 16 0 0 1 24.3 20.826l-48 56a16 16 0 0 1 -12.15 5.591z" fill="#e9eef2"/></svg>