<svg height="512" viewBox="0 0 512 512" width="512" xmlns="http://www.w3.org/2000/svg"><g id="flat"><path d="m456 336h-64v-48h36.468a16 16 0 0 1 15.179 10.94z" fill="#bce1ff"/><path d="m24 224h336v208h-336z" fill="#fbb540"/><path d="m24 400h336v32h-336z" fill="#dc4d41"/><path d="m392 288h-32v144h128v-72l-32-24h-64z" fill="#fbb540"/><path d="m416 288h16v48h-16z" fill="#8ed2ff"/><path d="m136 272h96v96h-96z" fill="#cd9c7a"/><path d="m136 360h96v8h-96z" fill="#a88e74"/><path d="m168 272h32v32h-32z" fill="#dc4d41"/><path d="m88 280h24v16h-24z" fill="#d18d28"/><path d="m64 312h48v16h-48z" fill="#d18d28"/><path d="m80 344h32v16h-32z" fill="#d18d28"/><path d="m48 280h24v16h-24z" fill="#d18d28"/><path d="m194.652 88.068-13.3-8.888a88.1 88.1 0 0 1 99.614-35.149l-4.8 15.265a72.1 72.1 0 0 0 -81.514 28.772z" fill="#8ed2ff"/><path d="m316.311 90.961a72.508 72.508 0 0 0 -25.754-25.33l8.014-13.848a88.536 88.536 0 0 1 31.451 30.933z" fill="#8ed2ff"/><path d="m221.278 105.818-13.3-8.887a56.524 56.524 0 0 1 18.578-17.431l8.015 13.848a40.432 40.432 0 0 0 -13.293 12.47z" fill="#8ed2ff"/><path d="m288.87 107.425a39.73 39.73 0 0 0 -34.307-19.425 40.325 40.325 0 0 0 -6.674.554l-2.651-15.78a56.078 56.078 0 0 1 57.344 26.406z" fill="#8ed2ff"/><path d="m261.414 123.9a7.981 7.981 0 0 0 -13.509-.329l-13.305-8.889a23.98 23.98 0 0 1 40.525.972z" fill="#8ed2ff"/><path d="m356.686 147.314-28.686 28.686-28.686-28.686a38.628 38.628 0 0 1 -11.314-27.314 40 40 0 0 1 40-40 40 40 0 0 1 40 40 38.628 38.628 0 0 1 -11.314 27.314z" fill="#dc4d41"/><path d="m248 136h16v16h-16z" fill="#bce1ff"/><path d="m248 168h16v32h-16z" fill="#bce1ff"/><g fill="#d18d28"><path d="m402.343 405.657-16-16a8 8 0 0 1 -2.343-5.657v-24h16v20.687l13.657 13.656z"/><path d="m416 360h32v16h-32z"/><path d="m304 392h56v16h-56z"/><path d="m320 360h40v16h-40z"/><path d="m336 328h24v16h-24z"/><path d="m24 392h264v16h-264z"/></g><circle cx="328" cy="120" fill="#e4e4e2" r="16"/><path d="m360 288h8v144h-8z" fill="#d18d28"/><circle cx="88" cy="432" fill="#a8a8a8" r="32"/><circle cx="88" cy="432" fill="#b9b9b9" r="16"/><path d="m88 472a40 40 0 1 1 40-40 40.045 40.045 0 0 1 -40 40zm0-64a24 24 0 1 0 24 24 24.028 24.028 0 0 0 -24-24z" fill="#6f7478"/><circle cx="424" cy="432" fill="#a8a8a8" r="32"/><circle cx="424" cy="432" fill="#b9b9b9" r="16"/><path d="m424 472a40 40 0 1 1 40-40 40.045 40.045 0 0 1 -40 40zm0-64a24 24 0 1 0 24 24 24.028 24.028 0 0 0 -24-24z" fill="#6f7478"/><path d="m136 272h8v96h-8z" fill="#a88e74"/></g></svg>