<svg id="Layer_5" enable-background="new 0 0 64 64" height="512" viewBox="0 0 64 64" width="512" xmlns="http://www.w3.org/2000/svg"><g><g><g><path d="m45.54 22c-.96 1.06-1.54 2.46-1.54 4h-14v-4h12z" fill="#ffeaa7"/></g><g><path d="m62 22.12v2.88c0 .55-.45 1-1 1h-5c0-1.54-.58-2.94-1.54-4h7.53c.01.04.01.08.01.12z" fill="#ffeaa7"/></g><g><path d="m19 6-1 .05v-.01-2.04c0-1.1.9-2 2-2h20c1.1 0 2 .9 2 2v2 16h-12v-5c0-6.08-4.92-11-11-11z" fill="#ff826e"/></g><g><path d="m61.99 22h-7.53c-1.09-1.23-2.69-2-4.46-2s-3.37.77-4.46 2h-3.54v-16h11.32c2.75 0 5.15 1.87 5.82 4.54l2.83 11.34c.01.04.02.08.02.12z" fill="#fc6e51"/></g><g><path d="m56 14v2h-10v-6h6c2.21 0 4 1.79 4 4z" fill="#69d6f4"/></g><g><path d="m54.46 22c.96 1.06 1.54 2.46 1.54 4 0 3.31-2.69 6-6 6s-6-2.69-6-6c0-1.54.58-2.94 1.54-4 1.09-1.23 2.69-2 4.46-2s3.37.77 4.46 2z" fill="#838f9b"/></g><g><circle cx="50" cy="26" fill="#ccd1d9" r="2"/></g><g><path d="m56 50h-12c-1.105 0-2-.895-2-2v-8c0-1.105.895-2 2-2h12c1.105 0 2 .895 2 2v8c0 1.105-.895 2-2 2z" fill="#d3a06c"/></g><g><path d="m60 62h-12c-1.105 0-2-.895-2-2v-8c0-1.105.895-2 2-2h12c1.105 0 2 .895 2 2v8c0 1.105-.895 2-2 2z" fill="#d3a06c"/></g><g><path d="m44 50h-8v2c0 .7-.12 1.37-.34 2-.82 2.33-3.05 4-5.66 4v4h14c1.105 0 2-.895 2-2v-8c0-1.105-.895-2-2-2z" fill="#d3a06c"/></g><g><path d="m40 50v4h-4.34c.22-.63.34-1.3.34-2v-2z" fill="#b27946"/></g><g><path d="m52 50h4v4h-4z" fill="#b27946"/></g><g><path d="m48 38h4v4h-4z" fill="#b27946"/></g><g><path d="m8 58h4v4h-4z" fill="#b4dd7f"/></g><g><path d="m23 48h-11v14h14v-4-6-4z" fill="#e6e9ed"/></g><g><path d="m30 58v4h-.91-3.09v-4z" fill="#b4dd7f"/></g><g><path d="m30.2 38.34-5.65-1.61-1.55 9.27-4-5-4 5-1.55-9.27-5.65 1.61c-3.43.98-5.8 4.12-5.8 7.69v5.97c0 3.31 2.69 6 6 6h4 4v-6h-4v-4h11 3v4 6h4c2.61 0 4.84-1.67 5.66-4 .22-.63.34-1.3.34-2v-2-3.97c0-3.57-2.37-6.71-5.8-7.69z" fill="#b4dd7f"/></g><g><path d="m16 36 3 5-4 5-1.55-9.27z" fill="#a0d468"/></g><g><path d="m24.55 36.73-1.55 9.27-4-5 3-5z" fill="#a0d468"/></g><g><path d="m11 24c-1.66 0-3 1.34-3 3v-10c.94 1.26 2.16 2.26 3.53 2.94.15.08.31.15.47.22v3.84z" fill="#b27946"/></g><g><path d="m29.12 24.88c-.54-.54-1.29-.88-2.12-.88h-1v-3.84c1.57-.68 2.95-1.76 4-3.16v5 4 1c0-.83-.34-1.58-.88-2.12z" fill="#b27946"/></g><g><path d="m8 17h7 8 7c-1.05 1.4-2.43 2.48-4 3.16-1.24.55-2.6.84-4 .84h-6c-1.4 0-2.76-.29-4-.84-.16-.07-.32-.14-.47-.22-1.37-.68-2.59-1.68-3.53-2.94z" fill="#aab2bd"/></g><g><path d="m19 6s-4 3-4 11h-7c0-3.04 1.23-5.79 3.22-7.78 1.77-1.77 4.14-2.94 6.78-3.17z" fill="#e6e9ed"/></g><g><path d="m19 6c6.08 0 11 4.92 11 11h-7c0-8-4-11-4-11z" fill="#e6e9ed"/></g><g><path d="m19 6s4 3 4 11h-8c0-8 4-11 4-11z" fill="#fcd770"/></g><g><path d="m21.12 52.88c.54.54.88 1.29.88 2.12 0 1.66-1.34 3-3 3h-3v-6h3c.83 0 1.58.34 2.12.88z" fill="#f0d0b4"/></g><g><path d="m22 33.36v2.64l-3 5-3-5v-2.64l.01-.01 2.99.65c1.08 0 2.1-.22 2.99-.65z" fill="#f0d0b4"/></g><g><path d="m29.12 24.88c.54.54.88 1.29.88 2.12 0 1.66-1.34 3-3 3h-1.79c.51-1.12.79-2.47.79-4v-2h1c.83 0 1.58.34 2.12.88z" fill="#f0d0b4"/></g><g><path d="m16 21h6c1.4 0 2.76-.29 4-.84v3.84 2c0 1.53-.28 2.88-.79 4-.69 1.56-1.82 2.7-3.22 3.35-.89.43-1.91.65-2.99.65l-2.99-.65c-.76-.35-1.44-.84-2.01-1.47-.48-.53-.89-1.16-1.21-1.88-.51-1.12-.79-2.47-.79-4v-2-3.84c1.24.55 2.6.84 4 .84z" fill="#f0d0b4"/></g><g><path d="m12.79 30h-1.79c-.83 0-1.58-.34-2.12-.88s-.88-1.29-.88-2.12c0-1.66 1.34-3 3-3h1v2c0 1.53.28 2.88.79 4z" fill="#f0d0b4"/></g></g><g><circle cx="22" cy="24" r="1"/><circle cx="16" cy="24" r="1"/><path d="m25.802 31h1.198c2.206 0 4-1.794 4-4h12.08c.488 3.386 3.401 6 6.92 6s6.432-2.614 6.92-6h4.08c1.103 0 2-.897 2-2v-2.877c0-.168-.021-.334-.061-.484l-2.834-11.336c-.779-3.122-3.571-5.303-6.79-5.303h-10.315v-1c0-1.654-1.346-3-3-3h-20c-1.654 0-3 1.346-3 3v1.181c-5.666.956-10 5.885-10 11.819v.333 9.667c0 2.206 1.794 4 4 4h1.198c.685 1.247 1.637 2.253 2.802 2.942v1.304l-7.473 2.134c-3.843 1.099-6.527 4.657-6.527 8.654v5.966c0 3.519 2.614 6.432 6 6.92v4.08h22.09 1.91 13c.771 0 1.468-.301 2-.78.532.48 1.229.78 2 .78h12c1.654 0 3-1.346 3-3v-8c0-1.654-1.346-3-3-3h-1.184c.112-.314.184-.648.184-1v-8c0-1.654-1.346-3-3-3h-12c-1.654 0-3 1.346-3 3v8c0 .352.072.686.184 1h-4.184v-2.966c0-3.997-2.684-7.556-6.527-8.654l-7.473-2.134v-1.304c1.165-.689 2.117-1.695 2.802-2.942zm-14.802-8c-.732 0-1.409.212-2 .556v-4.079c.618.508 1.29.945 2 1.308zm-.643-5h17.287c-1.585 1.273-3.579 2-5.643 2h-6c-2.066 0-4.059-.727-5.644-2zm13.612-2c-.175-4.185-1.406-6.991-2.523-8.685 4.02 1.016 7.072 4.464 7.494 8.685zm-4.969-8.615c.965 1.078 2.75 3.726 2.971 8.615h-5.941c.22-4.889 2.005-7.537 2.97-8.615zm10 12.093v4.079c-.591-.345-1.268-.557-2-.557v-2.215c.71-.362 1.382-.799 2-1.307zm-2 9.522h-.395c.254-.924.395-1.927.395-3v-1c1.103 0 2 .897 2 2s-.897 2-2 2zm4-6h12.685c-.297.622-.503 1.294-.605 2h-12.08zm19 8c-2.757 0-5-2.243-5-5s2.243-5 5-5 5 2.243 5 5-2.243 5-5 5zm6.92-6c-.102-.706-.308-1.378-.605-2h4.685v2zm-3.605-18c2.299 0 4.293 1.558 4.851 3.787l2.553 10.213h-5.83c-1.263-1.235-2.988-2-4.889-2s-3.626.765-4.889 2h-2.111v-14zm-34.315-3c0-.552.448-1 1-1h20c.552 0 1 .448 1 1v17h-10v-3.667-.333c0-6.617-5.383-12-12-12zm-2.445 3.315c-1.117 1.695-2.348 4.501-2.523 8.685h-4.97c.421-4.221 3.473-7.669 7.493-8.685zm-5.555 21.685c-1.103 0-2-.897-2-2s.897-2 2-2v1c0 1.073.141 2.076.395 3zm2-3v-4.439c.969.277 1.975.439 3 .439h6c1.025 0 2.031-.162 3-.439v4.439c0 4.252-2.355 7-6 7s-6-2.748-6-7zm2.537 11.172 2.248 3.746-2.167 2.709-1.031-6.184zm6.983 9.828h-7.04l3.52-4.399zm2.48 14h-12v-2h6c2.206 0 4-1.794 4-4s-1.794-4-4-4h-6v-2h12zm-6-8c1.103 0 2 .897 2 2s-.897 2-2 2h-2v-4zm-16-1v-5.966c0-3.108 2.088-5.877 5.076-6.73l4.576-1.307 1.501 9.003h-3.153v4h-1.758c-.081 0-.161.019-.242.024v-5.024h-2v5.692c-.209.141-.407.3-.586.48l-1.121 1.121 1.414 1.414 1.121-1.121c.372-.372.888-.586 1.414-.586h5.758v4h-7c-2.757 0-5-2.243-5-5zm6 7h2v2h-2zm18 2v-2h2v2zm17 0h-13v-2.08c2.352-.339 4.326-1.848 5.315-3.92h4.685v-4h3c.552 0 1 .448 1 1v8c0 .552-.448 1-1 1zm17-9v8c0 .552-.448 1-1 1h-12c-.552 0-1-.448-1-1v-8c0-.552.448-1 1-1h3v4h6v-4h3c.552 0 1 .448 1 1zm-8-1h2v2h-2zm-4-12h2v2h-2zm-6 9v-8c0-.552.448-1 1-1h3v4h6v-4h3c.552 0 1 .448 1 1v8c0 .552-.448 1-1 1h-8-4c-.552 0-1-.448-1-1zm-4 3v2h-2.08c.047-.328.08-.66.08-1v-1zm-4-4.966v5.966c0 2.757-2.243 5-5 5h-3v-4h1.758c.526 0 1.042.214 1.414.586l1.121 1.121 1.414-1.414-1.121-1.121c-.179-.18-.377-.338-.586-.48v-5.692h-2v5.024c-.081-.005-.161-.024-.242-.024h-1.758v-4h-3.153l1.501-9.004 4.576 1.307c2.988.854 5.076 3.623 5.076 6.731zm-11.587-8.591-1.031 6.184-2.167-2.709 2.248-3.746zm-2.413-1.72-2 3.334-2-3.334v-.972c.633.158 1.298.249 2 .249s1.367-.091 2-.249z"/><path d="m19 31c2.206 0 4-1.794 4-4h-2c0 1.103-.897 2-2 2s-2-.897-2-2h-2c0 2.206 1.794 4 4 4z"/><path d="m50 23c-1.654 0-3 1.346-3 3s1.346 3 3 3 3-1.346 3-3-1.346-3-3-3zm0 4c-.552 0-1-.448-1-1s.448-1 1-1 1 .448 1 1-.448 1-1 1z"/><path d="m57 17v-3c0-2.757-2.243-5-5-5h-7v8zm-10-6h5c1.654 0 3 1.346 3 3v1h-8z"/><path d="m37 5h2v14h-2z"/><path d="m33 5h2v14h-2z"/></g></g></svg>