<svg id="Layer_1" data-name="Layer 1" xmlns="http://www.w3.org/2000/svg" viewBox="0 0 493.57 464.2"><defs><style>.cls-1{opacity:0.5;}.cls-2{fill:#96836b;}.cls-3{fill:#7194a3;}.cls-4{fill:#96c5da;}.cls-5{fill:#e0747c;}.cls-6{fill:#c8af8f;}.cls-7{fill:#baae9b;}.cls-8{fill:#f8e8ce;}.cls-9{fill:#9d27b0;}.cls-10{fill:#6a1b9a;}.cls-11{fill:#02a9f4;}.cls-12{fill:#0377bc;}.cls-13{fill:#ffdc00;}.cls-14{fill:#fec108;}.cls-15{fill:#f5f5f5;}</style></defs><title>Store contact info</title><g class="cls-1"><path class="cls-2" d="M213.36,325.89h224.8V443.18H213.36Z" transform="translate(1.61 -3.41)"/><path class="cls-3" d="M379.52,345.44h39.09v68.42H379.52Z" transform="translate(1.61 -3.41)"/><path class="cls-4" d="M379.52,345.44h19.54v68.42H379.52Z" transform="translate(1.61 -3.41)"/><path class="cls-5" d="M408.84,169.51c63.09,0,100.11,69.54,64,120.24l-64,85-64-85C308.72,239.05,345.74,169.51,408.84,169.51Z" transform="translate(1.61 -3.41)"/><path class="cls-2" d="M344.82,289.75a75.4,75.4,0,0,1-13.26-32.27h-79.1l-48.87,48.87H357.32Z" transform="translate(1.61 -3.41)"/><path class="cls-6" d="M309.78,257.48H252.46l-48.87,48.87H335.53L323,289.75A75.15,75.15,0,0,1,309.78,257.48Z" transform="translate(1.61 -3.41)"/><path class="cls-7" d="M203.59,443.18H447.93v19.54H203.59Z" transform="translate(1.61 -3.41)"/><path class="cls-8" d="M203.59,443.18H433.27v19.54H203.59Z" transform="translate(1.61 -3.41)"/><path class="cls-4" d="M291.55,374.76H360v68.42H291.55Z" transform="translate(1.61 -3.41)"/><path class="cls-3" d="M232.91,345.44H272v68.42H232.91Z" transform="translate(1.61 -3.41)"/><path class="cls-4" d="M232.91,345.44h19.55v68.42H232.91Z" transform="translate(1.61 -3.41)"/><path class="cls-7" d="M357.32,306.35H193.82v19.54H372Z" transform="translate(1.61 -3.41)"/><path class="cls-8" d="M193.82,306.35v19.54H347.6l-14.71-19.54Z" transform="translate(1.61 -3.41)"/><circle class="cls-7" cx="410.44" cy="244.29" r="48.87"/><ellipse class="cls-8" cx="403.11" cy="244.29" rx="41.54" ry="48.26"/><path d="M447.93,467.61H203.59a4.89,4.89,0,0,1-4.89-4.89V443.18a4.89,4.89,0,0,1,4.89-4.89H447.93a4.89,4.89,0,0,1,4.89,4.89v19.54A4.89,4.89,0,0,1,447.93,467.61Zm-239.45-9.77H443v-9.78H208.48Z" transform="translate(1.61 -3.41)"/><path d="M433.27,337.7H443V443.18h-9.77Z" transform="translate(1.61 -3.41)"/><path d="M208.48,325.89h9.77V443.18h-9.77Z" transform="translate(1.61 -3.41)"/><path d="M372,330.78H193.82a4.89,4.89,0,0,1-4.89-4.89V306.35a4.89,4.89,0,0,1,4.89-4.89h163.5v9.77H198.7V321H372Z" transform="translate(1.61 -3.41)"/><path d="M457.71,330.78H445.63V321h7.19V309.86h9.77v16A4.89,4.89,0,0,1,457.71,330.78Z" transform="translate(1.61 -3.41)"/><path d="M207,309.8l-6.91-6.91L249,254a4.88,4.88,0,0,1,3.46-1.43h78.19v9.77H254.48Z" transform="translate(1.61 -3.41)"/><path d="M364.85,443.18h-9.77V379.65H296.44v63.53h-9.77V374.76a4.88,4.88,0,0,1,4.88-4.89H360a4.88,4.88,0,0,1,4.88,4.89Z" transform="translate(1.61 -3.41)"/><path d="M272,418.74H232.91a4.89,4.89,0,0,1-4.89-4.88V345.44a4.89,4.89,0,0,1,4.89-4.89H272a4.89,4.89,0,0,1,4.89,4.89v68.42A4.89,4.89,0,0,1,272,418.74ZM237.8,409h29.32V350.33H237.8Z" transform="translate(1.61 -3.41)"/><path d="M418.61,418.74H379.52a4.89,4.89,0,0,1-4.89-4.88V345.44a4.89,4.89,0,0,1,4.89-4.89h7.24v9.78H384.4V409h29.32V361.78h9.78v52.08A4.89,4.89,0,0,1,418.61,418.74Z" transform="translate(1.61 -3.41)"/><path d="M320.87,374.76h9.78v68.42h-9.78Z" transform="translate(1.61 -3.41)"/><path d="M408.84,379.65a4.89,4.89,0,0,1-3.91-1.95l-64-85c-17.86-25.08-20.12-56.22-6.11-83.4,14.21-27.55,42.57-44.66,74-44.66s59.82,17.11,74,44.66c14,27.18,11.76,58.32-6,83.29L412.74,377.7a4.87,4.87,0,0,1-3.9,1.95Zm0-205.25c-28.21,0-52.63,14.72-65.34,39.37-12.3,23.86-10.32,51.2,5.3,73.15l60,79.71,60.1-79.82a69.25,69.25,0,0,0,5.23-73C461.47,189.12,437,174.4,408.84,174.4Z" transform="translate(1.61 -3.41)"/><path d="M408.84,379.65a4.89,4.89,0,0,1-3.91-1.95l-64-85c-17.86-25.08-20.12-56.22-6.11-83.4,14.21-27.55,42.57-44.66,74-44.66s59.82,17.11,74,44.66c14,27.18,11.76,58.32-6,83.29L412.74,377.7a4.87,4.87,0,0,1-3.9,1.95Zm0-205.25c-28.21,0-52.63,14.72-65.34,39.37-12.3,23.86-10.32,51.2,5.3,73.15l60,79.71,60.1-79.82a69.25,69.25,0,0,0,5.23-73C461.47,189.12,437,174.4,408.84,174.4Z" transform="translate(1.61 -3.41)"/><path d="M408.84,301.46a53.76,53.76,0,1,1,53.75-53.76A53.83,53.83,0,0,1,408.84,301.46Zm0-97.74a44,44,0,1,0,44,44A44,44,0,0,0,408.84,203.72Z" transform="translate(1.61 -3.41)"/><path d="M389.29,223.27h9.77v48.87h-9.77Z" transform="translate(1.61 -3.41)"/><path d="M418.61,223.27h9.77v48.87h-9.77Z" transform="translate(1.61 -3.41)"/><path d="M394.18,242.82H423.5v9.77H394.18Z" transform="translate(1.61 -3.41)"/></g><g id="Page-1"><g id="_056---Phone-Call-Question" data-name="056---Phone-Call-Question"><g id="Icons"><path id="Shape" class="cls-9" d="M373.08,121.15A117.36,117.36,0,0,1,264.33,238.29,114.52,114.52,0,0,1,205,225a191.37,191.37,0,0,1-55.88,12.84,4.22,4.22,0,0,1-3.6-6.87,83.26,83.26,0,0,0,17.59-44.45,113.91,113.91,0,0,1-18-74.1c4.92-49.7,51.65-96.76,101.31-102a114.34,114.34,0,0,1,126.7,110.7Z" transform="translate(1.61 -3.41)"/><path id="Shape-2" data-name="Shape" class="cls-10" d="M249.2,10.32A114.25,114.25,0,0,1,354,121.15,117.42,117.42,0,0,1,248.49,238a116.33,116.33,0,0,0,15.84.32A117.36,117.36,0,0,0,373.08,121.15,114.27,114.27,0,0,0,249.2,10.32Z" transform="translate(1.61 -3.41)"/><circle id="Oval" class="cls-11" cx="260.38" cy="120.71" r="88.91"/><path id="Shape-3" data-name="Shape" class="cls-12" d="M258.77,35.21a89.37,89.37,0,0,0-9.53.53,88.91,88.91,0,0,1,0,176.76,88.91,88.91,0,1,0,9.53-177.29Z" transform="translate(1.61 -3.41)"/><path id="Shape-4" data-name="Shape" class="cls-13" d="M77,305.93A281.54,281.54,0,0,1,5.28,191.51a12.88,12.88,0,0,1-.08-7L17,141.18a12.76,12.76,0,0,1,3.3-5.71l20.33-20.33a12.85,12.85,0,0,1,18.16,0l45.42,45.42a12.83,12.83,0,0,1,0,18.17L70.34,212.62a6.37,6.37,0,0,0-1.73,5.95,130.58,130.58,0,0,0,35.62,60.08,130.58,130.58,0,0,0,60.08,35.62,6.34,6.34,0,0,0,5.95-1.73l33.9-33.86a12.84,12.84,0,0,1,18.16,0l45.42,45.42a12.86,12.86,0,0,1,0,18.17l-20.32,20.32a12.87,12.87,0,0,1-5.71,3.31L198.4,377.71a12.82,12.82,0,0,1-7-.08A281.66,281.66,0,0,1,77,305.93Z" transform="translate(1.61 -3.41)"/><path id="Shape-5" data-name="Shape" class="cls-14" d="M267.71,324.1l-45.42-45.42a12.86,12.86,0,0,0-18.17,0l-.44.45,45,45a12.86,12.86,0,0,1,0,18.17l-20.32,20.32a12.9,12.9,0,0,1-5.72,3.31l-36.69,10c2.15.71,4,1.3,5.44,1.72a12.92,12.92,0,0,0,7,.07l43.31-11.81a12.69,12.69,0,0,0,5.71-3.31l20.32-20.32a12.84,12.84,0,0,0,0-18.14Z" transform="translate(1.61 -3.41)"/><path id="Shape-6" data-name="Shape" class="cls-15" d="M258.77,155.87a6.35,6.35,0,0,1-6.35-6.35v-12.7a6.35,6.35,0,0,1,6.35-6.35,25.41,25.41,0,1,0-25.4-25.4,6.35,6.35,0,1,1-12.7,0,38.1,38.1,0,1,1,44.45,37.57v6.88A6.35,6.35,0,0,1,258.77,155.87Z" transform="translate(1.61 -3.41)"/><circle id="Oval-2" data-name="Oval" class="cls-15" cx="260.38" cy="171.51" r="6.35"/></g><g id="Icons_copy" data-name="Icons copy"><path id="Shape-7" data-name="Shape" d="M272.17,319.58l-45.41-45.4a19.16,19.16,0,0,0-27.11,0l-9.08,9.08v.06l-24.83,24.83a124.65,124.65,0,0,1-57-34,123.79,123.79,0,0,1-33.91-57l33.91-33.91a19.17,19.17,0,0,0,0-27.12L63.3,110.72a19.25,19.25,0,0,0-27.18,0l-9.08,9v.06L15.87,131a18.33,18.33,0,0,0-5,8.51L-.9,182.8a19,19,0,0,0,.06,10.47A288.88,288.88,0,0,0,72.45,310.44a288.83,288.83,0,0,0,117.16,73.28,19.14,19.14,0,0,0,10.48.07L243.4,372a18.31,18.31,0,0,0,8.51-5l11.18-11.18h.06l9-9.08A19.25,19.25,0,0,0,272.17,319.58Zm-8.95,18.17-4.58,4.63L226.76,310.5a6.35,6.35,0,0,0-8.95,9l31.82,31.82-6.74,6.73a5.68,5.68,0,0,1-2.85,1.65l-43.31,11.81a6.72,6.72,0,0,1-3.56,0,274.85,274.85,0,0,1-111.7-70.11,274.85,274.85,0,0,1-70.11-111.7,6.72,6.72,0,0,1,0-3.56l11.81-43.31A5.68,5.68,0,0,1,24.82,140l6.73-6.73,31.82,31.82a6.45,6.45,0,0,0,9,0,6.36,6.36,0,0,0,0-9L40.51,124.24l4.63-4.57a6.34,6.34,0,0,1,4.57-1.9,6.45,6.45,0,0,1,4.58,1.9l45.4,45.41a6.52,6.52,0,0,1,0,9.21l-4.57,4.57-4.57-4.57a6.35,6.35,0,1,0-9,9l4.64,4.64L65.84,208.2a12.7,12.7,0,0,0-3.43,11.87A136.8,136.8,0,0,0,99.69,283.2a136.73,136.73,0,0,0,63.13,37.27A12.65,12.65,0,0,0,174.69,317L195,296.72l4.64,4.64a6.35,6.35,0,1,0,8.95-9L204,287.77l4.57-4.57a6.52,6.52,0,0,1,9.21,0l45.41,45.4a6.46,6.46,0,0,1,0,9.15Z" transform="translate(1.61 -3.41)"/><path id="Shape-8" data-name="Shape" d="M338.34,33.37A119.91,119.91,0,0,0,245.69,4.16C193,9.68,144,59,138.75,111.8a119.77,119.77,0,0,0,17.71,76.27,75.47,75.47,0,0,1-15.87,38.86,10.57,10.57,0,0,0,9,17.27,203.38,203.38,0,0,0,55-12.19,121.29,121.29,0,0,0,54.17,12.77c2,0,3.88-.07,5.78-.13C327.35,241.6,381,183.88,379.43,121a121.35,121.35,0,0,0-41.09-87.64ZM264,232A108.77,108.77,0,0,1,208,219.44c-3.12-1.72-6.23-3.56-9.15-5.53a6.3,6.3,0,0,0-8.13,9.53,196,196,0,0,1-37.21,7.62A84.81,84.81,0,0,0,166.75,202c.7.83,1.4,1.78,2.1,2.61a6.34,6.34,0,0,0,4.76,2.09,6.16,6.16,0,0,0,4.19-1.58,6.35,6.35,0,0,0,.51-9,114.19,114.19,0,0,1-9.91-13v-.06a107,107,0,0,1-17-70C156,66.65,200.73,21.69,247,16.8A107.19,107.19,0,0,1,330,43a108.45,108.45,0,0,1,36.77,78.36c1.39,56.27-46.55,108-102.69,110.63Z" transform="translate(1.61 -3.41)"/><path id="Shape-9" data-name="Shape" d="M258.77,219.37a95.26,95.26,0,1,0-95.26-95.25,6.35,6.35,0,1,0,12.7,0,82.48,82.48,0,1,1,5.42,29.48,6.35,6.35,0,0,0-11.86,4.54A95.83,95.83,0,0,0,258.77,219.37Z" transform="translate(1.61 -3.41)"/></g></g></g></svg>