<?xml version="1.0" encoding="iso-8859-1"?>
<!-- Generator: Adobe Illustrator 19.0.0, SVG Export Plug-In . SVG Version: 6.00 Build 0)  -->
<svg version="1.1" id="Capa_1" xmlns="http://www.w3.org/2000/svg" xmlns:xlink="http://www.w3.org/1999/xlink" x="0px" y="0px"
	 viewBox="0 0 512 512" style="enable-background:new 0 0 512 512;" xml:space="preserve">
<rect x="236" y="7.2" style="fill:#D3D7DA;" width="39.2" height="452"/>
<path style="fill:#FFFFFF;" d="M472.8,314.4H39.2c0-17.6-14.4-32-32-32V81.6c17.6,0,32-14.4,32-32h433.6c0,17.6,14.4,32,32,32v200.8
	C487.2,282.4,472.8,296.8,472.8,314.4z"/>
<path style="fill:#F15F50;" d="M39.2,250.4V113.6c17.6,0,32-14.4,32-32h369.6c0,17.6,14.4,32,32,32v136.8c-17.6,0-32,14.4-32,32
	H71.2C71.2,264.8,56.8,250.4,39.2,250.4z"/>
<g>
	<path style="fill:#FFFFFF;" d="M106.4,172c1.6,1.6,3.2,2.4,5.6,3.2s5.6,1.6,9.6,2.4c5.6,1.6,9.6,2.4,12.8,4s6.4,3.2,8,5.6
		c2.4,2.4,3.2,6.4,3.2,11.2c0,4-0.8,7.2-3.2,10.4s-4.8,5.6-8.8,7.2c-4,1.6-8,2.4-13.6,2.4c-8.8,0-16.8-1.6-24-4.8
		c-0.8,0-1.6-0.8-2.4-1.6s-0.8-1.6-0.8-2.4c0-0.8,0-2.4,0.8-3.2s1.6-1.6,3.2-1.6c0.8,0,1.6,0,1.6,0.8c6.4,2.4,12.8,4,20,4
		c12,0,17.6-4,17.6-11.2c0-2.4-0.8-4-2.4-4.8c-1.6-1.6-3.2-2.4-5.6-3.2s-5.6-1.6-9.6-2.4c-5.6-1.6-9.6-2.4-12.8-4
		c-3.2-1.6-6.4-3.2-8.8-5.6c-2.4-2.4-4-6.4-4-10.4s0.8-7.2,3.2-10.4c2.4-3.2,4.8-5.6,8.8-7.2c4-1.6,8.8-2.4,14.4-2.4
		c7.2,0,14.4,0.8,20,3.2c1.6,0.8,3.2,2.4,3.2,4c0,0.8,0,2.4-0.8,3.2s-1.6,1.6-3.2,1.6c-0.8,0-0.8,0-1.6-0.8
		c-5.6-1.6-10.4-2.4-16-2.4s-9.6,0.8-12.8,3.2c-2.4,0-4,2.4-4,6.4C104,168.8,104.8,170.4,106.4,172z"/>
	<path style="fill:#FFFFFF;" d="M205.6,148.8c0.8,0.8,1.6,1.6,1.6,3.2c0,1.6-0.8,2.4-1.6,3.2s-1.6,1.6-3.2,1.6h-20.8v57.6
		c0,1.6-0.8,2.4-1.6,3.2s-1.6,1.6-3.2,1.6c-1.6,0-2.4-0.8-3.2-1.6s-1.6-1.6-1.6-3.2v-57.6h-20.8c-1.6,0-2.4-0.8-3.2-1.6
		s-1.6-1.6-1.6-3.2c0-1.6,0.8-2.4,1.6-3.2s1.6-1.6,3.2-1.6h50.4C204,147.2,204.8,147.2,205.6,148.8z"/>
	<path style="fill:#FFFFFF;" d="M265.6,150.4c5.6,3.2,9.6,7.2,12,12.8c3.2,5.6,4.8,12,4.8,18.4c0,7.2-1.6,12.8-4.8,18.4
		c-3.2,5.6-7.2,9.6-12,12.8c-5.6,3.2-11.2,4.8-18.4,4.8s-13.6-1.6-18.4-4.8c-5.6-3.2-9.6-7.2-12-12.8c-3.2-5.6-4-12-4.8-18.4
		c0-7.2,1.6-13.6,4.8-18.4c3.2-5.6,7.2-9.6,12-12.8c5.6-3.2,11.2-4.8,18.4-4.8C253.6,146.4,260,148,265.6,150.4z M260.8,206.4
		c4-2.4,7.2-5.6,8.8-9.6c2.4-4,3.2-8.8,3.2-14.4c0-5.6-0.8-9.6-3.2-14.4c-2.4-4-4.8-7.2-8.8-9.6c-4-2.4-8.8-4-13.6-4
		c-5.6,0-10.4,1.6-14.4,4s-7.2,5.6-8.8,9.6s-3.2,8.8-3.2,14.4c0,5.6,0.8,9.6,3.2,14.4s4.8,7.2,8.8,9.6c4,2.4,8.8,4,14.4,4
		C252,209.6,256.8,208.8,260.8,206.4z"/>
	<path style="fill:#FFFFFF;" d="M350.4,216.8c-0.8,0.8-1.6,1.6-3.2,1.6s-2.4-0.8-3.2-1.6c-0.8-0.8-1.6-1.6-1.6-3.2v-3.2
		c0-3.2,0-6.4-0.8-9.6c-0.8-3.2-2.4-5.6-4-8c-2.4-2.4-5.6-3.2-10.4-3.2h-20.8v23.2c0,1.6-0.8,2.4-1.6,3.2c-0.8,0.8-1.6,1.6-3.2,1.6
		s-2.4-0.8-3.2-1.6c-0.8-0.8-1.6-1.6-1.6-3.2V152c0-1.6,0.8-2.4,1.6-3.2c0.8-0.8,1.6-1.6,3.2-1.6h23.2c8.8,0,16,1.6,20.8,5.6
		s7.2,8.8,7.2,14.4c0,4-0.8,8-3.2,11.2c-2.4,3.2-5.6,5.6-9.6,7.2c4.8,1.6,8,4,9.6,8.8S352,204,352,208v4.8
		C352,214.4,351.2,216,350.4,216.8z M338.4,177.6c3.2-2.4,4.8-5.6,4.8-9.6s-1.6-7.2-4-9.6c-3.2-2.4-8-3.2-15.2-3.2h-17.6v25.6h18.4
		C330.4,181.6,335.2,180,338.4,177.6z"/>
	<path style="fill:#FFFFFF;" d="M416.8,210.4c0.8,0.8,1.6,1.6,1.6,3.2c0,1.6-0.8,2.4-1.6,3.2c-0.8,0.8-1.6,1.6-3.2,1.6h-40
		c-1.6,0-2.4-0.8-3.2-1.6c-0.8-0.8-1.6-1.6-1.6-3.2V152c0-1.6,0.8-2.4,1.6-3.2c0.8-0.8,1.6-1.6,3.2-1.6h40c1.6,0,2.4,0.8,3.2,1.6
		c0.8,0.8,1.6,1.6,1.6,3.2c0,1.6-0.8,2.4-1.6,3.2c-0.8,0.8-1.6,1.6-3.2,1.6h-36v22.4h32c1.6,0,2.4,0.8,3.2,1.6
		c0.8,0.8,1.6,1.6,1.6,3.2c0,1.6-0.8,2.4-1.6,3.2c-0.8,0.8-1.6,1.6-3.2,1.6h-32v22.4h36C415.2,208.8,416,208.8,416.8,210.4z"/>
</g>
<path style="fill:#D3D7DA;" d="M282.4,459.2h-53.6c-25.6,0-45.6,20.8-45.6,45.6H328C328.8,479.2,308,459.2,282.4,459.2z"/>
<g>
	<path style="fill:#193651;" d="M504.8,71.2c-12,0-21.6-9.6-21.6-21.6v-7.2h-200V0h-54.4v42.4h-200v7.2c0,12-9.6,21.6-21.6,21.6H0
		v221.6h7.2c12,0,21.6,9.6,21.6,21.6v7.2h200v129.6c-28.8,0-52.8,24-52.8,52.8v8h160v-7.2c0-28.8-24-52.8-52.8-52.8V322.4h200v-7.2
		c0-12,9.6-21.6,21.6-21.6h7.2V71.2H504.8z M243.2,14.4H268v28h-24.8V14.4z M320.8,497.6H191.2c3.2-17.6,19.2-31.2,37.6-31.2h53.6
		C301.6,466.4,316.8,480,320.8,497.6z M243.2,452V322.4H268V452H243.2z M497.6,279.2c-14.4,3.2-25.6,14.4-28,28H43.2
		c-3.2-14.4-14.4-25.6-28-28V85.6c13.6-3.2,24.8-14.4,28-28.8h426.4c3.2,14.4,14.4,25.6,28,28V279.2z"/>
	<rect x="96.8" y="247.2" style="fill:#193651;" width="14.4" height="16"/>
	<rect x="400.8" y="247.2" style="fill:#193651;" width="14.4" height="16"/>
	<rect x="96.8" y="101.6" style="fill:#193651;" width="14.4" height="16"/>
	<rect x="400.8" y="101.6" style="fill:#193651;" width="14.4" height="16"/>
</g>
<g>
</g>
<g>
</g>
<g>
</g>
<g>
</g>
<g>
</g>
<g>
</g>
<g>
</g>
<g>
</g>
<g>
</g>
<g>
</g>
<g>
</g>
<g>
</g>
<g>
</g>
<g>
</g>
<g>
</g>
</svg>
