<?xml version="1.0" encoding="utf-8"?>
<!-- Generator: Adobe Illustrator 24.0.1, SVG Export Plug-In . SVG Version: 6.00 Build 0)  -->
<svg version="1.1" id="Capa_1" xmlns="http://www.w3.org/2000/svg" xmlns:xlink="http://www.w3.org/1999/xlink" x="0px" y="0px"
	 viewBox="0 0 512 512" style="enable-background:new 0 0 512 512;" xml:space="preserve">
<style type="text/css">
	.st0{fill:#FFFFFF;stroke:#FFFFFF;stroke-width:10;stroke-miterlimit:10;}
</style>
<g>
	<path class="st0" d="M418.9,158.8h-36.4v-38.7c0-22.2-8.4-43.3-23.5-59.5c-2.8-3-7.5-3.2-10.6-0.3c-3,2.8-3.2,7.5-0.3,10.6
		c12.6,13.4,19.5,30.9,19.5,49.3v38.7h-152c-48,0-87.1,39.1-87.1,87.1v26.7h-11.7c-4.7,0-9,1.8-12.3,5.1l-39.6,39.6v-39.9
		c0-6.1-3.3-11.8-8.5-15c-21.8-13-35.4-36.8-35.4-62.1v-80.4c0-39.8,32.4-72.2,72.2-72.2h202.3c9.3,0,18.4,1.8,27,5.2
		c3.8,1.5,8.2-0.3,9.7-4.1c1.5-3.8-0.3-8.2-4.1-9.7c-10.4-4.2-21.3-6.3-32.6-6.3H93.1C45.1,32.9,6,72,6,120.1v80.4
		c0,30.6,16.3,59.3,42.7,74.9c0.8,0.5,1.2,1.3,1.2,2.1V321c0,5.5,3.3,10.3,8.3,12.4c3.4,1.6,10.2,1.4,14.6-2.9l42.2-42.2
		c0.5-0.5,1.1-0.7,1.8-0.7h11.7v38.7c0,11.8,2.3,23.2,6.8,33.9c1.6,3.8,6,5.6,9.8,4c3.8-1.6,5.6-6,4-9.8c-3.8-8.9-5.7-18.3-5.7-28.1
		v-80.4c0-39.8,32.4-72.2,72.2-72.2h203.3c39.8,0,72.2,32.4,72.2,72.2v80.4c0,25.4-13,48.5-34.8,61.7c-5.1,3.1-8.3,8.8-8.3,14.8
		v48.7l-48-48c-3.3-3.3-7.7-5.1-12.3-5.1h-172c-18.1,0-35.4-6.7-48.8-19c-3-2.8-7.8-2.6-10.6,0.5c-2.8,3-2.6,7.8,0.5,10.6
		c16.1,14.8,37,22.9,58.9,22.9h172c0.7,0,1.3,0.3,1.8,0.7l50.5,50.5c3.9,3,7.7,5.3,14.6,2.9c5-2.1,8.3-7,8.3-12.4v-52.3
		c0-0.9,0.4-1.7,1.1-2.1c26.3-16,42-43.8,42-74.5v-80.4C506,197.9,466.9,158.8,418.9,158.8L418.9,158.8z"/>
	<path class="st0" d="M296.2,336.9c-4.4-6.2-12.4-10.3-21.5-10.3c-13.8,0-25,9.5-25,21.3c0,11.7,11.2,21.3,25,21.3
		c12.1,0,22.2-7.3,24.5-17.1c11-4.6,19.7-13.9,23.5-25.6c10.9-2.5,19.1-12.3,19.1-23.9v-26.9c0-11.2-7.6-20.7-18-23.6
		c-2.4-15-9.8-28.8-21.1-39.2c-12.6-11.6-29-18-46.1-18c-33.7,0-62,24.3-67.3,57.2c-10.3,2.9-17.9,12.4-17.9,23.6v26.9
		c0,13.5,11,24.5,24.5,24.5s24.5-11,24.5-24.5v-26.9c0-10.5-6.7-19.6-16-23c4.8-24.7,26.5-42.8,52.2-42.8
		c25.4,0,47.3,18.4,52.2,42.8c-9.3,3.5-16,12.5-16,23v26.9c0,10,6,18.6,14.5,22.4C304.9,330,301,334.2,296.2,336.9L296.2,336.9z
		 M274.7,354.1c-5.9,0-10.1-3.3-10.1-6.3c0-3,4.1-6.3,10.1-6.3s10.1,3.3,10.1,6.3C284.8,350.8,280.7,354.1,274.7,354.1z
		 M205.5,302.5c0,5.3-4.3,9.6-9.6,9.6s-9.6-4.3-9.6-9.6v-26.9c0-5.3,4.3-9.6,9.6-9.6s9.6,4.3,9.6,9.6V302.5z M307.7,275.6
		c0-5.3,4.3-9.6,9.6-9.6c5.3,0,9.6,4.3,9.6,9.6v26.9c0,5.3-4.3,9.6-9.6,9.6c-5.3,0-9.6-4.3-9.6-9.6V275.6z"/>
	<path class="st0" d="M361.2,237.1h59.5c4.1,0,7.5-3.3,7.5-7.5s-3.3-7.5-7.5-7.5h-59.5c-4.1,0-7.5,3.3-7.5,7.5
		S357,237.1,361.2,237.1z"/>
	<path class="st0" d="M361.2,270.6H407c4.1,0,7.5-3.3,7.5-7.5s-3.3-7.5-7.5-7.5h-45.9c-4.1,0-7.5,3.3-7.5,7.5S357,270.6,361.2,270.6
		z"/>
	<circle class="st0" cx="79.5" cy="130.6" r="11.1"/>
	<circle class="st0" cx="113.2" cy="130.6" r="11.1"/>
	<circle class="st0" cx="146.7" cy="130.6" r="11.1"/>
</g>
</svg>
