<?xml version="1.0" encoding="utf-8"?>
<!-- Generator: Adobe Illustrator 24.0.1, SVG Export Plug-In . SVG Version: 6.00 Build 0)  -->
<svg version="1.1" id="Capa_1" xmlns="http://www.w3.org/2000/svg" xmlns:xlink="http://www.w3.org/1999/xlink" x="0px" y="0px"
	 viewBox="0 0 512 512" style="enable-background:new 0 0 512 512;" xml:space="preserve">
<style type="text/css">
	.st0{fill:#FFFFFF;}
</style>
<g>
	<g>
		<path class="st0" d="M511.9,330.3c-0.6-11.4-6.3-21.9-15.5-28.7c-14.9-11-35.6-9.9-49.1,2.7l-82.6,76.9
			c0.5-16.9-10.6-31.8-27.3-36.1l-100.8-25.6c-17.7-4.5-36.2-3.9-53.5,1.8l-69.7,22.6v-20.1c0-5.5-4.5-10-10-10H10
			c-5.5,0-10,4.5-10,10V502c0,5.5,4.5,10,10,10h93.4c5.5,0,10-4.5,10-10v-137l75.9-24.6c13.8-4.5,28.4-4.9,42.5-1.4l100.8,25.6
			c7.8,2,12.9,9.3,12.1,17.3c-0.8,8.3-7.8,14.6-16.1,14.6h-80.3c-5.5,0-10,4.5-10,10c0,5.5,4.5,10,10,10h31.5c0.4,0,0.8,0.1,1.1,0.1
			h49.6c16.5,0,32.3-6.2,44.4-17.5l85.9-80c6.5-6.1,16.4-6.6,23.6-1.3c4.4,3.3,7.1,8.3,7.4,13.8c0.3,5.5-1.8,10.8-5.9,14.5
			L367.7,456.2c-8.2,7.6-18.8,11.8-30,11.8h-155c-5.5,0-10,4.5-10,10c0,5.5,4.5,10,10,10h155c16.2,0,31.7-6.1,43.6-17.1l118.4-110.2
			C508.1,352.8,512.6,341.8,511.9,330.3z M93.4,492H20V333.9h73.4L93.4,492L93.4,492z"/>
	</g>
</g>
<g>
	<g>
		<path class="st0" d="M149.5,470.9c-1.9-1.9-4.4-2.9-7.1-2.9c-2.6,0-5.2,1.1-7.1,2.9c-1.9,1.9-2.9,4.4-2.9,7.1s1.1,5.2,2.9,7.1
			c1.9,1.9,4.4,2.9,7.1,2.9c2.6,0,5.2-1.1,7.1-2.9c1.9-1.9,2.9-4.4,2.9-7.1S151.4,472.8,149.5,470.9z"/>
	</g>
</g>
<g>
	<g>
		<path class="st0" d="M63.8,460.6c-1.9-1.9-4.5-2.9-7.1-2.9c-2.6,0-5.2,1.1-7.1,2.9c-1.9,1.9-2.9,4.5-2.9,7.1s1.1,5.2,2.9,7.1
			c1.9,1.9,4.4,2.9,7.1,2.9c2.6,0,5.2-1.1,7.1-2.9c1.9-1.9,2.9-4.4,2.9-7.1C66.7,465,65.6,462.4,63.8,460.6z"/>
	</g>
</g>
<g>
	<g>
		<path class="st0" d="M217.6,0h-10.9c-48.6,0-88.1,39.5-88.1,88.1v26c-31.4,3-56,29.5-56,61.7c0,34.2,27.8,62,62,62h4
			c5.5,0,10-4.5,10-10V88.1c0-37.6,30.6-68.1,68.1-68.1h10.9c5.5,0,10-4.5,10-10C227.6,4.5,223.1,0,217.6,0z M118.6,200.5v16.9
			c-20.3-2.9-36-20.4-36-41.6s15.7-38.6,36-41.6V200.5z"/>
	</g>
</g>
<g>
	<g>
		<path class="st0" d="M256.4,0H256c-5.5,0-10,4.5-10,10c0,5.5,4.5,10,10,10h0.4c5.5,0,10-4.5,10-10C266.4,4.5,261.9,0,256.4,0z"/>
	</g>
</g>
<g>
	<g>
		<path class="st0" d="M393.4,114.1v-26c0-48.6-39.5-88.1-88.1-88.1h-11.2c-5.5,0-10,4.5-10,10c0,5.5,4.5,10,10,10h11.2
			c37.6,0,68.1,30.6,68.1,68.1v167.7c0,3.4-2.8,6.2-6.2,6.2h-74.4c-3.9-9.4-13.2-16-24-16h-22.9c-14.3,0-26,11.7-26,26v0
			c0,14.3,11.7,26,26,26h22.9c10.8,0,20.1-6.6,24-16h74.4c14.4,0,26.2-11.7,26.2-26.2v-18.3c31.4-3,56-29.5,56-61.7
			S424.8,117.2,393.4,114.1z M268.8,278h-22.9c-3.3,0-6-2.7-6-6v0c0-3.3,2.7-6,6-6h22.9c3.3,0,6,2.7,6,6
			C274.8,275.3,272.1,278,268.8,278z M393.4,217.4v-16.9v-66.3c20.3,2.9,36,20.4,36,41.6S413.7,214.5,393.4,217.4z"/>
	</g>
</g>
<g>
	<g>
		<path class="st0" d="M344,110.8h-9.3c-1.3-4-2.9-7.9-4.8-11.7l6.6-6.6c1.9-1.9,2.9-4.4,2.9-7.1s-1.1-5.2-2.9-7.1l-22.3-22.3
			c-3.9-3.9-10.2-3.9-14.1,0l-6.6,6.6c-3.8-1.9-7.7-3.5-11.7-4.8v-9.3c0-5.5-4.5-10-10-10h-31.5c-5.5,0-10,4.5-10,10v9.4
			c-4,1.3-7.9,2.9-11.7,4.8l-6.6-6.6c-3.9-3.9-10.2-3.9-14.1,0l-22.3,22.3c-1.9,1.9-2.9,4.4-2.9,7.1s1.1,5.2,2.9,7.1l6.7,6.7
			c-1.9,3.8-3.5,7.6-4.8,11.6H168c-5.5,0-10,4.5-10,10v31.5c0,5.5,4.5,10,10,10h9.5c1.3,4,2.9,7.9,4.8,11.6l-6.7,6.7
			c-1.9,1.9-2.9,4.4-2.9,7.1s1.1,5.2,2.9,7.1l22.3,22.3c3.9,3.9,10.2,3.9,14.1,0l6.7-6.7c3.7,1.9,7.6,3.5,11.6,4.8v9.5
			c0,5.5,4.5,10,10,10h31.5c5.5,0,10-4.5,10-10v-9.4c4-1.3,7.9-2.9,11.6-4.8l6.7,6.7c3.9,3.9,10.2,3.9,14.1,0l22.3-22.3
			c1.9-1.9,2.9-4.4,2.9-7.1s-1.1-5.2-2.9-7.1l-6.6-6.6c1.9-3.8,3.5-7.6,4.8-11.7h9.4c5.5,0,10-4.5,10-10v-31.5
			C354,115.3,349.5,110.8,344,110.8z M334,142.3H327c-4.7,0-8.8,3.3-9.8,7.9c-1.6,7.1-4.4,13.9-8.3,20.1c-2.5,4-2,9.1,1.4,12.5l5,5
			l-8.1,8.1l-5-5c-3.3-3.3-8.5-3.9-12.4-1.4c-6.2,3.9-12.9,6.7-20.1,8.3c-4.6,1-7.9,5.1-7.9,9.8v7.1h-11.5v-7.1
			c0-4.7-3.3-8.7-7.8-9.8c-7.1-1.6-13.9-4.4-20.1-8.3c-4-2.5-9.1-2-12.5,1.4l-5,5l-8.1-8.1l5-5c3.3-3.3,3.9-8.5,1.4-12.5
			c-3.9-6.2-6.7-12.9-8.3-20.1c-1-4.6-5.1-7.8-9.8-7.8H178v-11.5h7c4.5,0,8.5-3,9.7-7.4c0-0.2,0.1-0.3,0.1-0.5
			c1.6-7.1,4.4-13.9,8.3-20.1c2.5-4,2-9.1-1.4-12.4l-5-5l8.1-8.1l5,5c3.3,3.3,8.5,3.9,12.5,1.4c6.1-3.9,12.8-6.7,19.9-8.3
			c4.6-0.9,8-5,8-9.8v-7h11.5v6.9c0,4.6,3.2,8.7,7.8,9.8c0,0,0.1,0,0.1,0c7.1,1.6,13.9,4.4,20.1,8.3c4,2.5,9.1,2,12.4-1.4l4.9-4.9
			l8.1,8.1l-4.9,4.9c-3.3,3.3-3.9,8.6-1.3,12.5c3.9,6.1,6.7,12.8,8.3,19.9c0.9,4.6,5,8,9.8,8h7L334,142.3L334,142.3z"/>
	</g>
</g>
<g>
	<g>
		<path class="st0" d="M256,98.5c-21,0-38,17-38,38s17,38,38,38s38-17,38-38C294,115.6,276.9,98.5,256,98.5z M256,154.5
			c-9.9,0-18-8.1-18-18c0-9.9,8.1-18,18-18c9.9,0,18,8.1,18,18C274,146.5,265.9,154.5,256,154.5z"/>
	</g>
</g>
<g>
	<g>
		<path class="st0" d="M56.7,352c-5.5,0-10,4.5-10,10v69c0,5.5,4.5,10,10,10s10-4.5,10-10v-69C66.7,356.5,62.2,352,56.7,352z"/>
	</g>
</g>
</svg>
