<?xml version="1.0" encoding="utf-8"?>
<!-- Generator: Adobe Illustrator 24.0.1, SVG Export Plug-In . SVG Version: 6.00 Build 0)  -->
<svg version="1.1" id="Capa_1" xmlns="http://www.w3.org/2000/svg" xmlns:xlink="http://www.w3.org/1999/xlink" x="0px" y="0px"
	 viewBox="0 0 512 512" style="enable-background:new 0 0 512 512;" xml:space="preserve">
<style type="text/css">
	.st0{fill:#365E7D;}
	.st1{fill:#2B4D66;}
	.st2{fill:#61A2F9;}
	.st3{fill:#5490F9;}
	.st4{fill:#F6F1F1;}
	.st5{fill:#E2A770;}
	.st6{fill:#F1D0A5;}
	.st7{fill:#F1B986;}
	.st8{fill:#DD636E;}
	.st9{fill:#1E4079;}
	.st10{fill:#EFB41A;}
</style>
<path class="st0" d="M129,40l23.4-0.7c4.8-0.1,7-6.1,3.4-9.3l-14.9-13.4c-6.5-5.8-2.4-16.6,6.4-16.6h59.4h100.7
	c39.7,0,71.8,32.1,71.8,71.8v101.4H134.9V89.9c0-6.4-1.5-12.7-4.4-18.4l-9.3-18.3C118.2,47.2,122.3,40.2,129,40z"/>
<path class="st1" d="M307.3,0H285c39.7,0,71.8,32.1,71.8,71.8v101.4h22.3V71.8C379.2,32.1,347,0,307.3,0z"/>
<path class="st2" d="M399.3,511.9H112.7c-4.2,0-7.6-3.4-7.6-7.6V359.5c0-55.3,44.8-100.1,100.1-100.1h101.4
	c55.3,0,100.1,44.8,100.1,100.1v144.8C406.9,508.5,403.5,511.9,399.3,511.9L399.3,511.9z"/>
<path class="st3" d="M306.7,259.3h-28.3c55.3,0,100.1,44.8,100.1,100.1v152.4h20.8c4.2,0,7.6-3.4,7.6-7.6V359.5
	C406.9,304.2,362,259.3,306.7,259.3L306.7,259.3z"/>
<path class="st4" d="M256,336.7l-27.9,20.4c-2.6,1.9-6.3,0.7-7.4-2.3l-33.9-96.9l20.3-19.9l13.8,37.9L256,336.7z"/>
<path class="st4" d="M256,336.7l27.9,20.4c2.6,1.9,6.3,0.7,7.4-2.3l33.9-96.9L304.9,238l-13.8,37.9L256,336.7z"/>
<path class="st5" d="M256,336.7l35.1-60.8h-70.2L256,336.7z"/>
<path class="st6" d="M256,294c-53.9,0-97.5-43.7-97.5-97.5v-84.4c0-7,1.9-13.4,5.1-18.9c10.1-17.2,33.3-21.1,49.2-8.9
	c29.1,22.3,60.9,29.4,96,17.7c21-7,43.6,7.4,44.6,29.6c0,0.6,0,1.1,0,1.7v63.4C353.5,250.4,309.9,294,256,294L256,294z"/>
<g>
	<path class="st7" d="M353.5,131.4c-1-22.2-23.6-36.6-44.6-29.6c-0.2,0.1-0.4,0.1-0.5,0.2c12.2,4.3,21.6,15.3,22.2,29.4
		c0,0.6,0,1.1,0,1.7v63.4c0,50-37.6,91.1-86,96.8c3.8,0.4,7.6,0.7,11.5,0.7c53.9,0,97.5-43.7,97.5-97.5v-63.4
		C353.5,132.6,353.5,132,353.5,131.4L353.5,131.4z"/>
</g>
<g>
	<g>
		<path class="st1" d="M211.3,173.5c-4.3,0-7.7-3.5-7.7-7.7V155c0-4.3,3.5-7.7,7.7-7.7s7.7,3.5,7.7,7.7v10.8
			C219,170,215.5,173.5,211.3,173.5z"/>
	</g>
	<g>
		<path class="st1" d="M300.7,173.5c-4.3,0-7.7-3.5-7.7-7.7V155c0-4.3,3.5-7.7,7.7-7.7s7.7,3.5,7.7,7.7v10.8
			C308.4,170,305,173.5,300.7,173.5z"/>
	</g>
</g>
<g>
	<path class="st8" d="M256,248c-7.1,0-14.2-2.1-21.1-6.4c-3.6-2.2-4.7-7-2.5-10.6s7-4.7,10.6-2.5c8.8,5.5,17.1,5.5,25.9,0
		c3.6-2.2,8.4-1.1,10.6,2.5c2.2,3.6,1.1,8.4-2.5,10.6C270.2,245.9,263.1,248,256,248z"/>
</g>
<path class="st5" d="M158.5,187.4h-15.6c-10.8,0-19.6-8.8-19.6-19.6s8.8-19.6,19.6-19.6h15.6V187.4z"/>
<g>
	<path class="st1" d="M358.7,243.3h-66.3c-4.3,0-7.7-3.5-7.7-7.7s3.5-7.7,7.7-7.7h66.3c3.1,0,5.6-2.5,5.6-5.6v-37
		c0-4.3,3.5-7.7,7.7-7.7s7.7,3.5,7.7,7.7v37C379.7,233.8,370.2,243.3,358.7,243.3z"/>
</g>
<path class="st0" d="M293.5,247.4h-20.2c-5.2,0-9.5-4.2-9.5-9.5v-4.3c0-5.2,4.2-9.5,9.5-9.5h20.2c5.2,0,9.5,4.2,9.5,9.5v4.3
	C302.9,243.1,298.7,247.4,293.5,247.4z"/>
<path class="st0" d="M362.1,512H149.9l-18.8-100.9c-1.8-9.8,5.7-18.9,15.7-18.9h218.4c10,0,17.5,9.1,15.7,18.9L362.1,512z"/>
<path class="st1" d="M365.2,392.3h-20.9c10,0,17.5,9.1,15.7,18.9L341.1,512h20.9l18.8-100.9C382.7,401.3,375.2,392.3,365.2,392.3
	L365.2,392.3z"/>
<circle class="st4" cx="256" cy="471.7" r="21.9"/>
<path class="st4" d="M356.6,392.3h-52.8v-16.8c0-5,4-9,9-9h34.7c5,0,9,4,9,9L356.6,392.3L356.6,392.3z"/>
<path class="st2" d="M353.5,195.5h18.4c14.5,0,26.3-11.8,26.3-26.3v-2.9c0-14.5-11.8-26.3-26.3-26.3h-18.4V195.5z"/>
<path class="st3" d="M371.9,140h-18.4v0c14.4,0.1,26.1,11.8,26.1,26.3v2.9c0,14.5-11.7,26.2-26.1,26.3v0h18.4
	c14.5,0,26.3-11.8,26.3-26.3v-2.9C398.2,151.8,386.5,140,371.9,140L371.9,140z"/>
<g>
	<path class="st9" d="M256.8,468c-0.1,0.1-0.4,0.1-0.5,0c0,0,0,0,0,0l-5-5.6l-0.1-0.1c-0.1-0.1-0.2-0.1-0.3-0.1
		c-0.1,0-0.3,0-0.4,0.1l0,0l-3.3,3l0,0c-0.1,0.1-0.2,0.2-0.2,0.3c0,0.1,0,0.3,0.1,0.4l0,0l8.3,9.2c0,0.1,0.1,0.1,0.1,0.2
		c0.2,0.2,0.4,0.2,0.6,0.2c0.2,0,0.5-0.1,0.7-0.2l0,0l19.4-17.5l0,0c-1-1.6-2.2-3-3.6-4.3l0,0L256.8,468z"/>
	<path class="st9" d="M276.8,458.8l-4.2,3.8l0,0c1.2,2.3,1.9,4.7,2,7.2h-1c-0.7,0-1.3,0.5-1.3,1.2c0,0.7,0.5,1.2,1.2,1.3
		c0,0,0,0,0.1,0h1.1c-0.6,9.1-7.8,16.3-16.9,16.9l0,0v-1c0-0.7-0.5-1.3-1.2-1.3c-0.7,0-1.2,0.5-1.3,1.2c0,0,0,0,0,0.1v1.1l0,0
		c-9.1-0.6-16.3-7.8-16.9-16.9h1c0.7,0,1.3-0.5,1.3-1.2c0-0.7-0.5-1.2-1.2-1.3c0,0,0,0-0.1,0h-1.1c0.6-9.1,7.8-16.3,16.9-16.9l0,0v1
		c0,0.7,0.5,1.3,1.2,1.3c0.7,0,1.2-0.5,1.3-1.2c0,0,0,0,0-0.1v-1.1l0,0c3.7,0.3,7.2,1.8,10,4l0,0l4.2-3.7l0,0
		c-4.1-3.5-9.5-5.8-15.3-5.8c-13.1-0.1-23.8,10.5-23.9,23.6c-0.1,13.1,10.5,23.8,23.6,23.9s23.8-10.5,23.9-23.6
		C280.3,466.7,279,462.4,276.8,458.8z"/>
	<path class="st10" d="M277.1,457.3l3.1-2.7c0.3-0.2,0.3-0.6,0.1-0.9c-0.8-1.1-1.7-2.2-2.7-3.2c-0.3-0.3-0.7-0.3-1,0l-3.1,2.7l0,0
		C274.8,454.4,276,455.7,277.1,457.3z"/>
</g>
</svg>
