<svg id="Layer_1" enable-background="new 0 0 512 512" height="512" viewBox="0 0 512 512" width="512" xmlns="http://www.w3.org/2000/svg"><g id="XMLID_1126_"><path id="XMLID_1171_" d="m454 502h-396c-26.51 0-48-21.49-48-48v-396c0-26.51 21.49-48 48-48h396c26.51 0 48 21.49 48 48v396c0 26.51-21.49 48-48 48z" fill="#e2e9ee"/><path id="XMLID_1170_" d="m58 58h396v396h-396z" fill="#33d6f5"/><g id="XMLID_1103_"><path id="XMLID_107_" d="m454 512h-396c-31.981 0-58-26.019-58-58v-396c0-31.981 26.019-58 58-58h396c31.981 0 58 26.019 58 58v396c0 31.981-26.019 58-58 58zm-396-492c-20.953 0-38 17.047-38 38v396c0 20.953 17.047 38 38 38h396c20.953 0 38-17.047 38-38v-396c0-20.953-17.047-38-38-38z"/></g><g id="XMLID_1281_"><path id="XMLID_106_" d="m454 464h-152.873c-5.522 0-10-4.477-10-10s4.478-10 10-10h142.873v-376h-376v376h143.127c5.523 0 10 4.477 10 10s-4.477 10-10 10h-153.127c-5.523 0-10-4.477-10-10v-396c0-5.523 4.477-10 10-10h396c5.522 0 10 4.477 10 10v396c0 5.523-4.478 10-10 10z"/></g><g id="XMLID_53_"><path id="XMLID_52_" d="m279.873 334.001v-99.769c0-.129-.104-.233-.233-.233h-73.473v40h25.706v60.002h-25.706v40h99.667v-40z" fill="#ffcd69"/><path id="XMLID_56_" d="m255.873 137.999c15.464 0 28 12.536 28 28 0 15.464-12.536 28-28 28-15.464 0-28-12.536-28-28 0-15.464 12.536-28 28-28z" fill="#ffcd69"/><g id="XMLID_54_"><path id="XMLID_103_" d="m255.873 203.999c-20.953 0-38-17.047-38-38s17.047-38 38-38 38 17.047 38 38-17.047 38-38 38zm0-56c-9.925 0-18 8.075-18 18s8.075 18 18 18 18-8.075 18-18-8.075-18-18-18z"/></g><g id="XMLID_60_"><path id="XMLID_100_" d="m305.833 384.001h-99.667c-5.523 0-10-4.477-10-10v-40c0-5.523 4.477-10 10-10h15.707v-40.002h-15.707c-5.523 0-10-4.477-10-10v-40c0-5.523 4.477-10 10-10h73.473c5.643 0 10.233 4.59 10.233 10.233v89.769h15.96c5.522 0 10 4.477 10 10v40c.001 5.523-4.477 10-9.999 10zm-89.666-20h79.667v-20h-15.96c-5.522 0-10-4.477-10-10v-90.002h-53.707v20h15.707c5.523 0 10 4.477 10 10v60.002c0 5.523-4.477 10-10 10h-15.707z"/></g></g><g id="XMLID_1265_"><g id="XMLID_1266_"><path id="XMLID_99_" d="m256.13 464c-2.63 0-5.21-1.07-7.07-2.93-1.87-1.86-2.93-4.44-2.93-7.07s1.06-5.21 2.93-7.07c1.86-1.86 4.44-2.93 7.07-2.93s5.21 1.07 7.07 2.93c1.859 1.86 2.93 4.44 2.93 7.07s-1.07 5.21-2.93 7.07-4.44 2.93-7.07 2.93z"/></g></g></g></svg>