<svg xmlns="http://www.w3.org/2000/svg" viewBox="0 0 2700 2000"><defs><style>.cls-1{isolation:isolate;}.cls-2{fill:#f4a640;}.cls-3{fill:#adcfd8;}.cls-13,.cls-4{fill:#55769f;}.cls-11,.cls-5{fill:#daeef7;}.cls-6{fill:#feb546;}.cls-7{fill:#ff5b7e;}.cls-8{fill:#e03268;}.cls-9{fill:#02ccc0;}.cls-10{fill:#06bfad;}.cls-11,.cls-29{mix-blend-mode:multiply;}.cls-12{fill:#284c7a;}.cls-13{opacity:0.5;}.cls-14{fill:#c4dfe8;}.cls-15{fill:#ffc0bb;}.cls-16{fill:#f50;}.cls-17{fill:#07085b;}.cls-18,.cls-29{fill:#f99893;}.cls-19{fill:#333;}.cls-20{fill:#fc8d84;opacity:0.6;}.cls-21{fill:#050645;}.cls-22{fill:#fff;}.cls-23{fill:#070852;}.cls-24{fill:#10116b;}.cls-25{fill:#ededed;}.cls-26{fill:#26426e;}.cls-27{fill:#e0e0e0;}.cls-28{fill:#3a5782;}.cls-29{opacity:0.3;}.cls-30{fill:#f5577a;}.cls-31{fill:#de4b6c;}</style></defs><title>Education</title><g class="cls-1"><g id="Layer_1" data-name="Layer 1"><path class="cls-2" d="M1282,1460.42l-257.61,103.46-318.89-794,217.76-87.45a43,43,0,0,1,55.86,23.85Z"/><rect class="cls-3" x="753.71" y="775.67" width="500.95" height="704.33" transform="translate(-181.45 192.6) rotate(-10.05)"/><rect class="cls-4" x="843.2" y="849.92" width="223.7" height="5.02" transform="translate(-134.13 179.8) rotate(-10.05)"/><rect class="cls-4" x="793.98" y="837.38" width="317.69" height="5.02" transform="translate(-131.98 179.21) rotate(-10.05)"/><rect class="cls-4" x="771.54" y="901.84" width="385.43" height="5.02" transform="translate(-143.06 182.2) rotate(-10.05)"/><rect class="cls-4" x="775.76" y="925.63" width="385.43" height="5.02" transform="translate(-147.14 183.3) rotate(-10.05)"/><rect class="cls-4" x="784.19" y="973.19" width="385.43" height="5.02" transform="translate(-155.32 185.5) rotate(-10.05)"/><rect class="cls-4" x="788.41" y="996.98" width="385.43" height="5.02" transform="translate(-159.4 186.6) rotate(-10.05)"/><rect class="cls-4" x="792.62" y="1020.76" width="385.43" height="5.02" transform="translate(-163.49 187.71) rotate(-10.05)"/><rect class="cls-4" x="811.17" y="1125.37" width="385.43" height="5.02" transform="translate(-181.47 192.55) rotate(-10.05)"/><rect class="cls-4" x="815.54" y="1150.04" width="385.43" height="5.02" transform="translate(-185.71 193.69) rotate(-10.05)"/><rect class="cls-4" x="819.91" y="1174.7" width="385.43" height="5.02" transform="translate(-189.94 194.83) rotate(-10.05)"/><rect class="cls-4" x="824.28" y="1199.36" width="385.43" height="5.02" transform="translate(-194.18 195.98) rotate(-10.05)"/><rect class="cls-4" x="828.66" y="1224.03" width="385.43" height="5.02" transform="translate(-198.42 197.12) rotate(-10.05)"/><rect class="cls-4" x="833.03" y="1248.69" width="385.43" height="5.02" transform="translate(-202.66 198.26) rotate(-10.05)"/><rect class="cls-4" x="837.4" y="1273.35" width="385.43" height="5.02" transform="translate(-206.89 199.4) rotate(-10.05)"/><rect class="cls-5" x="715.18" y="772.18" width="500.95" height="704.33" transform="translate(-254.36 282.79) rotate(-14.74)"/><rect class="cls-4" x="782.31" y="851.38" width="223.7" height="5.02" transform="translate(-187.88 255.69) rotate(-14.74)"/><rect class="cls-4" x="732.07" y="839.06" width="317.69" height="5.02" transform="translate(-184.85 254.46) rotate(-14.74)"/><rect class="cls-4" x="714.87" y="902.37" width="385.43" height="5.02" transform="translate(-200.41 260.78) rotate(-14.74)"/><rect class="cls-4" x="721.01" y="925.73" width="385.43" height="5.02" transform="translate(-206.16 263.12) rotate(-14.74)"/><rect class="cls-4" x="733.31" y="972.45" width="385.43" height="5.02" transform="translate(-217.64 267.78) rotate(-14.74)"/><rect class="cls-4" x="739.46" y="995.81" width="385.43" height="5.02" transform="translate(-223.38 270.12) rotate(-14.74)"/><rect class="cls-4" x="745.6" y="1019.17" width="385.43" height="5.02" transform="translate(-229.13 272.45) rotate(-14.74)"/><rect class="cls-4" x="772.64" y="1121.92" width="385.43" height="5.02" transform="translate(-254.39 282.72) rotate(-14.74)"/><rect class="cls-4" x="779.02" y="1146.14" width="385.43" height="5.02" transform="translate(-260.34 285.14) rotate(-14.74)"/><rect class="cls-4" x="785.39" y="1170.36" width="385.43" height="5.02" transform="translate(-266.3 287.56) rotate(-14.74)"/><rect class="cls-4" x="791.77" y="1194.58" width="385.43" height="5.02" transform="translate(-272.25 289.98) rotate(-14.74)"/><rect class="cls-4" x="798.14" y="1218.81" width="385.43" height="5.02" transform="translate(-278.21 292.4) rotate(-14.74)"/><rect class="cls-4" x="804.52" y="1243.03" width="385.43" height="5.02" transform="matrix(0.97, -0.25, 0.25, 0.97, -284.16, 294.82)"/><rect class="cls-4" x="810.89" y="1267.25" width="385.43" height="5.02" transform="translate(-290.12 297.24) rotate(-14.74)"/><path class="cls-6" d="M1184.22,1499.67,665.59,1708,363.1,954.76,798.91,685.92a46.4,46.4,0,0,1,67.42,22.19Z"/><path class="cls-7" d="M498.23,1586.07l-74-1.34c-25.68-46.55-44.53-87-44.53-87,83.56-19.26,154.08-11.36,212.84,11.23l32.37,78.65,6.93-60.56c145.62,78.58,205.61,244.92,205.61,244.92s-257.34-27.41-311.89-52.78c-21.07-9.8-47.61-45.05-72.26-84.63C473,1615.75,498.23,1586.07,498.23,1586.07Z"/><path class="cls-8" d="M379.71,1497.7s330.39,139,457.75,274.24c0,0-257.34-27.41-311.89-52.78-21.07-9.8-47.61-45.05-72.26-84.63,19.72-18.78,44.92-48.46,44.92-48.46l-74-1.34C398.56,1538.18,379.71,1497.7,379.71,1497.7Z"/><path class="cls-7" d="M390.25,1719.92c44.49-27.09,89.37-41.59,132.8-47.37,12.73,15.83,28.36,34.44,28.36,34.44l1.65-37.11C719.71,1662.3,857.8,1774,857.8,1774c-96.53,60.84-178.86,77.61-246.3,72.18-4-13-9.66-32.35-9.66-32.35l-11.91,29.81a290.8,290.8,0,0,1-85.5-27.47c6.31-15.46,13-33.14,13-33.14l-35.92,20.4C421.28,1766.59,390.25,1719.92,390.25,1719.92Z"/><path class="cls-8" d="M611.5,1846.13c-4-13-9.66-32.35-9.66-32.35l-11.91,29.81a290.8,290.8,0,0,1-85.5-27.47c6.31-15.46,13-33.14,13-33.14l-35.92,20.4c-60.19-36.79-91.22-83.46-91.22-83.46,194.17-22.43,467.55,54,467.55,54C761.27,1834.79,678.94,1851.56,611.5,1846.13Z"/><path class="cls-9" d="M1362.63,718.86l59.64-43.8c-5.9-52.84-13.87-96.77-13.87-96.77-79.35,32.5-132.38,79.67-167.32,132l19,82.92-40.62-45.46c-73.55,148.22-26.52,318.68-26.52,318.68s194.32-170.92,224.22-223.13c11.55-20.16,12.88-64.26,10.16-110.82C1400.33,728.56,1362.63,718.86,1362.63,718.86Z"/><path class="cls-10" d="M1408.4,578.29s-189.54,304.24-215.5,488.16c0,0,194.32-170.92,224.22-223.13,11.55-20.16,12.88-64.26,10.16-110.82-27-3.94-64.65-13.64-64.65-13.64l59.64-43.8C1416.37,622.22,1408.4,578.29,1408.4,578.29Z"/><path class="cls-9" d="M1528.06,765.83c-52,3.56-97,17.63-135.79,38C1391,824.08,1389,848.3,1389,848.3L1366.23,819c-140.46,90-188.78,260.88-188.78,260.88,113.94-6,190.85-39.86,242.79-83.23-4.23-12.9-10.79-32-10.79-32l26.93,17.46a290.73,290.73,0,0,0,54-71.78c-14.08-9-29.71-19.58-29.71-19.58l41.11-4.07C1529.66,821.86,1528.06,765.83,1528.06,765.83Z"/><path class="cls-10" d="M1420.24,996.6c-4.23-12.9-10.79-32-10.79-32l26.93,17.46a290.73,290.73,0,0,0,54-71.78c-14.08-9-29.71-19.58-29.71-19.58l41.11-4.07c27.91-64.79,26.31-120.82,26.31-120.82-171.51,93.76-350.61,314-350.61,314C1291.39,1073.8,1368.3,1040,1420.24,996.6Z"/><path class="cls-8" d="M2004.83,982.57h35.46a37.06,37.06,0,0,0-21-6.34H1130.85c-46.49,0-84.17,33.4-84.17,74.61v47.39c0,41.2,37.68,74.61,84.17,74.61l878.55-.27Z"/><path class="cls-6" d="M1121.21,1098.23v-47.39c0-41.21,37.68-74.61,84.17-74.61H1186.3c-46.49,0-84.17,33.4-84.17,74.61v47.39c0,41.2,37.68,74.61,84.17,74.61h18.83C1158.76,1172.71,1121.21,1139.36,1121.21,1098.23Z"/><path class="cls-6" d="M1329.29,1098.23v-47.39c0-41.21,37.69-74.61,84.17-74.61h-19.08c-46.48,0-84.17,33.4-84.17,74.61v47.39c0,41.2,37.69,74.61,84.17,74.61h18.83C1366.84,1172.71,1329.29,1139.36,1329.29,1098.23Z"/><path class="cls-7" d="M1500.41,976.4c-44.45,0-80.49,32-80.49,71.36v53.55c0,39.41,36,71.35,80.49,71.35h553.11v-12h-2.29l-140.61-11.8-28.42-98.83s54.85-54.62,58.43-56,110.6-5.68,110.6-5.68l2.29,0V976.4Z"/><path class="cls-5" d="M2017.65,1074.18c0-57.78,33.68-85.8,33.68-85.8H1511.74c-40.83,0-73.93,29.35-73.93,65.54v41.23c0,36.19,33.1,65.53,73.93,65.53h539.59S2017.65,1146.94,2017.65,1074.18Z"/><path class="cls-11" d="M1437.81,1053.92v41.23a58.87,58.87,0,0,0,2.15,15.71c18.2-39.47,53.08-77.48,119.48-89.71,155-28.54,491.89-32.77,491.89-32.77H1511.74C1470.91,988.38,1437.81,1017.73,1437.81,1053.92Z"/><path class="cls-12" d="M1990.2,1375.55h40.14a39.19,39.19,0,0,0-23.72-7.94H1001c-52.61,0-95.26,41.82-95.26,93.39v59.32c0,51.58,42.65,93.39,95.26,93.39l994.35-.33Z"/><path class="cls-4" d="M1419.3,1367.83c-50.31,0-91.1,40-91.1,89.31v67c0,49.32,40.79,89.31,91.1,89.31h626v-15h-2.59l-159.14-14.78L1851.41,1460s62.08-68.36,66.13-70.13,125.18-7.11,125.18-7.11l2.59,0v-14.92Z"/><path class="cls-5" d="M2004.71,1490.22c0-72.33,38.12-107.39,38.12-107.39H1432.12c-46.21,0-83.68,36.73-83.68,82v51.6c0,45.31,37.47,82,83.68,82h610.71S2004.71,1581.29,2004.71,1490.22Z"/><path class="cls-11" d="M1348.44,1464.86v51.6a80.86,80.86,0,0,0,2.44,19.68c20.6-49.41,60.08-97,135.23-112.3,175.45-35.72,556.72-41,556.72-41H1432.12C1385.91,1382.83,1348.44,1419.56,1348.44,1464.86Z"/><path class="cls-9" d="M872.62,1178.64H832.46a46.26,46.26,0,0,1,23.73-6.3h1006c52.63,0,95.3,33.18,95.3,74.1v47.07c0,40.93-42.67,74.1-95.3,74.1l-994.74-.26Z"/><path class="cls-10" d="M1443.74,1172.51c50.33,0,91.14,31.73,91.14,70.87v53.19c0,39.14-40.81,70.87-91.14,70.87H817.48v-11.9h2.59l159.21-11.73,32.18-98.16s-62.11-54.24-66.16-55.64-125.23-5.64-125.23-5.64l-2.59,0v-11.84Z"/><path class="cls-5" d="M858.1,1269.63c0-57.4-38.14-85.22-38.14-85.22h611c46.23,0,83.71,29.14,83.71,65.09v41c0,36-37.48,65.09-83.71,65.09H820S858.1,1341.89,858.1,1269.63Z"/><path class="cls-11" d="M1514.62,1249.5v41a51.36,51.36,0,0,1-2.44,15.61c-20.6-39.2-60.1-77-135.27-89.1C1201.38,1188.61,820,1184.41,820,1184.41h611C1477.14,1184.41,1514.62,1213.55,1514.62,1249.5Z"/><path class="cls-13" d="M1773.19,1293.51v-47.07c0-40.92-42.67-74.1-95.3-74.1h95.52c52.64,0,95.3,33.18,95.3,74.1v47.07c0,40.93-42.66,74.1-95.3,74.1l-94.26,0C1731.2,1367.06,1773.19,1334.11,1773.19,1293.51Z"/><path class="cls-6" d="M796.67,1621.25H753.38a48.54,48.54,0,0,1,25.58-7H1863.44c56.74,0,102.73,37.07,102.73,82.8v52.59c0,45.72-46,82.79-102.73,82.79l-1072.35-.29Z"/><path class="cls-2" d="M1412.35,1614.41c54.26,0,98.25,35.45,98.25,79.18V1753c0,43.73-44,79.18-98.25,79.18H737.24v-13.3H740l171.62-13.1,34.69-109.67s-67-60.61-71.32-62.17-135-6.31-135-6.31l-2.79,0v-13.22Z"/><path class="cls-5" d="M781,1722.91c0-64.12-41.12-95.21-41.12-95.21h658.62c49.84,0,90.24,32.56,90.24,72.73v45.75c0,40.16-40.4,72.72-90.24,72.72H739.9S781,1803.65,781,1722.91Z"/><path class="cls-11" d="M1488.76,1700.43v45.75a59.46,59.46,0,0,1-2.63,17.44c-22.21-43.8-64.78-86-145.83-99.55-189.21-31.67-600.4-36.37-600.4-36.37h658.62C1448.36,1627.7,1488.76,1660.26,1488.76,1700.43Z"/><rect class="cls-14" x="466.2" y="1830.89" width="1848.58" height="24.08" rx="9.79"/><polygon class="cls-2" points="454.99 1037.92 808.09 835.96 855.82 930.49 494.51 1121.64 454.99 1037.92"/><path class="cls-9" d="M1120.39,462.64s-2.78,27.46-24.45,29.36c21.67,1.9,24.45,29.36,24.45,29.36s2.79-27.46,24.46-29.36C1123.18,490.1,1120.39,462.64,1120.39,462.64Z"/><path class="cls-6" d="M746,251.67s-3.71,36.58-32.58,39.11c28.87,2.53,32.58,39.11,32.58,39.11s3.71-36.58,32.57-39.11C749.68,288.25,746,251.67,746,251.67Z"/><path class="cls-7" d="M594.74,578.84s-2.49,24.56-21.88,26.26c19.39,1.7,21.88,26.26,21.88,26.26s2.49-24.56,21.87-26.26C597.23,603.4,594.74,578.84,594.74,578.84Z"/><path class="cls-7" d="M2312.2,1164.88s-3.71,36.58-32.57,39.11c28.86,2.53,32.57,39.11,32.57,39.11s3.71-36.58,32.58-39.11C2315.91,1201.46,2312.2,1164.88,2312.2,1164.88Z"/><path class="cls-9" d="M265.38,842.81s-3.71,36.58-32.58,39.11c28.87,2.53,32.58,39.11,32.58,39.11s3.7-36.58,32.57-39.11C269.08,879.39,265.38,842.81,265.38,842.81Z"/><path class="cls-9" d="M2389.31,803.7s-3.71,36.58-32.58,39.11c28.87,2.53,32.58,39.11,32.58,39.11s3.71-36.58,32.57-39.11C2393,840.28,2389.31,803.7,2389.31,803.7Z"/><path class="cls-7" d="M1488.76,229.17s-3.71,36.58-32.57,39.11c28.86,2.53,32.57,39.11,32.57,39.11s3.71-36.58,32.58-39.11C1492.47,265.75,1488.76,229.17,1488.76,229.17Z"/><path class="cls-6" d="M2107.16,534.66s-2,23.09-17.7,24.69c15.69,1.6,17.7,24.7,17.7,24.7s2-23.1,17.71-24.7C2109.18,557.75,2107.16,534.66,2107.16,534.66Z"/><path class="cls-15" d="M840.51,1660.31l-48.75,2.47-6.17,144.61-24.93,12,1.2,5.27,9.27,2.19s30-.52,30.89-.52,7.07-6.82,7.07-6.82l-.93-1.19,5-3.38Z"/><path class="cls-15" d="M972.56,1819.4s-24.34-12.23-24.95-12l5.52-147.26-60.43.18L920.06,1815l3,2c-.75,2.57-1.34,4.79-1.48,5.49-.39,1.93,10.29,2.06,14,2.71s14.55,1.8,21.5,3.73,15.7-3.73,15.7-3.73Z"/><path class="cls-16" d="M974.19,1262.81c-7-18.3-13.88-11-26.59-33.18a49,49,0,0,1-4.49-12.26,61.92,61.92,0,0,0-19.41-32.45c-29.78-25.72-63.47-14.3-63.47-14.3s8.74,49.71,10.42,59.78c-7.45,10.13-14.95,20.47-14.95,20.47s-15.67,81.71,8.92,88.6,29.07-4.16,41.09-9.92,23.73,10,41.68-1c13.71-8.36,6.74-29.2,14-33.11S981.78,1282.56,974.19,1262.81Z"/><path class="cls-16" d="M847.48,1211.84c-.44-.19-11.71-6.55-22.27-12.51l65.57-73s-19.87-3.85-21.08-4-29.7,8.72-29.7,8.72l-29.38,8c-22.42,81.81-50.34,96.62-50.35,96.63a32,32,0,0,0-9.79,10.44c-11.12,18,.13,29.27,6.53,34.46s-4.3,24.37,7.62,35.13c15.6,14.08,30,.8,40.77,8.69s13.09,19.58,38.54,17.37,25.19-85.41,25.19-85.41S848.3,1212.21,847.48,1211.84Z"/><path class="cls-7" d="M958.79,1361s21.64,103.31,15.36,114.48-88.65,14.66-88.65,14.66L882,1357.49,913.42,1310Z"/><path class="cls-17" d="M932.67,1480.57l-15.39-42.17s-50.66-18.45-53.88-18.67-46.1,18.67-46.1,18.67-13.11,26.54-15.67,31.3c-1.42,2.64,1.85,18.88,5,32.84l-18.16.86L776.44,1770s26.16,14.09,54.33,2l23.15-232.89,20.12-3L904.22,1767s24.15,18.11,58.36,3l-22.67-256.93A127.73,127.73,0,0,0,932.67,1480.57Z"/><path class="cls-15" d="M834.15,1278.66s22.47-4.71,64.28-1.74-19.34,26.52-19.34,26.52-21.46-.69-22.38-.87S834.15,1278.66,834.15,1278.66Z"/><rect class="cls-15" x="850.2" y="1255.05" width="37.12" height="65.15"/><path class="cls-18" d="M887.26,1266.18V1244H850.2v18.9C858.18,1267.15,870,1269.62,887.26,1266.18Z"/><path class="cls-15" d="M939.26,1182.52a12.63,12.63,0,0,0-11.4.45,60.57,60.57,0,1,0-121.14,0,12.63,12.63,0,0,0-11.4-.45c-6.81,3.36-8.93,13-4.73,21.49s13.12,12.69,19.93,9.33a10.84,10.84,0,0,0,2.56-1.75c3.9,27.75,27,48.55,54.21,48.17,27.16.38,50.31-20.42,54.21-48.17a11,11,0,0,0,2.55,1.75c6.81,3.36,15.74-.81,19.94-9.33S946.07,1185.88,939.26,1182.52Z"/><path class="cls-19" d="M852,1194.89a5.1,5.1,0,1,1-5.37-4.81A5.09,5.09,0,0,1,852,1194.89Z"/><path class="cls-19" d="M895.87,1195.37a5.1,5.1,0,1,1-5.37-4.82A5.11,5.11,0,0,1,895.87,1195.37Z"/><path class="cls-16" d="M857.58,1184.46a47.87,47.87,0,0,0-7.4-2,25.24,25.24,0,0,0-7.13-.29,23.18,23.18,0,0,0-6.88,1.76l-.86.32c-.29.11-.55.28-.84.41l-1.7.82c-1.15.58-2.21,1.31-3.48,1.87a22.71,22.71,0,0,1,2.36-3.31,18.76,18.76,0,0,1,3.13-2.68,16.67,16.67,0,0,1,7.91-2.89,17.35,17.35,0,0,1,8.31,1.2A16.09,16.09,0,0,1,857.58,1184.46Z"/><path class="cls-16" d="M878.13,1184.38a16.1,16.1,0,0,1,6.54-4.85,17.32,17.32,0,0,1,8.3-1.26,16.71,16.71,0,0,1,7.93,2.83,18.33,18.33,0,0,1,3.15,2.66,22.69,22.69,0,0,1,2.38,3.29c-1.27-.55-2.34-1.27-3.49-1.84l-1.71-.81c-.29-.13-.55-.3-.84-.41l-.86-.31a23.28,23.28,0,0,0-6.9-1.71,25.21,25.21,0,0,0-7.12.35A47.69,47.69,0,0,0,878.13,1184.38Z"/><path class="cls-18" d="M869.81,1187.92a28.37,28.37,0,0,0,.44,8,21.9,21.9,0,0,0,1.12,4,10.48,10.48,0,0,0,2.38,3.74c1.36,1,2,1.36,2.34,2.31a3.64,3.64,0,0,1-.21,2.9c-1,2.05-3.14,3.6-5.53,4.73a9,9,0,0,0,7.26-3.75,5.47,5.47,0,0,0,.75-4.68,6.11,6.11,0,0,0-2.61-3.18,8.31,8.31,0,0,1-2.17-3,33.21,33.21,0,0,1-1.42-3.5C871.33,1193,870.6,1190.47,869.81,1187.92Z"/><path class="cls-18" d="M853.09,1219.89a35.41,35.41,0,0,0,4.39,2.6,35.91,35.91,0,0,0,4.64,2,30.48,30.48,0,0,0,9.83,1.79,25.8,25.8,0,0,0,9.76-1.92,36.31,36.31,0,0,0,8.63-5.28,31.33,31.33,0,0,1-3.83,3.44,29.16,29.16,0,0,1-4.43,2.68,23.28,23.28,0,0,1-10.13,2.26,26.88,26.88,0,0,1-10.15-2.12A29.92,29.92,0,0,1,853.09,1219.89Z"/><path class="cls-9" d="M940.94,1291.69c-20.11-19.52-47.92-15.38-47.92-15.38a44.17,44.17,0,0,1-9.3,7.21,38,38,0,0,1-16.1,4.34H867a38,38,0,0,1-16.1-4.34,44.17,44.17,0,0,1-9.3-7.21s-27.81-4.14-47.92,15.38-40.23,62.58-40.23,62.58,25.44,23.2,49.69,26.16c0,0,11.83,54.42,14.2,58a126.91,126.91,0,0,0,30,8.73,103.7,103.7,0,0,0,18.9,1.77h2.26a103.7,103.7,0,0,0,18.9-1.77,126.91,126.91,0,0,0,30-8.73c2.37-3.55,14.2-58,14.2-58,24.25-3,49.69-26.16,49.69-26.16S961.06,1311.21,940.94,1291.69Z"/><path class="cls-8" d="M869.46,1423.72s7.47-1.24,11.59,4.25l-.29,14.13-9.13,4.26s-11.31-9.63-10.46-9.88S869.46,1423.72,869.46,1423.72Z"/><polygon class="cls-8" points="892.71 1516.03 772.41 1550.84 760.75 1462.77 881.05 1427.97 892.71 1516.03"/><polygon class="cls-5" points="762.48 1536.67 773.04 1545.59 888.18 1512.59 877.83 1429.59 869.71 1426.18 762.48 1536.67"/><polygon class="cls-11" points="888.18 1512.59 879.97 1505.44 864.95 1488.94 865.86 1443.53 869.71 1426.18 877.87 1429.45 888.18 1512.59"/><polygon class="cls-7" points="879.97 1505.44 759.67 1540.24 749.16 1458.52 869.46 1423.72 879.97 1505.44"/><path class="cls-5" d="M820.94,1333.19a111.58,111.58,0,0,0-7.68,10.58,80.73,80.73,0,0,0-6.1,11.41,54.71,54.71,0,0,0-3.75,12.29,45.3,45.3,0,0,0-.31,13,32.14,32.14,0,0,1-1.28-13.17,43.93,43.93,0,0,1,3.44-12.89,58.57,58.57,0,0,1,6.68-11.5A53.69,53.69,0,0,1,820.94,1333.19Z"/><path class="cls-15" d="M796,1481.73c-21.18-35.86-11.38-79.49-3-103.61-16.62-5.36-32-17.46-37.47-22-33.82,76.33,23.44,141.65,23.44,141.65l.12-.1c1.09,2.46,1.88,4.65,1.88,4.65,13.5,24.41,14.09,24,15.06,23.67s-1.7-12-.51-11.92,9.72,14,10.34,12.7-5.67-15.18-4.75-15.41,8.94,13.38,10.71,12.2-7.53-15.79-5.75-16.15,10.93,14.85,12.36,13.52c1.21-1.11-8.6-18.38-11.75-23.85a1,1,0,0,1,1-1.53c12.53.73,13.54,0,13.31-1.34C820.74,1493.18,805.7,1486.17,796,1481.73Z"/><path class="cls-8" d="M937.68,1280.13c-26,93.44,5.38,121,5.51,121.73l-4.69,21.74s-63.94-41.57-23.42-152.34a5.58,5.58,0,0,1,7.55-3.35l12.13,5.62A5.55,5.55,0,0,1,937.68,1280.13Z"/><path class="cls-15" d="M994.36,1508.32s-.82-2.08-1.6-4.52v0h0l-1.23-9.06c-.76-20.54-4.17-93.37-15.38-136.23-8.54,6.77-26.68,19.58-44.28,21.89,11,23.07,34.13,76.24,38.14,124.58-4.07,9.21-9.56,22-9.09,22.72.71,1.14,1.86,1,10.28-7.4a1,1,0,0,1,1.64.48c1.2,5.86,5.1,24.27,6.65,24.3,1.86,0-1.22-16.49.27-17.36s4.09,15.34,6.08,15.07-.88-15-.08-15.39,5,13.38,6.32,13.92-1.48-14.73-.65-15.5,6.22,9.13,7.13,8.77S1000.12,1534.1,994.36,1508.32Z"/><path class="cls-16" d="M796,1182.16s-3.75-69.47,73.66-74.06c0,0-2.41,68.24-63,74.87l-4.67-9.07Z"/><path class="cls-16" d="M869.7,1108.1s62.8-3.52,66.12,73.37a16.82,16.82,0,0,0-8,1.5s-49.73-12.44-62.08-60.64Z"/><path class="cls-17" d="M781.8,1824.68c-12.62,1.27-18.57-1.48-21.14-5.28l-8.55,5.58a4,4,0,0,0,2.16,7.41h55.55a3.55,3.55,0,0,0,3.55-3.54v-15C809.8,1817.51,801.38,1822.72,781.8,1824.68Z"/><path class="cls-17" d="M951.42,1824.68c12.62,1.27,18.58-1.48,21.14-5.28l8.55,5.58a4,4,0,0,1-2.16,7.41H923.4a3.55,3.55,0,0,1-3.55-3.54v-15C923.43,1817.51,931.84,1822.72,951.42,1824.68Z"/><path class="cls-11" d="M2113.58,1327.37l64.19,5.15-20.72,51.93-32.4-2.6-13.49,43.28c-3.29-1.5-5.71-2.64-6.2-3-1-.66-4.56-22.14-7.71-42.42Z"/><path class="cls-8" d="M2150.21,1804.87v22.63a3.38,3.38,0,0,0,3.38,3.39h52.82a3.84,3.84,0,0,0,2.06-7.07l-29.64-19S2167.21,1813.4,2150.21,1804.87Z"/><path class="cls-15" d="M2046.51,845.73a1,1,0,0,1-1.41-1.18c1.32-6.28,5.36-26.08,3.84-26.78-1.81-.83-5.85,16.77-7.69,17s2.54-16.86.46-17.44-5.54,15.12-6.51,15.18.76-15.33-.26-16.4-4.85,15.14-6,15.54-2.23-11.66-3.27-11.69-1.74-.22-7.1,27.65c0,0-.31,10.21-2.12,12.6l4,8.21,12.46.41s27.08-24.5,26.86-26S2058.39,841.08,2046.51,845.73Z"/><path class="cls-15" d="M2174.79,851.9a1,1,0,0,0,1.79-.4c1.68-6.2,7.11-25.66,8.79-25.59,2,.08-2.44,17.59-.9,18.62s5.42-16.16,7.54-15.73-2,16-1.13,16.48,6.32-14,7.71-14.48-2.58,15.68-1.75,16.56,7.29-9.36,8.24-8.91,1.65.6-6.29,27.84c0,0-4.37,9.23-3.85,12.19l-7.32,5.47-11.28-5.31s-12.94-34.15-12.06-35.38S2166.33,842.34,2174.79,851.9Z"/><polygon class="cls-15" points="2075.74 1075.02 2075.94 1122.65 2029.66 1115.52 2037.38 1061.95 2075.74 1075.02"/><path class="cls-20" d="M2033.83,1086.61l3.55-24.65,38.4,17.57,0,9.41C2066.55,1091.2,2049.23,1093.22,2033.83,1086.61Z"/><path class="cls-8" d="M1992.13,1802.36v24.82a3.71,3.71,0,0,1-3.71,3.71H1930.3a4.2,4.2,0,0,1-2.25-7.75l32.6-20.78S1973.44,1811.7,1992.13,1802.36Z"/><path class="cls-17" d="M1939.06,1380.7c.11-5.31-13.71,10.34-13.44,6.1,5.42-88.13,177.61-14.23,177.61-14.23l42,30.84,47.45,408.44s-25.76,7.46-42.71,1.36l-105.07-350-12.93-5S1974.53,1418.14,1939.06,1380.7Z"/><path class="cls-10" d="M1925.42,1390.4c-.05,1-.1,2.08-.14,3.17C1925.32,1392.48,1925.37,1391.43,1925.42,1390.4Z"/><path class="cls-10" d="M1925.28,1393.62c0,1.1-.08,2.24-.12,3.4C1925.2,1395.86,1925.24,1394.72,1925.28,1393.62Z"/><path class="cls-10" d="M1925.15,1397.47c0,1.2-.07,2.42-.1,3.68C1925.08,1399.89,1925.11,1398.67,1925.15,1397.47Z"/><path class="cls-10" d="M1925.62,1386.8c-.06,1-.12,2-.17,3C1925.5,1388.75,1925.56,1387.75,1925.62,1386.8Z"/><path class="cls-17" d="M1925.64,1366.78c35.47,37.44,106.36,91.46,106.36,91.46l12.93,5-12.93-5-40,353.61s-28.47,5.43-44.74-3.39C1947.31,1808.46,1923.32,1471.86,1925.64,1366.78Z"/><path class="cls-10" d="M2192.71,1811.85a111.11,111.11,0,0,1-23.51,3.7,111.11,111.11,0,0,0,23.51-3.7Z"/><path class="cls-10" d="M2155,1814.58c1.15.24,2.31.43,3.49.58C2157.28,1815,2156.12,1814.82,2155,1814.58Z"/><path class="cls-10" d="M2169.2,1815.55a70.59,70.59,0,0,1-9-.2A70.59,70.59,0,0,0,2169.2,1815.55Z"/><path class="cls-21" d="M2145.26,1403.41l6.77,58.29c-17.92,6.94-61.6,14.35-94.51-57.64-10.38-22.71-13-39-11.14-50.78a468,468,0,0,1,56.85,19.29Z"/><path class="cls-5" d="M1987.27,1165.48c2,0,31.81-67.6,31.81-67.6,25.51,17.9,60.14,5.47,60.14,5.47s139.34,255,45.89,294.74-181.58-8.61-181.58-8.61-19.88-51.69-19.88-53.68S1985.28,1165.48,1987.27,1165.48Z"/><path class="cls-4" d="M2168.85,879.18s6,121-5.3,143.15c-37.61,73.56-84.33,81-84.33,81s-16.07,257.3-2.82,318.93c0,0,44.07,13.59,109-16.9,0,0-49.7-199.47-47.05-224.66,0,0,79.52-70.91,82.18-154.41s-19.22-157.73-19.22-157.73Z"/><path class="cls-4" d="M1954.46,1413s5-95.77,26.84-186.56,37.78-128.57,37.78-128.57c-29.33-32.31-24.45-61.51-21.87-99.41,3-43.74,45.73-131.22,45.73-131.22l-28.83-18.88c-138.18,166-61.63,298.22-61.63,298.22s-51.7,182.91-58.65,238.58A420.75,420.75,0,0,0,1954.46,1413Z"/><path class="cls-22" d="M2137,1180.45a30.8,30.8,0,0,1-5.56-5.28c-5.86-7.08-8.9-15-11-23.94,1.28,3.8,4.67,14.84,11.83,23.23a28.24,28.24,0,0,0,6.46,5.91l-.39.35c0,.17,0,.34,0,.53-1.84.38-5.07.49-10.51-2.47a47.93,47.93,0,0,1-8.84-6.34,63.55,63.55,0,0,0,9.17,5.7C2130.63,1179.36,2134.26,1180.64,2137,1180.45Z"/><path class="cls-22" d="M1953.53,1146a30.4,30.4,0,0,0,6.31-5.81c5.87-6.88,9.08-15,11.83-23.23-2.09,8.85-5.11,16.83-11,23.93a30.88,30.88,0,0,1-5.56,5.28,12.57,12.57,0,0,0,3.89-.45,25.19,25.19,0,0,0,5-1.85,63.07,63.07,0,0,0,9.17-5.71,48.43,48.43,0,0,1-8.84,6.34,25.5,25.5,0,0,1-5.08,2.13,10.67,10.67,0,0,1-5.66.29l-1.06-.29Z"/><polygon class="cls-17" points="2009.36 977.81 2006.56 1010.51 2011.73 1013.76 2021.28 973.95 2009.36 977.81"/><path class="cls-18" d="M2016.31,1007.13c1.42,7.4-2.23,14.33-8.16,15.47s-11.87-4-13.29-11.36,2.23-14.32,8.15-15.46S2014.89,999.72,2016.31,1007.13Z"/><path class="cls-15" d="M2007.83,1037.35a108.21,108.21,0,0,1-.46-27.46c.18-1.78.26-3.57.3-5.37a58.33,58.33,0,1,1,115.51,12.84,12.59,12.59,0,0,1,11.3,1.36c6.19,4.39,6.75,14.21,1.26,21.94s-14.95,10.43-21.13,6a11.34,11.34,0,0,1-2.23-2.14c-8.46,27.44-35.73,44.46-63.16,38.49C2028.4,1078.53,2011.22,1061.26,2007.83,1037.35Z"/><path class="cls-19" d="M2071.09,1011.21a5.09,5.09,0,1,0,4.63-3.18A5.09,5.09,0,0,0,2071.09,1011.21Z"/><path class="cls-19" d="M2027.75,1004.72a5.09,5.09,0,1,0,4.64-3.18A5.1,5.1,0,0,0,2027.75,1004.72Z"/><path class="cls-18" d="M2064.34,1046.82a33.55,33.55,0,0,1-8.18,2.81,26,26,0,0,1-8.52.32,21.94,21.94,0,0,1-8-2.79,30.92,30.92,0,0,1-6.66-5.51,23.52,23.52,0,0,0,6.25,6.17,20.14,20.14,0,0,0,8.28,3.14,23,23,0,0,0,8.83-.58A25.12,25.12,0,0,0,2064.34,1046.82Z"/><path class="cls-17" d="M2067,1000.87a48.21,48.21,0,0,1,7.61-.81,24.76,24.76,0,0,1,7.08.84,23.32,23.32,0,0,1,6.5,2.82,72.5,72.5,0,0,1,6.24,4.48,16.93,16.93,0,0,0-4.47-6.78,16.63,16.63,0,0,0-7.33-4.09,17.24,17.24,0,0,0-8.38-.14A16.15,16.15,0,0,0,2067,1000.87Z"/><path class="cls-17" d="M2046.73,997.54a16,16,0,0,0-5.68-5.81,17.27,17.27,0,0,0-8-2.55,16.6,16.6,0,0,0-8.25,1.52,17,17,0,0,0-6.4,5c1.82-.48,4.1-1.62,7.33-2.24a23.3,23.3,0,0,1,7.07-.59,24.87,24.87,0,0,1,7,1.47A46.68,46.68,0,0,1,2046.73,997.54Z"/><path class="cls-18" d="M2055.56,1004a73.92,73.92,0,0,0-6.64,7.19,69.11,69.11,0,0,0-5.71,8,19,19,0,0,0-2.5,5.89c-.17,1.07-.08,2.11,1.7,3.87a23.5,23.5,0,0,0,3.84,3.18,31.82,31.82,0,0,0,4.27,2.45,54.08,54.08,0,0,1-6.93-6.65,9.69,9.69,0,0,1-1.12-1.75,3.8,3.8,0,0,1,.35-1.81,26.25,26.25,0,0,1,2.11-4.16c1.62-2.75,3.44-5.41,5.24-8.1S2053.8,1006.72,2055.56,1004Z"/><path class="cls-17" d="M2015.45,942.91s-17.18-3.31,4-13.68,73-16.4,100.12,6.82c0,0,9.12-11.7,17.31-6.56s-8.53,10.82-8.53,10.82,11.45,2.21,13.65,8.57c1.64,4.7-5.36,3.31-9.13,2.26,6.22,2.56,24.52,19.84.76,67-4.21-2-31.4-40.76-31.4-40.76s-54.66,18-44.69,3.07c0,0-63.71,16-48.27-12.86C2009.24,967.63,1985.76,964.1,2015.45,942.91Z"/><path class="cls-17" d="M2133.6,1018.18s-4.12-3.16-10.42-.82-10.31,16.47-10.31,16.47-20.63,16.89-10.57-56.73c9.89-72.33,23.57,12,23.57,12Z"/><path class="cls-8" d="M1992.32,789.57l-8.93-.88a9.47,9.47,0,0,1,5.43-1.08l223.51,22c11.7,1.15,20.35,10.49,19.33,20.85l-1.17,11.93c-1,10.36-11.33,17.83-23,16.68l-221-21.8Z"/><path class="cls-6" d="M2211.74,840.52l1.17-11.92c1-10.37-7.63-19.7-19.33-20.85l4.8.47c11.7,1.15,20.35,10.49,19.33,20.85L2216.54,841c-1,10.37-11.33,17.84-23,16.69l-4.74-.47C2200.45,858.33,2210.72,850.87,2211.74,840.52Z"/><path class="cls-6" d="M2159.39,835.38l1.18-11.93c1-10.36-7.64-19.7-19.33-20.85l4.8.47c11.69,1.15,20.34,10.49,19.33,20.85l-1.18,11.93c-1,10.36-11.32,17.83-23,16.68l-4.73-.46C2148.11,853.18,2158.38,845.72,2159.39,835.38Z"/><path class="cls-7" d="M2119.36,800.5c11.18,1.09,19.46,10,18.48,19.94l-1.32,13.47c-1,9.91-10.83,17.06-22,16l-139.13-13.69.29-3,.58.06,35.66.51,9.6-24.16s-12.45-15.1-13.32-15.54-27.68-4.17-27.68-4.17l-.58-.06.3-3Z"/><path class="cls-5" d="M1986.83,812.3c1.42-14.54-6.36-22.42-6.36-22.42l135.74,13.35c10.28,1,17.88,9.21,17,18.31l-1,10.38c-.89,9.1-10,15.66-20.22,14.65l-135.74-13.35S1985,830.6,1986.83,812.3Z"/><path class="cls-11" d="M2133.19,821.54l-1,10.38a14.62,14.62,0,0,1-.93,3.9c-3.6-10.38-11.44-20.81-27.84-25.53-38.29-11-122.93-20.41-122.93-20.41l135.74,13.35C2126.49,804.24,2134.09,812.44,2133.19,821.54Z"/><path class="cls-4" d="M1721.25,1132.77l-9.21,20.56a3.37,3.37,0,0,0,1.69,4.45l48.15,21.58a3.82,3.82,0,0,0,4.75-5.58l-18.63-29S1733.27,1147.45,1721.25,1132.77Z"/><path class="cls-4" d="M1660.09,1132.77l-9.22,20.56a3.37,3.37,0,0,0,1.7,4.45l48.14,21.58a3.81,3.81,0,0,0,4.75-5.58l-18.63-29S1672.1,1147.45,1660.09,1132.77Z"/><path class="cls-17" d="M1556.1,565.93,1551,598l-10.81-42.81s15.16-7.36,15.82-4.68S1556.1,565.93,1556.1,565.93Z"/><polygon class="cls-15" points="1470.06 635.03 1465.38 690.54 1514.36 688.2 1508.71 639.05 1470.06 635.03"/><path class="cls-18" d="M1511.4,662.42l-2.69-23.37-38.65-4-1.62,19.23C1476.12,661.91,1489.94,669.85,1511.4,662.42Z"/><path class="cls-18" d="M1541.43,597.63c-2.94,6.09-1.38,12.94,3.49,15.3s11.21-.67,14.16-6.76,1.38-12.94-3.49-15.3S1544.38,591.54,1541.43,597.63Z"/><path class="cls-15" d="M1548.54,602.09c.26-1.58.6-3.15,1-4.72a52.34,52.34,0,1,0-103.11-15.6,11.33,11.33,0,0,0-10.11-1.44c-6.38,2.38-9.14,10.76-6.17,18.73s10.55,12.5,16.92,10.13a10,10,0,0,0,2.43-1.33c1,25.73,20.69,46.8,45.85,48A46.94,46.94,0,0,0,1528,644.62C1540,635.74,1546.15,616.89,1548.54,602.09Z"/><path class="cls-18" d="M1510.39,585.31c.1,3,.12,5.93.27,8.8s.5,5.8,1.62,7.77c1.15,1.6,2,2.62,2.08,4.59a6.2,6.2,0,0,1-2.29,4.84,10.1,10.1,0,0,1-9,1.76c2.92-.52,5.73-1.53,7.36-3.44a3.93,3.93,0,0,0,1.08-3c-.12-1.1-.46-1.33-1.79-3.17a11.46,11.46,0,0,1-1.41-4.78,23.75,23.75,0,0,1,0-4.62A31.27,31.27,0,0,1,1510.39,585.31Z"/><path class="cls-19" d="M1493,588.54a4.57,4.57,0,1,1-3.61-3.95A4.58,4.58,0,0,1,1493,588.54Z"/><path class="cls-19" d="M1532.07,593a4.57,4.57,0,1,1-3.6-4A4.56,4.56,0,0,1,1532.07,593Z"/><path class="cls-18" d="M1485.36,620.21a38.65,38.65,0,0,0,7.85,5.22,28.19,28.19,0,0,0,8.86,2.72,24.22,24.22,0,0,0,9.2-.67,34.59,34.59,0,0,0,8.57-3.89,25.42,25.42,0,0,1-8.3,4.77,21.87,21.87,0,0,1-9.62,1,24.9,24.9,0,0,1-9.14-3.1A27.27,27.27,0,0,1,1485.36,620.21Z"/><path class="cls-17" d="M1498.76,579a46,46,0,0,0-6.68-1.6,23,23,0,0,0-6.35-.14,21.36,21.36,0,0,0-6.1,1.61c-1.52.48-5.21,2.65-6.17,3.07a15.39,15.39,0,0,1,11.87-8.26,15.43,15.43,0,0,1,7.51,1A14,14,0,0,1,1498.76,579Z"/><path class="cls-17" d="M1518.88,581.23a14.08,14.08,0,0,1,6.65-3.09,15.43,15.43,0,0,1,7.56.48,14.7,14.7,0,0,1,6.42,4,14.86,14.86,0,0,1,3.62,6.36c-.87-.6-4.06-3.45-5.46-4.2A21.47,21.47,0,0,0,1532,582a23.39,23.39,0,0,0-6.25-1.09A46.39,46.39,0,0,0,1518.88,581.23Z"/><path class="cls-23" d="M1497,895.4s-10.21,69.29,56.74,81.36S1704,985.23,1704,985.23l11.59,159.17,35,1.78s90-221.15-34.57-255.72L1604,891l-46.1-3.29s-46.64-11.52-47.19-9.33S1498.13,896.5,1497,895.4Z"/><path class="cls-24" d="M1435.51,895.77s-10.22,69.29,56.73,81.36,150.25,8.47,150.25,8.47l11.59,159.16,35,1.79s90-221.15-34.57-255.72l-112,.55-46.09-3.29s-46.65-11.53-47.19-9.33S1436.6,896.87,1435.51,895.77Z"/><path class="cls-7" d="M1519.83,668.4s46.1,5.86,57.8,15.37,68,149.26,68,149.26l-46.83,54.87-99.51.73s-74.63,40.25-121.45,2.2-22.68-170.48,4.39-199,75.36-27.8,75.36-27.8S1501.54,694.74,1519.83,668.4Z"/><path class="cls-22" d="M1430.57,737.91a191.48,191.48,0,0,1,3.37,23.11c.4,3.87.57,7.77.8,11.66s.2,7.8.15,11.7a153.65,153.65,0,0,1-1.92,23.35c-1.31,7.7-3.21,15.42-6.79,22.37a114.93,114.93,0,0,0,4.46-22.68c.85-7.65,1.14-15.37,1.24-23.08s0-15.44-.27-23.18S1431,745.68,1430.57,737.91Z"/><path class="cls-22" d="M1568.49,732.79c2.1,11.33,4.33,22.63,6.6,33.9s4.71,22.51,7.44,33.66,5.69,22.24,9.31,33.11a159.77,159.77,0,0,0,6.22,16,61.61,61.61,0,0,0,8.84,14.67c-4.24-4-7.35-9-10.16-14a130.82,130.82,0,0,1-7.11-15.86c-2.07-5.41-3.85-10.92-5.53-16.45s-3.11-11.14-4.5-16.74-2.59-11.26-3.72-16.92-2.18-11.33-3.09-17C1570.91,755.73,1569.44,744.28,1568.49,732.79Z"/><path class="cls-25" d="M1668.3,758.07c-8.52-13.25-78.27-35.75-78.27-35.75v22.43l71,24.82Z"/><polygon class="cls-22" points="1663.28 757.17 1582.28 719.82 1582.28 734.32 1661.28 762.82 1663.28 757.17"/><polygon class="cls-25" points="1658.78 757.17 1573.28 724.82 1573.28 749.82 1657.92 762.82 1658.78 757.17"/><path class="cls-22" d="M1668.3,754.62s16.48-38.55,23.23-46.55c0,25.36-10.25,57.25-10.25,57.25Z"/><polygon class="cls-25" points="1675.49 756.32 1695.48 705.82 1695.48 729.88 1681.75 762.82 1675.49 756.32"/><polygon class="cls-22" points="1681.75 757.17 1703.53 708.07 1703.53 725.57 1681.75 757.17"/><polygon class="cls-26" points="1681.75 908.46 1709.21 861.16 1709.21 709.87 1681.75 757.17 1681.75 908.46"/><polygon class="cls-4" points="1555.23 885.61 1652.46 908.46 1652.46 757.17 1555.23 734.32 1555.23 885.61"/><path class="cls-27" d="M1652.46,757.17c8.57-4.1,26.51-2.65,29.29,0C1680.28,765.82,1654.64,767.52,1652.46,757.17Z"/><path class="cls-28" d="M1652.46,908.46c0,3.7,29.42,3.7,29.42,0V757.17c-3,4.4-26.1,4.28-29.42,0Z"/><path class="cls-15" d="M1591.65,856.28c-.29-2.32-17.88-4.91-24.34-5.24-4.9-.25-37.36-1.34-48.41-1.84l.81,2.84-.16,12.54-1.81,8.31c9.68.61,33.37,1.54,38.3,2.52,6.59,1.3,18,6.27,18,6.27s4.75-1.08-1.29-3.69a28.87,28.87,0,0,1-9.69-7c-.83-.92.07-2.57.67-2.41,16.45,4.31,18.14,5,18.14,5s19.32-.11.11-4.45c-11.52-2.61-15.65-4.12-16.67-5.41-.44-.55.34-2.43,1-2.47,10-.61,27.89,2.92,23,.6-4-1.89-16.6-4-21.5-4.74-.3,0-.78-1.88.55-2C1577.9,854.4,1591.92,858.43,1591.65,856.28Z"/><path class="cls-22" d="M1419.32,828.18c4,1,8,2.12,12.1,3s8.13,1.66,12.18,2.51q12.24,2.24,24.55,3.94c8.21,1.08,16.44,2.07,24.69,2.86s16.57,1.52,24.71,2l1.09.06.24,1a68.47,68.47,0,0,1,2,16.5,55,55,0,0,1-.72,8.29,38.61,38.61,0,0,1-2.41,8l-.1.23-.17.11-9,6.07c-3,2-6,4-9.09,6q4.26-3.4,8.57-6.71l8.62-6.65-.28.34a36.34,36.34,0,0,0,1.9-7.69,52.93,52.93,0,0,0,.38-8,73.5,73.5,0,0,0-.72-8,65.93,65.93,0,0,0-1.6-7.79l1.34,1c-4.3-.12-8.37-.39-12.56-.7s-8.3-.63-12.45-1.07c-8.29-.86-16.56-1.89-24.79-3.2s-16.41-2.94-24.52-4.85c-4-1-8.08-2-12.06-3.29S1423.23,829.57,1419.32,828.18Z"/><path class="cls-17" d="M1557.08,535.55s15.37.5-.75-12.5-59.43-28.23-87.18-13.57c0,0-5.55-11.8-13.57-9s5.22,10.94,5.22,10.94-10.25-.33-13.38,4.69c-2.31,3.72,4,3.88,7.4,3.71-5.84,1-28.19,15.12-17,60.2,4-.88,26.71-33.84,26.71-33.84s52,28.88,46.84,5.92c0,0,53.85,33.6,46.21,5.84C1557.61,558,1578.43,559.48,1557.08,535.55Z"/><path class="cls-17" d="M1437.8,580.3s4.31-1.51,8.94,2.16,4.11,16.58,4.11,16.58,22.1,14.25,19.77-46c-2.48-64.14-18.43,5.14-18.43,5.14Z"/><path class="cls-17" d="M1198,1782.71l9.21,20.56a3.38,3.38,0,0,1-1.69,4.46l-48.15,21.58a3.82,3.82,0,0,1-4.75-5.58l18.63-29S1186,1797.4,1198,1782.71Z"/><path class="cls-17" d="M1260.37,1780.27l9.22,20.56a3.37,3.37,0,0,1-1.7,4.45l-48.14,21.58a3.82,3.82,0,0,1-4.75-5.58l18.63-29S1248.36,1795,1260.37,1780.27Z"/><path class="cls-16" d="M1316.64,1114.48s-52.47-8.85-70.07,49.77l21.73,32.52s45.57-17.5,45.75-19.22S1316.64,1114.48,1316.64,1114.48Z"/><path class="cls-16" d="M1401.09,1140.89s15.3,23,23.11,32.14c19.63,23,22.16,15.75,34.37,35.5,13.17,21.31-.16,34.65-7.73,40.79s5.1,28.87-9,41.6c-18.48,16.67-35.57.95-48.28,10.29s-15.49,23.19-45.62,20.57-29.84-101.13-29.84-101.13,24.66-52.24,25.64-52.67S1401.09,1140.89,1401.09,1140.89Z"/><path class="cls-16" d="M1246.57,1164.25s-1.8,18.08-7.78,28.49c-15,26.2-23.14,17.62-31.47,39.28-9,23.39,6.57,34,15.16,38.66s.34,29.31,16.57,39.21c21.25,12.95,35.13-5.67,49.35,1.15s19.53,19.91,48.65,11.76,10.57-104.92,10.57-104.92-33.92-46.75-35-47S1246.57,1164.25,1246.57,1164.25Z"/><path class="cls-15" d="M1322.7,1280.92s50.28-9.25,73.41-8.47-14,60.91-14,60.91l-37.76.83s-23.16-25.85-21.63-28.86-.08-22.74-.08-22.74Z"/><path class="cls-15" d="M1367.54,1232.93l13.26,40.26s-11.55,23.88-46.91,13.58c0,0,4-8.34-1.38-25.51C1327,1243.71,1367.54,1232.93,1367.54,1232.93Z"/><path class="cls-20" d="M1367.54,1232.93l6.22,18.81c-3.71,13.74-15.74,23.1-38.44,26a54.45,54.45,0,0,0-2.81-16.49C1327,1243.71,1367.54,1232.93,1367.54,1232.93Z"/><path class="cls-18" d="M1286.63,1203.46c2.87,6.53.95,13.69-4.28,16s-11.79-1.14-14.67-7.68-1-13.7,4.28-16S1283.75,1196.92,1286.63,1203.46Z"/><path class="cls-15" d="M1285.16,1233.14a102.07,102.07,0,0,1-6.2-25.25c-.21-1.69-.52-3.36-.86-5a55.24,55.24,0,1,1,109.35-12.46,11.91,11.91,0,0,1,10.72-1.13c6.63,2.75,9.22,11.7,5.78,20s-11.61,12.78-18.24,10a10.54,10.54,0,0,1-2.51-1.49c-2,27.1-23.63,48.56-50.21,48.83C1313.05,1266.83,1293.4,1254.73,1285.16,1233.14Z"/><path class="cls-18" d="M1319.84,1191.66a33.87,33.87,0,0,1,1.77,9.31,25.64,25.64,0,0,1-.17,4.86,12.37,12.37,0,0,1-1.67,5c-1.21,1.55-1.84,2.06-2,3.3a4.27,4.27,0,0,0,1.06,3.27c1.67,2.08,4.61,3.23,7.68,3.86a10.68,10.68,0,0,1-9.38-2.25,6.39,6.39,0,0,1-2.19-5.14c.15-2.14,1.11-3.1,2.35-4.72a11.41,11.41,0,0,0,1.37-3.77,36.57,36.57,0,0,0,.63-4.41C1319.54,1197.9,1319.65,1194.82,1319.84,1191.66Z"/><path class="cls-19" d="M1338.05,1195.76a4.82,4.82,0,1,0,4-4A4.83,4.83,0,0,0,1338.05,1195.76Z"/><path class="cls-19" d="M1296.68,1198.89a4.82,4.82,0,1,0,4-4A4.82,4.82,0,0,0,1296.68,1198.89Z"/><path class="cls-29" d="M1338.85,1233.18a16.23,16.23,0,0,0-13.39,1.78s-7-4.39-12.54-.2c0,0,2.57,10.45,14.09,9.74S1338.85,1233.18,1338.85,1233.18Z"/><path class="cls-18" d="M1344.88,1229.43a40,40,0,0,1-8.47,5.21,30.17,30.17,0,0,1-9.46,2.53,25.64,25.64,0,0,1-9.68-1.07,36,36,0,0,1-8.88-4.44,31.6,31.6,0,0,0,4,3.08A29.31,29.31,0,0,0,1317,1237a24.17,24.17,0,0,0,5,1.27,25.24,25.24,0,0,0,5.14.14,26.41,26.41,0,0,0,9.77-2.92A28.63,28.63,0,0,0,1344.88,1229.43Z"/><path class="cls-16" d="M1332.35,1185.41a50.58,50.58,0,0,1,7.11-1.43,24.58,24.58,0,0,1,6.7.1,22.6,22.6,0,0,1,6.37,1.94c1.58.56,5.4,3,6.39,3.48a16.18,16.18,0,0,0-12.2-9.17,16.24,16.24,0,0,0-8,.76A14.88,14.88,0,0,0,1332.35,1185.41Z"/><path class="cls-16" d="M1311,1187a14.91,14.91,0,0,0-6.89-3.51,16.4,16.4,0,0,0-8,.21,16.17,16.17,0,0,0-11,10.59c.93-.6,4.42-3.48,5.91-4.22a22.46,22.46,0,0,1,6.09-2.71,24.2,24.2,0,0,1,6.64-.91A49.89,49.89,0,0,1,1311,1187Z"/><path class="cls-15" d="M1410.17,1526.9s14.83,69.79-52.46,86.36-152.22,18.26-152.22,18.26l-1.57,162.56-35.42,4.06s-105.69-219.06,18.74-262.21l113.85-6.63,46.65-6.3s46.69-14.71,47.39-12.52S1409.12,1528.09,1410.17,1526.9Z"/><path class="cls-15" d="M1472.74,1523.32s14.83,69.8-52.46,86.37-152.21,18.25-152.21,18.25l-1.57,162.57-35.42,4s-105.69-219.06,18.74-262.21l113.85-6.62,46.65-6.31s46.68-14.71,47.38-12.51S1471.7,1524.51,1472.74,1523.32Z"/><path class="cls-6" d="M1230.8,1515.09c-56.74.87-108.49,33.45-126.9,96.73s-60.41,128.54-56.41,127.91c89,49.82,117-.22,178.49,14.57s83.31,8.1,83.31,8.1c-17.8-89.31-41.22-134.46-41.22-134.46,5.17.93,156.13,3.15,193.42-38.18,10.46-11.59,18.47-26.17,16.87-61.8C1475.38,1461.65,1247.26,1514.84,1230.8,1515.09Z"/><path class="cls-5" d="M1247.72,1632.6c1.94-.35,3.88-.68,5.79-1.13s3.81-1,5.68-1.52c.94-.3,1.88-.61,2.81-1a22.9,22.9,0,0,1-8-3.48,27.24,27.24,0,0,1-7.76-8.44l1.93,2.09c.69.65,1.33,1.34,2.05,1.94a29.33,29.33,0,0,0,4.48,3.32,27.28,27.28,0,0,0,5,2.34,19.22,19.22,0,0,0,5.29,1.07l3.15.11-2.79,1.3a37.05,37.05,0,0,1-5.72,2,59.18,59.18,0,0,1-5.85,1.26c-2,.31-3.94.59-5.92.74s-4,.24-6,.23C1243.82,1633.2,1245.78,1633,1247.72,1632.6Z"/><path class="cls-15" d="M1265.55,1378.89s-4.59,114-17.41,131.89l70.53-16v-124.1Z"/><path class="cls-6" d="M1294,1394.46s11.37,28.7,13.15,44c4.44,37.86-.38,64.56-8.21,86.11-11,30.23,74.07,18.73,76.11,18.77,89.89,2.14,89.05-1.53,89.05-1.53l14.35-11.52c-2-36.93-7.11-68.86-6.31-101.8l.82-34-4.12-34.34-127.24-10Z"/><path class="cls-25" d="M1250.49,1419.82c7.77-12.09,71.4-32.62,71.4-32.62v20.46l-64.77,22.65Z"/><path class="cls-25" d="M1250.49,1419.82c7.77-12.09,71.4-32.62,71.4-32.62v20.46l-64.77,22.65Z"/><polygon class="cls-22" points="1255.06 1418.99 1328.97 1384.92 1328.97 1398.15 1256.89 1424.15 1255.06 1418.99"/><polygon class="cls-25" points="1259.17 1418.99 1337.18 1389.48 1337.18 1412.29 1259.96 1424.15 1259.17 1418.99"/><path class="cls-22" d="M1250.49,1416.67s-15-35.17-21.2-42.47c0,23.13,9.35,52.23,9.35,52.23Z"/><polygon class="cls-25" points="1243.92 1418.22 1225.69 1372.14 1225.69 1394.1 1238.21 1424.15 1243.92 1418.22"/><polygon class="cls-22" points="1238.21 1418.99 1218.34 1374.2 1218.34 1390.16 1238.21 1418.99"/><polygon class="cls-30" points="1238.21 1557.03 1219.98 1515.06 1219.98 1377.03 1238.21 1418.99 1238.21 1557.03"/><polygon class="cls-7" points="1353.65 1536.18 1264.93 1557.03 1264.93 1418.99 1353.65 1398.14 1353.65 1536.18"/><path class="cls-27" d="M1264.93,1419c-7.81-3.74-24.18-2.41-26.72,0C1239.55,1426.89,1262.94,1428.44,1264.93,1419Z"/><path class="cls-31" d="M1264.93,1557c0,3.38-26.84,3.38-26.84,0V1419c2.72,4,23.82,3.91,26.84,0Z"/><path class="cls-15" d="M1499.64,1365.12l-60.38,28s-4.7,77.26-7.62,80.67c-5.28,6.19-58.82,23.91-87,29.1a26.38,26.38,0,0,1-13.56-1.07c-14-4.94-38.74-13.83-42.65-15.15-6.13-2.08-23.43-6.17-24.56-4.12s13.47,3.33,22,7.57c1.2.6.07,2.12-.22,2.05-4.85-1.08-17.32-3.81-21.74-3.52-5.41.34,12.54,3.67,21.58,7.92.64.3.67,2.33.06,2.68-1.43.82-5.82.71-17.49-1.13-19.46-3-1.54,4.18-1.54,4.18s1.84,0,18.71,2c.62.07.84,1.94-.27,2.49a28.76,28.76,0,0,1-11.57,2.88c-6.57.19-2.56,2.95-2.56,2.95s12.46-.4,19.06.82c4.94.92,27.3,8.8,36.53,11.8l1.14-1.41c12.79,3,130.76,11.6,145.09-23.4C1499,1436.08,1499.64,1365.12,1499.64,1365.12Z"/><path class="cls-6" d="M1322.7,1280.92s34.18,39.9,73.41-8.47c0,0,42.85-3.49,74.45,18.94s50.52,72.85,50.52,72.85-45.35,30.22-81.91,30.22l-85.73-30.7-59.4,30.7s-27.58-1.83-50.93-13.74C1243.11,1380.72,1247.13,1300.61,1322.7,1280.92Z"/><path class="cls-17" d="M1428.75,1349c1.47,5,2.8,9.94,4.12,14.93,2.46,9.81,4.73,19.14,6.39,29.17a52.18,52.18,0,0,0,9.65-.75c16.5-2.93,27.34-7.55,42-13.57,22-10,19-9.06,30.13-14.53a290.2,290.2,0,0,1-29.22,16.52c-12.87,6-25.17,11.49-42.49,14.54-7.57,1-9.75.8-12.62.48-1.12-7.36-2.4-14.89-5.92-31.38l-3.27-15.11-3.36-15.1C1425.83,1339.09,1427.28,1344,1428.75,1349Z"/><path class="cls-17" d="M1292.87,1358.27a84.52,84.52,0,0,0-1.45,18.31c.11,3,2.29,11.25,4.82,19.65l-1.41.53c-2.92-8.45-5.43-16.91-5.76-20a66.32,66.32,0,0,1,.83-19,99.46,99.46,0,0,1,5.17-18.22,95.51,95.51,0,0,1,8.31-16.92q-3.37,8.79-6.1,17.68A155.19,155.19,0,0,0,1292.87,1358.27Z"/><path class="cls-16" d="M1387.45,1190.41s-58.72-14.17-86.77-54.06c0,0-.48-36.33,53.42-28.09C1406.47,1116.27,1418.73,1167.23,1387.45,1190.41Z"/></g></g></svg>