<svg id="Layer_1" data-name="Layer 1" xmlns="http://www.w3.org/2000/svg" viewBox="0 0 1000 1000"><title>Jaldee_features logos</title><text transform="translate(275.18 674.09)" style="font-size:180.11000061035156px;fill:#58595b;font-family:Roboto-Medium, Roboto;font-weight:500;letter-spacing:-0.040001053907807976em">Find</text><path d="M341.77,453.14q0,14.31-6.23,24.59a41.14,41.14,0,0,1-17,15.7,51.76,51.76,0,0,1-23.67,5.41,58.31,58.31,0,0,1-13.09-1.41A38.75,38.75,0,0,1,270.61,493a50.31,50.31,0,0,1-9.9-7.87l14.2-14a36.79,36.79,0,0,0,8.7,6.43q4.15,2.07,11.3,2.08a27.4,27.4,0,0,0,13.67-3.24,21.07,21.07,0,0,0,8.79-9.56,35,35,0,0,0,3.05-15.3V364.8h21.35Z" style="fill:#1e4079"/><path d="M431.54,498.84H411.73V488.6a34,34,0,0,1-11.5,7.87q-6,2.37-15.16,2.37a49,49,0,0,1-15.75-2.27,28.53,28.53,0,0,1-11.21-6.81q-7.92-8.2-7.92-21.54a28.51,28.51,0,0,1,4-15.12A26.23,26.23,0,0,1,365.89,443q7.77-3.61,18.89-3.62h26.56v-7.12q0-9.63-5.21-14.15t-16.72-4.53q-8.4,0-13.09,2.12a24.57,24.57,0,0,0-8.93,7.51l-13.24-12.44a37.81,37.81,0,0,1,15.07-11.37q8.22-3.21,21-3.21,41.34,0,41.35,34.49Zm-20.2-37.39v-8.11H387.77q-8.79,0-13.38,3.76t-4.59,10.73q0,14.21,18.36,14.2A44.6,44.6,0,0,0,399,480.92a18.13,18.13,0,0,0,8-4.59Q411.35,472,411.34,461.45Z" style="fill:#1e4079"/><path d="M475.92,498.84h-6.16q-13.62,0-20.53-7.87t-6.91-19.86V364.8h20.19V470c0,4,.81,6.94,2.42,8.84s4.41,2.85,8.4,2.85h2.59Z" style="fill:#1e4079"/><path d="M565.67,498.84H545.86V487a32.79,32.79,0,0,1-7.73,7.15,28.4,28.4,0,0,1-8.5,3.62,43.7,43.7,0,0,1-10.34,1.11,39,39,0,0,1-13.86-2.41,28.17,28.17,0,0,1-17.87-18,60.23,60.23,0,0,1-3.24-14.16,183.33,183.33,0,0,1,0-33.57,59.53,59.53,0,0,1,3.24-14.06,30.93,30.93,0,0,1,7.2-11.49,29,29,0,0,1,10.62-6.62,42.55,42.55,0,0,1,28.46.16,29.88,29.88,0,0,1,11.64,8.84V364.8h20.19Zm-20.19-51.35a84.09,84.09,0,0,0-1.55-17.41,21.45,21.45,0,0,0-6.13-11.48q-4.59-4.29-13.09-4.29t-13.24,4.34a21.46,21.46,0,0,0-6.18,11.48,83.38,83.38,0,0,0-1.55,17.36,84.26,84.26,0,0,0,1.55,17.42,21.73,21.73,0,0,0,6.18,11.57q4.63,4.39,13.24,4.39,12.36,0,16.56-8.83T545.48,447.49Z" style="fill:#1e4079"/><path d="M660.39,453.34H595.27a34.5,34.5,0,0,0,3,15,22.32,22.32,0,0,0,8.65,9.66q5.65,3.44,14,3.43t13.43-2.32a40.09,40.09,0,0,0,10.92-7.92l12.85,12a55.86,55.86,0,0,1-16.64,11.93q-8.41,3.72-21,3.72A55.49,55.49,0,0,1,602.5,496a36.71,36.71,0,0,1-14.36-8.89,40.84,40.84,0,0,1-9.49-15.94q-3.37-9.85-3.38-23.77,0-16.12,5.27-27.63a39.91,39.91,0,0,1,14.85-17.58q9.57-6.09,22.44-6.09,13.15,0,22.83,6.09a38.75,38.75,0,0,1,14.7,17,59.81,59.81,0,0,1,5,25.17Zm-20-14a39.18,39.18,0,0,0-2.71-13.62,20.41,20.41,0,0,0-7.58-9.28A21.37,21.37,0,0,0,617.88,413a21.64,21.64,0,0,0-12.22,3.48,20.71,20.71,0,0,0-7.78,9.28,25,25,0,0,0-1.79,5.45q-.44,2.37-.82,8.17Z" style="fill:#1e4079"/><path d="M755.1,453.34H690a34.36,34.36,0,0,0,3,15,22.32,22.32,0,0,0,8.65,9.66q5.65,3.44,14,3.43T729,479.13a40.09,40.09,0,0,0,10.92-7.92l12.84,12a55.83,55.83,0,0,1-16.63,11.93q-8.42,3.72-21,3.72a55.49,55.49,0,0,1-17.94-2.8,36.67,36.67,0,0,1-14.37-8.89,40.94,40.94,0,0,1-9.48-15.94Q670,461.36,670,447.44q0-16.12,5.27-27.63a39.84,39.84,0,0,1,14.85-17.58q9.57-6.09,22.44-6.09,13.14,0,22.82,6.09a38.62,38.62,0,0,1,14.7,17q5,11,5,25.17Zm-20-14a39.18,39.18,0,0,0-2.71-13.62,20.41,20.41,0,0,0-7.58-9.28A21.4,21.4,0,0,0,712.59,413a21.66,21.66,0,0,0-12.22,3.48,20.75,20.75,0,0,0-7.77,9.28,25,25,0,0,0-1.79,5.45,80.15,80.15,0,0,0-.82,8.17Z" style="fill:#1e4079"/></svg>