<svg id="Layer_1" data-name="Layer 1" xmlns="http://www.w3.org/2000/svg" viewBox="0 0 1000 1000"><title>Jaldee_features logos</title><text transform="translate(261.91 633.34)" style="font-size:180.27999877929688px;fill:#58595b;font-family:Roboto-Medium, Roboto;font-weight:500;letter-spacing:-0.06685563821062174em">B<tspan x="101.68" y="0" style="letter-spacing:-0.054163792454059854em">Y</tspan><tspan x="201.77" y="0" style="letter-spacing:-0.03999854420249805em">OD</tspan></text><path d="M340.53,439.57q0,14.3-6.23,24.58a41,41,0,0,1-16.95,15.7,51.76,51.76,0,0,1-23.67,5.42,58.83,58.83,0,0,1-13.09-1.41,38.65,38.65,0,0,1-11.21-4.42,50.31,50.31,0,0,1-9.9-7.87l14.2-14a36.22,36.22,0,0,0,8.69,6.42q4.15,2.09,11.31,2.08a27.43,27.43,0,0,0,13.67-3.24,21.15,21.15,0,0,0,8.79-9.55,35,35,0,0,0,3-15.3V351.23h21.35Z" style="fill:#1e4079"/><path d="M430.3,485.27H410.5V475A34.23,34.23,0,0,1,399,482.9c-4,1.57-9.05,2.37-15.17,2.37A48.82,48.82,0,0,1,368.08,483a28.49,28.49,0,0,1-11.2-6.81Q348.94,468,349,454.64a28.56,28.56,0,0,1,4-15.12,26.34,26.34,0,0,1,11.74-10.15q7.78-3.62,18.89-3.62h26.57v-7.12q0-9.63-5.22-14.15T388.18,400q-8.4,0-13.09,2.11a24.72,24.72,0,0,0-8.94,7.51l-13.24-12.44Q359.78,389,368,385.77t21-3.2q41.35,0,41.35,34.49Zm-20.19-37.39v-8.12H386.54q-8.81,0-13.39,3.77t-4.58,10.72q0,14.21,18.35,14.2a44.49,44.49,0,0,0,10.82-1.11,18.13,18.13,0,0,0,8-4.59Q410.11,458.42,410.11,447.88Z" style="fill:#1e4079"/><path d="M474.68,485.27h-6.16q-13.62,0-20.53-7.88t-6.9-19.85V351.23h20.19V456.38q0,6,2.41,8.84t8.41,2.85h2.58Z" style="fill:#1e4079"/><path d="M564.43,485.27h-19.8V473.38a32.77,32.77,0,0,1-7.73,7.15,28.26,28.26,0,0,1-8.5,3.62,43.73,43.73,0,0,1-10.34,1.12,39,39,0,0,1-13.86-2.42,28.1,28.1,0,0,1-17.88-18,59.75,59.75,0,0,1-3.23-14.15,181.1,181.1,0,0,1,0-33.58,59,59,0,0,1,3.23-14.05,31.1,31.1,0,0,1,7.2-11.5,29.16,29.16,0,0,1,10.63-6.62,39,39,0,0,1,13.72-2.36,39.66,39.66,0,0,1,14.73,2.52,29.83,29.83,0,0,1,11.64,8.84v-42.7h20.19Zm-20.19-51.35a84.26,84.26,0,0,0-1.54-17.42A21.39,21.39,0,0,0,536.56,405q-4.59-4.29-13.09-4.29t-13.24,4.34a21.5,21.5,0,0,0-6.18,11.48,99,99,0,0,0,0,34.78,21.73,21.73,0,0,0,6.18,11.57q4.65,4.39,13.24,4.4,12.36,0,16.57-8.83T544.24,433.92Z" style="fill:#1e4079"/><path d="M659.15,439.76H594a34.36,34.36,0,0,0,3,15,22.28,22.28,0,0,0,8.65,9.67q5.64,3.42,14,3.42t13.43-2.31A40.19,40.19,0,0,0,644,457.63l12.85,12a55.87,55.87,0,0,1-16.63,11.94q-8.41,3.72-21,3.72a55.59,55.59,0,0,1-18-2.81,36.59,36.59,0,0,1-14.36-8.89,40.87,40.87,0,0,1-9.48-15.94Q574,447.78,574,433.87q0-16.14,5.27-27.63a39.86,39.86,0,0,1,14.84-17.59q9.58-6.09,22.44-6.08,13.15,0,22.83,6.08a38.62,38.62,0,0,1,14.7,17.05,59.81,59.81,0,0,1,5,25.17Zm-20-14a39,39,0,0,0-2.7-13.62,20.37,20.37,0,0,0-7.59-9.28,21.42,21.42,0,0,0-12.22-3.47,21.71,21.71,0,0,0-12.22,3.47,20.83,20.83,0,0,0-7.78,9.28,24.85,24.85,0,0,0-1.78,5.46q-.43,2.37-.83,8.16Z" style="fill:#1e4079"/><path d="M753.87,439.76H688.75a34.36,34.36,0,0,0,3,15,22.32,22.32,0,0,0,8.64,9.67q5.65,3.42,14,3.42t13.43-2.31a40.07,40.07,0,0,0,10.92-7.93l12.85,12a55.91,55.91,0,0,1-16.64,11.94q-8.42,3.72-21,3.72A55.53,55.53,0,0,1,696,482.46a36.59,36.59,0,0,1-14.36-8.89,40.63,40.63,0,0,1-9.48-15.94q-3.39-9.86-3.39-23.76,0-16.14,5.27-27.63a39.94,39.94,0,0,1,14.85-17.59q9.57-6.09,22.44-6.08,13.16,0,22.83,6.08a38.75,38.75,0,0,1,14.7,17.05,59.81,59.81,0,0,1,5,25.17Zm-20-14a39.19,39.19,0,0,0-2.7-13.62,20.43,20.43,0,0,0-7.59-9.28,21.44,21.44,0,0,0-12.22-3.47,21.71,21.71,0,0,0-12.22,3.47,20.77,20.77,0,0,0-7.78,9.28,25.49,25.49,0,0,0-1.79,5.46q-.44,2.37-.82,8.16Z" style="fill:#1e4079"/></svg>