<?xml version="1.0" encoding="utf-8"?>
<svg viewBox="112.538 171.727 571.517 199.659" width="571.517" height="199.659" xmlns="http://www.w3.org/2000/svg">
  <path class="cls-1" d="M54.3,428.43a20.36,20.36,0,0,1-2.73,10.76,17.94,17.94,0,0,1-7.42,6.87,22.65,22.65,0,0,1-10.36,2.37,25.62,25.62,0,0,1-5.73-.61,17,17,0,0,1-4.91-1.94,21.92,21.92,0,0,1-4.33-3.44L25,436.29a16.3,16.3,0,0,0,3.81,2.82,11.27,11.27,0,0,0,4.95.91,12,12,0,0,0,6-1.42,9.26,9.26,0,0,0,3.85-4.18,15.33,15.33,0,0,0,1.34-6.7v-38H54.3Z" transform="matrix(1, 0, 0, 1, 93.718369, -217.993317)" style="fill: rgb(30, 64, 121);"/>
  <path class="cls-1" d="M93.6,448.43H84.93V444a14.83,14.83,0,0,1-5,3.45,18.26,18.26,0,0,1-6.64,1,21.57,21.57,0,0,1-6.9-1,12.53,12.53,0,0,1-4.9-3A13,13,0,0,1,58,435a12.57,12.57,0,0,1,1.73-6.62A11.54,11.54,0,0,1,64.86,424a19.62,19.62,0,0,1,8.27-1.58H84.76v-3.12q0-4.22-2.28-6.2t-7.32-2a14.24,14.24,0,0,0-5.73.93,10.73,10.73,0,0,0-3.91,3.29l-5.8-5.45a16.75,16.75,0,0,1,6.6-5,25.69,25.69,0,0,1,9.18-1.4q18.1,0,18.1,15.1Zm-8.84-16.37v-3.55H74.44a9.05,9.05,0,0,0-5.86,1.65,5.75,5.75,0,0,0-2,4.7q0,6.21,8,6.21a19.77,19.77,0,0,0,4.74-.48,8,8,0,0,0,3.51-2Q84.76,436.68,84.76,432.06Z" transform="matrix(1, 0, 0, 1, 93.718369, -217.993317)" style="fill: rgb(30, 64, 121);"/>
  <path class="cls-1" d="M113,448.43h-2.69q-6,0-9-3.44a12.7,12.7,0,0,1-3-8.7V389.75h8.84v46a6,6,0,0,0,1.06,3.87c.71.83,1.93,1.24,3.68,1.24H113Z" transform="matrix(1, 0, 0, 1, 93.718369, -217.993317)" style="fill: rgb(30, 64, 121);"/>
  <path class="cls-1" d="M152.33,448.43h-8.67v-5.2a14.34,14.34,0,0,1-3.39,3.13,12.52,12.52,0,0,1-3.72,1.59,19.37,19.37,0,0,1-4.53.48,16.93,16.93,0,0,1-6.06-1.06,13.41,13.41,0,0,1-4.68-2.83,13.62,13.62,0,0,1-3.15-5.05,26.48,26.48,0,0,1-1.42-6.2,79.61,79.61,0,0,1,0-14.7,26,26,0,0,1,1.42-6.15,13.66,13.66,0,0,1,3.15-5,12.71,12.71,0,0,1,4.65-2.89,18.59,18.59,0,0,1,12.46.07,12.9,12.9,0,0,1,5.1,3.87v-18.7h8.84ZM143.49,426a36.91,36.91,0,0,0-.68-7.62,9.41,9.41,0,0,0-2.68-5,9.74,9.74,0,0,0-11.53,0,9.46,9.46,0,0,0-2.71,5,36.64,36.64,0,0,0-.67,7.6,37,37,0,0,0,.67,7.63,9.55,9.55,0,0,0,2.71,5.06,8.1,8.1,0,0,0,5.79,1.93q5.42,0,7.26-3.87T143.49,426Z" transform="matrix(1, 0, 0, 1, 93.718369, -217.993317)" style="fill: rgb(30, 64, 121);"/>
  <path class="cls-1" d="M193.8,428.51H165.29a15,15,0,0,0,1.31,6.58,9.72,9.72,0,0,0,3.78,4.23,11.61,11.61,0,0,0,6.12,1.5,14.28,14.28,0,0,0,5.87-1,17.4,17.4,0,0,0,4.78-3.46l5.63,5.24a24.39,24.39,0,0,1-7.28,5.22,22.7,22.7,0,0,1-9.19,1.63,24.57,24.57,0,0,1-7.86-1.22,16.12,16.12,0,0,1-6.29-3.9,17.86,17.86,0,0,1-4.15-7,32.47,32.47,0,0,1-1.48-10.41,28.86,28.86,0,0,1,2.31-12.1,17.41,17.41,0,0,1,6.5-7.69,17.88,17.88,0,0,1,9.82-2.67,18.38,18.38,0,0,1,10,2.67,16.89,16.89,0,0,1,6.43,7.46,26.12,26.12,0,0,1,2.21,11ZM185,422.38a17.16,17.16,0,0,0-1.18-6,9,9,0,0,0-3.32-4.06,9.42,9.42,0,0,0-5.36-1.52,9.53,9.53,0,0,0-5.35,1.52,9.15,9.15,0,0,0-3.4,4.06,10.6,10.6,0,0,0-.78,2.39,34.46,34.46,0,0,0-.36,3.58Z" transform="matrix(1, 0, 0, 1, 93.718369, -217.993317)" style="fill: rgb(30, 64, 121);"/>
  <path class="cls-1" d="M235.26,428.51H206.75a15,15,0,0,0,1.32,6.58,9.72,9.72,0,0,0,3.78,4.23,11.6,11.6,0,0,0,6.11,1.5,14.3,14.3,0,0,0,5.88-1,17.4,17.4,0,0,0,4.78-3.46l5.63,5.24A24.3,24.3,0,0,1,227,446.8a22.67,22.67,0,0,1-9.19,1.63,24.51,24.51,0,0,1-7.85-1.22,16.12,16.12,0,0,1-6.29-3.9,17.86,17.86,0,0,1-4.15-7A32.2,32.2,0,0,1,198,425.93a28.86,28.86,0,0,1,2.31-12.1,17.41,17.41,0,0,1,6.5-7.69,17.88,17.88,0,0,1,9.82-2.67,18.32,18.32,0,0,1,10,2.67,16.85,16.85,0,0,1,6.44,7.46,26.12,26.12,0,0,1,2.2,11Zm-8.75-6.13a17.16,17.16,0,0,0-1.19-6,8.92,8.92,0,0,0-3.32-4.06,9.39,9.39,0,0,0-5.35-1.52,9.53,9.53,0,0,0-5.35,1.52,9.09,9.09,0,0,0-3.4,4.06,11.22,11.22,0,0,0-.79,2.39c-.12.69-.24,1.89-.36,3.58Z" transform="matrix(1, 0, 0, 1, 93.718369, -217.993317)" style="fill: rgb(30, 64, 121);"/>
  <path class="cls-2" d="M28.78,587.84V479.59H65.89a65.42,65.42,0,0,1,15.76,1.74,33.3,33.3,0,0,1,11.82,5.32,23.36,23.36,0,0,1,7.4,9.11,31,31,0,0,1,2.56,13.12,23.32,23.32,0,0,1-4,13.38,25.81,25.81,0,0,1-11.75,9.22,25.77,25.77,0,0,1,8.14,3.69,22.59,22.59,0,0,1,5.73,5.68,24.13,24.13,0,0,1,3.38,7.22,29.57,29.57,0,0,1,1.12,8.17A34.2,34.2,0,0,1,103.47,570,25.9,25.9,0,0,1,96,579.85a32.92,32.92,0,0,1-11.83,6,56.58,56.58,0,0,1-15.72,2Zm18.81-62.68H66c5.84,0,10.42-1.32,13.71-4s5-6.41,5-11.27q0-8-4.57-11.6t-14.24-3.57H47.59Zm0,13.83v33.84h20.9a25.56,25.56,0,0,0,8.14-1.19,16.43,16.43,0,0,0,5.91-3.39A13.83,13.83,0,0,0,86.11,563a18.54,18.54,0,0,0,1.19-6.77q0-8-4.24-12.64T69.31,539Z" transform="matrix(1, 0, 0, 1, 93.718369, -217.993317)" style="fill: rgb(88, 89, 91);"/>
  <path class="cls-2" d="M165.75,580a25.67,25.67,0,0,1-9.37,6.92,32.78,32.78,0,0,1-13.23,2.45,33.24,33.24,0,0,1-10.82-1.67,21,21,0,0,1-8.37-5.28,24.38,24.38,0,0,1-5.43-9.29,42.9,42.9,0,0,1-1.93-13.65V507.39h18.07v52.2a21.57,21.57,0,0,0,1,7.25,12.23,12.23,0,0,0,2.79,4.61,9.54,9.54,0,0,0,4.05,2.45,16.13,16.13,0,0,0,4.83.71q7,0,11.31-2.53a16.06,16.06,0,0,0,6.46-6.91V507.39h18.07v80.45h-17Z" transform="matrix(1, 0, 0, 1, 93.718369, -217.993317)" style="fill: rgb(88, 89, 91);"/>
  <path class="cls-2" d="M240.63,566a10.13,10.13,0,0,0-.63-3.6,7.35,7.35,0,0,0-2.49-3.12,19.82,19.82,0,0,0-5.25-2.72,61.87,61.87,0,0,0-8.81-2.38,77.73,77.73,0,0,1-11.78-3.34,36.27,36.27,0,0,1-9.11-4.87,21.17,21.17,0,0,1-5.91-6.73,18.31,18.31,0,0,1-2.12-8.93,21,21,0,0,1,2.16-9.33,23.11,23.11,0,0,1,6.2-7.77,31.06,31.06,0,0,1,9.82-5.31,39.52,39.52,0,0,1,12.9-2,42.81,42.81,0,0,1,13.49,2,30.7,30.7,0,0,1,10.15,5.42,23.21,23.21,0,0,1,8.55,18.26H239.74a11.73,11.73,0,0,0-.9-4.5,11.14,11.14,0,0,0-2.67-3.9,13,13,0,0,0-4.43-2.72,17.17,17.17,0,0,0-6.13-1,18.64,18.64,0,0,0-6,.85,13.47,13.47,0,0,0-4.2,2.24,8.62,8.62,0,0,0-2.49,3.19,9.19,9.19,0,0,0-.82,3.83,8.28,8.28,0,0,0,.74,3.57,7.38,7.38,0,0,0,2.64,2.83,22.31,22.31,0,0,0,5.1,2.34,76.63,76.63,0,0,0,8,2.12,94.71,94.71,0,0,1,12.53,3.49,35.73,35.73,0,0,1,9.37,4.91,19.83,19.83,0,0,1,5.83,6.84,20.4,20.4,0,0,1,2,9.37,21,21,0,0,1-2.31,9.81,22.54,22.54,0,0,1-6.58,7.7,32.07,32.07,0,0,1-10.29,5,47.06,47.06,0,0,1-13.39,1.78A42.17,42.17,0,0,1,211.22,587a33.65,33.65,0,0,1-10.67-6.13,25.68,25.68,0,0,1-6.5-8.59,23.2,23.2,0,0,1-2.2-9.78H209.4a13.88,13.88,0,0,0,1.71,6.25,12.73,12.73,0,0,0,3.79,4.09,15.88,15.88,0,0,0,5.21,2.26,25,25,0,0,0,5.95.71q7.13,0,10.85-2.71A8.41,8.41,0,0,0,240.63,566Z" transform="matrix(1, 0, 0, 1, 93.718369, -217.993317)" style="fill: rgb(88, 89, 91);"/>
  <path class="cls-2" d="M268.07,486.5a9.56,9.56,0,0,1,2.64-6.91q2.64-2.76,7.55-2.76t7.58,2.76a9.47,9.47,0,0,1,2.68,6.91,9.25,9.25,0,0,1-2.68,6.8q-2.67,2.71-7.58,2.72t-7.55-2.72A9.34,9.34,0,0,1,268.07,486.5Zm19.18,101.34H269.19V507.39h18.06Z" transform="matrix(1, 0, 0, 1, 93.718369, -217.993317)" style="fill: rgb(88, 89, 91);"/>
  <path class="cls-2" d="M317.6,507.39l.52,9.3a29.54,29.54,0,0,1,10.18-8,30.54,30.54,0,0,1,13.24-2.82,32.54,32.54,0,0,1,10.52,1.6,19.32,19.32,0,0,1,8.07,5.16,23.94,23.94,0,0,1,5.16,9.3,46.06,46.06,0,0,1,1.83,13.9v52H349.05V535.72a23,23,0,0,0-.93-7,11.54,11.54,0,0,0-2.71-4.65,10.26,10.26,0,0,0-4.43-2.57,21.42,21.42,0,0,0-6.06-.78,17.45,17.45,0,0,0-9.7,2.68,19.41,19.41,0,0,0-6.58,7.21v57.25H300.57V507.39Z" transform="matrix(1, 0, 0, 1, 93.718369, -217.993317)" style="fill: rgb(88, 89, 91);"/>
  <path class="cls-2" d="M414.86,589.33a41.45,41.45,0,0,1-16.06-3,35.3,35.3,0,0,1-12.12-8.18A35.82,35.82,0,0,1,379,565.84a43.61,43.61,0,0,1-2.68-15.4v-3a49.51,49.51,0,0,1,2.83-17.21,39.34,39.34,0,0,1,7.73-13.09,34.2,34.2,0,0,1,11.56-8.33,35.21,35.21,0,0,1,14.32-2.93A36.7,36.7,0,0,1,428,508.84a28.81,28.81,0,0,1,10.71,8.22,35.43,35.43,0,0,1,6.32,12.57,58.26,58.26,0,0,1,2.08,16v7.73H394.56a28.83,28.83,0,0,0,2,8.63,21.2,21.2,0,0,0,4.35,6.8,19.87,19.87,0,0,0,6.51,4.5,21.11,21.11,0,0,0,8.51,1.64,24.16,24.16,0,0,0,11.64-2.68,27.3,27.3,0,0,0,8.58-7.36l9.74,9.29a32.7,32.7,0,0,1-11.48,10.45,38.8,38.8,0,0,1-8.67,3.42A41.65,41.65,0,0,1,414.86,589.33Zm-2.16-68.92a15.23,15.23,0,0,0-12,5.2q-4.56,5.21-5.83,14.5h34.42v-1.34a33.08,33.08,0,0,0-1.15-6.88,17.55,17.55,0,0,0-2.86-5.87,13.87,13.87,0,0,0-5-4.09A17,17,0,0,0,412.7,520.41Z" transform="matrix(1, 0, 0, 1, 93.718369, -217.993317)" style="fill: rgb(88, 89, 91);"/>
  <path class="cls-2" d="M500.15,566a10.13,10.13,0,0,0-.63-3.6,7.38,7.38,0,0,0-2.5-3.12,19.58,19.58,0,0,0-5.24-2.72,61.87,61.87,0,0,0-8.81-2.38,77.73,77.73,0,0,1-11.78-3.34,36.27,36.27,0,0,1-9.11-4.87,21.17,21.17,0,0,1-5.91-6.73,18.2,18.2,0,0,1-2.12-8.93A21.13,21.13,0,0,1,456.2,521a23.26,23.26,0,0,1,6.21-7.77,31,31,0,0,1,9.82-5.31,39.52,39.52,0,0,1,12.9-2,42.85,42.85,0,0,1,13.49,2,30.7,30.7,0,0,1,10.15,5.42,23.21,23.21,0,0,1,8.55,18.26H499.25a11.72,11.72,0,0,0-.89-4.5,11.14,11.14,0,0,0-2.67-3.9,13,13,0,0,0-4.43-2.72,17.17,17.17,0,0,0-6.13-1,18.6,18.6,0,0,0-5.95.85,13.25,13.25,0,0,0-4.2,2.24,8.62,8.62,0,0,0-2.49,3.19,9.19,9.19,0,0,0-.82,3.83,8.28,8.28,0,0,0,.74,3.57,7.38,7.38,0,0,0,2.64,2.83,22.11,22.11,0,0,0,5.1,2.34,76,76,0,0,0,8,2.12,95.15,95.15,0,0,1,12.53,3.49,35.5,35.5,0,0,1,9.36,4.91,19.76,19.76,0,0,1,5.84,6.84,20.4,20.4,0,0,1,2,9.37,21,21,0,0,1-2.31,9.81,22.54,22.54,0,0,1-6.58,7.7,32,32,0,0,1-10.3,5,46.94,46.94,0,0,1-13.38,1.78A42.17,42.17,0,0,1,470.74,587a33.65,33.65,0,0,1-10.67-6.13,25.84,25.84,0,0,1-6.51-8.59,23.34,23.34,0,0,1-2.19-9.78h17.55a13.88,13.88,0,0,0,1.71,6.25,12.62,12.62,0,0,0,3.79,4.09,15.88,15.88,0,0,0,5.21,2.26,25,25,0,0,0,5.94.71q7.14,0,10.86-2.71A8.41,8.41,0,0,0,500.15,566Z" transform="matrix(1, 0, 0, 1, 93.718369, -217.993317)" style="fill: rgb(88, 89, 91);"/>
  <path class="cls-2" d="M572.65,566a10.13,10.13,0,0,0-.63-3.6,7.43,7.43,0,0,0-2.49-3.12,19.82,19.82,0,0,0-5.25-2.72,61.87,61.87,0,0,0-8.81-2.38,77.73,77.73,0,0,1-11.78-3.34,36.27,36.27,0,0,1-9.11-4.87,21.17,21.17,0,0,1-5.91-6.73,18.31,18.31,0,0,1-2.12-8.93,21,21,0,0,1,2.16-9.33,23.11,23.11,0,0,1,6.2-7.77,31.06,31.06,0,0,1,9.82-5.31,39.52,39.52,0,0,1,12.9-2,42.85,42.85,0,0,1,13.49,2,30.7,30.7,0,0,1,10.15,5.42,23.21,23.21,0,0,1,8.55,18.26H571.76a11.73,11.73,0,0,0-.9-4.5,11.14,11.14,0,0,0-2.67-3.9,13,13,0,0,0-4.43-2.72,17.17,17.17,0,0,0-6.13-1,18.64,18.64,0,0,0-6,.85,13.36,13.36,0,0,0-4.2,2.24,8.62,8.62,0,0,0-2.49,3.19,9.19,9.19,0,0,0-.82,3.83,8.28,8.28,0,0,0,.74,3.57,7.38,7.38,0,0,0,2.64,2.83,22.31,22.31,0,0,0,5.1,2.34,76.63,76.63,0,0,0,8,2.12,94.71,94.71,0,0,1,12.53,3.49,35.73,35.73,0,0,1,9.37,4.91,19.83,19.83,0,0,1,5.83,6.84,20.4,20.4,0,0,1,2,9.37,21,21,0,0,1-2.31,9.81,22.54,22.54,0,0,1-6.58,7.7,32.07,32.07,0,0,1-10.29,5,47.06,47.06,0,0,1-13.39,1.78A42.17,42.17,0,0,1,543.24,587a33.65,33.65,0,0,1-10.67-6.13,25.68,25.68,0,0,1-6.5-8.59,23.2,23.2,0,0,1-2.2-9.78h17.55a13.88,13.88,0,0,0,1.71,6.25,12.62,12.62,0,0,0,3.79,4.09,15.88,15.88,0,0,0,5.21,2.26,25,25,0,0,0,6,.71q7.13,0,10.85-2.71A8.41,8.41,0,0,0,572.65,566Z" transform="matrix(1, 0, 0, 1, 93.718369, -217.993317)" style="fill: rgb(88, 89, 91);"/>
</svg>