<svg id="Layer_1" data-name="Layer 1" xmlns="http://www.w3.org/2000/svg" viewBox="0 0 1000 1000"><title>Jaldee_features logos</title><text transform="translate(224.36 674.34)" style="font-size:180.27999877929688px;fill:#58595b;font-family:Roboto-Medium, Roboto;font-weight:500;letter-spacing:-0.03999854420249805em">Comm</text><path d="M304.45,481.27q0,14.31-6.23,24.59a41.06,41.06,0,0,1-17,15.7A51.76,51.76,0,0,1,257.6,527a58.4,58.4,0,0,1-13.1-1.41,38.69,38.69,0,0,1-11.2-4.41,50.36,50.36,0,0,1-9.91-7.87l14.21-14a36.56,36.56,0,0,0,8.69,6.43q4.16,2.07,11.31,2.07a27.42,27.42,0,0,0,13.67-3.23,21.13,21.13,0,0,0,8.79-9.56,35,35,0,0,0,3-15.3V392.93h21.35Z" style="fill:#1e4079"/><path d="M394.22,527H374.41V516.73a34.07,34.07,0,0,1-11.49,7.87q-6,2.37-15.17,2.37A49.07,49.07,0,0,1,332,524.7a28.49,28.49,0,0,1-11.2-6.81q-7.94-8.21-7.93-21.55a28.56,28.56,0,0,1,4-15.12,26.32,26.32,0,0,1,11.74-10.14q7.79-3.63,18.89-3.62H374v-7.12q0-9.63-5.22-14.15t-16.71-4.53q-8.42,0-13.09,2.12a24.52,24.52,0,0,0-8.94,7.51l-13.24-12.45q6.87-8.16,15.08-11.36t21-3.21q41.36,0,41.35,34.49ZM374,489.58v-8.11H350.45q-8.79,0-13.38,3.76T332.48,496q0,14.21,18.36,14.2a44.55,44.55,0,0,0,10.82-1.11,18.13,18.13,0,0,0,8-4.59Q374,500.11,374,489.58Z" style="fill:#1e4079"/><path d="M438.6,527h-6.16q-13.62,0-20.53-7.87T405,499.24V392.93h20.2V498.08c0,4,.8,6.94,2.41,8.84s4.41,2.85,8.41,2.85h2.58Z" style="fill:#1e4079"/><path d="M528.35,527h-19.8V515.09a33,33,0,0,1-7.73,7.15,28.51,28.51,0,0,1-8.5,3.62A43.76,43.76,0,0,1,482,527a39.27,39.27,0,0,1-13.86-2.41,28.16,28.16,0,0,1-17.88-18A60.23,60.23,0,0,1,447,492.38a183.33,183.33,0,0,1,0-33.57,59.53,59.53,0,0,1,3.24-14.06,30.93,30.93,0,0,1,7.2-11.49,29,29,0,0,1,10.63-6.62,39,39,0,0,1,13.72-2.37,39.45,39.45,0,0,1,14.73,2.53,29.73,29.73,0,0,1,11.64,8.84V392.93h20.19Zm-20.19-51.35a84.86,84.86,0,0,0-1.54-17.41,21.46,21.46,0,0,0-6.14-11.48q-4.59-4.29-13.09-4.3t-13.24,4.35A21.46,21.46,0,0,0,468,458.26,98.27,98.27,0,0,0,468,493a21.73,21.73,0,0,0,6.18,11.58q4.64,4.39,13.24,4.39,12.36,0,16.57-8.83T508.16,475.62Z" style="fill:#1e4079"/><path d="M623.07,481.47H558a34.39,34.39,0,0,0,3,15,22.35,22.35,0,0,0,8.64,9.66q5.65,3.44,14,3.43T597,507.26a39.79,39.79,0,0,0,10.92-7.92l12.85,12a55.86,55.86,0,0,1-16.64,11.93q-8.4,3.72-21,3.72a55.57,55.57,0,0,1-17.94-2.8,36.71,36.71,0,0,1-14.36-8.89,40.82,40.82,0,0,1-9.48-15.94Q538,489.49,538,475.57q0-16.12,5.28-27.63a39.89,39.89,0,0,1,14.84-17.58q9.58-6.09,22.44-6.09,13.15,0,22.83,6.09A38.62,38.62,0,0,1,618,447.41a59.81,59.81,0,0,1,5,25.17Zm-20-14a39.07,39.07,0,0,0-2.7-13.63,20.39,20.39,0,0,0-7.59-9.27,21.35,21.35,0,0,0-12.22-3.48,21.64,21.64,0,0,0-12.22,3.48,20.86,20.86,0,0,0-7.78,9.27,25.85,25.85,0,0,0-1.79,5.46q-.43,2.37-.82,8.17Z" style="fill:#1e4079"/><path d="M717.79,481.47H652.67a34.39,34.39,0,0,0,3,15,22.29,22.29,0,0,0,8.64,9.66q5.66,3.44,14,3.43t13.43-2.32a39.79,39.79,0,0,0,10.92-7.92l12.85,12a55.86,55.86,0,0,1-16.64,11.93q-8.42,3.72-21,3.72a55.49,55.49,0,0,1-17.94-2.8,36.71,36.71,0,0,1-14.36-8.89,40.7,40.7,0,0,1-9.48-15.94q-3.39-9.85-3.39-23.77,0-16.12,5.27-27.63a40,40,0,0,1,14.85-17.58q9.57-6.09,22.44-6.09,13.15,0,22.83,6.09a38.75,38.75,0,0,1,14.7,17.05,59.81,59.81,0,0,1,5,25.17Zm-20-14a39.06,39.06,0,0,0-2.71-13.63,20.43,20.43,0,0,0-7.58-9.27,21.37,21.37,0,0,0-12.22-3.48,21.64,21.64,0,0,0-12.22,3.48,20.8,20.8,0,0,0-7.78,9.27,25.85,25.85,0,0,0-1.79,5.46q-.43,2.37-.82,8.17Z" style="fill:#1e4079"/></svg>