<svg id="Layer_1" data-name="Layer 1" xmlns="http://www.w3.org/2000/svg" viewBox="0 0 1000 1000"><title>Jaldee_features logos</title><text transform="translate(240.16 572.29)" style="font-size:180.27999877929688px;fill:#58595b;font-family:Roboto-Medium, Roboto;font-weight:500;letter-spacing:-0.040003961123435544em">Kiosk</text><path d="M313,368.53q0,14.3-6.24,24.59a41.06,41.06,0,0,1-17,15.7,51.89,51.89,0,0,1-23.67,5.41A58.31,58.31,0,0,1,253,412.82a38.76,38.76,0,0,1-11.21-4.42,50.62,50.62,0,0,1-9.9-7.86l14.2-14a36.45,36.45,0,0,0,8.7,6.42Q259,395,266.11,395a27.5,27.5,0,0,0,13.67-3.23,21.18,21.18,0,0,0,8.79-9.56,35,35,0,0,0,3-15.3V280.19H313Z" style="fill:#1e4079"/><path d="M402.73,414.23h-19.8V404a34.25,34.25,0,0,1-11.5,7.87q-6,2.37-15.17,2.37A49,49,0,0,1,340.52,412a28.69,28.69,0,0,1-11.21-6.81q-7.92-8.22-7.92-21.55a28.56,28.56,0,0,1,4-15.12,26.15,26.15,0,0,1,11.74-10.14q7.77-3.63,18.88-3.63h26.57v-7.12q0-9.61-5.21-14.15t-16.72-4.52q-8.4,0-13.09,2.12a24.66,24.66,0,0,0-8.94,7.5L325.35,326.1q6.86-8.16,15.07-11.37t21-3.2q41.36,0,41.35,34.49Zm-20.19-37.39v-8.12H359q-8.79,0-13.38,3.77T341,383.22q0,14.19,18.36,14.2a44.6,44.6,0,0,0,10.82-1.11,18.1,18.1,0,0,0,8-4.59Q382.54,387.37,382.54,376.84Z" style="fill:#1e4079"/><path d="M447.11,414.23H441q-13.63,0-20.53-7.88t-6.91-19.85V280.19h20.19V385.34c0,4,.8,6.94,2.42,8.84s4.41,2.85,8.4,2.85h2.58Z" style="fill:#1e4079"/><path d="M536.87,414.23H517.06V402.34a32.56,32.56,0,0,1-7.73,7.15,28.17,28.17,0,0,1-8.5,3.63,43.7,43.7,0,0,1-10.34,1.11,39,39,0,0,1-13.86-2.42,28.06,28.06,0,0,1-17.87-18,59.17,59.17,0,0,1-3.24-14.15,183.33,183.33,0,0,1,0-33.57A58.45,58.45,0,0,1,458.76,332a31.08,31.08,0,0,1,7.19-11.5,29.1,29.1,0,0,1,10.63-6.61,39,39,0,0,1,13.72-2.37A39.66,39.66,0,0,1,505,314.05a29.93,29.93,0,0,1,11.65,8.84v-42.7h20.19Zm-20.19-51.35a84.26,84.26,0,0,0-1.55-17.42A21.43,21.43,0,0,0,509,334q-4.59-4.29-13.09-4.29T482.67,334a21.51,21.51,0,0,0-6.19,11.48,99,99,0,0,0,0,34.78,21.81,21.81,0,0,0,6.19,11.58q4.63,4.38,13.23,4.39,12.38,0,16.57-8.83T516.68,362.88Z" style="fill:#1e4079"/><path d="M631.58,368.72H566.47a34.44,34.44,0,0,0,3,15,22.38,22.38,0,0,0,8.65,9.66,26.53,26.53,0,0,0,14,3.43q8.31,0,13.43-2.32a40.53,40.53,0,0,0,10.92-7.92l12.85,12a56.17,56.17,0,0,1-16.64,11.93q-8.42,3.72-21,3.72a55.76,55.76,0,0,1-17.94-2.8,36.75,36.75,0,0,1-14.37-8.89,40.94,40.94,0,0,1-9.48-15.94q-3.37-9.86-3.38-23.77,0-16.14,5.27-27.63a39.82,39.82,0,0,1,14.85-17.59q9.57-6.08,22.44-6.08,13.14,0,22.82,6.08a38.65,38.65,0,0,1,14.7,17.06q5,11,5,25.16Zm-20-14a39.28,39.28,0,0,0-2.71-13.62,20.38,20.38,0,0,0-7.58-9.27,21.4,21.4,0,0,0-12.23-3.48,21.66,21.66,0,0,0-12.22,3.48,20.72,20.72,0,0,0-7.77,9.27,24.94,24.94,0,0,0-1.79,5.46,80.19,80.19,0,0,0-.82,8.16Z" style="fill:#1e4079"/><path d="M726.3,368.72H661.18a34.43,34.43,0,0,0,3,15,22.38,22.38,0,0,0,8.65,9.66q5.64,3.42,14,3.43t13.43-2.32a40.34,40.34,0,0,0,10.91-7.92l12.85,12a56,56,0,0,1-16.63,11.93q-8.42,3.72-21,3.72a55.87,55.87,0,0,1-18-2.8,36.71,36.71,0,0,1-14.36-8.89,40.94,40.94,0,0,1-9.48-15.94q-3.39-9.86-3.38-23.77,0-16.14,5.27-27.63a39.86,39.86,0,0,1,14.84-17.59q9.59-6.08,22.44-6.08,13.15,0,22.83,6.08a38.65,38.65,0,0,1,14.7,17.06,59.8,59.8,0,0,1,5,25.16Zm-20-14a39.06,39.06,0,0,0-2.7-13.62,20.34,20.34,0,0,0-7.59-9.27,21.35,21.35,0,0,0-12.22-3.48,21.64,21.64,0,0,0-12.22,3.48,20.81,20.81,0,0,0-7.78,9.27,25.4,25.4,0,0,0-1.78,5.46q-.43,2.37-.83,8.16Z" style="fill:#1e4079"/></svg>