<svg id="Layer_1" data-name="Layer 1" xmlns="http://www.w3.org/2000/svg" viewBox="0 0 1000 1000"><title>Jaldee_features logos</title><text transform="translate(218.48 570.34)" style="font-size:180px;fill:#58595b;font-family:Roboto-Medium, Roboto;font-weight:500;letter-spacing:-0.04000108506944444em">Online</text><path d="M309.47,372.21q0,14.3-6.23,24.59a41.08,41.08,0,0,1-17,15.7,51.76,51.76,0,0,1-23.67,5.41,58.37,58.37,0,0,1-13.09-1.41,38.7,38.7,0,0,1-11.2-4.42,50,50,0,0,1-9.91-7.86l14.2-14a36.79,36.79,0,0,0,8.7,6.43q4.16,2.07,11.3,2.07a27.4,27.4,0,0,0,13.67-3.23,21.14,21.14,0,0,0,8.8-9.56,35.13,35.13,0,0,0,3-15.3V283.87h21.35Z" style="fill:#1e4079"/><path d="M399.24,417.91H379.43V407.67a34.07,34.07,0,0,1-11.49,7.87q-6,2.37-15.17,2.37A49,49,0,0,1,337,415.64a28.6,28.6,0,0,1-11.21-6.81q-7.92-8.22-7.92-21.55a28.56,28.56,0,0,1,4-15.12A26.26,26.26,0,0,1,333.59,362q7.77-3.63,18.89-3.62h26.57v-7.13q0-9.61-5.22-14.15t-16.71-4.52q-8.42,0-13.1,2.12a24.57,24.57,0,0,0-8.93,7.51l-13.24-12.45q6.86-8.16,15.07-11.36t21-3.21q41.36,0,41.35,34.49Zm-20.19-37.39v-8.11H355.47q-8.79,0-13.38,3.76T337.5,386.9q0,14.21,18.36,14.2A44.6,44.6,0,0,0,366.68,400a18.13,18.13,0,0,0,8-4.59Q379.05,391.05,379.05,380.52Z" style="fill:#1e4079"/><path d="M443.62,417.91h-6.16q-13.62,0-20.53-7.87T410,390.18V283.87h20.19V389c0,4,.81,6.94,2.42,8.84s4.41,2.85,8.4,2.85h2.59Z" style="fill:#1e4079"/><path d="M533.37,417.91h-19.8V406a33.18,33.18,0,0,1-7.73,7.15,28.46,28.46,0,0,1-8.51,3.62A43.61,43.61,0,0,1,487,417.91a39.14,39.14,0,0,1-13.87-2.42,28.13,28.13,0,0,1-17.87-18A60.23,60.23,0,0,1,452,383.32a183.33,183.33,0,0,1,0-33.57,59.53,59.53,0,0,1,3.24-14.06,30.85,30.85,0,0,1,7.2-11.49,29,29,0,0,1,10.62-6.62,42.55,42.55,0,0,1,28.46.16,29.7,29.7,0,0,1,11.64,8.83v-42.7h20.19Zm-20.19-51.35a84.09,84.09,0,0,0-1.55-17.41,21.38,21.38,0,0,0-6.13-11.48q-4.59-4.31-13.09-4.3t-13.24,4.35A21.47,21.47,0,0,0,473,349.19,98.33,98.33,0,0,0,473,384a21.8,21.8,0,0,0,6.18,11.58q4.63,4.4,13.24,4.39,12.36,0,16.57-8.83T513.18,366.56Z" style="fill:#1e4079"/><path d="M628.09,372.41H563a34.39,34.39,0,0,0,3,15,22.29,22.29,0,0,0,8.64,9.66q5.65,3.44,14,3.43T602,398.2a40.22,40.22,0,0,0,10.92-7.92l12.85,12a56,56,0,0,1-16.64,11.93q-8.42,3.72-21,3.72a55.49,55.49,0,0,1-17.94-2.8,36.71,36.71,0,0,1-14.36-8.89,40.7,40.7,0,0,1-9.48-15.94Q543,380.42,543,366.51q0-16.12,5.27-27.63a39.92,39.92,0,0,1,14.85-17.58q9.57-6.09,22.44-6.09,13.15,0,22.83,6.09a38.69,38.69,0,0,1,14.7,17.05,59.81,59.81,0,0,1,5,25.17Zm-20-14a39.06,39.06,0,0,0-2.71-13.63,20.37,20.37,0,0,0-7.58-9.27A21.37,21.37,0,0,0,585.58,332a21.64,21.64,0,0,0-12.22,3.48,20.8,20.8,0,0,0-7.78,9.27,25.67,25.67,0,0,0-1.79,5.46q-.43,2.37-.82,8.17Z" style="fill:#1e4079"/><path d="M722.81,372.41H657.69a34.53,34.53,0,0,0,3,15,22.38,22.38,0,0,0,8.65,9.66q5.65,3.44,14,3.43t13.43-2.32a40.53,40.53,0,0,0,10.92-7.92l12.85,12a56,56,0,0,1-16.64,11.93q-8.42,3.72-21,3.72a55.49,55.49,0,0,1-17.94-2.8,36.82,36.82,0,0,1-14.37-8.89,40.94,40.94,0,0,1-9.48-15.94q-3.37-9.86-3.38-23.77,0-16.12,5.27-27.63a39.85,39.85,0,0,1,14.85-17.58q9.57-6.09,22.44-6.09,13.15,0,22.82,6.09a38.65,38.65,0,0,1,14.71,17.05,59.81,59.81,0,0,1,5,25.17Zm-20-14a39.29,39.29,0,0,0-2.71-13.63,20.43,20.43,0,0,0-7.58-9.27A21.37,21.37,0,0,0,680.3,332a21.62,21.62,0,0,0-12.22,3.48,20.73,20.73,0,0,0-7.78,9.27,25.11,25.11,0,0,0-1.79,5.46q-.43,2.37-.82,8.17Z" style="fill:#1e4079"/></svg>