<?xml version="1.0" encoding="utf-8"?>
<svg viewBox="112.216 225.512 422.75 197.23" width="422.75" height="197.23" xmlns="http://www.w3.org/2000/svg">
  <path class="cls-1" d="M52.3,430.83a20.42,20.42,0,0,1-2.73,10.77,18,18,0,0,1-7.42,6.87,22.69,22.69,0,0,1-10.37,2.37,25.61,25.61,0,0,1-5.73-.62,17.05,17.05,0,0,1-4.91-1.93,22,22,0,0,1-4.33-3.45L23,438.7a16,16,0,0,0,3.8,2.81,11.19,11.19,0,0,0,5,.91,12,12,0,0,0,6-1.42,9.26,9.26,0,0,0,3.85-4.18,15.45,15.45,0,0,0,1.33-6.7v-38H52.3Z" transform="matrix(1, 0, 0, 1, 95.405708, -166.607513)" style="fill: rgb(30, 64, 121);"/>
  <path class="cls-1" d="M91.6,450.84H82.93v-4.49a15,15,0,0,1-5,3.45,18.25,18.25,0,0,1-6.64,1,21.17,21.17,0,0,1-6.89-1,12.45,12.45,0,0,1-4.91-3A13,13,0,0,1,56,437.43a12.46,12.46,0,0,1,1.74-6.62,11.49,11.49,0,0,1,5.14-4.44,19.43,19.43,0,0,1,8.27-1.59H82.76v-3.12c0-2.8-.76-4.87-2.29-6.19s-4-2-7.31-2a14.26,14.26,0,0,0-5.74.93,10.77,10.77,0,0,0-3.91,3.28l-5.79-5.44a16.43,16.43,0,0,1,6.6-5,25.37,25.37,0,0,1,9.17-1.4q18.11,0,18.11,15.1Zm-8.84-16.37v-3.55H72.44a9,9,0,0,0-5.86,1.65,5.71,5.71,0,0,0-2,4.69q0,6.23,8,6.22a19.19,19.19,0,0,0,4.73-.49,7.84,7.84,0,0,0,3.51-2Q82.76,439.07,82.76,434.47Z" transform="matrix(1, 0, 0, 1, 95.405708, -166.607513)" style="fill: rgb(30, 64, 121);"/>
  <path class="cls-1" d="M111,450.84h-2.7q-6,0-9-3.45a12.72,12.72,0,0,1-3-8.69V392.16h8.84v46a5.87,5.87,0,0,0,1.06,3.87c.7.83,1.93,1.25,3.68,1.25H111Z" transform="matrix(1, 0, 0, 1, 95.405708, -166.607513)" style="fill: rgb(30, 64, 121);"/>
  <path class="cls-1" d="M150.32,450.84h-8.67v-5.21a14.57,14.57,0,0,1-3.38,3.14,12.41,12.41,0,0,1-3.73,1.58,18.74,18.74,0,0,1-4.52.49,17.21,17.21,0,0,1-6.07-1.06,12.33,12.33,0,0,1-7.83-7.89,26.35,26.35,0,0,1-1.41-6.2,79.51,79.51,0,0,1,0-14.69,26.14,26.14,0,0,1,1.41-6.16,13.51,13.51,0,0,1,3.16-5,12.73,12.73,0,0,1,4.65-2.9,18.72,18.72,0,0,1,12.45.07,13.09,13.09,0,0,1,5.1,3.87V392.16h8.84Zm-8.84-22.48a36.26,36.26,0,0,0-.68-7.63,9.35,9.35,0,0,0-2.68-5,8,8,0,0,0-5.73-1.88,8.17,8.17,0,0,0-5.8,1.9,9.41,9.41,0,0,0-2.7,5,43,43,0,0,0,0,15.23,9.53,9.53,0,0,0,2.7,5.07,8.14,8.14,0,0,0,5.8,1.92c3.61,0,6-1.29,7.25-3.86S141.48,433,141.48,428.36Z" transform="matrix(1, 0, 0, 1, 95.405708, -166.607513)" style="fill: rgb(30, 64, 121);"/>
  <path class="cls-1" d="M191.79,430.92H163.28a15.12,15.12,0,0,0,1.31,6.57,9.8,9.8,0,0,0,3.79,4.23,11.58,11.58,0,0,0,6.11,1.5,14.38,14.38,0,0,0,5.88-1,17.61,17.61,0,0,0,4.78-3.47l5.62,5.25a24.63,24.63,0,0,1-7.28,5.22,22.87,22.87,0,0,1-9.19,1.63,24.24,24.24,0,0,1-7.85-1.23,16,16,0,0,1-6.29-3.89,17.78,17.78,0,0,1-4.15-7,32.13,32.13,0,0,1-1.48-10.4,28.84,28.84,0,0,1,2.3-12.1,17.5,17.5,0,0,1,6.5-7.7,17.91,17.91,0,0,1,9.83-2.66,18.32,18.32,0,0,1,10,2.66,17,17,0,0,1,6.44,7.47,26.11,26.11,0,0,1,2.2,11ZM183,424.78a17.11,17.11,0,0,0-1.18-6,8.93,8.93,0,0,0-3.32-4.06,9.32,9.32,0,0,0-5.35-1.53,9.43,9.43,0,0,0-5.35,1.53,9.12,9.12,0,0,0-3.41,4.06,11.53,11.53,0,0,0-.78,2.39,34.18,34.18,0,0,0-.36,3.57Z" transform="matrix(1, 0, 0, 1, 95.405708, -166.607513)" style="fill: rgb(30, 64, 121);"/>
  <path class="cls-1" d="M233.26,430.92H204.75a15.12,15.12,0,0,0,1.31,6.57,9.74,9.74,0,0,0,3.79,4.23,11.55,11.55,0,0,0,6.11,1.5,14.38,14.38,0,0,0,5.88-1,17.77,17.77,0,0,0,4.78-3.47l5.62,5.25a24.76,24.76,0,0,1-7.28,5.22,22.87,22.87,0,0,1-9.19,1.63,24.34,24.34,0,0,1-7.86-1.23,16,16,0,0,1-6.28-3.89,17.91,17.91,0,0,1-4.16-7,32.41,32.41,0,0,1-1.48-10.4,28.83,28.83,0,0,1,2.31-12.1,17.5,17.5,0,0,1,6.5-7.7,17.91,17.91,0,0,1,9.83-2.66,18.34,18.34,0,0,1,10,2.66,16.91,16.91,0,0,1,6.43,7.47,26.11,26.11,0,0,1,2.21,11Zm-8.76-6.14a17.11,17.11,0,0,0-1.18-6,9,9,0,0,0-3.32-4.06,10.12,10.12,0,0,0-10.7,0,9.06,9.06,0,0,0-3.41,4.06,11,11,0,0,0-.78,2.39,34.18,34.18,0,0,0-.36,3.57Z" transform="matrix(1, 0, 0, 1, 95.405708, -166.607513)" style="fill: rgb(30, 64, 121);"/>
  <path class="cls-2" d="M109.63,552.6a47.07,47.07,0,0,1-3.72,14.69,35.18,35.18,0,0,1-8.26,11.63,37.22,37.22,0,0,1-12.9,7.66,51.75,51.75,0,0,1-17.58,2.75,43.78,43.78,0,0,1-18-3.6,38.6,38.6,0,0,1-13.76-10.27,46.3,46.3,0,0,1-8.73-16.09,68.58,68.58,0,0,1-3-21.19V529.4a67.41,67.41,0,0,1,3.12-21.15,46.68,46.68,0,0,1,8.92-16.17,39.55,39.55,0,0,1,14-10.34,44.9,44.9,0,0,1,18.4-3.64,48.48,48.48,0,0,1,17.1,2.79,36.51,36.51,0,0,1,12.61,7.73,35.59,35.59,0,0,1,8.1,11.78,50.73,50.73,0,0,1,3.76,15H90.89a42.16,42.16,0,0,0-2-9.22,19.56,19.56,0,0,0-4.12-6.95A17.06,17.06,0,0,0,78,494.83a29.09,29.09,0,0,0-9.89-1.49,24.59,24.59,0,0,0-11.19,2.42,21.34,21.34,0,0,0-8,7A32.88,32.88,0,0,0,44.08,514a66.15,66.15,0,0,0-1.6,15.24v8.93A70.1,70.1,0,0,0,43.9,552.9a34.77,34.77,0,0,0,4.38,11.34,21,21,0,0,0,7.66,7.32,22.74,22.74,0,0,0,11.23,2.6,32.68,32.68,0,0,0,10.3-1.41,17.62,17.62,0,0,0,7-4.16,18.91,18.91,0,0,0,4.27-6.77,40.63,40.63,0,0,0,2.2-9.22Z" transform="matrix(1, 0, 0, 1, 95.405708, -166.607513)" style="fill: rgb(88, 89, 91);"/>
  <path class="cls-2" d="M115.21,546.88a49.75,49.75,0,0,1,2.56-16.25,38.73,38.73,0,0,1,7.36-13A33.91,33.91,0,0,1,136.84,509a37.79,37.79,0,0,1,15.69-3.12A38.47,38.47,0,0,1,168.37,509a33.67,33.67,0,0,1,11.79,8.62,38.31,38.31,0,0,1,7.32,13A50.56,50.56,0,0,1,190,546.88v1.56a50.88,50.88,0,0,1-2.53,16.28,37.84,37.84,0,0,1-7.32,13,33.61,33.61,0,0,1-11.75,8.55,41.89,41.89,0,0,1-31.53,0,33.61,33.61,0,0,1-11.75-8.55,38.25,38.25,0,0,1-7.36-13,50.06,50.06,0,0,1-2.56-16.28Zm18.07,1.56a45.71,45.71,0,0,0,1.11,10.26,25.58,25.58,0,0,0,3.5,8.44,18.31,18.31,0,0,0,23.45,5.69,17.2,17.2,0,0,0,6-5.69,26.91,26.91,0,0,0,3.49-8.44A44,44,0,0,0,172,548.44v-1.56a43.18,43.18,0,0,0-1.15-10.15,26.28,26.28,0,0,0-3.53-8.41,18.33,18.33,0,0,0-6.06-5.76,17.06,17.06,0,0,0-8.74-2.15,16.66,16.66,0,0,0-8.66,2.15,18.47,18.47,0,0,0-6,5.76,25.59,25.59,0,0,0-3.5,8.41,44.85,44.85,0,0,0-1.11,10.15Z" transform="matrix(1, 0, 0, 1, 95.405708, -166.607513)" style="fill: rgb(88, 89, 91);"/>
  <path class="cls-2" d="M216.19,507.39l.52,8.41a27.65,27.65,0,0,1,9.77-7.29,32.31,32.31,0,0,1,13.43-2.6,28.85,28.85,0,0,1,13.16,2.93,19.8,19.8,0,0,1,8.92,9.41,28.8,28.8,0,0,1,24.68-12.34,34.36,34.36,0,0,1,11.16,1.67,20.15,20.15,0,0,1,8.29,5.28,24.07,24.07,0,0,1,5.2,9.26,44.42,44.42,0,0,1,1.82,13.6v52.12H295.08V535.65a22.47,22.47,0,0,0-1-7.33,10.84,10.84,0,0,0-2.9-4.57,10.5,10.5,0,0,0-4.53-2.38,24.76,24.76,0,0,0-6-.67A15.06,15.06,0,0,0,270.58,524a17.45,17.45,0,0,0-5.47,8.66,7.33,7.33,0,0,0,0,.79c0,.27,0,.53,0,.78v53.6H247.12v-52a22,22,0,0,0-1-7.14,11.38,11.38,0,0,0-2.9-4.68,11,11,0,0,0-4.57-2.57,21.48,21.48,0,0,0-6-.78,17.64,17.64,0,0,0-9.56,2.38,16.21,16.21,0,0,0-5.83,6.47v58.29H199.16V507.39Z" transform="matrix(1, 0, 0, 1, 95.405708, -166.607513)" style="fill: rgb(88, 89, 91);"/>
  <path class="cls-2" d="M342.59,507.39l.52,8.41a27.77,27.77,0,0,1,9.78-7.29,32.26,32.26,0,0,1,13.42-2.6,28.79,28.79,0,0,1,13.16,2.93,19.82,19.82,0,0,1,8.93,9.41,28.77,28.77,0,0,1,24.68-12.34,34.3,34.3,0,0,1,11.15,1.67,20,20,0,0,1,8.29,5.28,24.09,24.09,0,0,1,5.21,9.26,44.73,44.73,0,0,1,1.82,13.6v52.12H421.48V535.65a22.5,22.5,0,0,0-1-7.33,10.93,10.93,0,0,0-2.9-4.57,10.54,10.54,0,0,0-4.54-2.38,24.68,24.68,0,0,0-6-.67A15.09,15.09,0,0,0,397,524a17.5,17.5,0,0,0-5.46,8.66,7.33,7.33,0,0,0,0,.79q0,.4,0,.78v53.6H373.52v-52a22.06,22.06,0,0,0-1-7.14,11.48,11.48,0,0,0-2.9-4.68,11.08,11.08,0,0,0-4.57-2.57,21.53,21.53,0,0,0-6-.78,17.62,17.62,0,0,0-9.56,2.38,16.31,16.31,0,0,0-5.84,6.47v58.29H325.57V507.39Z" transform="matrix(1, 0, 0, 1, 95.405708, -166.607513)" style="fill: rgb(88, 89, 91);"/>
</svg>