<?xml version="1.0" encoding="utf-8"?>
<svg viewBox="66.408 603.191 331.75 205.537" width="331.75" height="205.537" xmlns="http://www.w3.org/2000/svg">
  <path class="cls-1" d="M41.63,451a20.36,20.36,0,0,1-2.73,10.76,18,18,0,0,1-7.42,6.88A22.67,22.67,0,0,1,21.12,471a25.62,25.62,0,0,1-5.73-.61,16.85,16.85,0,0,1-4.91-1.94A21.6,21.6,0,0,1,6.14,465l6.22-6.14a16.31,16.31,0,0,0,3.81,2.81,11.27,11.27,0,0,0,4.95.91,11.94,11.94,0,0,0,6-1.42A9.26,9.26,0,0,0,31,457a15.34,15.34,0,0,0,1.33-6.7v-38h9.35Z" transform="matrix(1, 0, 0, 1, 60.267887, 190.891357)" style="fill: rgb(30, 64, 121);"/>
  <path class="cls-1" d="M80.93,471H72.26v-4.48a14.92,14.92,0,0,1-5,3.45,18.26,18.26,0,0,1-6.64,1,21.57,21.57,0,0,1-6.9-1,12.53,12.53,0,0,1-4.9-3,13,13,0,0,1-3.47-9.43A12.45,12.45,0,0,1,47.05,451a11.42,11.42,0,0,1,5.14-4.44A19.46,19.46,0,0,1,60.46,445H72.09v-3.12q0-4.22-2.28-6.19c-1.53-1.32-4-2-7.32-2a14.26,14.26,0,0,0-5.73.92,10.83,10.83,0,0,0-3.91,3.29l-5.8-5.45a16.49,16.49,0,0,1,6.6-5,25.45,25.45,0,0,1,9.18-1.41q18.11,0,18.1,15.1Zm-8.84-16.36V451.1H61.77a9,9,0,0,0-5.86,1.65,5.74,5.74,0,0,0-2,4.7q0,6.21,8,6.22a19.72,19.72,0,0,0,4.74-.49,8,8,0,0,0,3.51-2Q72.1,459.27,72.09,454.66Z" transform="matrix(1, 0, 0, 1, 60.267887, 190.891357)" style="fill: rgb(30, 64, 121);"/>
  <path class="cls-1" d="M100.36,471H97.67q-6,0-9-3.44a12.69,12.69,0,0,1-3-8.69V412.34h8.84v46a5.87,5.87,0,0,0,1.06,3.87c.7.83,1.93,1.25,3.68,1.25h1.13Z" transform="matrix(1, 0, 0, 1, 60.267887, 190.891357)" style="fill: rgb(30, 64, 121);"/>
  <path class="cls-1" d="M139.66,471H131v-5.2A14.1,14.1,0,0,1,127.6,469a12.48,12.48,0,0,1-3.72,1.59,19.43,19.43,0,0,1-4.53.48,17.24,17.24,0,0,1-6.07-1,12.34,12.34,0,0,1-7.82-7.89,26.36,26.36,0,0,1-1.42-6.2,79.61,79.61,0,0,1,0-14.7,26,26,0,0,1,1.42-6.15,13.62,13.62,0,0,1,3.15-5,12.73,12.73,0,0,1,4.65-2.9,18.59,18.59,0,0,1,12.46.07,13.13,13.13,0,0,1,5.1,3.87v-18.7h8.84Zm-8.84-22.48a36.91,36.91,0,0,0-.68-7.62,9.39,9.39,0,0,0-2.69-5,9.7,9.7,0,0,0-11.52,0,9.32,9.32,0,0,0-2.71,5,36.57,36.57,0,0,0-.68,7.6,36.94,36.94,0,0,0,.68,7.63,9.55,9.55,0,0,0,2.71,5.07,8.09,8.09,0,0,0,5.79,1.92q5.41,0,7.26-3.87T130.82,448.54Z" transform="matrix(1, 0, 0, 1, 60.267887, 190.891357)" style="fill: rgb(30, 64, 121);"/>
  <path class="cls-1" d="M181.12,451.1H152.61a15,15,0,0,0,1.32,6.58,9.72,9.72,0,0,0,3.78,4.23,11.6,11.6,0,0,0,6.11,1.5,14.48,14.48,0,0,0,5.88-1,17.68,17.68,0,0,0,4.78-3.47l5.63,5.24a24.53,24.53,0,0,1-7.29,5.23,22.85,22.85,0,0,1-9.19,1.62,24.24,24.24,0,0,1-7.85-1.22,16.22,16.22,0,0,1-6.29-3.89,18,18,0,0,1-4.15-7,32.2,32.2,0,0,1-1.48-10.41,28.78,28.78,0,0,1,2.31-12.09,17.38,17.38,0,0,1,6.5-7.7,17.88,17.88,0,0,1,9.82-2.67,18.32,18.32,0,0,1,10,2.67,16.85,16.85,0,0,1,6.44,7.46,26.15,26.15,0,0,1,2.2,11ZM172.37,445a17.1,17.1,0,0,0-1.19-6,8.89,8.89,0,0,0-3.32-4.07,9.39,9.39,0,0,0-5.35-1.52,9.53,9.53,0,0,0-5.35,1.52,9.06,9.06,0,0,0-3.4,4.07,10.87,10.87,0,0,0-.79,2.39q-.18,1-.36,3.57Z" transform="matrix(1, 0, 0, 1, 60.267887, 190.891357)" style="fill: rgb(30, 64, 121);"/>
  <path class="cls-1" d="M222.59,451.1H194.08a15.14,15.14,0,0,0,1.31,6.58,9.8,9.8,0,0,0,3.79,4.23,11.6,11.6,0,0,0,6.11,1.5,14.48,14.48,0,0,0,5.88-1,17.83,17.83,0,0,0,4.78-3.47l5.63,5.24a24.53,24.53,0,0,1-7.29,5.23A22.85,22.85,0,0,1,205.1,471a24.24,24.24,0,0,1-7.85-1.22,16.14,16.14,0,0,1-6.29-3.89,18,18,0,0,1-4.15-7,32.2,32.2,0,0,1-1.48-10.41,29,29,0,0,1,2.3-12.09,17.44,17.44,0,0,1,6.5-7.7,17.91,17.91,0,0,1,9.83-2.67,18.32,18.32,0,0,1,10,2.67,16.91,16.91,0,0,1,6.44,7.46,26.15,26.15,0,0,1,2.2,11ZM213.84,445a17.1,17.1,0,0,0-1.19-6,8.89,8.89,0,0,0-3.32-4.07,9.39,9.39,0,0,0-5.35-1.52,9.53,9.53,0,0,0-5.35,1.52,9.15,9.15,0,0,0-3.41,4.07,11.34,11.34,0,0,0-.78,2.39,34.18,34.18,0,0,0-.36,3.57Z" transform="matrix(1, 0, 0, 1, 60.267887, 190.891357)" style="fill: rgb(30, 64, 121);"/>
  <path class="cls-2" d="M98.6,602.29a36.58,36.58,0,0,1-4.76,4.94A34.37,34.37,0,0,1,86,612.29a56.11,56.11,0,0,1-11.53,3.94,69.22,69.22,0,0,1-15.8,1.6,48.8,48.8,0,0,1-18.7-3.5,40.64,40.64,0,0,1-14.61-10.11,46.34,46.34,0,0,1-9.48-16.28,66.87,66.87,0,0,1-3.38-22.09v-7.13a73.59,73.59,0,0,1,3.05-22.05,46.16,46.16,0,0,1,8.77-16.39,37.2,37.2,0,0,1,14-10.19A47.65,47.65,0,0,1,57,506.59a52.47,52.47,0,0,1,17.25,2.57,35.61,35.61,0,0,1,12.42,7.17,33.48,33.48,0,0,1,8,11,48.36,48.36,0,0,1,3.87,13.94H80.09a32,32,0,0,0-2.23-7.8,19.07,19.07,0,0,0-4.28-6.18,19.33,19.33,0,0,0-6.69-4.08,26.88,26.88,0,0,0-9.48-1.49,25.34,25.34,0,0,0-11.49,2.45,21.42,21.42,0,0,0-8.1,7.18A33.94,33.94,0,0,0,33,542.92a69.74,69.74,0,0,0-1.59,15.65v7.28a58.6,58.6,0,0,0,1.93,15.81,33.7,33.7,0,0,0,5.54,11.56,23.84,23.84,0,0,0,8.77,7.13,26.94,26.94,0,0,0,11.71,2.46,47,47,0,0,0,8.29-.63,30.26,30.26,0,0,0,5.84-1.6,17.15,17.15,0,0,0,3.9-2.12,20,20,0,0,0,2.5-2.19v-21.2H57.56V560.8h41Z" transform="matrix(1, 0, 0, 1, 60.267887, 190.891357)" style="fill: rgb(88, 89, 91);"/>
  <path class="cls-2" d="M153.56,552.4c-1.19-.2-2.4-.35-3.61-.45s-2.47-.15-3.76-.15q-6.54,0-10.63,2.53a15.55,15.55,0,0,0-6.1,7v55H111.4V535.89h17.25l.44,9a23.48,23.48,0,0,1,7.55-7.7,19.7,19.7,0,0,1,10.6-2.79,20.7,20.7,0,0,1,3.53.34,14.73,14.73,0,0,1,2.86.7Z" transform="matrix(1, 0, 0, 1, 60.267887, 190.891357)" style="fill: rgb(88, 89, 91);"/>
  <path class="cls-2" d="M152.82,575.37a49.69,49.69,0,0,1,2.56-16.24,38.63,38.63,0,0,1,7.36-13,33.73,33.73,0,0,1,11.72-8.62,37.52,37.52,0,0,1,15.68-3.13A38.31,38.31,0,0,1,206,537.53a33.54,33.54,0,0,1,11.79,8.62,38.21,38.21,0,0,1,7.32,13,50.49,50.49,0,0,1,2.53,16.24v1.56a50.94,50.94,0,0,1-2.53,16.29,37.79,37.79,0,0,1-7.32,13A33.49,33.49,0,0,1,206,614.74a41.76,41.76,0,0,1-31.53,0,33.49,33.49,0,0,1-11.75-8.55,38.2,38.2,0,0,1-7.36-13,50.12,50.12,0,0,1-2.56-16.29Zm18.07,1.56A45.71,45.71,0,0,0,172,587.19a25.61,25.61,0,0,0,3.5,8.44A18.31,18.31,0,0,0,199,601.32a17.11,17.11,0,0,0,6-5.69,26.71,26.71,0,0,0,3.49-8.44,44,44,0,0,0,1.15-10.26v-1.56a43.25,43.25,0,0,0-1.15-10.15,26.32,26.32,0,0,0-3.53-8.4,18.33,18.33,0,0,0-6.06-5.76,17,17,0,0,0-8.74-2.16,16.56,16.56,0,0,0-8.66,2.16,18.47,18.47,0,0,0-6,5.76,25.84,25.84,0,0,0-3.5,8.4,44.92,44.92,0,0,0-1.11,10.15Z" transform="matrix(1, 0, 0, 1, 60.267887, 190.891357)" style="fill: rgb(88, 89, 91);"/>
  <path class="cls-2" d="M307.48,591.43l12.79-55.54h17.62L316,616.34H301.08L283.83,561.1l-16.95,55.24H252l-22-80.45h17.63l13,55,16.5-55h13.61Z" transform="matrix(1, 0, 0, 1, 60.267887, 190.891357)" style="fill: rgb(88, 89, 91);"/>
</svg>