<?xml version="1.0" encoding="UTF-8" standalone="no"?>
<!DOCTYPE svg PUBLIC "-//W3C//DTD SVG 20010904//EN"
              "http://www.w3.org/TR/2001/REC-SVG-20010904/DTD/svg10.dtd">

<svg xmlns="http://www.w3.org/2000/svg"
     width="11.1111in" height="11.1111in"
     viewBox="0 0 1000 1000">
  <path id="Selection"
        fill="none" stroke="black" stroke-width="1"
        d="M 32.00,418.00
           C 32.00,418.00 32.00,444.00 32.00,444.00
             32.00,447.97 32.30,455.45 31.28,459.00
             28.42,468.97 20.40,469.57 13.00,464.00
             11.65,464.98 10.30,465.85 9.16,467.11
             4.99,471.75 8.31,474.33 13.00,476.03
             17.38,477.63 26.74,477.39 31.00,475.44
             39.33,471.63 41.90,464.57 42.00,456.00
             42.00,456.00 42.00,418.00 42.00,418.00
             42.00,418.00 32.00,418.00 32.00,418.00 Z
           M 85.00,418.00
           C 85.00,418.00 85.00,462.00 85.00,462.00
             85.05,466.23 85.39,470.48 88.42,473.77
             91.88,477.55 96.35,477.00 101.00,477.00
             101.00,477.00 101.00,469.00 101.00,469.00
             95.00,467.18 95.04,464.74 95.00,459.00
             95.00,459.00 95.00,418.00 95.00,418.00
             95.00,418.00 85.00,418.00 85.00,418.00 Z
           M 130.00,418.00
           C 130.00,418.00 130.00,435.00 130.00,435.00
             126.45,432.84 125.21,432.24 121.00,432.04
             116.44,431.82 111.84,431.99 108.39,435.39
             101.22,442.45 101.06,466.47 108.39,473.44
             111.07,476.00 114.42,476.80 118.00,476.96
             124.07,477.23 126.17,476.64 131.00,473.00
             131.00,473.00 131.00,477.00 131.00,477.00
             131.00,477.00 140.00,477.00 140.00,477.00
             140.00,477.00 140.00,418.00 140.00,418.00
             140.00,418.00 130.00,418.00 130.00,418.00 Z
           M 175.00,464.00
           C 172.55,465.48 169.75,467.41 167.00,468.18
             159.07,470.42 154.18,464.07 153.00,457.00
             153.00,457.00 182.00,457.00 182.00,457.00
             181.91,452.95 181.27,446.77 179.87,443.00
             175.62,431.58 160.52,428.24 151.17,435.11
             141.25,442.40 140.55,464.33 149.33,472.47
             154.38,477.16 164.56,478.13 171.00,476.44
             179.66,474.17 180.71,470.30 175.00,464.00 Z
           M 216.00,464.00
           C 213.42,465.57 209.95,468.06 207.00,468.57
             199.54,469.84 195.69,463.42 195.00,457.00
             195.00,457.00 223.00,457.00 223.00,457.00
             223.00,451.57 223.29,448.25 221.29,443.00
             216.26,429.84 199.63,429.04 192.09,435.39
             182.26,443.68 182.05,466.82 193.02,474.30
             197.67,477.47 207.70,477.80 213.00,476.20
             222.20,473.43 222.95,469.94 216.00,464.00 Z
           M 47.00,440.00
           C 48.68,441.04 51.00,442.80 53.00,442.86
             55.27,442.93 57.20,441.07 60.00,440.44
             67.25,438.80 72.06,442.62 71.81,450.75
             65.23,450.75 54.52,449.31 49.21,453.65
             42.61,459.04 44.01,470.81 51.02,475.15
             56.95,478.82 69.56,475.44 72.00,474.00
             72.00,477.56 70.81,477.00 81.00,477.00
             81.00,477.00 81.00,448.00 81.00,448.00
             80.98,444.33 81.05,441.29 78.99,438.04
             77.49,435.66 75.60,434.18 73.00,433.15
             67.93,431.14 54.53,431.27 50.15,434.70
             47.95,436.41 47.75,437.52 47.00,440.00 Z
           M 121.00,440.53
           C 128.39,441.19 129.90,445.29 130.00,452.00
             130.08,457.99 130.67,466.78 123.00,468.34
             117.86,469.38 114.64,465.55 113.53,461.00
             111.73,453.64 112.25,442.53 121.00,440.53 Z
           M 172.00,450.00
           C 172.00,450.00 153.00,450.00 153.00,450.00
             155.13,438.82 164.11,438.11 168.58,442.43
             170.69,444.47 171.35,447.27 172.00,450.00 Z
           M 213.00,450.00
           C 213.00,450.00 195.00,450.00 195.00,450.00
             196.48,436.13 211.48,436.91 213.00,450.00 Z
           M 72.00,457.06
           C 71.89,459.32 71.83,461.76 70.97,463.96
             68.95,469.11 60.60,470.87 56.43,467.26
             53.15,464.41 54.66,460.20 58.11,458.31
             59.30,457.66 60.66,457.37 62.00,457.06
             62.00,457.06 68.00,457.06 68.00,457.06
             68.00,457.06 72.00,457.06 72.00,457.06 Z
           M 99.82,491.82" />
</svg>
