<svg id="Layer_1" data-name="Layer 1" xmlns="http://www.w3.org/2000/svg" viewBox="0 0 1000 1000"><title>Jaldee_features logos</title><text transform="translate(302.35 633.34)" style="font-size:180.27999877929688px;fill:#58595b;font-family:Roboto-Medium, Roboto;font-weight:500;letter-spacing:-0.04634988400171649em">P<tspan x="106.87" y="0" style="letter-spacing:-0.03999854420249805em">oS</tspan></text><path d="M379,439.57q0,14.3-6.24,24.58a41,41,0,0,1-17,15.7,51.76,51.76,0,0,1-23.67,5.42A58.89,58.89,0,0,1,319,483.86a38.76,38.76,0,0,1-11.21-4.42,50.31,50.31,0,0,1-9.9-7.87l14.2-14a36.45,36.45,0,0,0,8.7,6.42q4.14,2.09,11.3,2.08a27.4,27.4,0,0,0,13.67-3.24,21.15,21.15,0,0,0,8.79-9.55,35,35,0,0,0,3-15.3V351.23H379Z" style="fill:#1e4079"/><path d="M468.72,485.27h-19.8V475a34.14,34.14,0,0,1-11.5,7.88c-4,1.57-9.05,2.37-15.17,2.37A48.72,48.72,0,0,1,406.51,483a28.46,28.46,0,0,1-11.21-6.81q-7.92-8.21-7.92-21.54a28.56,28.56,0,0,1,4-15.12,26.23,26.23,0,0,1,11.74-10.15q7.77-3.62,18.88-3.62h26.57v-7.12q0-9.63-5.21-14.15T426.6,400q-8.4,0-13.09,2.11a24.8,24.8,0,0,0-8.94,7.51l-13.23-12.44q6.86-8.16,15.07-11.37t21-3.2q41.36,0,41.35,34.49Zm-20.19-37.39v-8.12H425q-8.79,0-13.38,3.77T407,454.25q0,14.21,18.36,14.2a44.6,44.6,0,0,0,10.82-1.11,18.1,18.1,0,0,0,8-4.59Q448.53,458.42,448.53,447.88Z" style="fill:#1e4079"/><path d="M513.1,485.27H507q-13.63,0-20.53-7.88t-6.91-19.85V351.23H499.7V456.38c0,4,.8,6.94,2.42,8.84s4.41,2.85,8.4,2.85h2.58Z" style="fill:#1e4079"/><path d="M602.86,485.27H583.05V473.38a32.77,32.77,0,0,1-7.73,7.15,28.15,28.15,0,0,1-8.5,3.62,43.67,43.67,0,0,1-10.34,1.12,39,39,0,0,1-13.86-2.42,28.06,28.06,0,0,1-17.87-18,59.28,59.28,0,0,1-3.24-14.15,183.44,183.44,0,0,1,0-33.58,58.48,58.48,0,0,1,3.24-14.05,31.08,31.08,0,0,1,7.19-11.5,29.25,29.25,0,0,1,10.63-6.62,39,39,0,0,1,13.72-2.36A39.66,39.66,0,0,1,571,385.09a29.93,29.93,0,0,1,11.65,8.84v-42.7h20.19Zm-20.19-51.35a84.2,84.2,0,0,0-1.55-17.42A21.39,21.39,0,0,0,575,405q-4.59-4.29-13.09-4.29t-13.23,4.34a21.51,21.51,0,0,0-6.19,11.48,99,99,0,0,0,0,34.78,21.74,21.74,0,0,0,6.19,11.57q4.64,4.39,13.23,4.4,12.38,0,16.57-8.83T582.67,433.92Z" style="fill:#1e4079"/><path d="M697.57,439.76H632.46a34.36,34.36,0,0,0,3,15,22.35,22.35,0,0,0,8.65,9.67q5.65,3.42,14,3.42t13.43-2.31a40.37,40.37,0,0,0,10.92-7.93l12.85,12a56,56,0,0,1-16.64,11.94q-8.42,3.72-21,3.72a55.49,55.49,0,0,1-17.94-2.81,36.56,36.56,0,0,1-14.37-8.89,40.87,40.87,0,0,1-9.48-15.94q-3.37-9.86-3.38-23.76,0-16.14,5.27-27.63a39.82,39.82,0,0,1,14.85-17.59q9.57-6.09,22.44-6.08,13.14,0,22.82,6.08a38.62,38.62,0,0,1,14.7,17.05q5,11,5,25.17Zm-20-14a39.18,39.18,0,0,0-2.71-13.62,20.41,20.41,0,0,0-7.58-9.28,21.47,21.47,0,0,0-12.23-3.47,21.74,21.74,0,0,0-12.22,3.47,20.75,20.75,0,0,0-7.77,9.28,24.94,24.94,0,0,0-1.79,5.46,80.19,80.19,0,0,0-.82,8.16Z" style="fill:#1e4079"/><path d="M792.29,439.76H727.17a34.36,34.36,0,0,0,3,15,22.35,22.35,0,0,0,8.65,9.67q5.64,3.42,14,3.42t13.43-2.31a40.19,40.19,0,0,0,10.91-7.93l12.85,12a55.87,55.87,0,0,1-16.63,11.94q-8.42,3.72-21,3.72a55.59,55.59,0,0,1-18-2.81A36.59,36.59,0,0,1,720,473.57a40.87,40.87,0,0,1-9.48-15.94q-3.39-9.86-3.38-23.76,0-16.14,5.27-27.63a39.86,39.86,0,0,1,14.84-17.59q9.59-6.09,22.44-6.08,13.15,0,22.83,6.08a38.62,38.62,0,0,1,14.7,17.05,59.81,59.81,0,0,1,5,25.17Zm-20-14a39,39,0,0,0-2.7-13.62,20.37,20.37,0,0,0-7.59-9.28,21.42,21.42,0,0,0-12.22-3.47,21.71,21.71,0,0,0-12.22,3.47,20.83,20.83,0,0,0-7.78,9.28,24.85,24.85,0,0,0-1.78,5.46q-.43,2.37-.83,8.16Z" style="fill:#1e4079"/></svg>