<svg id="Layer_1" data-name="Layer 1" xmlns="http://www.w3.org/2000/svg" viewBox="0 0 1000 1000"><title>Jaldee_features logos</title><text transform="translate(178.96 634.34)" style="font-size:180.27999877929688px;fill:#58595b;font-family:Roboto-Medium, Roboto;font-weight:500;letter-spacing:-0.03999854420249805em">Business</text><path d="M266.05,439.57q0,14.3-6.23,24.58a41.08,41.08,0,0,1-17,15.7,51.76,51.76,0,0,1-23.67,5.42,59,59,0,0,1-13.09-1.41,38.88,38.88,0,0,1-11.21-4.42,50.31,50.31,0,0,1-9.9-7.87l14.2-14a36.45,36.45,0,0,0,8.7,6.42Q212,466,219.19,466a27.4,27.4,0,0,0,13.67-3.24,21.1,21.1,0,0,0,8.79-9.55,35,35,0,0,0,3-15.3V351.23h21.35Z" style="fill:#1e4079"/><path d="M355.82,485.27H336V475a34.1,34.1,0,0,1-11.49,7.88c-4,1.57-9,2.37-15.17,2.37A48.74,48.74,0,0,1,293.6,483a28.6,28.6,0,0,1-11.21-6.81q-7.92-8.21-7.92-21.54a28.56,28.56,0,0,1,4-15.12,26.23,26.23,0,0,1,11.74-10.15q7.77-3.62,18.89-3.62h26.57v-7.12q0-9.63-5.22-14.15T313.7,400q-8.42,0-13.1,2.11a24.78,24.78,0,0,0-8.93,7.51l-13.24-12.44a37.9,37.9,0,0,1,15.07-11.37q8.22-3.21,21-3.2,41.34,0,41.35,34.49Zm-20.19-37.39v-8.12H312.05q-8.79,0-13.38,3.77t-4.59,10.72q0,14.21,18.36,14.2a44.6,44.6,0,0,0,10.82-1.11,18.13,18.13,0,0,0,8-4.59Q335.63,458.42,335.63,447.88Z" style="fill:#1e4079"/><path d="M400.2,485.27H394q-13.62,0-20.53-7.88t-6.91-19.85V351.23h20.19V456.38q0,6,2.42,8.84t8.4,2.85h2.59Z" style="fill:#1e4079"/><path d="M490,485.27H470.14V473.38a32.74,32.74,0,0,1-7.72,7.15,28.31,28.31,0,0,1-8.51,3.62,43.58,43.58,0,0,1-10.33,1.12,39.11,39.11,0,0,1-13.87-2.42,28.11,28.11,0,0,1-17.87-18,60.26,60.26,0,0,1-3.24-14.15,183.44,183.44,0,0,1,0-33.58,59.45,59.45,0,0,1,3.24-14.05,31,31,0,0,1,7.2-11.5,29.12,29.12,0,0,1,10.62-6.62,39.12,39.12,0,0,1,13.72-2.36,39.67,39.67,0,0,1,14.74,2.52,29.9,29.9,0,0,1,11.64,8.84v-42.7H490Zm-20.19-51.35a84.2,84.2,0,0,0-1.55-17.42A21.38,21.38,0,0,0,462.08,405q-4.59-4.29-13.09-4.29t-13.24,4.34a21.5,21.5,0,0,0-6.18,11.48,98.33,98.33,0,0,0,0,34.78,21.73,21.73,0,0,0,6.18,11.57q4.63,4.39,13.24,4.4,12.36,0,16.57-8.83T469.76,433.92Z" style="fill:#1e4079"/><path d="M584.67,439.76H519.55a34.36,34.36,0,0,0,3,15,22.26,22.26,0,0,0,8.64,9.67q5.65,3.42,14,3.42t13.43-2.31a40.07,40.07,0,0,0,10.92-7.93l12.85,12a55.91,55.91,0,0,1-16.64,11.94q-8.41,3.72-21,3.72a55.49,55.49,0,0,1-17.94-2.81,36.59,36.59,0,0,1-14.36-8.89,40.63,40.63,0,0,1-9.48-15.94q-3.39-9.86-3.39-23.76,0-16.14,5.27-27.63a39.94,39.94,0,0,1,14.85-17.59q9.57-6.09,22.44-6.08,13.15,0,22.83,6.08a38.75,38.75,0,0,1,14.7,17.05,59.81,59.81,0,0,1,5,25.17Zm-20-14A39,39,0,0,0,562,412.13a20.41,20.41,0,0,0-7.58-9.28,21.44,21.44,0,0,0-12.22-3.47,21.71,21.71,0,0,0-12.22,3.47,20.77,20.77,0,0,0-7.78,9.28,25.49,25.49,0,0,0-1.79,5.46q-.43,2.37-.82,8.16Z" style="fill:#1e4079"/><path d="M679.39,439.76H614.27a34.5,34.5,0,0,0,3,15,22.35,22.35,0,0,0,8.65,9.67q5.65,3.42,14,3.42t13.43-2.31a40.37,40.37,0,0,0,10.92-7.93l12.85,12a55.91,55.91,0,0,1-16.64,11.94q-8.41,3.72-21,3.72a55.49,55.49,0,0,1-17.94-2.81,36.63,36.63,0,0,1-14.37-8.89,40.87,40.87,0,0,1-9.48-15.94q-3.37-9.86-3.38-23.76,0-16.14,5.27-27.63a39.82,39.82,0,0,1,14.85-17.59q9.57-6.09,22.44-6.08,13.15,0,22.82,6.08a38.71,38.71,0,0,1,14.71,17.05,59.81,59.81,0,0,1,5,25.17Zm-20-14a39.18,39.18,0,0,0-2.71-13.62,20.41,20.41,0,0,0-7.58-9.28,21.44,21.44,0,0,0-12.22-3.47,21.75,21.75,0,0,0-12.23,3.47,20.75,20.75,0,0,0-7.77,9.28,24.94,24.94,0,0,0-1.79,5.46,80.19,80.19,0,0,0-.82,8.16Z" style="fill:#1e4079"/></svg>