<svg id="Layer_1" data-name="Layer 1" xmlns="http://www.w3.org/2000/svg" viewBox="0 0 1000 1000"><title>Jaldee_features logos</title><path d="M115.46,372.23q0,14.29-6.23,24.58a41,41,0,0,1-17,15.7,51.7,51.7,0,0,1-23.67,5.41,59,59,0,0,1-13.09-1.4,38.7,38.7,0,0,1-11.2-4.42,50.07,50.07,0,0,1-9.91-7.87l14.21-14a36.49,36.49,0,0,0,8.69,6.42q4.16,2.08,11.3,2.08a27.44,27.44,0,0,0,13.68-3.24,21.15,21.15,0,0,0,8.79-9.55,35,35,0,0,0,3-15.3V283.89h21.35Z" style="fill:#1e4079"/><path d="M205.23,417.92H185.42V407.68a34.25,34.25,0,0,1-11.49,7.88q-6,2.35-15.17,2.36A48.8,48.8,0,0,1,143,415.65a28.6,28.6,0,0,1-11.21-6.81q-7.92-8.2-7.92-21.54a28.51,28.51,0,0,1,4-15.12A26.28,26.28,0,0,1,139.58,362q7.78-3.61,18.89-3.62H185v-7.12q0-9.63-5.22-14.15t-16.71-4.53q-8.42,0-13.09,2.12a24.62,24.62,0,0,0-8.94,7.51L127.84,329.8q6.87-8.16,15.07-11.37t21-3.21q41.35,0,41.35,34.49ZM185,380.53v-8.11H161.46q-8.79,0-13.38,3.77t-4.59,10.72q0,14.2,18.36,14.2A44.55,44.55,0,0,0,172.67,400a18.13,18.13,0,0,0,8-4.59Q185,391.06,185,380.53Z" style="fill:#1e4079"/><path d="M249.61,417.92h-6.16q-13.62,0-20.53-7.87T216,390.2V283.89h20.2V389q0,6,2.41,8.84t8.41,2.85h2.58Z" style="fill:#1e4079"/><path d="M339.36,417.92h-19.8V406a32.77,32.77,0,0,1-7.73,7.15,28.51,28.51,0,0,1-8.5,3.62A43.76,43.76,0,0,1,293,417.92a39.14,39.14,0,0,1-13.87-2.41,28.17,28.17,0,0,1-17.87-18A60.26,60.26,0,0,1,258,383.34a183.44,183.44,0,0,1,0-33.58,59.34,59.34,0,0,1,3.24-14.05,30.89,30.89,0,0,1,7.2-11.5,29.16,29.16,0,0,1,10.63-6.62,39,39,0,0,1,13.72-2.37,39.65,39.65,0,0,1,14.73,2.53,29.73,29.73,0,0,1,11.64,8.84v-42.7h20.19Zm-20.19-51.35a84.16,84.16,0,0,0-1.55-17.41,21.38,21.38,0,0,0-6.13-11.48q-4.59-4.29-13.09-4.29t-13.24,4.34A21.46,21.46,0,0,0,279,349.21,98.33,98.33,0,0,0,279,384a21.73,21.73,0,0,0,6.18,11.57q4.63,4.4,13.24,4.39,12.36,0,16.57-8.82T319.17,366.57Z" style="fill:#1e4079"/><path d="M434.08,372.42H369a34.36,34.36,0,0,0,3,15,22.24,22.24,0,0,0,8.64,9.66q5.65,3.43,14,3.43T408,398.21a39.79,39.79,0,0,0,10.92-7.92l12.85,12a55.68,55.68,0,0,1-16.64,11.93q-8.42,3.72-21,3.72a55.57,55.57,0,0,1-17.94-2.8,36.71,36.71,0,0,1-14.36-8.89,40.7,40.7,0,0,1-9.48-15.94Q349,380.44,349,366.52q0-16.12,5.28-27.63a39.89,39.89,0,0,1,14.84-17.58q9.59-6.09,22.44-6.09,13.16,0,22.83,6.09a38.62,38.62,0,0,1,14.7,17.05,59.81,59.81,0,0,1,5,25.17Zm-20-14a39,39,0,0,0-2.7-13.62,20.43,20.43,0,0,0-7.59-9.28A21.35,21.35,0,0,0,391.57,332a21.64,21.64,0,0,0-12.22,3.48,20.83,20.83,0,0,0-7.78,9.28,25.49,25.49,0,0,0-1.79,5.46c-.29,1.57-.56,4.3-.82,8.16Z" style="fill:#1e4079"/><path d="M528.8,372.42H463.68a34.5,34.5,0,0,0,3,15,22.26,22.26,0,0,0,8.65,9.66q5.65,3.43,14,3.43t13.43-2.32a39.94,39.94,0,0,0,10.92-7.92l12.85,12a55.68,55.68,0,0,1-16.64,11.93q-8.41,3.72-21,3.72a55.49,55.49,0,0,1-17.94-2.8,36.71,36.71,0,0,1-14.36-8.89,40.7,40.7,0,0,1-9.48-15.94q-3.39-9.85-3.39-23.77,0-16.12,5.27-27.63a40,40,0,0,1,14.85-17.58q9.57-6.09,22.44-6.09,13.15,0,22.83,6.09a38.75,38.75,0,0,1,14.7,17.05,59.81,59.81,0,0,1,5,25.17Zm-20-14a39,39,0,0,0-2.71-13.62,20.41,20.41,0,0,0-7.58-9.28A21.37,21.37,0,0,0,486.29,332a21.64,21.64,0,0,0-12.22,3.48,20.71,20.71,0,0,0-7.78,9.28,25.49,25.49,0,0,0-1.79,5.46c-.29,1.57-.56,4.3-.82,8.16Z" style="fill:#1e4079"/><text transform="translate(19.76 572.29)" style="font-size:180px;fill:#58595b;font-family:Roboto-Medium, Roboto;font-weight:500;letter-spacing:-0.06343858506944444em">A<tspan x="108.38" y="0" style="letter-spacing:-0.04000108506944444em">ppointment</tspan></text></svg>