<?xml version="1.0" encoding="utf-8"?>
<!-- Generator: Adobe Illustrator 18.0.0, SVG Export Plug-In . SVG Version: 6.00 Build 0)  -->
<!DOCTYPE svg PUBLIC "-//W3C//DTD SVG 1.1//EN" "http://www.w3.org/Graphics/SVG/1.1/DTD/svg11.dtd">
<svg version="1.1" id="Layer_1" xmlns="http://www.w3.org/2000/svg" xmlns:xlink="http://www.w3.org/1999/xlink" x="0px" y="0px"
	 viewBox="0 0 1000 1000" enable-background="new 0 0 1000 1000" xml:space="preserve">
<g>
	<g>
		<g>
			<g>
				<path fill="#F1B51C" d="M254.5,483.6c-0.4,0.4-0.9,0.6-1.4,0.5c-0.6,0-1.1-0.3-1.4-0.7l-26.8-29.6l-0.4-0.4
					c-0.5-0.4-1.1-0.7-1.7-0.7c-0.8,0-1.5,0.2-2,0.7l-0.1,0.1l-17.6,16c0,0-0.2,0.2-0.2,0.2c-0.5,0.5-0.8,1.1-0.8,1.8
					c0,0.8,0.2,1.5,0.7,2l0.1,0.1l44.4,48.9c0.2,0.3,0.4,0.5,0.7,0.8c0.8,0.8,1.9,1.3,3.1,1.3c1.4,0.1,2.7-0.4,3.7-1.2l0.2-0.2
					l103.5-93c0,0,0,0,0,0c-5.5-8.3-11.9-15.9-19.1-22.7c0,0,0,0,0,0L254.5,483.6z"/>
				<path fill="#F1B51C" d="M361.1,434.8L338.6,455c0,0,0,0,0,0c5.9,11.4,10,24.9,10.9,38.5c0,0,0,0,0,0H344c-3.6,0-6.7,2.7-6.8,6.3
					c-0.1,3.7,2.8,6.7,6.5,6.7h5.8c0,0,0,0,0,0c-3.2,48.4-41.9,86.9-90.1,90.1c0,0,0,0,0,0v-5.5c0-3.6-2.7-6.7-6.3-6.8
					c-3.7-0.1-6.7,2.8-6.7,6.5v5.8c0,0,0,0,0,0c-48.3-3.2-86.9-41.9-90.1-90.1c0,0,0,0,0,0h5.5c3.6,0,6.7-2.7,6.8-6.3
					c0.1-3.7-2.8-6.7-6.5-6.7h-5.8c0,0,0,0,0,0c3.2-48.4,41.9-86.9,90.1-90.1c0,0,0,0,0,0v5.5c0,3.6,2.7,6.7,6.3,6.8
					c3.7,0.1,6.7-2.8,6.7-6.5v-5.8c0,0,0,0,0,0c19.8,1.4,38.4,9.7,53.1,21c0,0,0,0,0,0l22.3-19.9c0,0,0,0,0,0
					c-21.8-18.4-50.5-30.7-81.2-30.9c-69.8-0.4-126.7,55.9-127.1,125.7c-0.4,69.8,55.8,126.8,125.6,127.2
					c69.8,0.4,126.7-55.9,127.1-125.7C379.5,477,372.5,453.9,361.1,434.8C361.1,434.8,361.1,434.8,361.1,434.8z"/>
			</g>
		</g>
		<path fill="#1E4079" d="M362.3,426.6l16.3-14.6c1.4-1.3,1.7-3.5,0.5-5c-4.4-6-9.3-11.7-14.5-17c-1.4-1.4-3.7-1.5-5.1-0.2
			l-16.3,14.6c0,0,0,0,0,0C350.2,411.1,356.6,418.5,362.3,426.6C362.2,426.6,362.3,426.6,362.3,426.6z"/>
	</g>
	<g>
		<g>
			<path fill="#1E4079" d="M481.1,486.7c0,9-2,16.7-5.9,23.2c-3.9,6.5-9.3,11.4-16,14.8c-6.7,3.4-14.2,5.1-22.3,5.1
				c-4.4,0-8.5-0.4-12.3-1.3c-3.9-0.9-7.4-2.3-10.6-4.2c-3.2-1.9-6.3-4.4-9.3-7.4l13.4-13.2c2.9,2.7,5.6,4.8,8.2,6.1
				c2.6,1.3,6.2,2,10.7,2c5,0,9.3-1,12.9-3.1c3.6-2,6.4-5,8.3-9c1.9-4,2.9-8.8,2.9-14.4v-81.8h20.1V486.7z"/>
			<path fill="#1E4079" d="M565.8,529.8h-18.7v-9.7c-3.5,3.5-7.1,5.9-10.8,7.4c-3.8,1.5-8.5,2.2-14.3,2.2c-5.7,0-10.7-0.7-14.9-2.1
				c-4.2-1.4-7.7-3.6-10.6-6.4c-5-5.2-7.5-11.9-7.5-20.3c0-5.4,1.2-10.2,3.7-14.3c2.5-4.1,6.2-7.3,11.1-9.6
				c4.9-2.3,10.8-3.4,17.8-3.4h25.1v-6.7c0-6.1-1.6-10.5-4.9-13.3c-3.3-2.8-8.5-4.3-15.8-4.3c-5.3,0-9.4,0.7-12.4,2
				c-2.9,1.3-5.8,3.7-8.4,7.1l-12.5-11.7c4.3-5.1,9.1-8.7,14.2-10.7c5.2-2,11.8-3,19.8-3c26,0,39,10.8,39,32.5V529.8z M546.7,494.5
				v-7.7h-22.2c-5.5,0-9.7,1.2-12.6,3.6c-2.9,2.4-4.3,5.7-4.3,10.1c0,8.9,5.8,13.4,17.3,13.4c4.1,0,7.5-0.3,10.2-1
				c2.7-0.7,5.3-2.1,7.6-4.3C545.3,505.8,546.7,501.1,546.7,494.5z"/>
			<path fill="#1E4079" d="M607.6,529.8h-5.8c-8.6,0-15-2.5-19.4-7.4c-4.3-5-6.5-11.2-6.5-18.7V403.3h19v99.2c0,3.8,0.8,6.5,2.3,8.3
				c1.5,1.8,4.2,2.7,7.9,2.7h2.4V529.8z"/>
			<path fill="#1E4079" d="M692.3,529.8h-18.7v-11.2c-2.4,2.9-4.8,5.2-7.3,6.7c-2.5,1.6-5.2,2.7-8,3.4c-2.9,0.7-6.1,1-9.8,1
				c-4.7,0-9-0.8-13.1-2.3c-4-1.5-7.4-3.6-10.1-6.1c-3-3-5.2-6.6-6.8-10.9c-1.5-4.3-2.6-8.7-3.1-13.4c-0.5-4.6-0.7-9.9-0.7-15.9
				c0-6,0.2-11.2,0.7-15.8c0.5-4.6,1.5-9,3.1-13.3c1.5-4.3,3.8-7.9,6.8-10.8c2.7-2.7,6-4.8,10-6.2c4-1.5,8.3-2.2,12.9-2.2
				c5.3,0,9.9,0.8,13.9,2.4c4,1.6,7.6,4.4,11,8.3v-40.3h19V529.8z M673.2,481.3c0-6.4-0.5-11.9-1.5-16.4c-1-4.5-2.9-8.1-5.8-10.8
				c-2.9-2.7-7-4.1-12.3-4.1c-5.4,0-9.6,1.4-12.5,4.1c-2.9,2.7-4.9,6.3-5.8,10.8c-1,4.5-1.5,9.9-1.5,16.4c0,6.4,0.5,11.9,1.5,16.4
				c1,4.5,2.9,8.2,5.8,10.9c2.9,2.8,7.1,4.1,12.5,4.1c7.8,0,13-2.8,15.6-8.3C671.9,498.9,673.2,491.2,673.2,481.3z"/>
			<path fill="#1E4079" d="M781.6,486.8h-61.4c0,5.5,0.9,10.3,2.8,14.2c1.9,3.9,4.6,7,8.2,9.1c3.6,2.2,7.9,3.2,13.2,3.2
				c5.2,0,9.4-0.7,12.7-2.2c3.2-1.5,6.7-3.9,10.3-7.5l12.1,11.3c-5.2,5.2-10.4,8.9-15.7,11.3c-5.3,2.3-11.9,3.5-19.8,3.5
				c-6.1,0-11.7-0.9-16.9-2.6c-5.2-1.8-9.7-4.6-13.5-8.4c-3.8-3.8-6.8-8.8-8.9-15c-2.1-6.2-3.2-13.7-3.2-22.4
				c0-10.1,1.7-18.8,5-26.1c3.3-7.2,8-12.8,14-16.6c6-3.8,13.1-5.7,21.2-5.7c8.3,0,15.4,1.9,21.5,5.7c6.1,3.8,10.7,9.2,13.9,16.1
				c3.2,6.9,4.7,14.8,4.7,23.7V486.8z M762.8,473.6c-0.2-4.9-1-9.2-2.6-12.9c-1.5-3.6-3.9-6.6-7.2-8.7c-3.3-2.2-7.1-3.3-11.5-3.3
				c-4.4,0-8.2,1.1-11.5,3.3c-3.3,2.2-5.8,5.1-7.3,8.7c-0.9,1.9-1.4,3.7-1.7,5.1c-0.3,1.5-0.5,4.1-0.8,7.7H762.8z"/>
			<path fill="#1E4079" d="M871,486.8h-61.4c0,5.5,0.9,10.3,2.8,14.2c1.9,3.9,4.6,7,8.2,9.1c3.6,2.2,7.9,3.2,13.2,3.2
				c5.2,0,9.4-0.7,12.7-2.2c3.2-1.5,6.7-3.9,10.3-7.5l12.1,11.3c-5.2,5.2-10.4,8.9-15.7,11.3c-5.3,2.3-11.9,3.5-19.8,3.5
				c-6.1,0-11.7-0.9-16.9-2.6c-5.2-1.8-9.7-4.6-13.5-8.4c-3.8-3.8-6.8-8.8-8.9-15c-2.1-6.2-3.2-13.7-3.2-22.4
				c0-10.1,1.7-18.8,5-26.1c3.3-7.2,8-12.8,14-16.6c6-3.8,13.1-5.7,21.2-5.7c8.3,0,15.4,1.9,21.5,5.7c6.1,3.8,10.7,9.2,13.9,16.1
				c3.2,6.9,4.7,14.8,4.7,23.7V486.8z M852.1,473.6c-0.2-4.9-1-9.2-2.6-12.9c-1.5-3.6-3.9-6.6-7.2-8.7c-3.3-2.2-7.1-3.3-11.5-3.3
				c-4.4,0-8.2,1.1-11.5,3.3c-3.3,2.2-5.8,5.1-7.3,8.7c-0.9,1.9-1.4,3.7-1.7,5.1c-0.3,1.5-0.5,4.1-0.8,7.7H852.1z"/>
		</g>
		<g>
			<path fill="#1E4079" d="M422.7,578.6h-12.2l-2.9,8.3h-4.5l11.7-32.4h3.8L430,587h-4.5L422.7,578.6z M411.7,574.9h9.7l-4.7-13.9
				h-0.1L411.7,574.9z"/>
			<path fill="#1E4079" d="M440.2,579.9l0.4,1.7h0.1l0.4-1.7l5.5-17h4.5l-8.9,24.1h-3.3l-9-24.1h4.5L440.2,579.9z"/>
			<path fill="#1E4079" d="M452.8,574.7c0-3.6,1-6.5,2.9-8.8c1.9-2.3,4.5-3.5,7.9-3.5c3.3,0,6,1.1,7.9,3.4c1.9,2.3,2.9,5.2,2.9,8.8
				v0.5c0,3.6-1,6.5-2.9,8.8c-1.9,2.3-4.6,3.4-7.9,3.4c-3.3,0-6-1.1-7.9-3.4c-1.9-2.3-2.9-5.2-2.9-8.8V574.7z M457.2,575.2
				c0,2.6,0.5,4.7,1.6,6.3c1.1,1.7,2.7,2.5,4.8,2.5c2.1,0,3.7-0.8,4.8-2.5c1.1-1.7,1.6-3.8,1.6-6.3v-0.5c0-2.5-0.5-4.6-1.6-6.3
				c-1.1-1.7-2.7-2.5-4.8-2.5c-2.1,0-3.7,0.8-4.7,2.5c-1.1,1.7-1.6,3.8-1.6,6.3V575.2z"/>
			<path fill="#1E4079" d="M483.5,556.7h-4.4v-4.5h4.4V556.7z M483.5,587h-4.4v-24.1h4.4V587z"/>
			<path fill="#1E4079" d="M488.3,575.4c0-3.9,0.8-7,2.5-9.4c1.7-2.4,4-3.6,7-3.6c1.4,0,2.7,0.3,3.7,0.8s2,1.3,2.8,2.3v-13.2h4.4
				V587h-3.4l-0.7-3c-0.8,1.2-1.8,2-2.9,2.6c-1.2,0.6-2.5,0.9-4,0.9c-2.9,0-5.2-1.1-6.9-3.2s-2.5-4.9-2.5-8.4V575.4z M492.7,575.8
				c0,2.4,0.5,4.4,1.5,5.8c1,1.5,2.5,2.2,4.6,2.2c1.3,0,2.4-0.3,3.3-0.9c0.9-0.6,1.6-1.4,2.2-2.5v-11.2c-0.6-1-1.3-1.8-2.2-2.4
				c-0.9-0.6-2-0.9-3.2-0.9c-2.1,0-3.7,0.9-4.7,2.6c-1,1.7-1.5,4-1.5,6.8V575.8z"/>
			<path fill="#1E4079" d="M531.8,575.7l0.6,4.2l0.1,0l0.8-4.3l5.7-21.2h4.3l5.8,21.2l0.8,4.3h0.1l0.6-4.3l4.6-21.2h4.8l-7.8,32.4
				h-3.9l-6.5-22.5l-0.5-2.9h-0.1l-0.5,2.9l-6.6,22.5h-3.9l-7.8-32.4h4.7L531.8,575.7z"/>
			<path fill="#1E4079" d="M577.1,587c-0.1-0.7-0.3-1.4-0.3-1.9c-0.1-0.6-0.1-1.1-0.1-1.7c-0.8,1.2-1.9,2.1-3.2,2.9
				c-1.3,0.8-2.7,1.2-4.2,1.2c-2.5,0-4.4-0.6-5.7-1.9c-1.3-1.3-2-3.1-2-5.3c0-2.3,0.9-4.1,2.8-5.4c1.9-1.3,4.4-1.9,7.6-1.9h4.8v-2.4
				c0-1.4-0.4-2.5-1.3-3.3c-0.9-0.8-2.1-1.2-3.6-1.2c-1.4,0-2.6,0.4-3.4,1.1c-0.9,0.7-1.3,1.6-1.3,2.6l-4.2,0l0-0.1
				c-0.1-1.8,0.7-3.4,2.5-4.8c1.7-1.5,4-2.2,6.8-2.2c2.7,0,4.9,0.7,6.6,2.1c1.7,1.4,2.5,3.4,2.5,6v11.6c0,0.9,0,1.7,0.1,2.5
				c0.1,0.8,0.3,1.6,0.5,2.4H577.1z M569.8,583.8c1.6,0,3-0.4,4.3-1.2c1.3-0.8,2.1-1.7,2.5-2.8v-3.9h-4.9c-1.8,0-3.2,0.4-4.2,1.3
				c-1.1,0.9-1.6,1.9-1.6,3.1c0,1.1,0.3,1.9,1,2.5C567.6,583.4,568.5,583.8,569.8,583.8z"/>
			<path fill="#1E4079" d="M591.2,556.7h-4.4v-4.5h4.4V556.7z M591.2,587h-4.4v-24.1h4.4V587z"/>
			<path fill="#1E4079" d="M603.1,557.1v5.8h4.6v3.2h-4.6v14.6c0,1.1,0.2,1.9,0.7,2.4c0.5,0.5,1.1,0.7,1.9,0.7c0.3,0,0.5,0,0.8-0.1
				c0.3-0.1,0.6-0.1,0.8-0.2l0.6,3c-0.3,0.3-0.8,0.5-1.4,0.7c-0.6,0.2-1.3,0.3-1.9,0.3c-1.8,0-3.2-0.5-4.2-1.6s-1.6-2.8-1.6-5.1
				v-14.6h-3.8v-3.2h3.8v-5.8H603.1z"/>
			<path fill="#1E4079" d="M616.2,556.7h-4.4v-4.5h4.4V556.7z M616.2,587h-4.4v-24.1h4.4V587z"/>
			<path fill="#1E4079" d="M626,562.9l0.3,3.6c0.8-1.3,1.8-2.3,3-3c1.2-0.7,2.6-1.1,4.1-1.1c2.6,0,4.6,0.8,6,2.3
				c1.4,1.5,2.1,3.9,2.1,7V587h-4.4v-15.1c0-2.1-0.4-3.6-1.3-4.5c-0.8-0.9-2.1-1.3-3.8-1.3c-1.3,0-2.5,0.3-3.4,0.8
				c-0.9,0.5-1.7,1.3-2.2,2.3V587H622v-24.1H626z"/>
			<path fill="#1E4079" d="M646.2,575.4c0-3.9,0.8-7,2.5-9.4c1.7-2.4,4-3.6,6.9-3.6c1.5,0,2.9,0.3,4,0.9c1.2,0.6,2.1,1.5,2.9,2.7
				l0.5-3.1h3.5v24.2c0,3.1-0.9,5.5-2.7,7.1c-1.8,1.7-4.4,2.5-7.8,2.5c-1.2,0-2.4-0.2-3.7-0.5c-1.3-0.3-2.5-0.8-3.5-1.3l0.7-3.4
				c0.8,0.4,1.9,0.8,3.1,1.1s2.4,0.4,3.5,0.4c2.1,0,3.7-0.5,4.7-1.5c1-1,1.5-2.5,1.5-4.4v-2.7c-0.8,1-1.7,1.8-2.8,2.3
				c-1.1,0.5-2.4,0.8-3.8,0.8c-2.9,0-5.2-1.1-6.9-3.2c-1.7-2.1-2.5-4.9-2.5-8.4V575.4z M650.6,575.8c0,2.4,0.5,4.4,1.5,5.8
				c1,1.5,2.5,2.2,4.6,2.2c1.3,0,2.4-0.3,3.3-0.9c0.9-0.6,1.6-1.4,2.2-2.5v-11.1c-0.6-1-1.3-1.8-2.2-2.4c-0.9-0.6-2-0.9-3.3-0.9
				c-2.1,0-3.6,0.9-4.6,2.6c-1,1.7-1.5,4-1.5,6.8V575.8z"/>
			<path fill="#1E4079" d="M687.2,556.7h-4.4v-4.5h4.4V556.7z M687.2,587h-4.4v-24.1h4.4V587z"/>
			<path fill="#1E4079" d="M696.9,562.9l0.3,3.6c0.8-1.3,1.8-2.3,3-3c1.2-0.7,2.6-1.1,4.1-1.1c2.6,0,4.6,0.8,6,2.3
				c1.4,1.5,2.1,3.9,2.1,7V587h-4.4v-15.1c0-2.1-0.4-3.6-1.3-4.5c-0.8-0.9-2.1-1.3-3.8-1.3c-1.3,0-2.5,0.3-3.4,0.8
				c-0.9,0.5-1.7,1.3-2.2,2.3V587H693v-24.1H696.9z"/>
			<path fill="#1E4079" d="M753.7,573.7c0,1.7-0.2,3.3-0.7,4.8c-0.5,1.5-1.2,2.9-2.1,4.1l4.8,4.7l-3,2.9l-4.9-4.7
				c-1,0.7-2.2,1.2-3.4,1.5c-1.2,0.3-2.5,0.5-3.9,0.5c-3.8,0-6.9-1.3-9.2-3.9c-2.4-2.6-3.5-5.9-3.5-9.9v-5.8c0-3.9,1.2-7.2,3.5-9.9
				c2.4-2.6,5.4-3.9,9.2-3.9c3.9,0,7.1,1.3,9.6,3.9c2.5,2.6,3.7,5.9,3.7,9.9V573.7z M749.3,567.8c0-3-0.8-5.4-2.4-7.3
				c-1.6-1.9-3.8-2.8-6.5-2.8c-2.6,0-4.6,0.9-6.1,2.8c-1.5,1.9-2.3,4.3-2.3,7.3v5.8c0,3,0.8,5.4,2.3,7.3c1.5,1.9,3.6,2.8,6.1,2.8
				c2.7,0,4.9-0.9,6.5-2.8c1.6-1.9,2.4-4.3,2.4-7.4V567.8z"/>
			<path fill="#1E4079" d="M774.5,583.4c-0.8,1.3-1.7,2.3-2.9,3c-1.2,0.7-2.6,1-4.1,1c-2.6,0-4.7-0.8-6.1-2.5
				c-1.5-1.7-2.2-4.3-2.2-7.8v-14.2h4.4v14.2c0,2.6,0.4,4.3,1.1,5.3c0.8,1,1.9,1.4,3.5,1.4c1.6,0,2.8-0.3,3.9-0.9
				c1-0.6,1.8-1.5,2.3-2.7v-17.4h4.4V587h-3.9L774.5,583.4z"/>
			<path fill="#1E4079" d="M794.2,587.4c-3.5,0-6.2-1.1-8.1-3.3c-1.9-2.2-2.9-5.1-2.9-8.7v-1c0-3.5,1-6.3,3-8.6
				c2-2.3,4.4-3.4,7.3-3.4c3.2,0,5.6,1,7.2,3c1.6,2,2.4,4.7,2.4,8v2.3h-15.4l-0.1,0.1c0,2.4,0.5,4.4,1.6,5.9
				c1.1,1.5,2.7,2.3,4.9,2.3c1.5,0,2.8-0.2,3.9-0.6c1.1-0.4,2.1-1,2.9-1.7l1.7,2.8c-0.9,0.8-2,1.5-3.4,2.1
				C797.9,587.1,796.2,587.4,794.2,587.4z M793.5,565.9c-1.5,0-2.8,0.6-3.8,1.8c-1,1.2-1.6,2.7-1.8,4.5l0,0.1h10.9v-0.4
				c0-1.7-0.4-3.2-1.3-4.3C796.6,566.5,795.3,565.9,793.5,565.9z"/>
			<path fill="#1E4079" d="M822.4,583.4c-0.8,1.3-1.7,2.3-2.9,3c-1.2,0.7-2.6,1-4.1,1c-2.6,0-4.7-0.8-6.1-2.5
				c-1.5-1.7-2.2-4.3-2.2-7.8v-14.2h4.4v14.2c0,2.6,0.4,4.3,1.1,5.3c0.8,1,1.9,1.4,3.5,1.4c1.6,0,2.8-0.3,3.9-0.9
				c1-0.6,1.8-1.5,2.3-2.7v-17.4h4.4V587h-3.9L822.4,583.4z"/>
			<path fill="#1E4079" d="M842.1,587.4c-3.5,0-6.2-1.1-8.1-3.3c-1.9-2.2-2.9-5.1-2.9-8.7v-1c0-3.5,1-6.3,3-8.6
				c2-2.3,4.4-3.4,7.3-3.4c3.2,0,5.6,1,7.2,3c1.6,2,2.4,4.7,2.4,8v2.3h-15.4l-0.1,0.1c0,2.4,0.5,4.4,1.6,5.9
				c1.1,1.5,2.7,2.3,4.9,2.3c1.5,0,2.8-0.2,3.9-0.6c1.1-0.4,2.1-1,2.9-1.7l1.7,2.8c-0.9,0.8-2,1.5-3.4,2.1
				C845.8,587.1,844.1,587.4,842.1,587.4z M841.4,565.9c-1.5,0-2.8,0.6-3.8,1.8c-1,1.2-1.6,2.7-1.8,4.5l0,0.1h10.9v-0.4
				c0-1.7-0.4-3.2-1.3-4.3C844.5,566.5,843.2,565.9,841.4,565.9z"/>
			<path fill="#1E4079" d="M869.1,580.5c0-1-0.4-1.7-1.1-2.4c-0.7-0.6-2.1-1.1-4.2-1.6c-2.8-0.6-5-1.5-6.5-2.6
				c-1.5-1.1-2.3-2.6-2.3-4.4c0-2,0.8-3.6,2.5-5c1.7-1.4,3.8-2.1,6.5-2.1c2.7,0,4.9,0.7,6.6,2.2c1.7,1.5,2.5,3.2,2.4,5.2l0,0.1h-4.2
				c0-1-0.5-2-1.4-2.8c-0.9-0.8-2.1-1.3-3.5-1.3c-1.5,0-2.7,0.3-3.5,1c-0.8,0.7-1.1,1.5-1.1,2.5c0,0.9,0.3,1.7,1,2.2
				c0.7,0.5,2,1,4.1,1.4c3,0.6,5.2,1.5,6.7,2.6c1.5,1.1,2.3,2.6,2.3,4.5c0,2.1-0.9,3.9-2.6,5.2c-1.7,1.3-4,2-6.8,2
				c-3.1,0-5.5-0.8-7.3-2.3c-1.8-1.6-2.6-3.4-2.5-5.5l0-0.1h4.2c0.1,1.6,0.7,2.7,1.7,3.4c1.1,0.7,2.4,1.1,3.8,1.1
				c1.6,0,2.8-0.3,3.7-1C868.6,582.3,869.1,581.5,869.1,580.5z"/>
		</g>
	</g>
</g>
</svg>
