<?xml version="1.0" encoding="utf-8"?>
<svg viewBox="0.729 63.809 380.101 199.676" width="380.101" height="199.676" xmlns="http://www.w3.org/2000/svg">
  <path class="cls-1" d="M40.84,456.92a20.4,20.4,0,0,1-2.73,10.77,17.94,17.94,0,0,1-7.42,6.87,22.65,22.65,0,0,1-10.36,2.37,25.61,25.61,0,0,1-5.73-.62,16.94,16.94,0,0,1-4.91-1.93,22,22,0,0,1-4.34-3.45l6.22-6.14a16,16,0,0,0,3.81,2.81,11.13,11.13,0,0,0,4.95.91,12,12,0,0,0,6-1.41,9.29,9.29,0,0,0,3.85-4.19,15.31,15.31,0,0,0,1.33-6.7v-38h9.35Z" transform="matrix(1, 0, 0, 1, -4.621143, -354.400848)" style="fill: rgb(30, 64, 121);"/>
  <path class="cls-1" d="M80.14,476.93H71.47v-4.48a15,15,0,0,1-5,3.44,18.25,18.25,0,0,1-6.64,1,21.28,21.28,0,0,1-6.9-1,12.42,12.42,0,0,1-4.9-3,13,13,0,0,1-3.47-9.43,12.54,12.54,0,0,1,1.73-6.62,11.54,11.54,0,0,1,5.14-4.44,19.46,19.46,0,0,1,8.27-1.59H71.3v-3.11q0-4.22-2.28-6.2t-7.32-2a14.24,14.24,0,0,0-5.73.93,10.69,10.69,0,0,0-3.91,3.28l-5.8-5.44a16.52,16.52,0,0,1,6.6-5A25.47,25.47,0,0,1,62,432q18.1,0,18.1,15.1ZM71.3,460.56V457H61a9.05,9.05,0,0,0-5.86,1.65,5.72,5.72,0,0,0-2,4.69q0,6.22,8,6.22a19.22,19.22,0,0,0,4.74-.49,7.84,7.84,0,0,0,3.51-2Q71.31,465.17,71.3,460.56Z" transform="matrix(1, 0, 0, 1, -4.621143, -354.400848)" style="fill: rgb(30, 64, 121);"/>
  <path class="cls-1" d="M99.57,476.93H96.88q-6,0-9-3.45a12.68,12.68,0,0,1-3-8.69V418.25H93.7v46a5.92,5.92,0,0,0,1.06,3.87,4.63,4.63,0,0,0,3.68,1.25h1.13Z" transform="matrix(1, 0, 0, 1, -4.621143, -354.400848)" style="fill: rgb(30, 64, 121);"/>
  <path class="cls-1" d="M138.87,476.93H130.2v-5.2a14.56,14.56,0,0,1-3.39,3.13,12.35,12.35,0,0,1-3.72,1.58,18.82,18.82,0,0,1-4.53.49,17,17,0,0,1-6.07-1.06,12.28,12.28,0,0,1-7.82-7.89,26.4,26.4,0,0,1-1.42-6.19,72.76,72.76,0,0,1-.34-7.36,71.92,71.92,0,0,1,.34-7.34,26.15,26.15,0,0,1,1.42-6.16,13.62,13.62,0,0,1,3.15-5,12.73,12.73,0,0,1,4.65-2.9,18.75,18.75,0,0,1,12.46.07,13.09,13.09,0,0,1,5.1,3.87V418.25h8.84ZM130,454.45a36.94,36.94,0,0,0-.68-7.63,9.36,9.36,0,0,0-2.69-5,8,8,0,0,0-5.73-1.88,8.13,8.13,0,0,0-5.79,1.9,9.36,9.36,0,0,0-2.71,5,43,43,0,0,0,0,15.23,9.47,9.47,0,0,0,2.71,5.07,8.09,8.09,0,0,0,5.79,1.92q5.41,0,7.26-3.86T130,454.45Z" transform="matrix(1, 0, 0, 1, -4.621143, -354.400848)" style="fill: rgb(30, 64, 121);"/>
  <path class="cls-1" d="M180.33,457h-28.5a15,15,0,0,0,1.31,6.57,9.72,9.72,0,0,0,3.78,4.23,11.6,11.6,0,0,0,6.11,1.5,14.32,14.32,0,0,0,5.88-1,17.46,17.46,0,0,0,4.78-3.47l5.63,5.25A24.76,24.76,0,0,1,172,475.3a22.7,22.7,0,0,1-9.19,1.63A24.26,24.26,0,0,1,155,475.7a16.1,16.1,0,0,1-6.29-3.89,17.9,17.9,0,0,1-4.15-7,32.09,32.09,0,0,1-1.48-10.4,28.83,28.83,0,0,1,2.31-12.1,17.43,17.43,0,0,1,6.5-7.7A17.87,17.87,0,0,1,161.7,432a18.37,18.37,0,0,1,10,2.66,17,17,0,0,1,6.43,7.47,26.11,26.11,0,0,1,2.2,11Zm-8.75-6.14a17.1,17.1,0,0,0-1.19-6,8.87,8.87,0,0,0-3.32-4.06,9.29,9.29,0,0,0-5.35-1.52,9.45,9.45,0,0,0-5.35,1.52,9.1,9.1,0,0,0-3.4,4.06,10.44,10.44,0,0,0-.78,2.39,34.18,34.18,0,0,0-.36,3.57Z" transform="matrix(1, 0, 0, 1, -4.621143, -354.400848)" style="fill: rgb(30, 64, 121);"/>
  <path class="cls-1" d="M221.8,457H193.29a15.12,15.12,0,0,0,1.31,6.57,9.8,9.8,0,0,0,3.79,4.23,11.6,11.6,0,0,0,6.11,1.5,14.32,14.32,0,0,0,5.88-1,17.46,17.46,0,0,0,4.78-3.47l5.63,5.25a24.66,24.66,0,0,1-7.29,5.22,22.67,22.67,0,0,1-9.19,1.63,24.24,24.24,0,0,1-7.85-1.23,16.1,16.1,0,0,1-6.29-3.89,17.9,17.9,0,0,1-4.15-7,32.09,32.09,0,0,1-1.48-10.4,28.83,28.83,0,0,1,2.31-12.1,17.37,17.37,0,0,1,6.5-7.7,17.85,17.85,0,0,1,9.82-2.66,18.32,18.32,0,0,1,10,2.66,16.93,16.93,0,0,1,6.44,7.47,26.11,26.11,0,0,1,2.2,11Zm-8.75-6.14a17.1,17.1,0,0,0-1.19-6,8.87,8.87,0,0,0-3.32-4.06,9.32,9.32,0,0,0-5.35-1.52,9.45,9.45,0,0,0-5.35,1.52,9,9,0,0,0-3.4,4.06,11,11,0,0,0-.79,2.39q-.18,1-.36,3.57Z" transform="matrix(1, 0, 0, 1, -4.621143, -354.400848)" style="fill: rgb(30, 64, 121);"/>
  <path class="cls-2" d="M100.12,523.25H66.36v93.09H47.7V523.25H14.24V508.08h85.88Z" transform="matrix(1, 0, 0, 1, -4.621143, -354.400848)" style="fill: rgb(88, 89, 91);"/>
  <path class="cls-2" d="M87.63,575.37a49.69,49.69,0,0,1,2.57-16.24,38.46,38.46,0,0,1,7.36-13,33.69,33.69,0,0,1,11.71-8.62A37.6,37.6,0,0,1,125,534.4a38.27,38.27,0,0,1,15.83,3.13,33.54,33.54,0,0,1,11.79,8.62,37.88,37.88,0,0,1,7.32,13,50.22,50.22,0,0,1,2.53,16.24v1.56a50.66,50.66,0,0,1-2.53,16.29,37.47,37.47,0,0,1-7.32,13,33.4,33.4,0,0,1-11.75,8.55,38.32,38.32,0,0,1-15.72,3.09,38.5,38.5,0,0,1-15.8-3.09,33.4,33.4,0,0,1-11.75-8.55,38,38,0,0,1-7.36-13,50.12,50.12,0,0,1-2.57-16.29Zm18.07,1.56a45.71,45.71,0,0,0,1.11,10.26,25.61,25.61,0,0,0,3.5,8.44,16.81,16.81,0,0,0,14.8,7.77,16.67,16.67,0,0,0,14.68-7.77,26.72,26.72,0,0,0,3.5-8.44,44.55,44.55,0,0,0,1.15-10.26v-1.56a43.78,43.78,0,0,0-1.15-10.15,26.34,26.34,0,0,0-3.54-8.4,18.14,18.14,0,0,0-6.06-5.76A16.92,16.92,0,0,0,125,548.9a16.6,16.6,0,0,0-8.67,2.16,18.57,18.57,0,0,0-6,5.76,25.84,25.84,0,0,0-3.5,8.4,44.92,44.92,0,0,0-1.11,10.15Z" transform="matrix(1, 0, 0, 1, -4.621143, -354.400848)" style="fill: rgb(88, 89, 91);"/>
  <path class="cls-2" d="M197.76,581.84l-8,8.25v26.25H171.66V502.13h18.07V568l5.65-7.06,22.23-25.06h21.71l-29.89,33.53,33.09,46.92h-20.9Z" transform="matrix(1, 0, 0, 1, -4.621143, -354.400848)" style="fill: rgb(88, 89, 91);"/>
  <path class="cls-2" d="M279,617.83a41.23,41.23,0,0,1-16.06-3,34.83,34.83,0,0,1-19.78-20.52,43.37,43.37,0,0,1-2.68-15.39v-3a49.53,49.53,0,0,1,2.83-17.22A39.19,39.19,0,0,1,251,545.67a34,34,0,0,1,11.56-8.33,35,35,0,0,1,14.31-2.94,36.62,36.62,0,0,1,15.25,2.94,28.69,28.69,0,0,1,10.7,8.22,35.22,35.22,0,0,1,6.32,12.56,58,58,0,0,1,2.09,16v7.73H258.66a28.6,28.6,0,0,0,2,8.63,21.08,21.08,0,0,0,4.35,6.8,19.93,19.93,0,0,0,6.5,4.5A21.16,21.16,0,0,0,280,603.4a24.09,24.09,0,0,0,11.63-2.67,27.35,27.35,0,0,0,8.59-7.36l9.74,9.29a33.55,33.55,0,0,1-4.79,5.61,32.79,32.79,0,0,1-6.7,4.84,38.71,38.71,0,0,1-8.66,3.42A42.08,42.08,0,0,1,279,617.83ZM276.8,548.9a15.22,15.22,0,0,0-12,5.21q-4.57,5.21-5.84,14.5h34.43v-1.34a33.08,33.08,0,0,0-1.15-6.88,17.64,17.64,0,0,0-2.86-5.87,13.85,13.85,0,0,0-5-4.09A16.91,16.91,0,0,0,276.8,548.9Z" transform="matrix(1, 0, 0, 1, -4.621143, -354.400848)" style="fill: rgb(88, 89, 91);"/>
  <path class="cls-2" d="M335.92,535.89l.52,9.29a29.39,29.39,0,0,1,10.18-7.95,30.54,30.54,0,0,1,13.24-2.83,32.81,32.81,0,0,1,10.52,1.6,19.44,19.44,0,0,1,8.07,5.17,24,24,0,0,1,5.16,9.29,46.12,46.12,0,0,1,1.83,13.91v52H367.37V564.22a23,23,0,0,0-.93-7,11.32,11.32,0,0,0-2.71-4.64A10.26,10.26,0,0,0,359.3,550a21.42,21.42,0,0,0-6.06-.78,17.37,17.37,0,0,0-9.7,2.68,19.41,19.41,0,0,0-6.58,7.21v57.25H318.89V535.89Z" transform="matrix(1, 0, 0, 1, -4.621143, -354.400848)" style="fill: rgb(88, 89, 91);"/>
</svg>