<?xml version="1.0" encoding="utf-8"?>
<svg viewBox="280.134 484.711 241.86 226.68" width="241.86" height="226.68" xmlns="http://www.w3.org/2000/svg">
  <path class="cls-1" d="M56.63,460.83A20.37,20.37,0,0,1,53.9,471.6a18,18,0,0,1-7.42,6.87,22.68,22.68,0,0,1-10.36,2.37,25.61,25.61,0,0,1-5.73-.62,16.83,16.83,0,0,1-4.91-1.93,22.34,22.34,0,0,1-4.34-3.44l6.22-6.15a15.76,15.76,0,0,0,3.81,2.81,11.13,11.13,0,0,0,4.95.91,12,12,0,0,0,6-1.41A9.29,9.29,0,0,0,46,466.82a15.28,15.28,0,0,0,1.33-6.7v-38h9.35Z" transform="matrix(1, 0, 0, 1, 258.993866, 62.590595)" style="fill: rgb(30, 64, 121);"/>
  <path class="cls-1" d="M95.93,480.84H87.26v-4.48a15,15,0,0,1-5,3.44,18.25,18.25,0,0,1-6.64,1,21.57,21.57,0,0,1-6.9-1,12.55,12.55,0,0,1-4.9-3,13,13,0,0,1-3.47-9.43,12.48,12.48,0,0,1,1.73-6.62,11.54,11.54,0,0,1,5.14-4.44,19.46,19.46,0,0,1,8.27-1.58H87.09v-3.12q0-4.21-2.28-6.2c-1.53-1.32-4-2-7.32-2a14.24,14.24,0,0,0-5.73.93,10.73,10.73,0,0,0-3.91,3.29l-5.8-5.45a16.61,16.61,0,0,1,6.6-5,25.69,25.69,0,0,1,9.18-1.4q18.11,0,18.1,15.1Zm-8.84-16.37v-3.55H76.77a9,9,0,0,0-5.86,1.65,5.72,5.72,0,0,0-2,4.69q0,6.23,8,6.22a19.22,19.22,0,0,0,4.74-.49,7.91,7.91,0,0,0,3.51-2Q87.1,469.09,87.09,464.47Z" transform="matrix(1, 0, 0, 1, 258.993866, 62.590595)" style="fill: rgb(30, 64, 121);"/>
  <path class="cls-1" d="M115.36,480.84h-2.69q-6,0-9-3.45a12.66,12.66,0,0,1-3-8.69V422.16h8.84v46a5.87,5.87,0,0,0,1.06,3.87c.7.84,1.93,1.25,3.68,1.25h1.13Z" transform="matrix(1, 0, 0, 1, 258.993866, 62.590595)" style="fill: rgb(30, 64, 121);"/>
  <path class="cls-1" d="M154.66,480.84H146v-5.2a14.31,14.31,0,0,1-3.38,3.13,12.46,12.46,0,0,1-3.72,1.58,18.88,18.88,0,0,1-4.53.49,17,17,0,0,1-6.07-1.06,12.28,12.28,0,0,1-7.82-7.89A26.28,26.28,0,0,1,119,465.7a79.61,79.61,0,0,1,0-14.7,26,26,0,0,1,1.42-6.15,13.58,13.58,0,0,1,3.15-5,12.87,12.87,0,0,1,4.65-2.9,17.13,17.13,0,0,1,6-1,17.5,17.5,0,0,1,6.45,1.1,13.23,13.23,0,0,1,5.1,3.87V422.16h8.84Zm-8.84-22.48a36.77,36.77,0,0,0-.68-7.62,9.35,9.35,0,0,0-2.69-5,9.72,9.72,0,0,0-11.52,0,9.35,9.35,0,0,0-2.71,5,42.92,42.92,0,0,0,0,15.22,9.47,9.47,0,0,0,2.71,5.07,8.09,8.09,0,0,0,5.79,1.92c3.61,0,6-1.28,7.26-3.86S145.82,463,145.82,458.36Z" transform="matrix(1, 0, 0, 1, 258.993866, 62.590595)" style="fill: rgb(30, 64, 121);"/>
  <path class="cls-1" d="M196.12,460.92H167.61a15,15,0,0,0,1.32,6.58,9.83,9.83,0,0,0,3.78,4.23,11.6,11.6,0,0,0,6.11,1.5,14.3,14.3,0,0,0,5.88-1,17.25,17.25,0,0,0,4.78-3.47l5.63,5.25a24.3,24.3,0,0,1-7.29,5.22,22.67,22.67,0,0,1-9.19,1.63,24.24,24.24,0,0,1-7.85-1.23,16,16,0,0,1-6.29-3.89,17.83,17.83,0,0,1-4.15-7,32.09,32.09,0,0,1-1.48-10.4,28.86,28.86,0,0,1,2.31-12.1,17.49,17.49,0,0,1,6.5-7.7,18,18,0,0,1,9.82-2.66,18.4,18.4,0,0,1,10,2.66,16.93,16.93,0,0,1,6.44,7.47,26.12,26.12,0,0,1,2.2,11Zm-8.75-6.13a17.11,17.11,0,0,0-1.19-6,8.92,8.92,0,0,0-3.32-4.06,9.39,9.39,0,0,0-5.35-1.52,9.53,9.53,0,0,0-5.35,1.52,9.09,9.09,0,0,0-3.4,4.06,11,11,0,0,0-.79,2.39c-.12.69-.24,1.88-.36,3.58Z" transform="matrix(1, 0, 0, 1, 258.993866, 62.590595)" style="fill: rgb(30, 64, 121);"/>
  <path class="cls-1" d="M237.59,460.92H209.08a15.17,15.17,0,0,0,1.31,6.58,9.92,9.92,0,0,0,3.79,4.23,11.6,11.6,0,0,0,6.11,1.5,14.3,14.3,0,0,0,5.88-1,17.4,17.4,0,0,0,4.78-3.47l5.63,5.25a24.3,24.3,0,0,1-7.29,5.22,22.67,22.67,0,0,1-9.19,1.63,24.24,24.24,0,0,1-7.85-1.23,15.91,15.91,0,0,1-6.29-3.89,17.83,17.83,0,0,1-4.15-7,32.09,32.09,0,0,1-1.48-10.4,29,29,0,0,1,2.3-12.1,17.55,17.55,0,0,1,6.5-7.7,18,18,0,0,1,9.83-2.66,18.4,18.4,0,0,1,10,2.66,17,17,0,0,1,6.44,7.47,26.12,26.12,0,0,1,2.2,11Zm-8.75-6.13a17.11,17.11,0,0,0-1.19-6,8.92,8.92,0,0,0-3.32-4.06,9.39,9.39,0,0,0-5.35-1.52,9.53,9.53,0,0,0-5.35,1.52,9.18,9.18,0,0,0-3.41,4.06,11.53,11.53,0,0,0-.78,2.39,34.14,34.14,0,0,0-.36,3.58Z" transform="matrix(1, 0, 0, 1, 258.993866, 62.590595)" style="fill: rgb(30, 64, 121);"/>
  <path class="cls-2" d="M54.18,576.12v40.22H35.37V508.08H76.79a50.57,50.57,0,0,1,16.76,2.57,35.52,35.52,0,0,1,12.38,7.17,30.66,30.66,0,0,1,7.7,10.93,35.37,35.37,0,0,1,2.64,13.76,35.94,35.94,0,0,1-2.64,14.12,27.93,27.93,0,0,1-7.7,10.56,34.91,34.91,0,0,1-12.38,6.62,55.7,55.7,0,0,1-16.76,2.31Zm0-15.1H76.79a28.64,28.64,0,0,0,9.33-1.34,16.86,16.86,0,0,0,6.43-3.79,14.46,14.46,0,0,0,3.68-5.84,22.72,22.72,0,0,0,1.15-7.39,23.08,23.08,0,0,0-1.15-7.29,16.64,16.64,0,0,0-3.68-6.21,17.92,17.92,0,0,0-6.43-4.31,24.47,24.47,0,0,0-9.33-1.6H54.18Z" transform="matrix(1, 0, 0, 1, 258.993866, 62.590595)" style="fill: rgb(88, 89, 91);"/>
  <path class="cls-2" d="M172.12,616.34a14.76,14.76,0,0,1-1.23-3.34c-.32-1.29-.61-2.68-.86-4.17a32.13,32.13,0,0,1-4,3.5,27.79,27.79,0,0,1-4.84,2.86,28.69,28.69,0,0,1-5.72,1.93,29.5,29.5,0,0,1-6.58.71A32.56,32.56,0,0,1,137.84,616a26,26,0,0,1-8.66-5.06,23.56,23.56,0,0,1-5.66-7.62,22.32,22.32,0,0,1-2-9.52,25.67,25.67,0,0,1,2.45-11.45,22.23,22.23,0,0,1,7.14-8.33,34.29,34.29,0,0,1,11.49-5.09,62.68,62.68,0,0,1,15.5-1.75h11.38v-5.28q0-6.24-3.5-10t-10.63-3.75a18.55,18.55,0,0,0-5.8.85,14,14,0,0,0-4.42,2.31,10.21,10.21,0,0,0-2.83,3.46,9.45,9.45,0,0,0-1,4.31H123.19a19.39,19.39,0,0,1,2.34-9.18,25.25,25.25,0,0,1,6.66-7.89,34,34,0,0,1,10.44-5.54,45.88,45.88,0,0,1,26.21-.33,28.21,28.21,0,0,1,9.89,5.2A23.53,23.53,0,0,1,185.2,550a29.39,29.39,0,0,1,2.31,12.08v35.69q0,10.86,3,17.33v1.26Zm-19.86-13a20,20,0,0,0,5.84-.82,20.64,20.64,0,0,0,4.91-2.16,18.28,18.28,0,0,0,3.83-3.08,17.54,17.54,0,0,0,2.6-3.53V578.57H159.7q-10,0-15.1,3.49a11.32,11.32,0,0,0-5,9.89,12.22,12.22,0,0,0,.82,4.54,9.58,9.58,0,0,0,2.45,3.6,11.53,11.53,0,0,0,4,2.38A15.88,15.88,0,0,0,152.26,603.33Z" transform="matrix(1, 0, 0, 1, 258.993866, 62.590595)" style="fill: rgb(88, 89, 91);"/>
  <path class="cls-2" d="M227.37,590.47l16.35-54.58H263l-32,92.64a56.27,56.27,0,0,1-2.94,6.59,28,28,0,0,1-4.76,6.58,25.05,25.05,0,0,1-7.17,5.09,23.14,23.14,0,0,1-10.11,2,25.09,25.09,0,0,1-4.58-.41c-1.51-.27-2.88-.58-4.12-.92v-14a9.4,9.4,0,0,0,1.74.18c.72,0,1.28,0,1.68,0a27,27,0,0,0,5.83-.56,11.69,11.69,0,0,0,7.55-5.2,22.7,22.7,0,0,0,2.38-5.1l2.6-6.91-28.25-80.08h19.48Z" transform="matrix(1, 0, 0, 1, 258.993866, 62.590595)" style="fill: rgb(88, 89, 91);"/>
</svg>