<?xml version="1.0" encoding="utf-8"?>
<svg viewBox="193.502 841.379 398.523 199.534" width="398.523" height="199.534" xmlns="http://www.w3.org/2000/svg">
  <path class="cls-1" d="M56.63,439.63a20.36,20.36,0,0,1-2.73,10.76,18,18,0,0,1-7.42,6.88,22.68,22.68,0,0,1-10.36,2.37,25.61,25.61,0,0,1-5.73-.62,16.85,16.85,0,0,1-4.91-1.94,21.6,21.6,0,0,1-4.34-3.44l6.22-6.14a16.31,16.31,0,0,0,3.81,2.81,11.13,11.13,0,0,0,4.95.91,11.94,11.94,0,0,0,6-1.42A9.26,9.26,0,0,0,46,445.62a15.34,15.34,0,0,0,1.33-6.7V401h9.35Z" transform="matrix(1, 0, 0, 1, 172.361588, 440.379395)" style="fill: rgb(30, 64, 121);"/>
  <path class="cls-1" d="M95.93,459.64H87.26v-4.49a14.92,14.92,0,0,1-5,3.45,18.25,18.25,0,0,1-6.64,1,21.56,21.56,0,0,1-6.9-1,12.53,12.53,0,0,1-4.9-3,13,13,0,0,1-3.47-9.43,12.45,12.45,0,0,1,1.73-6.62,11.42,11.42,0,0,1,5.14-4.44,19.46,19.46,0,0,1,8.27-1.59H87.09v-3.12q0-4.21-2.28-6.19c-1.53-1.32-4-2-7.32-2a14.44,14.44,0,0,0-5.73.92,10.83,10.83,0,0,0-3.91,3.29l-5.8-5.45a16.49,16.49,0,0,1,6.6-5,25.45,25.45,0,0,1,9.18-1.41q18.11,0,18.1,15.1Zm-8.84-16.37v-3.56H76.77a9,9,0,0,0-5.86,1.65,5.74,5.74,0,0,0-2,4.7q0,6.21,8,6.22a19.72,19.72,0,0,0,4.74-.49,7.93,7.93,0,0,0,3.51-2Q87.1,447.88,87.09,443.27Z" transform="matrix(1, 0, 0, 1, 172.361588, 440.379395)" style="fill: rgb(30, 64, 121);"/>
  <path class="cls-1" d="M115.36,459.64h-2.69q-6,0-9-3.45a12.69,12.69,0,0,1-3-8.69V401h8.84v46a5.87,5.87,0,0,0,1.06,3.87c.7.83,1.93,1.25,3.68,1.25h1.13Z" transform="matrix(1, 0, 0, 1, 172.361588, 440.379395)" style="fill: rgb(30, 64, 121);"/>
  <path class="cls-1" d="M154.66,459.64H146v-5.21a14.1,14.1,0,0,1-3.38,3.13,12.48,12.48,0,0,1-3.72,1.59,19.4,19.4,0,0,1-4.53.49,17.25,17.25,0,0,1-6.07-1.06,12.34,12.34,0,0,1-7.82-7.89,26.36,26.36,0,0,1-1.42-6.2,79.61,79.61,0,0,1,0-14.7,26.07,26.07,0,0,1,1.42-6.15,13.62,13.62,0,0,1,3.15-5,12.73,12.73,0,0,1,4.65-2.9,18.59,18.59,0,0,1,12.46.07,13.23,13.23,0,0,1,5.1,3.87V401h8.84Zm-8.84-22.49a36.91,36.91,0,0,0-.68-7.62,9.39,9.39,0,0,0-2.69-5,9.7,9.7,0,0,0-11.52,0,9.32,9.32,0,0,0-2.71,5,43,43,0,0,0,0,15.23,9.51,9.51,0,0,0,2.71,5.07,8.09,8.09,0,0,0,5.79,1.92q5.42,0,7.26-3.87T145.82,437.15Z" transform="matrix(1, 0, 0, 1, 172.361588, 440.379395)" style="fill: rgb(30, 64, 121);"/>
  <path class="cls-1" d="M196.12,439.71H167.61a15,15,0,0,0,1.32,6.58,9.72,9.72,0,0,0,3.78,4.23,11.6,11.6,0,0,0,6.11,1.5,14.48,14.48,0,0,0,5.88-1,17.68,17.68,0,0,0,4.78-3.47l5.63,5.24a24.53,24.53,0,0,1-7.29,5.23,22.84,22.84,0,0,1-9.19,1.63,24.24,24.24,0,0,1-7.85-1.23,16.22,16.22,0,0,1-6.29-3.89,18,18,0,0,1-4.15-7,32.2,32.2,0,0,1-1.48-10.41A28.78,28.78,0,0,1,161.17,425a17.38,17.38,0,0,1,6.5-7.7,17.88,17.88,0,0,1,9.82-2.67,18.32,18.32,0,0,1,10,2.67,16.85,16.85,0,0,1,6.44,7.46,26.15,26.15,0,0,1,2.2,11Zm-8.75-6.13a17.1,17.1,0,0,0-1.19-6,8.82,8.82,0,0,0-3.32-4.06,9.32,9.32,0,0,0-5.35-1.53,9.46,9.46,0,0,0-5.35,1.53,9,9,0,0,0-3.4,4.06A10.87,10.87,0,0,0,168,430q-.18,1-.36,3.57Z" transform="matrix(1, 0, 0, 1, 172.361588, 440.379395)" style="fill: rgb(30, 64, 121);"/>
  <path class="cls-1" d="M237.59,439.71H209.08a15.14,15.14,0,0,0,1.31,6.58,9.8,9.8,0,0,0,3.79,4.23,11.6,11.6,0,0,0,6.11,1.5,14.48,14.48,0,0,0,5.88-1,17.83,17.83,0,0,0,4.78-3.47l5.63,5.24a24.53,24.53,0,0,1-7.29,5.23,22.84,22.84,0,0,1-9.19,1.63,24.24,24.24,0,0,1-7.85-1.23,16.14,16.14,0,0,1-6.29-3.89,18,18,0,0,1-4.15-7,32.2,32.2,0,0,1-1.48-10.41,29,29,0,0,1,2.3-12.09,17.44,17.44,0,0,1,6.5-7.7,17.91,17.91,0,0,1,9.83-2.67,18.32,18.32,0,0,1,10,2.67,16.91,16.91,0,0,1,6.44,7.46,26.15,26.15,0,0,1,2.2,11Zm-8.75-6.13a17.1,17.1,0,0,0-1.19-6,8.82,8.82,0,0,0-3.32-4.06A9.32,9.32,0,0,0,219,422a9.46,9.46,0,0,0-5.35,1.53,9.07,9.07,0,0,0-3.41,4.06,11.34,11.34,0,0,0-.78,2.39,34.18,34.18,0,0,0-.36,3.57Z" transform="matrix(1, 0, 0, 1, 172.361588, 440.379395)" style="fill: rgb(30, 64, 121);"/>
  <path class="cls-2" d="M118.23,547.74A70.11,70.11,0,0,1,115,569.86a48,48,0,0,1-9.11,16.58,39.43,39.43,0,0,1-14.12,10.45,44.81,44.81,0,0,1-18.29,3.64,44.58,44.58,0,0,1-18.22-3.64A40.57,40.57,0,0,1,41,586.44a47.93,47.93,0,0,1-9.29-16.58,68.65,68.65,0,0,1-3.31-22.12v-5.5a69.07,69.07,0,0,1,3.31-22.16,48.9,48.9,0,0,1,9.22-16.65A39.7,39.7,0,0,1,55.1,492.94a44.74,44.74,0,0,1,18.22-3.64,45.16,45.16,0,0,1,18.32,3.64,39.62,39.62,0,0,1,14.21,10.49A48.1,48.1,0,0,1,115,520.08a70.54,70.54,0,0,1,3.24,22.16Zm-18.82-5.65a66.32,66.32,0,0,0-1.74-16,34.42,34.42,0,0,0-5.1-11.64,22.12,22.12,0,0,0-8.21-7.1,24.54,24.54,0,0,0-11-2.41,24,24,0,0,0-10.86,2.41,22.54,22.54,0,0,0-8.22,7.1A34.89,34.89,0,0,0,49,526.07a63.23,63.23,0,0,0-1.82,16v5.65A63.61,63.61,0,0,0,49,563.8a34.54,34.54,0,0,0,5.24,11.71,22.58,22.58,0,0,0,8.29,7.14,24.21,24.21,0,0,0,10.9,2.42q12.48,0,19.22-9.52t6.72-27.81Z" transform="matrix(1, 0, 0, 1, 172.361588, 440.379395)" style="fill: rgb(88, 89, 91);"/>
  <path class="cls-2" d="M145.89,518.6l.52,9.29a29.43,29.43,0,0,1,10.19-7.95,30.32,30.32,0,0,1,13.23-2.83,32.49,32.49,0,0,1,10.52,1.6,19.34,19.34,0,0,1,8.07,5.17,24,24,0,0,1,5.17,9.29,46.4,46.4,0,0,1,1.82,13.9v52H177.34V546.93a23,23,0,0,0-.93-7,11.43,11.43,0,0,0-2.71-4.65,10.26,10.26,0,0,0-4.42-2.56,21.42,21.42,0,0,0-6.06-.78,17.48,17.48,0,0,0-9.71,2.67,19.57,19.57,0,0,0-6.58,7.21v57.26H128.86V518.6Z" transform="matrix(1, 0, 0, 1, 172.361588, 440.379395)" style="fill: rgb(88, 89, 91);"/>
  <path class="cls-2" d="M226.94,599.05H208.88V484.84h18.06Z" transform="matrix(1, 0, 0, 1, 172.361588, 440.379395)" style="fill: rgb(88, 89, 91);"/>
  <path class="cls-2" d="M240.56,497.7a9.58,9.58,0,0,1,2.64-6.91C245,489,247.47,488,250.74,488s5.8.92,7.59,2.75A9.52,9.52,0,0,1,261,497.7a9.32,9.32,0,0,1-2.67,6.81q-2.68,2.72-7.59,2.71c-3.27,0-5.79-.9-7.54-2.71A9.38,9.38,0,0,1,240.56,497.7Zm19.18,101.35H241.67V518.6h18.07Z" transform="matrix(1, 0, 0, 1, 172.361588, 440.379395)" style="fill: rgb(88, 89, 91);"/>
  <path class="cls-2" d="M290.08,518.6l.52,9.29a29.43,29.43,0,0,1,10.19-7.95A30.32,30.32,0,0,1,314,517.11a32.49,32.49,0,0,1,10.52,1.6,19.34,19.34,0,0,1,8.07,5.17,24,24,0,0,1,5.17,9.29,46.4,46.4,0,0,1,1.82,13.9v52H321.53V546.93a23,23,0,0,0-.93-7,11.43,11.43,0,0,0-2.71-4.65,10.26,10.26,0,0,0-4.42-2.56,21.42,21.42,0,0,0-6.06-.78,17.48,17.48,0,0,0-9.71,2.67,19.57,19.57,0,0,0-6.58,7.21v57.26H273.05V518.6Z" transform="matrix(1, 0, 0, 1, 172.361588, 440.379395)" style="fill: rgb(88, 89, 91);"/>
  <path class="cls-2" d="M387.34,600.53a41.45,41.45,0,0,1-16.06-3,35.3,35.3,0,0,1-12.12-8.18A35.87,35.87,0,0,1,351.5,577a43.59,43.59,0,0,1-2.67-15.39v-3a49.74,49.74,0,0,1,2.82-17.21,39.51,39.51,0,0,1,7.73-13.09A34.21,34.21,0,0,1,371,520.05a35,35,0,0,1,14.31-2.94,36.54,36.54,0,0,1,15.24,2.94,28.78,28.78,0,0,1,10.71,8.21,35.43,35.43,0,0,1,6.32,12.57,57.93,57.93,0,0,1,2.08,16v7.74H367a29.07,29.07,0,0,0,2,8.62,21.36,21.36,0,0,0,4.35,6.81,20.21,20.21,0,0,0,6.51,4.49,21.11,21.11,0,0,0,8.51,1.64A24.05,24.05,0,0,0,400,583.43a27.33,27.33,0,0,0,8.59-7.36l9.74,9.3a33.16,33.16,0,0,1-4.8,5.61,32.58,32.58,0,0,1-6.69,4.83,37.78,37.78,0,0,1-8.66,3.42A41.73,41.73,0,0,1,387.34,600.53Zm-2.15-68.92a15.21,15.21,0,0,0-12,5.2q-4.57,5.21-5.84,14.5h34.43V550a32.88,32.88,0,0,0-1.16-6.87,17.5,17.5,0,0,0-2.86-5.88,13.87,13.87,0,0,0-5-4.09A17,17,0,0,0,385.19,531.61Z" transform="matrix(1, 0, 0, 1, 172.361588, 440.379395)" style="fill: rgb(88, 89, 91);"/>
</svg>