<svg id="Layer_1" data-name="Layer 1" xmlns="http://www.w3.org/2000/svg" viewBox="0 0 1000 1000"><title>Jaldee_features logos</title><text transform="translate(248.41 632.34)" style="font-size:180.27999877929688px;fill:#58595b;font-family:Roboto-Medium, Roboto;font-weight:500;letter-spacing:-0.040001252662966794em">Ale<tspan x="241.13" y="0" style="letter-spacing:0.004414790564062285em">r</tspan><tspan x="305.3" y="0">ts</tspan></text><path d="M336.73,422.21q0,14.3-6.23,24.58a41.08,41.08,0,0,1-17,15.7,51.76,51.76,0,0,1-23.67,5.41,58.9,58.9,0,0,1-13.09-1.4,38.76,38.76,0,0,1-11.21-4.42,50.31,50.31,0,0,1-9.9-7.87l14.2-14a36.73,36.73,0,0,0,8.7,6.42q4.14,2.08,11.3,2.08a27.4,27.4,0,0,0,13.67-3.24,21.15,21.15,0,0,0,8.79-9.55,35,35,0,0,0,3.05-15.3V333.87h21.35Z" style="fill:#1e4079"/><path d="M426.5,467.9H406.69V457.66a34.18,34.18,0,0,1-11.5,7.88q-6,2.35-15.17,2.36a48.73,48.73,0,0,1-15.74-2.27,28.53,28.53,0,0,1-11.21-6.81q-7.92-8.2-7.92-21.54a28.51,28.51,0,0,1,4-15.12A26.23,26.23,0,0,1,360.85,412q7.77-3.61,18.89-3.62H406.3v-7.12q0-9.63-5.21-14.15t-16.72-4.53q-8.4,0-13.09,2.12a24.78,24.78,0,0,0-8.94,7.51l-13.23-12.44q6.86-8.16,15.07-11.37t21-3.21q41.36,0,41.36,34.49Zm-20.2-37.39V422.4H382.73q-8.79,0-13.38,3.77t-4.59,10.72q0,14.21,18.36,14.2A44.6,44.6,0,0,0,393.94,450a18.18,18.18,0,0,0,8-4.59Q406.3,441,406.3,430.51Z" style="fill:#1e4079"/><path d="M470.88,467.9h-6.16q-13.64,0-20.53-7.87t-6.91-19.85V333.87h20.19V439c0,4,.8,6.94,2.42,8.84s4.41,2.85,8.4,2.85h2.59Z" style="fill:#1e4079"/><path d="M560.63,467.9H540.82V456a32.77,32.77,0,0,1-7.73,7.15,28.4,28.4,0,0,1-8.5,3.62,43.7,43.7,0,0,1-10.34,1.11,39,39,0,0,1-13.86-2.41,28.12,28.12,0,0,1-17.87-18,59.28,59.28,0,0,1-3.24-14.15,183.44,183.44,0,0,1,0-33.58,58.37,58.37,0,0,1,3.24-14.05,31,31,0,0,1,7.19-11.5,29.25,29.25,0,0,1,10.63-6.62,39.09,39.09,0,0,1,13.72-2.37,39.65,39.65,0,0,1,14.73,2.53,29.83,29.83,0,0,1,11.65,8.84v-42.7h20.19Zm-20.19-51.35a84.16,84.16,0,0,0-1.55-17.41,21.45,21.45,0,0,0-6.13-11.48q-4.59-4.29-13.1-4.29t-13.23,4.34a21.47,21.47,0,0,0-6.19,11.48,99,99,0,0,0,0,34.78,21.74,21.74,0,0,0,6.19,11.57q4.63,4.4,13.23,4.39,12.38,0,16.57-8.82T540.44,416.55Z" style="fill:#1e4079"/><path d="M655.35,422.4H590.23a34.5,34.5,0,0,0,3,15,22.26,22.26,0,0,0,8.65,9.66q5.65,3.44,14,3.43t13.43-2.32a40.09,40.09,0,0,0,10.92-7.92l12.85,12a55.81,55.81,0,0,1-16.64,11.93q-8.42,3.72-21,3.72a55.49,55.49,0,0,1-17.94-2.8,36.75,36.75,0,0,1-14.37-8.89,40.87,40.87,0,0,1-9.48-15.94q-3.37-9.86-3.38-23.76,0-16.14,5.27-27.64a39.84,39.84,0,0,1,14.85-17.58q9.57-6.09,22.44-6.09,13.15,0,22.82,6.09a38.62,38.62,0,0,1,14.7,17,59.66,59.66,0,0,1,5,25.17Zm-20-14a39.18,39.18,0,0,0-2.71-13.62,20.41,20.41,0,0,0-7.58-9.28A21.37,21.37,0,0,0,612.84,382a21.67,21.67,0,0,0-12.23,3.48,20.75,20.75,0,0,0-7.77,9.28,24.94,24.94,0,0,0-1.79,5.46,80.19,80.19,0,0,0-.82,8.16Z" style="fill:#1e4079"/><path d="M750.06,422.4H684.94a34.36,34.36,0,0,0,3,15,22.26,22.26,0,0,0,8.65,9.66q5.64,3.44,14,3.43T724,448.19a39.91,39.91,0,0,0,10.91-7.92l12.85,12a55.65,55.65,0,0,1-16.63,11.93q-8.42,3.72-21,3.72a55.59,55.59,0,0,1-18-2.8,36.71,36.71,0,0,1-14.36-8.89,40.87,40.87,0,0,1-9.48-15.94q-3.39-9.86-3.38-23.76,0-16.14,5.27-27.64a39.89,39.89,0,0,1,14.84-17.58q9.59-6.09,22.44-6.09,13.15,0,22.83,6.09a38.62,38.62,0,0,1,14.7,17q5,11,5,25.17Zm-20-14a39,39,0,0,0-2.7-13.62,20.37,20.37,0,0,0-7.59-9.28A21.35,21.35,0,0,0,707.55,382a21.66,21.66,0,0,0-12.22,3.48,20.83,20.83,0,0,0-7.78,9.28,25.4,25.4,0,0,0-1.78,5.46q-.43,2.37-.83,8.16Z" style="fill:#1e4079"/></svg>