<?xml version="1.0" encoding="utf-8"?>
<svg viewBox="134.797 -19.212 255.844 199.703" width="255.844" height="199.703" xmlns="http://www.w3.org/2000/svg">
  <path class="cls-1" d="M56.89,441.76a20.36,20.36,0,0,1-2.73,10.76,18,18,0,0,1-7.43,6.88,22.64,22.64,0,0,1-10.36,2.36,25.62,25.62,0,0,1-5.73-.61,17,17,0,0,1-4.91-1.94,21.55,21.55,0,0,1-4.33-3.44l6.22-6.14a16.28,16.28,0,0,0,3.8,2.81,11.27,11.27,0,0,0,4.95.91,12,12,0,0,0,6-1.42,9.32,9.32,0,0,0,3.85-4.18,15.48,15.48,0,0,0,1.33-6.7v-38h9.35Z" transform="matrix(1, 0, 0, 1, 113.396996, -422.261658)" style="fill: rgb(30, 64, 121);"/>
  <path class="cls-1" d="M96.19,461.76H87.52v-4.48a15,15,0,0,1-5,3.45,18.26,18.26,0,0,1-6.64,1,21.46,21.46,0,0,1-6.89-1,12.57,12.57,0,0,1-4.91-3,13,13,0,0,1-3.47-9.43,12.46,12.46,0,0,1,1.74-6.62,11.37,11.37,0,0,1,5.14-4.44,19.38,19.38,0,0,1,8.26-1.59H87.35v-3.12c0-2.81-.77-4.87-2.29-6.19s-4-2-7.32-2a14.26,14.26,0,0,0-5.73.92,10.91,10.91,0,0,0-3.91,3.29l-5.79-5.45a16.53,16.53,0,0,1,6.59-5,25.45,25.45,0,0,1,9.18-1.41q18.11,0,18.11,15.1ZM87.35,445.4v-3.56H77a9,9,0,0,0-5.86,1.65,5.74,5.74,0,0,0-2,4.7q0,6.21,8,6.21a19.77,19.77,0,0,0,4.74-.48,8,8,0,0,0,3.51-2Q87.35,450,87.35,445.4Z" transform="matrix(1, 0, 0, 1, 113.396996, -422.261658)" style="fill: rgb(30, 64, 121);"/>
  <path class="cls-1" d="M115.62,461.76h-2.7q-6,0-9-3.44a12.74,12.74,0,0,1-3-8.69V403.08h8.84v46a5.87,5.87,0,0,0,1.06,3.87c.7.83,1.93,1.25,3.68,1.25h1.13Z" transform="matrix(1, 0, 0, 1, 113.396996, -422.261658)" style="fill: rgb(30, 64, 121);"/>
  <path class="cls-1" d="M154.91,461.76h-8.67v-5.2a14.29,14.29,0,0,1-3.38,3.13,12.43,12.43,0,0,1-3.73,1.59,19.28,19.28,0,0,1-4.52.48,17.2,17.2,0,0,1-6.07-1.05,12.33,12.33,0,0,1-7.83-7.89,25.86,25.86,0,0,1-1.41-6.2,79.61,79.61,0,0,1,0-14.7,25.47,25.47,0,0,1,1.41-6.15,13.62,13.62,0,0,1,3.15-5,12.77,12.77,0,0,1,4.66-2.9,18.56,18.56,0,0,1,12.45.07,13,13,0,0,1,5.1,3.87v-18.7h8.84Zm-8.84-22.48a36.91,36.91,0,0,0-.68-7.62,9.38,9.38,0,0,0-2.68-5,9.72,9.72,0,0,0-11.53,0,9.46,9.46,0,0,0-2.71,5,36.64,36.64,0,0,0-.67,7.6,37,37,0,0,0,.67,7.63,9.69,9.69,0,0,0,2.71,5.07,8.12,8.12,0,0,0,5.8,1.92c3.61,0,6-1.29,7.25-3.87S146.07,443.87,146.07,439.28Z" transform="matrix(1, 0, 0, 1, 113.396996, -422.261658)" style="fill: rgb(30, 64, 121);"/>
  <path class="cls-1" d="M196.38,441.84H167.87a15.14,15.14,0,0,0,1.31,6.58,9.74,9.74,0,0,0,3.79,4.23,11.58,11.58,0,0,0,6.11,1.5,14.55,14.55,0,0,0,5.88-1,17.83,17.83,0,0,0,4.78-3.47l5.62,5.24a24.49,24.49,0,0,1-7.28,5.23,22.88,22.88,0,0,1-9.19,1.62,24.34,24.34,0,0,1-7.86-1.22,16.11,16.11,0,0,1-6.28-3.89,17.85,17.85,0,0,1-4.15-7,32.18,32.18,0,0,1-1.49-10.41,28.86,28.86,0,0,1,2.31-12.1,17.47,17.47,0,0,1,6.5-7.69,17.91,17.91,0,0,1,9.83-2.67,18.34,18.34,0,0,1,10,2.67,16.91,16.91,0,0,1,6.44,7.46,26.31,26.31,0,0,1,2.2,11Zm-8.76-6.13a17.11,17.11,0,0,0-1.18-6,9,9,0,0,0-3.32-4.07,10.18,10.18,0,0,0-10.7,0,9.08,9.08,0,0,0-3.41,4.07,11.46,11.46,0,0,0-.78,2.38,34.78,34.78,0,0,0-.36,3.58Z" transform="matrix(1, 0, 0, 1, 113.396996, -422.261658)" style="fill: rgb(30, 64, 121);"/>
  <path class="cls-1" d="M237.85,441.84H209.34a15,15,0,0,0,1.31,6.58,9.72,9.72,0,0,0,3.78,4.23,11.61,11.61,0,0,0,6.12,1.5,14.55,14.55,0,0,0,5.88-1,18,18,0,0,0,4.78-3.47l5.62,5.24a24.62,24.62,0,0,1-7.28,5.23,22.88,22.88,0,0,1-9.19,1.62,24.3,24.3,0,0,1-7.86-1.22,16.22,16.22,0,0,1-6.29-3.89,18,18,0,0,1-4.15-7,32.47,32.47,0,0,1-1.48-10.41,28.86,28.86,0,0,1,2.31-12.1,17.41,17.41,0,0,1,6.5-7.69,17.88,17.88,0,0,1,9.82-2.67,18.38,18.38,0,0,1,10,2.67,16.89,16.89,0,0,1,6.43,7.46,26.15,26.15,0,0,1,2.21,11Zm-8.76-6.13a17.11,17.11,0,0,0-1.18-6,9,9,0,0,0-3.32-4.07,9.42,9.42,0,0,0-5.36-1.52,9.53,9.53,0,0,0-5.35,1.52,9.13,9.13,0,0,0-3.4,4.07,10.38,10.38,0,0,0-.78,2.38,34.78,34.78,0,0,0-.36,3.58Z" transform="matrix(1, 0, 0, 1, 113.396996, -422.261658)" style="fill: rgb(30, 64, 121);"/>
  <path class="cls-2" d="M49.78,561V601.2H31V492.94H72.38a50.68,50.68,0,0,1,16.77,2.56,35.72,35.72,0,0,1,12.38,7.18,30.55,30.55,0,0,1,7.69,10.93,35.33,35.33,0,0,1,2.64,13.76,35.94,35.94,0,0,1-2.64,14.12,27.91,27.91,0,0,1-7.69,10.56,35.09,35.09,0,0,1-12.38,6.62A55.83,55.83,0,0,1,72.38,561Zm0-15.09h22.6a28.92,28.92,0,0,0,9.33-1.34,17,17,0,0,0,6.43-3.79,14.53,14.53,0,0,0,3.68-5.84,22.74,22.74,0,0,0,1.16-7.4,23.07,23.07,0,0,0-1.16-7.28A16.64,16.64,0,0,0,88.14,514a17.79,17.79,0,0,0-6.43-4.31,24.47,24.47,0,0,0-9.33-1.6H49.78Z" transform="matrix(1, 0, 0, 1, 113.396996, -422.261658)" style="fill: rgb(88, 89, 91);"/>
  <path class="cls-2" d="M116.11,560.23A49.75,49.75,0,0,1,118.67,544,38.51,38.51,0,0,1,126,531a33.72,33.72,0,0,1,11.71-8.63,37.76,37.76,0,0,1,15.69-3.12,38.47,38.47,0,0,1,15.84,3.12A33.44,33.44,0,0,1,181.05,531a38.12,38.12,0,0,1,7.33,13,50.56,50.56,0,0,1,2.53,16.25v1.56a50.83,50.83,0,0,1-2.53,16.28,37.6,37.6,0,0,1-7.33,13,33.48,33.48,0,0,1-11.74,8.55,41.76,41.76,0,0,1-31.53,0A33.52,33.52,0,0,1,126,591.05a38,38,0,0,1-7.36-13,50,50,0,0,1-2.56-16.28Zm18.06,1.56a45.13,45.13,0,0,0,1.12,10.26,25.69,25.69,0,0,0,3.49,8.44,16.81,16.81,0,0,0,14.8,7.77,17.27,17.27,0,0,0,8.66-2.08,17.08,17.08,0,0,0,6-5.69,26.59,26.59,0,0,0,3.5-8.44,44,44,0,0,0,1.15-10.26v-1.56a43.25,43.25,0,0,0-1.15-10.15,26.36,26.36,0,0,0-3.53-8.4,18.13,18.13,0,0,0-6.06-5.76,17,17,0,0,0-8.74-2.16,16.54,16.54,0,0,0-8.66,2.16,18.3,18.3,0,0,0-6,5.76,25.65,25.65,0,0,0-3.49,8.4,44.35,44.35,0,0,0-1.12,10.15Z" transform="matrix(1, 0, 0, 1, 113.396996, -422.261658)" style="fill: rgb(88, 89, 91);"/>
  <path class="cls-2" d="M258.42,573.32a16.56,16.56,0,0,0-1-5.84,11.62,11.62,0,0,0-3.53-4.72,29.17,29.17,0,0,0-7.07-4.13,109.86,109.86,0,0,0-11.56-4.13A109.57,109.57,0,0,1,221,549.22a49.17,49.17,0,0,1-11.26-6.91,29.69,29.69,0,0,1-7.4-9.07,25.09,25.09,0,0,1-2.67-11.75,26.2,26.2,0,0,1,2.78-12,28.61,28.61,0,0,1,7.85-9.52,37.34,37.34,0,0,1,12.12-6.25,51.87,51.87,0,0,1,15.61-2.23,48,48,0,0,1,16.43,2.64,36.74,36.74,0,0,1,12.31,7.18,31.11,31.11,0,0,1,7.69,10.52,30.79,30.79,0,0,1,2.68,12.75H258.42a20.66,20.66,0,0,0-1.22-7.25,15.09,15.09,0,0,0-3.76-5.73,17.17,17.17,0,0,0-6.39-3.75,28.11,28.11,0,0,0-9.15-1.34,29.37,29.37,0,0,0-8.62,1.12,17.17,17.17,0,0,0-6.06,3.12,12.32,12.32,0,0,0-3.57,4.76,15.21,15.21,0,0,0-1.15,5.95q0,6,5.68,10t17.37,7.44a100.37,100.37,0,0,1,15.83,6,45.48,45.48,0,0,1,11.12,7.4,26.78,26.78,0,0,1,6.58,9.29,29.92,29.92,0,0,1,2.16,11.64,27.25,27.25,0,0,1-2.72,12.3,26.27,26.27,0,0,1-7.73,9.3,36.33,36.33,0,0,1-12.16,5.87,57.82,57.82,0,0,1-15.91,2.05,57.08,57.08,0,0,1-15.39-2.12,43.73,43.73,0,0,1-13.61-6.4A33.25,33.25,0,0,1,200,583.5a29.62,29.62,0,0,1-3.68-15h18.81a19.72,19.72,0,0,0,1.82,8.81,16.6,16.6,0,0,0,5,6,21,21,0,0,0,7.48,3.42,38.13,38.13,0,0,0,9.29,1.07q9.81,0,14.76-4A12.82,12.82,0,0,0,258.42,573.32Z" transform="matrix(1, 0, 0, 1, 113.396996, -422.261658)" style="fill: rgb(88, 89, 91);"/>
</svg>