<?xml version="1.0" encoding="utf-8"?>
<svg viewBox="187.276 343.96 560.387 231.49" width="560.387" height="231.49" xmlns="http://www.w3.org/2000/svg">
  <path class="cls-1" d="M48.94,427a20.37,20.37,0,0,1-2.73,10.77,18,18,0,0,1-7.43,6.87A22.65,22.65,0,0,1,28.42,447a25.62,25.62,0,0,1-5.73-.61,17.25,17.25,0,0,1-4.91-1.94A22.29,22.29,0,0,1,13.45,441l6.22-6.15a15.73,15.73,0,0,0,3.8,2.81,11.13,11.13,0,0,0,5,.91,12.09,12.09,0,0,0,6-1.41A9.34,9.34,0,0,0,38.26,433a15.4,15.4,0,0,0,1.33-6.69v-38h9.35Z" transform="matrix(1, 0, 0, 1, 173.825867, -44.349537)" style="fill: rgb(30, 64, 121);"/>
  <path class="cls-1" d="M88.24,447H79.57v-4.48a14.92,14.92,0,0,1-5,3.44,18,18,0,0,1-6.64,1A21.46,21.46,0,0,1,61,446a12.57,12.57,0,0,1-4.91-3,13.05,13.05,0,0,1-3.47-9.44A12.48,12.48,0,0,1,54.36,427a11.49,11.49,0,0,1,5.14-4.44A19.38,19.38,0,0,1,67.76,421H79.4v-3.12c0-2.81-.77-4.88-2.29-6.2s-4-2-7.32-2a14.24,14.24,0,0,0-5.73.93,10.81,10.81,0,0,0-3.91,3.29l-5.79-5.45a16.65,16.65,0,0,1,6.59-5,25.69,25.69,0,0,1,9.18-1.4q18.11,0,18.11,15.1ZM79.4,430.63v-3.55H69.08a9,9,0,0,0-5.86,1.65,5.72,5.72,0,0,0-2,4.69q0,6.22,8,6.22a19.77,19.77,0,0,0,4.74-.48,8,8,0,0,0,3.51-2Q79.4,435.25,79.4,430.63Z" transform="matrix(1, 0, 0, 1, 173.825867, -44.349537)" style="fill: rgb(30, 64, 121);"/>
  <path class="cls-1" d="M107.67,447H105q-6,0-9-3.45a12.7,12.7,0,0,1-3-8.69V388.32h8.84v46a5.87,5.87,0,0,0,1.06,3.87c.7.84,1.93,1.25,3.68,1.25h1.13Z" transform="matrix(1, 0, 0, 1, 173.825867, -44.349537)" style="fill: rgb(30, 64, 121);"/>
  <path class="cls-1" d="M147,447h-8.67v-5.2a14.51,14.51,0,0,1-3.38,3.13,12.41,12.41,0,0,1-3.73,1.58,18.74,18.74,0,0,1-4.52.49,17,17,0,0,1-6.07-1.06,12.28,12.28,0,0,1-7.83-7.88,26,26,0,0,1-1.41-6.2,79.61,79.61,0,0,1,0-14.7,25.47,25.47,0,0,1,1.41-6.15,13.58,13.58,0,0,1,3.15-5,12.76,12.76,0,0,1,4.66-2.89,16.89,16.89,0,0,1,6-1,17.42,17.42,0,0,1,6.45,1.1,13.09,13.09,0,0,1,5.1,3.87V388.32H147Zm-8.84-22.48a36.84,36.84,0,0,0-.68-7.62,9.34,9.34,0,0,0-2.68-5,9.74,9.74,0,0,0-11.53,0,9.49,9.49,0,0,0-2.71,5,43.55,43.55,0,0,0,0,15.22,9.61,9.61,0,0,0,2.71,5.07,8.12,8.12,0,0,0,5.8,1.92c3.61,0,6-1.28,7.25-3.86S138.12,429.11,138.12,424.52Z" transform="matrix(1, 0, 0, 1, 173.825867, -44.349537)" style="fill: rgb(30, 64, 121);"/>
  <path class="cls-1" d="M188.43,427.08H159.92a15.14,15.14,0,0,0,1.31,6.58,9.74,9.74,0,0,0,3.79,4.23,11.58,11.58,0,0,0,6.11,1.5,14.37,14.37,0,0,0,5.88-1,17.4,17.4,0,0,0,4.78-3.47l5.62,5.25a24.27,24.27,0,0,1-7.28,5.22,22.7,22.7,0,0,1-9.19,1.63,24.34,24.34,0,0,1-7.86-1.23,15.88,15.88,0,0,1-6.28-3.89,17.71,17.71,0,0,1-4.15-7,32.07,32.07,0,0,1-1.49-10.4,28.86,28.86,0,0,1,2.31-12.1,17.55,17.55,0,0,1,6.5-7.7A18,18,0,0,1,169.8,402a18.43,18.43,0,0,1,10,2.66,17,17,0,0,1,6.44,7.47,26.28,26.28,0,0,1,2.2,11ZM179.67,421a17.12,17.12,0,0,0-1.18-6,9,9,0,0,0-3.32-4.06,10.18,10.18,0,0,0-10.7,0,9.11,9.11,0,0,0-3.41,4.06,11.53,11.53,0,0,0-.78,2.39,34.14,34.14,0,0,0-.36,3.58Z" transform="matrix(1, 0, 0, 1, 173.825867, -44.349537)" style="fill: rgb(30, 64, 121);"/>
  <path class="cls-1" d="M229.9,427.08H201.39a15,15,0,0,0,1.31,6.58,9.72,9.72,0,0,0,3.78,4.23,11.61,11.61,0,0,0,6.12,1.5,14.37,14.37,0,0,0,5.88-1,17.55,17.55,0,0,0,4.78-3.47l5.62,5.25a24.39,24.39,0,0,1-7.28,5.22,22.7,22.7,0,0,1-9.19,1.63,24.3,24.3,0,0,1-7.86-1.23,16,16,0,0,1-6.29-3.89,17.83,17.83,0,0,1-4.15-7,32.36,32.36,0,0,1-1.48-10.4,28.86,28.86,0,0,1,2.31-12.1,17.49,17.49,0,0,1,6.5-7.7,18,18,0,0,1,9.82-2.66,18.46,18.46,0,0,1,10,2.66,16.91,16.91,0,0,1,6.43,7.47,26.12,26.12,0,0,1,2.21,11ZM221.14,421a17.12,17.12,0,0,0-1.18-6,9,9,0,0,0-3.32-4.06,9.42,9.42,0,0,0-5.36-1.52,9.53,9.53,0,0,0-5.35,1.52,9.15,9.15,0,0,0-3.4,4.06,10.44,10.44,0,0,0-.78,2.39,34.14,34.14,0,0,0-.36,3.58Z" transform="matrix(1, 0, 0, 1, 173.825867, -44.349537)" style="fill: rgb(30, 64, 121);"/>
  <path class="cls-2" d="M104.11,553.6a47.07,47.07,0,0,1-3.72,14.69,35.16,35.16,0,0,1-8.25,11.63,37.22,37.22,0,0,1-12.9,7.66,51.85,51.85,0,0,1-17.59,2.75,43.78,43.78,0,0,1-18-3.6,38.69,38.69,0,0,1-13.76-10.27,46.3,46.3,0,0,1-8.73-16.09,68.58,68.58,0,0,1-3.05-21.19V530.4a67.41,67.41,0,0,1,3.12-21.15,46.68,46.68,0,0,1,8.92-16.17,39.55,39.55,0,0,1,14-10.34,44.9,44.9,0,0,1,18.4-3.64,48.44,48.44,0,0,1,17.1,2.79,36.51,36.51,0,0,1,12.61,7.73,35.59,35.59,0,0,1,8.1,11.78,50.73,50.73,0,0,1,3.76,15H85.37a42.16,42.16,0,0,0-2.05-9.22,19.56,19.56,0,0,0-4.12-6.95,17.06,17.06,0,0,0-6.77-4.35,29,29,0,0,0-9.89-1.49,24.59,24.59,0,0,0-11.19,2.42,21.42,21.42,0,0,0-8,7A32.88,32.88,0,0,0,38.56,515,66.15,66.15,0,0,0,37,530.25v8.93a70.77,70.77,0,0,0,1.42,14.72,34.77,34.77,0,0,0,4.38,11.34,21,21,0,0,0,7.66,7.32,22.76,22.76,0,0,0,11.23,2.6A32.68,32.68,0,0,0,72,573.75a17.55,17.55,0,0,0,7-4.16,19.06,19.06,0,0,0,4.28-6.77,41.18,41.18,0,0,0,2.19-9.22Z" transform="matrix(1, 0, 0, 1, 173.825867, -44.349537)" style="fill: rgb(88, 89, 91);"/>
  <path class="cls-2" d="M109.69,547.88a49.75,49.75,0,0,1,2.56-16.25,38.58,38.58,0,0,1,7.37-13A33.73,33.73,0,0,1,131.33,510,37.74,37.74,0,0,1,147,506.91,38.47,38.47,0,0,1,162.85,510a33.67,33.67,0,0,1,11.79,8.62,38.14,38.14,0,0,1,7.32,13,50.28,50.28,0,0,1,2.53,16.25v1.56A50.6,50.6,0,0,1,182,565.72a37.68,37.68,0,0,1-7.32,13,33.61,33.61,0,0,1-11.75,8.55,41.89,41.89,0,0,1-31.53,0,33.48,33.48,0,0,1-11.74-8.55,38.1,38.1,0,0,1-7.37-13,50.06,50.06,0,0,1-2.56-16.28Zm18.07,1.56a45.71,45.71,0,0,0,1.11,10.26,25.79,25.79,0,0,0,3.5,8.44,18.32,18.32,0,0,0,23.46,5.69,17.25,17.25,0,0,0,6-5.69,26.91,26.91,0,0,0,3.49-8.44,44,44,0,0,0,1.16-10.26v-1.56a43.18,43.18,0,0,0-1.16-10.15,26.28,26.28,0,0,0-3.53-8.41,18.23,18.23,0,0,0-6.06-5.76,17,17,0,0,0-8.74-2.15,16.66,16.66,0,0,0-8.66,2.15,18.47,18.47,0,0,0-6,5.76,25.81,25.81,0,0,0-3.5,8.41,44.85,44.85,0,0,0-1.11,10.15Z" transform="matrix(1, 0, 0, 1, 173.825867, -44.349537)" style="fill: rgb(88, 89, 91);"/>
  <path class="cls-2" d="M242.42,581a25.67,25.67,0,0,1-9.37,6.92,32.8,32.8,0,0,1-13.24,2.45A33.23,33.23,0,0,1,209,588.66a21,21,0,0,1-8.37-5.28,24.38,24.38,0,0,1-5.43-9.29,42.62,42.62,0,0,1-1.93-13.65V508.39h18.07v52.2a21.32,21.32,0,0,0,1,7.25,12.23,12.23,0,0,0,2.79,4.61,9.64,9.64,0,0,0,4.05,2.45,16.08,16.08,0,0,0,4.83.71q7,0,11.3-2.53a16.09,16.09,0,0,0,6.47-6.91V508.39h18.07v80.45h-17Z" transform="matrix(1, 0, 0, 1, 173.825867, -44.349537)" style="fill: rgb(88, 89, 91);"/>
  <path class="cls-2" d="M342.65,549.44a61.94,61.94,0,0,1-2,16.28,39.45,39.45,0,0,1-6,13,28.52,28.52,0,0,1-9.81,8.55,28.21,28.21,0,0,1-13.35,3.08,30.52,30.52,0,0,1-12.12-2.23,26,26,0,0,1-9.07-6.47v38.15H272.16V508.39h16.66l.74,8.18a26.24,26.24,0,0,1,9.19-7.17,29.06,29.06,0,0,1,12.45-2.49,29.58,29.58,0,0,1,13.53,3,27.46,27.46,0,0,1,9.85,8.37,38.44,38.44,0,0,1,6,12.93,63.94,63.94,0,0,1,2,16.7Zm-18-1.56a46,46,0,0,0-1.08-10.19,26.74,26.74,0,0,0-3.31-8.33,15.72,15.72,0,0,0-14.13-7.66,18,18,0,0,0-9.81,2.46,17.23,17.23,0,0,0-6.1,6.69v35.69a18.36,18.36,0,0,0,6.06,6.8q3.82,2.56,10,2.57a15.77,15.77,0,0,0,8.37-2.12,17.23,17.23,0,0,0,5.69-5.73,26.74,26.74,0,0,0,3.27-8.44,48.46,48.46,0,0,0,1-10.18Z" transform="matrix(1, 0, 0, 1, 173.825867, -44.349537)" style="fill: rgb(88, 89, 91);"/>
  <path class="cls-2" d="M348.46,547.88A49.75,49.75,0,0,1,351,531.63a38.73,38.73,0,0,1,7.36-13A33.82,33.82,0,0,1,370.09,510a37.76,37.76,0,0,1,15.69-3.12A38.47,38.47,0,0,1,401.62,510a33.67,33.67,0,0,1,11.79,8.62,38.31,38.31,0,0,1,7.32,13,50.56,50.56,0,0,1,2.53,16.25v1.56a50.88,50.88,0,0,1-2.53,16.28,37.84,37.84,0,0,1-7.32,13,33.61,33.61,0,0,1-11.75,8.55,41.89,41.89,0,0,1-31.53,0,33.61,33.61,0,0,1-11.75-8.55,38.25,38.25,0,0,1-7.36-13,50.06,50.06,0,0,1-2.56-16.28Zm18.07,1.56a45.71,45.71,0,0,0,1.11,10.26,25.78,25.78,0,0,0,3.49,8.44,16.81,16.81,0,0,0,14.8,7.77,16.7,16.7,0,0,0,14.69-7.77,26.91,26.91,0,0,0,3.49-8.44,44,44,0,0,0,1.15-10.26v-1.56a43.18,43.18,0,0,0-1.15-10.15,26.28,26.28,0,0,0-3.53-8.41,18.33,18.33,0,0,0-6.06-5.76,17.06,17.06,0,0,0-8.74-2.15,16.63,16.63,0,0,0-8.66,2.15,18.6,18.6,0,0,0-6,5.76,25.79,25.79,0,0,0-3.49,8.41,44.85,44.85,0,0,0-1.11,10.15Z" transform="matrix(1, 0, 0, 1, 173.825867, -44.349537)" style="fill: rgb(88, 89, 91);"/>
  <path class="cls-2" d="M449.21,508.39l.52,9.3a29.57,29.57,0,0,1,10.19-8,30.49,30.49,0,0,1,13.23-2.82,32.49,32.49,0,0,1,10.52,1.6,19.32,19.32,0,0,1,8.07,5.16,24,24,0,0,1,5.17,9.3,46.35,46.35,0,0,1,1.82,13.9v52H480.66V536.72a22.91,22.91,0,0,0-.93-7,11.43,11.43,0,0,0-2.71-4.65,10.22,10.22,0,0,0-4.42-2.57,21.42,21.42,0,0,0-6.06-.78,17.49,17.49,0,0,0-9.71,2.68,19.49,19.49,0,0,0-6.58,7.21v57.25H432.19V508.39Z" transform="matrix(1, 0, 0, 1, 173.825867, -44.349537)" style="fill: rgb(88, 89, 91);"/>
  <path class="cls-2" d="M556.14,567a10.13,10.13,0,0,0-.63-3.6,7.43,7.43,0,0,0-2.49-3.12,20.12,20.12,0,0,0-5.25-2.72,61.87,61.87,0,0,0-8.81-2.38,78.91,78.91,0,0,1-11.78-3.34,36.6,36.6,0,0,1-9.11-4.87,21.06,21.06,0,0,1-5.91-6.73,18.31,18.31,0,0,1-2.12-8.93A21,21,0,0,1,512.2,522a23.21,23.21,0,0,1,6.2-7.77,31.06,31.06,0,0,1,9.82-5.31,39.52,39.52,0,0,1,12.9-2,42.81,42.81,0,0,1,13.49,2,30.54,30.54,0,0,1,10.15,5.43,23.22,23.22,0,0,1,6.36,8.14,23.55,23.55,0,0,1,2.19,10.11H555.25a11.73,11.73,0,0,0-.9-4.5,11.14,11.14,0,0,0-2.67-3.9,13,13,0,0,0-4.43-2.72,17.17,17.17,0,0,0-6.13-1,18.93,18.93,0,0,0-6,.85,13.35,13.35,0,0,0-4.2,2.23,8.73,8.73,0,0,0-2.49,3.2,9.19,9.19,0,0,0-.82,3.83,8.28,8.28,0,0,0,.74,3.57A7.38,7.38,0,0,0,531,537a22.31,22.31,0,0,0,5.1,2.34,76.63,76.63,0,0,0,8,2.12,94.71,94.71,0,0,1,12.53,3.49,35.73,35.73,0,0,1,9.37,4.91,19.83,19.83,0,0,1,5.83,6.84,20.4,20.4,0,0,1,2,9.37,21,21,0,0,1-2.31,9.81,22.54,22.54,0,0,1-6.58,7.7,32.07,32.07,0,0,1-10.29,5,47.06,47.06,0,0,1-13.39,1.78A42.17,42.17,0,0,1,526.73,588a33.65,33.65,0,0,1-10.67-6.13,25.68,25.68,0,0,1-6.5-8.59,23.2,23.2,0,0,1-2.2-9.78h17.55a13.88,13.88,0,0,0,1.71,6.25,12.73,12.73,0,0,0,3.79,4.09,15.88,15.88,0,0,0,5.21,2.26,25,25,0,0,0,6,.71q7.13,0,10.85-2.71A8.41,8.41,0,0,0,556.14,567Z" transform="matrix(1, 0, 0, 1, 173.825867, -44.349537)" style="fill: rgb(88, 89, 91);"/>
</svg>