<?xml version="1.0" encoding="utf-8"?>
<svg viewBox="314.947 698.761 216.504 191.48" width="216.504" height="191.48" xmlns="http://www.w3.org/2000/svg">
  <path class="cls-1" d="M41.63,449.66a20.36,20.36,0,0,1-2.73,10.76,18,18,0,0,1-7.42,6.88,22.68,22.68,0,0,1-10.36,2.37,25.61,25.61,0,0,1-5.73-.62,16.83,16.83,0,0,1-4.91-1.93,22,22,0,0,1-4.34-3.45l6.22-6.14a16,16,0,0,0,3.81,2.81,11.13,11.13,0,0,0,4.95.91,11.94,11.94,0,0,0,6-1.42A9.21,9.21,0,0,0,31,455.65a15.34,15.34,0,0,0,1.33-6.7V411h9.35Z" transform="matrix(1, 0, 0, 1, 308.806854, 287.760559)" style="fill: rgb(30, 64, 121);"/>
  <path class="cls-1" d="M80.93,469.67H72.26v-4.49a14.92,14.92,0,0,1-5,3.45,18.25,18.25,0,0,1-6.64,1,21.28,21.28,0,0,1-6.9-1,12.42,12.42,0,0,1-4.9-3,13,13,0,0,1-3.47-9.43,12.45,12.45,0,0,1,1.73-6.62,11.54,11.54,0,0,1,5.14-4.44,19.46,19.46,0,0,1,8.27-1.59H72.09v-3.12q0-4.22-2.28-6.19c-1.53-1.32-4-2-7.32-2a14.24,14.24,0,0,0-5.73.93,10.69,10.69,0,0,0-3.91,3.28l-5.8-5.45a16.49,16.49,0,0,1,6.6-5,25.45,25.45,0,0,1,9.18-1.41q18.11,0,18.1,15.1ZM72.09,453.3v-3.56H61.77a9,9,0,0,0-5.86,1.65,5.74,5.74,0,0,0-2,4.7q0,6.21,8,6.22a19.22,19.22,0,0,0,4.74-.49,7.84,7.84,0,0,0,3.51-2Q72.1,457.91,72.09,453.3Z" transform="matrix(1, 0, 0, 1, 308.806854, 287.760559)" style="fill: rgb(30, 64, 121);"/>
  <path class="cls-1" d="M100.36,469.67H97.67q-6,0-9-3.45a12.69,12.69,0,0,1-3-8.69V411h8.84v46a5.87,5.87,0,0,0,1.06,3.87c.7.83,1.93,1.25,3.68,1.25h1.13Z" transform="matrix(1, 0, 0, 1, 308.806854, 287.760559)" style="fill: rgb(30, 64, 121);"/>
  <path class="cls-1" d="M139.66,469.67H131v-5.21a14.1,14.1,0,0,1-3.38,3.13,12.23,12.23,0,0,1-3.72,1.59,19.4,19.4,0,0,1-4.53.49,17.25,17.25,0,0,1-6.07-1.06,12.28,12.28,0,0,1-7.82-7.89,26.36,26.36,0,0,1-1.42-6.2,79.51,79.51,0,0,1,0-14.69,26.15,26.15,0,0,1,1.42-6.16,13.62,13.62,0,0,1,3.15-5,12.73,12.73,0,0,1,4.65-2.9,18.59,18.59,0,0,1,12.46.07,13.23,13.23,0,0,1,5.1,3.87V411h8.84Zm-8.84-22.48a36.94,36.94,0,0,0-.68-7.63,9.32,9.32,0,0,0-2.69-5,8,8,0,0,0-5.73-1.88,8.13,8.13,0,0,0-5.79,1.9,9.36,9.36,0,0,0-2.71,5,43,43,0,0,0,0,15.23,9.47,9.47,0,0,0,2.71,5.07,8.09,8.09,0,0,0,5.79,1.92q5.41,0,7.26-3.86T130.82,447.19Z" transform="matrix(1, 0, 0, 1, 308.806854, 287.760559)" style="fill: rgb(30, 64, 121);"/>
  <path class="cls-1" d="M181.12,449.74H152.61a15,15,0,0,0,1.32,6.58,9.72,9.72,0,0,0,3.78,4.23,11.6,11.6,0,0,0,6.11,1.5,14.48,14.48,0,0,0,5.88-1,17.46,17.46,0,0,0,4.78-3.47l5.63,5.24a24.53,24.53,0,0,1-7.29,5.23,22.84,22.84,0,0,1-9.19,1.63,24.24,24.24,0,0,1-7.85-1.23,16.1,16.1,0,0,1-6.29-3.89,17.9,17.9,0,0,1-4.15-7,32.15,32.15,0,0,1-1.48-10.41,28.82,28.82,0,0,1,2.31-12.09,17.43,17.43,0,0,1,6.5-7.7,17.88,17.88,0,0,1,9.82-2.67,18.32,18.32,0,0,1,10,2.67,16.9,16.9,0,0,1,6.44,7.46,26.19,26.19,0,0,1,2.2,11Zm-8.75-6.13a17.1,17.1,0,0,0-1.19-6,8.87,8.87,0,0,0-3.32-4.06,9.32,9.32,0,0,0-5.35-1.53,9.46,9.46,0,0,0-5.35,1.53,9,9,0,0,0-3.4,4.06A11,11,0,0,0,153,440q-.18,1-.36,3.57Z" transform="matrix(1, 0, 0, 1, 308.806854, 287.760559)" style="fill: rgb(30, 64, 121);"/>
  <path class="cls-1" d="M222.59,449.74H194.08a15.14,15.14,0,0,0,1.31,6.58,9.8,9.8,0,0,0,3.79,4.23,11.6,11.6,0,0,0,6.11,1.5,14.48,14.48,0,0,0,5.88-1,17.61,17.61,0,0,0,4.78-3.47l5.63,5.24a24.53,24.53,0,0,1-7.29,5.23,22.84,22.84,0,0,1-9.19,1.63,24.24,24.24,0,0,1-7.85-1.23,16,16,0,0,1-6.29-3.89,17.9,17.9,0,0,1-4.15-7,32.15,32.15,0,0,1-1.48-10.41,29,29,0,0,1,2.3-12.09,17.5,17.5,0,0,1,6.5-7.7A17.91,17.91,0,0,1,204,424.7a18.32,18.32,0,0,1,10,2.67,17,17,0,0,1,6.44,7.46,26.19,26.19,0,0,1,2.2,11Zm-8.75-6.13a17.1,17.1,0,0,0-1.19-6,8.87,8.87,0,0,0-3.32-4.06,9.32,9.32,0,0,0-5.35-1.53,9.46,9.46,0,0,0-5.35,1.53,9.12,9.12,0,0,0-3.41,4.06,11.53,11.53,0,0,0-.78,2.39,34.18,34.18,0,0,0-.36,3.57Z" transform="matrix(1, 0, 0, 1, 308.806854, 287.760559)" style="fill: rgb(30, 64, 121);"/>
  <path class="cls-2" d="M52.1,559.2h-21v41.71H12.32V492.65H50.39A59.46,59.46,0,0,1,67,494.77,34.12,34.12,0,0,1,79.28,501a26.41,26.41,0,0,1,7.62,10.22,35.69,35.69,0,0,1,2.6,14.13q0,10.86-5.24,18.18a33.26,33.26,0,0,1-14.61,11.26L94,600v1H73.82Zm-21-15.09H50.47a26.65,26.65,0,0,0,8.85-1.34,17.67,17.67,0,0,0,6.32-3.72,15.35,15.35,0,0,0,3.79-5.65,19.92,19.92,0,0,0,1.26-7.21,22.74,22.74,0,0,0-1.19-7.55,14.87,14.87,0,0,0-3.64-5.8,16.32,16.32,0,0,0-6.28-3.72,29,29,0,0,0-9.19-1.3H31.14Z" transform="matrix(1, 0, 0, 1, 308.806854, 287.760559)" style="fill: rgb(88, 89, 91);"/>
  <path class="cls-2" d="M96.13,559.94a49.69,49.69,0,0,1,2.56-16.24,38.63,38.63,0,0,1,7.36-13,33.69,33.69,0,0,1,11.71-8.62A37.76,37.76,0,0,1,133.45,519a38.47,38.47,0,0,1,15.84,3.13,33.54,33.54,0,0,1,11.79,8.62,38.21,38.21,0,0,1,7.32,13,50.49,50.49,0,0,1,2.53,16.24v1.56a50.94,50.94,0,0,1-2.53,16.29,37.79,37.79,0,0,1-7.32,13,33.36,33.36,0,0,1-11.75,8.55,41.76,41.76,0,0,1-31.53,0,33.36,33.36,0,0,1-11.75-8.55,38.2,38.2,0,0,1-7.36-13,50.12,50.12,0,0,1-2.56-16.29Zm18.07,1.56a45.86,45.86,0,0,0,1.11,10.27,25.43,25.43,0,0,0,3.5,8.43,18.31,18.31,0,0,0,23.45,5.69,17,17,0,0,0,6-5.69,26.75,26.75,0,0,0,3.49-8.43,44.15,44.15,0,0,0,1.15-10.27v-1.56a43.25,43.25,0,0,0-1.15-10.15,26.55,26.55,0,0,0-3.53-8.4,18.33,18.33,0,0,0-6.06-5.76,17,17,0,0,0-8.74-2.16,16.54,16.54,0,0,0-8.66,2.16,18.47,18.47,0,0,0-6,5.76,25.63,25.63,0,0,0-3.5,8.4,44.92,44.92,0,0,0-1.11,10.15Z" transform="matrix(1, 0, 0, 1, 308.806854, 287.760559)" style="fill: rgb(88, 89, 91);"/>
  <path class="cls-2" d="M201.72,600.91H183V492.65h18.74Z" transform="matrix(1, 0, 0, 1, 308.806854, 287.760559)" style="fill: rgb(88, 89, 91);"/>
</svg>