<svg id="Layer_1" data-name="Layer 1" xmlns="http://www.w3.org/2000/svg" viewBox="0 0 1000 1000"><title>Jaldee_features logos</title><text transform="translate(185.69 682.34)" style="font-size:180.27999877929688px;fill:#58595b;font-family:Roboto-Medium, Roboto;font-weight:500;letter-spacing:-0.03999854420249805em">Check-In</text><path d="M274.57,487.18q0,14.31-6.24,24.59a41,41,0,0,1-16.95,15.7,51.76,51.76,0,0,1-23.67,5.41,58.31,58.31,0,0,1-13.09-1.41,38.75,38.75,0,0,1-11.21-4.41,50.31,50.31,0,0,1-9.9-7.87l14.2-14a36.76,36.76,0,0,0,8.69,6.43q4.15,2.07,11.31,2.08a27.4,27.4,0,0,0,13.67-3.24,21.15,21.15,0,0,0,8.79-9.55,35.07,35.07,0,0,0,3-15.31V398.84h21.36Z" style="fill:#1e4079"/><path d="M364.33,532.88h-19.8V522.64a34.1,34.1,0,0,1-11.5,7.87q-6,2.37-15.17,2.37a49.11,49.11,0,0,1-15.75-2.27,28.49,28.49,0,0,1-11.2-6.81Q283,515.6,283,502.26a28.43,28.43,0,0,1,4-15.12A26.25,26.25,0,0,1,298.68,477q7.79-3.62,18.89-3.62h26.57v-7.12q0-9.63-5.22-14.15t-16.71-4.53q-8.4,0-13.09,2.12a24.7,24.7,0,0,0-8.94,7.51L287,444.76q6.85-8.16,15.07-11.37t21-3.21q41.36,0,41.35,34.49Zm-20.19-37.39v-8.11H320.57c-5.86,0-10.33,1.25-13.38,3.77s-4.59,6.08-4.59,10.72q0,14.2,18.35,14.2A44.49,44.49,0,0,0,331.77,515a18.13,18.13,0,0,0,8-4.59Q344.14,506,344.14,495.49Z" style="fill:#1e4079"/><path d="M408.71,532.88h-6.16q-13.62,0-20.53-7.87t-6.9-19.86V398.84h20.19V504q0,6,2.41,8.85t8.41,2.85h2.58Z" style="fill:#1e4079"/><path d="M498.47,532.88H478.66V521a33,33,0,0,1-7.73,7.15,28.4,28.4,0,0,1-8.5,3.62,43.7,43.7,0,0,1-10.34,1.11,39,39,0,0,1-13.86-2.41,28.16,28.16,0,0,1-17.88-18,59.72,59.72,0,0,1-3.23-14.16,181,181,0,0,1,0-33.57,59,59,0,0,1,3.23-14.06,31.06,31.06,0,0,1,7.2-11.49,29,29,0,0,1,10.63-6.62,39,39,0,0,1,13.72-2.37,39.65,39.65,0,0,1,14.73,2.53,29.73,29.73,0,0,1,11.64,8.84V398.84h20.2Zm-20.2-51.35a84.16,84.16,0,0,0-1.54-17.41,21.39,21.39,0,0,0-6.14-11.48q-4.59-4.29-13.09-4.29t-13.23,4.34a21.41,21.41,0,0,0-6.19,11.48,83.45,83.45,0,0,0-1.54,17.36A84.33,84.33,0,0,0,438.08,499a21.68,21.68,0,0,0,6.19,11.57q4.64,4.4,13.23,4.39,12.38,0,16.57-8.82T478.27,481.53Z" style="fill:#1e4079"/><path d="M593.18,487.38H528.06a34.36,34.36,0,0,0,3,15,22.26,22.26,0,0,0,8.65,9.66q5.64,3.44,14,3.43t13.43-2.32A39.91,39.91,0,0,0,578,505.25l12.85,12a55.83,55.83,0,0,1-16.63,11.93q-8.41,3.72-21,3.72a55.59,55.59,0,0,1-18-2.8,36.71,36.71,0,0,1-14.36-8.89,40.94,40.94,0,0,1-9.48-15.94q-3.39-9.86-3.38-23.77,0-16.12,5.27-27.63a39.89,39.89,0,0,1,14.84-17.58q9.59-6.09,22.44-6.09,13.15,0,22.83,6.09a38.62,38.62,0,0,1,14.7,17.05q5,11,5,25.17Zm-20-14a39,39,0,0,0-2.7-13.62,20.37,20.37,0,0,0-7.59-9.28A21.35,21.35,0,0,0,550.67,447a21.66,21.66,0,0,0-12.22,3.48,20.83,20.83,0,0,0-7.78,9.28,25.51,25.51,0,0,0-1.78,5.45q-.43,2.37-.83,8.17Z" style="fill:#1e4079"/><path d="M687.9,487.38H622.78a34.36,34.36,0,0,0,3,15,22.24,22.24,0,0,0,8.64,9.66q5.66,3.44,14,3.43t13.43-2.32a39.79,39.79,0,0,0,10.92-7.92l12.85,12a55.86,55.86,0,0,1-16.64,11.93q-8.41,3.72-21,3.72a55.57,55.57,0,0,1-17.94-2.8,36.71,36.71,0,0,1-14.36-8.89,40.7,40.7,0,0,1-9.48-15.94q-3.39-9.86-3.39-23.77,0-16.12,5.28-27.63a39.89,39.89,0,0,1,14.84-17.58q9.58-6.09,22.44-6.09,13.15,0,22.83,6.09a38.62,38.62,0,0,1,14.7,17.05,59.81,59.81,0,0,1,5,25.17Zm-20-14a39,39,0,0,0-2.7-13.62,20.43,20.43,0,0,0-7.59-9.28A21.35,21.35,0,0,0,645.39,447a21.64,21.64,0,0,0-12.22,3.48,20.83,20.83,0,0,0-7.78,9.28,25.6,25.6,0,0,0-1.79,5.45q-.44,2.37-.82,8.17Z" style="fill:#1e4079"/></svg>