<svg id="Layer_1" data-name="Layer 1" xmlns="http://www.w3.org/2000/svg" viewBox="0 0 1000 1000"><title>Jaldee_features logos</title><text transform="translate(219.22 624.34)" style="font-size:180.27999877929688px;fill:#58595b;font-family:Roboto-Medium, Roboto;font-weight:500;letter-spacing:-0.03999854420249805em">Assu<tspan x="377.4" y="0" style="letter-spacing:-0.04927772976843509em">r</tspan><tspan x="431.9" y="0" style="letter-spacing:-0.040003961123435544em">e</tspan></text><path d="M296.26,422.89q0,14.3-6.23,24.59a41.06,41.06,0,0,1-16.95,15.7,51.89,51.89,0,0,1-23.67,5.41,58.24,58.24,0,0,1-13.09-1.41,38.65,38.65,0,0,1-11.21-4.42,50.31,50.31,0,0,1-9.9-7.87l14.2-14a36.22,36.22,0,0,0,8.69,6.42q4.16,2.09,11.31,2.08a27.5,27.5,0,0,0,13.67-3.23,21.23,21.23,0,0,0,8.79-9.56,35,35,0,0,0,3-15.3V334.55h21.35Z" style="fill:#1e4079"/><path d="M386,468.59h-19.8V458.35a34.25,34.25,0,0,1-11.5,7.87q-6,2.37-15.17,2.37a49.11,49.11,0,0,1-15.75-2.27,28.62,28.62,0,0,1-11.2-6.82q-7.94-8.21-7.93-21.54a28.48,28.48,0,0,1,4-15.12,26.18,26.18,0,0,1,11.73-10.14q7.78-3.63,18.89-3.63h26.57V402q0-9.63-5.22-14.15t-16.71-4.52q-8.4,0-13.09,2.11a24.8,24.8,0,0,0-8.94,7.51l-13.23-12.44q6.86-8.16,15.07-11.37t21-3.2q41.35,0,41.35,34.49ZM365.84,431.2v-8.12H342.27q-8.81,0-13.38,3.77t-4.59,10.72q0,14.21,18.35,14.21a44,44,0,0,0,10.82-1.12,18.2,18.2,0,0,0,8-4.58Q365.84,441.73,365.84,431.2Z" style="fill:#1e4079"/><path d="M430.41,468.59h-6.16q-13.62,0-20.53-7.88t-6.9-19.85V334.55H417V439.7q0,6,2.41,8.84t8.41,2.85h2.58Z" style="fill:#1e4079"/><path d="M520.16,468.59h-19.8V456.7a32.77,32.77,0,0,1-7.73,7.15,28,28,0,0,1-8.5,3.62,43.67,43.67,0,0,1-10.34,1.12,39,39,0,0,1-13.86-2.42,28.1,28.1,0,0,1-17.88-18A59.75,59.75,0,0,1,438.82,434a181,181,0,0,1,0-33.57,58.91,58.91,0,0,1,3.23-14.06,31.1,31.1,0,0,1,7.2-11.5,29.16,29.16,0,0,1,10.63-6.62,42.68,42.68,0,0,1,28.45.16A29.83,29.83,0,0,1,500,377.25v-42.7h20.19ZM500,417.24a84.26,84.26,0,0,0-1.54-17.42,21.39,21.39,0,0,0-6.14-11.48q-4.59-4.29-13.09-4.29T466,388.39a21.44,21.44,0,0,0-6.19,11.48,99,99,0,0,0,0,34.78A21.74,21.74,0,0,0,466,446.23q4.63,4.38,13.23,4.39,12.38,0,16.57-8.83T500,417.24Z" style="fill:#1e4079"/><path d="M614.88,423.08H549.76a34.36,34.36,0,0,0,3,15,22.35,22.35,0,0,0,8.65,9.67q5.64,3.42,14,3.43t13.43-2.32A40.19,40.19,0,0,0,599.71,441l12.85,12a55.87,55.87,0,0,1-16.63,11.94q-8.41,3.72-21,3.72a55.59,55.59,0,0,1-18-2.81,36.69,36.69,0,0,1-14.36-8.88A41,41,0,0,1,533.15,441q-3.39-9.84-3.38-23.76,0-16.14,5.27-27.63A39.86,39.86,0,0,1,549.88,372q9.58-6.08,22.44-6.08,13.15,0,22.83,6.08A38.65,38.65,0,0,1,609.85,389q5,11,5,25.16Zm-20-14a39,39,0,0,0-2.7-13.62,20.34,20.34,0,0,0-7.59-9.27,21.35,21.35,0,0,0-12.22-3.48,21.66,21.66,0,0,0-12.22,3.48,20.81,20.81,0,0,0-7.78,9.27,25.4,25.4,0,0,0-1.78,5.46q-.44,2.37-.83,8.16Z" style="fill:#1e4079"/><path d="M709.6,423.08H644.48a34.36,34.36,0,0,0,3,15,22.32,22.32,0,0,0,8.64,9.67,26.53,26.53,0,0,0,14,3.43q8.31,0,13.43-2.32A40.07,40.07,0,0,0,694.43,441l12.85,12a55.91,55.91,0,0,1-16.64,11.94q-8.42,3.72-21,3.72a55.53,55.53,0,0,1-17.94-2.81,36.69,36.69,0,0,1-14.36-8.88A40.75,40.75,0,0,1,627.87,441q-3.39-9.84-3.39-23.76,0-16.14,5.27-27.63A39.94,39.94,0,0,1,644.6,372q9.57-6.08,22.44-6.08,13.15,0,22.83,6.08A38.65,38.65,0,0,1,704.57,389a59.76,59.76,0,0,1,5,25.16Zm-20-14a39.24,39.24,0,0,0-2.7-13.62,20.4,20.4,0,0,0-7.59-9.27,21.37,21.37,0,0,0-12.22-3.48,21.64,21.64,0,0,0-12.22,3.48,20.81,20.81,0,0,0-7.78,9.27,25.49,25.49,0,0,0-1.79,5.46q-.43,2.37-.82,8.16Z" style="fill:#1e4079"/></svg>