<?xml version="1.0" encoding="utf-8"?>
<svg viewBox="-31.092 24.832 443.743 205.69" width="443.743" height="205.69" xmlns="http://www.w3.org/2000/svg">
  <path class="cls-1" d="M55.63,446.56a20.36,20.36,0,0,1-2.73,10.76,18,18,0,0,1-7.42,6.88,22.68,22.68,0,0,1-10.36,2.37,25.64,25.64,0,0,1-5.74-.62,17.17,17.17,0,0,1-4.9-1.93,22,22,0,0,1-4.34-3.45l6.22-6.14a15.84,15.84,0,0,0,3.81,2.81,11.13,11.13,0,0,0,4.95.91,11.94,11.94,0,0,0,6-1.42A9.26,9.26,0,0,0,45,452.55a15.34,15.34,0,0,0,1.33-6.7v-38h9.35Z" transform="matrix(1, 0, 0, 1, -51.232201, -383.017548)" style="fill: rgb(30, 64, 121);"/>
  <path class="cls-1" d="M94.93,466.57H86.26v-4.49a15,15,0,0,1-5,3.45,18.28,18.28,0,0,1-6.64,1,21.51,21.51,0,0,1-6.9-1,12.53,12.53,0,0,1-4.91-3,13,13,0,0,1-3.46-9.43,12.45,12.45,0,0,1,1.73-6.62,11.48,11.48,0,0,1,5.14-4.44,19.46,19.46,0,0,1,8.27-1.59H86.09v-3.12q0-4.22-2.28-6.19t-7.32-2a14.4,14.4,0,0,0-5.73.92,10.94,10.94,0,0,0-3.92,3.29L61.05,428a16.49,16.49,0,0,1,6.6-5,25.37,25.37,0,0,1,9.18-1.41q18.11,0,18.1,15.1ZM86.09,450.2v-3.56H75.77a9,9,0,0,0-5.86,1.65,5.74,5.74,0,0,0-2,4.7q0,6.21,8,6.22a19.72,19.72,0,0,0,4.74-.49,8,8,0,0,0,3.51-2Q86.1,454.81,86.09,450.2Z" transform="matrix(1, 0, 0, 1, -51.232201, -383.017548)" style="fill: rgb(30, 64, 121);"/>
  <path class="cls-1" d="M114.36,466.57h-2.7q-6,0-9-3.45a12.69,12.69,0,0,1-3-8.69V407.88h8.84v46a5.87,5.87,0,0,0,1.06,3.87c.7.83,1.93,1.25,3.68,1.25h1.13Z" transform="matrix(1, 0, 0, 1, -51.232201, -383.017548)" style="fill: rgb(30, 64, 121);"/>
  <path class="cls-1" d="M153.65,466.57H145v-5.21a14.1,14.1,0,0,1-3.38,3.13,12.23,12.23,0,0,1-3.72,1.59,19.4,19.4,0,0,1-4.53.49,17.25,17.25,0,0,1-6.07-1.06,12.34,12.34,0,0,1-7.82-7.89,26.36,26.36,0,0,1-1.42-6.2,69.68,69.68,0,0,1-.34-7.36,69,69,0,0,1,.34-7.33,26.15,26.15,0,0,1,1.42-6.16,13.62,13.62,0,0,1,3.15-5,12.73,12.73,0,0,1,4.65-2.9,18.59,18.59,0,0,1,12.46.07,13.13,13.13,0,0,1,5.09,3.87v-18.7h8.84Zm-8.84-22.48a37,37,0,0,0-.67-7.63,9.32,9.32,0,0,0-2.69-5,8,8,0,0,0-5.73-1.88,8.13,8.13,0,0,0-5.79,1.9,9.32,9.32,0,0,0-2.71,5,43,43,0,0,0,0,15.23,9.47,9.47,0,0,0,2.71,5.07,8.09,8.09,0,0,0,5.79,1.92q5.42,0,7.25-3.87C144.2,452.26,144.81,448.67,144.81,444.09Z" transform="matrix(1, 0, 0, 1, -51.232201, -383.017548)" style="fill: rgb(30, 64, 121);"/>
  <path class="cls-1" d="M195.12,446.64H166.61a15.14,15.14,0,0,0,1.31,6.58,9.8,9.8,0,0,0,3.79,4.23,11.6,11.6,0,0,0,6.11,1.5,14.48,14.48,0,0,0,5.88-1,17.68,17.68,0,0,0,4.78-3.47l5.63,5.24a24.53,24.53,0,0,1-7.29,5.23,22.84,22.84,0,0,1-9.19,1.63,24.24,24.24,0,0,1-7.85-1.23,16.14,16.14,0,0,1-6.29-3.89,17.9,17.9,0,0,1-4.15-7,32.2,32.2,0,0,1-1.48-10.41A28.82,28.82,0,0,1,160.17,432a17.37,17.37,0,0,1,6.5-7.7,17.85,17.85,0,0,1,9.82-2.67,18.32,18.32,0,0,1,10,2.67,16.9,16.9,0,0,1,6.44,7.46,26.15,26.15,0,0,1,2.2,11Zm-8.75-6.13a17.1,17.1,0,0,0-1.19-6,8.87,8.87,0,0,0-3.32-4.06,9.32,9.32,0,0,0-5.35-1.53,9.46,9.46,0,0,0-5.35,1.53,9,9,0,0,0-3.4,4.06,11,11,0,0,0-.79,2.39q-.18,1-.36,3.57Z" transform="matrix(1, 0, 0, 1, -51.232201, -383.017548)" style="fill: rgb(30, 64, 121);"/>
  <path class="cls-1" d="M236.59,446.64H208.08a15.14,15.14,0,0,0,1.31,6.58,9.8,9.8,0,0,0,3.79,4.23,11.58,11.58,0,0,0,6.11,1.5,14.55,14.55,0,0,0,5.88-1,17.83,17.83,0,0,0,4.78-3.47l5.62,5.24a24.49,24.49,0,0,1-7.28,5.23,22.87,22.87,0,0,1-9.19,1.63,24.24,24.24,0,0,1-7.85-1.23,16.14,16.14,0,0,1-6.29-3.89,17.78,17.78,0,0,1-4.15-7,32.2,32.2,0,0,1-1.48-10.41,28.82,28.82,0,0,1,2.3-12.09,17.5,17.5,0,0,1,6.5-7.7A17.91,17.91,0,0,1,218,421.6a18.32,18.32,0,0,1,10,2.67,17,17,0,0,1,6.44,7.46,26.15,26.15,0,0,1,2.2,11Zm-8.76-6.13a17.11,17.11,0,0,0-1.18-6,8.93,8.93,0,0,0-3.32-4.06A9.32,9.32,0,0,0,218,429a9.43,9.43,0,0,0-5.35,1.53,9.12,9.12,0,0,0-3.41,4.06,11.53,11.53,0,0,0-.78,2.39,34.18,34.18,0,0,0-.36,3.57Z" transform="matrix(1, 0, 0, 1, -51.232201, -383.017548)" style="fill: rgb(30, 64, 121);"/>
  <path class="cls-2" d="M93.72,586.84H51.79L43,612.05H23.46L64.35,503.79H81.23l41,108.26H102.57ZM57.06,571.67H88.44L72.75,526.76Z" transform="matrix(1, 0, 0, 1, -51.232201, -383.017548)" style="fill: rgb(88, 89, 91);"/>
  <path class="cls-2" d="M171.72,590.19a10.18,10.18,0,0,0-.63-3.61,7.33,7.33,0,0,0-2.49-3.12,20.2,20.2,0,0,0-5.24-2.72,61.07,61.07,0,0,0-8.81-2.37A79.37,79.37,0,0,1,142.76,575a36.45,36.45,0,0,1-9.11-4.87,21.31,21.31,0,0,1-5.91-6.73,18.29,18.29,0,0,1-2.12-8.92,21,21,0,0,1,2.16-9.33A23.26,23.26,0,0,1,134,537.4a30.91,30.91,0,0,1,9.81-5.32,39.83,39.83,0,0,1,12.9-2,43.16,43.16,0,0,1,13.5,2,30.64,30.64,0,0,1,10.15,5.43,23.17,23.17,0,0,1,8.55,18.25H170.83a12,12,0,0,0-.89-4.5,11.31,11.31,0,0,0-2.68-3.9,12.79,12.79,0,0,0-4.42-2.71,17.22,17.22,0,0,0-6.14-1,18.52,18.52,0,0,0-5.94.86,13.2,13.2,0,0,0-4.21,2.23,8.92,8.92,0,0,0-2.49,3.19,9.37,9.37,0,0,0-.81,3.83,8.14,8.14,0,0,0,.74,3.57,7.23,7.23,0,0,0,2.64,2.83,22,22,0,0,0,5.09,2.34,74.22,74.22,0,0,0,8,2.12,95.82,95.82,0,0,1,12.53,3.49,35.57,35.57,0,0,1,9.37,4.91,20,20,0,0,1,5.84,6.84,20.4,20.4,0,0,1,2,9.37,21.05,21.05,0,0,1-2.3,9.82,22.71,22.71,0,0,1-6.58,7.69,31.82,31.82,0,0,1-10.3,5,47,47,0,0,1-13.38,1.78,42.09,42.09,0,0,1-14.61-2.34,33.36,33.36,0,0,1-10.67-6.13,25.48,25.48,0,0,1-6.51-8.59,23.34,23.34,0,0,1-2.19-9.78H140.5a13.63,13.63,0,0,0,1.71,6.25A12.52,12.52,0,0,0,146,597a15.85,15.85,0,0,0,5.2,2.27,25.09,25.09,0,0,0,6,.7q7.14,0,10.86-2.71A8.42,8.42,0,0,0,171.72,590.19Z" transform="matrix(1, 0, 0, 1, -51.232201, -383.017548)" style="fill: rgb(88, 89, 91);"/>
  <path class="cls-2" d="M244.22,590.19a10.18,10.18,0,0,0-.63-3.61,7.33,7.33,0,0,0-2.49-3.12,20,20,0,0,0-5.24-2.72,61.07,61.07,0,0,0-8.81-2.37A79.37,79.37,0,0,1,215.26,575a36.2,36.2,0,0,1-9.1-4.87,21.22,21.22,0,0,1-5.92-6.73,18.29,18.29,0,0,1-2.11-8.92,21,21,0,0,1,2.15-9.33,23.26,23.26,0,0,1,6.21-7.77,30.91,30.91,0,0,1,9.81-5.32,39.9,39.9,0,0,1,12.91-2,43.14,43.14,0,0,1,13.49,2,30.64,30.64,0,0,1,10.15,5.43,23.17,23.17,0,0,1,8.55,18.25H243.33a11.8,11.8,0,0,0-.89-4.5,11.17,11.17,0,0,0-2.68-3.9,12.79,12.79,0,0,0-4.42-2.71,17.2,17.2,0,0,0-6.13-1,18.54,18.54,0,0,0-6,.86,13,13,0,0,0-4.2,2.23,8.7,8.7,0,0,0-2.49,3.19,9.22,9.22,0,0,0-.82,3.83,8.28,8.28,0,0,0,.74,3.57,7.31,7.31,0,0,0,2.64,2.83,22,22,0,0,0,5.09,2.34,74.22,74.22,0,0,0,8,2.12,95.82,95.82,0,0,1,12.53,3.49,35.57,35.57,0,0,1,9.37,4.91,20,20,0,0,1,5.84,6.84,20.4,20.4,0,0,1,2,9.37,21.06,21.06,0,0,1-2.31,9.82,22.71,22.71,0,0,1-6.58,7.69,31.82,31.82,0,0,1-10.3,5,46.94,46.94,0,0,1-13.38,1.78,42.17,42.17,0,0,1-14.61-2.34,33.36,33.36,0,0,1-10.67-6.13,25.48,25.48,0,0,1-6.51-8.59,23.34,23.34,0,0,1-2.19-9.78H213a13.63,13.63,0,0,0,1.71,6.25A12.52,12.52,0,0,0,218.5,597a15.85,15.85,0,0,0,5.2,2.27,25.16,25.16,0,0,0,6,.7q7.14,0,10.86-2.71A8.39,8.39,0,0,0,244.22,590.19Z" transform="matrix(1, 0, 0, 1, -51.232201, -383.017548)" style="fill: rgb(88, 89, 91);"/>
  <path class="cls-2" d="M320.37,604.17a25.76,25.76,0,0,1-9.37,6.91,32.62,32.62,0,0,1-13.23,2.45A33,33,0,0,1,287,611.86a20.82,20.82,0,0,1-8.37-5.28,24.38,24.38,0,0,1-5.43-9.29,42.86,42.86,0,0,1-1.93-13.65v-52h18.07v52.19a21.57,21.57,0,0,0,1,7.25,12.23,12.23,0,0,0,2.79,4.61,9.56,9.56,0,0,0,4.05,2.46,16.45,16.45,0,0,0,4.83.7q7,0,11.31-2.53a16.06,16.06,0,0,0,6.46-6.91V531.6h18.07v80.45h-17Z" transform="matrix(1, 0, 0, 1, -51.232201, -383.017548)" style="fill: rgb(88, 89, 91);"/>
  <path class="cls-2" d="M392.28,548.1c-1.2-.19-2.4-.34-3.61-.44s-2.47-.15-3.76-.15q-6.54,0-10.63,2.53a15.44,15.44,0,0,0-6.1,7v55H350.12V531.6h17.25l.44,9a23.35,23.35,0,0,1,7.55-7.69,19.7,19.7,0,0,1,10.6-2.79,21.66,21.66,0,0,1,3.53.33,14.77,14.77,0,0,1,2.86.71Z" transform="matrix(1, 0, 0, 1, -51.232201, -383.017548)" style="fill: rgb(88, 89, 91);"/>
  <path class="cls-2" d="M431.61,613.53a41.49,41.49,0,0,1-16.06-3,35.3,35.3,0,0,1-12.12-8.18A35.7,35.7,0,0,1,395.78,590a43.37,43.37,0,0,1-2.68-15.39v-3a49.74,49.74,0,0,1,2.82-17.21,39.53,39.53,0,0,1,7.74-13.09,34.08,34.08,0,0,1,11.56-8.32,35,35,0,0,1,14.31-2.94,36.62,36.62,0,0,1,15.25,2.94,28.67,28.67,0,0,1,10.7,8.21,35.26,35.26,0,0,1,6.32,12.57,57.93,57.93,0,0,1,2.08,16v7.74H411.32a28.47,28.47,0,0,0,2,8.62,21,21,0,0,0,4.35,6.81,20.06,20.06,0,0,0,6.5,4.49,21.12,21.12,0,0,0,8.52,1.64,24,24,0,0,0,11.63-2.68,27.23,27.23,0,0,0,8.59-7.36l9.74,9.3a33.16,33.16,0,0,1-4.8,5.61,32.31,32.31,0,0,1-6.69,4.83,37.78,37.78,0,0,1-8.66,3.42A41.67,41.67,0,0,1,431.61,613.53Zm-2.15-68.92a15.21,15.21,0,0,0-12,5.2q-4.57,5.21-5.84,14.5H446V563a32.88,32.88,0,0,0-1.15-6.87,17.52,17.52,0,0,0-2.87-5.88,13.87,13.87,0,0,0-5-4.09A17,17,0,0,0,429.46,544.61Z" transform="matrix(1, 0, 0, 1, -51.232201, -383.017548)" style="fill: rgb(88, 89, 91);"/>
</svg>