<svg id="Layer_1" data-name="Layer 1" xmlns="http://www.w3.org/2000/svg" viewBox="0 0 1000 1000"><title>Jaldee_features logos</title><text transform="translate(259.58 633.34)" style="font-size:180.27999877929688px;fill:#58595b;font-family:Roboto-Medium, Roboto;font-weight:500;letter-spacing:-0.14156310332014935em">T<tspan x="83.9" y="0" style="letter-spacing:-0.03999854420249805em">o</tspan><tspan x="179.33" y="0" style="letter-spacing:-0.04976525265281007em">k</tspan><tspan x="264.46" y="0" style="letter-spacing:-0.03999854420249805em">en</tspan></text><path d="M333.86,429.71q0,14.3-6.23,24.59a41.08,41.08,0,0,1-17,15.7A51.73,51.73,0,0,1,287,475.41,58.37,58.37,0,0,1,273.91,474a38.7,38.7,0,0,1-11.2-4.42,50,50,0,0,1-9.91-7.86l14.21-14a36.56,36.56,0,0,0,8.69,6.43q4.16,2.07,11.3,2.07A27.46,27.46,0,0,0,300.68,453a21.18,21.18,0,0,0,8.79-9.56,35,35,0,0,0,3-15.3V341.37h21.35Z" style="fill:#1e4079"/><path d="M423.63,475.41H403.82V465.17A34.21,34.21,0,0,1,392.33,473q-6,2.37-15.17,2.37a49,49,0,0,1-15.75-2.27,28.6,28.6,0,0,1-11.21-6.81q-7.92-8.22-7.92-21.55a28.56,28.56,0,0,1,4-15.12A26.26,26.26,0,0,1,358,419.52q7.78-3.63,18.89-3.62h26.57v-7.13q0-9.61-5.22-14.15t-16.71-4.52q-8.42,0-13.1,2.12a24.64,24.64,0,0,0-8.93,7.5l-13.24-12.44q6.87-8.16,15.07-11.36t21-3.21q41.36,0,41.35,34.49ZM403.44,438V429.9H379.86q-8.79,0-13.38,3.77t-4.59,10.73q0,14.21,18.36,14.2a44.6,44.6,0,0,0,10.82-1.11,18.13,18.13,0,0,0,8-4.59Q403.44,448.55,403.44,438Z" style="fill:#1e4079"/><path d="M468,475.41h-6.16q-13.62,0-20.53-7.87t-6.91-19.86V341.37H454.6V446.52c0,4,.81,6.94,2.42,8.84s4.41,2.85,8.41,2.85H468Z" style="fill:#1e4079"/><path d="M557.76,475.41H538V463.53a33.18,33.18,0,0,1-7.73,7.15,28.51,28.51,0,0,1-8.5,3.62,43.76,43.76,0,0,1-10.34,1.11A39.14,39.14,0,0,1,497.52,473a28.13,28.13,0,0,1-17.87-18,60.34,60.34,0,0,1-3.24-14.16,183.33,183.33,0,0,1,0-33.57,59.53,59.53,0,0,1,3.24-14.06,31,31,0,0,1,7.2-11.5,29.14,29.14,0,0,1,10.63-6.61,39,39,0,0,1,13.72-2.37,39.45,39.45,0,0,1,14.73,2.53,29.7,29.7,0,0,1,11.64,8.83v-42.7h20.19Zm-20.19-51.35A84.09,84.09,0,0,0,536,406.65a21.38,21.38,0,0,0-6.13-11.48q-4.59-4.31-13.09-4.3t-13.24,4.34a21.53,21.53,0,0,0-6.18,11.48,98.33,98.33,0,0,0,0,34.78,21.8,21.8,0,0,0,6.18,11.58q4.63,4.4,13.24,4.39,12.36,0,16.57-8.83T537.57,424.06Z" style="fill:#1e4079"/><path d="M652.48,429.9H587.36a34.4,34.4,0,0,0,3,15,22.35,22.35,0,0,0,8.64,9.66q5.65,3.44,14,3.43t13.43-2.32a40.22,40.22,0,0,0,10.92-7.92l12.85,12a56,56,0,0,1-16.64,11.93q-8.41,3.72-21,3.72a55.53,55.53,0,0,1-17.94-2.8,36.71,36.71,0,0,1-14.36-8.89,40.7,40.7,0,0,1-9.48-15.94q-3.39-9.86-3.39-23.77,0-16.12,5.27-27.63a39.92,39.92,0,0,1,14.85-17.58q9.57-6.09,22.44-6.09,13.16,0,22.83,6.09a38.63,38.63,0,0,1,14.7,17.05,59.81,59.81,0,0,1,5,25.17Zm-20-14a39.3,39.3,0,0,0-2.7-13.63,20.46,20.46,0,0,0-7.59-9.27A21.37,21.37,0,0,0,610,389.52,21.64,21.64,0,0,0,597.75,393a20.8,20.8,0,0,0-7.78,9.27,25.67,25.67,0,0,0-1.79,5.46q-.43,2.37-.82,8.17Z" style="fill:#1e4079"/><path d="M747.2,429.9H682.08a34.55,34.55,0,0,0,3,15,22.38,22.38,0,0,0,8.65,9.66q5.65,3.44,14,3.43t13.43-2.32A40.53,40.53,0,0,0,732,447.78l12.85,12a56,56,0,0,1-16.64,11.93q-8.41,3.72-21,3.72a55.49,55.49,0,0,1-17.94-2.8A36.71,36.71,0,0,1,675,463.72a40.7,40.7,0,0,1-9.48-15.94q-3.39-9.86-3.39-23.77,0-16.12,5.27-27.63A39.92,39.92,0,0,1,682.2,378.8q9.57-6.09,22.44-6.09,13.15,0,22.83,6.09a38.69,38.69,0,0,1,14.7,17.05,59.81,59.81,0,0,1,5,25.17Zm-20-14a39.29,39.29,0,0,0-2.71-13.63,20.43,20.43,0,0,0-7.58-9.27,21.37,21.37,0,0,0-12.22-3.48A21.64,21.64,0,0,0,692.47,393a20.73,20.73,0,0,0-7.78,9.27,25.67,25.67,0,0,0-1.79,5.46q-.43,2.37-.82,8.17Z" style="fill:#1e4079"/></svg>