<?xml version="1.0" encoding="utf-8"?>
<svg viewBox="25.663 463.731 363.436 196.7" width="363.436" height="196.7" xmlns="http://www.w3.org/2000/svg">
  <path class="cls-1" d="M52.83,455.53A20.42,20.42,0,0,1,50.1,466.3a17.94,17.94,0,0,1-7.42,6.87,22.65,22.65,0,0,1-10.36,2.37,25.61,25.61,0,0,1-5.73-.62A16.94,16.94,0,0,1,21.68,473a22,22,0,0,1-4.33-3.45l6.21-6.14a16.23,16.23,0,0,0,3.81,2.81,11.13,11.13,0,0,0,4.95.91,11.92,11.92,0,0,0,6-1.42,9.21,9.21,0,0,0,3.85-4.18,15.3,15.3,0,0,0,1.34-6.7v-38h9.34Z" transform="matrix(1, 0, 0, 1, 8.312859, 46.900875)" style="fill: rgb(30, 64, 121);"/>
  <path class="cls-1" d="M92.13,475.54H83.46v-4.49a14.83,14.83,0,0,1-5,3.45,18.25,18.25,0,0,1-6.64,1,21.28,21.28,0,0,1-6.9-1,12.42,12.42,0,0,1-4.9-3,13,13,0,0,1-3.47-9.43,12.54,12.54,0,0,1,1.73-6.62,11.54,11.54,0,0,1,5.14-4.44,19.46,19.46,0,0,1,8.27-1.59H83.29v-3.12c0-2.8-.76-4.87-2.28-6.19s-4-2-7.32-2a14.24,14.24,0,0,0-5.73.93,10.69,10.69,0,0,0-3.91,3.28L58.25,437a16.49,16.49,0,0,1,6.6-5A25.45,25.45,0,0,1,74,430.57q18.1,0,18.1,15.11Zm-8.84-16.37v-3.55H73a9.05,9.05,0,0,0-5.86,1.64,5.76,5.76,0,0,0-2,4.7q0,6.23,8,6.22a19.22,19.22,0,0,0,4.74-.49,7.84,7.84,0,0,0,3.51-2Q83.29,463.78,83.29,459.17Z" transform="matrix(1, 0, 0, 1, 8.312859, 46.900875)" style="fill: rgb(30, 64, 121);"/>
  <path class="cls-1" d="M111.56,475.54h-2.69q-6,0-9-3.45a12.69,12.69,0,0,1-3-8.69V416.85h8.84v46a5.92,5.92,0,0,0,1.06,3.87,4.63,4.63,0,0,0,3.68,1.25h1.13Z" transform="matrix(1, 0, 0, 1, 8.312859, 46.900875)" style="fill: rgb(30, 64, 121);"/>
  <path class="cls-1" d="M150.86,475.54h-8.67v-5.21a14.13,14.13,0,0,1-3.39,3.13,12,12,0,0,1-3.72,1.59,19.34,19.34,0,0,1-4.53.49,17.15,17.15,0,0,1-6.06-1.06,12.27,12.27,0,0,1-7.83-7.89,26.36,26.36,0,0,1-1.42-6.2,79.51,79.51,0,0,1,0-14.69,26.15,26.15,0,0,1,1.42-6.16,13.62,13.62,0,0,1,3.15-5,12.73,12.73,0,0,1,4.65-2.9,18.59,18.59,0,0,1,12.46.07,13.09,13.09,0,0,1,5.1,3.87v-18.7h8.84ZM142,453.06a36.94,36.94,0,0,0-.68-7.63,9.36,9.36,0,0,0-2.69-5,8,8,0,0,0-5.73-1.88,8.13,8.13,0,0,0-5.79,1.9,9.43,9.43,0,0,0-2.71,5,43.61,43.61,0,0,0,0,15.23,9.54,9.54,0,0,0,2.71,5.07,8.09,8.09,0,0,0,5.79,1.92q5.42,0,7.26-3.86T142,453.06Z" transform="matrix(1, 0, 0, 1, 8.312859, 46.900875)" style="fill: rgb(30, 64, 121);"/>
  <path class="cls-1" d="M192.33,455.62H163.82a15,15,0,0,0,1.31,6.57,9.72,9.72,0,0,0,3.78,4.23,11.61,11.61,0,0,0,6.12,1.5,14.3,14.3,0,0,0,5.87-1,17.46,17.46,0,0,0,4.78-3.47l5.63,5.25a24.76,24.76,0,0,1-7.28,5.22,22.87,22.87,0,0,1-9.19,1.63,24.3,24.3,0,0,1-7.86-1.23,16.1,16.1,0,0,1-6.29-3.89,17.9,17.9,0,0,1-4.15-7,32.13,32.13,0,0,1-1.48-10.4,28.83,28.83,0,0,1,2.31-12.1,17.43,17.43,0,0,1,6.5-7.7,17.88,17.88,0,0,1,9.82-2.67,18.38,18.38,0,0,1,10,2.67,17,17,0,0,1,6.43,7.47,26.11,26.11,0,0,1,2.21,11Zm-8.76-6.14a17.34,17.34,0,0,0-1.18-6,9,9,0,0,0-3.33-4.06,9.3,9.3,0,0,0-5.35-1.53,9.46,9.46,0,0,0-5.35,1.53,9.1,9.1,0,0,0-3.4,4.06,10.44,10.44,0,0,0-.78,2.39,34.18,34.18,0,0,0-.36,3.57Z" transform="matrix(1, 0, 0, 1, 8.312859, 46.900875)" style="fill: rgb(30, 64, 121);"/>
  <path class="cls-1" d="M233.79,455.62H205.28a15,15,0,0,0,1.32,6.57,9.72,9.72,0,0,0,3.78,4.23,11.6,11.6,0,0,0,6.11,1.5,14.32,14.32,0,0,0,5.88-1,17.46,17.46,0,0,0,4.78-3.47l5.63,5.25a24.66,24.66,0,0,1-7.29,5.22,22.84,22.84,0,0,1-9.19,1.63,24.24,24.24,0,0,1-7.85-1.23,16.1,16.1,0,0,1-6.29-3.89,17.9,17.9,0,0,1-4.15-7,32.13,32.13,0,0,1-1.48-10.4,28.83,28.83,0,0,1,2.31-12.1,17.37,17.37,0,0,1,6.5-7.7,17.88,17.88,0,0,1,9.82-2.67,18.32,18.32,0,0,1,10,2.67,16.93,16.93,0,0,1,6.44,7.47,26.11,26.11,0,0,1,2.2,11ZM225,449.48a17.1,17.1,0,0,0-1.19-6,8.87,8.87,0,0,0-3.32-4.06,9.32,9.32,0,0,0-5.35-1.53,9.46,9.46,0,0,0-5.35,1.53,9,9,0,0,0-3.4,4.06,11,11,0,0,0-.79,2.39q-.18,1-.36,3.57Z" transform="matrix(1, 0, 0, 1, 8.312859, 46.900875)" style="fill: rgb(30, 64, 121);"/>
  <path class="cls-2" d="M30.55,612.05V503.79H67.66a64.9,64.9,0,0,1,15.76,1.75,33.11,33.11,0,0,1,11.82,5.31,23.36,23.36,0,0,1,7.4,9.11,31,31,0,0,1,2.56,13.12,23.37,23.37,0,0,1-4,13.39,25.87,25.87,0,0,1-11.75,9.22,25.75,25.75,0,0,1,8.14,3.68,22.63,22.63,0,0,1,5.73,5.69,24,24,0,0,1,3.38,7.21,30,30,0,0,1,1.12,8.18,34.27,34.27,0,0,1-2.57,13.72,25.87,25.87,0,0,1-7.43,9.88A32.76,32.76,0,0,1,86,610a56.56,56.56,0,0,1-15.72,2Zm18.81-62.68H67.8q8.78,0,13.72-4t5-11.27q0-8-4.58-11.59T67.66,519H49.36Zm0,13.83V597h20.9a25.6,25.6,0,0,0,8.14-1.19,16.27,16.27,0,0,0,5.91-3.38,13.87,13.87,0,0,0,3.57-5.25,18.49,18.49,0,0,0,1.19-6.76q0-8-4.24-12.64T71.08,563.2Z" transform="matrix(1, 0, 0, 1, 8.312859, 46.900875)" style="fill: rgb(88, 89, 91);"/>
  <path class="cls-2" d="M151.76,555.09l24.9-51.3h20.82l-36.28,68.4v39.86H142.31V572.19L106,503.79h20.9Z" transform="matrix(1, 0, 0, 1, 8.312859, 46.900875)" style="fill: rgb(88, 89, 91);"/>
  <path class="cls-2" d="M287.38,560.74a70.4,70.4,0,0,1-3.23,22.12A48.11,48.11,0,0,1,275,599.44a39.46,39.46,0,0,1-14.13,10.45,47.57,47.57,0,0,1-36.5,0,40.48,40.48,0,0,1-14.24-10.45,48.11,48.11,0,0,1-9.3-16.58,68.92,68.92,0,0,1-3.31-22.12v-5.5a69.35,69.35,0,0,1,3.31-22.16,49.24,49.24,0,0,1,9.22-16.65,39.65,39.65,0,0,1,14.17-10.49,44.73,44.73,0,0,1,18.21-3.64,45.2,45.2,0,0,1,18.33,3.64A39.59,39.59,0,0,1,275,516.43a48.28,48.28,0,0,1,9.15,16.65,70.84,70.84,0,0,1,3.23,22.16Zm-18.81-5.65a65.73,65.73,0,0,0-1.75-16,34,34,0,0,0-5.09-11.64,22.07,22.07,0,0,0-8.22-7.1,24.48,24.48,0,0,0-11-2.41,23.93,23.93,0,0,0-10.85,2.41,22.46,22.46,0,0,0-8.22,7.1,34.7,34.7,0,0,0-5.2,11.64,63.17,63.17,0,0,0-1.82,16v5.65a63.67,63.67,0,0,0,1.82,16.06,34.54,34.54,0,0,0,5.24,11.71,22.5,22.5,0,0,0,8.29,7.14,24.2,24.2,0,0,0,10.89,2.42q12.49,0,19.22-9.52t6.73-27.81Z" transform="matrix(1, 0, 0, 1, 8.312859, 46.900875)" style="fill: rgb(88, 89, 91);"/>
  <path class="cls-2" d="M300,612.05V503.79h32a52.16,52.16,0,0,1,19.82,3.64,44,44,0,0,1,15.39,10.37,47.36,47.36,0,0,1,10,16.25,60.18,60.18,0,0,1,3.57,21.27v5.35a60.57,60.57,0,0,1-3.53,21.23,46,46,0,0,1-10,16.17,44.34,44.34,0,0,1-15.69,10.33,54.89,54.89,0,0,1-20.41,3.65ZM318.84,519V597h12.27a33.92,33.92,0,0,0,13.46-2.49,25.06,25.06,0,0,0,9.63-7.18A31.57,31.57,0,0,0,360,575.91a55.42,55.42,0,0,0,1.93-15.24v-5.5q0-17.62-7.66-26.92T332,519Z" transform="matrix(1, 0, 0, 1, 8.312859, 46.900875)" style="fill: rgb(88, 89, 91);"/>
</svg>