<?xml version="1.0" encoding="utf-8"?>
<svg viewBox="88.041 445.031 354.89 206.43" width="354.89" height="206.43" xmlns="http://www.w3.org/2000/svg">
  <path class="cls-1" d="M58.48,437.84a20.37,20.37,0,0,1-2.73,10.77,18,18,0,0,1-7.42,6.87A22.68,22.68,0,0,1,38,457.85a25.62,25.62,0,0,1-5.73-.61,17.13,17.13,0,0,1-4.91-1.94A22.34,22.34,0,0,1,23,451.86l6.22-6.15A15.76,15.76,0,0,0,33,448.52a11.13,11.13,0,0,0,4.95.91A12,12,0,0,0,44,448a9.29,9.29,0,0,0,3.85-4.19,15.26,15.26,0,0,0,1.33-6.69v-38h9.35Z" transform="matrix(1, 0, 0, 1, 65.040703, 45.911491)" style="fill: rgb(30, 64, 121);"/>
  <path class="cls-1" d="M97.78,457.85H89.11v-4.48a15.07,15.07,0,0,1-5,3.45,18.26,18.26,0,0,1-6.64,1,21.57,21.57,0,0,1-6.9-1,12.53,12.53,0,0,1-4.9-3,13,13,0,0,1-3.47-9.44,12.48,12.48,0,0,1,1.73-6.62A11.54,11.54,0,0,1,69,433.38a19.46,19.46,0,0,1,8.27-1.58H88.94v-3.12q0-4.21-2.28-6.2c-1.53-1.32-4-2-7.32-2a14.24,14.24,0,0,0-5.73.93,10.73,10.73,0,0,0-3.91,3.29l-5.8-5.45a16.61,16.61,0,0,1,6.6-5,25.69,25.69,0,0,1,9.18-1.4q18.1,0,18.1,15.1Zm-8.84-16.37v-3.55H78.62a9,9,0,0,0-5.86,1.65,5.72,5.72,0,0,0-2,4.69q0,6.23,8,6.22a19.77,19.77,0,0,0,4.74-.48A8,8,0,0,0,87,448Q88.95,446.1,88.94,441.48Z" transform="matrix(1, 0, 0, 1, 65.040703, 45.911491)" style="fill: rgb(30, 64, 121);"/>
  <path class="cls-1" d="M117.21,457.85h-2.69q-6,0-9-3.45a12.66,12.66,0,0,1-3-8.69V399.17h8.84v46a5.92,5.92,0,0,0,1.06,3.87c.7.84,1.93,1.25,3.68,1.25h1.13Z" transform="matrix(1, 0, 0, 1, 65.040703, 45.911491)" style="fill: rgb(30, 64, 121);"/>
  <path class="cls-1" d="M156.51,457.85h-8.68v-5.2a14.31,14.31,0,0,1-3.38,3.13,12.75,12.75,0,0,1-3.72,1.59,19.43,19.43,0,0,1-4.53.48,17,17,0,0,1-6.07-1.06,12.3,12.3,0,0,1-7.82-7.88,26.48,26.48,0,0,1-1.42-6.2,79.61,79.61,0,0,1,0-14.7,26,26,0,0,1,1.42-6.15,13.58,13.58,0,0,1,3.15-5,12.71,12.71,0,0,1,4.65-2.89,17,17,0,0,1,6-1,17.29,17.29,0,0,1,6.45,1.11,13,13,0,0,1,5.1,3.86V399.17h8.84Zm-8.84-22.48a36.84,36.84,0,0,0-.68-7.62,9.35,9.35,0,0,0-2.69-5,8.09,8.09,0,0,0-5.73-1.88,8.18,8.18,0,0,0-5.79,1.9,9.39,9.39,0,0,0-2.71,5,42.92,42.92,0,0,0,0,15.22,9.47,9.47,0,0,0,2.71,5.07,8.09,8.09,0,0,0,5.79,1.92c3.61,0,6-1.28,7.26-3.86S147.67,440,147.67,435.37Z" transform="matrix(1, 0, 0, 1, 65.040703, 45.911491)" style="fill: rgb(30, 64, 121);"/>
  <path class="cls-1" d="M198,437.93H169.46a15,15,0,0,0,1.32,6.58,9.72,9.72,0,0,0,3.78,4.23,11.6,11.6,0,0,0,6.11,1.5,14.3,14.3,0,0,0,5.88-1,17.25,17.25,0,0,0,4.78-3.47L197,451a24.3,24.3,0,0,1-7.29,5.22,22.67,22.67,0,0,1-9.19,1.63,24.51,24.51,0,0,1-7.85-1.22,16.12,16.12,0,0,1-6.29-3.9,17.83,17.83,0,0,1-4.15-7,32.09,32.09,0,0,1-1.48-10.4,28.86,28.86,0,0,1,2.31-12.1,17.49,17.49,0,0,1,6.5-7.7,18,18,0,0,1,9.82-2.66,18.4,18.4,0,0,1,10,2.66,16.93,16.93,0,0,1,6.44,7.47,26.12,26.12,0,0,1,2.2,11Zm-8.75-6.13a17.11,17.11,0,0,0-1.19-6,8.92,8.92,0,0,0-3.32-4.06,9.39,9.39,0,0,0-5.35-1.52,9.53,9.53,0,0,0-5.35,1.52,9.09,9.09,0,0,0-3.4,4.06,11.22,11.22,0,0,0-.79,2.39c-.12.69-.24,1.88-.36,3.58Z" transform="matrix(1, 0, 0, 1, 65.040703, 45.911491)" style="fill: rgb(30, 64, 121);"/>
  <path class="cls-1" d="M239.44,437.93H210.93a15.14,15.14,0,0,0,1.31,6.58,9.8,9.8,0,0,0,3.79,4.23,11.6,11.6,0,0,0,6.11,1.5,14.3,14.3,0,0,0,5.88-1,17.25,17.25,0,0,0,4.78-3.47l5.63,5.25a24.3,24.3,0,0,1-7.29,5.22,22.67,22.67,0,0,1-9.19,1.63,24.51,24.51,0,0,1-7.85-1.22,16,16,0,0,1-6.29-3.9,17.83,17.83,0,0,1-4.15-7,32.09,32.09,0,0,1-1.48-10.4,29,29,0,0,1,2.3-12.1,17.55,17.55,0,0,1,6.5-7.7,18,18,0,0,1,9.83-2.66,18.4,18.4,0,0,1,10,2.66,16.93,16.93,0,0,1,6.44,7.47,26.12,26.12,0,0,1,2.2,11Zm-8.75-6.13a17.11,17.11,0,0,0-1.19-6,8.92,8.92,0,0,0-3.32-4.06,9.39,9.39,0,0,0-5.35-1.52,9.53,9.53,0,0,0-5.35,1.52,9.18,9.18,0,0,0-3.41,4.06,11.72,11.72,0,0,0-.78,2.39,34.14,34.14,0,0,0-.36,3.58Z" transform="matrix(1, 0, 0, 1, 65.040703, 45.911491)" style="fill: rgb(30, 64, 121);"/>
  <path class="cls-2" d="M64,557.28l-12.26,13v33.76H32.93V495.79H51.75v50.78l10.41-12.86,31.67-37.92h22.75l-40.22,48,42.53,60.3H96.58Z" transform="matrix(1, 0, 0, 1, 65.040703, 45.911491)" style="fill: rgb(88, 89, 91);"/>
  <path class="cls-2" d="M121.12,502.7a9.58,9.58,0,0,1,2.64-6.91q2.64-2.75,7.55-2.75t7.58,2.75a9.49,9.49,0,0,1,2.68,6.91,9.29,9.29,0,0,1-2.68,6.81q-2.67,2.72-7.58,2.71t-7.55-2.71A9.38,9.38,0,0,1,121.12,502.7Zm19.19,101.35H122.24V523.6h18.07Z" transform="matrix(1, 0, 0, 1, 65.040703, 45.911491)" style="fill: rgb(88, 89, 91);"/>
  <path class="cls-2" d="M150.5,563.08a49.75,49.75,0,0,1,2.57-16.25,38.51,38.51,0,0,1,7.36-13,33.63,33.63,0,0,1,11.71-8.63,37.76,37.76,0,0,1,15.69-3.12,38.46,38.46,0,0,1,15.83,3.12,33.57,33.57,0,0,1,11.79,8.63,37.93,37.93,0,0,1,7.32,13,50.28,50.28,0,0,1,2.53,16.25v1.56a50.56,50.56,0,0,1-2.53,16.28,37.51,37.51,0,0,1-7.32,13,33.61,33.61,0,0,1-11.75,8.55,41.89,41.89,0,0,1-31.53,0,33.48,33.48,0,0,1-11.74-8.55,38.08,38.08,0,0,1-7.36-13,50,50,0,0,1-2.57-16.28Zm18.07,1.56a45.71,45.71,0,0,0,1.11,10.26,25.7,25.7,0,0,0,3.5,8.44A18.32,18.32,0,0,0,196.64,589a17.25,17.25,0,0,0,6-5.69,26.81,26.81,0,0,0,3.49-8.44,44,44,0,0,0,1.16-10.26v-1.56a43.24,43.24,0,0,0-1.16-10.15,26.13,26.13,0,0,0-3.53-8.4,18.07,18.07,0,0,0-6.06-5.77,17,17,0,0,0-8.73-2.15,16.67,16.67,0,0,0-8.67,2.15,18.4,18.4,0,0,0-6,5.77,25.66,25.66,0,0,0-3.5,8.4,44.92,44.92,0,0,0-1.11,10.15Z" transform="matrix(1, 0, 0, 1, 65.040703, 45.911491)" style="fill: rgb(88, 89, 91);"/>
  <path class="cls-2" d="M279.58,582.19a10.18,10.18,0,0,0-.63-3.61,7.33,7.33,0,0,0-2.49-3.12,20.2,20.2,0,0,0-5.24-2.72,61.07,61.07,0,0,0-8.81-2.37A79.37,79.37,0,0,1,250.62,567a36.45,36.45,0,0,1-9.11-4.87,21.31,21.31,0,0,1-5.91-6.73,18.29,18.29,0,0,1-2.12-8.92,21,21,0,0,1,2.16-9.33,23.26,23.26,0,0,1,6.21-7.77,30.91,30.91,0,0,1,9.81-5.32,39.83,39.83,0,0,1,12.9-2,43.16,43.16,0,0,1,13.5,2,30.64,30.64,0,0,1,10.15,5.43,23.17,23.17,0,0,1,8.55,18.25H278.69a12,12,0,0,0-.89-4.5,11.17,11.17,0,0,0-2.68-3.9,12.79,12.79,0,0,0-4.42-2.71,17.22,17.22,0,0,0-6.14-1,18.52,18.52,0,0,0-5.94.86,13,13,0,0,0-4.2,2.23,8.84,8.84,0,0,0-2.5,3.19,9.37,9.37,0,0,0-.81,3.83,8.14,8.14,0,0,0,.74,3.57,7.23,7.23,0,0,0,2.64,2.83,22,22,0,0,0,5.09,2.34,74.22,74.22,0,0,0,8,2.12,95.82,95.82,0,0,1,12.53,3.49,35.57,35.57,0,0,1,9.37,4.91,20,20,0,0,1,5.84,6.84,20.4,20.4,0,0,1,2,9.37,21.05,21.05,0,0,1-2.3,9.82,22.71,22.71,0,0,1-6.58,7.69,31.82,31.82,0,0,1-10.3,5,46.94,46.94,0,0,1-13.38,1.78,42.17,42.17,0,0,1-14.61-2.34,33.36,33.36,0,0,1-10.67-6.13,25.48,25.48,0,0,1-6.51-8.59,23.34,23.34,0,0,1-2.19-9.78h17.55a13.63,13.63,0,0,0,1.71,6.25,12.52,12.52,0,0,0,3.79,4.09,15.85,15.85,0,0,0,5.2,2.27,25.16,25.16,0,0,0,5.95.7q7.14,0,10.86-2.71A8.42,8.42,0,0,0,279.58,582.19Z" transform="matrix(1, 0, 0, 1, 65.040703, 45.911491)" style="fill: rgb(88, 89, 91);"/>
  <path class="cls-2" d="M333.13,569.55l-8,8.25v26.25H307V489.84h18.06v65.88l5.66-7.07,22.23-25h21.71L344.8,557.13l33.09,46.92H357Z" transform="matrix(1, 0, 0, 1, 65.040703, 45.911491)" style="fill: rgb(88, 89, 91);"/>
</svg>