<svg id="Layer_1" data-name="Layer 1" xmlns="http://www.w3.org/2000/svg" viewBox="0 0 1000 1000"><title>Jaldee_features logos</title><text transform="translate(284.28 671.34)" style="font-size:180.27999877929688px;fill:#58595b;font-family:Roboto-Medium, Roboto;font-weight:500;letter-spacing:-0.045369421312029035em">P<tspan x="107.05" y="0" style="letter-spacing:-0.04732492977046644em">a</tspan><tspan x="196.05" y="0" style="letter-spacing:-0.03999854420249805em">y</tspan></text><path d="M359.16,477.67q0,14.29-6.24,24.59A41.06,41.06,0,0,1,336,518a51.76,51.76,0,0,1-23.67,5.41A58.31,58.31,0,0,1,299.21,522,38.76,38.76,0,0,1,288,517.54a50.62,50.62,0,0,1-9.9-7.86l14.2-14a36.45,36.45,0,0,0,8.7,6.42q4.14,2.08,11.3,2.08A27.5,27.5,0,0,0,326,500.91a21.18,21.18,0,0,0,8.79-9.56,35,35,0,0,0,3-15.3V389.33h21.36Z" style="fill:#1e4079"/><path d="M448.92,523.37h-19.8V513.13a34.15,34.15,0,0,1-11.5,7.87q-6,2.37-15.17,2.37a49,49,0,0,1-15.74-2.27,28.76,28.76,0,0,1-11.21-6.81q-7.92-8.22-7.92-21.55a28.56,28.56,0,0,1,4-15.12,26.15,26.15,0,0,1,11.74-10.14q7.77-3.63,18.88-3.63h26.57v-7.12q0-9.62-5.21-14.15t-16.72-4.52q-8.4,0-13.09,2.12a24.74,24.74,0,0,0-8.94,7.5l-13.23-12.44q6.85-8.16,15.07-11.37t21-3.2q41.35,0,41.35,34.49ZM428.73,486v-8.12H405.16q-8.79,0-13.38,3.77t-4.59,10.73q0,14.19,18.36,14.2a44.6,44.6,0,0,0,10.82-1.11,18.1,18.1,0,0,0,8-4.59Q428.73,496.51,428.73,486Z" style="fill:#1e4079"/><path d="M493.3,523.37h-6.15q-13.63,0-20.53-7.88t-6.91-19.85V389.33H479.9V494.48c0,4,.8,6.94,2.42,8.84s4.41,2.85,8.4,2.85h2.58Z" style="fill:#1e4079"/><path d="M583.06,523.37H563.25V511.48a32.56,32.56,0,0,1-7.73,7.15,28.17,28.17,0,0,1-8.5,3.63,43.7,43.7,0,0,1-10.34,1.11A39,39,0,0,1,522.82,521a28.06,28.06,0,0,1-17.87-18,59.17,59.17,0,0,1-3.24-14.15,183.33,183.33,0,0,1,0-33.57A58.45,58.45,0,0,1,505,441.15a31.08,31.08,0,0,1,7.19-11.5A29.1,29.1,0,0,1,522.77,423a39,39,0,0,1,13.72-2.37,39.66,39.66,0,0,1,14.73,2.52A29.93,29.93,0,0,1,562.87,432v-42.7h20.19ZM562.87,472a84.26,84.26,0,0,0-1.55-17.42,21.36,21.36,0,0,0-6.14-11.47q-4.59-4.31-13.09-4.3t-13.23,4.34a21.55,21.55,0,0,0-6.19,11.48,99,99,0,0,0,0,34.78A21.81,21.81,0,0,0,528.86,501q4.64,4.38,13.23,4.39,12.38,0,16.57-8.83T562.87,472Z" style="fill:#1e4079"/><path d="M677.77,477.86H612.66a34.4,34.4,0,0,0,3,15,22.38,22.38,0,0,0,8.65,9.66,26.53,26.53,0,0,0,14,3.43q8.31,0,13.43-2.32a40.53,40.53,0,0,0,10.92-7.92l12.85,12a56.17,56.17,0,0,1-16.64,11.93q-8.42,3.72-21,3.72a55.76,55.76,0,0,1-17.94-2.8,36.75,36.75,0,0,1-14.37-8.89A40.94,40.94,0,0,1,596,495.74q-3.37-9.86-3.38-23.77,0-16.14,5.27-27.63a39.73,39.73,0,0,1,14.85-17.58q9.57-6.09,22.44-6.09,13.15,0,22.82,6.09a38.57,38.57,0,0,1,14.7,17.05q5,11,5,25.16Zm-20-14a39.28,39.28,0,0,0-2.71-13.62,20.43,20.43,0,0,0-7.58-9.27,21.37,21.37,0,0,0-12.22-3.48A21.67,21.67,0,0,0,623,441a20.78,20.78,0,0,0-7.77,9.27,24.94,24.94,0,0,0-1.79,5.46,80.19,80.19,0,0,0-.82,8.16Z" style="fill:#1e4079"/><path d="M772.49,477.86H707.37a34.4,34.4,0,0,0,3,15,22.38,22.38,0,0,0,8.65,9.66q5.64,3.42,14,3.43t13.43-2.32a40.34,40.34,0,0,0,10.91-7.92l12.85,12a56,56,0,0,1-16.63,11.93q-8.41,3.72-21,3.72a55.87,55.87,0,0,1-17.95-2.8,36.71,36.71,0,0,1-14.36-8.89,40.94,40.94,0,0,1-9.48-15.94q-3.39-9.86-3.38-23.77,0-16.14,5.27-27.63a39.78,39.78,0,0,1,14.84-17.58q9.59-6.09,22.44-6.09,13.16,0,22.83,6.09a38.57,38.57,0,0,1,14.7,17.05q5,11,5,25.16Zm-20-14a39.06,39.06,0,0,0-2.7-13.62A20.39,20.39,0,0,0,742.2,441,21.35,21.35,0,0,0,730,437.48,21.66,21.66,0,0,0,717.76,441a20.86,20.86,0,0,0-7.78,9.27,25.4,25.4,0,0,0-1.78,5.46q-.44,2.37-.83,8.16Z" style="fill:#1e4079"/></svg>