<svg id="Layer_1" data-name="Layer 1" xmlns="http://www.w3.org/2000/svg" viewBox="0 0 1000 1000"><title>Jaldee_features logos</title><text transform="translate(338.56 621.34)" style="font-size:180.27999877929688px;fill:#58595b;font-family:Roboto-Medium, Roboto;font-weight:500;letter-spacing:-0.040001252662966794em">RoI</text><path d="M414.55,430.83q0,14.3-6.23,24.59a41.08,41.08,0,0,1-17,15.7,51.76,51.76,0,0,1-23.67,5.41,58.37,58.37,0,0,1-13.09-1.41,38.7,38.7,0,0,1-11.2-4.42,50,50,0,0,1-9.91-7.86l14.2-14a36.79,36.79,0,0,0,8.7,6.43q4.16,2.07,11.3,2.07a27.4,27.4,0,0,0,13.67-3.23,21.14,21.14,0,0,0,8.8-9.56,35.13,35.13,0,0,0,3-15.3V342.49h21.35Z" style="fill:#1e4079"/><path d="M504.32,476.53H484.51V466.29A34.21,34.21,0,0,1,473,474.16q-6,2.37-15.17,2.37a49,49,0,0,1-15.75-2.27,28.72,28.72,0,0,1-11.21-6.81Q423,459.23,423,445.9a28.56,28.56,0,0,1,4-15.12,26.15,26.15,0,0,1,11.74-10.14q7.77-3.63,18.89-3.62h26.57v-7.13q0-9.61-5.22-14.15t-16.71-4.52q-8.42,0-13.1,2.12a24.64,24.64,0,0,0-8.93,7.5L426.93,388.4A37.9,37.9,0,0,1,442,377q8.22-3.19,21-3.2,41.36,0,41.35,34.49Zm-20.19-37.39V431H460.55q-8.79,0-13.38,3.77t-4.59,10.73q0,14.19,18.36,14.2a44.6,44.6,0,0,0,10.82-1.11,18.13,18.13,0,0,0,8-4.59Q484.13,449.67,484.13,439.14Z" style="fill:#1e4079"/><path d="M548.7,476.53h-6.16q-13.62,0-20.53-7.88T515.1,448.8V342.49h20.19V447.64c0,4,.81,6.94,2.42,8.84s4.41,2.85,8.4,2.85h2.59Z" style="fill:#1e4079"/><path d="M638.45,476.53h-19.8V464.64a32.75,32.75,0,0,1-7.73,7.15,28.23,28.23,0,0,1-8.51,3.63,43.61,43.61,0,0,1-10.33,1.11,39.14,39.14,0,0,1-13.87-2.42,31.09,31.09,0,0,1-10.67-6.47,30.78,30.78,0,0,1-7.2-11.55,60.14,60.14,0,0,1-3.24-14.15,183.33,183.33,0,0,1,0-33.57,59.53,59.53,0,0,1,3.24-14.06,31,31,0,0,1,7.2-11.5,29,29,0,0,1,10.62-6.61,39.13,39.13,0,0,1,13.72-2.37,39.67,39.67,0,0,1,14.74,2.52,29.9,29.9,0,0,1,11.64,8.84v-42.7h20.19Zm-20.19-51.35a84.09,84.09,0,0,0-1.55-17.41,21.34,21.34,0,0,0-6.13-11.48Q606,392,597.49,392t-13.24,4.34a21.53,21.53,0,0,0-6.18,11.48,98.33,98.33,0,0,0,0,34.78,21.8,21.8,0,0,0,6.18,11.58q4.63,4.4,13.24,4.39,12.36,0,16.57-8.83T618.26,425.18Z" style="fill:#1e4079"/><path d="M733.17,431H668.05a34.4,34.4,0,0,0,3,15,22.29,22.29,0,0,0,8.64,9.66,26.53,26.53,0,0,0,14,3.43q8.31,0,13.43-2.32A40.22,40.22,0,0,0,718,448.9l12.85,12a56,56,0,0,1-16.64,11.93q-8.41,3.72-21,3.72a55.76,55.76,0,0,1-17.94-2.8,36.71,36.71,0,0,1-14.36-8.89,40.7,40.7,0,0,1-9.48-15.94q-3.39-9.86-3.39-23.77,0-16.12,5.27-27.63a39.86,39.86,0,0,1,14.85-17.58q9.57-6.09,22.44-6.09,13.15,0,22.83,6.09A38.69,38.69,0,0,1,728.14,397a59.81,59.81,0,0,1,5,25.17Zm-20-14a39.06,39.06,0,0,0-2.71-13.63,20.37,20.37,0,0,0-7.58-9.27,21.37,21.37,0,0,0-12.22-3.48,21.64,21.64,0,0,0-12.22,3.48,20.8,20.8,0,0,0-7.78,9.27,25.49,25.49,0,0,0-1.79,5.46q-.43,2.37-.82,8.17Z" style="fill:#1e4079"/><path d="M827.89,431H762.77a34.55,34.55,0,0,0,3,15,22.38,22.38,0,0,0,8.65,9.66,26.53,26.53,0,0,0,14,3.43q8.31,0,13.43-2.32a40.53,40.53,0,0,0,10.92-7.92l12.85,12a56,56,0,0,1-16.64,11.93q-8.41,3.72-21,3.72a55.76,55.76,0,0,1-17.94-2.8,36.82,36.82,0,0,1-14.37-8.89,40.94,40.94,0,0,1-9.48-15.94q-3.37-9.86-3.38-23.77,0-16.12,5.27-27.63a39.8,39.8,0,0,1,14.85-17.58q9.57-6.09,22.44-6.09,13.15,0,22.82,6.09A38.65,38.65,0,0,1,822.86,397a59.81,59.81,0,0,1,5,25.17Zm-20-14a39.29,39.29,0,0,0-2.71-13.63,20.43,20.43,0,0,0-7.58-9.27,21.37,21.37,0,0,0-12.22-3.48,21.62,21.62,0,0,0-12.22,3.48,20.73,20.73,0,0,0-7.78,9.27,24.94,24.94,0,0,0-1.79,5.46q-.44,2.37-.82,8.17Z" style="fill:#1e4079"/></svg>