<svg id="Layer_1" data-name="Layer 1" xmlns="http://www.w3.org/2000/svg" viewBox="0 0 1000 1000"><title>Jaldee_features logos</title><text transform="translate(285.91 570.34)" style="font-size:180.27999877929688px;fill:#58595b;font-family:Roboto-Medium, Roboto;font-weight:500;letter-spacing:-0.050252775537185046em">Z<tspan x="99.48" y="0" style="letter-spacing:-0.040001252662966794em">e</tspan><tspan x="189.01" y="0" style="letter-spacing:-0.05757916110515344em">r</tspan><tspan x="242.01" y="0" style="letter-spacing:-0.03999854420249805em">o</tspan></text><path d="M369.05,372.21q0,14.3-6.23,24.59a41.14,41.14,0,0,1-17,15.7,51.76,51.76,0,0,1-23.67,5.41,58.37,58.37,0,0,1-13.09-1.41,38.88,38.88,0,0,1-11.21-4.42,50.24,50.24,0,0,1-9.9-7.86l14.2-14a36.79,36.79,0,0,0,8.7,6.43q4.16,2.07,11.3,2.07a27.4,27.4,0,0,0,13.67-3.23,21.12,21.12,0,0,0,8.79-9.56,35,35,0,0,0,3.05-15.3V283.87h21.35Z" style="fill:#1e4079"/><path d="M458.82,417.91H439V407.67a34.07,34.07,0,0,1-11.49,7.87q-6,2.37-15.17,2.37a49,49,0,0,1-15.75-2.27,28.6,28.6,0,0,1-11.21-6.81q-7.92-8.22-7.92-21.55a28.56,28.56,0,0,1,4-15.12A26.21,26.21,0,0,1,393.17,362q7.77-3.63,18.89-3.62h26.57v-7.13q0-9.61-5.22-14.15T416.7,332.6q-8.42,0-13.1,2.12a24.57,24.57,0,0,0-8.93,7.51l-13.24-12.45q6.85-8.16,15.07-11.36t21-3.21q41.34,0,41.35,34.49Zm-20.19-37.39v-8.11H415.05q-8.79,0-13.38,3.76t-4.59,10.73q0,14.21,18.36,14.2A44.6,44.6,0,0,0,426.26,400a18.13,18.13,0,0,0,8-4.59Q438.63,391.05,438.63,380.52Z" style="fill:#1e4079"/><path d="M503.2,417.91H497q-13.62,0-20.53-7.87t-6.91-19.86V283.87h20.19V389c0,4,.81,6.94,2.42,8.84s4.41,2.85,8.4,2.85h2.59Z" style="fill:#1e4079"/><path d="M593,417.91H573.14V406a33,33,0,0,1-7.72,7.15,28.57,28.57,0,0,1-8.51,3.62,43.61,43.61,0,0,1-10.33,1.11,39.11,39.11,0,0,1-13.87-2.42,28.13,28.13,0,0,1-17.87-18,60.23,60.23,0,0,1-3.24-14.16,183.33,183.33,0,0,1,0-33.57,59.53,59.53,0,0,1,3.24-14.06A30.85,30.85,0,0,1,522,324.2a29,29,0,0,1,10.62-6.62,42.55,42.55,0,0,1,28.46.16,29.77,29.77,0,0,1,11.64,8.83v-42.7H593Zm-20.19-51.35a84.09,84.09,0,0,0-1.55-17.41,21.38,21.38,0,0,0-6.13-11.48q-4.59-4.31-13.09-4.3t-13.24,4.35a21.47,21.47,0,0,0-6.18,11.47,98.33,98.33,0,0,0,0,34.78,21.8,21.8,0,0,0,6.18,11.58q4.63,4.4,13.24,4.39,12.36,0,16.57-8.83T572.76,366.56Z" style="fill:#1e4079"/><path d="M687.67,372.41H622.55a34.39,34.39,0,0,0,3,15,22.29,22.29,0,0,0,8.64,9.66q5.65,3.44,14,3.43t13.43-2.32a40.22,40.22,0,0,0,10.92-7.92l12.85,12a56,56,0,0,1-16.64,11.93q-8.41,3.72-21,3.72a55.49,55.49,0,0,1-17.94-2.8,36.71,36.71,0,0,1-14.36-8.89,40.7,40.7,0,0,1-9.48-15.94q-3.39-9.86-3.39-23.77,0-16.12,5.27-27.63a39.92,39.92,0,0,1,14.85-17.58q9.57-6.09,22.44-6.09,13.15,0,22.83,6.09a38.69,38.69,0,0,1,14.7,17.05,59.81,59.81,0,0,1,5,25.17Zm-20-14A39.06,39.06,0,0,0,665,344.77a20.43,20.43,0,0,0-7.58-9.27A21.37,21.37,0,0,0,645.16,332a21.64,21.64,0,0,0-12.22,3.48,20.8,20.8,0,0,0-7.78,9.27,25.67,25.67,0,0,0-1.79,5.46q-.43,2.37-.82,8.17Z" style="fill:#1e4079"/><path d="M782.39,372.41H717.27a34.53,34.53,0,0,0,3,15,22.38,22.38,0,0,0,8.65,9.66q5.65,3.44,14,3.43t13.43-2.32a40.53,40.53,0,0,0,10.92-7.92l12.85,12a56,56,0,0,1-16.64,11.93q-8.41,3.72-21,3.72a55.49,55.49,0,0,1-17.94-2.8,36.75,36.75,0,0,1-14.37-8.89,40.94,40.94,0,0,1-9.48-15.94q-3.37-9.86-3.38-23.77,0-16.12,5.27-27.63a39.79,39.79,0,0,1,14.85-17.58q9.57-6.09,22.44-6.09,13.15,0,22.82,6.09a38.65,38.65,0,0,1,14.71,17.05,59.81,59.81,0,0,1,5,25.17Zm-20-14a39.29,39.29,0,0,0-2.71-13.63,20.43,20.43,0,0,0-7.58-9.27A21.37,21.37,0,0,0,739.88,332a21.67,21.67,0,0,0-12.23,3.48,20.78,20.78,0,0,0-7.77,9.27,25.11,25.11,0,0,0-1.79,5.46,80.15,80.15,0,0,0-.82,8.17Z" style="fill:#1e4079"/></svg>