<?xml version="1.0" encoding="utf-8"?>
<svg viewBox="320.147 562.411 289.112 204.09" width="289.112" height="204.09" xmlns="http://www.w3.org/2000/svg">
  <path class="cls-1" d="M41.49,434.48a20.4,20.4,0,0,1-2.73,10.77,18,18,0,0,1-7.42,6.87A22.69,22.69,0,0,1,21,454.49a25.61,25.61,0,0,1-5.73-.62,16.88,16.88,0,0,1-4.9-1.93A22.34,22.34,0,0,1,6,448.5l6.22-6.15a15.73,15.73,0,0,0,3.8,2.81,11.19,11.19,0,0,0,4.95.91,12.06,12.06,0,0,0,6-1.41,9.29,9.29,0,0,0,3.85-4.19,15.31,15.31,0,0,0,1.33-6.7v-38h9.35Z" transform="matrix(1, 0, 0, 1, 314.146606, 166.641205)" style="fill: rgb(30, 64, 121);"/>
  <path class="cls-1" d="M80.79,454.49H72.12V450a15.07,15.07,0,0,1-5,3.44,18.21,18.21,0,0,1-6.64,1,21.46,21.46,0,0,1-6.89-1,12.59,12.59,0,0,1-4.91-3,13,13,0,0,1-3.47-9.43,12.46,12.46,0,0,1,1.74-6.62A11.49,11.49,0,0,1,52.05,430a19.43,19.43,0,0,1,8.27-1.59H72v-3.11q0-4.21-2.29-6.2t-7.31-2a14.17,14.17,0,0,0-5.73.93,10.82,10.82,0,0,0-3.92,3.28l-5.79-5.44a16.61,16.61,0,0,1,6.6-5,25.61,25.61,0,0,1,9.18-1.4q18.09,0,18.1,15.1ZM72,438.12v-3.55H61.63a9,9,0,0,0-5.86,1.65,5.72,5.72,0,0,0-2,4.69q0,6.22,8,6.22a19.08,19.08,0,0,0,4.73-.49,7.92,7.92,0,0,0,3.52-2C71.31,443.37,72,441.19,72,438.12Z" transform="matrix(1, 0, 0, 1, 314.146606, 166.641205)" style="fill: rgb(30, 64, 121);"/>
  <path class="cls-1" d="M100.22,454.49h-2.7q-6,0-9-3.45a12.72,12.72,0,0,1-3-8.69V395.81h8.84v46a5.87,5.87,0,0,0,1.06,3.87c.7.83,1.93,1.25,3.68,1.25h1.13Z" transform="matrix(1, 0, 0, 1, 314.146606, 166.641205)" style="fill: rgb(30, 64, 121);"/>
  <path class="cls-1" d="M139.51,454.49h-8.67v-5.2a14.73,14.73,0,0,1-3.38,3.13,12.46,12.46,0,0,1-3.72,1.58,18.88,18.88,0,0,1-4.53.49,17,17,0,0,1-6.07-1.06,13.51,13.51,0,0,1-4.67-2.83,13.33,13.33,0,0,1-3.15-5.06,25.8,25.8,0,0,1-1.42-6.19,70,70,0,0,1-.34-7.36,69.15,69.15,0,0,1,.34-7.34,25.67,25.67,0,0,1,1.42-6.16,13.36,13.36,0,0,1,3.15-5,12.73,12.73,0,0,1,4.65-2.9,17.13,17.13,0,0,1,6-1,17.5,17.5,0,0,1,6.45,1.1,13.13,13.13,0,0,1,5.09,3.87V395.81h8.84ZM130.67,432a37,37,0,0,0-.67-7.63,9.43,9.43,0,0,0-2.69-5,8.09,8.09,0,0,0-5.73-1.88,8.17,8.17,0,0,0-5.8,1.9,9.41,9.41,0,0,0-2.7,5,36.5,36.5,0,0,0-.68,7.6,36.91,36.91,0,0,0,.68,7.62,9.53,9.53,0,0,0,2.7,5.07,8.14,8.14,0,0,0,5.8,1.92q5.42,0,7.25-3.86T130.67,432Z" transform="matrix(1, 0, 0, 1, 314.146606, 166.641205)" style="fill: rgb(30, 64, 121);"/>
  <path class="cls-1" d="M181,434.57H152.47a15.09,15.09,0,0,0,1.31,6.57,9.8,9.8,0,0,0,3.79,4.23,11.49,11.49,0,0,0,6.11,1.51,14.3,14.3,0,0,0,5.88-1,17.61,17.61,0,0,0,4.78-3.47l5.62,5.25a24.32,24.32,0,0,1-7.28,5.22,22.67,22.67,0,0,1-9.19,1.63,24.24,24.24,0,0,1-7.85-1.23,15.91,15.91,0,0,1-6.29-3.89,17.9,17.9,0,0,1-4.15-7,32.09,32.09,0,0,1-1.48-10.4,29,29,0,0,1,2.3-12.1,17.5,17.5,0,0,1,6.5-7.7,18,18,0,0,1,9.83-2.66,18.4,18.4,0,0,1,10,2.66,17,17,0,0,1,6.44,7.47,26.12,26.12,0,0,1,2.2,11Zm-8.76-6.14a17.11,17.11,0,0,0-1.18-6,8.93,8.93,0,0,0-3.32-4.06,9.32,9.32,0,0,0-5.35-1.52,9.45,9.45,0,0,0-5.35,1.52,9.12,9.12,0,0,0-3.41,4.06,11.53,11.53,0,0,0-.78,2.39,34.18,34.18,0,0,0-.36,3.57Z" transform="matrix(1, 0, 0, 1, 314.146606, 166.641205)" style="fill: rgb(30, 64, 121);"/>
  <path class="cls-1" d="M222.45,434.57H193.94a15.09,15.09,0,0,0,1.31,6.57,9.74,9.74,0,0,0,3.79,4.23,11.49,11.49,0,0,0,6.11,1.51,14.37,14.37,0,0,0,5.88-1,17.61,17.61,0,0,0,4.78-3.47l5.62,5.25a24.45,24.45,0,0,1-7.28,5.22,22.7,22.7,0,0,1-9.19,1.63,24.34,24.34,0,0,1-7.86-1.23,15.88,15.88,0,0,1-6.28-3.89,17.78,17.78,0,0,1-4.15-7,32.07,32.07,0,0,1-1.49-10.4,28.86,28.86,0,0,1,2.31-12.1,17.5,17.5,0,0,1,6.5-7.7,18,18,0,0,1,9.83-2.66,18.43,18.43,0,0,1,10,2.66,17,17,0,0,1,6.44,7.47,26.28,26.28,0,0,1,2.2,11Zm-8.76-6.14a17.11,17.11,0,0,0-1.18-6,8.93,8.93,0,0,0-3.32-4.06,10.18,10.18,0,0,0-10.7,0,9.06,9.06,0,0,0-3.41,4.06,11.53,11.53,0,0,0-.78,2.39,34.18,34.18,0,0,0-.36,3.57Z" transform="matrix(1, 0, 0, 1, 314.146606, 166.641205)" style="fill: rgb(30, 64, 121);"/>
  <path class="cls-2" d="M38.72,583.32H96.56v15H16V586.15l56-80.9H16.34V490.08H94.78V502Z" transform="matrix(1, 0, 0, 1, 314.146606, 166.641205)" style="fill: rgb(88, 89, 91);"/>
  <path class="cls-2" d="M138.73,599.83a41.27,41.27,0,0,1-16.06-3,35.16,35.16,0,0,1-12.12-8.18,35.63,35.63,0,0,1-7.66-12.34,43.59,43.59,0,0,1-2.68-15.39v-3A49.53,49.53,0,0,1,103,540.75a39.19,39.19,0,0,1,7.73-13.08,34.07,34.07,0,0,1,11.56-8.33,35,35,0,0,1,14.32-2.94,36.54,36.54,0,0,1,15.24,2.94,28.81,28.81,0,0,1,10.71,8.22,35.38,35.38,0,0,1,6.32,12.56,58.39,58.39,0,0,1,2.08,16v7.73H118.43a28.9,28.9,0,0,0,2,8.63,21.42,21.42,0,0,0,4.35,6.8,19.87,19.87,0,0,0,6.51,4.5,21.11,21.11,0,0,0,8.51,1.63,24.16,24.16,0,0,0,11.64-2.67,27.43,27.43,0,0,0,8.58-7.36l9.74,9.29a33,33,0,0,1-11.48,10.45,38.8,38.8,0,0,1-8.67,3.42A42.08,42.08,0,0,1,138.73,599.83Zm-2.16-68.93a15.23,15.23,0,0,0-12,5.21q-4.56,5.21-5.83,14.5h34.42v-1.34a33.08,33.08,0,0,0-1.15-6.88,17.45,17.45,0,0,0-2.86-5.87,13.77,13.77,0,0,0-5-4.09A16.88,16.88,0,0,0,136.57,530.9Z" transform="matrix(1, 0, 0, 1, 314.146606, 166.641205)" style="fill: rgb(88, 89, 91);"/>
  <path class="cls-2" d="M221,534.4q-1.78-.3-3.6-.45c-1.22-.1-2.47-.15-3.76-.15q-6.54,0-10.63,2.53a15.49,15.49,0,0,0-6.1,7v55H178.89V517.89h17.25l.44,9a23.38,23.38,0,0,1,7.55-7.7,19.69,19.69,0,0,1,10.59-2.79,20.81,20.81,0,0,1,3.54.34,14.92,14.92,0,0,1,2.86.7Z" transform="matrix(1, 0, 0, 1, 314.146606, 166.641205)" style="fill: rgb(88, 89, 91);"/>
  <path class="cls-2" d="M220.31,557.37a49.69,49.69,0,0,1,2.56-16.24,38.63,38.63,0,0,1,7.36-13,33.69,33.69,0,0,1,11.71-8.62,37.6,37.6,0,0,1,15.69-3.13,38.31,38.31,0,0,1,15.84,3.13,33.41,33.41,0,0,1,11.78,8.62,38.07,38.07,0,0,1,7.33,13,50.49,50.49,0,0,1,2.53,16.24v1.56a50.94,50.94,0,0,1-2.53,16.29,37.65,37.65,0,0,1-7.33,13,33.36,33.36,0,0,1-11.74,8.55,41.76,41.76,0,0,1-31.53,0,33.49,33.49,0,0,1-11.75-8.55,38.2,38.2,0,0,1-7.36-13,50.12,50.12,0,0,1-2.56-16.29Zm18.06,1.56a45.7,45.7,0,0,0,1.12,10.26,25.6,25.6,0,0,0,3.49,8.44,16.81,16.81,0,0,0,14.8,7.77,16.7,16.7,0,0,0,14.69-7.77,26.71,26.71,0,0,0,3.49-8.44,44,44,0,0,0,1.15-10.26v-1.56A43.25,43.25,0,0,0,276,547.22a26.55,26.55,0,0,0-3.53-8.4,18.33,18.33,0,0,0-6.06-5.76,17,17,0,0,0-8.74-2.16,16.54,16.54,0,0,0-8.66,2.16,18.5,18.5,0,0,0-6,5.76,25.83,25.83,0,0,0-3.49,8.4,44.91,44.91,0,0,0-1.12,10.15Z" transform="matrix(1, 0, 0, 1, 314.146606, 166.641205)" style="fill: rgb(88, 89, 91);"/>
</svg>