<?xml version="1.0" encoding="utf-8"?>
<svg viewBox="224.483 204.951 264.62 199.617" width="264.62" height="199.617" xmlns="http://www.w3.org/2000/svg">
  <path class="cls-1" d="M41.61,456.92a20.4,20.4,0,0,1-2.73,10.77,18,18,0,0,1-7.43,6.87,22.65,22.65,0,0,1-10.36,2.37,25.61,25.61,0,0,1-5.73-.62,16.94,16.94,0,0,1-4.91-1.93,22,22,0,0,1-4.33-3.45l6.21-6.14a16,16,0,0,0,3.81,2.81,11.13,11.13,0,0,0,4.95.91,12.09,12.09,0,0,0,6-1.41,9.27,9.27,0,0,0,3.84-4.19,15.3,15.3,0,0,0,1.34-6.7v-38h9.35Z" transform="matrix(1, 0, 0, 1, 218.363449, -213.25943)" style="fill: rgb(30, 64, 121);"/>
  <path class="cls-1" d="M80.91,476.93H72.23v-4.48a14.93,14.93,0,0,1-5,3.44,18.25,18.25,0,0,1-6.64,1,21.17,21.17,0,0,1-6.89-1,12.38,12.38,0,0,1-4.91-3,13,13,0,0,1-3.47-9.43A12.46,12.46,0,0,1,47,456.9a11.46,11.46,0,0,1,5.13-4.44,19.46,19.46,0,0,1,8.27-1.59H72.07v-3.11c0-2.81-.77-4.88-2.29-6.2s-4-2-7.32-2a14.24,14.24,0,0,0-5.73.93,10.69,10.69,0,0,0-3.91,3.28L47,438.35a16.56,16.56,0,0,1,6.59-5A25.47,25.47,0,0,1,62.8,432q18.11,0,18.11,15.1Zm-8.84-16.37V457H61.74a9,9,0,0,0-5.85,1.65,5.72,5.72,0,0,0-2,4.69q0,6.22,8,6.22a19.22,19.22,0,0,0,4.74-.49,7.84,7.84,0,0,0,3.51-2Q72.07,465.17,72.07,460.56Z" transform="matrix(1, 0, 0, 1, 218.363449, -213.25943)" style="fill: rgb(30, 64, 121);"/>
  <path class="cls-1" d="M100.34,476.93h-2.7q-6,0-9-3.45a12.67,12.67,0,0,1-3-8.69V418.25h8.84v46a5.92,5.92,0,0,0,1,3.87,4.64,4.64,0,0,0,3.68,1.25h1.14Z" transform="matrix(1, 0, 0, 1, 218.363449, -213.25943)" style="fill: rgb(30, 64, 121);"/>
  <path class="cls-1" d="M139.63,476.93H131v-5.2a14.56,14.56,0,0,1-3.39,3.13,12.24,12.24,0,0,1-3.72,1.58,18.74,18.74,0,0,1-4.52.49,17,17,0,0,1-6.07-1.06,12.27,12.27,0,0,1-7.83-7.89,25.89,25.89,0,0,1-1.41-6.19,70,70,0,0,1-.34-7.36,69.15,69.15,0,0,1,.34-7.34,25.65,25.65,0,0,1,1.41-6.16,13.62,13.62,0,0,1,3.15-5,12.77,12.77,0,0,1,4.66-2.9,18.72,18.72,0,0,1,12.45.07,13.09,13.09,0,0,1,5.1,3.87V418.25h8.84Zm-8.84-22.48a36.94,36.94,0,0,0-.68-7.63,9.35,9.35,0,0,0-2.68-5,8,8,0,0,0-5.73-1.88,8.16,8.16,0,0,0-5.8,1.9,9.43,9.43,0,0,0-2.71,5,43.61,43.61,0,0,0,0,15.23,9.54,9.54,0,0,0,2.71,5.07,8.12,8.12,0,0,0,5.8,1.92q5.4,0,7.25-3.86T130.79,454.45Z" transform="matrix(1, 0, 0, 1, 218.363449, -213.25943)" style="fill: rgb(30, 64, 121);"/>
  <path class="cls-1" d="M181.1,457H152.59a15.12,15.12,0,0,0,1.31,6.57,9.74,9.74,0,0,0,3.79,4.23,11.58,11.58,0,0,0,6.11,1.5,14.38,14.38,0,0,0,5.88-1,17.77,17.77,0,0,0,4.78-3.47l5.62,5.25a24.76,24.76,0,0,1-7.28,5.22,22.7,22.7,0,0,1-9.19,1.63,24.34,24.34,0,0,1-7.86-1.23,16,16,0,0,1-6.28-3.89,17.91,17.91,0,0,1-4.16-7,32.36,32.36,0,0,1-1.48-10.4,28.83,28.83,0,0,1,2.31-12.1,17.5,17.5,0,0,1,6.5-7.7,17.91,17.91,0,0,1,9.83-2.66,18.34,18.34,0,0,1,10,2.66,17,17,0,0,1,6.44,7.47,26.26,26.26,0,0,1,2.2,11Zm-8.76-6.14a17.11,17.11,0,0,0-1.18-6,8.93,8.93,0,0,0-3.32-4.06,10.18,10.18,0,0,0-10.7,0,9.06,9.06,0,0,0-3.41,4.06,11,11,0,0,0-.78,2.39,34.18,34.18,0,0,0-.36,3.57Z" transform="matrix(1, 0, 0, 1, 218.363449, -213.25943)" style="fill: rgb(30, 64, 121);"/>
  <path class="cls-1" d="M222.57,457H194.06a15,15,0,0,0,1.31,6.57,9.72,9.72,0,0,0,3.78,4.23,11.61,11.61,0,0,0,6.12,1.5,14.3,14.3,0,0,0,5.87-1,17.46,17.46,0,0,0,4.78-3.47l5.63,5.25a24.76,24.76,0,0,1-7.28,5.22,22.7,22.7,0,0,1-9.19,1.63,24.3,24.3,0,0,1-7.86-1.23,16.1,16.1,0,0,1-6.29-3.89,17.9,17.9,0,0,1-4.15-7,32.09,32.09,0,0,1-1.48-10.4,28.83,28.83,0,0,1,2.31-12.1,17.43,17.43,0,0,1,6.5-7.7,17.87,17.87,0,0,1,9.82-2.66,18.37,18.37,0,0,1,10,2.66,17,17,0,0,1,6.43,7.47,26.11,26.11,0,0,1,2.21,11Zm-8.76-6.14a17.34,17.34,0,0,0-1.18-6,9,9,0,0,0-3.33-4.06,9.29,9.29,0,0,0-5.35-1.52,9.45,9.45,0,0,0-5.35,1.52,9.1,9.1,0,0,0-3.4,4.06,10.44,10.44,0,0,0-.78,2.39,34.18,34.18,0,0,0-.36,3.57Z" transform="matrix(1, 0, 0, 1, 218.363449, -213.25943)" style="fill: rgb(30, 64, 121);"/>
  <path class="cls-2" d="M78.83,570.46H35.26v45.88H16.44V508.08H85.22v15.17h-50v32.2H78.83Z" transform="matrix(1, 0, 0, 1, 218.363449, -213.25943)" style="fill: rgb(88, 89, 91);"/>
  <path class="cls-2" d="M92.29,515a9.6,9.6,0,0,1,2.64-6.92q2.64-2.74,7.55-2.75t7.58,2.75a9.51,9.51,0,0,1,2.68,6.92,9.28,9.28,0,0,1-2.68,6.8q-2.67,2.72-7.58,2.71t-7.55-2.71A9.37,9.37,0,0,1,92.29,515Zm19.18,101.34H93.41V535.89h18.06Z" transform="matrix(1, 0, 0, 1, 218.363449, -213.25943)" style="fill: rgb(88, 89, 91);"/>
  <path class="cls-2" d="M141.82,535.89l.52,9.29a29.39,29.39,0,0,1,10.18-7.95,30.54,30.54,0,0,1,13.24-2.83,32.81,32.81,0,0,1,10.52,1.6,19.44,19.44,0,0,1,8.07,5.17,24,24,0,0,1,5.16,9.29,46.12,46.12,0,0,1,1.83,13.91v52H173.27V564.22a23,23,0,0,0-.93-7,11.32,11.32,0,0,0-2.71-4.64A10.26,10.26,0,0,0,165.2,550a21.42,21.42,0,0,0-6.06-.78,17.37,17.37,0,0,0-9.7,2.68,19.41,19.41,0,0,0-6.58,7.21v57.25H124.79V535.89Z" transform="matrix(1, 0, 0, 1, 218.363449, -213.25943)" style="fill: rgb(88, 89, 91);"/>
  <path class="cls-2" d="M200.26,575.52a60.17,60.17,0,0,1,2.2-16.73,39.25,39.25,0,0,1,6.32-13A28.17,28.17,0,0,1,232,534.4a28.32,28.32,0,0,1,11.79,2.31,26,26,0,0,1,8.88,6.62v-41.2h18.07V616.34H254.39L253.5,608a27,27,0,0,1-9.18,7.25,28.39,28.39,0,0,1-12.45,2.57,27.63,27.63,0,0,1-13.13-3.09,29.51,29.51,0,0,1-9.92-8.51,40.24,40.24,0,0,1-6.32-12.9,56.49,56.49,0,0,1-2.24-16.25Zm18.07,1.56a48.38,48.38,0,0,0,1,10.08,26.1,26.1,0,0,0,3.19,8.29,16.48,16.48,0,0,0,5.62,5.61,15.87,15.87,0,0,0,8.32,2.05,17.17,17.17,0,0,0,10-2.72,19.39,19.39,0,0,0,6.2-7.17V558.87a18.32,18.32,0,0,0-6.24-7.07,17.49,17.49,0,0,0-9.82-2.6,15.88,15.88,0,0,0-8.36,2.08,16.6,16.6,0,0,0-5.65,5.65,26.87,26.87,0,0,0-3.24,8.37,48.29,48.29,0,0,0-1,10.22Z" style="fill: rgb(88, 89, 91);" transform="matrix(1, 0, 0, 1, 218.363449, -213.25943)"/>
</svg>