<?xml version="1.0" encoding="utf-8"?>
<svg viewBox="-50.97 731.131 378.357 204.213" width="378.357" height="204.213" xmlns="http://www.w3.org/2000/svg">
  <path class="cls-1" d="M51.21,437.34a20.36,20.36,0,0,1-2.73,10.76A18,18,0,0,1,41.05,455a22.64,22.64,0,0,1-10.36,2.36,25.62,25.62,0,0,1-5.73-.61,17,17,0,0,1-4.91-1.94,21.55,21.55,0,0,1-4.33-3.44l6.22-6.14a16.28,16.28,0,0,0,3.8,2.81,11.27,11.27,0,0,0,5,.91,12,12,0,0,0,6-1.42,9.32,9.32,0,0,0,3.85-4.18,15.48,15.48,0,0,0,1.33-6.7v-38h9.35Z" transform="matrix(1, 0, 0, 1, -66.690376, 332.480652)" style="fill: rgb(30, 64, 121);"/>
  <path class="cls-1" d="M90.51,457.34H81.84v-4.48a15,15,0,0,1-5,3.45,18.26,18.26,0,0,1-6.64,1,21.46,21.46,0,0,1-6.89-1,12.57,12.57,0,0,1-4.91-3,13,13,0,0,1-3.47-9.43,12.46,12.46,0,0,1,1.74-6.62,11.37,11.37,0,0,1,5.14-4.44A19.41,19.41,0,0,1,70,431.29H81.67v-3.12c0-2.81-.77-4.87-2.29-6.19s-4-2-7.31-2a14.28,14.28,0,0,0-5.74.92,10.91,10.91,0,0,0-3.91,3.29l-5.79-5.45a16.53,16.53,0,0,1,6.59-5,25.45,25.45,0,0,1,9.18-1.41q18.1,0,18.11,15.1ZM81.67,441v-3.56H71.35a9,9,0,0,0-5.86,1.65,5.74,5.74,0,0,0-2,4.7q0,6.21,8,6.22a19.69,19.69,0,0,0,4.73-.49,8,8,0,0,0,3.51-2Q81.66,445.59,81.67,441Z" transform="matrix(1, 0, 0, 1, -66.690376, 332.480652)" style="fill: rgb(30, 64, 121);"/>
  <path class="cls-1" d="M109.94,457.34h-2.7q-6,0-9-3.44a12.74,12.74,0,0,1-3-8.69V398.66h8.84v46a5.87,5.87,0,0,0,1.06,3.87c.7.83,1.93,1.25,3.68,1.25h1.13Z" transform="matrix(1, 0, 0, 1, -66.690376, 332.480652)" style="fill: rgb(30, 64, 121);"/>
  <path class="cls-1" d="M149.23,457.34h-8.67v-5.2a14.29,14.29,0,0,1-3.38,3.13,12.43,12.43,0,0,1-3.73,1.59,19.28,19.28,0,0,1-4.52.48,17.2,17.2,0,0,1-6.07-1A12.33,12.33,0,0,1,115,448.4a25.86,25.86,0,0,1-1.41-6.2,79.61,79.61,0,0,1,0-14.7,25.47,25.47,0,0,1,1.41-6.15,13.62,13.62,0,0,1,3.15-5,12.77,12.77,0,0,1,4.66-2.9,18.56,18.56,0,0,1,12.45.07,13,13,0,0,1,5.1,3.87v-18.7h8.84Zm-8.84-22.48a36.91,36.91,0,0,0-.68-7.62,9.38,9.38,0,0,0-2.68-5,9.72,9.72,0,0,0-11.53,0,9.46,9.46,0,0,0-2.71,5,36.64,36.64,0,0,0-.67,7.6,37,37,0,0,0,.67,7.63,9.69,9.69,0,0,0,2.71,5.07,8.12,8.12,0,0,0,5.8,1.92c3.61,0,6-1.29,7.25-3.87S140.39,439.45,140.39,434.86Z" transform="matrix(1, 0, 0, 1, -66.690376, 332.480652)" style="fill: rgb(30, 64, 121);"/>
  <path class="cls-1" d="M190.7,437.42H162.19A15.14,15.14,0,0,0,163.5,444a9.74,9.74,0,0,0,3.79,4.23,11.58,11.58,0,0,0,6.11,1.5,14.55,14.55,0,0,0,5.88-1,17.83,17.83,0,0,0,4.78-3.47l5.62,5.24a24.49,24.49,0,0,1-7.28,5.23,22.88,22.88,0,0,1-9.19,1.62,24.34,24.34,0,0,1-7.86-1.22,16.11,16.11,0,0,1-6.28-3.89,17.85,17.85,0,0,1-4.15-7,32.18,32.18,0,0,1-1.49-10.41,28.78,28.78,0,0,1,2.31-12.09,17.44,17.44,0,0,1,6.5-7.7,17.91,17.91,0,0,1,9.83-2.67,18.34,18.34,0,0,1,10,2.67,16.91,16.91,0,0,1,6.44,7.46,26.31,26.31,0,0,1,2.2,11Zm-8.76-6.13a17.11,17.11,0,0,0-1.18-6,9,9,0,0,0-3.32-4.07,9.39,9.39,0,0,0-5.35-1.52,9.51,9.51,0,0,0-5.35,1.52,9.08,9.08,0,0,0-3.41,4.07,11.34,11.34,0,0,0-.78,2.39,34.18,34.18,0,0,0-.36,3.57Z" transform="matrix(1, 0, 0, 1, -66.690376, 332.480652)" style="fill: rgb(30, 64, 121);"/>
  <path class="cls-1" d="M232.17,437.42H203.66A15,15,0,0,0,205,444a9.72,9.72,0,0,0,3.78,4.23,11.61,11.61,0,0,0,6.12,1.5,14.55,14.55,0,0,0,5.88-1,18,18,0,0,0,4.78-3.47l5.62,5.24a24.62,24.62,0,0,1-7.28,5.23,22.88,22.88,0,0,1-9.19,1.62,24.3,24.3,0,0,1-7.86-1.22,16.22,16.22,0,0,1-6.29-3.89,18,18,0,0,1-4.15-7,32.47,32.47,0,0,1-1.48-10.41,28.78,28.78,0,0,1,2.31-12.09,17.38,17.38,0,0,1,6.5-7.7,17.88,17.88,0,0,1,9.82-2.67,18.38,18.38,0,0,1,10,2.67,16.83,16.83,0,0,1,6.43,7.46,26.15,26.15,0,0,1,2.21,11Zm-8.76-6.13a17.11,17.11,0,0,0-1.18-6,9,9,0,0,0-3.32-4.07,9.41,9.41,0,0,0-5.35-1.52,9.54,9.54,0,0,0-5.36,1.52,9.13,9.13,0,0,0-3.4,4.07,10.29,10.29,0,0,0-.78,2.39,34.18,34.18,0,0,0-.36,3.57Z" transform="matrix(1, 0, 0, 1, -66.690376, 332.480652)" style="fill: rgb(30, 64, 121);"/>
  <path class="cls-2" d="M91.17,576.13H49.23l-8.77,25.21H20.9L61.8,493.08H78.67l41,108.26H100ZM54.51,561H85.89L70.2,516.05Z" transform="matrix(1, 0, 0, 1, -66.690376, 332.480652)" style="fill: rgb(88, 89, 91);"/>
  <path class="cls-2" d="M143.29,601.34H125.23V487.13h18.06Z" transform="matrix(1, 0, 0, 1, -66.690376, 332.480652)" style="fill: rgb(88, 89, 91);"/>
  <path class="cls-2" d="M192.3,602.83a41.45,41.45,0,0,1-16.06-3,35.3,35.3,0,0,1-12.12-8.18,35.87,35.87,0,0,1-7.66-12.34,43.59,43.59,0,0,1-2.68-15.39v-3a49.51,49.51,0,0,1,2.83-17.21,39.34,39.34,0,0,1,7.73-13.09,34.17,34.17,0,0,1,11.56-8.32,35,35,0,0,1,14.32-2.94,36.54,36.54,0,0,1,15.24,2.94,28.78,28.78,0,0,1,10.71,8.21,35.43,35.43,0,0,1,6.32,12.57,58.36,58.36,0,0,1,2.08,16v7.74H172a28.77,28.77,0,0,0,2,8.62,21.36,21.36,0,0,0,4.35,6.81,20,20,0,0,0,6.51,4.49,20.94,20.94,0,0,0,8.51,1.64A24.05,24.05,0,0,0,205,585.72a27.17,27.17,0,0,0,8.58-7.36l9.74,9.3a33.08,33.08,0,0,1-4.79,5.61,32.58,32.58,0,0,1-6.69,4.83,37.86,37.86,0,0,1-8.67,3.42A41.63,41.63,0,0,1,192.3,602.83Zm-2.16-68.93a15.23,15.23,0,0,0-12,5.2q-4.56,5.21-5.83,14.5h34.42v-1.34a33,33,0,0,0-1.15-6.87,17.5,17.5,0,0,0-2.86-5.88,13.87,13.87,0,0,0-5-4.09A17,17,0,0,0,190.14,533.9Z" transform="matrix(1, 0, 0, 1, -66.690376, 332.480652)" style="fill: rgb(88, 89, 91);"/>
  <path class="cls-2" d="M274.61,537.39c-1.19-.19-2.39-.34-3.6-.44s-2.47-.15-3.76-.15q-6.54,0-10.63,2.53a15.44,15.44,0,0,0-6.1,7v55H232.46V520.89h17.25l.44,9a23.35,23.35,0,0,1,7.55-7.69,19.69,19.69,0,0,1,10.59-2.79,21.77,21.77,0,0,1,3.54.33,14.77,14.77,0,0,1,2.86.71Z" transform="matrix(1, 0, 0, 1, -66.690376, 332.480652)" style="fill: rgb(88, 89, 91);"/>
  <path class="cls-2" d="M309.34,501.33v19.56h14.2v13.38h-14.2v44.91a13.72,13.72,0,0,0,.6,4.46,5.73,5.73,0,0,0,1.71,2.64,6.14,6.14,0,0,0,2.64,1.27,15.94,15.94,0,0,0,3.38.33,24.8,24.8,0,0,0,3.6-.26c1.17-.17,2.07-.33,2.72-.48v14q-2.16.6-5,1.16a36.67,36.67,0,0,1-6.88.56,27.92,27.92,0,0,1-8.29-1.19,16.63,16.63,0,0,1-6.62-3.87,18.2,18.2,0,0,1-4.35-7,31.2,31.2,0,0,1-1.56-10.56v-46H278V520.89h13.23V501.33Z" transform="matrix(1, 0, 0, 1, -66.690376, 332.480652)" style="fill: rgb(88, 89, 91);"/>
  <path class="cls-2" d="M376.34,579.48a10.18,10.18,0,0,0-.63-3.61,7.39,7.39,0,0,0-2.49-3.12A19.83,19.83,0,0,0,368,570a59.31,59.31,0,0,0-8.81-2.38,78.88,78.88,0,0,1-11.78-3.35,36.27,36.27,0,0,1-9.11-4.87,21.06,21.06,0,0,1-5.91-6.73,18.29,18.29,0,0,1-2.12-8.92,21,21,0,0,1,2.16-9.33,23.11,23.11,0,0,1,6.2-7.77,31.07,31.07,0,0,1,9.82-5.32,39.79,39.79,0,0,1,12.9-2,43.1,43.1,0,0,1,13.49,2A30.54,30.54,0,0,1,385,526.8a23.31,23.31,0,0,1,6.36,8.14,23.55,23.55,0,0,1,2.19,10.11H375.45a11.81,11.81,0,0,0-.9-4.5,11.14,11.14,0,0,0-2.67-3.9,13,13,0,0,0-4.43-2.71,17.16,17.16,0,0,0-6.13-1,18.63,18.63,0,0,0-5.95.86,13.26,13.26,0,0,0-4.2,2.23,8.65,8.65,0,0,0-2.49,3.2,9.14,9.14,0,0,0-.82,3.82,8.14,8.14,0,0,0,.75,3.57,7.16,7.16,0,0,0,2.64,2.83,22,22,0,0,0,5.09,2.34,74.22,74.22,0,0,0,8,2.12,94.66,94.66,0,0,1,12.53,3.5,35.42,35.42,0,0,1,9.37,4.9,20,20,0,0,1,5.83,6.84,20.4,20.4,0,0,1,2,9.37,21.06,21.06,0,0,1-2.31,9.82,22.51,22.51,0,0,1-6.58,7.69,31.86,31.86,0,0,1-10.29,5,47.05,47.05,0,0,1-13.39,1.79,42.16,42.16,0,0,1-14.61-2.35,33.46,33.46,0,0,1-10.67-6.13,25.58,25.58,0,0,1-6.5-8.59,23.2,23.2,0,0,1-2.2-9.78h17.55a13.88,13.88,0,0,0,1.71,6.25,12.62,12.62,0,0,0,3.79,4.09,15.9,15.9,0,0,0,5.21,2.27,25,25,0,0,0,5.95.7q7.13,0,10.85-2.71A8.4,8.4,0,0,0,376.34,579.48Z" transform="matrix(1, 0, 0, 1, -66.690376, 332.480652)" style="fill: rgb(88, 89, 91);"/>
</svg>