<?xml version="1.0" encoding="utf-8"?>
<svg viewBox="41.745 362.459 547.091 205.56" width="547.091" height="205.56" xmlns="http://www.w3.org/2000/svg">
  <path class="cls-1" d="M55.38,446.63a20.36,20.36,0,0,1-2.73,10.76,17.9,17.9,0,0,1-7.42,6.88,22.65,22.65,0,0,1-10.36,2.37,25.61,25.61,0,0,1-5.73-.62,17,17,0,0,1-4.91-1.94,21.55,21.55,0,0,1-4.33-3.44l6.21-6.14a16.52,16.52,0,0,0,3.81,2.81,11.13,11.13,0,0,0,4.95.91,11.92,11.92,0,0,0,6-1.42,9.26,9.26,0,0,0,3.85-4.18,15.33,15.33,0,0,0,1.34-6.7V408h9.34Z" transform="matrix(1, 0, 0, 1, 21.84457, -45.540894)" style="fill: rgb(30, 64, 121);"/>
  <path class="cls-1" d="M94.68,466.64H86v-4.49a14.83,14.83,0,0,1-5,3.45,18.25,18.25,0,0,1-6.64,1,21.56,21.56,0,0,1-6.9-1,12.53,12.53,0,0,1-4.9-3,13,13,0,0,1-3.47-9.43,12.54,12.54,0,0,1,1.73-6.62,11.42,11.42,0,0,1,5.14-4.44,19.46,19.46,0,0,1,8.27-1.59H85.84v-3.12q0-4.21-2.28-6.19t-7.32-2a14.44,14.44,0,0,0-5.73.92,10.83,10.83,0,0,0-3.91,3.29l-5.8-5.45a16.62,16.62,0,0,1,6.6-5,25.45,25.45,0,0,1,9.18-1.41q18.11,0,18.1,15.1Zm-8.84-16.37v-3.56H75.52a9.05,9.05,0,0,0-5.86,1.65,5.76,5.76,0,0,0-2,4.7q0,6.21,8,6.22a19.72,19.72,0,0,0,4.74-.49,7.93,7.93,0,0,0,3.51-2Q85.85,454.88,85.84,450.27Z" transform="matrix(1, 0, 0, 1, 21.84457, -45.540894)" style="fill: rgb(30, 64, 121);"/>
  <path class="cls-1" d="M114.11,466.64h-2.69q-6,0-9-3.45a12.69,12.69,0,0,1-3-8.69V408h8.84v46a5.92,5.92,0,0,0,1,3.87,4.63,4.63,0,0,0,3.68,1.25h1.13Z" transform="matrix(1, 0, 0, 1, 21.84457, -45.540894)" style="fill: rgb(30, 64, 121);"/>
  <path class="cls-1" d="M153.41,466.64h-8.67v-5.21a14.13,14.13,0,0,1-3.39,3.13,12.27,12.27,0,0,1-3.72,1.59,19.34,19.34,0,0,1-4.53.49,17.15,17.15,0,0,1-6.06-1.06,12.33,12.33,0,0,1-7.83-7.89,26.36,26.36,0,0,1-1.42-6.2,79.61,79.61,0,0,1,0-14.7,26.07,26.07,0,0,1,1.42-6.15,13.62,13.62,0,0,1,3.15-5,12.73,12.73,0,0,1,4.65-2.9,18.59,18.59,0,0,1,12.46.07,13.09,13.09,0,0,1,5.1,3.87V408h8.84Zm-8.84-22.49a36.91,36.91,0,0,0-.68-7.62,9.44,9.44,0,0,0-2.68-5,9.72,9.72,0,0,0-11.53,0,9.39,9.39,0,0,0-2.71,5,43.61,43.61,0,0,0,0,15.23,9.58,9.58,0,0,0,2.71,5.07,8.09,8.09,0,0,0,5.79,1.92q5.42,0,7.26-3.87T144.57,444.15Z" transform="matrix(1, 0, 0, 1, 21.84457, -45.540894)" style="fill: rgb(30, 64, 121);"/>
  <path class="cls-1" d="M194.88,446.71H166.37a15,15,0,0,0,1.31,6.58,9.72,9.72,0,0,0,3.78,4.23,11.61,11.61,0,0,0,6.12,1.5,14.47,14.47,0,0,0,5.87-1,17.68,17.68,0,0,0,4.78-3.47l5.63,5.24a24.62,24.62,0,0,1-7.28,5.23,22.87,22.87,0,0,1-9.19,1.63,24.3,24.3,0,0,1-7.86-1.23,16.22,16.22,0,0,1-6.29-3.89,18,18,0,0,1-4.15-7,32.47,32.47,0,0,1-1.48-10.41A28.78,28.78,0,0,1,159.92,432a17.38,17.38,0,0,1,6.5-7.7,17.88,17.88,0,0,1,9.82-2.67,18.38,18.38,0,0,1,10,2.67,16.89,16.89,0,0,1,6.43,7.46,26.15,26.15,0,0,1,2.21,11Zm-8.76-6.13a17.11,17.11,0,0,0-1.18-6,8.94,8.94,0,0,0-3.32-4.06,9.35,9.35,0,0,0-5.36-1.53,9.46,9.46,0,0,0-5.35,1.53,9,9,0,0,0-3.4,4.06,10.29,10.29,0,0,0-.78,2.39,34.18,34.18,0,0,0-.36,3.57Z" transform="matrix(1, 0, 0, 1, 21.84457, -45.540894)" style="fill: rgb(30, 64, 121);"/>
  <path class="cls-1" d="M236.34,446.71H207.83a15,15,0,0,0,1.32,6.58,9.72,9.72,0,0,0,3.78,4.23A11.6,11.6,0,0,0,219,459a14.48,14.48,0,0,0,5.88-1,17.68,17.68,0,0,0,4.78-3.47l5.63,5.24A24.53,24.53,0,0,1,228,465a22.84,22.84,0,0,1-9.19,1.63,24.24,24.24,0,0,1-7.85-1.23,16.22,16.22,0,0,1-6.29-3.89,18,18,0,0,1-4.15-7,32.2,32.2,0,0,1-1.48-10.41A28.78,28.78,0,0,1,201.39,432a17.38,17.38,0,0,1,6.5-7.7,17.88,17.88,0,0,1,9.82-2.67,18.32,18.32,0,0,1,10,2.67,16.85,16.85,0,0,1,6.44,7.46,26.15,26.15,0,0,1,2.2,11Zm-8.75-6.13a17.1,17.1,0,0,0-1.19-6,8.82,8.82,0,0,0-3.32-4.06,9.32,9.32,0,0,0-5.35-1.53,9.46,9.46,0,0,0-5.35,1.53,9,9,0,0,0-3.4,4.06,10.87,10.87,0,0,0-.79,2.39q-.18,1-.36,3.57Z" transform="matrix(1, 0, 0, 1, 21.84457, -45.540894)" style="fill: rgb(30, 64, 121);"/>
  <path class="cls-2" d="M109.88,576.8a46.79,46.79,0,0,1-3.71,14.69,35.22,35.22,0,0,1-8.26,11.64A37.2,37.2,0,0,1,85,610.78a51.5,51.5,0,0,1-17.58,2.75,43.71,43.71,0,0,1-18-3.6,38.69,38.69,0,0,1-13.76-10.26,46.53,46.53,0,0,1-8.74-16.1,68.85,68.85,0,0,1-3-21.19v-8.77A67.43,67.43,0,0,1,27,532.45a46.52,46.52,0,0,1,8.92-16.17,39.55,39.55,0,0,1,14-10.34,45,45,0,0,1,18.4-3.64,48.52,48.52,0,0,1,17.1,2.79A36.52,36.52,0,0,1,98,512.82a35.51,35.51,0,0,1,8.11,11.79,50.27,50.27,0,0,1,3.75,14.94H91.15a42.16,42.16,0,0,0-2.05-9.22,19.67,19.67,0,0,0-4.13-7A17,17,0,0,0,78.21,519a29.09,29.09,0,0,0-9.89-1.49A24.59,24.59,0,0,0,57.13,520a21.34,21.34,0,0,0-8,7,32.68,32.68,0,0,0-4.8,11.26,65.75,65.75,0,0,0-1.6,15.25v8.92a70.81,70.81,0,0,0,1.41,14.72,34.78,34.78,0,0,0,4.39,11.34,21,21,0,0,0,7.66,7.32,22.71,22.71,0,0,0,11.23,2.61A32.31,32.31,0,0,0,77.72,597a17.66,17.66,0,0,0,7-4.16A18.82,18.82,0,0,0,89,586a40.5,40.5,0,0,0,2.2-9.22Z" transform="matrix(1, 0, 0, 1, 21.84457, -45.540894)" style="fill: rgb(88, 89, 91);"/>
  <path class="cls-2" d="M136.66,540.37a29.9,29.9,0,0,1,9.81-7.55A28.66,28.66,0,0,1,159,530.11a33.23,33.23,0,0,1,10.7,1.64A20,20,0,0,1,178,537a24.14,24.14,0,0,1,5.28,9.37,46,46,0,0,1,1.85,13.94v51.75H167.07v-51.9q0-8.32-3.61-11.79c-2.4-2.3-5.94-3.45-10.59-3.45a17.54,17.54,0,0,0-9.71,2.6,19.17,19.17,0,0,0-6.5,7.06v57.48H118.59V497.84h18.07Z" transform="matrix(1, 0, 0, 1, 21.84457, -45.540894)" style="fill: rgb(88, 89, 91);"/>
  <path class="cls-2" d="M232.73,613.53a41.45,41.45,0,0,1-16.06-3,35.3,35.3,0,0,1-12.12-8.18A35.72,35.72,0,0,1,196.89,590a43.37,43.37,0,0,1-2.68-15.39v-3A49.51,49.51,0,0,1,197,554.46a39.34,39.34,0,0,1,7.73-13.09,34.17,34.17,0,0,1,11.56-8.32,35,35,0,0,1,14.32-2.94,36.57,36.57,0,0,1,15.24,2.94,28.67,28.67,0,0,1,10.7,8.21,35.28,35.28,0,0,1,6.33,12.57,58.31,58.31,0,0,1,2.08,16v7.74H212.43a28.77,28.77,0,0,0,2,8.62,21.19,21.19,0,0,0,4.35,6.81,20.06,20.06,0,0,0,6.5,4.49,21.19,21.19,0,0,0,8.52,1.64,24.05,24.05,0,0,0,11.64-2.68,27.3,27.3,0,0,0,8.58-7.36l9.74,9.3a33.55,33.55,0,0,1-4.79,5.61,32.58,32.58,0,0,1-6.69,4.83,38,38,0,0,1-8.67,3.42A41.65,41.65,0,0,1,232.73,613.53Zm-2.16-68.92a15.21,15.21,0,0,0-12,5.2q-4.58,5.21-5.83,14.5h34.42V563A32.88,32.88,0,0,0,246,556.1a17.5,17.5,0,0,0-2.86-5.88,14,14,0,0,0-5-4.09A17,17,0,0,0,230.57,544.61Z" transform="matrix(1, 0, 0, 1, 21.84457, -45.540894)" style="fill: rgb(88, 89, 91);"/>
  <path class="cls-2" d="M306,599.11a18.43,18.43,0,0,0,6.14-1,15.42,15.42,0,0,0,5-2.83,14.29,14.29,0,0,0,3.42-4.35,13.44,13.44,0,0,0,1.45-5.5h17a25.66,25.66,0,0,1-2.86,10.93,29.72,29.72,0,0,1-7.06,9,33.42,33.42,0,0,1-10.3,6,35.68,35.68,0,0,1-12.57,2.19A38.09,38.09,0,0,1,290,610.34a32.43,32.43,0,0,1-11.45-8.7,36.41,36.41,0,0,1-6.8-12.87,53.41,53.41,0,0,1-2.23-15.61v-2.6a53.53,53.53,0,0,1,2.23-15.62,36.9,36.9,0,0,1,6.8-12.9A32.25,32.25,0,0,1,290,533.31a41.49,41.49,0,0,1,29.4-1,30.18,30.18,0,0,1,10.26,6.25,28.47,28.47,0,0,1,6.69,9.59A33,33,0,0,1,339,560.45H322a18.94,18.94,0,0,0-1.3-6.1,15.85,15.85,0,0,0-3.2-5.06,15.21,15.21,0,0,0-4.95-3.42,16.23,16.23,0,0,0-6.54-1.26,16.56,16.56,0,0,0-9.07,2.27,16.74,16.74,0,0,0-5.65,5.91,24.79,24.79,0,0,0-2.86,8.33,57.35,57.35,0,0,0-.78,9.44v2.6a57.52,57.52,0,0,0,.78,9.55,24.86,24.86,0,0,0,2.86,8.3,15.62,15.62,0,0,0,14.72,8.1Z" transform="matrix(1, 0, 0, 1, 21.84457, -45.540894)" style="fill: rgb(88, 89, 91);"/>
  <path class="cls-2" d="M372.67,577.55l-8,8.25v26.25H346.57V497.84h18.07v65.88l5.65-7.07,22.24-25h21.71l-29.89,33.53,33.08,46.92H396.54Z" transform="matrix(1, 0, 0, 1, 21.84457, -45.540894)" style="fill: rgb(88, 89, 91);"/>
  <path class="cls-2" d="M455,573.31H416V558.74h39Z" transform="matrix(1, 0, 0, 1, 21.84457, -45.540894)" style="fill: rgb(88, 89, 91);"/>
  <path class="cls-2" d="M485.4,612.05H466.67V503.79H485.4Z" transform="matrix(1, 0, 0, 1, 21.84457, -45.540894)" style="fill: rgb(88, 89, 91);"/>
  <path class="cls-2" d="M517.46,531.6l.52,9.29a29.39,29.39,0,0,1,10.18-7.95,30.4,30.4,0,0,1,13.24-2.83,32.54,32.54,0,0,1,10.52,1.6,19.34,19.34,0,0,1,8.07,5.17,24,24,0,0,1,5.17,9.29,46.4,46.4,0,0,1,1.82,13.9v52H548.91V559.93a23,23,0,0,0-.93-7,11.43,11.43,0,0,0-2.71-4.65,10.24,10.24,0,0,0-4.43-2.56,21.42,21.42,0,0,0-6.06-.78,17.45,17.45,0,0,0-9.7,2.67,19.48,19.48,0,0,0-6.58,7.21v57.26H500.43V531.6Z" transform="matrix(1, 0, 0, 1, 21.84457, -45.540894)" style="fill: rgb(88, 89, 91);"/>
</svg>