<?xml version="1.0" encoding="utf-8"?>
<svg viewBox="-40.802 477.977 822.86 229.08" width="822.86" height="229.08" xmlns="http://www.w3.org/2000/svg">
  <path class="cls-1" d="M43,428.43a20.36,20.36,0,0,1-2.73,10.76,18,18,0,0,1-7.42,6.87,22.69,22.69,0,0,1-10.37,2.37,25.62,25.62,0,0,1-5.73-.61,16.9,16.9,0,0,1-4.9-1.94,22,22,0,0,1-4.34-3.44l6.22-6.15a15.9,15.9,0,0,0,3.81,2.82,11.25,11.25,0,0,0,4.94.91,12.06,12.06,0,0,0,6-1.42,9.26,9.26,0,0,0,3.85-4.18,15.34,15.34,0,0,0,1.33-6.7v-38H43Z" transform="matrix(1, 0, 0, 1, -48.312042, 88.256729)" style="fill: rgb(30, 64, 121);"/>
  <path class="cls-1" d="M82.28,448.43H73.61V444a15,15,0,0,1-5,3.45,18.23,18.23,0,0,1-6.64,1,21.51,21.51,0,0,1-6.89-1,12.57,12.57,0,0,1-4.91-3A13,13,0,0,1,46.66,435a12.48,12.48,0,0,1,1.74-6.62A11.49,11.49,0,0,1,53.54,424a19.58,19.58,0,0,1,8.27-1.58H73.44v-3.12q0-4.22-2.28-6.2t-7.32-2a14.17,14.17,0,0,0-5.73.93,10.75,10.75,0,0,0-3.92,3.29l-5.79-5.45a16.61,16.61,0,0,1,6.6-5,25.61,25.61,0,0,1,9.18-1.4q18.09,0,18.1,15.1Zm-8.84-16.37v-3.55H63.12a9,9,0,0,0-5.86,1.65,5.73,5.73,0,0,0-2,4.7q0,6.21,8,6.21a19.77,19.77,0,0,0,4.74-.48,8.14,8.14,0,0,0,3.51-2C72.8,437.31,73.44,435.14,73.44,432.06Z" transform="matrix(1, 0, 0, 1, -48.312042, 88.256729)" style="fill: rgb(30, 64, 121);"/>
  <path class="cls-1" d="M101.71,448.43H99q-6,0-9-3.44a12.74,12.74,0,0,1-3-8.7V389.75h8.84v46a5.9,5.9,0,0,0,1.06,3.87c.7.83,1.93,1.24,3.68,1.24h1.13Z" transform="matrix(1, 0, 0, 1, -48.312042, 88.256729)" style="fill: rgb(30, 64, 121);"/>
  <path class="cls-1" d="M141,448.43h-8.67v-5.2a14.51,14.51,0,0,1-3.38,3.13,12.75,12.75,0,0,1-3.72,1.59,19.43,19.43,0,0,1-4.53.48,17,17,0,0,1-6.07-1.06,12.3,12.3,0,0,1-7.82-7.88,26,26,0,0,1-1.42-6.2,79.61,79.61,0,0,1,0-14.7,25.48,25.48,0,0,1,1.42-6.15,13.4,13.4,0,0,1,3.15-5,12.71,12.71,0,0,1,4.65-2.89,18.59,18.59,0,0,1,12.46.07,12.94,12.94,0,0,1,5.09,3.87v-18.7H141ZM132.16,426a37,37,0,0,0-.67-7.62,9.42,9.42,0,0,0-2.69-5,8.09,8.09,0,0,0-5.73-1.88,8.22,8.22,0,0,0-5.8,1.9,9.45,9.45,0,0,0-2.7,5,36.57,36.57,0,0,0-.68,7.6,36.94,36.94,0,0,0,.68,7.63,9.54,9.54,0,0,0,2.7,5.06,8.14,8.14,0,0,0,5.8,1.93q5.42,0,7.25-3.87T132.16,426Z" transform="matrix(1, 0, 0, 1, -48.312042, 88.256729)" style="fill: rgb(30, 64, 121);"/>
  <path class="cls-1" d="M182.47,428.51H154a15.14,15.14,0,0,0,1.31,6.58,9.8,9.8,0,0,0,3.79,4.23,11.6,11.6,0,0,0,6.11,1.5,14.3,14.3,0,0,0,5.88-1,17.55,17.55,0,0,0,4.78-3.46l5.63,5.24a24.3,24.3,0,0,1-7.29,5.22,22.67,22.67,0,0,1-9.19,1.63,24.51,24.51,0,0,1-7.85-1.22,16,16,0,0,1-6.29-3.9,17.86,17.86,0,0,1-4.15-7,32.2,32.2,0,0,1-1.48-10.41,29,29,0,0,1,2.3-12.1,17.47,17.47,0,0,1,6.5-7.69,17.91,17.91,0,0,1,9.83-2.67,18.32,18.32,0,0,1,10,2.67,16.91,16.91,0,0,1,6.44,7.46,26.12,26.12,0,0,1,2.2,11Zm-8.75-6.13a17.16,17.16,0,0,0-1.19-6,8.92,8.92,0,0,0-3.32-4.06,9.39,9.39,0,0,0-5.35-1.52,9.53,9.53,0,0,0-5.35,1.52,9.18,9.18,0,0,0-3.41,4.06,11.72,11.72,0,0,0-.78,2.39,34.46,34.46,0,0,0-.36,3.58Z" transform="matrix(1, 0, 0, 1, -48.312042, 88.256729)" style="fill: rgb(30, 64, 121);"/>
  <path class="cls-1" d="M223.94,428.51H195.43a15.14,15.14,0,0,0,1.31,6.58,9.74,9.74,0,0,0,3.79,4.23,11.58,11.58,0,0,0,6.11,1.5,14.37,14.37,0,0,0,5.88-1,17.55,17.55,0,0,0,4.78-3.46l5.62,5.24a24.27,24.27,0,0,1-7.28,5.22,22.7,22.7,0,0,1-9.19,1.63,24.51,24.51,0,0,1-7.85-1.22,16,16,0,0,1-6.29-3.9,17.74,17.74,0,0,1-4.15-7,32.18,32.18,0,0,1-1.49-10.41,28.86,28.86,0,0,1,2.31-12.1,17.47,17.47,0,0,1,6.5-7.69,17.91,17.91,0,0,1,9.83-2.67,18.32,18.32,0,0,1,10,2.67,16.91,16.91,0,0,1,6.44,7.46,26.28,26.28,0,0,1,2.2,11Zm-8.76-6.13a17.16,17.16,0,0,0-1.18-6,9,9,0,0,0-3.32-4.06,9.39,9.39,0,0,0-5.35-1.52,9.51,9.51,0,0,0-5.35,1.52,9.18,9.18,0,0,0-3.41,4.06,11.72,11.72,0,0,0-.78,2.39,34.46,34.46,0,0,0-.36,3.58Z" transform="matrix(1, 0, 0, 1, -48.312042, 88.256729)" style="fill: rgb(30, 64, 121);"/>
  <path class="cls-2" d="M87.29,562.64H45.36l-8.78,25.21H17L57.92,479.59H74.8l41,108.26H96.14ZM50.64,547.47H82L66.33,502.56Z" transform="matrix(1, 0, 0, 1, -48.312042, 88.256729)" style="fill: rgb(88, 89, 91);"/>
  <path class="cls-2" d="M187.08,548.44a61.88,61.88,0,0,1-2,16.28,39.64,39.64,0,0,1-6,13,28.64,28.64,0,0,1-9.82,8.55,28.21,28.21,0,0,1-13.35,3.08,30.47,30.47,0,0,1-12.11-2.23,26,26,0,0,1-9.08-6.47v38.15H116.6V507.39h16.65l.74,8.18a26.24,26.24,0,0,1,9.19-7.17,29.06,29.06,0,0,1,12.45-2.49,29.55,29.55,0,0,1,13.53,3,27.58,27.58,0,0,1,9.86,8.37,38.62,38.62,0,0,1,6,12.93,64,64,0,0,1,2,16.7Zm-18-1.56A46,46,0,0,0,168,536.69a26.74,26.74,0,0,0-3.31-8.33,15.72,15.72,0,0,0-14.12-7.66,18,18,0,0,0-9.82,2.46,17.23,17.23,0,0,0-6.1,6.69v35.69a18.36,18.36,0,0,0,6.06,6.8,17.68,17.68,0,0,0,10,2.57,15.74,15.74,0,0,0,8.37-2.12,17.23,17.23,0,0,0,5.69-5.73,26.74,26.74,0,0,0,3.27-8.44,48.46,48.46,0,0,0,1-10.18Z" transform="matrix(1, 0, 0, 1, -48.312042, 88.256729)" style="fill: rgb(88, 89, 91);"/>
  <path class="cls-2" d="M266.72,548.44a61.88,61.88,0,0,1-2,16.28,39.45,39.45,0,0,1-6,13,28.52,28.52,0,0,1-9.81,8.55,28.21,28.21,0,0,1-13.35,3.08,30.52,30.52,0,0,1-12.12-2.23,26,26,0,0,1-9.07-6.47v38.15H196.23V507.39h16.66l.74,8.18a26.24,26.24,0,0,1,9.19-7.17,29.06,29.06,0,0,1,12.45-2.49,29.55,29.55,0,0,1,13.53,3,27.46,27.46,0,0,1,9.85,8.37,38.44,38.44,0,0,1,6,12.93,64,64,0,0,1,2,16.7Zm-18-1.56a46,46,0,0,0-1.08-10.19,26.74,26.74,0,0,0-3.31-8.33,15.72,15.72,0,0,0-14.13-7.66,18,18,0,0,0-9.81,2.46,17.23,17.23,0,0,0-6.1,6.69v35.69a18.36,18.36,0,0,0,6.06,6.8,17.68,17.68,0,0,0,10,2.57,15.77,15.77,0,0,0,8.37-2.12,17.23,17.23,0,0,0,5.69-5.73,26.74,26.74,0,0,0,3.27-8.44,48.46,48.46,0,0,0,1-10.18Z" transform="matrix(1, 0, 0, 1, -48.312042, 88.256729)" style="fill: rgb(88, 89, 91);"/>
  <path class="cls-2" d="M272.53,546.88a49.75,49.75,0,0,1,2.56-16.25,38.58,38.58,0,0,1,7.36-13A33.72,33.72,0,0,1,294.16,509a37.76,37.76,0,0,1,15.69-3.12A38.47,38.47,0,0,1,325.69,509a33.57,33.57,0,0,1,11.79,8.63,38.17,38.17,0,0,1,7.32,13,50.56,50.56,0,0,1,2.53,16.25v1.56a50.83,50.83,0,0,1-2.53,16.28,37.84,37.84,0,0,1-7.32,13,33.61,33.61,0,0,1-11.75,8.55,41.89,41.89,0,0,1-31.53,0,33.61,33.61,0,0,1-11.75-8.55,38.25,38.25,0,0,1-7.36-13,50,50,0,0,1-2.56-16.28Zm18.07,1.56a45.71,45.71,0,0,0,1.11,10.26,25.58,25.58,0,0,0,3.5,8.44,18.31,18.31,0,0,0,23.45,5.69,17.2,17.2,0,0,0,6-5.69,26.91,26.91,0,0,0,3.49-8.44,44,44,0,0,0,1.15-10.26v-1.56a43.18,43.18,0,0,0-1.15-10.15,26.13,26.13,0,0,0-3.53-8.4,18.26,18.26,0,0,0-6.06-5.77,17.06,17.06,0,0,0-8.74-2.15,16.63,16.63,0,0,0-8.66,2.15,18.4,18.4,0,0,0-6,5.77,25.45,25.45,0,0,0-3.5,8.4,44.85,44.85,0,0,0-1.11,10.15Z" transform="matrix(1, 0, 0, 1, -48.312042, 88.256729)" style="fill: rgb(88, 89, 91);"/>
  <path class="cls-2" d="M356.55,486.5a9.58,9.58,0,0,1,2.64-6.91q2.64-2.76,7.55-2.76t7.58,2.76A9.49,9.49,0,0,1,377,486.5a9.25,9.25,0,0,1-2.68,6.8q-2.67,2.71-7.58,2.72t-7.55-2.72A9.34,9.34,0,0,1,356.55,486.5Zm19.19,101.35H357.67V507.39h18.07Z" transform="matrix(1, 0, 0, 1, -48.312042, 88.256729)" style="fill: rgb(88, 89, 91);"/>
  <path class="cls-2" d="M406.08,507.39l.52,9.3a29.48,29.48,0,0,1,10.19-8A30.46,30.46,0,0,1,430,505.91a32.54,32.54,0,0,1,10.52,1.6,19.32,19.32,0,0,1,8.07,5.16,24.08,24.08,0,0,1,5.17,9.3,46.4,46.4,0,0,1,1.82,13.9v52H437.53V535.72a23,23,0,0,0-.93-7,11.43,11.43,0,0,0-2.71-4.65,10.26,10.26,0,0,0-4.43-2.57,21.42,21.42,0,0,0-6.06-.78,17.47,17.47,0,0,0-9.7,2.68,19.48,19.48,0,0,0-6.58,7.21v57.26H389.05V507.39Z" transform="matrix(1, 0, 0, 1, -48.312042, 88.256729)" style="fill: rgb(88, 89, 91);"/>
  <path class="cls-2" d="M490.55,487.84v19.55h14.2v13.39h-14.2v44.91a14.07,14.07,0,0,0,.59,4.46,5.82,5.82,0,0,0,1.72,2.64,6,6,0,0,0,2.63,1.26,15.45,15.45,0,0,0,3.39.34,24.8,24.8,0,0,0,3.6-.26c1.17-.18,2.07-.34,2.72-.49v14q-2.16.6-5,1.15a35.85,35.85,0,0,1-6.88.56,27.6,27.6,0,0,1-8.29-1.19,16.5,16.5,0,0,1-6.62-3.86,18,18,0,0,1-4.35-7,31.28,31.28,0,0,1-1.56-10.56v-46H459.25V507.39h13.23V487.84Z" transform="matrix(1, 0, 0, 1, -48.312042, 88.256729)" style="fill: rgb(88, 89, 91);"/>
  <path class="cls-2" d="M529.44,507.39l.52,8.41a27.77,27.77,0,0,1,9.78-7.29,32.42,32.42,0,0,1,13.42-2.6,28.79,28.79,0,0,1,13.16,2.93,19.82,19.82,0,0,1,8.93,9.41,28.77,28.77,0,0,1,24.68-12.34,34.34,34.34,0,0,1,11.15,1.67,20,20,0,0,1,8.29,5.28,24.09,24.09,0,0,1,5.21,9.26,44.73,44.73,0,0,1,1.82,13.6v52.13H608.33v-52.2a22.39,22.39,0,0,0-1-7.32,10.91,10.91,0,0,0-2.9-4.58,10.54,10.54,0,0,0-4.54-2.38,24.68,24.68,0,0,0-6-.67A15.09,15.09,0,0,0,583.83,524a17.5,17.5,0,0,0-5.46,8.66,7.33,7.33,0,0,0,0,.79q0,.4,0,.78v53.61H560.37v-52a22.06,22.06,0,0,0-1-7.14,11.48,11.48,0,0,0-2.9-4.68,11.08,11.08,0,0,0-4.57-2.57,21.53,21.53,0,0,0-6-.78,17.62,17.62,0,0,0-9.56,2.38,16.31,16.31,0,0,0-5.84,6.47v58.3H512.42V507.39Z" transform="matrix(1, 0, 0, 1, -48.312042, 88.256729)" style="fill: rgb(88, 89, 91);"/>
  <path class="cls-2" d="M674.29,589.33a41.45,41.45,0,0,1-16.06-3,35.3,35.3,0,0,1-12.12-8.18,35.87,35.87,0,0,1-7.66-12.34,43.59,43.59,0,0,1-2.68-15.39v-3a49.74,49.74,0,0,1,2.83-17.21,39.34,39.34,0,0,1,7.73-13.09,34.14,34.14,0,0,1,11.57-8.33,35.12,35.12,0,0,1,14.31-2.93,36.7,36.7,0,0,1,15.24,2.93,28.81,28.81,0,0,1,10.71,8.22,35.43,35.43,0,0,1,6.32,12.57,57.88,57.88,0,0,1,2.08,16v7.74H654a29.15,29.15,0,0,0,2,8.62,21.2,21.2,0,0,0,4.35,6.8,19.87,19.87,0,0,0,6.51,4.5,21.11,21.11,0,0,0,8.51,1.64A24.05,24.05,0,0,0,687,572.23a27.33,27.33,0,0,0,8.59-7.36l9.74,9.29a32.86,32.86,0,0,1-11.49,10.45,38.9,38.9,0,0,1-8.66,3.42A41.73,41.73,0,0,1,674.29,589.33Zm-2.16-68.92a15.19,15.19,0,0,0-12,5.2q-4.57,5.21-5.84,14.5h34.42v-1.34a32.43,32.43,0,0,0-1.15-6.88A17.55,17.55,0,0,0,684.7,526a13.87,13.87,0,0,0-5-4.09A17,17,0,0,0,672.13,520.41Z" transform="matrix(1, 0, 0, 1, -48.312042, 88.256729)" style="fill: rgb(88, 89, 91);"/>
  <path class="cls-2" d="M731.25,507.39l.52,9.3a29.57,29.57,0,0,1,10.19-8,30.46,30.46,0,0,1,13.23-2.82,32.49,32.49,0,0,1,10.52,1.6,19.32,19.32,0,0,1,8.07,5.16A24.08,24.08,0,0,1,779,522a46.4,46.4,0,0,1,1.82,13.9v52H762.7V535.72a23,23,0,0,0-.93-7,11.43,11.43,0,0,0-2.71-4.65,10.28,10.28,0,0,0-4.42-2.57,21.42,21.42,0,0,0-6.06-.78,17.49,17.49,0,0,0-9.71,2.68,19.57,19.57,0,0,0-6.58,7.21v57.26H714.22V507.39Z" transform="matrix(1, 0, 0, 1, -48.312042, 88.256729)" style="fill: rgb(88, 89, 91);"/>
  <path class="cls-2" d="M815.72,487.84v19.55h14.2v13.39h-14.2v44.91a13.76,13.76,0,0,0,.6,4.46,5.73,5.73,0,0,0,1.71,2.64,6,6,0,0,0,2.64,1.26,15.29,15.29,0,0,0,3.38.34,25,25,0,0,0,3.61-.26c1.16-.18,2.07-.34,2.71-.49v14q-2.16.6-5,1.15a35.85,35.85,0,0,1-6.88.56,27.64,27.64,0,0,1-8.29-1.19,16.39,16.39,0,0,1-6.61-3.86,18,18,0,0,1-4.35-7,31.28,31.28,0,0,1-1.56-10.56v-46H784.42V507.39h13.24V487.84Z" transform="matrix(1, 0, 0, 1, -48.312042, 88.256729)" style="fill: rgb(88, 89, 91);"/>
</svg>