<svg xmlns="http://www.w3.org/2000/svg" xmlns:xlink="http://www.w3.org/1999/xlink" viewBox="0 0 1100 800"><defs><style>.cls-1{fill:#b3825a;}.cls-2{fill:#f0c7a5;}.cls-3{isolation:isolate;}.cls-4{opacity:0.09;}.cls-5{fill:#e5d1bd;}.cls-6{fill:#3b455a;}.cls-7{fill:#474ebb;}.cls-8{fill:#7fc5a3;}.cls-9{fill:#534741;}.cls-10{fill:#eac5b0;}.cls-11{fill:#f7f7f7;}.cls-12{fill:#d34e4e;}.cls-13{fill:#59595b;}.cls-14{fill:#e6e6e7;}.cls-15{fill:#272525;opacity:0.42;mix-blend-mode:multiply;}.cls-16{fill:#eacdb0;}.cls-17{opacity:0.1;}.cls-18{fill:#fff;}.cls-19{fill:#7b4f34;}.cls-20{fill:#161216;opacity:0.06;}.cls-21{fill:#ccd2d9;}.cls-22{fill:#e6e6e6;}.cls-23{fill:#ebb044;}.cls-24{fill:#243035;}.cls-25{fill:#a1714b;}.cls-26{fill:#1c2226;}.cls-27{fill:#324148;}.cls-28{fill:#f3d484;}.cls-29{clip-path:url(#clip-path);}.cls-30{fill:#51341e;}.cls-31{fill:#e27e5f;}.cls-32{fill:#f3ded1;}.cls-33{fill:#afb6c7;}.cls-34{fill:#c2c7d7;}.cls-35{fill:#1f252a;}.cls-36{fill:#edbc98;}.cls-37{clip-path:url(#clip-path-2);}.cls-38{fill:#192c40;}.cls-39{fill:none;stroke:#afb6c7;stroke-linecap:round;stroke-linejoin:round;stroke-width:0.76px;}</style><clipPath id="clip-path"><path class="cls-1" d="M965.48,247.13h50.9a9.6,9.6,0,0,1,9.6,9.6v68.14a9.61,9.61,0,0,1-9.61,9.61h-50.9a9.6,9.6,0,0,1-9.6-9.6V256.74a9.61,9.61,0,0,1,9.61-9.61Z" transform="translate(106.59 -242.54) rotate(14.74)"/></clipPath><clipPath id="clip-path-2"><rect class="cls-2" x="160.16" y="355.38" width="42.18" height="52.55" rx="8.94" transform="matrix(1, -0.07, 0.07, 1, -25.65, 13.27)"/></clipPath></defs><title>Sports domain</title><g class="cls-3"><g id="object"><path class="cls-4" d="M915.89,647.11a309.54,309.54,0,0,1,46.26,12.39c9.32,3.33,19.37,8,23,17.25,4.49,11.32-3.42,24.49-14.21,30.12s-23.52,5.67-35.69,5.59c-126.75-.79-253.5.08-380.25.95l-61.71.42c-3.78,0-7.74.1-11,1.94-7.38,4.14-1.56,7.65-2.66,12.64-1.35,6.13-4.3,11.39-9.66,15-8,5.37-18.12,6.34-27.75,7.14l-89,7.45c-43.65,3.65-87.51,7.31-131.19,4.15-15.89-1.15-32.3-3.4-45.79-11.86-7.46-4.68-14-11.51-16.27-20s.51-18.67,8-23.27c2.75-1.69,6-2.58,8.52-4.56s4.28-5.7,2.58-8.44c-10.17,0-96.26,5.79-68-25.29,11.61-12.75,56.83-8.53,72.19-9.57,41.37-2.79,82.8-4.48,124.25-5.38,38.92-.84,76.65-4.43,115.51-6.68,82.72-4.79,165.52-8.21,248.38-9.36q64.61-.9,129.23.17C839.18,638.55,878.2,639.91,915.89,647.11Z"/><path class="cls-5" d="M165,647.77c-3.14.21-6-.89-9.06-1.24a155.74,155.74,0,0,1,3.63-31.67c4.73,5.25,8.71,2.2,8.55,12.07C168.09,630.13,164.4,642.91,165,647.77Z"/><path class="cls-6" d="M155.27,641.19c-3.57-1.28-4.37,7.25-4.4,9.25a15.43,15.43,0,0,1-.18,3.6,9.66,9.66,0,0,1-2,3.4L143.49,664a11.68,11.68,0,0,0-2,3.15c-1,2.92.67,6.38,3.43,7.78,9.59,4.84,18.34-6.89,20.42-14.63.32-1.18.55-2.39.78-3.59.48-2.5,2.37-7.94,1.38-10.38-1.16-2.84-4.66-.78-7-1.85C158.44,643.44,156.72,641.7,155.27,641.19Z"/><path class="cls-7" d="M223.36,470.64c-8.93,24.32-19.25,48.12-25.12,73.58-7.27,31.46-19,62.13-25,93.66a77.89,77.89,0,0,1-11.63-.5c-4.43-.52-11.45-1.72-13.05-6.55-.81-2.47.05-6.48.18-9.05.4-8.21,1-16.42,1.59-24.62,1.71-23.2,2.88-46.69,7.15-69.57,4.49-24.07,8.79-48.22,12.74-72.28,2-12.44,4.55-24.8,7.65-37,.79-3.15,9.09-35.6,10.72-35.34a152.29,152.29,0,0,1,54.28,19.47c1.63,1,3.21,2.12,3.78,3.85s.05,3.22-.47,4.79c-5,15-11.75,29-17.11,43.88C227.21,460.14,225.31,465.32,223.36,470.64Z"/><path class="cls-5" d="M228.56,642.25c2.93,1.14,6,.94,9,1.52a156.68,156.68,0,0,0,6-31.32c-6.08,3.61-9-.49-11.76,9C230.87,624.5,230.59,637.8,228.56,642.25Z"/><path class="cls-6" d="M240.64,640.66c0,5.83,4.6,12.11,7.14,17.35a3.6,3.6,0,0,1-.59,4.69,7.33,7.33,0,0,1-3,2.86,7.07,7.07,0,0,1-4.1,0c-2.27-.5-4.52-1.1-6.73-1.8a4.9,4.9,0,0,1-1.57-.73,4.79,4.79,0,0,1-1.15-1.68c-1.57-3.15-2.9-5.39-2.82-8.9s.55-7.38-.12-11c-.32-1.74-.76-4,.74-4.93,1.15-.74,3.26.28,4.52.49,2.22.36,4.27.22,6.31,1.39a2.92,2.92,0,0,1,1.08.92A2.48,2.48,0,0,1,240.64,640.66Z"/><path class="cls-7" d="M225.53,455.79c1.3,25.88,4.07,51.66,2.11,77.72-2.42,32.19-.37,65-4,96.85a79.34,79.34,0,0,0,11.25,3c4.38.81,11.44,1.76,14.4-2.37,1.51-2.12,1.88-6.21,2.53-8.7,2.06-8,3.94-16,5.8-24,5.27-22.66,11.14-45.44,13.87-68.55,2.87-24.31,5.95-48.65,9.33-72.8,1.75-12.48,3-25,3.7-37.61.18-3.24,1.91-36.69.27-36.93a152.17,152.17,0,0,0-57.6,2.45c-1.85.44-3.71,1.07-4.76,2.55s-1,3.06-1,4.71c.36,15.78,2.6,31.17,3.29,47C225,444.61,225.25,450.13,225.53,455.79Z"/><path class="cls-6" d="M406.66,676.16a7.57,7.57,0,0,1,2.16-3.5c.55-.48,1.17-.85,1.71-1.35,2.5-2.33,2.22-4.56,5.91-4.06,4.19.58,8.38,1.35,12.56,2a.88.88,0,0,1,.47.16,1,1,0,0,1,.26.68c.17,1.45.34,2.9.52,4.35.46,3.92,4,5.07,6.85,6.62l2.29,1.21c3.26,1.73,13.15,5.58,8.27,10.69-2,2.11-5.51,2.11-8.2,2.38s-5.21-.36-7.77-.71a79.34,79.34,0,0,1-23.2-7.95c-2.67-1.42-2.49-5.43-2.26-8.29A11.7,11.7,0,0,1,406.66,676.16Z"/><polygon class="cls-7" points="418.41 421.35 410.04 454.1 419.32 547.46 408.41 671.66 432.93 673.73 464.74 554.92 489.83 424.93 418.41 421.35"/><path class="cls-6" d="M543.7,679.39a7.46,7.46,0,0,1,.86-4c.36-.64.83-1.2,1.16-1.84,1.59-3,.58-5,4.23-5.8,4.15-.85,8.35-1.52,12.52-2.27a.91.91,0,0,1,.49,0,1,1,0,0,1,.47.55c.65,1.31,1.3,2.62,1.94,3.93,1.75,3.54,5.44,3.45,8.67,4l2.56.38c3.65.54,14.26.88,11.36,7.32-1.2,2.67-4.5,3.83-6.94,5s-5,1.4-7.56,1.91a79.75,79.75,0,0,1-24.53.24c-3-.45-4.16-4.3-4.89-7.07A10.92,10.92,0,0,1,543.7,679.39Z"/><polygon class="cls-7" points="469.94 435.2 460.93 460.05 512.78 553.81 543.85 674.55 567.65 668.35 558.09 545.73 538.48 414.8 469.94 435.2"/><path class="cls-8" d="M389.85,430.18c.21-6.1.57-11.2.62-13a472.39,472.39,0,0,1,4.28-49.75c2-15,4.59-30.1,7.37-45.24,4.36-23.75,8.32-44.67,17.06-67.25,3.11-8,6.29-16.18,11.65-22.86,4.94-6.15,12.31-10.38,19.71-12.86,3.45-1.15,7.34-2.14,10.8-2.92,3.92-.89,5.88.88,9.63,2.48,2.52,1.08,5.48,1.37,8.09,2.29,15.52,5.43,24.38,16.39,29.63,31.94l12.67,37.53c3.47,10.27,6.94,20.55,9.95,31,7.88,27.29,12.53,55.4,16,83.59,1.71,14.13,3.12,28.29,4.47,42.46.86,9.06-3.74,5.25-9.18,2.48-9.37-4.77-18.68-9.79-29.19-11.52a88.92,88.92,0,0,0-15.48-.8c-31.45.45-63,5.13-92.56,15.94a16.27,16.27,0,0,0-5,2.53c-1.91,1.6-4.5,5.24-7.27,3.34-1.72-1.19-2.13-5.22-2.45-7C389.36,445.18,389.61,437.54,389.85,430.18Z"/><path class="cls-9" d="M464.87,154.56a38.4,38.4,0,0,1,8.25,15.63c.42,1.53.93,3.29,2.36,3.92s.87,3.07,1.57,1.54,3.06-6.82,2.84-8.5a63.88,63.88,0,0,0-2.67-11.59c-1.09-3.28-2.56-6.63-5.3-8.69a19,19,0,0,0-5.5-2.55c-2.78-.95-5.63-1.89-8.55-1.78-5,.18-7.59,2.61-2.55,5.06A30.58,30.58,0,0,1,464.87,154.56Z"/><path class="cls-10" d="M449.94,227.16l20.34-2.63A126.92,126.92,0,0,0,468,206.45c5.55-2.32,11.91-5.77,12.48-12.37a20.92,20.92,0,0,0-.74-6.26l-5.67-25.63c-.65-2.95-1.34-6-3-8.5-2.84-4.41-7.93-6.27-12.68-7.08-12.14-2.09-25,1-33.76,9.89a19.3,19.3,0,0,0-5.26,8.58c-1.35,5.23.28,10.94,1.89,16.26l4.47,14.74c1.71,5.65,4.07,12.06,9.15,14.1,2.69,1.08,5.77.69,8.25,2.32C447.56,215.37,447.44,222.27,449.94,227.16Z"/><path class="cls-6" d="M481,184c-.46-1.56-2.2-6-3.87-2.6a5,5,0,0,0-.15,3,10.91,10.91,0,0,1,.38,3.09c-.22,2.35-2.37,3.89-4.51,4.33a5.05,5.05,0,0,1-2.59,0,7.74,7.74,0,0,1-2.26-1.32l-5.18-3.84c-3-2.2-7.35,0-10.42,1.17a20.54,20.54,0,0,0-9.34,6.36l-.71,1a11.31,11.31,0,0,1-1.89,2.18c-2.49,2-6.31,1.36-8.87-.79-1.18-1-2.37-2.34-3.82-2.22a3,3,0,0,0-2.35,2.31,8.78,8.78,0,0,0,0,3.68,26.85,26.85,0,0,0,5.14,12.36c6,7.54,14.13,6.8,22,4.81l9.33-2.36c5.69-1.43,11.68-3,15.73-7.52,3.56-3.94,4.93-9.58,4.75-15.13A34.46,34.46,0,0,0,481,184Zm-18.18,16.76c-2.54,2.74-5.84,3.6-9.43,3.34-1.53-.12-1.48-2.69.05-2.58,3,.22,5.6-.39,7.72-2.68C462.23,197.65,463.89,199.57,462.83,200.72Z"/><path class="cls-6" d="M471.63,137.47a46.5,46.5,0,0,0-.22-6.57,12.33,12.33,0,0,1-5.94,1.9c-.29-1.22-.57-2.45-.86-3.67-.24-1-14,1.35-15.1,1.51-10.53,1.48-20.16,2.8-28.21,10.55-6.87,6.63-10.34,15-9.42,24.6.87,9.2,6.42,20.22,13.2,26.48-.58-2.37-3.21-7.68-3.17-10.06a20.94,20.94,0,0,1,.69-7,27.09,27.09,0,0,1,6.95-11.92c5.17-5.23,11.74-8.87,18.54-11.46,6.23-2.37,13.89-5,20.65-4.7,3.24.14,3.93.8,5.06-2.76.2-.62,1.32-7.67,1.06-7.62Z"/><path class="cls-11" d="M380.17,165.34l6.8,29.34,12.14,7.25,45.38-10.5,5.95-13.34a2,2,0,0,1,3.32-.77l11.37,9.33,45.21-10.46,7.73-11.85L511.28,135Z"/><rect class="cls-12" x="393.69" y="162.92" width="44.44" height="26.81" rx="2.35" transform="translate(-29.05 98.31) rotate(-13.03)"/><rect class="cls-7" x="461.7" y="147.18" width="44.44" height="26.81" rx="2.35" transform="translate(-23.75 113.24) rotate(-13.03)"/><rect class="cls-6" x="349.43" y="452.54" width="302.85" height="201.56" transform="translate(-100.64 111.48) rotate(-11.55)"/><rect class="cls-13" x="325.7" y="419.4" width="303.78" height="35.44" transform="translate(-77.85 104.47) rotate(-11.55)"/><polygon class="cls-11" points="594.67 431.28 629.95 424.07 622.85 389.35 622.29 389.47 594.67 431.28"/><polygon class="cls-14" points="325.23 450.17 331.23 479.56 354.61 444.17 325.23 450.17"/><polygon class="cls-11" points="407.36 433.39 379.74 475.2 434.45 464.02 462.07 422.21 407.36 433.39"/><polygon class="cls-11" points="514.83 411.43 487.2 453.24 541.91 442.06 569.54 400.25 514.83 411.43"/><polygon class="cls-6" points="354.61 444.17 331.23 479.56 332.32 484.89 379.74 475.2 407.36 433.39 354.61 444.17"/><polygon class="cls-6" points="462.07 422.21 434.45 464.02 487.2 453.24 514.83 411.43 462.07 422.21"/><polygon class="cls-6" points="569.54 400.25 541.91 442.06 594.67 431.28 622.29 389.47 569.54 400.25"/><polygon class="cls-14" points="357.96 434.7 325.4 450.08 310.26 418.05 310.78 417.8 357.96 434.7"/><polygon class="cls-11" points="584.91 288.24 597.73 315.36 557.8 301.06 584.91 288.24"/><polygon class="cls-11" points="509.12 324.06 556.3 340.96 505.81 364.82 458.63 347.93 509.12 324.06"/><polygon class="cls-11" points="409.95 370.93 457.13 387.83 406.64 411.69 359.46 394.79 409.95 370.93"/><polygon class="cls-6" points="557.8 301.06 597.73 315.36 600.06 320.28 556.3 340.96 509.12 324.06 557.8 301.06"/><polygon class="cls-6" points="458.63 347.93 505.81 364.82 457.13 387.83 409.95 370.93 458.63 347.93"/><polygon class="cls-6" points="359.46 394.79 406.64 411.69 357.96 434.7 310.78 417.8 359.46 394.79"/><polygon class="cls-6" points="332.32 484.89 310.28 418.1 342.83 402.7 404.04 470.24 332.32 484.89"/><polygon class="cls-15" points="342.83 402.7 378.32 425.07 367.4 429.8 342.83 402.7"/><polygon class="cls-15" points="376.38 439.72 414.46 468.11 404.04 470.24 376.38 439.72"/><path class="cls-11" d="M340,423.23a4.79,4.79,0,1,1-5.76-3.59A4.79,4.79,0,0,1,340,423.23Z"/><path class="cls-11" d="M345,465.78a4.8,4.8,0,1,1-5.77-3.58A4.8,4.8,0,0,1,345,465.78Z"/><path class="cls-11" d="M379.49,457.75a4.8,4.8,0,1,1-5.77-3.58A4.8,4.8,0,0,1,379.49,457.75Z"/><rect class="cls-14" x="374.82" y="609.27" width="275.36" height="2.05" transform="translate(-111.81 114.97) rotate(-11.55)"/><rect class="cls-14" x="466.29" y="622.3" width="2.26" height="33.45" transform="translate(-118.48 106.52) rotate(-11.55)"/><rect class="cls-14" x="564.1" y="602.31" width="2.26" height="33.45" transform="translate(-112.49 125.7) rotate(-11.55)"/><rect class="cls-14" x="349.08" y="483.2" width="275.36" height="2.26" transform="translate(-87.11 107.26) rotate(-11.55)"/><path class="cls-10" d="M383,404.06a11,11,0,0,0,1.34,4.39c1.2,1.77,3.38,2.54,5.44,3.13a27.39,27.39,0,0,0,9.9,1.35,11.72,11.72,0,0,0,8.63-4.53,73.08,73.08,0,0,0-5.65-9.07c-.17-.91,1.09-1.33,2-1.33s2.18-.25,2.18-1.18a1.64,1.64,0,0,0-.3-.81c-1.74-2.89-4.36-5.12-6.93-7.31L389.48,380a3.5,3.5,0,0,0-4.36-.87c-3.05,1-6.19,2-9.15,3.24C376.61,389.91,381.72,396.53,383,404.06Z"/><polygon class="cls-8" points="437.44 225.83 344.36 322.64 376.13 394.76 398.91 383.61 385.12 327.23 441.91 295.97 437.44 225.83"/><path class="cls-16" d="M581.63,218.76a2,2,0,0,0,.65-1.27c0-.63-.58-1.07-1-1.53a4.69,4.69,0,0,1,.7-6.83,4.37,4.37,0,0,1,6.33,2.26,21.26,21.26,0,0,0,7.15-4.79c.77-.77,1.59-1.67,2.68-1.71a3.85,3.85,0,0,1,1.87.57q1.93,1,3.84,2c1.69.92,3.47,2,4.15,3.81,1.07,2.82-1,5.77-3,8.06a7,7,0,0,1-1.44,1.39,9.59,9.59,0,0,1-2.22.84,23.14,23.14,0,0,0-5,2.58l-14.93,9.21c-.16.08-4.24-6.78-4.24-7.73C577.17,222.92,580,220.69,581.63,218.76Z"/><polygon class="cls-8" points="479.06 221.05 544.76 248.24 574.3 221.05 592.94 227.63 544.76 290 490.22 290 479.06 221.05"/><rect class="cls-12" x="554.98" y="87.71" width="129.78" height="133.85" rx="2.21" transform="translate(86.87 -197.6) rotate(19.45)"/><g class="cls-17"><path d="M546.52,199.7l105.32,37.2a7.31,7.31,0,0,0,9.34-4.37l22.6-64C661.18,232.53,591.45,210.79,546.52,199.7Z"/></g><path class="cls-18" d="M581.94,81.72,575,101.28c3.46-8.12,13.91-24.77,39.32-15.79l-23.07-8.15A7.31,7.31,0,0,0,581.94,81.72Z"/><polygon class="cls-11" points="653.96 166.67 602.95 107.87 577.34 180.4 653.96 166.67"/><polygon class="cls-19" points="716.85 227.91 720.39 219.05 728.17 215.76 728.33 213.77 725.89 213.51 731.59 208.95 732.83 203.2 727.55 197.52 719.57 196.28 714.38 202.19 712.5 211.29 707.13 223.22 716.85 227.91"/><path class="cls-7" d="M722.82,227.74a4.55,4.55,0,0,1,.55,1.57c.52,3.58-10.68,18.57-12.5,22.85a146.2,146.2,0,0,0-8.69,28l40.91-3.23A361.93,361.93,0,0,1,707,356.62a4.44,4.44,0,0,1-2.47,2.32,4.39,4.39,0,0,1-3.11-1,175.3,175.3,0,0,1-50.87-48.92c-11.89-17.31,15.76-41.93,25.94-55.73l28.62-38.78C709.24,217.49,720.16,222.82,722.82,227.74Z"/><path class="cls-19" d="M743.64,213.65a16.87,16.87,0,0,1,3.17-6.75c.45-.52,1-1,1.39-1.49,14.87-18.19,46.49-14.51,52,14.94,3,15.84-7,32.84-21.33,38.31.56,4.19-.1,9.28,0,12.46a3,3,0,0,1-.39,1.89,2.43,2.43,0,0,1-1.49.75,21.5,21.5,0,0,1-15.36-2.36,2.6,2.6,0,0,1-.9-.75,2.93,2.93,0,0,1-.33-1.41,69.73,69.73,0,0,1,.25-10.32c-8.55-2.79-14.76-10.83-17.38-19.54C740.8,231.06,741.32,222,743.64,213.65Z"/><path class="cls-6" d="M714.57,654.21l-7,7.3c-4.51,4.7-3,12.69,3.13,15,3.59,1.34,8.53.83,15.12-4.23l14.74-18.74-2.87-5.64-16.57-1.58Z"/><path class="cls-6" d="M730.05,449.07,684,553.72l33.27,96.38L740,648.38l6.43-74.4s69.41-97.32,64.71-100.2S730.05,449.07,730.05,449.07Z"/><path class="cls-6" d="M838.61,670.91,834.1,680c-2.9,5.83.94,13,7.45,13.35,3.84.21,8.4-1.75,13.18-8.54l8.48-22.28L858.78,658,842.5,661.4Z"/><path class="cls-6" d="M764.21,486.35c-6.18,12.59,9,44.51,12.6,56.93,4.06,13.92,6.1,36.24,14.13,48.45l49,74.46,21.24-8.45c-4.66-21.15-12.32-43.32-14.94-64.67-3.79-30.89,19.84-63.6,26.36-94.77,1.9-9.08,3.21-18.53,1.27-27.6s-7.68-17.8-16.35-21.11c-13.28-5.08-27.45,3.52-39.47,11.1-14.59,9.2-30.12,17.54-47.07,20.69A8.91,8.91,0,0,0,764.21,486.35Z"/><path class="cls-7" d="M829.69,282.77c22.64,18.53,31.32,50,36.77,79.49a707.08,707.08,0,0,1,10,79.18c.66,9.44.91,19.73-4.36,27.34-3.46,5-8.85,8.09-14.14,10.83a255,255,0,0,1-128.17,28.25c-4.91-.22-10.09-.67-14.17-3.6-3-2.19-5.16-5.55-7-8.9-18.61-33.5-20.4-74.21-17.93-112.72,1.78-27.73,5.83-56.25,19.84-79.68C736.15,260.15,792,251.9,829.69,282.77Z"/><path class="cls-11" d="M872.79,357.6a3.35,3.35,0,0,0-3-.24S736.35,410.6,733.21,411.8a5.54,5.54,0,0,0-1.54.67,3.34,3.34,0,0,0-1.26,2.92l14,148.16a3,3,0,0,1-3.14,3.32,51.88,51.88,0,0,0-24.78,6c-20.67,10.72-30.79,32.28-22.55,48,4.07,7.8,11.88,13,22,14.63a43.52,43.52,0,0,0,11.08.32A53,53,0,0,0,746.35,630c16.17-8.39,26.33-23.58,25.38-37.86,0-.11,0-.22,0-.33L760.64,474.76a3,3,0,0,1,1.91-3.11L853,435.58a3,3,0,0,1,4.16,2.53l8,84.45a3.05,3.05,0,0,1-3.14,3.32,51.77,51.77,0,0,0-24.79,6c-9.85,5.11-17.65,12.81-22,21.68-4.46,9.2-4.67,18.56-.6,26.36s11.89,13,22,14.63c9.76,1.57,20.56-.38,30.41-5.49,16.37-8.5,26.54-23.87,25.35-38.29,0-.06,0-.11,0-.17l-18-190.47A3.29,3.29,0,0,0,872.79,357.6ZM853.6,400.71l.57,6.09a3,3,0,0,1-1.89,3.11l-90.4,36.33a3,3,0,0,1-4.17-2.53l-.6-6.35a3,3,0,0,1,1.9-3.11l90.42-36.07A3.05,3.05,0,0,1,853.6,400.71Z"/><path class="cls-20" d="M703.09,630.78A33.57,33.57,0,0,0,716,635.53a43.52,43.52,0,0,0,11.08.32A53,53,0,0,0,746.35,630c16.17-8.39,26.33-23.58,25.38-37.86,0-.11,0-.22,0-.33l-3.09-32.67C751.46,605.42,722.17,623.65,703.09,630.78Z"/><path class="cls-20" d="M867.05,589.05c16.37-8.5,26.54-23.87,25.35-38.29,0-.06,0-.11,0-.17l-2.46-26c-19,43.68-49.1,59.3-66.69,64.83a33.35,33.35,0,0,0,13.4,5.1C846.4,596.11,857.2,594.16,867.05,589.05Z"/><path class="cls-6" d="M747.81,242a6.65,6.65,0,0,0,.81,2.12c1.84,2.85,6,2.61,9.37,2.31a66.25,66.25,0,0,1,15.22.38,28.38,28.38,0,0,0,5.95.52c4.43-.3,14.21-12.86,16.49-8a4.83,4.83,0,0,1-.17,3.38c-1.11,3.69-2.31,7.54-5,10.28-3,3-7.28,4.16-11.37,5.21a23.29,23.29,0,0,1-15.54,0c-9.17-2.44-20.35-6.47-22.19-17.51-.33-2,.35-4.67,2.37-4.92,1.74-.22,3.08,1.57,3.52,3.27C747.5,240,747.6,241,747.81,242Z"/><polygon class="cls-19" points="809.45 406.81 807.72 416.2 800.75 420.96 800.98 422.94 803.42 422.71 798.74 428.31 798.66 434.19 804.95 438.72 813.01 438.36 816.95 431.55 816.99 422.25 819.91 409.5 809.45 406.81"/><path class="cls-7" d="M803.44,408.2l-.66-.42c3.46-13.54,18.9-37,16-50.09-1.51-6.9-10.74-16.25-14.67-22.25l-16.77-25.59c-1.56-2.39-3.16-4.86-3.77-7.66-.78-3.59.17-7.33,1.55-10.73,2.37-5.81,6.23-11.26,11.75-14.24,8.47-4.57,25-3.79,32.64,2.08,5.27,4.07,8.91,9.85,12.34,15.56q7,11.67,13.49,23.66c4.6,8.51,9.1,17.53,9.23,27.21.08,6.47-1.8,12.79-3.67,19-4.36,14.49-23.93,58.07-45.3,49.3A79.37,79.37,0,0,1,803.44,408.2Z"/><path class="cls-12" d="M811.81,219.07c-.53-3.64-2-7.3-4.79-9.62-.29-.24-.57-.46-.86-.67a40.34,40.34,0,0,0-7.91-25.91c-8.35-11.26-22.34-18.12-37.52-15.53-18.05,3.07-25,23.43-25.19,40.39a7.59,7.59,0,0,0-2.39,2.24c-3,4.25-3.44,11.88-3.47,15.8,0,3,.19,6.23,1.68,8.89,1.85,3.34,8.12,6.66,11.14,2.5,1.44-2,.65-6.4.55-8.79-.14-3.17-.42-6.34-.58-9.51a23,23,0,0,1,.08-2.68,3.78,3.78,0,0,0,.6-2.58c-1.2-9.94.26-21.77,6.48-29.82,5.94-7.68,9.43-9.5,16.26-9.59,17.92-.24,33.86,13.23,33.56,31.68,0,.23,0,.59,0,1-5.63,1.92-7,14.36-6.21,20.49a17.17,17.17,0,0,0,3.18,8.65c1.92,2.4,5.09,3.9,7.9,3.06s4.56-3.64,5.69-6.45A26.55,26.55,0,0,0,811.81,219.07Z"/><path class="cls-21" d="M214.65,248.1c-.32.1-.63.21-.94.33-5.2,2-9.63,5.53-14,9-6.5,5.25-9.7,7.55-12.21,15.33a188,188,0,0,0-5.25,22.39c-7.36,38.38-8.78,76.59-14.07,115.26-1.43,10.53-2.55,22.9,5.24,30.13,13.81-10.75,31.17-11.37,47.92-11.39,11.76,0,23.27-3.82,35.06-2.5,11.27,1.25,21.11-1.57,32.54-.82,2.76.18,6.28.15,7.36-2.39-4-11.87-3.89-24.62-4.78-37.1-2.32-32.26-13-63.23-17.32-95.27-1.47-10.9-2.25-29-10.69-37.22-9.16-9-30.08-9.15-41.86-7.39A39.46,39.46,0,0,0,214.65,248.1Z"/><path class="cls-10" d="M179,402.22c1.7-8.05-3.45-12-8.17-18.81-2.63-3.82-3.67-15-10-14.11a10.23,10.23,0,0,0-3.55.92,9.09,9.09,0,0,0-2.3,1.94c-.53.58-1.5,1.37-1.47,2.14s1.36,2.32,1.79,3c5.45,9.27,7.78,20.26,5.23,31.1a6.63,6.63,0,0,0-.17,3.81,4.86,4.86,0,0,0,3.74,2.64c5.29,1.08,10.76-2.53,13.05-7.42A24.08,24.08,0,0,0,179,402.22Z"/><path class="cls-21" d="M131.54,329c7.31,20.13,20.71,55.07,24.89,53.88a52.49,52.49,0,0,0,18.23-9.43c-5.28-14.13-12.31-28.88-12.79-44.22-.57-18.43,22.86-17.9,37.36-23.92,4.46-1.84,9-3.92,12.18-7.55,3.7-4.24,5-10,5.52-15.66.65-7.49,1.7-23.43-6.44-27.48-12.5-6.22-31.63,12.39-40.92,18.82A240.06,240.06,0,0,0,128,310.07a5.71,5.71,0,0,0-1.67,2.81,5.85,5.85,0,0,0,.44,2.6C127.15,316.68,129,321.93,131.54,329Z"/><path class="cls-10" d="M223.4,247.55a4,4,0,0,0,.8,1.08,9.19,9.19,0,0,0,5.15,2.39,22.91,22.91,0,0,0,7.46-.53c3.33-.63,3.21-2.58,3.69-5.6.27-1.65.43-3.31.56-5,.06-.91-.29-4.18.29-4.82.4-.43,2-.29,2.71-.66a7.65,7.65,0,0,0,2.72-2.7A21.74,21.74,0,0,0,249,226.2l3-10a52.37,52.37,0,0,0,2.41-10.37c.51-5.34-.36-12.87-4.38-16.77-3.68-3.56-9-4.81-14-5.43a29,29,0,0,0-18.88,3.81,15.56,15.56,0,0,0-5.76,5.69c-2.07,3.84-1.91,8.62-1.69,13.1q.3,6.19.61,12.4c.24,4.75.83,10.23,4.39,12.8,1.89,1.37,4.36,1.66,6,3.42,2,2.2,1.9,5.49,2,8.28C222.84,244.73,222.72,246.24,223.4,247.55Z"/><path class="cls-6" d="M244,194.14a7,7,0,0,1,.56,1.21c.76,2.19.24,4.66,1,6.86,1.17,3.48,5.23,5.57,5.85,9.2.5,3-1.53,5.78-1.7,8.78-.19,3.28,1.91,6.38,1.59,9.62a21.34,21.34,0,0,1-3.75,9c.52-.69,5.23-.45,6.45-1.19,1.87-1.14,2.08-1.86,2.64-3.81s.12-3.85,1-5.83c1.05-2.43,3.22-4.22,4-6.81,1-3.54-.84-7.27-.7-11,.23-5.58,5.05-10.83,3.3-16.13-1-3.11-4.05-5.1-5.75-7.9-1.29-2.13-1.76-4.63-2.66-6.95s-2.43-4.64-4.81-5.35a40.07,40.07,0,0,0-4.11-.48c-2.35-.44-4.3-2.06-6.56-2.82-3.24-1.1-8.95,2.17-10.84,4.92s-.93,5,1,7.44C233.65,187,241.37,189.58,244,194.14Z"/><path class="cls-6" d="M200.42,177.67c-1.94,1.42-4.33,2.45-6.1,4.11-3.46,3.24-4.11,8.42-4.24,13.16-.11,4.21-2,8-1.5,12.35a10.77,10.77,0,0,0,4,7.68c3,2.17,7.69,2.53,9,6,1.45,3.74-2.42,8.46-.07,11.71,1.3,1.79,3.84,2,5.7,3.26,2.07,1.34,3.14,3.74,4.4,5.86s3.17,4.25,5.64,4.3c.1-3.75.21-6.73-1.4-10.16-.93-2-3.68-5.7-1.57-7.86,1.33-1.8,4.48-2.39,4.56-4.63a5.17,5.17,0,0,0-1.27-2.83,12.88,12.88,0,0,1-1-11.71,16.81,16.81,0,0,1,8.31-8.57c4.3-2.08,3.61-3.13,4.86-7.24,1.14-3.79,3.29-4.67,6.7-6,3.06-1.24,4-2,5.17-4.88.83-2.09,1.84-4.6.65-6.94a14.14,14.14,0,0,0-4.33-4.45c-3.47-2.65-7.37-5.43-11.72-5.12-2.41.18-4.69,1.31-7.11,1.45-1.61.09-3.21-.26-4.83-.32a12.83,12.83,0,0,0-7.88,2.39c-2.25,1.65-2.19,3.38-3.44,5.73A8.44,8.44,0,0,1,200.42,177.67Z"/><path class="cls-6" d="M210.16,162.22c.42-2.62.15-6-2.35-6.91-1.37-.48-2.9.05-4.32-.24-3-.62-4.07-4.29-5.66-6.95a2.31,2.31,0,0,0-.94-1,3.74,3.74,0,0,0-2,.05c-3,.37-5.31-2.61-8.16-3.69a7.14,7.14,0,0,0-9,4.48c-.44,1.48-.36,3.08-.77,4.57-1.66,6-10.51,8.61-10.73,14.87-.15,4.23,4,8.29,2.38,12.2-1,2.51-4.25,4.22-3.88,6.9a3.72,3.72,0,0,0,3.81,2.87,7.5,7.5,0,0,0,4.66-2.12c2.08-1.82,3.65-4.15,5.63-6.08s4.63-3.49,7.38-3.14,5.06,2.4,7.7,2c2.11-.35,3.68-2.23,5.75-2.77s4,.27,6,.39,4.45-.92,4.51-2.92a4.68,4.68,0,0,1,0-1.45c.42-1.29,2.63-1.22,3-2.51-1-1.61-2.52-1-3.27-3.14C209.41,166,209.9,163.86,210.16,162.22Z"/><path class="cls-10" d="M320.69,191.19l-1.53.06a2.43,2.43,0,0,0-.89.17,2.36,2.36,0,0,0-.68.58,36.48,36.48,0,0,0-5.2,8.35c-.56,1.12-.66,1.2-.12,2.39s1.35,2.6,2.06,3.86c.35,1.94.78,3.87,1,5.83.46,5-3.85,16,1.94,18.54a9.7,9.7,0,0,0,3.47,1,7.91,7.91,0,0,0,2.86-.59c.72-.26,1.93-.48,2.26-1.21s-.09-2.9-.11-3.79c-.08-2.53-.15-5.07-.23-7.6s.06-5.42,1.93-6.76a10.5,10.5,0,0,0,1.25-.84,4.25,4.25,0,0,0,.88-1.52,31.19,31.19,0,0,0,1.88-6.42c.33-2-.81-3.05-1.82-4.63s-1.07-3.67-2-5.37-2.49-2-4.35-2.07C322.42,191.18,321.56,191.17,320.69,191.19Z"/><path class="cls-21" d="M325.14,285.5c.83-5.27,1.6-10.65,2.73-16.11a167.55,167.55,0,0,0,2.89-46.92,46.23,46.23,0,0,0-19.95-.92c.08,0-8.12,36.57-9.9,40.25-4.58,9.5-4.2,8.37-12.55,4.35-7.32-3.53-14.06-8.9-21.26-12.79-7-3.76-14.62-7.3-22.46-6.24q-1.08,13.56-1.15,27.18c0,3.25,0,6.59,1.22,9.62s3.25,5.34,5.33,7.69c12.91,14.64,26.35,29.67,44,37.93a7.85,7.85,0,0,0,2.76.86,8.13,8.13,0,0,0,4.26-1.41C317.7,319.77,322.27,303.51,325.14,285.5Z"/><path class="cls-6" d="M425.33,225.44,395.4,253.08c-8.33,7.7-22.45,6.19-31.87-3.45L235.82,118.84c-4.51-4.62-5.09-11.34-1.27-14.87l56.1-51.82c3.81-3.53,10.44-2.39,14.65,2.5L424.54,193.26C433.34,203.49,433.66,217.74,425.33,225.44Z"/><polygon class="cls-22" points="283.43 125.29 271.48 136.24 266.93 131.25 278.88 120.29 283.43 125.29"/><polygon class="cls-22" points="301.33 108.86 289.39 119.82 284.84 114.82 296.78 103.86 301.33 108.86"/><polygon class="cls-22" points="319.23 92.44 307.29 103.39 302.74 98.39 314.68 87.44 319.23 92.44"/><polygon class="cls-22" points="296.3 139.42 284.35 150.38 279.8 145.38 291.75 134.43 296.3 139.42"/><polygon class="cls-22" points="314.2 123 302.26 133.95 297.71 128.96 309.65 118 314.2 123"/><polygon class="cls-22" points="332.1 106.57 320.16 117.53 315.61 112.53 327.55 101.58 332.1 106.57"/><polygon class="cls-22" points="309.17 153.56 297.22 164.51 292.68 159.52 304.62 148.56 309.17 153.56"/><polygon class="cls-22" points="327.07 137.13 315.13 148.09 310.58 143.09 322.52 132.14 327.07 137.13"/><polygon class="cls-22" points="344.97 120.71 333.03 131.66 328.48 126.67 340.42 115.71 344.97 120.71"/><path class="cls-22" d="M373.21,177.09l7.33-1.05a26.13,26.13,0,0,0-20.65-21.88l-1.3,6.6A18.85,18.85,0,0,1,373.21,177.09Z"/><path class="cls-22" d="M357.64,197.62l1.21,7.84a25.87,25.87,0,0,0,21.52-20.88l-7.48-1.43A18.65,18.65,0,0,1,357.64,197.62Z"/><path class="cls-22" d="M336.38,183.21l-7,1.32A26.12,26.12,0,0,0,351,205.45l1.16-7.75A18.84,18.84,0,0,1,336.38,183.21Z"/><path class="cls-22" d="M351.24,160.62,350,154.1a25.77,25.77,0,0,0-13.82,7.47,26,26,0,0,0-6.95,14.14l6.83,1.07A18.67,18.67,0,0,1,351.24,160.62Z"/><path class="cls-22" d="M355.35,168.49a11.22,11.22,0,1,1-11.65,10.69A11.24,11.24,0,0,1,355.35,168.49Z"/><polygon class="cls-8" points="372.27 224.1 362.2 233.34 360.06 230.99 370.13 221.75 372.27 224.1"/><polygon class="cls-23" points="390.07 207.02 380 216.26 377.86 213.91 387.93 204.67 390.07 207.02"/><polygon class="cls-7" points="407.88 189.95 397.81 199.18 395.66 196.83 405.73 187.59 407.88 189.95"/><path class="cls-8" d="M301.57,70a6.39,6.39,0,1,1-9-.42A6.43,6.43,0,0,1,301.57,70Z"/><polygon class="cls-24" points="912.92 450.9 892.12 540.81 841.25 439.23 912.92 450.9"/><path class="cls-25" d="M892.62,512.29l-10.53,18.57a29.13,29.13,0,0,1-9,9.76l-156.61,106-18.85-19.75,65.49-52s24.49-57.35,67.62-53.54l11.19-55.66Z"/><path class="cls-26" d="M723.39,634.4l-7.68-8s1.83-14.2-4.12-16.59-29.67,17.34-29.67,17.34S707.67,689,756.6,701.65c0,0,8.38-3.59,1.94-15.77-6.08-11.51-24.23-23.28-14.32-49.5,1-2.72,1.94-8-.89-8.75C737,626.06,726.87,625.19,723.39,634.4Z"/><path class="cls-24" d="M825.64,529.12s2.69,10.8,38.06-4c31-13,37.77-15.6,37.28-27s-55-11.94-55-11.94Z"/><path class="cls-1" d="M894.36,494.82l6.16,20.43a29,29,0,0,1,.83,13.26L869.88,715h-27.3l7.63-83.24s-24.57-57.32,8-85.89l-32.54-46.53Z"/><path class="cls-27" d="M819.82,408.27s-28.1,23.36-17.28,59.85,23.1,61,23.1,61,26.66-39.65,75.34-31l-21.64-62.74Z"/><path class="cls-1" d="M925,280.71s-9-14.91-46.88-15.48c0,0-16.48-12.3-56.37-13.41a11.4,11.4,0,0,0-9.47,4.6l-50.77,68.87L779.06,336l46.58-50.5,39.28,16.89,12,14.16,30.16,16.1Z"/><path class="cls-28" d="M925,280.71c-15.7,39.49-47.88,35.85-48,35.84-24.29,32.25-47.81,80.69-47.81,80.69l68.73,45,97-93.82C984.49,313.84,945.37,290.7,925,280.71Z"/><path class="cls-25" d="M946.86,330.12h0A18.86,18.86,0,0,1,952.23,304l25.47-16.77,20.75,31.51L973,335.5A18.85,18.85,0,0,1,946.86,330.12Z"/><path class="cls-1" d="M965.48,247.13h50.9a9.6,9.6,0,0,1,9.6,9.6v68.14a9.61,9.61,0,0,1-9.61,9.61h-50.9a9.6,9.6,0,0,1-9.6-9.6V256.74a9.61,9.61,0,0,1,9.61-9.61Z" transform="translate(106.59 -242.54) rotate(14.74)"/><g class="cls-29"><path class="cls-30" d="M953.89,299.36l3.62-3.9c4.57.23,14.85.62,14.85.62l.66-9.67s7.92-7.06,4.47-15.4a5.73,5.73,0,0,1,.25-4.62c1.34-2.81,4.39-2.38,11.1,1.19,10.58,5.63,37.18,17.21,47.21.17,12.63-21.45-64-24.75-64-24.75L952,264.33l1.91,35Z"/></g><path class="cls-1" d="M965.61,290.52A11.86,11.86,0,1,1,957.17,276,11.85,11.85,0,0,1,965.61,290.52Z"/><path class="cls-1" d="M803.72,373.26A21.44,21.44,0,1,1,778.44,390,21.43,21.43,0,0,1,803.72,373.26Z"/><path class="cls-1" d="M768.81,304.85a19.12,19.12,0,1,1-22.54,14.93A19.12,19.12,0,0,1,768.81,304.85Z"/><circle class="cls-31" cx="765.83" cy="362.26" r="44.68"/><path class="cls-1" d="M994.86,348.41s27.32,33.28-20.71,59.07c0,0-17.75,35.67-63.2,54.54a15,15,0,0,1-13.66-1.16l-84.46-52.59,5.22-25.45c63,34.36,87.53,45.33,87.53,45.33l52.31-44Z"/><path class="cls-26" d="M865.84,701.55H854.71s-9-11.14-14.85-8.49-7.94,33.44-7.94,33.44,62.55,24.11,105.5-2.54c0,0,3.18-8.54-10.08-12.29-12.52-3.55-33.56,1.45-45.69-23.82-1.26-2.63-4.48-7-6.94-5.4C869.21,685.93,861.58,692.67,865.84,701.55Z"/><path class="cls-2" d="M107.3,478.72a13.51,13.51,0,1,1,4.49-18.57A13.52,13.52,0,0,1,107.3,478.72Z"/><polygon class="cls-2" points="102.5 476.82 133.05 471.51 130.56 457.28 104.76 461.15 102.5 476.82"/><path class="cls-32" d="M80.55,311.29s-9.7.64-7.42,10.4c2,8.4,25,173.23,25,173.23h4.63L90.27,321.69S92.16,310.37,80.55,311.29Z"/><path class="cls-32" d="M94.79,494.75l10.61-.95a2.06,2.06,0,0,1,2.16,2.13h0a2.08,2.08,0,0,1-1.83,2.12L95.12,499A2.06,2.06,0,0,1,93,496.87h0A2.09,2.09,0,0,1,94.79,494.75Z"/><path class="cls-33" d="M112.54,478.62l-3.39-26.19,41.78-5.4,6.33-26,25.66,6.24-8.47,34.83a13.2,13.2,0,0,1-11.14,10Z"/><path class="cls-34" d="M185.29,410.57s-22.13,0-28.41,11.36c-6.42,11.64,27.72,49.14,31.39,91.5l63-6s-20.28-83.82-42.1-95.23C209.15,412.16,201.44,407,185.29,410.57Z"/><path class="cls-2" d="M101.3,486.38a13.51,13.51,0,1,1,8.61-17.05A13.5,13.5,0,0,1,101.3,486.38Z"/><polygon class="cls-2" points="97.06 483.43 128.01 485.24 128.84 470.82 102.83 468.7 97.06 483.43"/><polygon class="cls-2" points="157.61 702.07 155.43 722.71 137.41 720.66 139.7 700.38 157.61 702.07"/><path class="cls-35" d="M157.54,718.39a1.73,1.73,0,0,0-2.67-.77,13.66,13.66,0,0,1-9.77,2.73c-4.93-.41-6.78-2.94-7.47-4.76a1.75,1.75,0,0,0-2.36-1l-30,13.32a7.53,7.53,0,0,0-4,4.17h0a2.62,2.62,0,0,0,2.53,3.56l51.72-1.53a3.57,3.57,0,0,0,3.44-3.85l-.82-10a2.08,2.08,0,0,0-.11-.48Z"/><polygon class="cls-2" points="315.13 704.27 325.75 724.91 307.72 722.87 297.22 702.58 315.13 704.27"/><path class="cls-35" d="M325.85,720.59a1.74,1.74,0,0,0-2.68-.77,13.63,13.63,0,0,1-9.76,2.73c-4.94-.41-6.79-2.94-7.48-4.76a1.75,1.75,0,0,0-2.35-1l-30,13.32a7.57,7.57,0,0,0-4,4.17h0a2.63,2.63,0,0,0,2.53,3.57l54.39-2.15a3.56,3.56,0,0,0,3.44-3.85l-3.49-9.35a1.67,1.67,0,0,0-.11-.48Z"/><path class="cls-2" d="M186.58,424h0a12.42,12.42,0,0,1-14.23-10.29l-3.17-19.82L193.7,390l3.18,19.82A12.42,12.42,0,0,1,186.58,424Z"/><path class="cls-36" d="M170.94,404.92s5.79,10,17.74,6.5c10.46-3.05,6.17-13.34,6.17-13.34Z"/><rect class="cls-2" x="160.16" y="355.38" width="42.18" height="52.55" rx="8.94" transform="matrix(1, -0.07, 0.07, 1, -25.65, 13.27)"/><rect class="cls-2" x="160.16" y="355.38" width="42.18" height="52.55" rx="8.94" transform="matrix(1, -0.07, 0.07, 1, -25.65, 13.27)"/><g class="cls-37"><path class="cls-26" d="M160.62,391.1l4-.44c2.64-.74,6.28-2.27,5.84-5L169,380s3.15-5.55-.42-9.63a3.49,3.49,0,0,1-.75-2.68c.22-1.86,1.35-4.27,5.86-3.53,7.11,1.17,21.29,1.8,23.72-9.84,3.07-14.66-37.32,1.13-37.32,1.13l-7.33,16,7.83,19.6Z"/></g><path class="cls-2" d="M166.77,386.36a7.13,7.13,0,1,1-7.6-6.63A7.13,7.13,0,0,1,166.77,386.36Z"/><path class="cls-34" d="M174.87,496.52a11.58,11.58,0,0,1-1.44-.08l-59.21-6.5,2.87-26.25,55.81.06,22.88-36.54A13.21,13.21,0,0,1,214,423h0a13.19,13.19,0,0,1,4.18,18.19l-32.1,49.1A13.19,13.19,0,0,1,174.87,496.52Z"/><polygon class="cls-38" points="188.27 513.43 143.97 598.8 133.25 705.38 162.4 705.38 177.3 608.76 234.88 532.41 188.27 513.43"/><polygon class="cls-38" points="251.25 507.39 274.92 608.42 324.59 707.58 294.29 709.78 241.27 617.55 209.15 540.27 188.27 513.43 251.25 507.39"/><line class="cls-39" x1="184.19" y1="492.64" x2="218.16" y2="441.22"/><line class="cls-39" x1="172.9" y1="463.75" x2="181.63" y2="449.81"/></g></g></svg>